<svg id="Logo_Design" data-name="Logo Design" xmlns="http://www.w3.org/2000/svg" width="35.854" height="35.854" viewBox="0 0 35.854 35.854">
  <g id="Group_21384" data-name="Group 21384">
    <g id="Group_21383" data-name="Group 21383">
      <path id="Path_8862" data-name="Path 8862" d="M34.8,0H30.532a1.05,1.05,0,0,0-1.05,1.05V2.1h-8.6a3.133,3.133,0,0,0-5.915,0h-8.6V1.05A1.05,1.05,0,0,0,5.322,0H1.05A1.05,1.05,0,0,0,0,1.05v4.2A1.05,1.05,0,0,0,1.05,6.3H5.322a1.05,1.05,0,0,0,1.05-1.05V4.188h4.314A13.7,13.7,0,0,0,4.35,14.945a3.142,3.142,0,1,0,2.1.047A11.527,11.527,0,0,1,15.138,4.587a3.125,3.125,0,0,0,5.578,0,11.527,11.527,0,0,1,8.691,10.406,3.16,3.16,0,1,0,2.1-.047A13.678,13.678,0,0,0,25.168,4.2h4.314v1.05a1.05,1.05,0,0,0,1.05,1.05H34.8a1.05,1.05,0,0,0,1.05-1.05V1.05A1.05,1.05,0,0,0,34.8,0Z" fill="#fff"/>
    </g>
  </g>
  <g id="Group_21386" data-name="Group 21386" transform="translate(10.735 31.582)">
    <g id="Group_21385" data-name="Group 21385">
      <path id="Path_8863" data-name="Path 8863" d="M167.632,453.969a4.272,4.272,0,0,0-4-2.969h-6.3a4.272,4.272,0,0,0-4,2.969,1.035,1.035,0,0,0,1.022,1.3h12.249A1.035,1.035,0,0,0,167.632,453.969Z" transform="translate(-153.294 -451)" fill="#fff"/>
    </g>
  </g>
  <g id="Group_21388" data-name="Group 21388" transform="translate(8.473 9.206)">
    <g id="Group_21387" data-name="Group 21387">
      <path id="Path_8864" data-name="Path 8864" d="M139.731,143.8l-8.227-12.34v9.965a3.151,3.151,0,1,1-2.1,0v-9.965l-8.227,12.34a1.05,1.05,0,0,0,.131,1.325,13.264,13.264,0,0,1,3.637,7.077,6.255,6.255,0,0,1,2.358-.467h6.3a6.257,6.257,0,0,1,2.358.467,13.263,13.263,0,0,1,3.637-7.077A1.05,1.05,0,0,0,139.731,143.8Z" transform="translate(-121 -131.459)" fill="#fff"/>
    </g>
  </g>
  <g id="Group_21390" data-name="Group 21390" transform="translate(16.877 21.078)">
    <g id="Group_21389" data-name="Group 21389">
      <path id="Path_8865" data-name="Path 8865" d="M242.05,301a1.05,1.05,0,1,0,1.05,1.05A1.051,1.051,0,0,0,242.05,301Z" transform="translate(-241 -301)" fill="#fff"/>
    </g>
  </g>
</svg>
