<svg id="Mobile_Design" data-name="Mobile Design" xmlns="http://www.w3.org/2000/svg" width="39.021" height="39.021" viewBox="0 0 39.021 39.021">
  <path id="Path_8851" data-name="Path 8851" d="M116.181,154.09a2.09,2.09,0,1,1-2.09-2.09A2.091,2.091,0,0,1,116.181,154.09Zm0,0" transform="translate(-102.245 -138.761)" fill="#fff"/>
  <path id="Path_8852" data-name="Path 8852" d="M124.543,2.09a.7.7,0,0,1,.7-.7h6.143A2.091,2.091,0,0,0,129.42,0H114.09A2.091,2.091,0,0,0,112,2.09v.7h12.543Zm0,0" transform="translate(-102.245)" fill="#fff"/>
  <path id="Path_8853" data-name="Path 8853" d="M102.968,220.738v-1.254a3.484,3.484,0,1,0-6.968,0v1.254a7.631,7.631,0,0,0,2.787.806V220.18h1.394v1.362a7.645,7.645,0,0,0,2.787-.8Zm0,0" transform="translate(-87.638 -197.186)" fill="#fff"/>
  <path id="Path_8854" data-name="Path 8854" d="M48.406,111.339h1.358v1.394H48.408a7.67,7.67,0,0,0,2.518,5.017c.075.069.155.126.232.19v-.329a4.878,4.878,0,0,1,2.633-4.326,3.484,3.484,0,1,1,4.489,0,4.878,4.878,0,0,1,2.633,4.326v.332c.077-.064.157-.123.232-.19a7.669,7.669,0,0,0,2.518-5.021H62.307v-1.394h1.358a7.673,7.673,0,0,0-6.933-6.933v1.358H55.339v-1.358a7.673,7.673,0,0,0-6.933,6.933Zm0,0" transform="translate(-44.19 -95.312)" fill="#fff"/>
  <path id="Path_8855" data-name="Path 8855" d="M272,38.968h13.936V32H272Zm5.575-5.575h6.968v1.394h-6.968Zm-4.181,0h2.787v1.394h-2.787Zm0,2.787h11.149v1.394H273.394Zm0,0" transform="translate(-248.308 -29.213)" fill="#fff"/>
  <path id="Path_8856" data-name="Path 8856" d="M117.575,401.394a.7.7,0,0,1-.7.7H112a2.091,2.091,0,0,0,2.09,2.09h15.33a2.091,2.091,0,0,0,2.09-2.09V400H117.575Zm3.484,0h1.394v1.394h-1.394Zm0,0" transform="translate(-102.245 -365.159)" fill="#fff"/>
  <path id="Path_8857" data-name="Path 8857" d="M13.936,360H0v4.181H13.936Zm-9.059,2.787H1.394v-1.394H4.878Zm7.665,0H6.271v-1.394h6.271Zm0,0" transform="translate(0 -328.643)" fill="#fff"/>
  <path id="Path_8858" data-name="Path 8858" d="M319.082,160a.818.818,0,0,0-.542.2l-10.86,9.583,2.435,2.435,9.582-10.86a.82.82,0,0,0-.615-1.362Zm0,0" transform="translate(-280.88 -146.064)" fill="#fff"/>
  <path id="Path_8859" data-name="Path 8859" d="M251.814,283.6v1.229a3.215,3.215,0,0,1-.4,1.558H254.6a3.488,3.488,0,0,0,3.473-3.205l-3.055-3.055A3.489,3.489,0,0,0,251.814,283.6Zm0,0" transform="translate(-229.515 -255.729)" fill="#fff"/>
  <path id="Path_8860" data-name="Path 8860" d="M127.33,75.873h-4.878a.7.7,0,0,1-.311-1.324,1.812,1.812,0,0,0,1.008-1.628V71.692a4.878,4.878,0,0,1,4.6-4.864l3.763-3.32V54.968h-6.271a.7.7,0,0,1-.7-.7V48H112v3.737a9.056,9.056,0,0,1,1.394-.217V49.394h1.394v2.126a9.06,9.06,0,0,1,8.326,8.326h2.126v1.394h-2.128a9.018,9.018,0,0,1-8.325,8.33v2.122h-1.394V69.569a8.973,8.973,0,0,1-1.394-.22v4.433h4.878a.7.7,0,0,1,.7.7v2.787h13.936V73.494a4.878,4.878,0,0,1-4.181,2.378Zm0,0" transform="translate(-102.245 -43.819)" fill="#fff"/>
  <path id="Path_8861" data-name="Path 8861" d="M5.575,32H0v4.181H5.575ZM4.181,34.787H1.394V33.394H4.181Zm0,0" transform="translate(0 -29.213)" fill="#fff"/>
</svg>
