<svg id="Market_Research" data-name="Market Research" xmlns="http://www.w3.org/2000/svg" width="38.167" height="38.199" viewBox="0 0 38.167 38.199">
  <g id="Group_21378" data-name="Group 21378" transform="translate(20.992 20.992)">
    <g id="Group_21377" data-name="Group 21377">
      <path id="Path_8832" data-name="Path 8832" d="M298.418,295.531l-2.481-2.481a6.881,6.881,0,0,0,1.145-3.817,7.633,7.633,0,1,0-7.633,7.633,6.881,6.881,0,0,0,3.817-1.145l2.481,2.481a1.8,1.8,0,0,0,2.672,0A1.845,1.845,0,0,0,298.418,295.531Zm-8.969-2.481a3.817,3.817,0,1,1,3.817-3.817A3.828,3.828,0,0,1,289.449,293.05Z" transform="translate(-281.816 -281.6)" fill="#fff"/>
    </g>
  </g>
  <g id="Group_21380" data-name="Group 21380" transform="translate(0)">
    <g id="Group_21379" data-name="Group 21379">
      <path id="Path_8833" data-name="Path 8833" d="M28.841,0H2.124A1.8,1.8,0,0,0,.216,1.908v34.35a1.8,1.8,0,0,0,1.908,1.908H22.543a11.436,11.436,0,0,1,6.3-20.992,6.492,6.492,0,0,1,1.908.191V1.908A1.8,1.8,0,0,0,28.841,0ZM15.483,15.267H5.941a1.912,1.912,0,0,1-1.908-1.908A1.8,1.8,0,0,1,5.941,11.45h9.542a1.8,1.8,0,0,1,1.908,1.908A1.912,1.912,0,0,1,15.483,15.267Zm9.542-7.633H5.941A1.912,1.912,0,0,1,4.033,5.725,1.8,1.8,0,0,1,5.941,3.817H25.024a1.8,1.8,0,0,1,1.908,1.908A1.912,1.912,0,0,1,25.024,7.633Z" transform="translate(-0.216)" fill="#fff"/>
    </g>
  </g>
</svg>
