<svg xmlns="http://www.w3.org/2000/svg" width="36.164" height="40.934" viewBox="0 0 36.164 40.934">
  <g id="Shopify_Development" data-name="Shopify Development" transform="translate(-29.83 0)">
    <path id="Path_8919" data-name="Path 8919" d="M54.5,4.775l-1.226.379a8.555,8.555,0,0,0-.587-1.441,4.132,4.132,0,0,0-3.677-2.536h-.005c-.107,0-.213.01-.319.02-.045-.054-.091-.108-.139-.16A3.223,3.223,0,0,0,45.994,0c-1.985.057-3.962,1.491-5.565,4.037A15.989,15.989,0,0,0,38.2,9.823l-3.908,1.211c-1.15.361-1.187.4-1.337,1.481-.114.821-3.124,24.1-3.124,24.1l24.977,4.319V4.724A1.45,1.45,0,0,0,54.5,4.775ZM48.737,6.561l-4.212,1.3a9.988,9.988,0,0,1,2.127-4.128A4.259,4.259,0,0,1,48.082,2.7,9.465,9.465,0,0,1,48.737,6.561Zm-2.7-5.238a2.028,2.028,0,0,1,1.194.313,5.749,5.749,0,0,0-1.542,1.2,11.562,11.562,0,0,0-2.612,5.479L39.613,9.386C40.3,6.2,42.969,1.41,46.033,1.322ZM42.17,19.489c.134,2.125,5.724,2.589,6.038,7.566.247,3.916-2.077,6.594-5.426,6.805a8.13,8.13,0,0,1-6.231-2.117L37.4,28.12s2.227,1.68,4.009,1.568A1.574,1.574,0,0,0,42.95,28c-.175-2.772-4.727-2.608-5.014-7.163-.242-3.833,2.275-7.716,7.829-8.067A6.843,6.843,0,0,1,49,13.179L47.73,17.93a7.208,7.208,0,0,0-3.1-.539c-2.463.155-2.489,1.709-2.464,2.1ZM50.057,6.152a10.843,10.843,0,0,0-.6-3.612c1.506.285,2.248,1.99,2.561,3.006Z" transform="translate(0 0)" fill="#fff"/>
    <path id="Path_8920" data-name="Path 8920" d="M352.567,99.748l10.362-2.575s-4.461-30.162-4.49-30.369a.4.4,0,0,0-.359-.334c-.149-.012-3.066-.057-3.066-.057s-1.779-1.727-2.447-2.381V99.748Z" transform="translate(-296.934 -58.913)" fill="#fff"/>
  </g>
</svg>
