<svg id="Custom_Plugin_" data-name="Custom Plugin " xmlns="http://www.w3.org/2000/svg" width="32.795" height="33.966" viewBox="0 0 32.795 33.966">
  <path id="Path_8834" data-name="Path 8834" d="M41.685,30.586A.586.586,0,0,0,41.1,30H37v1.171h4.1A.586.586,0,0,0,41.685,30.586Z" transform="translate(-16.503 -13.017)" fill="#fff"/>
  <path id="Path_8835" data-name="Path 8835" d="M41.685,22.586A.586.586,0,0,0,41.1,22H37v1.171h4.1A.586.586,0,0,0,41.685,22.586Z" transform="translate(-16.503 -9.702)" fill="#fff"/>
  <path id="Path_8836" data-name="Path 8836" d="M27.73,27.9a.586.586,0,0,0,.365.129h1.933V21H28.095a.59.59,0,0,0-.365.128l-2.446,1.958a1.171,1.171,0,0,1-.733.257H23v2.342h1.551a1.171,1.171,0,0,1,.731.256Z" transform="translate(-10.702 -9.288)" fill="#fff"/>
  <path id="Path_8837" data-name="Path 8837" d="M3.171,29.11h4.4a4.937,4.937,0,0,1-.269-1.171H4.342a1.175,1.175,0,0,1-1.171-1.171V5.685A1.175,1.175,0,0,1,4.342,4.514h28.11a1.175,1.175,0,0,1,1.171,1.171V26.767a1.175,1.175,0,0,1-1.171,1.171H8.489a3.631,3.631,0,0,0,.357,1.171H33.624a1.175,1.175,0,0,0,1.171-1.171V2.171A1.175,1.175,0,0,0,33.624,1H3.171A1.175,1.175,0,0,0,2,2.171V27.939A1.175,1.175,0,0,0,3.171,29.11ZM28.939,2.171h3.514a.586.586,0,1,1,0,1.171H28.939a.586.586,0,1,1,0-1.171Zm-18.74,0h.586a.586.586,0,0,1,0,1.171H10.2a.586.586,0,0,1,0-1.171Zm-2.928,0h.586a.586.586,0,0,1,0,1.171H7.271a.586.586,0,0,1,0-1.171Zm-2.928,0h.586a.586.586,0,0,1,0,1.171H4.342a.586.586,0,1,1,0-1.171Z" transform="translate(-2 -1)" fill="#fff"/>
  <path id="Path_8838" data-name="Path 8838" d="M14.2,20.127a4.1,4.1,0,0,0-4.1,4.1v5.856H34.11V9H6V30.082H8.928V24.226A5.279,5.279,0,0,1,14.2,18.956h.586V18.37A1.175,1.175,0,0,1,15.956,17.2h1.552l2.448-1.956a1.736,1.736,0,0,1,1.1-.387h1.933a1.171,1.171,0,0,1,1.007.586h4.263a1.757,1.757,0,1,1,0,3.514h-4.1v1.171h4.1a1.757,1.757,0,1,1,0,3.514H23.99a1.171,1.171,0,0,1-1.007.586H21.051a1.736,1.736,0,0,1-1.1-.387l-2.448-1.956H15.956a1.175,1.175,0,0,1-1.171-1.171v-.586Z" transform="translate(-3.658 -4.315)" fill="#fff"/>
  <path id="Path_8839" data-name="Path 8839" d="M2.586,55.685H30.11a1.757,1.757,0,0,0,0-3.514H12.541A4.086,4.086,0,0,1,9.675,51H8.161a5.271,5.271,0,0,0,4.38,2.343H30.11a.586.586,0,1,1,0,1.171H2.586a.586.586,0,0,0,0,1.171Z" transform="translate(-2 -21.719)" fill="#fff"/>
</svg>
