<svg id="Different_Payment_Methods_Integrations" data-name="Different Payment Methods Integrations" xmlns="http://www.w3.org/2000/svg" width="37.167" height="37.167" viewBox="0 0 37.167 37.167">
  <path id="Path_8827" data-name="Path 8827" d="M75,257h5.081v2.178H75Z" transform="translate(-69.556 -238.344)" fill="#fff"/>
  <path id="Path_8828" data-name="Path 8828" d="M27.947,182H3.267A3.27,3.27,0,0,0,0,185.267v17.422a3.27,3.27,0,0,0,3.267,3.267H27.947a3.27,3.27,0,0,0,3.267-3.267V185.267A3.27,3.27,0,0,0,27.947,182ZM3.267,186.355a1.089,1.089,0,0,1,1.089-1.089h7.259a1.089,1.089,0,0,1,1.089,1.089v4.355a1.089,1.089,0,0,1-1.089,1.089H4.355a1.089,1.089,0,0,1-1.089-1.089Zm1.089,9.8H6.533a1.089,1.089,0,0,1,0,2.178H4.355a1.089,1.089,0,0,1,0-2.178Zm7.259,6.533H4.355a1.089,1.089,0,0,1,0-2.178h7.259a1.089,1.089,0,0,1,0,2.178Zm1.452-4.355H10.889a1.089,1.089,0,0,1,0-2.178h2.178a1.089,1.089,0,0,1,0,2.178Zm6.533,0H17.422a1.089,1.089,0,0,1,0-2.178H19.6a1.089,1.089,0,0,1,0,2.178Zm7.259-6.533h-3.63a1.089,1.089,0,1,1,0-2.178h3.63a1.089,1.089,0,1,1,0,2.178Zm0-4.355h-3.63a1.089,1.089,0,0,1,0-2.178h3.63a1.089,1.089,0,0,1,0,2.178Z" transform="translate(0 -168.788)" fill="#fff"/>
  <path id="Path_8829" data-name="Path 8829" d="M436.407,162.163l-2.161-8.063-3.636.974a5.437,5.437,0,0,1,2.133,4.318v7.135l1.353-.363A3.27,3.27,0,0,0,436.407,162.163Z" transform="translate(-399.353 -142.914)" fill="#fff"/>
  <path id="Path_8830" data-name="Path 8830" d="M265.128,100.2l7.281-1.951-.564-2.1L256.714,100.2Z" transform="translate(-238.079 -89.166)" fill="#fff"/>
  <path id="Path_8831" data-name="Path 8831" d="M31.713,11.034H39.4L62.378,4.876l-.658-2.454a3.27,3.27,0,0,0-4-2.31L33.88,6.5a3.27,3.27,0,0,0-2.31,4Z" transform="translate(-29.175 0)" fill="#fff"/>
</svg>
