<svg xmlns="http://www.w3.org/2000/svg" width="43.5" height="43.5" viewBox="0 0 43.5 43.5">
  <path id="Market_Research" data-name="Market Research" d="M39.043,4.457A15.219,15.219,0,0,0,16.658,25.042l-3.077,3.077a4.2,4.2,0,0,0-4.887.761L1.228,36.345a4.192,4.192,0,0,0,5.929,5.929l7.466-7.466a4.2,4.2,0,0,0,.762-4.889l3.076-3.076A15.219,15.219,0,0,0,43.5,15.219,15.119,15.119,0,0,0,39.043,4.457ZM23.1,20.656a1.274,1.274,0,1,1-2.549,0V16.577a1.274,1.274,0,1,1,2.549,0Zm4.248,0a1.274,1.274,0,1,1-2.549,0V12.329a1.274,1.274,0,1,1,2.549,0Zm4.248,0a1.274,1.274,0,1,1-2.549,0V14.029a1.274,1.274,0,1,1,2.549,0Zm4.248,0a1.274,1.274,0,1,1-2.549,0V9.78a1.274,1.274,0,0,1,2.549,0Zm0,0" transform="translate(-0.001)" fill="#fff"/>
</svg>
