<svg id="Wordpress_Development" data-name="Wordpress Development" xmlns="http://www.w3.org/2000/svg" width="40.933" height="40.934" viewBox="0 0 40.933 40.934">
  <g id="Group_21381" data-name="Group 21381" transform="translate(0)">
    <path id="Path_8840" data-name="Path 8840" d="M42.534,51.833,37.694,65.9a16.131,16.131,0,0,0,9.914-.257,1.433,1.433,0,0,1-.114-.222Z" transform="translate(-21.784 -29.955)" fill="#fff"/>
    <path id="Path_8841" data-name="Path 8841" d="M10.272,39.5a16.133,16.133,0,0,0,9.092,14.518L11.67,32.935A16.074,16.074,0,0,0,10.272,39.5Z" transform="translate(-5.937 -19.034)" fill="#fff"/>
    <path id="Path_8842" data-name="Path 8842" d="M40.927,25.589A8.5,8.5,0,0,0,39.6,21.139c-.818-1.329-1.585-2.454-1.585-3.783a2.793,2.793,0,0,1,2.709-2.863c.072,0,.139.009.209.012a16.128,16.128,0,0,0-24.371,3.037c.378.011.734.019,1.038.019,1.688,0,4.3-.2,4.3-.2a.666.666,0,0,1,.1,1.328s-.874.1-1.846.154l5.873,17.473,3.53-10.588L27.045,18.84c-.869-.051-1.691-.154-1.691-.154a.666.666,0,0,1,.1-1.328s2.665.2,4.249.2c1.687,0,4.3-.2,4.3-.2a.666.666,0,0,1,.1,1.328s-.875.1-1.846.154l5.83,17.341L39.7,30.8A19.5,19.5,0,0,0,40.927,25.589Z" transform="translate(-9.571 -5.936)" fill="#fff"/>
    <path id="Path_8843" data-name="Path 8843" d="M73.748,30.153a12.4,12.4,0,0,1,.109,1.659,15.213,15.213,0,0,1-1.226,5.778L67.7,51.836a16.131,16.131,0,0,0,6.045-21.683Z" transform="translate(-39.127 -17.426)" fill="#fff"/>
    <path id="Path_8844" data-name="Path 8844" d="M20.468,0A20.467,20.467,0,1,0,40.934,20.467,20.467,20.467,0,0,0,20.468,0Zm0,38.409a17.942,17.942,0,1,1,17.94-17.942A17.961,17.961,0,0,1,20.468,38.409Z" transform="translate(-0.001)" fill="#fff"/>
  </g>
</svg>
