<svg id="Development_for_the_" data-name="Development for the " xmlns="http://www.w3.org/2000/svg" width="33.374" height="33.243" viewBox="0 0 33.374 33.243">
  <path id="Path_8878" data-name="Path 8878" d="M33.374,8.822V3.933A2.937,2.937,0,0,0,30.44,1H2.933A2.937,2.937,0,0,0,0,3.933V8.822ZM22.553,4.911H28.42a.978.978,0,0,1,0,1.955H22.553a.978.978,0,0,1,0-1.955Zm-9.777,0a.978.978,0,1,1-.978.978A.978.978,0,0,1,12.776,4.911Zm-3.911,0a.978.978,0,1,1-.978.978A.978.978,0,0,1,8.865,4.911Zm-3.911,0a.978.978,0,1,1-.978.978A.978.978,0,0,1,4.954,4.911Z" transform="translate(0 -1)" fill="#fff"/>
  <path id="Path_8879" data-name="Path 8879" d="M0,151v20.533a2.937,2.937,0,0,0,2.933,2.933H30.44a2.937,2.937,0,0,0,2.933-2.933V151Zm11.431,13.9a.978.978,0,1,1-1.222,1.527l-4.889-3.911a.978.978,0,0,1,0-1.527l4.889-3.911a.978.978,0,1,1,1.222,1.527L7.5,161.755Zm9.088-9.607-5.866,13.688a.978.978,0,1,1-1.8-.77l5.866-13.688a.978.978,0,0,1,1.8.77Zm7.534,7.223-4.889,3.911a.978.978,0,1,1-1.222-1.527l3.934-3.148-3.934-3.147a.978.978,0,1,1,1.222-1.527l4.889,3.911A.978.978,0,0,1,28.053,162.519Z" transform="translate(0 -141.223)" fill="#fff"/>
</svg>
