<svg id="Project_Management" data-name="Project Management" xmlns="http://www.w3.org/2000/svg" width="42.297" height="32.219" viewBox="0 0 42.297 32.219">
  <path id="Path_8891" data-name="Path 8891" d="M181.239,241A1.239,1.239,0,1,1,180,242.239,1.241,1.241,0,0,1,181.239,241Z" transform="translate(-165.13 -226.13)" fill="#fff"/>
  <path id="Path_8892" data-name="Path 8892" d="M127.435,181.124v2.568a3.718,3.718,0,1,0,0,7.009v2.568a6.2,6.2,0,1,1,0-12.144Z" transform="translate(-110.087 -171.087)" fill="#fff"/>
  <path id="Path_8893" data-name="Path 8893" d="M7.435,77.109a8.684,8.684,0,0,0,8.674,8.674,8.588,8.588,0,0,0,1.239-.088v7.523H13.631a1.24,1.24,0,0,1-1.239-1.239V90.225A13.5,13.5,0,0,1,9.47,89.005L8.223,90.253a1.239,1.239,0,0,1-1.752,0L2.966,86.748a1.24,1.24,0,0,1,0-1.752l1.247-1.247a13.438,13.438,0,0,1-1.219-2.921H1.239A1.24,1.24,0,0,1,0,79.588V74.631a1.24,1.24,0,0,1,1.239-1.239H2.994A13.461,13.461,0,0,1,4.213,70.47L2.966,69.223a1.24,1.24,0,0,1,0-1.752l3.505-3.505a1.239,1.239,0,0,1,1.752,0l1.247,1.247a13.438,13.438,0,0,1,2.921-1.219V62.239A1.24,1.24,0,0,1,13.631,61h3.718v7.523a8.589,8.589,0,0,0-1.239-.088A8.684,8.684,0,0,0,7.435,77.109Z" transform="translate(0 -61)" fill="#fff"/>
  <path id="Path_8894" data-name="Path 8894" d="M255.035,61.725v6.71h6.71Zm-11.318,6.71h5.122a1.239,1.239,0,0,1,0,2.478h-5.122a1.239,1.239,0,1,1,0-2.478Zm12.557,17.349H243.718a1.239,1.239,0,1,1,0-2.478h12.557a1.239,1.239,0,1,1,0,2.478Zm0-4.957H243.718a1.239,1.239,0,1,1,0-2.478h12.557a1.239,1.239,0,1,1,0,2.478Zm0-4.957H243.718a1.239,1.239,0,1,1,0-2.478h12.557a1.239,1.239,0,1,1,0,2.478ZM253.8,70.913a1.24,1.24,0,0,1-1.239-1.239V61H240V93.219h21.231a1.24,1.24,0,0,0,1.239-1.239V70.913Z" transform="translate(-220.173 -61)" fill="#fff"/>
</svg>
