<svg id="Project_Analytics" data-name="Project Analytics" xmlns="http://www.w3.org/2000/svg" width="35.927" height="35.927" viewBox="0 0 35.927 35.927">
  <circle id="Ellipse_4049" data-name="Ellipse 4049" cx="2.858" cy="2.858" r="2.858" transform="translate(8.573 18.372)" fill="#fff"/>
  <path id="Path_8885" data-name="Path 8885" d="M18.514,15.532H17.466a6.463,6.463,0,0,0-.693-1.666l.743-.743a.817.817,0,0,0,0-1.155l-1.155-1.155a.817.817,0,0,0-1.155,0l-.743.743a6.463,6.463,0,0,0-1.666-.693V9.817A.817.817,0,0,0,11.982,9H10.349a.817.817,0,0,0-.817.817v1.047a6.463,6.463,0,0,0-1.666.693l-.743-.743a.817.817,0,0,0-1.155,0L4.814,11.969a.817.817,0,0,0,0,1.155l.743.743a6.463,6.463,0,0,0-.693,1.666H3.817A.817.817,0,0,0,3,16.349v1.633a.817.817,0,0,0,.817.817H4.864a6.463,6.463,0,0,0,.693,1.666l-.743.743a.817.817,0,0,0,0,1.155l1.155,1.155a.817.817,0,0,0,1.155,0l.743-.743a6.463,6.463,0,0,0,1.666.693v1.047a.817.817,0,0,0,.817.817h1.633a.817.817,0,0,0,.817-.817V23.466a6.463,6.463,0,0,0,1.666-.693l.743.743a.817.817,0,0,0,1.155,0l1.155-1.155a.817.817,0,0,0,0-1.155l-.743-.743a6.463,6.463,0,0,0,.693-1.666h1.047a.817.817,0,0,0,.817-.817V16.349A.817.817,0,0,0,18.514,15.532Zm-7.349,5.307a3.674,3.674,0,1,1,3.674-3.674A3.674,3.674,0,0,1,11.165,20.839Z" transform="translate(0.266 4.064)" fill="#fff"/>
  <circle id="Ellipse_4050" data-name="Ellipse 4050" cx="1.225" cy="1.225" r="1.225" transform="translate(13.473 3.674)" fill="#fff"/>
  <circle id="Ellipse_4051" data-name="Ellipse 4051" cx="1.225" cy="1.225" r="1.225" transform="translate(8.573 3.674)" fill="#fff"/>
  <path id="Path_8886" data-name="Path 8886" d="M33.661,1H4.266A3.266,3.266,0,0,0,1,4.266V5.9a4.9,4.9,0,0,0,4.9,4.9H17.611a3.266,3.266,0,0,0,2.309-.957l1.353-1.353a3.266,3.266,0,0,1,2.309-.957H33.661a3.266,3.266,0,0,0,0-6.532ZM5.9,7.94A2.041,2.041,0,1,1,7.94,5.9,2.041,2.041,0,0,1,5.9,7.94Zm4.9,0A2.041,2.041,0,1,1,12.839,5.9,2.041,2.041,0,0,1,10.8,7.94Zm4.9,0A2.041,2.041,0,1,1,17.739,5.9,2.041,2.041,0,0,1,15.7,7.94Z" transform="translate(-1 -1)" fill="#fff"/>
  <circle id="Ellipse_4052" data-name="Ellipse 4052" cx="1.225" cy="1.225" r="1.225" transform="translate(3.674 3.674)" fill="#fff"/>
  <path id="Path_8887" data-name="Path 8887" d="M23.165,7H16.633A1.633,1.633,0,0,0,15,8.633V11.9a1.633,1.633,0,0,0,1.633,1.633h6.532A1.633,1.633,0,0,0,24.8,11.9V8.633A1.633,1.633,0,0,0,23.165,7ZM16.633,8.225H19.9a.408.408,0,1,1,0,.817H16.633a.408.408,0,1,1,0-.817Zm6.532,2.45H16.633a.408.408,0,1,1,0-.817h6.532a.408.408,0,1,1,0,.817Z" transform="translate(7.862 2.798)" fill="#fff"/>
  <path id="Path_8888" data-name="Path 8888" d="M23.165,13H16.633A1.633,1.633,0,0,0,15,14.633V17.9a1.633,1.633,0,0,0,1.633,1.633h6.532A1.633,1.633,0,0,0,24.8,17.9V14.633A1.633,1.633,0,0,0,23.165,13Zm-6.532,1.225H19.9a.408.408,0,1,1,0,.817H16.633a.408.408,0,1,1,0-.817Zm6.532,2.45H16.633a.408.408,0,0,1,0-.817h6.532a.408.408,0,0,1,0,.817Z" transform="translate(7.862 6.596)" fill="#fff"/>
  <path id="Path_8889" data-name="Path 8889" d="M23.165,19H16.633A1.633,1.633,0,0,0,15,20.633V23.9a1.633,1.633,0,0,0,1.633,1.633h6.532A1.633,1.633,0,0,0,24.8,23.9V20.633A1.633,1.633,0,0,0,23.165,19Zm-6.532,1.225H19.9a.408.408,0,1,1,0,.817H16.633a.408.408,0,1,1,0-.817Zm6.532,2.45H16.633a.408.408,0,1,1,0-.817h6.532a.408.408,0,1,1,0,.817Z" transform="translate(7.862 10.395)" fill="#fff"/>
  <path id="Path_8890" data-name="Path 8890" d="M33.661,6.143H23.582a2.467,2.467,0,0,0-1.731.718L20.5,8.213a4.057,4.057,0,0,1-2.887,1.2H5.9A5.7,5.7,0,0,1,1,6.59v21.6a3.266,3.266,0,0,0,3.266,3.266h18.78V29.822a2.452,2.452,0,0,1,2.45-2.45h2.858V25.739H25.5a2.452,2.452,0,0,1-2.45-2.45V20.024a2.452,2.452,0,0,1,2.45-2.45h2.858V15.941H25.5a2.452,2.452,0,0,1-2.45-2.45V10.225a2.452,2.452,0,0,1,2.45-2.45h6.532a2.452,2.452,0,0,1,2.45,2.45v3.266a2.452,2.452,0,0,1-2.45,2.45H29.17v1.633h2.858a2.452,2.452,0,0,1,2.45,2.45V23.29a2.452,2.452,0,0,1-2.45,2.45H29.17v1.633h2.858a2.452,2.452,0,0,1,2.45,2.45v1.518a3.259,3.259,0,0,0,2.45-3.151V4.485A4.066,4.066,0,0,1,33.661,6.143ZM21.413,20.84a1.635,1.635,0,0,1-1.633,1.633h-.445a7.561,7.561,0,0,1-.29.7l.314.316a1.636,1.636,0,0,1,0,2.31L18.2,26.952a1.635,1.635,0,0,1-2.309,0l-.316-.316a7.175,7.175,0,0,1-.7.291v.445a1.635,1.635,0,0,1-1.633,1.633H11.615a1.635,1.635,0,0,1-1.633-1.633v-.445a7.174,7.174,0,0,1-.7-.291l-.316.316a1.635,1.635,0,0,1-2.309,0L5.5,25.8a1.636,1.636,0,0,1,0-2.31l.314-.316a7.56,7.56,0,0,1-.29-.7H5.083A1.635,1.635,0,0,1,3.45,20.84V19.207a1.634,1.634,0,0,1,1.633-1.633h.445a7.56,7.56,0,0,1,.29-.7L5.5,16.56a1.636,1.636,0,0,1,0-2.31L6.658,13.1a1.635,1.635,0,0,1,2.309,0l.316.316a7.174,7.174,0,0,1,.7-.291v-.445a1.635,1.635,0,0,1,1.633-1.633h1.633a1.635,1.635,0,0,1,1.633,1.633v.445a7.174,7.174,0,0,1,.7.291L15.9,13.1a1.635,1.635,0,0,1,2.309,0l1.155,1.155a1.636,1.636,0,0,1,0,2.31l-.314.316a7.561,7.561,0,0,1,.29.7h.445a1.634,1.634,0,0,1,1.633,1.633Z" transform="translate(-1 1.206)" fill="#fff"/>
</svg>
