<svg xmlns="http://www.w3.org/2000/svg" width="39.529" height="33.725" viewBox="0 0 39.529 33.725">
  <g id="Website_Structure" data-name="Website Structure" transform="translate(-1.451 -3)">
    <path id="rect3391" d="M-78.549-37V-3.275H-39.02V-37Zm1.874,1.874h24.448v6.1H-76.675Zm26.322,0h9.46v6.1h-9.459Zm-16.987,10.3h17.111V-19.2h-7.619v1.987l11.758-.124v3.509h1.95V-7.71h-6.118v-6.118h2.294v-1.614l-9.884.106v1.508h2.122V-7.71h-6.118v-6.118h2.122v-1.489l-9.635.1v1.387h2.046V-7.71h-6.118v-6.118h2.2v-3.242l11.509-.121V-19.2H-67.34Zm-4.216,12.866v2.371h2.371v-2.371Zm11.586,0v2.371H-57.6v-2.371Zm11.586,0v2.371h2.371v-2.371Z" transform="translate(80 40)" fill="#fff"/>
    <path id="path3395" d="M7.066,5.133V7.006h3.747V5.133Z" transform="translate(4.905 1.863)" fill="#fff"/>
    <path id="path3397" d="M3.633,5.133V7.006H7.38V5.133Z" transform="translate(1.906 1.863)" fill="#fff"/>
    <path id="path3399" d="M10.5,5.133V7.006h3.747V5.133Z" transform="translate(7.905 1.863)" fill="#fff"/>
  </g>
</svg>
