<svg id="Register_Copyrights_" data-name="Register Copyrights " xmlns="http://www.w3.org/2000/svg" width="38.195" height="39.766" viewBox="0 0 38.195 39.766">
  <path id="Path_30036" data-name="Path 30036" d="M301.054,279.989v1.764a14.219,14.219,0,0,0,7.717,12.676l.088.045.088-.045a14.218,14.218,0,0,0,7.717-12.676v-1.764a8.319,8.319,0,0,1-3.937-3.836h-7.734A8.318,8.318,0,0,1,301.054,279.989Zm8.245-.139a4.909,4.909,0,0,1,2.885.93l-1.361,1.89a2.614,2.614,0,1,0,0,4.245l1.361,1.89a4.942,4.942,0,1,1-2.885-8.955Z" transform="translate(-278.467 -254.715)" fill="#fff"/>
  <path id="Path_30037" data-name="Path 30037" d="M18.746.349,10.461,8.634h8.285Z" transform="translate(-10.434 -0.322)" fill="#fff"/>
  <path id="Path_30038" data-name="Path 30038" d="M32.791,35.67a16.594,16.594,0,0,1-2.421-8.631V23.665l.781-.272a6,6,0,0,0,3.638-3.534l.286-.749h4.11V0H20.754V10.641H10.113V39.766h26.2a16.593,16.593,0,0,1-3.525-4.1ZM17.448,14.764h13.91v2.329H17.448Zm0,9.471H27.787v2.329H17.448ZM28.771,31.3H17.448V28.971H28.771Zm1.216-9.471H17.448V19.5H29.987Z" transform="translate(-10.113)" fill="#fff"/>
</svg>
