<svg id="Group_72" data-name="Group 72" xmlns="http://www.w3.org/2000/svg" width="327" height="218.669" viewBox="0 0 327 218.669">
  <g id="Group_66" data-name="Group 66">
    <g id="BACKGROUND">
      <path id="Rectangle_12" data-name="Rectangle 12" d="M20,0H307a20,20,0,0,1,20,20V218a0,0,0,0,1,0,0H0a0,0,0,0,1,0,0V20A20,20,0,0,1,20,0Z" fill="#6364d9"/>
    </g>
    <g id="OBJECTS" transform="translate(14.93 26.99)">
      <text id="_" data-name="&lt;/&gt;" transform="translate(121.283 108.906)" fill="#323247" font-size="9" font-family="Montserrat-Black, Montserrat" font-weight="800"><tspan x="0" y="0">&lt;/&gt;</tspan></text>
      <g id="Group_15" data-name="Group 15" transform="translate(88.235 38.536)">
        <path id="Path_1" data-name="Path 1" d="M400.8,187.043c-.65,14.251-14.659,25.17-25.152,25.83-13.864.872-23.772-11.631-25.152-25.83-1.2-12.3,3.172-12.117,6.426-17.244,3.942-6.212,11.288-9.645,18.726-9.645C389.535,160.154,401.671,167.87,400.8,187.043Z" transform="translate(-300.635 -155.81)" fill="#b83d5d"/>
        <rect id="Rectangle_13" data-name="Rectangle 13" width="19.495" height="24.406" transform="translate(65.262 55.732)" fill="#e3b5aa"/>
        <g id="Group_8" data-name="Group 8" transform="translate(95.088 37.542)">
          <g id="Group_7" data-name="Group 7">
            <path id="Path_2" data-name="Path 2" d="M456.249,240.2c3.478-5.277,7.9-5.508,9.75.732s-4.251,11.377-9.215,9.482S456.249,240.2,456.249,240.2Z" transform="translate(-454.429 -236.249)" fill="#e3b5aa"/>
            <path id="Path_3" data-name="Path 3" d="M465.961,245.607c2.329-.426,3.523,6.514-1.585,6.743l1.051-2.422-.986-2.014Z" transform="translate(-460.036 -241.514)" fill="#d78f97"/>
            <path id="Path_4" data-name="Path 4" d="M462.625,252.381c2.978-3.173.828-5.387.828-5.387s2.834-5.813,3.97-1.358" transform="translate(-459.049 -240.593)" fill="none" stroke="#c87e84" stroke-miterlimit="10" stroke-width="0.5"/>
          </g>
        </g>
        <g id="Group_10" data-name="Group 10" transform="translate(42.861 37.542)">
          <g id="Group_9" data-name="Group 9">
            <path id="Path_5" data-name="Path 5" d="M344.8,240.2c-3.478-5.277-7.9-5.508-9.75.732s4.25,11.377,9.215,9.482S344.8,240.2,344.8,240.2Z" transform="translate(-334.715 -236.249)" fill="#e3b5aa"/>
            <path id="Path_6" data-name="Path 6" d="M345.846,245.607c-2.329-.426-3.523,6.514,1.585,6.743l-1.051-2.422.986-2.014Z" transform="translate(-339.863 -241.514)" fill="#d78f97"/>
            <path id="Path_7" data-name="Path 7" d="M347.612,252.381c-2.978-3.173-.828-5.387-.828-5.387s-2.834-5.813-3.97-1.358" transform="translate(-339.281 -240.593)" fill="none" stroke="#c87e84" stroke-miterlimit="10" stroke-width="0.5"/>
          </g>
        </g>
        <path id="Path_8" data-name="Path 8" d="M405.557,279.182v9.08c-7.006,9.493-19.5,6.407-19.5,6.407l.219-15.486Z" transform="translate(-320.8 -222.91)" fill="#c87e84"/>
        <path id="Rectangle_14" data-name="Rectangle 14" d="M14.232,0H27.911A14.232,14.232,0,0,1,42.144,14.232v15.4A21.072,21.072,0,0,1,21.072,50.7h0A21.072,21.072,0,0,1,0,29.631v-15.4A14.232,14.232,0,0,1,14.232,0Z" transform="translate(53.937 15.973)" fill="#e3b5aa"/>
        <path id="Path_9" data-name="Path 9" d="M407.458,261.043a3.242,3.242,0,0,1-6.484,0" transform="translate(-329.207 -212.685)" fill="none" stroke="#b83d5d" stroke-miterlimit="10" stroke-width="1"/>
        <path id="Path_10" data-name="Path 10" d="M363.4,174.095s-3.691-6.118.932-11.512C364.337,162.583,367.658,168.733,363.4,174.095Z" transform="translate(-307.241 -157.18)" fill="#b83d5d"/>
        <path id="Path_11" data-name="Path 11" d="M354.736,184.367s-5.139,4.963-11.429,1.661C343.307,186.028,348.56,181.418,354.736,184.367Z" transform="translate(-296.698 -168.905)" fill="#b83d5d"/>
        <path id="Path_12" data-name="Path 12" d="M384.941,239.63c0,1.742-.742,3.155-1.658,3.155s-1.657-1.412-1.657-3.155.742-3.155,1.657-3.155S384.941,237.888,384.941,239.63Z" transform="translate(-318.3 -198.835)" fill="#36364f"/>
        <circle id="Ellipse_1" data-name="Ellipse 1" cx="8.474" cy="8.474" r="8.474" transform="translate(53.728 46.516) rotate(-74.8)" fill="none" stroke="#fff" stroke-miterlimit="10" stroke-width="4"/>
        <path id="Path_13" data-name="Path 13" d="M430.9,239.63c0,1.742-.742,3.155-1.657,3.155s-1.658-1.412-1.658-3.155.742-3.155,1.658-3.155S430.9,237.888,430.9,239.63Z" transform="translate(-344.208 -198.835)" fill="#36364f"/>
        <circle id="Ellipse_2" data-name="Ellipse 2" cx="8.474" cy="8.474" r="8.474" transform="translate(75.463 46.464) rotate(-74.518)" fill="none" stroke="#fff" stroke-miterlimit="10" stroke-width="4"/>
        <path id="Path_14" data-name="Path 14" d="M366.091,183.813s13.387-7.057,22.282-1.942,9.9,15.678,18.68,12.944c0,0,6.671-2.937-.667-13.167s-12.359-12.231-21.913-10.007S368.7,175.594,366.091,183.813Z" transform="translate(-309.542 -161.826)" fill="#b83d5d"/>
        <path id="Path_15" data-name="Path 15" d="M364.918,190.521s4.419-5.859,10.6-7.408,13.027,6.059,13.027,6.059S372.7,186.913,364.918,190.521Z" transform="translate(-308.881 -168.636)" fill="#9a304f"/>
        <path id="Path_16" data-name="Path 16" d="M358.928,217.255s1.491,10.874,0,17.51C358.928,234.765,356.749,217.9,358.928,217.255Z" transform="translate(-304.958 -188)" fill="#b83d5d"/>
        <path id="Path_17" data-name="Path 17" d="M455.5,217.255s-1.491,10.874,0,17.51C455.5,234.765,457.678,217.9,455.5,217.255Z" transform="translate(-359.571 -188)" fill="#b83d5d"/>
        <path id="Path_18" data-name="Path 18" d="M380.462,213.7c-2.3-1.1-6.389-2.309-10.178.39a.884.884,0,0,0,.375,1.585,28.391,28.391,0,0,0,4.933.414,20.927,20.927,0,0,0,4.706-.736A.884.884,0,0,0,380.462,213.7Z" transform="translate(-311.701 -185.294)" fill="#b83d5d"/>
        <path id="Path_19" data-name="Path 19" d="M431.358,213.7c-2.3-1.1-6.389-2.309-10.178.39a.884.884,0,0,0,.375,1.585,28.391,28.391,0,0,0,4.933.414,20.931,20.931,0,0,0,4.706-.736A.884.884,0,0,0,431.358,213.7Z" transform="translate(-340.393 -185.294)" fill="#b83d5d"/>
        <g id="Group_12" data-name="Group 12" transform="translate(66.921 54.075)">
          <g id="Group_11" data-name="Group 11">
            <path id="Path_20" data-name="Path 20" d="M405.081,276.041a6.977,6.977,0,0,1-.831,1.2,7.931,7.931,0,0,1-6.316,2.719l-.005.014-.24,0-.009-.02a8.005,8.005,0,0,1-6.108-2.493,6.863,6.863,0,0,1-1.019-1.442,7.12,7.12,0,0,1-.688-1.872l15.911.03A6.5,6.5,0,0,1,405.081,276.041Z" transform="translate(-389.865 -274.147)" fill="#c33e5d"/>
          </g>
          <path id="Path_21" data-name="Path 21" d="M405.081,276.041a6.977,6.977,0,0,1-.831,1.2,14.97,14.97,0,0,0-12.678.216,6.863,6.863,0,0,1-1.019-1.442,7.12,7.12,0,0,1-.688-1.872l15.911.03A6.5,6.5,0,0,1,405.081,276.041Z" transform="translate(-389.865 -274.147)" fill="#36364f"/>
        </g>
        <path id="Path_22" data-name="Path 22" d="M379.113,391.263l-142.642.148s2.661-5.567,6.492-12.944c.284-.545.576-1.1.873-1.671,5.231-9.977,12.268-22.581,17.76-29.417,6.326-7.87,21.272-13.481,31.424-16.548,5.916-1.784,10.2-2.7,10.2-2.7h16.386s3.848.824,9.284,2.434c10.143,3,25.308,9.148,32.34,16.818a37.539,37.539,0,0,1,4.358,5.982C374.244,367.744,379.113,391.263,379.113,391.263Z" transform="translate(-236.471 -250.502)" fill="#ffa950"/>
        <path id="Path_23" data-name="Path 23" d="M379.113,423.869l-142.642.148s2.661-5.567,6.492-12.944C314.144,432,351.655,397.707,360.215,388.425a7.563,7.563,0,0,1,5.339-2.457h.034C374.244,400.35,379.113,423.869,379.113,423.869Z" transform="translate(-236.471 -283.109)" fill="#ffa950"/>
        <line id="Line_4" data-name="Line 4" x2="4.476" transform="translate(72.771 42.001)" fill="none" stroke="#fff" stroke-miterlimit="10" stroke-width="4"/>
        <path id="Path_24" data-name="Path 24" d="M401.96,330.556c-17.657,19.427-35.869.274-35.869.274,5.916-1.788,10.2-2.709,10.2-2.709h16.385S396.525,328.949,401.96,330.556Z" transform="translate(-309.542 -250.5)" fill="#e3b5aa"/>
        <g id="Group_13" data-name="Group 13" transform="translate(30.074 118.781)">
          <line id="Line_5" data-name="Line 5" y2="22.155" transform="translate(5.949)" fill="none" stroke="#dc831e" stroke-miterlimit="10" stroke-width="3"/>
          <line id="Line_6" data-name="Line 6" x1="5.949" y1="7.585" transform="translate(0 6.536)" fill="none" stroke="#dc831e" stroke-miterlimit="10" stroke-width="3"/>
        </g>
        <g id="Group_14" data-name="Group 14" transform="translate(113.592 118.781)">
          <line id="Line_7" data-name="Line 7" y2="22.155" fill="none" stroke="#dc831e" stroke-miterlimit="10" stroke-width="3"/>
          <line id="Line_8" data-name="Line 8" y1="6.735" x2="5.282" transform="translate(0 7.386)" fill="none" stroke="#dc831e" stroke-miterlimit="10" stroke-width="3"/>
        </g>
        <path id="Path_25" data-name="Path 25" d="M364.153,352.719s21.894,14.952,36.715-.726" transform="translate(-308.45 -263.956)" fill="none" stroke="#dc831e" stroke-miterlimit="10" stroke-width="3"/>
        <text id="x" transform="translate(93.904 117.749)" fill="#fff" font-size="18" font-family="Montserrat-Bold, Montserrat" font-weight="700"><tspan x="0" y="0">x</tspan></text>
        <path id="Path_26" data-name="Path 26" d="M364.747,163.021c4.916-20.661,54.165-18.388,45,21.839-2.745,12.05-22.817-27.391-40.14-17.715a3.405,3.405,0,0,1-3.991-.478h0A3.685,3.685,0,0,1,364.747,163.021Z" transform="translate(-308.706 -150.198)" fill="#b83d5d"/>
      </g>
      <g id="Group_17" data-name="Group 17" transform="translate(56.187 126.657)">
        <g id="Group_16" data-name="Group 16">
          <path id="Path_27" data-name="Path 27" d="M278.151,404.839a.157.157,0,0,1-.048.009,3.41,3.41,0,0,1-.362.017H182.2a4.019,4.019,0,0,1-4.014-4.018l-.013-.044L163.3,358.769a4.935,4.935,0,0,1,4.651-6.583h62.028a4.936,4.936,0,0,1,4.655,3.29l16.033,45.293.026.078h27.14C280.323,400.848,280.6,404.573,278.151,404.839Z" transform="translate(-163.011 -352.186)" fill="#80abbd"/>
          <ellipse id="Ellipse_3" data-name="Ellipse 3" cx="7.193" cy="8.733" rx="7.193" ry="8.733" transform="translate(27.447 21.796) rotate(-18.978)" fill="#fff"/>
          <path id="Path_28" data-name="Path 28" d="M361.687,400.848H334.545s-.007-.027-.024-.079l-16.035-45.294a4.934,4.934,0,0,0-4.654-3.287h-2.074s4.634.3,5.793,4.45,16.993,48.141,16.993,48.141l1.171.086h25.877c.126,0,.247,0,.365-.016C364.456,404.623,364.193,400.848,361.687,400.848Z" transform="translate(-246.865 -352.188)" fill="#4b7195"/>
        </g>
        <path id="Path_29" data-name="Path 29" d="M298.9,404.839a.157.157,0,0,1-.048.009,3.41,3.41,0,0,1-.362.017H202.948a4,4,0,0,1-3.137-1.513c56.47,4.851,50.912-51.166,50.912-51.166a4.936,4.936,0,0,1,4.655,3.29l16.033,45.293.026.078H298.15C298.438,402.169,298.691,403.5,298.9,404.839Z" transform="translate(-183.757 -352.186)" fill="#5a93a0" opacity="0.4"/>
      </g>
      <g id="Group_26" data-name="Group 26" transform="translate(5.518 151.587)">
        <g id="Group_21" data-name="Group 21">
          <g id="Group_19" data-name="Group 19">
            <g id="Group_18" data-name="Group 18">
              <path id="Path_30" data-name="Path 30" d="M99.074,409.331v1.406c-2.542.291-3.164,2.44-3.164,5.056v.865c0,2.616.622,4.766,3.164,5.056v1.4h-48.6a3.609,3.609,0,0,1-3.61-3.61v-6.557a3.615,3.615,0,0,1,3.61-3.617Z" transform="translate(-46.869 -409.331)" fill="#ffa950"/>
              <path id="Path_31" data-name="Path 31" d="M103.514,422.049a1.05,1.05,0,0,1-.987,1.44l-46.439.034V412.477l46.439.034a1.045,1.045,0,0,1,.7.263,1.018,1.018,0,0,1,.291,1.177,10.134,10.134,0,0,0-.372,3.616v.865A10.136,10.136,0,0,0,103.514,422.049Z" transform="translate(-52.066 -411.104)" fill="#fff"/>
              <path id="Path_32" data-name="Path 32" d="M103.224,412.774c-.892.048-41.93,2.17-44.743,6.158a3.975,3.975,0,0,1-2.393,1.8v-8.26l46.439.034A1.045,1.045,0,0,1,103.224,412.774Z" transform="translate(-52.066 -411.104)" fill="#a3d5e6" opacity="0.4"/>
            </g>
            <path id="Rectangle_15" data-name="Rectangle 15" d="M5.344,0H6.415a0,0,0,0,1,0,0V13.783a0,0,0,0,1,0,0H5.344A5.344,5.344,0,0,1,0,8.439v-3.1A5.344,5.344,0,0,1,5.344,0Z" transform="translate(0 0.003)" fill="#ffa950"/>
            <path id="Path_33" data-name="Path 33" d="M151.542,422.084a1.05,1.05,0,0,1-.987,1.44l-9.271.007c7.365-.838,6.9-6.888,6.9-6.888.081-.291-5.82-3.84-5.718-4.1l8.084.007a1.046,1.046,0,0,1,.7.264,1.017,1.017,0,0,1,.291,1.176,10.137,10.137,0,0,0-.372,3.617v.865A10.136,10.136,0,0,0,151.542,422.084Z" transform="translate(-100.094 -411.139)" fill="#a3d5e6" opacity="0.4"/>
          </g>
          <g id="Group_20" data-name="Group 20" transform="translate(6.494 3.847)">
            <rect id="Rectangle_16" data-name="Rectangle 16" width="44.583" height="0.996" transform="translate(0 2.242)" fill="#a3d5e6" opacity="0.4"/>
            <rect id="Rectangle_17" data-name="Rectangle 17" width="44.583" height="0.995" fill="#a3d5e6" opacity="0.4"/>
            <rect id="Rectangle_18" data-name="Rectangle 18" width="44.583" height="0.995" transform="translate(0 5.094)" fill="#a3d5e6" opacity="0.4"/>
          </g>
          <path id="Path_34" data-name="Path 34" d="M124.9,424.657l-2.37-2.364-2.37,2.364v-6.509H124.9Z" transform="translate(-88.187 -414.302)" fill="#ffa950"/>
        </g>
        <g id="Group_25" data-name="Group 25" transform="translate(5.198 13.736)">
          <g id="Group_23" data-name="Group 23">
            <g id="Group_22" data-name="Group 22">
              <path id="Path_35" data-name="Path 35" d="M110.989,440.817v1.406c-2.542.291-3.164,2.44-3.164,5.056v.865c0,2.616.622,4.766,3.164,5.056v1.4h-48.6a3.609,3.609,0,0,1-3.61-3.61v-6.557a3.615,3.615,0,0,1,3.61-3.617Z" transform="translate(-58.784 -440.817)" fill="#c33e5d"/>
              <path id="Path_36" data-name="Path 36" d="M115.429,453.535a1.05,1.05,0,0,1-.987,1.44L68,455.008V443.963l46.439.034a1.044,1.044,0,0,1,.7.264,1.017,1.017,0,0,1,.291,1.176,10.133,10.133,0,0,0-.372,3.616v.865A10.136,10.136,0,0,0,115.429,453.535Z" transform="translate(-63.981 -442.591)" fill="#fff"/>
              <path id="Path_37" data-name="Path 37" d="M115.139,444.261c-.892.047-41.93,2.17-44.743,6.158a3.976,3.976,0,0,1-2.393,1.8v-8.26l46.439.034A1.044,1.044,0,0,1,115.139,444.261Z" transform="translate(-63.981 -442.591)" fill="#a3d5e6" opacity="0.4"/>
            </g>
            <path id="Rectangle_19" data-name="Rectangle 19" d="M5.344,0H6.415a0,0,0,0,1,0,0V13.783a0,0,0,0,1,0,0H5.344A5.344,5.344,0,0,1,0,8.439v-3.1A5.344,5.344,0,0,1,5.344,0Z" transform="translate(0 0.003)" fill="#c33e5d"/>
            <path id="Path_38" data-name="Path 38" d="M163.458,453.57a1.05,1.05,0,0,1-.987,1.44l-9.271.007c7.365-.838,6.9-6.888,6.9-6.888.081-.291-5.82-3.84-5.718-4.1l8.084.007a1.044,1.044,0,0,1,.7.264,1.017,1.017,0,0,1,.291,1.176,10.133,10.133,0,0,0-.372,3.616v.865A10.136,10.136,0,0,0,163.458,453.57Z" transform="translate(-112.009 -442.625)" fill="#a3d5e6" opacity="0.4"/>
          </g>
          <g id="Group_24" data-name="Group 24" transform="translate(6.494 3.847)">
            <rect id="Rectangle_20" data-name="Rectangle 20" width="44.583" height="0.995" transform="translate(0 2.242)" fill="#a3d5e6" opacity="0.4"/>
            <rect id="Rectangle_21" data-name="Rectangle 21" width="44.583" height="0.996" fill="#a3d5e6" opacity="0.4"/>
            <rect id="Rectangle_22" data-name="Rectangle 22" width="44.583" height="0.996" transform="translate(0 5.094)" fill="#a3d5e6" opacity="0.4"/>
          </g>
          <path id="Path_39" data-name="Path 39" d="M158.209,457.653l-2.5-2.5-2.5,2.5v-6.877h5.009Z" transform="translate(-112.009 -446.431)" fill="#c33e5d"/>
        </g>
      </g>
      <g id="Group_27" data-name="Group 27" transform="translate(1.749 179.519)">
        <path id="Path_40" data-name="Path 40" d="M334.727,478.932v1.008a5.578,5.578,0,0,1-5.58,5.575H43.811a5.583,5.583,0,0,1-5.4-4.167.015.015,0,0,0,0-.013,5.693,5.693,0,0,1-.175-1.4v-1.008a5.576,5.576,0,0,1,5.58-5.576H329.147A5.578,5.578,0,0,1,334.727,478.932Z" transform="translate(-38.231 -473.356)" fill="#47547c"/>
        <path id="Path_41" data-name="Path 41" d="M334.727,478.932v1.008a5.579,5.579,0,0,1-5.58,5.575H43.811a5.583,5.583,0,0,1-5.4-4.167.015.015,0,0,0,0-.013c-.118-.895-.175-1.4-.175-1.4,160,5.575,290.916-6.584,290.916-6.584A5.578,5.578,0,0,1,334.727,478.932Z" transform="translate(-38.231 -473.356)" fill="#2b2b3f" opacity="0.5"/>
      </g>
      <g id="Group_29" data-name="Group 29" transform="translate(248.99 21.391)">
        <path id="Path_42" data-name="Path 42" d="M677.955,121.732c0-.036,0-.068,0-.1s0-.068,0-.1a12.347,12.347,0,0,0,1.566-.853,12.87,12.87,0,0,0,1.639-1.326l-.114-.445a11.411,11.411,0,0,0-.481-1.475c-.1-.236-.218-.468-.332-.7a4.733,4.733,0,0,0-.372-.681l-.236-.39a12,12,0,0,0-2.093.218,11.09,11.09,0,0,0-1.707.5l-.145-.145a11.3,11.3,0,0,0,.5-1.707,11.626,11.626,0,0,0,.222-2.093l-.39-.236a4.941,4.941,0,0,0-.681-.372c-.232-.114-.463-.232-.7-.332a11.263,11.263,0,0,0-1.471-.481l-.444-.114a12.6,12.6,0,0,0-1.326,1.639,11.8,11.8,0,0,0-.853,1.567c-.032,0-.068-.009-.1-.009s-.068.009-.1.009a11.248,11.248,0,0,0-.854-1.567,12.481,12.481,0,0,0-1.321-1.639l-.445.114a11.11,11.11,0,0,0-1.475.481c-.236.1-.468.218-.7.332a5.2,5.2,0,0,0-.681.372l-.391.236a12.48,12.48,0,0,0,.223,2.093,11.21,11.21,0,0,0,.5,1.707c-.05.05-.1.1-.145.145a11.244,11.244,0,0,0-1.708-.5,12.038,12.038,0,0,0-2.093-.218l-.241.39a5.779,5.779,0,0,0-.372.681c-.109.232-.227.463-.327.7a10.722,10.722,0,0,0-.481,1.475l-.114.445a12.561,12.561,0,0,0,1.639,1.326,12.008,12.008,0,0,0,1.562.853c0,.032,0,.064,0,.1s0,.068,0,.1a11.512,11.512,0,0,0-1.562.853,12.52,12.52,0,0,0-1.639,1.321l.114.445a10.74,10.74,0,0,0,.481,1.475c.1.236.218.468.327.7a6.087,6.087,0,0,0,.372.677l.241.39a12.083,12.083,0,0,0,2.093-.218,11.293,11.293,0,0,0,1.708-.5c.045.05.1.1.145.145a11.2,11.2,0,0,0-.5,1.707,12.529,12.529,0,0,0-.223,2.093l.391.24a5.8,5.8,0,0,0,.681.368c.236.113.468.232.7.332a10.567,10.567,0,0,0,1.475.481l.445.113a12.482,12.482,0,0,0,1.321-1.639,11.268,11.268,0,0,0,.854-1.566.838.838,0,0,0,.1.009.771.771,0,0,0,.1-.009,11.828,11.828,0,0,0,.853,1.566,12.6,12.6,0,0,0,1.326,1.639l.444-.113a10.7,10.7,0,0,0,1.471-.481c.241-.1.473-.218.7-.332a5.477,5.477,0,0,0,.681-.368l.39-.24a11.669,11.669,0,0,0-.222-2.093,11.285,11.285,0,0,0-.5-1.707c.05-.045.1-.1.145-.145a11.138,11.138,0,0,0,1.707.5,12.04,12.04,0,0,0,2.093.218l.236-.39a4.929,4.929,0,0,0,.372-.677c.113-.236.232-.468.332-.7a11.431,11.431,0,0,0,.481-1.475l.114-.445a12.827,12.827,0,0,0-1.639-1.321A11.825,11.825,0,0,0,677.955,121.732Zm-7.523,3.5a3.6,3.6,0,1,1,3.6-3.6A3.6,3.6,0,0,1,670.432,125.228Z" transform="translate(-635.816 -110.899)" fill="#ffa950"/>
        <path id="Path_43" data-name="Path 43" d="M629.245,148.229H604.951v23.926H611.7" transform="translate(-604.951 -131.943)" fill="none" stroke="#ffa950" stroke-miterlimit="10" stroke-width="1" stroke-dasharray="4"/>
        <g id="Group_28" data-name="Group 28" transform="translate(7.324 53.018)">
          <rect id="Rectangle_23" data-name="Rectangle 23" width="13.356" height="2.387" fill="#fff"/>
          <rect id="Rectangle_24" data-name="Rectangle 24" width="20.534" height="2.387" transform="translate(0 4.416)" fill="#fff"/>
          <rect id="Rectangle_25" data-name="Rectangle 25" width="6.994" height="2.387" transform="translate(0 8.833)" fill="#fff"/>
          <rect id="Rectangle_26" data-name="Rectangle 26" width="6.994" height="2.387" transform="translate(9.848 8.833)" fill="#ffa950"/>
          <rect id="Rectangle_27" data-name="Rectangle 27" width="10.043" height="2.387" transform="translate(19.345 8.833)" fill="#ffa950"/>
          <rect id="Rectangle_28" data-name="Rectangle 28" width="6.099" height="2.387" transform="translate(23.289 4.416)" fill="#ffa950"/>
          <rect id="Rectangle_29" data-name="Rectangle 29" width="13.356" height="2.387" transform="translate(16.032)" fill="#ffa950"/>
        </g>
        <rect id="Rectangle_30" data-name="Rectangle 30" width="0.446" height="26.605" transform="translate(41.159 37.559)" fill="#fff"/>
      </g>
      <g id="Group_30" data-name="Group 30" transform="translate(256.522 59.928)">
        <rect id="Rectangle_31" data-name="Rectangle 31" width="13.734" height="2.455" fill="#fff"/>
        <rect id="Rectangle_32" data-name="Rectangle 32" width="21.115" height="2.455" transform="translate(0 4.541)" fill="#fff"/>
        <rect id="Rectangle_33" data-name="Rectangle 33" width="7.192" height="2.455" transform="translate(0 9.083)" fill="#fff"/>
        <rect id="Rectangle_34" data-name="Rectangle 34" width="7.192" height="2.455" transform="translate(10.127 9.083)" fill="#ffa950"/>
        <rect id="Rectangle_35" data-name="Rectangle 35" width="10.327" height="2.455" transform="translate(19.892 9.083)" fill="#ffa950"/>
        <rect id="Rectangle_36" data-name="Rectangle 36" width="6.271" height="2.455" transform="translate(23.948 4.541)" fill="#ffa950"/>
        <rect id="Rectangle_37" data-name="Rectangle 37" width="13.734" height="2.455" transform="translate(16.485)" fill="#ffa950"/>
      </g>
      <g id="Group_39" data-name="Group 39" transform="translate(199.763)">
        <g id="Group_38" data-name="Group 38" transform="translate(0 14.181)">
          <rect id="Rectangle_38" data-name="Rectangle 38" width="39.522" height="77.664" fill="#f5f1f9"/>
          <rect id="Rectangle_39" data-name="Rectangle 39" width="29.673" height="3.152" transform="translate(4.502 16.518)" fill="#707070"/>
          <rect id="Rectangle_40" data-name="Rectangle 40" width="19.639" height="3.152" transform="translate(4.502 23.496)" fill="#707070"/>
          <rect id="Rectangle_41" data-name="Rectangle 41" width="7.117" height="3.152" transform="translate(27.058 23.496)" fill="#6364d9"/>
          <rect id="Rectangle_42" data-name="Rectangle 42" width="18.388" height="3.152" transform="translate(15.787 30.475)" fill="#6364d9"/>
          <rect id="Rectangle_43" data-name="Rectangle 43" width="8.612" height="3.152" transform="translate(4.502 30.475)" fill="#707070"/>
          <rect id="Rectangle_44" data-name="Rectangle 44" width="15.685" height="3.152" transform="translate(4.502 37.453)" fill="#707070"/>
          <rect id="Rectangle_45" data-name="Rectangle 45" width="11.573" height="3.152" transform="translate(22.603 37.453)" fill="#6364d9"/>
          <rect id="Rectangle_46" data-name="Rectangle 46" width="21.061" height="3.152" transform="translate(13.114 44.432)" fill="#6364d9"/>
          <rect id="Rectangle_47" data-name="Rectangle 47" width="6.367" height="3.152" transform="translate(4.502 44.432)" fill="#707070"/>
          <rect id="Rectangle_48" data-name="Rectangle 48" width="12.733" height="3.152" transform="translate(4.502 51.41)" fill="#707070"/>
          <rect id="Rectangle_49" data-name="Rectangle 49" width="14.837" height="3.152" transform="translate(19.339 51.41)" fill="#6364d9"/>
          <g id="Group_34" data-name="Group 34" transform="translate(20.817 66.383)">
            <g id="Group_31" data-name="Group 31" transform="translate(9.234 2.391)">
              <path id="Path_44" data-name="Path 44" d="M564.244,253.248v.887L561,255.37v-.853l2.272-.825L561,252.859v-.846Z" transform="translate(-560.996 -252.013)" fill="#eba154"/>
            </g>
            <g id="Group_32" data-name="Group 32" transform="translate(0 2.391)">
              <path id="Path_45" data-name="Path 45" d="M543.079,252.013v.846l-2.272.832,2.272.825v.853l-3.248-1.235v-.887Z" transform="translate(-539.831 -252.013)" fill="#eba154"/>
            </g>
            <g id="Group_33" data-name="Group 33" transform="translate(4.675)">
              <path id="Path_46" data-name="Path 46" d="M552.96,246.533h1.016l-2.412,6.885h-1.016Z" transform="translate(-550.548 -246.533)" fill="#eba154"/>
            </g>
          </g>
          <g id="Group_37" data-name="Group 37" transform="translate(6.303 7.78)">
            <g id="Group_35" data-name="Group 35" transform="translate(7.827)">
              <path id="Path_47" data-name="Path 47" d="M528.758,113.824v1.163L524.5,116.6v-1.118l2.977-1.082-2.977-1.091v-1.109Z" transform="translate(-524.502 -112.205)" fill="#eba154"/>
            </g>
            <g id="Group_36" data-name="Group 36">
              <path id="Path_48" data-name="Path 48" d="M510.818,112.205v1.109L507.84,114.4l2.978,1.082V116.6l-4.257-1.618v-1.163Z" transform="translate(-506.561 -112.205)" fill="#eba154"/>
            </g>
          </g>
        </g>
        <text id="HTML" transform="translate(0.256 7)" fill="#fff" font-size="7" font-family="Montserrat-Black, Montserrat" font-weight="800"><tspan x="0" y="0">HTML</tspan></text>
      </g>
      <g id="Group_51" data-name="Group 51" transform="translate(0 4.463)">
        <g id="Group_41" data-name="Group 41" transform="translate(0 86.435)">
          <g id="Group_40" data-name="Group 40">
            <path id="Path_49" data-name="Path 49" d="M51.1,273.068a9.893,9.893,0,0,0-2.8-1.927.552.552,0,0,0-.056-.026,9.961,9.961,0,0,0-4.661-.878,9.822,9.822,0,0,0-3.288.758l-.2.086a9.926,9.926,0,1,0,11,1.987ZM46.95,286.433a6.882,6.882,0,0,1-8.8-9.656l.023-.042a6.84,6.84,0,0,1,3.173-2.878,6.586,6.586,0,0,1,.792-.295l.084-.027a6.85,6.85,0,0,1,4.1.082l.016,0a6.909,6.909,0,0,1,2.931,1.924,6.885,6.885,0,0,1-2.318,10.888Z" transform="translate(-34.221 -270.222)" fill="#fff"/>
          </g>
          <path id="Path_50" data-name="Path 50" d="M63.944,272.294a9.915,9.915,0,0,1,5.367,6.229L66.5,279.77a6.875,6.875,0,0,0-4.521-5l-.016,0h0l1.93-2.5" transform="translate(-49.857 -271.375)" fill="#ffa950"/>
          <line id="Line_9" data-name="Line 9" x1="1.971" y2="2.48" transform="translate(12.116 0.919)" fill="#eba154"/>
          <path id="Path_51" data-name="Path 51" d="M54.2,273.621l-.016,0a6.85,6.85,0,0,0-4.1-.082l-.084.027-1.83-2.567a9.822,9.822,0,0,1,3.288-.758,9.961,9.961,0,0,1,4.661.878" transform="translate(-42.081 -270.222)" fill="#ff1350"/>
        </g>
        <path id="Path_52" data-name="Path 52" d="M58.784,315.373v16.773H87.462V315.109" transform="translate(-48.068 -209.091)" fill="none" stroke="#ffa950" stroke-miterlimit="10" stroke-width="1" stroke-dasharray="4"/>
        <g id="Group_50" data-name="Group 50" transform="translate(28.927)">
          <path id="Path_76" data-name="Path 76" d="M0,0H84.133V100.306H0Z" transform="translate(0 4.886)" fill="#f5f1f9"/>
          <rect id="Rectangle_51" data-name="Rectangle 51" width="84.133" height="12.731" fill="#64648e"/>
          <g id="Group_44" data-name="Group 44" transform="translate(62.77 94.103)">
            <g id="Group_42" data-name="Group 42" transform="translate(8.602 3.038)">
              <path id="Path_53" data-name="Path 53" d="M267.151,295.913v.826l-3.026,1.15V297.1l2.116-.769-2.116-.775v-.788Z" transform="translate(-264.125 -294.763)" fill="#eba154"/>
            </g>
            <g id="Group_43" data-name="Group 43" transform="translate(0 3.038)">
              <path id="Path_54" data-name="Path 54" d="M247.434,294.763v.788l-2.116.775,2.116.769v.794l-3.025-1.15v-.826Z" transform="translate(-244.408 -294.763)" fill="#eba154"/>
            </g>
            <text id="_2" data-name="/" transform="translate(4.144 5)" fill="#eba154" font-size="5" font-family="Montserrat-Bold, Montserrat" font-weight="700"><tspan x="0" y="0">/</tspan></text>
          </g>
          <g id="Group_47" data-name="Group 47" transform="translate(9.225 19.412)">
            <g id="Group_45" data-name="Group 45" transform="translate(6.938)">
              <path id="Path_55" data-name="Path 55" d="M141.35,118.027v1.03l-3.773,1.434V119.5l2.639-.959-2.639-.967v-.983Z" transform="translate(-137.577 -116.592)" fill="#eba154"/>
            </g>
            <g id="Group_46" data-name="Group 46">
              <path id="Path_56" data-name="Path 56" d="M125.446,116.592v.983l-2.639.967,2.639.959v.991l-3.773-1.434v-1.03Z" transform="translate(-121.673 -116.592)" fill="#eba154"/>
            </g>
          </g>
          <text id="WEB_DEVELOPING" data-name="WEB DEVELOPING" transform="translate(5.105 8.392)" fill="#fff" font-size="5" font-family="Montserrat-Bold, Montserrat" font-weight="700"><tspan x="0" y="0">WEB DEVELOPING</tspan></text>
          <g id="Group_49" data-name="Group 49" transform="translate(4.503 29.429)">
            <g id="Group_48" data-name="Group 48" transform="translate(10.042)">
              <rect id="Rectangle_52" data-name="Rectangle 52" width="24.731" height="4.529" fill="#6364d9"/>
              <rect id="Rectangle_53" data-name="Rectangle 53" width="12.365" height="4.529" transform="translate(28.215)" fill="#ffa950"/>
              <rect id="Rectangle_54" data-name="Rectangle 54" width="17.031" height="4.529" transform="translate(43.429)" fill="#707070"/>
              <rect id="Rectangle_55" data-name="Rectangle 55" width="11.542" height="4.529" transform="translate(0 8.086)" fill="#6364d9"/>
              <rect id="Rectangle_56" data-name="Rectangle 56" width="19.715" height="4.529" transform="translate(14.683 8.086)" fill="#ffa950"/>
              <rect id="Rectangle_57" data-name="Rectangle 57" width="22.849" height="4.529" transform="translate(37.611 8.086)" fill="#707070"/>
              <rect id="Rectangle_58" data-name="Rectangle 58" width="15.193" height="4.529" transform="translate(0 16.172)" fill="#6364d9"/>
              <rect id="Rectangle_59" data-name="Rectangle 59" width="28.581" height="4.529" transform="translate(17.667 16.172)" fill="#ffa950"/>
              <rect id="Rectangle_60" data-name="Rectangle 60" width="11.15" height="4.529" transform="translate(49.31 16.172)" fill="#707070"/>
              <rect id="Rectangle_61" data-name="Rectangle 61" width="19.159" height="4.529" transform="translate(0 24.257)" fill="#6364d9"/>
              <rect id="Rectangle_62" data-name="Rectangle 62" width="18.595" height="4.529" transform="translate(21.985 24.257)" fill="#ffa950"/>
              <rect id="Rectangle_63" data-name="Rectangle 63" width="17.031" height="4.529" transform="translate(43.429 24.257)" fill="#707070"/>
              <rect id="Rectangle_64" data-name="Rectangle 64" width="8.401" height="4.529" transform="translate(0 32.343)" fill="#6364d9"/>
              <rect id="Rectangle_65" data-name="Rectangle 65" width="16.646" height="4.529" transform="translate(11.228 32.343)" fill="#ffa950"/>
              <rect id="Rectangle_66" data-name="Rectangle 66" width="29.994" height="4.529" transform="translate(30.465 32.343)" fill="#707070"/>
              <rect id="Rectangle_67" data-name="Rectangle 67" width="24.027" height="4.529" transform="translate(0 40.429)" fill="#6364d9"/>
              <rect id="Rectangle_68" data-name="Rectangle 68" width="7.387" height="4.529" transform="translate(27.01 40.429)" fill="#ffa950"/>
              <rect id="Rectangle_69" data-name="Rectangle 69" width="22.849" height="4.529" transform="translate(37.611 40.429)" fill="#707070"/>
              <rect id="Rectangle_70" data-name="Rectangle 70" width="31.283" height="4.529" transform="translate(0 48.515)" fill="#6364d9"/>
              <rect id="Rectangle_71" data-name="Rectangle 71" width="12.799" height="4.529" transform="translate(33.92 48.515)" fill="#ffa950"/>
              <rect id="Rectangle_72" data-name="Rectangle 72" width="11.15" height="4.529" transform="translate(49.31 48.515)" fill="#707070"/>
              <rect id="Rectangle_73" data-name="Rectangle 73" width="9.579" height="4.529" transform="translate(0 56.6)" fill="#6364d9"/>
              <rect id="Rectangle_74" data-name="Rectangle 74" width="11.661" height="4.529" transform="translate(12.365 56.6)" fill="#ffa950"/>
              <rect id="Rectangle_75" data-name="Rectangle 75" width="33.449" height="4.529" transform="translate(27.01 56.6)" fill="#707070"/>
            </g>
            <rect id="Rectangle_76" data-name="Rectangle 76" width="0.921" height="61.129" transform="translate(73.808)" fill="#fff"/>
            <circle id="Ellipse_4" data-name="Ellipse 4" cx="2.265" cy="2.265" r="2.265" fill="#707070"/>
            <circle id="Ellipse_5" data-name="Ellipse 5" cx="2.265" cy="2.265" r="2.265" transform="translate(0 8.086)" fill="#707070"/>
            <circle id="Ellipse_6" data-name="Ellipse 6" cx="2.265" cy="2.265" r="2.265" transform="translate(0 16.172)" fill="#707070"/>
            <circle id="Ellipse_7" data-name="Ellipse 7" cx="2.265" cy="2.265" r="2.265" transform="translate(0 24.257)" fill="#707070"/>
            <circle id="Ellipse_8" data-name="Ellipse 8" cx="2.265" cy="2.265" r="2.265" transform="translate(0 32.343)" fill="#707070"/>
            <circle id="Ellipse_9" data-name="Ellipse 9" cx="2.265" cy="2.265" r="2.265" transform="translate(0 40.429)" fill="#707070"/>
            <circle id="Ellipse_10" data-name="Ellipse 10" cx="2.265" cy="2.265" r="2.265" transform="translate(0 48.515)" fill="#707070"/>
            <circle id="Ellipse_11" data-name="Ellipse 11" cx="2.265" cy="2.265" r="2.265" transform="translate(0 56.6)" fill="#707070"/>
          </g>
          <path id="Path_57" data-name="Path 57" d="M278.817,85.313a2.31,2.31,0,1,1-2.31-2.31A2.31,2.31,0,0,1,278.817,85.313Z" transform="translate(-198.431 -78.245)" fill="#b83d5d"/>
        </g>
        <path id="Path_58" data-name="Path 58" d="M265.685,85.183a2.327,2.327,0,1,1-2.327-2.327A2.327,2.327,0,0,1,265.685,85.183Z" transform="translate(-162.081 -78.162)" fill="#fff"/>
      </g>
      <g id="Group_54" data-name="Group 54" transform="translate(124.258 3.195)">
        <rect id="Rectangle_77" data-name="Rectangle 77" width="8.15" height="2.284" transform="translate(0 17.949)" fill="#313030"/>
        <rect id="Rectangle_78" data-name="Rectangle 78" width="24.934" height="2.284" transform="translate(0 13.883)" fill="#313030"/>
        <path id="Path_59" data-name="Path 59" d="M352.062,116.563v9.11h30v-7.055" transform="translate(-337.656 -95.896)" fill="none" stroke="#fd783d" stroke-miterlimit="10" stroke-width="1" stroke-dasharray="4"/>
        <text id="CSS" transform="translate(0 7)" fill="#fff" font-size="7" font-family="Montserrat-Black, Montserrat" font-weight="800"><tspan x="0" y="0">CSS</tspan></text>
        <g id="Group_53" data-name="Group 53" transform="translate(37.516 8.464)">
          <g id="Group_52" data-name="Group 52">
            <path id="Path_60" data-name="Path 60" d="M418.53,93.549a6.8,6.8,0,0,0-.321-.878,6.837,6.837,0,0,0-3.4-3.441.11.11,0,0,0-.039-.018,6.859,6.859,0,0,0-5.514-.085c-.045.021-.094.039-.139.061a6.88,6.88,0,1,0,9.415,4.361Zm-4.664,6.289a4.782,4.782,0,0,1-6.307-2.418,4.975,4.975,0,0,1-.221-.6,4.765,4.765,0,0,1,.421-3.68.143.143,0,0,1,.015-.031,4.738,4.738,0,0,1,2.2-2,4.57,4.57,0,0,1,.551-.2.18.18,0,0,1,.057-.018,4.755,4.755,0,0,1,2.848.055s.006,0,.009,0a4.814,4.814,0,0,1,2.033,1.335,4.678,4.678,0,0,1,.808,1.247,4.881,4.881,0,0,1,.3.884,4.793,4.793,0,0,1-2.711,5.423Z" transform="translate(-405.036 -88.591)" fill="#fff"/>
          </g>
          <path id="Path_61" data-name="Path 61" d="M418.669,96.821H416.5a4.754,4.754,0,0,0,.079-2.406,4.881,4.881,0,0,0-.3-.884,4.678,4.678,0,0,0-.808-1.247,4.814,4.814,0,0,0-2.033-1.335s-.006,0-.009,0a4.755,4.755,0,0,0-2.848-.055.18.18,0,0,0-.057.018,4.57,4.57,0,0,0-.551.2,4.738,4.738,0,0,0-2.2,2,.143.143,0,0,0-.015.031,4.765,4.765,0,0,0-.421,3.68h-2.17a6.9,6.9,0,0,1,3.946-7.632c.045-.021.094-.039.139-.061a6.859,6.859,0,0,1,5.514.085.11.11,0,0,1,.039.018,6.837,6.837,0,0,1,3.4,3.441,6.882,6.882,0,0,1,.46,4.149Z" transform="translate(-405.036 -88.591)" fill="#ffa950"/>
        </g>
        <rect id="Rectangle_79" data-name="Rectangle 79" width="15.151" height="2.284" transform="translate(9.784 17.949)" fill="#313030"/>
      </g>
      <g id="Group_56" data-name="Group 56" transform="translate(6.235 2.838)">
        <text id="_3" data-name="{ }" transform="translate(0.064 10)" fill="#323247" font-size="10" font-family="Montserrat-Black, Montserrat" font-weight="800"><tspan x="0" y="0">{ }</tspan></text>
        <g id="Group_55" data-name="Group 55" transform="translate(0 24.245)">
          <rect id="Rectangle_80" data-name="Rectangle 80" width="8.961" height="4.276" fill="#fff"/>
          <rect id="Rectangle_81" data-name="Rectangle 81" width="8.961" height="4.276" transform="translate(0 7.471)" fill="#fff"/>
          <rect id="Rectangle_82" data-name="Rectangle 82" width="8.961" height="4.276" transform="translate(0 14.942)" fill="#ffa950"/>
          <rect id="Rectangle_83" data-name="Rectangle 83" width="8.961" height="4.276" transform="translate(0 22.413)" fill="#ffa950"/>
          <rect id="Rectangle_84" data-name="Rectangle 84" width="8.961" height="4.276" transform="translate(0 29.884)" fill="#ffa950"/>
          <rect id="Rectangle_85" data-name="Rectangle 85" width="8.961" height="4.276" transform="translate(0 37.355)" fill="#ffa950"/>
          <rect id="Rectangle_86" data-name="Rectangle 86" width="8.961" height="4.276" transform="translate(0 44.826)" fill="#ffa950"/>
        </g>
      </g>
      <g id="Group_61" data-name="Group 61" transform="translate(214.878 99.736)">
        <path id="Path_62" data-name="Path 62" d="M629.323,304.718c0-.031,0-.058,0-.089s0-.058,0-.086a10.625,10.625,0,0,0,1.34-.73,11.019,11.019,0,0,0,1.4-1.134l-.1-.38a9.706,9.706,0,0,0-.412-1.262c-.085-.2-.186-.4-.283-.6a4.02,4.02,0,0,0-.318-.582l-.2-.334a10.292,10.292,0,0,0-1.79.186,9.488,9.488,0,0,0-1.46.431l-.124-.124a9.7,9.7,0,0,0,.427-1.46,9.969,9.969,0,0,0,.19-1.79l-.334-.2a4.231,4.231,0,0,0-.583-.318c-.2-.1-.4-.2-.6-.284a9.689,9.689,0,0,0-1.258-.411l-.381-.1a10.789,10.789,0,0,0-1.134,1.4,10.136,10.136,0,0,0-.73,1.339c-.027,0-.058-.008-.085-.008s-.058.008-.089.008a9.644,9.644,0,0,0-.73-1.339,10.722,10.722,0,0,0-1.13-1.4l-.38.1a9.531,9.531,0,0,0-1.262.411c-.2.086-.4.186-.6.284a4.5,4.5,0,0,0-.582.318l-.334.2a10.689,10.689,0,0,0,.19,1.79,9.61,9.61,0,0,0,.431,1.46c-.043.043-.086.082-.124.124a9.59,9.59,0,0,0-1.46-.431,10.323,10.323,0,0,0-1.79-.186l-.205.334a4.881,4.881,0,0,0-.318.582c-.093.2-.194.4-.28.6a9.16,9.16,0,0,0-.411,1.262l-.1.38a10.752,10.752,0,0,0,1.4,1.134,10.34,10.34,0,0,0,1.335.73c0,.027,0,.054,0,.086s0,.058,0,.089a9.881,9.881,0,0,0-1.335.73,10.72,10.72,0,0,0-1.4,1.13l.1.38a9.183,9.183,0,0,0,.411,1.262c.086.2.187.4.28.6a5.144,5.144,0,0,0,.318.578l.205.334a10.329,10.329,0,0,0,1.79-.186,9.6,9.6,0,0,0,1.46-.431c.039.043.082.086.124.124a9.609,9.609,0,0,0-.431,1.46,10.733,10.733,0,0,0-.19,1.79l.334.206a5.006,5.006,0,0,0,.582.315c.2.1.4.2.6.283a8.991,8.991,0,0,0,1.262.411l.38.1a10.724,10.724,0,0,0,1.13-1.4,9.623,9.623,0,0,0,.73-1.339.686.686,0,0,0,.089.008.621.621,0,0,0,.085-.008,10.113,10.113,0,0,0,.73,1.339,10.791,10.791,0,0,0,1.134,1.4l.381-.1a9.128,9.128,0,0,0,1.258-.411c.206-.086.4-.186.6-.283a4.673,4.673,0,0,0,.583-.315l.334-.206a10.007,10.007,0,0,0-.19-1.79,9.7,9.7,0,0,0-.427-1.46c.042-.039.082-.082.124-.124a9.495,9.495,0,0,0,1.46.431,10.3,10.3,0,0,0,1.79.186l.2-.334a4.188,4.188,0,0,0,.318-.578c.1-.2.2-.4.283-.6a9.731,9.731,0,0,0,.412-1.262l.1-.38a10.985,10.985,0,0,0-1.4-1.13A10.143,10.143,0,0,0,629.323,304.718Zm-6.433,2.99a3.079,3.079,0,1,1,3.079-3.079A3.079,3.079,0,0,1,622.89,307.707Z" transform="translate(-575.78 -293.284)" fill="#313030"/>
        <g id="Group_59" data-name="Group 59">
          <g id="Group_57" data-name="Group 57" transform="translate(9.153)">
            <rect id="Rectangle_87" data-name="Rectangle 87" width="4.065" height="18.309" transform="translate(12.033)" fill="#f80041"/>
            <rect id="Rectangle_88" data-name="Rectangle 88" width="4.358" height="10.242" transform="translate(6.036 8.067)" fill="#313030"/>
            <rect id="Rectangle_89" data-name="Rectangle 89" width="4.358" height="6.965" transform="translate(0 11.345)" fill="#ffa950"/>
          </g>
          <path id="Path_63" data-name="Path 63" d="M535.142,325.762H526.76v16.432h9.153" transform="translate(-526.76 -310.37)" fill="none" stroke="#fd783d" stroke-miterlimit="10" stroke-width="1" stroke-dasharray="4"/>
          <g id="Group_58" data-name="Group 58" transform="translate(10.533 31.011)">
            <rect id="Rectangle_90" data-name="Rectangle 90" width="11.53" height="2.061" fill="#fff"/>
            <rect id="Rectangle_91" data-name="Rectangle 91" width="7.975" height="2.061" transform="translate(0 3.813)" fill="#fff"/>
            <rect id="Rectangle_92" data-name="Rectangle 92" width="10.094" height="2.061" transform="translate(0 7.625)" fill="#fff"/>
            <rect id="Rectangle_93" data-name="Rectangle 93" width="2.357" height="2.061" transform="translate(12.183 7.625)" fill="#eba154"/>
            <rect id="Rectangle_94" data-name="Rectangle 94" width="8.67" height="2.061" transform="translate(16.7 7.625)" fill="#ffa950"/>
            <rect id="Rectangle_95" data-name="Rectangle 95" width="14.839" height="2.061" transform="translate(10.531 3.813)" fill="#ffa950"/>
            <rect id="Rectangle_96" data-name="Rectangle 96" width="11.53" height="2.061" transform="translate(13.84)" fill="#ffa950"/>
          </g>
        </g>
        <g id="Group_60" data-name="Group 60" transform="translate(67.847 10.228)">
          <rect id="Rectangle_97" data-name="Rectangle 97" width="7.597" height="3.626" fill="#ffa950"/>
          <rect id="Rectangle_98" data-name="Rectangle 98" width="7.597" height="3.626" transform="translate(0 6.334)" fill="#ffa950"/>
          <rect id="Rectangle_99" data-name="Rectangle 99" width="7.597" height="3.626" transform="translate(0 12.669)" fill="#ffa950"/>
          <rect id="Rectangle_100" data-name="Rectangle 100" width="7.597" height="3.626" transform="translate(0 19.003)" fill="#ffa950"/>
          <rect id="Rectangle_101" data-name="Rectangle 101" width="7.597" height="3.626" transform="translate(0 25.337)" fill="#fff"/>
          <rect id="Rectangle_102" data-name="Rectangle 102" width="7.597" height="3.626" transform="translate(0 31.671)" fill="#fff"/>
          <rect id="Rectangle_103" data-name="Rectangle 103" width="7.597" height="3.626" transform="translate(0 38.006)" fill="#fff"/>
        </g>
      </g>
      <g id="Group_65" data-name="Group 65" transform="translate(240.187 124.962)">
        <g id="Group_62" data-name="Group 62" transform="translate(0.002 15.269)">
          <path id="Path_64" data-name="Path 64" d="M601.793,405.135a11.654,11.654,0,0,1-7.2-1.694c-8.014-4.959-9.686-18.947-9.8-20,.07.322.86,2.033,9.19,7.637q1.04.7,1.908,1.422l.03.023C603.176,398.536,601.793,405.135,601.793,405.135Z" transform="translate(-584.783 -383.381)" fill="#0c8068"/>
          <path id="Path_65" data-name="Path 65" d="M584.776,383.3s7.483,18.364,15.785,20.3" transform="translate(-584.776 -383.302)" fill="none" stroke="#0a6d53" stroke-miterlimit="10" stroke-width="1"/>
          <path id="Path_66" data-name="Path 66" d="M614.459,416.84a11.653,11.653,0,0,1-7.2-1.694c1.6-3.775,1.3-10.939,1.3-10.939l.03.023C615.842,410.242,614.459,416.84,614.459,416.84Z" transform="translate(-597.449 -395.087)" fill="#0a6d53" opacity="0.5"/>
        </g>
        <g id="Group_63" data-name="Group 63" transform="translate(20.935 16.353)">
          <path id="Path_67" data-name="Path 67" d="M650.108,385.786c-.031.2-.144.874-.367,1.872v0c-1.183,5.295-5.45,19.543-16.932,18.115a9.217,9.217,0,0,1,.194-3.052c.568-2.689,2.394-6.693,7.947-10.051C649.191,387.69,650.025,386.09,650.108,385.786Z" transform="translate(-632.76 -385.786)" fill="#0c8068"/>
          <path id="Path_68" data-name="Path 68" d="M650.86,388.379s-5.893,15.268-16.115,18.381" transform="translate(-633.879 -387.248)" fill="none" stroke="#0a6d53" stroke-miterlimit="10" stroke-width="1"/>
          <path id="Path_69" data-name="Path 69" d="M649.741,390.078v0c-1.183,5.295-5.45,19.543-16.932,18.115a9.217,9.217,0,0,1,.194-3.052h.012C642.567,405.656,649.741,390.078,649.741,390.078Z" transform="translate(-632.76 -388.206)" fill="#0a6d53" opacity="0.5"/>
        </g>
        <g id="Group_64" data-name="Group 64" transform="translate(13.09)">
          <path id="Path_70" data-name="Path 70" d="M622.054,385.158c-.284.493-4.477-1.25-6.366-6.291h0c-1.134-3.029-1.437-7.248.438-12.885,4.924-14.806,2.895-17.6,2.834-17.676a17.993,17.993,0,0,1,7.138,7.341s0,.007.011.02C629.143,361.371,630.328,370.768,622.054,385.158Z" transform="translate(-614.777 -348.305)" fill="#159a7a"/>
          <path id="Path_71" data-name="Path 71" d="M624.358,348.3s6.421,8.1,3.976,23.512-.879,13.342-.879,13.342" transform="translate(-620.178 -348.302)" fill="none" stroke="#0c8068" stroke-miterlimit="10" stroke-width="1"/>
          <path id="Path_72" data-name="Path 72" d="M623.233,394.644c-.284.493-4.477-1.249-6.366-6.291,10.572,3,10.408-23.22,10.408-23.22s0,.007.011.02C630.321,370.856,631.506,380.254,623.233,394.644Z" transform="translate(-615.955 -357.791)" fill="#0c8068" opacity="0.5"/>
        </g>
        <path id="Path_73" data-name="Path 73" d="M584.773,383.3l0,.052A.133.133,0,0,1,584.773,383.3Z" transform="translate(-584.772 -368.032)" fill="#0c8068"/>
        <path id="Path_74" data-name="Path 74" d="M626.692,432.271v11.835a6.268,6.268,0,0,1-6.269,6.269h-5.566a6.263,6.263,0,0,1-5.353-3.007h0a6.25,6.25,0,0,1-.914-3.262V432.271Z" transform="translate(-598.199 -395.638)" fill="#ffa950"/>
        <rect id="Rectangle_104" data-name="Rectangle 104" width="20.343" height="1.535" rx="0.768" transform="translate(9.271 35.098)" fill="#eba154"/>
        <path id="Path_75" data-name="Path 75" d="M627.875,432.271v11.835a6.268,6.268,0,0,1-6.269,6.269H616.04a6.263,6.263,0,0,1-5.353-3.007c13.259,4.164,16.139-5.586,15.626-9.453s-5.288-5.644-5.288-5.644Z" transform="translate(-599.381 -395.638)" fill="#dc831e"/>
      </g>
    </g>
  </g>
</svg>
