<svg xmlns="http://www.w3.org/2000/svg" width="62.428" height="76.574" viewBox="0 0 62.428 76.574">
  <g id="apple-logo" transform="translate(-2.104)">
    <g id="Group_21362" data-name="Group 21362" transform="translate(2.104)">
      <path id="Path_8825" data-name="Path 8825" d="M26.233,0h.545a16.4,16.4,0,0,1-4.129,12.357c-2.458,2.9-5.824,5.716-11.268,5.289a15.905,15.905,0,0,1,4.2-11.974A18.155,18.155,0,0,1,26.233,0Z" transform="translate(19.715)" />
      <path id="Path_8826" data-name="Path 8826" d="M64.532,43.234v.151a44.553,44.553,0,0,1-6.375,12.29c-2.431,3.346-5.41,7.848-10.73,7.848-4.6,0-7.65-2.956-12.361-3.036-4.983-.081-7.724,2.471-12.28,3.114H21.233c-3.346-.484-6.046-3.134-8.013-5.521A48.372,48.372,0,0,1,2.1,30.251V26.825c.353-8.346,4.408-15.131,9.8-18.42a16.547,16.547,0,0,1,11.11-2.572,27.948,27.948,0,0,1,5.444,1.56C30.04,8,32.02,9.081,33.9,9.024a13.06,13.06,0,0,0,3.816-1.167c3.753-1.355,7.431-2.909,12.28-2.179,5.827.881,9.963,3.47,12.519,7.465-4.929,3.137-8.827,7.865-8.161,15.938C54.942,36.415,59.206,40.705,64.532,43.234Z" transform="translate(-2.104 12.974)"/>
    </g>
  </g>
</svg>
