<svg id="surface1" xmlns="http://www.w3.org/2000/svg" width="70.233" height="76.574" viewBox="0 0 70.233 76.574">
  <path id="Path_8811" data-name="Path 8811" d="M70.233,31.984A17.63,17.63,0,0,0,52.788,14.375a18.947,18.947,0,0,0-37.335,4.571q0,.135,0,.27l-.265,0a15.19,15.19,0,1,0,0,30.38h1.7v6.164a6.9,6.9,0,1,0,4.5,0V49.594H32.865v13.56a6.9,6.9,0,1,0,4.5,0V49.594H48.835v6.164a6.9,6.9,0,1,0,4.5,0v-6.18A17.63,17.63,0,0,0,70.233,31.984ZM19.147,64.676a2.4,2.4,0,1,1,2.4-2.4A2.4,2.4,0,0,1,19.147,64.676Zm15.97,7.4a2.4,2.4,0,1,1,2.4-2.4A2.4,2.4,0,0,1,35.117,72.071Zm15.971-7.4a2.4,2.4,0,1,1,2.4-2.4A2.4,2.4,0,0,1,51.087,64.676Zm0,0" transform="translate(0)" fill="#707070"/>
</svg>
