<svg id="ui" xmlns="http://www.w3.org/2000/svg" width="76.574" height="76.574" viewBox="0 0 76.574 76.574">
  <path id="Path_8814" data-name="Path 8814" d="M120.2,156.1a4.1,4.1,0,1,1-4.1-4.1A4.1,4.1,0,0,1,120.2,156.1Zm0,0" transform="translate(-92.856 -126.02)" fill="#707070"/>
  <path id="Path_8815" data-name="Path 8815" d="M136.613,4.1a1.367,1.367,0,0,1,1.367-1.367h12.055A4.1,4.1,0,0,0,146.185,0H116.1A4.1,4.1,0,0,0,112,4.1V5.47h24.613Zm0,0" transform="translate(-92.856)" fill="#707070"/>
  <path id="Path_8816" data-name="Path 8816" d="M109.674,225.3v-2.461a6.837,6.837,0,0,0-13.674,0V225.3a14.974,14.974,0,0,0,5.47,1.582V224.2H104.2v2.672a15,15,0,0,0,5.47-1.578Zm0,0" transform="translate(-79.591 -179.08)" fill="#707070"/>
  <path id="Path_8817" data-name="Path 8817" d="M48.406,118.011h2.665v2.735H48.41a15.051,15.051,0,0,0,4.941,9.846c.146.136.3.247.455.372v-.646a9.572,9.572,0,0,1,5.167-8.489,6.837,6.837,0,1,1,8.809,0,9.572,9.572,0,0,1,5.167,8.489v.652c.15-.126.308-.241.455-.372a15.049,15.049,0,0,0,4.941-9.852H75.685v-2.735H78.35a15.056,15.056,0,0,0-13.6-13.6v2.665H62.011v-2.665a15.056,15.056,0,0,0-13.6,13.6Zm0,0" transform="translate(-40.132 -86.561)" fill="#707070"/>
  <path id="Path_8818" data-name="Path 8818" d="M272,45.674h27.348V32H272Zm10.939-10.939h13.674V37.47H282.939Zm-8.2,0h5.47V37.47h-5.47Zm0,5.47h21.878v2.735H274.735Zm0,0" transform="translate(-225.509 -26.53)" fill="#707070"/>
  <path id="Path_8819" data-name="Path 8819" d="M122.939,402.735a1.368,1.368,0,0,1-1.367,1.367H112a4.1,4.1,0,0,0,4.1,4.1h30.083a4.1,4.1,0,0,0,4.1-4.1V400H122.939Zm6.837,0h2.735v2.735h-2.735Zm0,0" transform="translate(-92.856 -331.63)" fill="#707070"/>
  <path id="Path_8820" data-name="Path 8820" d="M27.348,360H0v8.2H27.348ZM9.572,365.47H2.735v-2.735H9.572Zm15.041,0H12.307v-2.735H24.613Zm0,0" transform="translate(0 -298.467)" fill="#707070"/>
  <path id="Path_8821" data-name="Path 8821" d="M330.055,160a1.606,1.606,0,0,0-1.064.4l-21.311,18.8,4.779,4.778,18.8-21.311A1.609,1.609,0,0,0,330.055,160Zm0,0" transform="translate(-255.09 -132.652)" fill="#707070"/>
  <path id="Path_8822" data-name="Path 8822" d="M252.2,286.944v2.412a6.308,6.308,0,0,1-.784,3.057h6.253a6.845,6.845,0,0,0,6.815-6.29l-5.994-5.994a6.846,6.846,0,0,0-6.29,6.815Zm0,0" transform="translate(-208.441 -232.248)" fill="#707070"/>
  <path id="Path_8823" data-name="Path 8823" d="M142.083,102.7h-9.572a1.367,1.367,0,0,1-.611-2.6,3.556,3.556,0,0,0,1.978-3.194V94.491a9.572,9.572,0,0,1,9.025-9.544l7.384-6.516V61.674H137.98a1.367,1.367,0,0,1-1.367-1.367V48H112v7.333a17.772,17.772,0,0,1,2.735-.427V50.735h2.735v4.172a17.778,17.778,0,0,1,16.339,16.339h4.172V73.98h-4.175A17.7,17.7,0,0,1,117.47,90.326v4.165h-2.735V90.326A17.609,17.609,0,0,1,112,89.894v8.7h9.572a1.367,1.367,0,0,1,1.367,1.367v5.47h27.348v-7.4a9.572,9.572,0,0,1-8.2,4.667Zm0,0" transform="translate(-92.856 -39.796)" fill="#707070"/>
  <path id="Path_8824" data-name="Path 8824" d="M10.939,32H0v8.2H10.939ZM8.2,37.47H2.735V34.735H8.2Zm0,0" transform="translate(0 -26.53)" fill="#707070"/>
</svg>
