<svg id="browser" xmlns="http://www.w3.org/2000/svg" width="71.513" height="60.204" viewBox="0 0 71.513 60.204">
  <path id="Path_8809" data-name="Path 8809" d="M66.351,40.484H5.161A5.161,5.161,0,0,0,0,45.645v9.427H71.513V45.645A5.161,5.161,0,0,0,66.351,40.484ZM8.951,50a2.241,2.241,0,1,1,2.241-2.241A2.241,2.241,0,0,1,8.951,50Zm9.112,0A2.241,2.241,0,1,1,20.3,47.762,2.241,2.241,0,0,1,18.063,50Zm9.525,0a2.241,2.241,0,1,1,2.241-2.241A2.241,2.241,0,0,1,27.589,50Z" transform="translate(0 -40.484)" fill="#707070"/>
  <path id="Path_8810" data-name="Path 8810" d="M0,176.808v36a5.161,5.161,0,0,0,5.161,5.161h61.19a5.161,5.161,0,0,0,5.161-5.161v-36Zm23.569,16.621-2.914,8.478a2.226,2.226,0,0,1-2.067,1.5h-.039a2.226,2.226,0,0,1-2.079-1.431l-1.053-2.752-.921,2.68a2.226,2.226,0,0,1-2.067,1.5h-.039a2.226,2.226,0,0,1-2.079-1.431L7.067,193.5a2.226,2.226,0,0,1,4.158-1.591l1.053,2.752.921-2.68a2.235,2.235,0,0,1,4.185-.072l1.053,2.752.921-2.679a2.226,2.226,0,0,1,4.211,1.447Zm20.451,0-2.914,8.478a2.226,2.226,0,0,1-2.067,1.5H39a2.226,2.226,0,0,1-2.079-1.431l-1.053-2.752-.921,2.68a2.226,2.226,0,0,1-2.067,1.5h-.039a2.226,2.226,0,0,1-2.079-1.431L27.518,193.5a2.226,2.226,0,0,1,4.158-1.591l1.053,2.752.921-2.68a2.248,2.248,0,0,1,4.185-.072l1.053,2.752.921-2.679a2.226,2.226,0,0,1,4.211,1.447Zm20.452,0-2.914,8.478a2.226,2.226,0,0,1-2.067,1.5h-.039a2.226,2.226,0,0,1-2.079-1.431l-1.053-2.752-.921,2.68a2.226,2.226,0,0,1-2.067,1.5h-.039a2.226,2.226,0,0,1-2.079-1.431L47.97,193.5a2.226,2.226,0,0,1,4.158-1.591l1.053,2.752.921-2.68a2.233,2.233,0,0,1,4.185-.072l1.053,2.752.921-2.68a2.226,2.226,0,0,1,4.211,1.447Z" transform="translate(0 -157.767)" fill="#707070"/>
</svg>
