<svg xmlns="http://www.w3.org/2000/svg" width="23.613" height="39" viewBox="0 0 23.613 39">
  <g id="Mobile_Application_" data-name="Mobile Application " transform="translate(-101)">
    <path id="Path_8910" data-name="Path 8910" d="M226.332,119.666a2.666,2.666,0,1,0-2.666,2.666A2.669,2.669,0,0,0,226.332,119.666Z" transform="translate(-110.859 -108.088)" fill="#fff"/>
    <path id="Path_8911" data-name="Path 8911" d="M124.613,29.1V4.189A4.194,4.194,0,0,0,120.424,0H105.189A4.194,4.194,0,0,0,101,4.189V29.1Zm-8.76-4.57H109.76a1.143,1.143,0,0,1,0-2.285h6.094a1.143,1.143,0,0,1,0,2.285Zm-9.141-14.092h1.277a4.923,4.923,0,0,1,.6-1.455l-.9-.9a1.143,1.143,0,0,1,1.616-1.616l.9.9a4.923,4.923,0,0,1,1.455-.6V5.484a1.143,1.143,0,1,1,2.285,0V6.761a4.923,4.923,0,0,1,1.455.6l.9-.9a1.143,1.143,0,0,1,1.616,1.616l-.9.9a4.923,4.923,0,0,1,.6,1.455H118.9a1.143,1.143,0,0,1,0,2.285h-1.277a4.923,4.923,0,0,1-.6,1.455l.9.9a1.143,1.143,0,1,1-1.616,1.616l-.9-.9a4.922,4.922,0,0,1-1.455.6v1.277a1.143,1.143,0,0,1-2.285,0V16.395a4.923,4.923,0,0,1-1.455-.6l-.9.9a1.143,1.143,0,0,1-1.616-1.616l.9-.9a4.923,4.923,0,0,1-.6-1.455h-1.277a1.143,1.143,0,0,1,0-2.285Z" fill="#fff"/>
    <path id="Path_8912" data-name="Path 8912" d="M101,412v3.428a4.194,4.194,0,0,0,4.189,4.189h15.234a4.194,4.194,0,0,0,4.189-4.189V412Zm13.33,4.951h-3.047a1.143,1.143,0,0,1,0-2.285h3.047a1.143,1.143,0,1,1,0,2.285Z" transform="translate(0 -380.617)" fill="#fff"/>
  </g>
</svg>
