<svg xmlns="http://www.w3.org/2000/svg" width="39.516" height="39.516" viewBox="0 0 39.516 39.516">
  <g id="Google_Services" data-name="Google Services" transform="translate(0)">
    <path id="Path_29758" data-name="Path 29758" d="M9.926,120.739C4.865,120.739,0,124.593,0,131.168H18.593a1.166,1.166,0,0,0,1.158-1.284A9.821,9.821,0,0,0,9.926,120.739Z" transform="translate(19.759 -111.412)" fill="#fff"/>
    <path id="Path_29759" data-name="Path 29759" d="M265.592,266.168c5.061,0,9.927-3.854,9.927-10.429H256.925a1.166,1.166,0,0,0-1.158,1.284A9.821,9.821,0,0,0,265.592,266.168Z" transform="translate(-255.76 -235.983)" fill="#fff"/>
    <path id="Path_29760" data-name="Path 29760" d="M131.168,265.688c0-5.061-3.854-9.927-10.429-9.927v18.594a1.166,1.166,0,0,0,1.284,1.158A9.821,9.821,0,0,0,131.168,265.688Z" transform="translate(-100.979 -236.003)" fill="#fff"/>
    <path id="Path_29761" data-name="Path 29761" d="M255.739,9.83c0,5.061,3.854,9.927,10.429,9.927V1.164A1.166,1.166,0,0,0,264.884.005,9.821,9.821,0,0,0,255.739,9.83Z" transform="translate(-246.408 0.001)" fill="#fff"/>
  </g>
</svg>
