<svg id="Instagram_Services" data-name="Instagram Services" xmlns="http://www.w3.org/2000/svg" width="29.3" height="29.3" viewBox="0 0 29.3 29.3">
  <g id="Group_23851" data-name="Group 23851" transform="translate(22.456 5.422)">
    <g id="Group_23850" data-name="Group 23850">
      <path id="Path_29774" data-name="Path 29774" d="M393.112,94.739a.711.711,0,1,0,.711.711A.712.712,0,0,0,393.112,94.739Z" transform="translate(-392.401 -94.739)" fill="#fff"/>
    </g>
  </g>
  <g id="Group_23853" data-name="Group 23853" transform="translate(8.344 8.344)">
    <g id="Group_23852" data-name="Group 23852">
      <path id="Path_29775" data-name="Path 29775" d="M152.11,145.8a6.306,6.306,0,1,0,6.306,6.306A6.313,6.313,0,0,0,152.11,145.8Z" transform="translate(-145.804 -145.804)" fill="#fff"/>
    </g>
  </g>
  <g id="Group_23855" data-name="Group 23855">
    <g id="Group_23854" data-name="Group 23854">
      <path id="Path_29776" data-name="Path 29776" d="M21.268,0H8.032A8.041,8.041,0,0,0,0,8.032V21.268A8.041,8.041,0,0,0,8.032,29.3H21.268A8.041,8.041,0,0,0,29.3,21.268V8.032A8.041,8.041,0,0,0,21.268,0ZM14.65,22.686a8.036,8.036,0,1,1,8.036-8.036A8.045,8.045,0,0,1,14.65,22.686ZM23.167,8.575a2.442,2.442,0,1,1,2.442-2.442A2.444,2.444,0,0,1,23.167,8.575Z" fill="#fff"/>
    </g>
  </g>
</svg>
