<svg id="Market_Strategy" data-name="Market Strategy" xmlns="http://www.w3.org/2000/svg" width="39" height="39" viewBox="0 0 39 39">
  <path id="Path_29762" data-name="Path 29762" d="M62.193,14.578a1.143,1.143,0,0,0,.635-.193l11.934-7.99v3.953a1.143,1.143,0,0,0,1.718.99l11.307-6.6-.481,1.795a1.143,1.143,0,1,0,2.209.591l1.2-4.488a1.143,1.143,0,0,0-.807-1.4L85.425.035a1.143,1.143,0,1,0-.591,2.209l1.849.494L77.047,8.361v-4.1a1.143,1.143,0,0,0-1.778-.949L61.558,12.489a1.143,1.143,0,0,0,.635,2.089Z" transform="translate(-56.404 0.004)" fill="#fff"/>
  <rect id="Rectangle_2758" data-name="Rectangle 2758" width="39" height="6.932" rx="3.466" transform="translate(0 32.068)" fill="#fff"/>
  <path id="Path_29763" data-name="Path 29763" d="M39.379,282.143A1.143,1.143,0,0,0,38.236,281H32.143A1.143,1.143,0,0,0,31,282.143v7.236h8.379Z" transform="translate(-28.639 -259.596)" fill="#fff"/>
  <path id="Path_29764" data-name="Path 29764" d="M202.143,221A1.143,1.143,0,0,0,201,222.143v11.807h8.379V222.143A1.143,1.143,0,0,0,208.236,221Z" transform="translate(-185.69 -204.166)" fill="#fff"/>
  <path id="Path_29765" data-name="Path 29765" d="M371,162.143v16.377h8.379V162.143A1.143,1.143,0,0,0,378.236,161h-6.094A1.143,1.143,0,0,0,371,162.143Z" transform="translate(-342.74 -148.736)" fill="#fff"/>
</svg>
