<svg xmlns="http://www.w3.org/2000/svg" width="34.711" height="39" viewBox="0 0 34.711 39">
  <g id="Marketing_Representative_Team_For_Rent" data-name="Marketing Representative Team For Rent" transform="translate(-25.274)">
    <g id="Group_23848" data-name="Group 23848" transform="translate(25.274)">
      <g id="Group_23847" data-name="Group 23847" transform="translate(0)">
        <path id="Path_29754" data-name="Path 29754" d="M53.637,281.742a8.481,8.481,0,0,1-6.865,3.5H42.817a3.16,3.16,0,0,1-2.97-2.082,10.035,10.035,0,0,1-1.6-.631,10.759,10.759,0,0,1-2.984-2.208,12.74,12.74,0,0,0-9.991,12.438v.8a1.982,1.982,0,0,0,1.982,1.982H58a1.982,1.982,0,0,0,1.982-1.982v-.8A12.731,12.731,0,0,0,53.637,281.742Z" transform="translate(-25.274 -256.539)" fill="#fff"/>
        <path id="Path_29755" data-name="Path 29755" d="M93.865,19.7a2.256,2.256,0,0,0,1.977-1.169l.031.082.009.025a8.807,8.807,0,0,0,4.966,5.229,3.156,3.156,0,0,1,2.675-1.479h3.955a2.214,2.214,0,0,0,1.084-.291,4.47,4.47,0,0,0,1.278-1.476,11.405,11.405,0,0,0,.989-2.091,2.268,2.268,0,0,0,.624.719v.97a3.979,3.979,0,0,1-3.975,3.975h-3.955a1.354,1.354,0,1,0,0,2.708h3.955a6.69,6.69,0,0,0,6.682-6.682v-.97a2.253,2.253,0,0,0,.9-1.805V11.794a2.253,2.253,0,0,0-.937-1.83,10.825,10.825,0,0,0-21.581,0,2.253,2.253,0,0,0-.937,1.83v5.648A2.258,2.258,0,0,0,93.865,19.7Zm9.471-16.991a8.128,8.128,0,0,1,8.077,7.312,2.265,2.265,0,0,0-.634.784c-1.278-3.333-4.13-5.654-7.443-5.654-3.385,0-6.191,2.4-7.438,5.641l-.005.013a2.265,2.265,0,0,0-.634-.784A8.129,8.129,0,0,1,103.336,2.708Z" transform="translate(-85.98)" fill="#fff"/>
      </g>
    </g>
  </g>
</svg>
