<svg xmlns="http://www.w3.org/2000/svg" width="39" height="39" viewBox="0 0 39 39">
  <path id="_Market_Research" data-name=" Market Research" d="M35,4a13.645,13.645,0,0,0-20.07,18.455l-2.759,2.758a3.764,3.764,0,0,0-4.381.683L1.1,32.585A3.759,3.759,0,0,0,6.417,37.9l6.693-6.694a3.765,3.765,0,0,0,.683-4.383l2.757-2.757A13.644,13.644,0,0,0,39,13.645,13.555,13.555,0,0,0,35,4ZM20.71,18.52a1.143,1.143,0,1,1-2.285,0V14.862a1.143,1.143,0,1,1,2.285,0Zm3.809,0a1.143,1.143,0,1,1-2.285,0V11.054a1.143,1.143,0,1,1,2.285,0Zm3.809,0a1.143,1.143,0,1,1-2.285,0V12.577a1.143,1.143,0,0,1,2.285,0Zm3.809,0a1.143,1.143,0,1,1-2.285,0V8.768a1.143,1.143,0,0,1,2.285,0Zm0,0" transform="translate(-0.001)" fill="#fff"/>
</svg>
