<svg xmlns="http://www.w3.org/2000/svg" width="38.561" height="38.55" viewBox="0 0 38.561 38.55">
  <g id="SEM_Services" data-name="SEM Services" transform="translate(0 -0.074)">
    <path id="Path_29793" data-name="Path 29793" d="M174.777,2.957h6.443A2.642,2.642,0,0,0,178.631.075h-4.909a4.8,4.8,0,0,1,.744,2.57A.312.312,0,0,0,174.777,2.957Z" transform="translate(-160.642 -0.001)" fill="#fff"/>
    <path id="Path_29794" data-name="Path 29794" d="M294.227,2.957h6.443A2.642,2.642,0,0,0,298.081.075h-4.909a4.8,4.8,0,0,1,.744,2.57A.312.312,0,0,0,294.227,2.957Z" transform="translate(-271.098 -0.001)" fill="#fff"/>
    <path id="Path_29795" data-name="Path 29795" d="M417.534.074h-4.913a4.8,4.8,0,0,1,.744,2.57.312.312,0,0,0,.311.311H420.1a2.607,2.607,0,0,0-2.57-2.881Z" transform="translate(-381.554 0)" fill="#fff"/>
    <path id="Path_29796" data-name="Path 29796" d="M11.565,2.645A2.57,2.57,0,0,0,9,.075H2.57A2.57,2.57,0,0,0,0,2.645v33.41a2.57,2.57,0,0,0,2.57,2.57H35.98a2.57,2.57,0,0,0,2.57-2.57V5.215H14.135a2.57,2.57,0,0,1-2.57-2.57ZM8.993,27.738H6.573a1.129,1.129,0,1,1,0-2.259H8.993a1.29,1.29,0,0,0,0-2.58H7.783a3.549,3.549,0,0,1,0-7.1H10.2a1.129,1.129,0,1,1,0,2.259H7.783a1.29,1.29,0,0,0,0,2.58h1.21A3.549,3.549,0,0,1,8.993,27.738Zm14.6-10.807a1.131,1.131,0,0,1,2.123-.538l2.938,5.425,2.938-5.425a1.129,1.129,0,0,1,2.122.538v9.678a1.129,1.129,0,0,1-2.259,0V21.387l-1.809,3.34a1.129,1.129,0,0,1-1.986,0l-1.809-3.34v5.221a1.129,1.129,0,0,1-2.259,0Zm-9.073,0A1.129,1.129,0,0,1,15.646,15.8h4.839a1.129,1.129,0,0,1,0,2.259H16.775v2.58h2.5a1.129,1.129,0,0,1,0,2.259h-2.5v2.58h3.709a1.129,1.129,0,0,1,0,2.259H15.646a1.129,1.129,0,0,1-1.129-1.129V16.93Z" transform="translate(0 -0.001)" fill="#fff"/>
  </g>
</svg>
