<svg xmlns="http://www.w3.org/2000/svg" width="39" height="39" viewBox="0 0 39 39">
  <g id="Performance_Analytic_Tools_Services" data-name="Performance Analytic Tools Services" transform="translate(-3 -3)">
    <circle id="Ellipse_4143" data-name="Ellipse 4143" cx="3.5" cy="3.5" r="3.5" transform="translate(35 3)" fill="#fff"/>
    <path id="Path_29778" data-name="Path 29778" d="M23,30h1.345v8.069H23Z" transform="translate(-6.552 -8.845)" fill="#fff"/>
    <path id="Path_29779" data-name="Path 29779" d="M20.483,24.793h4.034v2.994a10.695,10.695,0,0,1,13.448-2.211V13.308a4.671,4.671,0,0,1-2.141-.889l-4.113,4.112a1.989,1.989,0,0,1,.2.865,2.017,2.017,0,0,1-4.034,0,1.984,1.984,0,0,1,.2-.864l-1.355-1.355a1.95,1.95,0,0,1-1.729,0l-3.372,3.372a2,2,0,0,1,.2.865A2.017,2.017,0,1,1,19.81,17.4a1.984,1.984,0,0,1,.864.2l3.372-3.372a2,2,0,0,1-.2-.865,2.017,2.017,0,0,1,4.034,0,1.984,1.984,0,0,1-.2.864l1.355,1.355a1.95,1.95,0,0,1,1.729,0l4.112-4.112A4.689,4.689,0,0,1,34.129,10H3V34.207H21.862a10.787,10.787,0,0,1,.162-1.345H20.483ZM7.034,11.345h9.414V12.69H7.034Zm0,2.69h9.414v1.345H7.034Zm0,2.69h9.414v1.345H7.034Zm0,2.69h9.414v1.345H7.034Zm-2.69-8.069H5.69V12.69H4.345Zm0,2.69H5.69v1.345H4.345Zm0,2.69H5.69v1.345H4.345Zm0,2.69H5.69v1.345H4.345ZM8.379,32.862H4.345V26.138H8.379Zm5.379,0H9.724V27.483h4.034Zm5.379,0H15.1V22.1h4.034Z" transform="translate(0 -2.293)" fill="#fff"/>
    <path id="Path_29780" data-name="Path 29780" d="M48,33.051v2.69a6.71,6.71,0,0,1,5.453,9.449l2.333,1.347A9.381,9.381,0,0,0,48,33.051Z" transform="translate(-14.741 -9.844)" fill="#fff"/>
    <path id="Path_29781" data-name="Path 29781" d="M7,36H8.345v4.034H7Z" transform="translate(-1.31 -10.81)" fill="#fff"/>
    <circle id="Ellipse_4144" data-name="Ellipse 4144" cx="1" cy="1" r="1" transform="translate(29 14)" fill="#fff"/>
    <path id="Path_29782" data-name="Path 29782" d="M15,38h1.345v2.69H15Z" transform="translate(-3.931 -11.466)" fill="#fff"/>
    <circle id="Ellipse_4145" data-name="Ellipse 4145" cx="1" cy="1" r="1" transform="translate(25 10)" fill="#fff"/>
    <path id="Path_29783" data-name="Path 29783" d="M32.345,34H31v5.379h.545a10.7,10.7,0,0,1,.8-1.835Z" transform="translate(-9.172 -10.155)" fill="#fff"/>
    <path id="Path_29784" data-name="Path 29784" d="M35.69,42.43a6.733,6.733,0,0,1,6.052-6.69v-2.69a9.381,9.381,0,0,0-7.785,13.486l2.333-1.347a6.68,6.68,0,0,1-.6-2.76Z" transform="translate(-9.828 -9.844)" fill="#fff"/>
    <path id="Path_29785" data-name="Path 29785" d="M39,44.379A5.379,5.379,0,1,0,44.379,39,5.386,5.386,0,0,0,39,44.379Zm5.379-4.034a4.034,4.034,0,1,1-4.034,4.034A4.039,4.039,0,0,1,44.379,40.345Z" transform="translate(-11.793 -11.793)" fill="#fff"/>
    <path id="Path_29786" data-name="Path 29786" d="M43.2,55.635a6.714,6.714,0,0,1-5.45-2.8l-2.342,1.352a9.4,9.4,0,0,0,15.584,0l-2.342-1.352A6.714,6.714,0,0,1,43.2,55.635Z" transform="translate(-10.618 -16.325)" fill="#fff"/>
    <ellipse id="Ellipse_4146" data-name="Ellipse 4146" cx="0.5" cy="1" rx="0.5" ry="1" transform="translate(19 16)" fill="#fff"/>
    <circle id="Ellipse_4147" data-name="Ellipse 4147" cx="2.5" cy="2.5" r="2.5" transform="translate(30 30)" fill="#fff"/>
  </g>
</svg>
