<svg xmlns="http://www.w3.org/2000/svg" width="38.086" height="39" viewBox="0 0 38.086 39">
  <g id="PPC_Services" data-name="PPC Services" transform="translate(-6.001 0)">
    <path id="Path_29787" data-name="Path 29787" d="M44.486,25A17.6,17.6,0,0,0,27.352,46.635c.179-.029-.209.007,4.936-.421a12.721,12.721,0,1,1,8.905,8.674c-.413,4.958-.406,4.883-.41,4.919a17.6,17.6,0,1,0,3.7-34.8Z" transform="translate(-19.289 -23.099)" fill="#fff"/>
    <path id="Path_29788" data-name="Path 29788" d="M437.951,27.174l1.219-1.219a1.143,1.143,0,1,0-1.616-1.616l-1.219,1.219a1.143,1.143,0,0,0,1.616,1.616Z" transform="translate(-397.246 -22.176)" fill="#fff"/>
    <path id="Path_29789" data-name="Path 29789" d="M388.7,3.495a1.142,1.142,0,0,0,1.492-.621l.533-1.295a1.143,1.143,0,1,0-2.113-.87L388.083,2A1.143,1.143,0,0,0,388.7,3.495Z" transform="translate(-352.899 0)" fill="#fff"/>
    <path id="Path_29790" data-name="Path 29790" d="M463.381,80.633a1.143,1.143,0,0,0-1.533-.511l-1.219.609a1.143,1.143,0,0,0,1.022,2.044l1.219-.609A1.143,1.143,0,0,0,463.381,80.633Z" transform="translate(-419.415 -73.907)" fill="#fff"/>
    <path id="Path_29791" data-name="Path 29791" d="M18.847,327.111l-10.341.862a1.143,1.143,0,0,0-.713,1.947L9.575,331.7,6.331,334.98a1.143,1.143,0,0,0,0,1.612l4.266,4.266a1.143,1.143,0,0,0,1.611,0l3.278-3.243,1.782,1.782a1.143,1.143,0,0,0,1.947-.713l.862-10.341A1.143,1.143,0,0,0,18.847,327.111Z" transform="translate(0 -302.191)" fill="#fff"/>
    <path id="Path_29792" data-name="Path 29792" d="M131.436,119a10.436,10.436,0,0,0-9.86,13.855c3.563-.3,3.408-.289,3.606-.289a3.429,3.429,0,0,1,3.416,3.713l-.26,3.122a10.436,10.436,0,1,0,3.1-20.4Zm3.28,12.71a3.384,3.384,0,0,1-2.188,2.625v.286a1.143,1.143,0,0,1-1.2,1.141,1.164,1.164,0,0,1-1.087-1.174v-.124a4.1,4.1,0,0,1-1.576-.661,1.167,1.167,0,0,1-.393-1.57,1.143,1.143,0,0,1,1.6-.368,2.025,2.025,0,0,0,1.5.387,1.085,1.085,0,0,0,1.085-.922.762.762,0,0,0-.573-.912,9.451,9.451,0,0,1-2.611-1.261,2.862,2.862,0,0,1,.964-4.79v-.118a1.143,1.143,0,0,1,1.2-1.141,1.163,1.163,0,0,1,1.087,1.194,4.456,4.456,0,0,1,1.329.566,1.143,1.143,0,0,1,.346,1.618,1.165,1.165,0,0,1-1.6.292,2.089,2.089,0,0,0-1.385-.289.677.677,0,0,0-.57.518.509.509,0,0,0,.044.353,5.967,5.967,0,0,0,1.962.9A3.042,3.042,0,0,1,134.716,131.714Z" transform="translate(-106.24 -109.939)" fill="#fff"/>
  </g>
</svg>
