<svg xmlns="http://www.w3.org/2000/svg" width="35.909" height="38.121" viewBox="0 0 35.909 38.121">
  <g id="SEO_Services" data-name="SEO Services" transform="translate(-14.853)">
    <path id="Path_29797" data-name="Path 29797" d="M39.5,14.787l-2.65,2.648h0a10.085,10.085,0,0,1-16.568,4.48l6.935-6.935,3.674,3.674a1.117,1.117,0,0,0,1.579,0L42.846,8.284l1.437,1.437a1.118,1.118,0,0,0,1.907-.789L46.2,1.118A1.117,1.117,0,0,0,45.87.327,1.1,1.1,0,0,0,45.079,0L37.27.013a1.118,1.118,0,0,0-.788,1.906L37.9,3.336,31.644,9.591,27.913,5.86a1.117,1.117,0,0,0-1.579,0L17.1,15.093A10.1,10.1,0,0,1,32.243,5.834l1.626-1.626A12.325,12.325,0,1,0,39.5,14.787Z" transform="translate(0 0)" fill="#fff"/>
    <path id="Path_29798" data-name="Path 29798" d="M298.837,308.885,287.97,298.018a14.671,14.671,0,0,1-4.733,4.743L294.1,313.623a1.117,1.117,0,0,0,1.579,0l3.159-3.159A1.117,1.117,0,0,0,298.837,308.885Z" transform="translate(-248.402 -275.829)" fill="#fff"/>
  </g>
</svg>
