<svg id="Twitter_Services" data-name="Twitter Services" xmlns="http://www.w3.org/2000/svg" width="33.15" height="26.935" viewBox="0 0 33.15 26.935">
  <g id="Group_23856" data-name="Group 23856" transform="translate(0)">
    <path id="Path_29777" data-name="Path 29777" d="M33.15,51.189a14.169,14.169,0,0,1-3.916,1.073,6.758,6.758,0,0,0,2.99-3.756,13.582,13.582,0,0,1-4.31,1.645A6.8,6.8,0,0,0,16.159,54.8a7,7,0,0,0,.157,1.55A19.236,19.236,0,0,1,2.308,49.239,6.8,6.8,0,0,0,4.4,58.322a6.712,6.712,0,0,1-3.071-.837v.075a6.827,6.827,0,0,0,5.445,6.678,6.783,6.783,0,0,1-1.782.224A6.009,6.009,0,0,1,3.7,64.345a6.861,6.861,0,0,0,6.35,4.734,13.656,13.656,0,0,1-8.426,2.9A12.729,12.729,0,0,1,0,71.885a19.133,19.133,0,0,0,10.426,3.05c12.506,0,19.343-10.359,19.343-19.339,0-.3-.01-.59-.025-.878A13.558,13.558,0,0,0,33.15,51.189Z" transform="translate(0 -48)" fill="#fff"/>
  </g>
</svg>
