<svg xmlns="http://www.w3.org/2000/svg" width="1000" height="765" viewBox="0 0 1000 765" fill="none">
<g id="Curriculum Circle" clip-path="url(#clip0_151_2)">
<g id="Content-Circle">
<path id="Path 30341" d="M701.374 379.602C701.442 329.742 683.194 281.593 650.097 244.302C631.051 224.3 608.136 208.383 582.744 197.518C557.352 186.653 530.015 181.068 502.397 181.102C389.625 181.102 298.203 272.519 298.203 385.29C298.136 435.152 316.388 483.301 349.489 520.59C368.533 540.591 391.447 556.508 416.838 567.373C442.228 578.238 469.563 583.824 497.181 583.79C609.956 583.787 701.374 492.373 701.374 379.602Z" fill="url(#paint0_linear_151_2)"/>
<path id="Path 30342" d="M385.024 487.933L480.169 583.078C485.78 583.545 491.454 583.78 497.191 583.785C609.956 583.785 701.377 492.369 701.377 379.597C701.377 376.361 701.301 373.142 701.148 369.939L631.882 300.676L385.024 487.933Z" fill="url(#paint1_linear_151_2)"/>
<path id="Path 30343" d="M653.719 380.274C653.719 411.112 644.574 441.257 627.441 466.897C610.309 492.538 585.957 512.522 557.467 524.323C528.976 536.124 497.626 539.211 467.381 533.195C437.136 527.178 409.354 512.328 387.549 490.522C365.744 468.716 350.894 440.934 344.878 410.689C338.863 380.444 341.951 349.094 353.752 320.603C365.554 292.113 385.539 267.762 411.18 250.63C436.821 233.498 466.966 224.354 497.804 224.355C518.279 224.355 538.554 228.388 557.471 236.223C576.388 244.059 593.576 255.544 608.054 270.023C622.532 284.501 634.017 301.69 641.852 320.607C649.687 339.524 653.72 359.799 653.719 380.274Z" fill="white"/>
<path id="Path 30344" d="M653.719 380.274C654.073 360.241 650.382 340.343 642.868 321.769C635.354 303.196 624.17 286.329 609.986 272.178C595.802 258.027 578.909 246.883 560.318 239.412C541.727 231.941 521.82 228.297 501.788 228.698C471.209 228.337 441.217 237.103 415.645 253.874C390.074 270.646 370.084 294.662 358.231 322.852C346.378 351.043 343.201 382.127 349.105 412.133C355.008 442.138 369.726 469.702 391.375 491.301C413.024 512.899 440.622 527.552 470.641 533.386C500.661 539.219 531.738 535.969 559.901 524.05C588.063 512.132 612.032 492.086 628.744 466.475C645.456 440.864 654.151 410.852 653.719 380.274Z" fill="url(#paint2_radial_151_2)"/>
<path id="Path 30345" d="M637.953 311.892C653.586 347.07 655.655 386.787 643.761 423.399C631.867 460.011 606.851 490.93 573.528 510.203C540.205 529.477 500.931 535.743 463.264 527.797C425.598 519.85 392.203 498.252 369.506 467.159C374.095 474.501 379.285 481.449 385.024 487.932C410.72 514.826 445.184 531.649 482.194 535.365C519.205 539.081 556.325 529.445 586.855 508.196C617.384 486.947 639.313 455.485 648.683 419.488C658.054 383.49 654.248 345.33 637.953 311.892Z" fill="#EDEEF0"/>
</g>
<path id="Path 30346" d="M499.791 138.324C556.233 138.324 610.928 157.894 654.559 193.699C698.189 229.505 728.054 279.332 739.066 334.689C750.077 390.046 741.554 447.509 714.948 497.286C688.342 547.063 645.299 586.076 593.154 607.675C541.009 629.275 482.987 632.125 428.976 615.741C374.964 599.358 328.305 564.753 296.947 517.823C265.59 470.894 251.474 414.543 257.006 358.374C262.538 302.204 287.376 249.689 327.286 209.779C349.887 187.054 376.771 169.038 406.381 156.773C435.992 144.507 467.741 138.237 499.791 138.324ZM499.791 127.624C359.148 127.624 245.134 241.638 245.134 382.281C245.134 522.924 359.147 636.941 499.791 636.941C640.435 636.941 754.447 522.928 754.447 382.285C754.447 241.642 640.433 127.627 499.791 127.627V127.624Z" fill="#B4B4B4"/>
<path id="Right-Gradient" d="M678.09 201.527L671.474 208.142C694.588 230.872 712.946 257.977 725.477 287.875C738.007 317.773 744.461 349.866 744.461 382.284C744.461 414.702 738.007 446.795 725.477 476.693C712.946 506.591 694.588 533.696 671.474 556.426L678.09 563.042C702.074 539.444 721.121 511.308 734.123 480.275C747.125 449.242 753.821 415.931 753.821 382.284C753.821 348.638 747.125 315.327 734.123 284.294C721.121 253.261 702.074 225.125 678.09 201.527Z" fill="url(#paint3_linear_151_2)"/>
<path id="Left-Gradient" d="M320.248 561.826L326.863 555.211C304.121 532.52 286.078 505.566 273.767 475.893C261.457 446.219 255.12 414.409 255.12 382.283C255.12 350.157 261.457 318.347 273.767 288.673C286.078 259 304.121 232.046 326.863 209.355L320.248 202.741C296.636 226.3 277.903 254.284 265.121 285.093C252.339 315.901 245.76 348.929 245.76 382.283C245.76 415.638 252.339 448.665 265.121 479.474C277.903 510.283 296.636 538.267 320.248 561.826Z" fill="url(#paint4_linear_151_2)"/>
<path id="UI/UX" d="M472.742 387.184C472.742 394.656 469.371 398.391 462.629 398.391C456.172 398.391 452.944 394.798 452.944 387.611V371.339H456.061V387.407C456.061 392.862 458.362 395.59 462.963 395.59C467.404 395.59 469.625 392.955 469.625 387.685V371.339H472.742V387.184ZM482.52 397.946H479.403V371.339H482.52V397.946ZM501.13 371.339L488.365 402.362H485.526L498.254 371.339H501.13ZM523.804 387.184C523.804 394.656 520.433 398.391 513.692 398.391C507.235 398.391 504.006 394.798 504.006 387.611V371.339H507.124V387.407C507.124 392.862 509.424 395.59 514.026 395.59C518.467 395.59 520.687 392.955 520.687 387.685V371.339H523.804V387.184ZM548.834 397.946H545.031L538.908 387.76C538.722 387.45 538.518 387.011 538.295 386.442H538.221C538.097 386.727 537.887 387.166 537.59 387.76L531.282 397.946H527.459L536.366 384.568L528.165 371.339H531.987L537.423 380.69C537.782 381.309 538.097 381.927 538.37 382.546H538.444C538.84 381.729 539.186 381.086 539.483 380.616L545.142 371.339H548.723L540.355 384.531L548.834 397.946Z" fill="#313030"/>
<g id="Content-6">
<path id="Path 30351" style="mix-blend-mode:multiply" opacity="0.6" d="M705.302 210.152L688.502 193.381L688.49 193.393C686.896 191.647 684.962 190.245 682.807 189.274C680.652 188.302 678.321 187.781 675.957 187.742C673.593 187.704 671.246 188.149 669.061 189.05C666.875 189.951 664.897 191.289 663.247 192.982C661.597 194.675 660.31 196.687 659.466 198.895C658.621 201.104 658.237 203.461 658.337 205.823C658.436 208.185 659.017 210.502 660.044 212.631C661.071 214.761 662.522 216.658 664.309 218.206L679.927 233.823C681.454 235.592 683.321 237.034 685.419 238.064C687.516 239.093 689.8 239.689 692.133 239.815C694.466 239.941 696.8 239.595 698.996 238.798C701.192 238 703.205 236.768 704.913 235.174C706.622 233.58 707.991 231.658 708.939 229.523C709.887 227.387 710.394 225.082 710.43 222.746C710.466 220.41 710.03 218.091 709.148 215.927C708.267 213.763 706.957 211.8 705.299 210.154L705.302 210.152Z" fill="url(#paint5_radial_151_2)"/>
<path id="Rectangle 2800" d="M745.444 129.455L672.743 202.156L678.637 208.05L751.338 135.349L745.444 129.455Z" fill="#8078BF"/>
<path id="Path 30354" d="M663.405 192.819C665.834 190.389 668.93 188.734 672.3 188.064C675.67 187.393 679.163 187.737 682.337 189.051C685.512 190.366 688.225 192.593 690.134 195.45C692.043 198.307 693.062 201.665 693.062 205.101C693.062 208.538 692.043 211.896 690.134 214.753C688.225 217.61 685.512 219.837 682.337 221.151C679.163 222.466 675.67 222.81 672.3 222.139C668.93 221.469 665.834 219.814 663.405 217.384C660.148 214.126 658.318 209.708 658.318 205.101C658.318 200.495 660.148 196.077 663.405 192.819Z" fill="#8078BF"/>
<path id="Path 30373" d="M880.805 95.911C880.837 71.8186 872.019 48.5536 856.025 30.536C838.178 11.8525 813.714 0.915674 787.891 0.0757577C762.067 -0.764158 736.944 8.55989 717.921 26.0442C698.898 43.5285 687.493 67.7776 686.157 93.5805C684.822 119.383 693.661 144.681 710.777 164.036C724.386 178.292 741.952 188.145 761.213 192.326C780.473 196.506 800.543 194.823 818.838 187.493C837.133 180.162 852.813 167.521 863.857 151.198C874.902 134.875 880.805 115.618 880.805 95.909V95.911Z" fill="url(#paint6_radial_151_2)"/>
<path id="Path 30374" d="M728.315 148.551L774.288 194.524C776.998 194.749 779.739 194.863 782.511 194.866C808.678 194.866 833.773 184.472 852.276 165.969C870.779 147.467 881.174 122.372 881.175 96.205C881.175 94.6403 881.138 93.0853 881.063 91.54L847.595 58.073L728.315 148.551Z" fill="url(#paint7_radial_151_2)"/>
<g id="Group 25513">
<g id="Group 25511">
<g id="Group 25510">
<g id="Group 25509">
<path id="Path 30375" d="M866.49 97.745C866.49 114.11 861.637 130.108 852.545 143.716C843.453 157.323 830.53 167.929 815.41 174.191C800.291 180.454 783.653 182.093 767.602 178.9C751.551 175.707 736.808 167.827 725.235 156.255C713.663 144.682 705.783 129.939 702.59 113.888C699.397 97.8368 701.036 81.1995 707.299 66.0799C713.561 50.9602 724.167 38.0372 737.774 28.9451C751.382 19.8529 767.38 15 783.745 15C794.611 14.9999 805.371 17.14 815.41 21.2983C825.449 25.4566 834.571 31.5516 842.255 39.2352C849.938 46.9188 856.033 56.0406 860.192 66.0797C864.35 76.1189 866.49 86.8787 866.49 97.745Z" fill="white"/>
</g>
</g>
</g>
<path id="Path 30376" d="M866.49 97.64C866.52 77.4091 859.118 57.8718 845.69 42.74C832.846 28.2238 815.318 18.6709 796.158 15.744C776.997 12.8172 757.417 16.7015 740.824 26.7212C724.232 36.7408 711.679 52.2612 705.349 70.5813C699.018 88.9013 699.313 108.861 706.18 126.987C713.047 145.112 726.053 160.256 742.933 169.782C759.813 179.309 779.499 182.614 798.565 179.124C817.631 175.634 834.87 165.569 847.281 150.68C859.692 135.792 866.489 117.023 866.49 97.64Z" fill="url(#paint8_radial_151_2)"/>
<g id="Group 25512">
<path id="Path 30377" d="M858.145 63.8868C862.813 74.1217 865.243 85.3925 865.246 96.8188C865.246 141.58 828.311 177.867 782.752 177.867C755.374 177.867 731.124 164.766 716.118 144.6C718.569 148.444 721.315 152.056 724.327 155.395C739.35 170.851 760.529 180.478 783.996 180.478C829.56 180.478 866.49 144.193 866.49 99.433C866.483 87.0112 863.614 74.7897 858.145 63.8868Z" fill="#D8D9DD"/>
</g>
</g>
<g id="Group 25532">
<path id="Career Counselling for Designer" d="M766.081 94.6373C765.046 95.1842 763.757 95.4576 762.214 95.4576C760.222 95.4576 758.627 94.8164 757.429 93.5338C756.231 92.2513 755.632 90.5683 755.632 88.485C755.632 86.2454 756.306 84.4355 757.653 83.0553C759.001 81.6751 760.71 80.985 762.78 80.985C764.108 80.985 765.209 81.177 766.081 81.5612V83.3092C765.078 82.7493 763.972 82.4694 762.761 82.4694C761.153 82.4694 759.847 83.0065 758.845 84.0807C757.849 85.1549 757.351 86.5905 757.351 88.3873C757.351 90.0931 757.816 91.4537 758.747 92.4694C759.685 93.4785 760.912 93.983 762.429 93.983C763.835 93.983 765.052 93.6705 766.081 93.0455V94.6373ZM775.876 95.2233H774.274V93.6608H774.235C773.539 94.8587 772.513 95.4576 771.159 95.4576C770.163 95.4576 769.382 95.194 768.815 94.6666C768.256 94.1393 767.976 93.4394 767.976 92.567C767.976 90.6985 769.076 89.6113 771.276 89.3053L774.274 88.8854C774.274 87.1862 773.588 86.3365 772.214 86.3365C771.009 86.3365 769.922 86.7467 768.952 87.567V85.9264C769.935 85.3014 771.068 84.9889 772.351 84.9889C774.701 84.9889 775.876 86.2324 775.876 88.7194V95.2233ZM774.274 90.1647L771.862 90.4967C771.12 90.6009 770.56 90.7864 770.183 91.0533C769.805 91.3138 769.616 91.7793 769.616 92.4498C769.616 92.9381 769.789 93.3385 770.134 93.651C770.485 93.957 770.951 94.11 771.53 94.11C772.325 94.11 772.979 93.8333 773.493 93.2799C774.014 92.72 774.274 92.0136 774.274 91.1608V90.1647ZM784.108 86.8444C783.828 86.6295 783.425 86.5221 782.897 86.5221C782.214 86.5221 781.641 86.8444 781.179 87.4889C780.723 88.1334 780.495 89.0123 780.495 90.1256V95.2233H778.894V85.2233H780.495V87.2838H780.534C780.762 86.5807 781.11 86.0338 781.579 85.6432C782.048 85.2461 782.572 85.0475 783.151 85.0475C783.568 85.0475 783.887 85.0931 784.108 85.1842V86.8444ZM793.884 90.6237H786.823C786.849 91.7369 787.149 92.5963 787.722 93.2018C788.295 93.8073 789.082 94.11 790.085 94.11C791.211 94.11 792.246 93.7389 793.19 92.9967V94.5006C792.311 95.1386 791.149 95.4576 789.704 95.4576C788.291 95.4576 787.181 95.0052 786.374 94.1002C785.567 93.1888 785.163 91.9095 785.163 90.2623C785.163 88.7063 785.603 87.4401 786.481 86.4635C787.367 85.4804 788.464 84.9889 789.772 84.9889C791.081 84.9889 792.093 85.4121 792.81 86.2584C793.526 87.1048 793.884 88.2799 793.884 89.7838V90.6237ZM792.243 89.2662C792.237 88.3418 792.012 87.6224 791.569 87.108C791.133 86.5937 790.524 86.3365 789.743 86.3365C788.988 86.3365 788.347 86.6067 787.819 87.1471C787.292 87.6875 786.966 88.3938 786.843 89.2662H792.243ZM804.353 90.6237H797.292C797.318 91.7369 797.617 92.5963 798.19 93.2018C798.763 93.8073 799.551 94.11 800.554 94.11C801.68 94.11 802.715 93.7389 803.659 92.9967V94.5006C802.78 95.1386 801.618 95.4576 800.173 95.4576C798.76 95.4576 797.65 95.0052 796.843 94.1002C796.035 93.1888 795.632 91.9095 795.632 90.2623C795.632 88.7063 796.071 87.4401 796.95 86.4635C797.836 85.4804 798.933 84.9889 800.241 84.9889C801.55 84.9889 802.562 85.4121 803.278 86.2584C803.994 87.1048 804.353 88.2799 804.353 89.7838V90.6237ZM802.712 89.2662C802.705 88.3418 802.481 87.6224 802.038 87.108C801.602 86.5937 800.993 86.3365 800.212 86.3365C799.457 86.3365 798.815 86.6067 798.288 87.1471C797.761 87.6875 797.435 88.3938 797.311 89.2662H802.712ZM811.999 86.8444C811.719 86.6295 811.315 86.5221 810.788 86.5221C810.104 86.5221 809.532 86.8444 809.069 87.4889C808.614 88.1334 808.386 89.0123 808.386 90.1256V95.2233H806.784V85.2233H808.386V87.2838H808.425C808.653 86.5807 809.001 86.0338 809.47 85.6432C809.938 85.2461 810.463 85.0475 811.042 85.0475C811.459 85.0475 811.778 85.0931 811.999 85.1842V86.8444ZM743.103 121.637C742.067 122.184 740.778 122.458 739.235 122.458C737.243 122.458 735.648 121.816 734.45 120.534C733.252 119.251 732.653 117.568 732.653 115.485C732.653 113.245 733.327 111.436 734.675 110.055C736.022 108.675 737.731 107.985 739.802 107.985C741.13 107.985 742.23 108.177 743.103 108.561V110.309C742.1 109.749 740.993 109.469 739.782 109.469C738.174 109.469 736.869 110.006 735.866 111.081C734.87 112.155 734.372 113.59 734.372 115.387C734.372 117.093 734.838 118.454 735.769 119.469C736.706 120.478 737.933 120.983 739.45 120.983C740.856 120.983 742.074 120.671 743.103 120.046V121.637ZM749.919 122.458C748.441 122.458 747.259 121.992 746.374 121.061C745.495 120.124 745.056 118.883 745.056 117.34C745.056 115.661 745.515 114.349 746.433 113.405C747.351 112.461 748.591 111.989 750.153 111.989C751.644 111.989 752.806 112.448 753.64 113.366C754.479 114.284 754.899 115.557 754.899 117.184C754.899 118.779 754.447 120.059 753.542 121.022C752.644 121.979 751.436 122.458 749.919 122.458ZM750.036 113.337C749.007 113.337 748.194 113.688 747.595 114.391C746.996 115.088 746.696 116.051 746.696 117.282C746.696 118.467 746.999 119.401 747.604 120.085C748.21 120.768 749.02 121.11 750.036 121.11C751.071 121.11 751.866 120.775 752.419 120.104C752.979 119.434 753.259 118.48 753.259 117.243C753.259 115.993 752.979 115.029 752.419 114.352C751.866 113.675 751.071 113.337 750.036 113.337ZM765.544 122.223H763.942V120.641H763.903C763.239 121.852 762.211 122.458 760.817 122.458C758.435 122.458 757.243 121.038 757.243 118.2V112.223H758.835V117.946C758.835 120.055 759.642 121.11 761.257 121.11C762.038 121.11 762.679 120.824 763.181 120.251C763.688 119.671 763.942 118.916 763.942 117.985V112.223H765.544V122.223ZM777.087 122.223H775.485V116.52C775.485 114.398 774.711 113.337 773.161 113.337C772.36 113.337 771.696 113.639 771.169 114.245C770.648 114.844 770.388 115.602 770.388 116.52V122.223H768.786V112.223H770.388V113.883H770.427C771.182 112.62 772.276 111.989 773.708 111.989C774.802 111.989 775.638 112.344 776.218 113.053C776.797 113.756 777.087 114.775 777.087 116.11V122.223ZM779.509 121.862V120.143C780.381 120.788 781.341 121.11 782.39 121.11C783.796 121.11 784.499 120.641 784.499 119.704C784.499 119.437 784.437 119.212 784.313 119.03C784.196 118.841 784.033 118.675 783.825 118.532C783.623 118.389 783.382 118.262 783.103 118.151C782.829 118.034 782.533 117.913 782.214 117.79C781.771 117.614 781.381 117.438 781.042 117.262C780.71 117.08 780.43 116.878 780.202 116.657C779.981 116.429 779.811 116.172 779.694 115.885C779.584 115.599 779.528 115.264 779.528 114.88C779.528 114.411 779.636 113.997 779.851 113.639C780.065 113.275 780.352 112.972 780.71 112.731C781.068 112.484 781.475 112.298 781.931 112.174C782.393 112.051 782.868 111.989 783.356 111.989C784.222 111.989 784.997 112.139 785.681 112.438V114.059C784.945 113.577 784.099 113.337 783.142 113.337C782.842 113.337 782.572 113.372 782.331 113.444C782.09 113.509 781.882 113.603 781.706 113.727C781.537 113.851 781.403 114.001 781.306 114.176C781.214 114.346 781.169 114.534 781.169 114.743C781.169 115.003 781.214 115.221 781.306 115.397C781.403 115.573 781.543 115.729 781.726 115.866C781.908 116.003 782.129 116.126 782.39 116.237C782.65 116.348 782.946 116.468 783.278 116.598C783.721 116.768 784.118 116.943 784.47 117.126C784.821 117.301 785.121 117.503 785.368 117.731C785.616 117.952 785.804 118.21 785.935 118.503C786.071 118.796 786.14 119.144 786.14 119.547C786.14 120.042 786.029 120.472 785.808 120.837C785.593 121.201 785.303 121.504 784.938 121.745C784.574 121.986 784.154 122.165 783.679 122.282C783.203 122.399 782.705 122.458 782.185 122.458C781.156 122.458 780.264 122.259 779.509 121.862ZM796.647 117.624H789.587C789.613 118.737 789.912 119.596 790.485 120.202C791.058 120.807 791.846 121.11 792.849 121.11C793.975 121.11 795.01 120.739 795.954 119.997V121.501C795.075 122.139 793.913 122.458 792.468 122.458C791.055 122.458 789.945 122.005 789.138 121.1C788.33 120.189 787.927 118.909 787.927 117.262C787.927 115.706 788.366 114.44 789.245 113.464C790.131 112.48 791.228 111.989 792.536 111.989C793.845 111.989 794.857 112.412 795.573 113.258C796.289 114.105 796.647 115.28 796.647 116.784V117.624ZM795.007 116.266C795 115.342 794.776 114.622 794.333 114.108C793.897 113.594 793.288 113.337 792.507 113.337C791.752 113.337 791.11 113.607 790.583 114.147C790.056 114.687 789.73 115.394 789.606 116.266H795.007ZM800.681 122.223H799.079V107.419H800.681V122.223ZM805.524 122.223H803.923V107.419H805.524V122.223ZM809.587 109.684C809.3 109.684 809.056 109.587 808.854 109.391C808.653 109.196 808.552 108.949 808.552 108.649C808.552 108.35 808.653 108.102 808.854 107.907C809.056 107.705 809.3 107.604 809.587 107.604C809.88 107.604 810.127 107.705 810.329 107.907C810.537 108.102 810.642 108.35 810.642 108.649C810.642 108.936 810.537 109.18 810.329 109.381C810.127 109.583 809.88 109.684 809.587 109.684ZM810.368 122.223H808.767V112.223H810.368V122.223ZM821.911 122.223H820.31V116.52C820.31 114.398 819.535 113.337 817.985 113.337C817.185 113.337 816.52 113.639 815.993 114.245C815.472 114.844 815.212 115.602 815.212 116.52V122.223H813.61V112.223H815.212V113.883H815.251C816.006 112.62 817.1 111.989 818.532 111.989C819.626 111.989 820.463 112.344 821.042 113.053C821.621 113.756 821.911 114.775 821.911 116.11V122.223ZM833.474 121.422C833.474 125.094 831.716 126.93 828.2 126.93C826.963 126.93 825.882 126.696 824.958 126.227V124.626C826.084 125.251 827.158 125.563 828.181 125.563C830.642 125.563 831.872 124.255 831.872 121.637V120.544H831.833C831.071 121.82 829.925 122.458 828.395 122.458C827.152 122.458 826.149 122.015 825.388 121.13C824.632 120.238 824.255 119.043 824.255 117.546C824.255 115.846 824.662 114.495 825.476 113.493C826.296 112.49 827.416 111.989 828.835 111.989C830.183 111.989 831.182 112.529 831.833 113.61H831.872V112.223H833.474V121.422ZM831.872 117.702V116.227C831.872 115.433 831.602 114.753 831.061 114.186C830.528 113.62 829.86 113.337 829.06 113.337C828.07 113.337 827.295 113.698 826.735 114.421C826.175 115.137 825.895 116.143 825.895 117.438C825.895 118.551 826.162 119.443 826.696 120.114C827.237 120.778 827.95 121.11 828.835 121.11C829.733 121.11 830.463 120.791 831.022 120.153C831.589 119.515 831.872 118.698 831.872 117.702ZM735.583 135.825C735.27 135.649 734.916 135.561 734.519 135.561C733.399 135.561 732.839 136.268 732.839 137.68V139.223H735.183V140.59H732.839V149.223H731.247V140.59H729.538V139.223H731.247V137.602C731.247 136.554 731.55 135.727 732.155 135.122C732.761 134.51 733.516 134.204 734.421 134.204C734.909 134.204 735.297 134.262 735.583 134.38V135.825ZM741.091 149.458C739.613 149.458 738.431 148.992 737.546 148.061C736.667 147.124 736.228 145.883 736.228 144.34C736.228 142.661 736.686 141.349 737.604 140.405C738.522 139.461 739.763 138.989 741.325 138.989C742.816 138.989 743.978 139.448 744.811 140.366C745.651 141.284 746.071 142.557 746.071 144.184C746.071 145.779 745.619 147.059 744.714 148.022C743.815 148.979 742.608 149.458 741.091 149.458ZM741.208 140.337C740.179 140.337 739.366 140.688 738.767 141.391C738.168 142.088 737.868 143.051 737.868 144.282C737.868 145.467 738.171 146.401 738.776 147.085C739.382 147.768 740.192 148.11 741.208 148.11C742.243 148.11 743.037 147.775 743.591 147.104C744.151 146.434 744.431 145.48 744.431 144.243C744.431 142.993 744.151 142.029 743.591 141.352C743.037 140.675 742.243 140.337 741.208 140.337ZM753.845 140.844C753.565 140.63 753.161 140.522 752.634 140.522C751.95 140.522 751.377 140.844 750.915 141.489C750.459 142.133 750.231 143.012 750.231 144.126V149.223H748.63V139.223H750.231V141.284H750.27C750.498 140.581 750.847 140.034 751.315 139.643C751.784 139.246 752.308 139.047 752.888 139.047C753.304 139.047 753.623 139.093 753.845 139.184V140.844ZM761.286 149.223V135.219H765.153C770.088 135.219 772.556 137.495 772.556 142.046C772.556 144.207 771.869 145.945 770.495 147.26C769.128 148.569 767.295 149.223 764.997 149.223H761.286ZM762.927 136.704V147.739H765.017C766.853 147.739 768.282 147.247 769.304 146.264C770.326 145.281 770.837 143.888 770.837 142.085C770.837 138.497 768.929 136.704 765.114 136.704H762.927ZM783.132 144.624H776.071C776.097 145.737 776.397 146.596 776.97 147.202C777.543 147.807 778.33 148.11 779.333 148.11C780.459 148.11 781.494 147.739 782.438 146.997V148.501C781.56 149.139 780.397 149.458 778.952 149.458C777.539 149.458 776.429 149.005 775.622 148.1C774.815 147.189 774.411 145.909 774.411 144.262C774.411 142.706 774.851 141.44 775.729 140.464C776.615 139.48 777.712 138.989 779.02 138.989C780.329 138.989 781.341 139.412 782.058 140.258C782.774 141.105 783.132 142.28 783.132 143.784V144.624ZM781.491 143.266C781.485 142.342 781.26 141.622 780.817 141.108C780.381 140.594 779.772 140.337 778.991 140.337C778.236 140.337 777.595 140.607 777.067 141.147C776.54 141.687 776.214 142.394 776.091 143.266H781.491ZM784.958 148.862V147.143C785.83 147.788 786.791 148.11 787.839 148.11C789.245 148.11 789.948 147.641 789.948 146.704C789.948 146.437 789.886 146.212 789.763 146.03C789.645 145.841 789.483 145.675 789.274 145.532C789.073 145.389 788.832 145.262 788.552 145.151C788.278 145.034 787.982 144.913 787.663 144.79C787.22 144.614 786.83 144.438 786.491 144.262C786.159 144.08 785.879 143.878 785.651 143.657C785.43 143.429 785.261 143.172 785.144 142.885C785.033 142.599 784.978 142.264 784.978 141.88C784.978 141.411 785.085 140.997 785.3 140.639C785.515 140.275 785.801 139.972 786.159 139.731C786.517 139.484 786.924 139.298 787.38 139.174C787.842 139.051 788.317 138.989 788.806 138.989C789.672 138.989 790.446 139.139 791.13 139.438V141.059C790.394 140.577 789.548 140.337 788.591 140.337C788.291 140.337 788.021 140.372 787.78 140.444C787.539 140.509 787.331 140.603 787.155 140.727C786.986 140.851 786.853 141.001 786.755 141.176C786.664 141.346 786.618 141.534 786.618 141.743C786.618 142.003 786.664 142.221 786.755 142.397C786.853 142.573 786.992 142.729 787.175 142.866C787.357 143.003 787.578 143.126 787.839 143.237C788.099 143.348 788.395 143.468 788.728 143.598C789.17 143.768 789.567 143.943 789.919 144.126C790.27 144.301 790.57 144.503 790.817 144.731C791.065 144.952 791.254 145.21 791.384 145.503C791.52 145.796 791.589 146.144 791.589 146.547C791.589 147.042 791.478 147.472 791.257 147.837C791.042 148.201 790.752 148.504 790.388 148.745C790.023 148.986 789.603 149.165 789.128 149.282C788.653 149.399 788.155 149.458 787.634 149.458C786.605 149.458 785.713 149.259 784.958 148.862ZM794.88 136.684C794.593 136.684 794.349 136.587 794.147 136.391C793.946 136.196 793.845 135.949 793.845 135.649C793.845 135.35 793.946 135.102 794.147 134.907C794.349 134.705 794.593 134.604 794.88 134.604C795.173 134.604 795.42 134.705 795.622 134.907C795.83 135.102 795.935 135.35 795.935 135.649C795.935 135.936 795.83 136.18 795.622 136.381C795.42 136.583 795.173 136.684 794.88 136.684ZM795.661 149.223H794.06V139.223H795.661V149.223ZM807.438 148.422C807.438 152.094 805.681 153.93 802.165 153.93C800.928 153.93 799.847 153.696 798.923 153.227V151.626C800.049 152.251 801.123 152.563 802.145 152.563C804.606 152.563 805.837 151.255 805.837 148.637V147.544H805.798C805.036 148.82 803.89 149.458 802.36 149.458C801.117 149.458 800.114 149.015 799.353 148.13C798.597 147.238 798.22 146.043 798.22 144.546C798.22 142.846 798.627 141.495 799.44 140.493C800.261 139.49 801.381 138.989 802.8 138.989C804.147 138.989 805.147 139.529 805.798 140.61H805.837V139.223H807.438V148.422ZM805.837 144.702V143.227C805.837 142.433 805.567 141.753 805.026 141.186C804.492 140.62 803.825 140.337 803.024 140.337C802.035 140.337 801.26 140.698 800.7 141.421C800.14 142.137 799.86 143.143 799.86 144.438C799.86 145.551 800.127 146.443 800.661 147.114C801.201 147.778 801.914 148.11 802.8 148.11C803.698 148.11 804.427 147.791 804.987 147.153C805.554 146.515 805.837 145.698 805.837 144.702ZM818.981 149.223H817.38V143.52C817.38 141.398 816.605 140.337 815.056 140.337C814.255 140.337 813.591 140.639 813.063 141.245C812.543 141.844 812.282 142.602 812.282 143.52V149.223H810.681V139.223H812.282V140.883H812.321C813.076 139.62 814.17 138.989 815.603 138.989C816.696 138.989 817.533 139.344 818.112 140.053C818.692 140.756 818.981 141.775 818.981 143.11V149.223ZM830.046 144.624H822.985C823.011 145.737 823.311 146.596 823.884 147.202C824.457 147.807 825.244 148.11 826.247 148.11C827.373 148.11 828.408 147.739 829.353 146.997V148.501C828.474 149.139 827.311 149.458 825.866 149.458C824.453 149.458 823.343 149.005 822.536 148.1C821.729 147.189 821.325 145.909 821.325 144.262C821.325 142.706 821.765 141.44 822.644 140.464C823.529 139.48 824.626 138.989 825.935 138.989C827.243 138.989 828.256 139.412 828.972 140.258C829.688 141.105 830.046 142.28 830.046 143.784V144.624ZM828.405 143.266C828.399 142.342 828.174 141.622 827.731 141.108C827.295 140.594 826.686 140.337 825.905 140.337C825.15 140.337 824.509 140.607 823.981 141.147C823.454 141.687 823.129 142.394 823.005 143.266H828.405ZM837.692 140.844C837.412 140.63 837.009 140.522 836.481 140.522C835.798 140.522 835.225 140.844 834.763 141.489C834.307 142.133 834.079 143.012 834.079 144.126V149.223H832.478V139.223H834.079V141.284H834.118C834.346 140.581 834.694 140.034 835.163 139.643C835.632 139.246 836.156 139.047 836.735 139.047C837.152 139.047 837.471 139.093 837.692 139.184V140.844Z" fill="#313030"/>
<path id="06" d="M781.845 55.5143C781.845 57.6237 781.651 59.4928 781.265 61.1217C780.89 62.7506 780.339 64.1276 779.612 65.2526C778.897 66.3658 778.013 67.2155 776.958 67.8014C775.915 68.3756 774.726 68.6627 773.39 68.6627C772.124 68.6627 770.993 68.3873 769.997 67.8365C769.013 67.274 768.181 66.4596 767.501 65.3932C766.821 64.3268 766.306 63.0201 765.954 61.4733C765.603 59.9147 765.427 58.1334 765.427 56.1295C765.427 53.9264 765.608 51.9811 765.972 50.2936C766.347 48.6061 766.892 47.194 767.606 46.0573C768.321 44.9088 769.206 44.0475 770.261 43.4733C771.327 42.8873 772.546 42.5944 773.917 42.5944C779.202 42.5944 781.845 46.901 781.845 55.5143ZM778.892 55.7955C778.892 48.6237 777.187 45.0377 773.776 45.0377C770.179 45.0377 768.38 48.6881 768.38 55.9889C768.38 62.7975 770.144 66.2018 773.671 66.2018C777.151 66.2018 778.892 62.733 778.892 55.7955ZM801.286 60.2252C801.286 61.4557 801.087 62.5865 800.688 63.6178C800.29 64.649 799.739 65.5397 799.036 66.2897C798.333 67.0397 797.495 67.6256 796.522 68.0475C795.55 68.4576 794.495 68.6627 793.358 68.6627C792.093 68.6627 790.956 68.399 789.948 67.8717C788.952 67.3444 788.103 66.5885 787.399 65.6041C786.708 64.608 786.181 63.3951 785.817 61.9655C785.454 60.5358 785.272 58.9244 785.272 57.1315C785.272 54.9401 785.513 52.9537 785.993 51.1725C786.485 49.3795 787.177 47.8502 788.067 46.5846C788.97 45.3073 790.054 44.3229 791.319 43.6315C792.585 42.9401 793.997 42.5944 795.556 42.5944C797.29 42.5944 798.685 42.8346 799.739 43.3151V46.0397C798.438 45.3717 797.067 45.0377 795.626 45.0377C794.501 45.0377 793.487 45.2897 792.585 45.7936C791.683 46.2975 790.909 47.0123 790.265 47.9381C789.62 48.8522 789.122 49.9596 788.771 51.2604C788.431 52.5612 788.261 54.0084 788.261 55.6022H788.331C789.491 53.5045 791.407 52.4557 794.079 52.4557C795.181 52.4557 796.171 52.6432 797.05 53.0182C797.94 53.3932 798.696 53.9264 799.317 54.6178C799.95 55.2975 800.437 56.1119 800.776 57.0612C801.116 58.0104 801.286 59.0651 801.286 60.2252ZM798.333 60.5944C798.333 59.7155 798.222 58.9244 797.999 58.2213C797.776 57.5182 797.454 56.9205 797.032 56.4283C796.622 55.9362 796.112 55.5612 795.503 55.3033C794.894 55.0338 794.202 54.899 793.429 54.899C792.714 54.899 792.052 55.0338 791.442 55.3033C790.833 55.5729 790.306 55.942 789.86 56.4108C789.415 56.8678 789.063 57.4069 788.806 58.028C788.56 58.6373 788.437 59.2877 788.437 59.9791C788.437 60.8463 788.56 61.6608 788.806 62.4225C789.052 63.1725 789.397 63.8287 789.843 64.3912C790.288 64.9537 790.815 65.399 791.425 65.7272C792.046 66.0436 792.731 66.2018 793.481 66.2018C794.208 66.2018 794.87 66.067 795.468 65.7975C796.065 65.5162 796.575 65.1295 796.997 64.6373C797.419 64.1451 797.747 63.5592 797.981 62.8795C798.216 62.1881 798.333 61.4264 798.333 60.5944Z" fill="#5950A0"/>
</g>
</g>
<g id="Content-5">
<path id="Rectangle 2797" d="M852.384 382.632H749.553V390.968H852.384V382.632Z" fill="#07A9F0"/>
<path id="Path 30349" style="mix-blend-mode:multiply" d="M779.164 391.85L762.364 375.079L762.353 375.091C760.761 373.338 758.827 371.929 756.67 370.952C754.513 369.974 752.179 369.448 749.811 369.407C747.443 369.365 745.092 369.809 742.902 370.71C740.712 371.611 738.73 372.951 737.077 374.647C735.425 376.343 734.136 378.36 733.292 380.572C732.448 382.785 732.066 385.147 732.169 387.513C732.272 389.878 732.858 392.198 733.891 394.329C734.924 396.46 736.382 398.357 738.176 399.903L753.796 415.52C755.323 417.286 757.191 418.726 759.288 419.753C761.385 420.781 763.667 421.375 765.999 421.499C768.33 421.624 770.663 421.278 772.857 420.48C775.052 419.683 777.063 418.451 778.77 416.858C780.477 415.265 781.846 413.344 782.794 411.21C783.741 409.076 784.249 406.773 784.286 404.439C784.323 402.104 783.889 399.786 783.009 397.623C782.13 395.46 780.823 393.497 779.167 391.851L779.164 391.85Z" fill="url(#paint9_radial_151_2)"/>
<path id="Ellipse 4171" d="M756.252 402.825C765.103 399.125 769.278 388.95 765.578 380.1C761.877 371.249 751.703 367.074 742.852 370.774C734.001 374.474 729.826 384.649 733.526 393.5C737.227 402.351 747.401 406.526 756.252 402.825Z" fill="#07A9F0"/>
<path id="Path 30368" d="M999.577 380.909C999.577 361.396 993.791 342.321 982.95 326.097C972.109 309.872 956.7 297.227 938.673 289.759C920.645 282.292 900.808 280.338 881.67 284.145C862.531 287.951 844.952 297.348 831.154 311.146C817.356 324.943 807.96 342.523 804.153 361.661C800.346 380.799 802.299 400.636 809.767 418.664C817.234 436.692 829.879 452.1 846.104 462.941C862.328 473.782 881.403 479.569 900.916 479.569C913.886 479.619 926.738 477.101 938.731 472.161C950.723 467.22 961.619 459.955 970.791 450.784C979.962 441.612 987.228 430.716 992.168 418.724C997.109 406.731 999.627 393.879 999.577 380.909Z" fill="url(#paint10_radial_151_2)"/>
<path id="Path 30369" d="M846.722 433.254L892.693 479.224C895.405 479.449 898.147 479.563 900.92 479.566C927.086 479.566 952.181 469.171 970.683 450.669C989.185 432.166 999.579 407.072 999.579 380.906C999.579 379.342 999.543 377.787 999.469 376.24L966.001 342.777L846.722 433.254Z" fill="url(#paint11_radial_151_2)"/>
<g id="Group 25506">
<g id="Group 25504">
<g id="Group 25503">
<g id="Group 25502">
<path id="Path 30370" d="M976.674 381.338C976.674 396.238 972.255 410.804 963.977 423.193C955.698 435.582 943.932 445.238 930.166 450.94C916.4 456.642 901.252 458.133 886.638 455.226C872.024 452.319 858.601 445.144 848.065 434.607C837.529 424.071 830.354 410.647 827.447 396.033C824.541 381.419 826.033 366.271 831.735 352.505C837.438 338.739 847.094 326.973 859.484 318.696C871.873 310.418 886.439 306 901.339 306C911.232 306 921.029 307.948 930.169 311.735C939.31 315.521 947.615 321.07 954.61 328.066C961.606 335.062 967.155 343.367 970.941 352.507C974.726 361.648 976.675 371.445 976.674 381.338Z" fill="white"/>
</g>
</g>
</g>
<path id="Path 30371" d="M976.674 381.338C976.674 366.438 972.255 351.873 963.977 339.484C955.699 327.096 943.933 317.44 930.168 311.738C916.402 306.037 901.255 304.545 886.641 307.452C872.028 310.359 858.604 317.534 848.069 328.07C837.533 338.605 830.358 352.029 827.451 366.642C824.545 381.256 826.037 396.403 831.739 410.169C837.441 423.934 847.096 435.7 859.485 443.978C871.874 452.256 886.439 456.674 901.339 456.674C911.243 456.714 921.058 454.792 930.216 451.021C939.374 447.249 947.694 441.701 954.698 434.697C961.701 427.694 967.249 419.373 971.021 410.215C974.793 401.057 976.714 391.242 976.674 381.338Z" fill="url(#paint12_radial_151_2)"/>
<g id="Group 25505">
<path id="Path 30372" d="M969.057 348.291C976.614 365.289 977.616 384.481 971.87 402.174C966.124 419.866 954.036 434.807 937.933 444.121C921.831 453.435 902.853 456.463 884.651 452.622C866.45 448.781 850.313 438.343 839.347 423.317C849.994 439.065 866.216 450.19 884.742 454.449C903.268 458.708 922.719 455.783 939.174 446.266C955.629 436.748 967.863 421.345 973.408 403.163C978.954 384.981 977.399 365.372 969.057 348.291Z" fill="#D8D9DD"/>
</g>
</g>
<g id="Group 25536">
<path id="Final Project" d="M856.137 403.012H850.668V407.856H855.727V409.331H850.668V415.532H849.028V401.528H856.137V403.012ZM859.399 402.993C859.112 402.993 858.868 402.895 858.667 402.7C858.465 402.505 858.364 402.257 858.364 401.958C858.364 401.658 858.465 401.411 858.667 401.216C858.868 401.014 859.112 400.913 859.399 400.913C859.692 400.913 859.939 401.014 860.141 401.216C860.349 401.411 860.454 401.658 860.454 401.958C860.454 402.244 860.349 402.488 860.141 402.69C859.939 402.892 859.692 402.993 859.399 402.993ZM860.18 415.532H858.579V405.532H860.18V415.532ZM871.723 415.532H870.122V409.829C870.122 407.706 869.347 406.645 867.797 406.645C866.997 406.645 866.333 406.948 865.805 407.553C865.284 408.152 865.024 408.911 865.024 409.829V415.532H863.422V405.532H865.024V407.192H865.063C865.818 405.929 866.912 405.298 868.344 405.298C869.438 405.298 870.275 405.652 870.854 406.362C871.433 407.065 871.723 408.084 871.723 409.419V415.532ZM881.909 415.532H880.307V413.969H880.268C879.571 415.167 878.546 415.766 877.192 415.766C876.196 415.766 875.415 415.503 874.848 414.975C874.288 414.448 874.008 413.748 874.008 412.876C874.008 411.007 875.109 409.92 877.309 409.614L880.307 409.194C880.307 407.495 879.62 406.645 878.247 406.645C877.042 406.645 875.955 407.055 874.985 407.876V406.235C875.968 405.61 877.101 405.298 878.383 405.298C880.734 405.298 881.909 406.541 881.909 409.028V415.532ZM880.307 410.473L877.895 410.805C877.153 410.91 876.593 411.095 876.215 411.362C875.838 411.622 875.649 412.088 875.649 412.759C875.649 413.247 875.821 413.647 876.167 413.96C876.518 414.266 876.984 414.419 877.563 414.419C878.357 414.419 879.012 414.142 879.526 413.589C880.047 413.029 880.307 412.322 880.307 411.469V410.473ZM886.528 415.532H884.926V400.727H886.528V415.532ZM897.114 410.239V415.532H895.473V401.528H899.321C900.818 401.528 901.977 401.893 902.797 402.622C903.624 403.351 904.038 404.38 904.038 405.708C904.038 407.036 903.579 408.123 902.661 408.969C901.749 409.816 900.515 410.239 898.959 410.239H897.114ZM897.114 403.012V408.755H898.833C899.965 408.755 900.828 408.497 901.42 407.983C902.019 407.462 902.319 406.73 902.319 405.786C902.319 403.937 901.225 403.012 899.038 403.012H897.114ZM911.684 407.153C911.404 406.938 911 406.831 910.473 406.831C909.79 406.831 909.217 407.153 908.754 407.798C908.299 408.442 908.071 409.321 908.071 410.434V415.532H906.469V405.532H908.071V407.593H908.11C908.338 406.889 908.686 406.343 909.155 405.952C909.624 405.555 910.148 405.356 910.727 405.356C911.144 405.356 911.463 405.402 911.684 405.493V407.153ZM917.602 415.766C916.124 415.766 914.943 415.301 914.057 414.37C913.178 413.432 912.739 412.192 912.739 410.649C912.739 408.969 913.198 407.658 914.116 406.714C915.034 405.77 916.274 405.298 917.836 405.298C919.327 405.298 920.489 405.757 921.323 406.675C922.163 407.593 922.583 408.865 922.583 410.493C922.583 412.088 922.13 413.367 921.225 414.331C920.327 415.288 919.119 415.766 917.602 415.766ZM917.719 406.645C916.691 406.645 915.877 406.997 915.278 407.7C914.679 408.397 914.379 409.36 914.379 410.591C914.379 411.775 914.682 412.71 915.288 413.393C915.893 414.077 916.704 414.419 917.719 414.419C918.754 414.419 919.549 414.083 920.102 413.413C920.662 412.742 920.942 411.788 920.942 410.552C920.942 409.302 920.662 408.338 920.102 407.661C919.549 406.984 918.754 406.645 917.719 406.645ZM926.743 415.112C926.743 416.753 926.411 418.016 925.747 418.901C925.089 419.793 924.145 420.239 922.915 420.239C922.459 420.239 922.016 420.135 921.586 419.927V418.432C922.068 418.725 922.524 418.872 922.954 418.872C924.412 418.872 925.141 417.706 925.141 415.376V405.532H926.743V415.112ZM925.961 402.993C925.675 402.993 925.431 402.895 925.229 402.7C925.027 402.505 924.926 402.257 924.926 401.958C924.926 401.658 925.027 401.411 925.229 401.216C925.431 401.014 925.675 400.913 925.961 400.913C926.254 400.913 926.502 401.014 926.704 401.216C926.912 401.411 927.016 401.658 927.016 401.958C927.016 402.244 926.912 402.488 926.704 402.69C926.502 402.892 926.254 402.993 925.961 402.993ZM938.022 410.932H930.961C930.987 412.046 931.287 412.905 931.86 413.51C932.433 414.116 933.221 414.419 934.223 414.419C935.349 414.419 936.385 414.048 937.329 413.305V414.809C936.45 415.447 935.288 415.766 933.842 415.766C932.43 415.766 931.319 415.314 930.512 414.409C929.705 413.497 929.301 412.218 929.301 410.571C929.301 409.015 929.741 407.749 930.62 406.772C931.505 405.789 932.602 405.298 933.911 405.298C935.219 405.298 936.232 405.721 936.948 406.567C937.664 407.413 938.022 408.589 938.022 410.093V410.932ZM936.381 409.575C936.375 408.65 936.15 407.931 935.708 407.417C935.271 406.902 934.663 406.645 933.881 406.645C933.126 406.645 932.485 406.915 931.958 407.456C931.43 407.996 931.105 408.703 930.981 409.575H936.381ZM947.27 415.073C946.502 415.535 945.59 415.766 944.536 415.766C943.11 415.766 941.958 415.304 941.079 414.38C940.206 413.449 939.77 412.244 939.77 410.766C939.77 409.119 940.242 407.798 941.186 406.802C942.13 405.799 943.39 405.298 944.965 405.298C945.844 405.298 946.619 405.46 947.29 405.786V407.427C946.547 406.906 945.753 406.645 944.907 406.645C943.885 406.645 943.045 407.013 942.387 407.749C941.736 408.478 941.411 409.438 941.411 410.63C941.411 411.802 941.717 412.726 942.329 413.403C942.947 414.08 943.774 414.419 944.809 414.419C945.681 414.419 946.502 414.129 947.27 413.55V415.073ZM954.331 415.434C953.953 415.643 953.455 415.747 952.836 415.747C951.085 415.747 950.209 414.77 950.209 412.817V406.899H948.491V405.532H950.209V403.091L951.811 402.573V405.532H954.331V406.899H951.811V412.534C951.811 413.205 951.925 413.683 952.153 413.969C952.381 414.256 952.758 414.399 953.286 414.399C953.689 414.399 954.038 414.288 954.331 414.067V415.434Z" fill="#313030"/>
<path id="05" d="M898.944 373.291C898.944 375.4 898.751 377.27 898.364 378.898C897.989 380.527 897.438 381.904 896.712 383.029C895.997 384.143 895.112 384.992 894.058 385.578C893.015 386.152 891.825 386.439 890.489 386.439C889.224 386.439 888.093 386.164 887.097 385.613C886.112 385.051 885.28 384.236 884.601 383.17C883.921 382.104 883.405 380.797 883.054 379.25C882.702 377.691 882.526 375.91 882.526 373.906C882.526 371.703 882.708 369.758 883.071 368.07C883.446 366.383 883.991 364.971 884.706 363.834C885.421 362.686 886.306 361.824 887.36 361.25C888.427 360.664 889.646 360.371 891.017 360.371C896.302 360.371 898.944 364.678 898.944 373.291ZM895.991 373.572C895.991 366.4 894.286 362.814 890.876 362.814C887.278 362.814 885.479 366.465 885.479 373.766C885.479 380.574 887.243 383.979 890.771 383.979C894.251 383.979 895.991 380.51 895.991 373.572ZM917.454 378.301C917.454 379.531 917.243 380.645 916.821 381.641C916.399 382.637 915.796 383.492 915.011 384.207C914.237 384.922 913.3 385.473 912.198 385.859C911.097 386.246 909.872 386.439 908.524 386.439C906.181 386.439 904.44 386.088 903.304 385.385V382.326C905.015 383.428 906.767 383.979 908.56 383.979C909.474 383.979 910.294 383.844 911.021 383.574C911.759 383.305 912.386 382.93 912.901 382.449C913.417 381.969 913.81 381.389 914.079 380.709C914.36 380.029 914.501 379.285 914.501 378.477C914.501 376.836 913.95 375.553 912.849 374.627C911.747 373.689 910.147 373.221 908.05 373.221C907.71 373.221 907.353 373.227 906.978 373.238C906.603 373.25 906.228 373.268 905.853 373.291C905.478 373.303 905.108 373.32 904.745 373.344C904.394 373.367 904.071 373.396 903.778 373.432L904.64 360.793H916.294V363.395H907.136L906.626 370.795C907.001 370.771 907.399 370.754 907.821 370.742C908.243 370.719 908.618 370.707 908.946 370.707C910.282 370.707 911.478 370.883 912.532 371.234C913.587 371.586 914.478 372.09 915.204 372.746C915.942 373.391 916.499 374.188 916.874 375.137C917.261 376.074 917.454 377.129 917.454 378.301Z" fill="#096AD0"/>
</g>
</g>
<g id="Content-4">
<path id="Rectangle 2796" d="M678.914 555.58L673.02 561.474L745.721 634.175L751.614 628.281L678.914 555.58Z" fill="#F14258"/>
<path id="Path 30347" style="mix-blend-mode:multiply" opacity="0.6" d="M705.575 563.576L688.775 546.805L688.762 546.817C687.168 545.069 685.234 543.666 683.079 542.692C680.923 541.719 678.591 541.197 676.227 541.157C673.862 541.118 671.514 541.563 669.327 542.464C667.14 543.365 665.161 544.703 663.51 546.397C661.86 548.091 660.573 550.104 659.728 552.313C658.884 554.523 658.5 556.881 658.601 559.244C658.701 561.607 659.283 563.925 660.312 566.055C661.34 568.184 662.793 570.081 664.582 571.629L680.2 587.247C681.727 589.015 683.595 590.456 685.692 591.484C687.789 592.513 690.072 593.108 692.404 593.233C694.736 593.359 697.07 593.013 699.265 592.215C701.461 591.417 703.472 590.185 705.18 588.592C706.888 586.998 708.257 585.077 709.205 582.942C710.152 580.807 710.66 578.503 710.696 576.168C710.732 573.832 710.297 571.514 709.416 569.35C708.535 567.187 707.227 565.224 705.57 563.578L705.575 563.576Z" fill="url(#paint13_radial_151_2)"/>
<path id="Path 30355" d="M688.249 546.243C690.678 548.672 692.333 551.767 693.003 555.137C693.673 558.506 693.329 561.999 692.014 565.173C690.7 568.347 688.473 571.059 685.617 572.968C682.76 574.877 679.402 575.895 675.967 575.895C672.531 575.895 669.173 574.877 666.316 572.968C663.46 571.059 661.234 568.347 659.919 565.173C658.604 561.999 658.26 558.506 658.93 555.137C659.601 551.767 661.255 548.672 663.684 546.243C666.942 542.986 671.36 541.156 675.967 541.156C680.573 541.156 684.991 542.986 688.249 546.243Z" fill="#F14258"/>
<path id="Path 30378" d="M883.181 666.231C883.181 646.718 877.395 627.643 866.554 611.419C855.713 595.194 840.304 582.549 822.277 575.081C804.249 567.614 784.412 565.66 765.274 569.467C746.136 573.273 728.556 582.67 714.758 596.468C700.96 610.265 691.564 627.845 687.757 646.983C683.95 666.121 685.903 685.958 693.371 703.986C700.838 722.014 713.483 737.422 729.708 748.263C745.932 759.104 765.007 764.891 784.52 764.891C797.49 764.941 810.342 762.423 822.334 757.483C834.327 752.542 845.223 745.277 854.395 736.105C863.566 726.934 870.831 716.038 875.772 704.046C880.713 692.053 883.231 679.201 883.181 666.231Z" fill="#F14258"/>
<path id="Path 30379" d="M730.323 718.578L776.296 764.553C779.006 764.778 781.748 764.892 784.52 764.895C810.686 764.895 835.781 754.5 854.283 735.998C872.785 717.496 883.18 692.401 883.18 666.235C883.18 664.67 883.143 663.115 883.069 661.57L849.606 628.099L730.323 718.578Z" fill="#DC1C34"/>
<g id="Group 25520">
<g id="Group 25518">
<g id="Group 25517">
<g id="Group 25516">
<path id="Path 30380" d="M859.673 666.337C859.673 681.238 855.255 695.804 846.977 708.193C838.698 720.583 826.932 730.239 813.166 735.941C799.4 741.643 784.252 743.135 769.637 740.228C755.023 737.321 741.599 730.146 731.063 719.61C720.527 709.073 713.351 695.649 710.445 681.035C707.538 666.421 709.03 651.272 714.732 637.506C720.435 623.74 730.091 611.974 742.481 603.696C754.87 595.418 769.437 591 784.337 591C794.23 591 804.027 592.949 813.167 596.735C822.307 600.521 830.612 606.07 837.608 613.066C844.604 620.061 850.153 628.367 853.939 637.507C857.725 646.647 859.673 656.444 859.673 666.337Z" fill="white"/>
</g>
</g>
</g>
<path id="Path 30381" d="M859.675 666.337C859.675 651.437 855.256 636.871 846.978 624.482C838.7 612.093 826.933 602.437 813.167 596.735C799.401 591.033 784.253 589.542 769.64 592.449C755.026 595.356 741.602 602.531 731.066 613.067C720.53 623.604 713.355 637.027 710.448 651.641C707.542 666.255 709.034 681.403 714.736 695.169C720.438 708.935 730.095 720.701 742.484 728.979C754.873 737.257 769.439 741.675 784.339 741.675C794.244 741.715 804.058 739.793 813.216 736.021C822.374 732.249 830.695 726.701 837.699 719.697C844.702 712.694 850.25 704.373 854.022 695.214C857.794 686.056 859.715 676.242 859.675 666.337Z" fill="url(#paint14_radial_151_2)"/>
<g id="Group 25519">
<path id="Path 30382" d="M852.056 633.3C859.609 650.297 860.608 669.487 854.861 687.177C849.114 704.867 837.027 719.805 820.927 729.118C804.826 738.431 785.85 741.459 767.651 737.62C749.452 733.781 733.315 723.346 722.348 708.324C732.997 724.066 749.218 735.186 767.741 739.442C786.264 743.698 805.712 740.773 822.164 731.257C838.616 721.741 850.848 706.342 856.396 688.164C861.943 669.985 860.392 650.38 852.056 633.3Z" fill="#D8D9DD"/>
</g>
</g>
<g id="Group 25535">
<path id="Photoshop" d="M740.469 695.239V700.532H738.828V686.528H742.676C744.173 686.528 745.332 686.893 746.152 687.622C746.979 688.351 747.393 689.38 747.393 690.708C747.393 692.036 746.934 693.123 746.016 693.969C745.104 694.816 743.87 695.239 742.314 695.239H740.469ZM740.469 688.012V693.755H742.188C743.32 693.755 744.183 693.497 744.775 692.983C745.374 692.462 745.674 691.73 745.674 690.786C745.674 688.937 744.58 688.012 742.393 688.012H740.469ZM758.125 700.532H756.523V694.77C756.523 692.687 755.749 691.645 754.199 691.645C753.418 691.645 752.76 691.948 752.227 692.553C751.693 693.152 751.426 693.924 751.426 694.868V700.532H749.824V685.727H751.426V692.192H751.465C752.233 690.929 753.327 690.298 754.746 690.298C756.999 690.298 758.125 691.655 758.125 694.37V700.532ZM765.332 700.766C763.854 700.766 762.673 700.301 761.787 699.37C760.908 698.432 760.469 697.192 760.469 695.649C760.469 693.969 760.928 692.658 761.846 691.714C762.764 690.77 764.004 690.298 765.566 690.298C767.057 690.298 768.219 690.757 769.053 691.675C769.893 692.593 770.312 693.865 770.312 695.493C770.312 697.088 769.86 698.367 768.955 699.331C768.057 700.288 766.849 700.766 765.332 700.766ZM765.449 691.645C764.421 691.645 763.607 691.997 763.008 692.7C762.409 693.397 762.109 694.36 762.109 695.591C762.109 696.775 762.412 697.71 763.018 698.393C763.623 699.077 764.434 699.419 765.449 699.419C766.484 699.419 767.279 699.083 767.832 698.413C768.392 697.742 768.672 696.788 768.672 695.552C768.672 694.302 768.392 693.338 767.832 692.661C767.279 691.984 766.484 691.645 765.449 691.645ZM777.51 700.434C777.132 700.643 776.634 700.747 776.016 700.747C774.264 700.747 773.389 699.77 773.389 697.817V691.899H771.67V690.532H773.389V688.091L774.99 687.573V690.532H777.51V691.899H774.99V697.534C774.99 698.205 775.104 698.683 775.332 698.969C775.56 699.256 775.938 699.399 776.465 699.399C776.868 699.399 777.217 699.288 777.51 699.067V700.434ZM783.828 700.766C782.35 700.766 781.169 700.301 780.283 699.37C779.404 698.432 778.965 697.192 778.965 695.649C778.965 693.969 779.424 692.658 780.342 691.714C781.26 690.77 782.5 690.298 784.062 690.298C785.553 690.298 786.715 690.757 787.549 691.675C788.389 692.593 788.809 693.865 788.809 695.493C788.809 697.088 788.356 698.367 787.451 699.331C786.553 700.288 785.345 700.766 783.828 700.766ZM783.945 691.645C782.917 691.645 782.103 691.997 781.504 692.7C780.905 693.397 780.605 694.36 780.605 695.591C780.605 696.775 780.908 697.71 781.514 698.393C782.119 699.077 782.93 699.419 783.945 699.419C784.98 699.419 785.775 699.083 786.328 698.413C786.888 697.742 787.168 696.788 787.168 695.552C787.168 694.302 786.888 693.338 786.328 692.661C785.775 691.984 784.98 691.645 783.945 691.645ZM790.762 700.171V698.452C791.634 699.096 792.594 699.419 793.643 699.419C795.049 699.419 795.752 698.95 795.752 698.012C795.752 697.746 795.69 697.521 795.566 697.339C795.449 697.15 795.286 696.984 795.078 696.841C794.876 696.697 794.635 696.57 794.355 696.46C794.082 696.343 793.786 696.222 793.467 696.098C793.024 695.923 792.633 695.747 792.295 695.571C791.963 695.389 791.683 695.187 791.455 694.966C791.234 694.738 791.064 694.481 790.947 694.194C790.837 693.908 790.781 693.572 790.781 693.188C790.781 692.719 790.889 692.306 791.104 691.948C791.318 691.583 791.605 691.281 791.963 691.04C792.321 690.792 792.728 690.607 793.184 690.483C793.646 690.359 794.121 690.298 794.609 690.298C795.475 690.298 796.25 690.447 796.934 690.747V692.368C796.198 691.886 795.352 691.645 794.395 691.645C794.095 691.645 793.825 691.681 793.584 691.753C793.343 691.818 793.135 691.912 792.959 692.036C792.79 692.16 792.656 692.309 792.559 692.485C792.467 692.654 792.422 692.843 792.422 693.052C792.422 693.312 792.467 693.53 792.559 693.706C792.656 693.882 792.796 694.038 792.979 694.175C793.161 694.311 793.382 694.435 793.643 694.546C793.903 694.656 794.199 694.777 794.531 694.907C794.974 695.076 795.371 695.252 795.723 695.434C796.074 695.61 796.374 695.812 796.621 696.04C796.868 696.261 797.057 696.518 797.188 696.811C797.324 697.104 797.393 697.453 797.393 697.856C797.393 698.351 797.282 698.781 797.061 699.145C796.846 699.51 796.556 699.813 796.191 700.053C795.827 700.294 795.407 700.473 794.932 700.591C794.456 700.708 793.958 700.766 793.438 700.766C792.409 700.766 791.517 700.568 790.762 700.171ZM808.164 700.532H806.562V694.77C806.562 692.687 805.788 691.645 804.238 691.645C803.457 691.645 802.799 691.948 802.266 692.553C801.732 693.152 801.465 693.924 801.465 694.868V700.532H799.863V685.727H801.465V692.192H801.504C802.272 690.929 803.366 690.298 804.785 690.298C807.038 690.298 808.164 691.655 808.164 694.37V700.532ZM815.371 700.766C813.893 700.766 812.712 700.301 811.826 699.37C810.947 698.432 810.508 697.192 810.508 695.649C810.508 693.969 810.967 692.658 811.885 691.714C812.803 690.77 814.043 690.298 815.605 690.298C817.096 690.298 818.258 690.757 819.092 691.675C819.932 692.593 820.352 693.865 820.352 695.493C820.352 697.088 819.899 698.367 818.994 699.331C818.096 700.288 816.888 700.766 815.371 700.766ZM815.488 691.645C814.46 691.645 813.646 691.997 813.047 692.7C812.448 693.397 812.148 694.36 812.148 695.591C812.148 696.775 812.451 697.71 813.057 698.393C813.662 699.077 814.473 699.419 815.488 699.419C816.523 699.419 817.318 699.083 817.871 698.413C818.431 697.742 818.711 696.788 818.711 695.552C818.711 694.302 818.431 693.338 817.871 692.661C817.318 691.984 816.523 691.645 815.488 691.645ZM824.551 699.087H824.512V705.132H822.91V690.532H824.512V692.29H824.551C825.339 690.962 826.491 690.298 828.008 690.298C829.297 690.298 830.303 690.747 831.025 691.645C831.748 692.537 832.109 693.735 832.109 695.239C832.109 696.912 831.702 698.253 830.889 699.262C830.075 700.265 828.962 700.766 827.549 700.766C826.253 700.766 825.254 700.206 824.551 699.087ZM824.512 695.053V696.45C824.512 697.277 824.779 697.98 825.312 698.559C825.853 699.132 826.536 699.419 827.363 699.419C828.333 699.419 829.092 699.048 829.639 698.305C830.192 697.563 830.469 696.531 830.469 695.21C830.469 694.096 830.212 693.224 829.697 692.593C829.183 691.961 828.486 691.645 827.607 691.645C826.676 691.645 825.928 691.971 825.361 692.622C824.795 693.266 824.512 694.077 824.512 695.053Z" fill="#313030"/>
<path id="04" d="M782.566 658.291C782.566 660.4 782.373 662.27 781.986 663.898C781.611 665.527 781.06 666.904 780.333 668.029C779.619 669.143 778.734 669.992 777.679 670.578C776.636 671.152 775.447 671.439 774.111 671.439C772.845 671.439 771.714 671.164 770.718 670.613C769.734 670.051 768.902 669.236 768.222 668.17C767.542 667.104 767.027 665.797 766.675 664.25C766.324 662.691 766.148 660.91 766.148 658.906C766.148 656.703 766.33 654.758 766.693 653.07C767.068 651.383 767.613 649.971 768.328 648.834C769.042 647.686 769.927 646.824 770.982 646.25C772.048 645.664 773.267 645.371 774.638 645.371C779.923 645.371 782.566 649.678 782.566 658.291ZM779.613 658.572C779.613 651.4 777.908 647.814 774.498 647.814C770.9 647.814 769.101 651.465 769.101 658.766C769.101 665.574 770.865 668.979 774.392 668.979C777.873 668.979 779.613 665.51 779.613 658.572ZM798.984 645.793V662.439H802.218V665.076H798.984V671H796.136V665.076H784.289V662.58C785.39 661.338 786.503 660.014 787.628 658.607C788.753 657.189 789.826 655.754 790.845 654.301C791.876 652.848 792.826 651.4 793.693 649.959C794.572 648.506 795.31 647.117 795.908 645.793H798.984ZM787.541 662.439H796.136V650.1C795.257 651.635 794.425 653.006 793.64 654.213C792.855 655.42 792.105 656.516 791.39 657.5C790.687 658.484 790.013 659.375 789.369 660.172C788.724 660.969 788.115 661.725 787.541 662.439Z" fill="#DC1C34"/>
</g>
</g>
<g id="Content-3">
<path id="Rectangle 2799" d="M320.615 555.892L247.903 628.605L253.797 634.499L326.51 561.787L320.615 555.892Z" fill="#7AF4AB"/>
<path id="Path 30363" d="M312.479 665.184C312.512 641.09 303.694 617.824 287.699 599.806C269.855 581.113 245.388 570.167 219.559 569.323C193.73 568.478 168.601 577.803 149.574 595.291C130.547 612.779 119.142 637.034 117.81 662.843C116.478 688.652 125.326 713.952 142.452 733.306C156.061 747.562 173.627 757.416 192.887 761.597C212.146 765.778 232.217 764.095 250.512 756.765C268.807 749.435 284.487 736.794 295.531 720.471C306.576 704.148 312.479 684.891 312.479 665.183V665.184Z" fill="url(#paint15_radial_151_2)"/>
<path id="Path 30364" d="M159.618 717.528L205.589 763.501C208.302 763.726 211.044 763.84 213.815 763.843C226.772 763.843 239.601 761.292 251.571 756.334C263.542 751.376 274.418 744.109 283.58 734.948C292.742 725.786 300.009 714.91 304.968 702.94C309.926 690.97 312.478 678.14 312.478 665.184C312.478 663.619 312.441 662.064 312.367 660.518L278.897 627.05L159.618 717.528Z" fill="url(#paint16_radial_151_2)"/>
<g id="Group 25499">
<g id="Group 25497">
<g id="Group 25496">
<g id="Group 25495">
<path id="Path 30365" d="M289.676 665.338C289.676 680.238 285.258 694.804 276.979 707.194C268.701 719.583 256.935 729.239 243.169 734.941C229.403 740.643 214.255 742.135 199.641 739.229C185.027 736.322 171.603 729.147 161.066 718.61C150.53 708.074 143.355 694.651 140.448 680.036C137.541 665.422 139.033 650.274 144.735 636.508C150.437 622.742 160.093 610.976 172.482 602.697C184.871 594.419 199.437 590 214.337 590C234.318 590 253.481 597.937 267.609 612.066C281.738 626.195 289.676 645.357 289.676 665.338Z" fill="white"/>
</g>
</g>
</g>
<path id="Path 30366" d="M289.677 665.338C289.678 650.437 285.26 635.871 276.982 623.481C268.704 611.091 256.937 601.435 243.171 595.732C229.405 590.029 214.257 588.537 199.642 591.443C185.027 594.35 171.603 601.525 161.066 612.061C150.53 622.598 143.354 636.022 140.447 650.636C137.54 665.25 139.031 680.399 144.734 694.165C150.436 707.932 160.092 719.699 172.482 727.977C184.871 736.255 199.437 740.674 214.338 740.674C224.242 740.712 234.056 738.789 243.213 735.017C252.37 731.244 260.691 725.696 267.694 718.693C274.697 711.69 280.245 703.37 284.018 694.213C287.791 685.056 289.714 675.242 289.677 665.338Z" fill="url(#paint17_radial_151_2)"/>
<g id="Group 25498">
<path id="Path 30367" d="M282.056 632.294C289.611 649.292 290.612 668.483 284.865 686.175C279.119 703.866 267.031 718.806 250.93 728.12C234.828 737.434 215.851 740.462 197.65 736.623C179.45 732.783 163.313 722.347 152.345 707.323C154.565 710.869 157.073 714.225 159.845 717.358C172.261 730.354 188.914 738.484 206.798 740.28C224.682 742.075 242.619 737.419 257.371 727.151C272.123 716.883 282.719 701.679 287.245 684.285C291.772 666.89 289.932 648.451 282.056 632.294Z" fill="#D8D9DD"/>
</g>
</g>
<path id="Path 30388" style="mix-blend-mode:multiply" opacity="0.6" d="M353.174 563.964L336.374 547.193L336.362 547.205C334.769 545.454 332.835 544.048 330.679 543.073C328.523 542.097 326.19 541.573 323.824 541.533C321.457 541.492 319.108 541.936 316.919 542.837C314.731 543.738 312.75 545.077 311.098 546.772C309.447 548.467 308.159 550.482 307.315 552.693C306.471 554.904 306.088 557.264 306.189 559.628C306.291 561.993 306.875 564.312 307.906 566.442C308.937 568.572 310.393 570.469 312.184 572.016L327.804 587.634C329.331 589.4 331.199 590.84 333.296 591.867C335.392 592.895 337.675 593.488 340.006 593.613C342.338 593.738 344.671 593.392 346.865 592.594C349.06 591.796 351.071 590.564 352.778 588.972C354.485 587.379 355.854 585.458 356.801 583.324C357.749 581.19 358.257 578.887 358.294 576.553C358.331 574.218 357.897 571.9 357.017 569.737C356.137 567.574 354.831 565.611 353.175 563.965L353.174 563.964Z" fill="url(#paint18_radial_151_2)"/>
<path id="Path 30389" d="M335.845 571.121C333.416 573.55 330.321 575.205 326.951 575.875C323.581 576.546 320.089 576.202 316.914 574.887C313.74 573.572 311.027 571.346 309.118 568.489C307.21 565.632 306.191 562.274 306.191 558.838C306.191 555.402 307.21 552.044 309.118 549.187C311.027 546.331 313.74 544.104 316.914 542.789C320.089 541.475 323.581 541.131 326.951 541.801C330.321 542.471 333.416 544.126 335.845 546.555C337.458 548.168 338.738 550.083 339.611 552.19C340.484 554.298 340.934 556.557 340.934 558.838C340.934 561.119 340.484 563.378 339.611 565.486C338.738 567.593 337.458 569.508 335.845 571.121Z" fill="#7AF4AB"/>
<g id="Group 25533">
<path id="UI + Figma" d="M177.335 693.868C177.335 697.8 175.561 699.766 172.013 699.766C168.614 699.766 166.915 697.875 166.915 694.093V685.528H168.556V693.985C168.556 696.856 169.767 698.292 172.188 698.292C174.526 698.292 175.694 696.905 175.694 694.132V685.528H177.335V693.868ZM182.481 699.532H180.841V685.528H182.481V699.532ZM201.271 694.356H197.325V698.292H196.026V694.356H192.091V693.048H196.026V689.112H197.325V693.048H201.271V694.356ZM217.95 687.012H212.481V691.856H217.54V693.331H212.481V699.532H210.841V685.528H217.95V687.012ZM221.212 686.993C220.925 686.993 220.681 686.895 220.479 686.7C220.278 686.505 220.177 686.257 220.177 685.958C220.177 685.658 220.278 685.411 220.479 685.216C220.681 685.014 220.925 684.913 221.212 684.913C221.505 684.913 221.752 685.014 221.954 685.216C222.162 685.411 222.267 685.658 222.267 685.958C222.267 686.244 222.162 686.488 221.954 686.69C221.752 686.892 221.505 686.993 221.212 686.993ZM221.993 699.532H220.392V689.532H221.993V699.532ZM233.771 698.731C233.771 702.403 232.013 704.239 228.497 704.239C227.26 704.239 226.179 704.005 225.255 703.536V701.934C226.381 702.559 227.455 702.872 228.478 702.872C230.938 702.872 232.169 701.563 232.169 698.946V697.852H232.13C231.368 699.128 230.222 699.766 228.692 699.766C227.449 699.766 226.446 699.324 225.685 698.438C224.929 697.546 224.552 696.352 224.552 694.854C224.552 693.155 224.959 691.804 225.772 690.802C226.593 689.799 227.713 689.298 229.132 689.298C230.479 689.298 231.479 689.838 232.13 690.919H232.169V689.532H233.771V698.731ZM232.169 695.01V693.536C232.169 692.742 231.899 692.061 231.358 691.495C230.825 690.928 230.157 690.645 229.356 690.645C228.367 690.645 227.592 691.007 227.032 691.729C226.472 692.445 226.192 693.451 226.192 694.747C226.192 695.86 226.459 696.752 226.993 697.423C227.534 698.087 228.246 698.419 229.132 698.419C230.03 698.419 230.759 698.1 231.319 697.462C231.886 696.824 232.169 696.007 232.169 695.01ZM251.212 699.532H249.61V693.79C249.61 692.683 249.438 691.882 249.093 691.387C248.754 690.893 248.181 690.645 247.374 690.645C246.69 690.645 246.108 690.958 245.626 691.583C245.151 692.208 244.913 692.956 244.913 693.829V699.532H243.312V693.594C243.312 691.628 242.553 690.645 241.036 690.645C240.333 690.645 239.754 690.941 239.298 691.534C238.842 692.12 238.614 692.885 238.614 693.829V699.532H237.013V689.532H238.614V691.114H238.653C239.363 689.903 240.398 689.298 241.759 689.298C242.442 689.298 243.038 689.49 243.546 689.874C244.054 690.251 244.402 690.749 244.591 691.368C245.333 689.988 246.44 689.298 247.911 689.298C250.112 689.298 251.212 690.655 251.212 693.37V699.532ZM261.397 699.532H259.796V697.969H259.757C259.06 699.167 258.035 699.766 256.681 699.766C255.685 699.766 254.903 699.503 254.337 698.975C253.777 698.448 253.497 697.748 253.497 696.876C253.497 695.007 254.597 693.92 256.798 693.614L259.796 693.194C259.796 691.495 259.109 690.645 257.735 690.645C256.531 690.645 255.444 691.055 254.474 691.876V690.235C255.457 689.61 256.59 689.298 257.872 689.298C260.222 689.298 261.397 690.541 261.397 693.028V699.532ZM259.796 694.473L257.384 694.805C256.642 694.91 256.082 695.095 255.704 695.362C255.326 695.622 255.138 696.088 255.138 696.759C255.138 697.247 255.31 697.647 255.655 697.96C256.007 698.266 256.472 698.419 257.052 698.419C257.846 698.419 258.5 698.142 259.015 697.589C259.535 697.029 259.796 696.322 259.796 695.469V694.473Z" fill="#313030"/>
<path id="03" d="M211.943 657.291C211.943 659.4 211.75 661.27 211.363 662.898C210.988 664.527 210.438 665.904 209.711 667.029C208.996 668.143 208.111 668.992 207.057 669.578C206.014 670.152 204.824 670.439 203.488 670.439C202.223 670.439 201.092 670.164 200.096 669.613C199.111 669.051 198.279 668.236 197.6 667.17C196.92 666.104 196.404 664.797 196.053 663.25C195.701 661.691 195.525 659.91 195.525 657.906C195.525 655.703 195.707 653.758 196.07 652.07C196.445 650.383 196.99 648.971 197.705 647.834C198.42 646.686 199.305 645.824 200.359 645.25C201.426 644.664 202.645 644.371 204.016 644.371C209.301 644.371 211.943 648.678 211.943 657.291ZM208.99 657.572C208.99 650.4 207.285 646.814 203.875 646.814C200.277 646.814 198.479 650.465 198.479 657.766C198.479 664.574 200.242 667.979 203.77 667.979C207.25 667.979 208.99 664.51 208.99 657.572ZM230.172 662.863C230.172 664 229.955 665.037 229.521 665.975C229.1 666.9 228.496 667.697 227.711 668.365C226.938 669.021 226.006 669.531 224.916 669.895C223.826 670.258 222.625 670.439 221.312 670.439C218.91 670.439 217 669.982 215.582 669.068V665.975C217.281 667.311 219.227 667.979 221.418 667.979C222.297 667.979 223.088 667.867 223.791 667.645C224.506 667.422 225.115 667.1 225.619 666.678C226.135 666.256 226.527 665.746 226.797 665.148C227.078 664.551 227.219 663.877 227.219 663.127C227.219 659.834 224.875 658.188 220.188 658.188H218.096V655.744H220.082C224.23 655.744 226.305 654.197 226.305 651.104C226.305 648.244 224.723 646.814 221.559 646.814C219.777 646.814 218.107 647.412 216.549 648.607V645.812C218.154 644.852 220.064 644.371 222.279 644.371C223.334 644.371 224.289 644.518 225.145 644.811C226 645.104 226.732 645.514 227.342 646.041C227.951 646.568 228.42 647.201 228.748 647.939C229.088 648.678 229.258 649.492 229.258 650.383C229.258 653.699 227.582 655.832 224.23 656.781V656.852C225.086 656.945 225.877 657.156 226.604 657.484C227.33 657.801 227.957 658.217 228.484 658.732C229.012 659.248 229.422 659.857 229.715 660.561C230.02 661.252 230.172 662.02 230.172 662.863Z" fill="#2BAB94"/>
</g>
</g>
<g id="Content-2">
<path id="Path 30356" style="mix-blend-mode:multiply" d="M280.217 391.85L263.417 375.079L263.405 375.091C261.811 373.345 259.877 371.943 257.722 370.972C255.567 370 253.236 369.479 250.872 369.44C248.508 369.402 246.162 369.847 243.976 370.748C241.79 371.649 239.812 372.987 238.162 374.68C236.512 376.373 235.225 378.385 234.381 380.593C233.536 382.802 233.152 385.159 233.252 387.521C233.351 389.883 233.932 392.2 234.959 394.329C235.986 396.459 237.437 398.356 239.224 399.904L254.842 415.521C256.369 417.287 258.237 418.727 260.334 419.754C262.431 420.782 264.713 421.376 267.045 421.5C269.376 421.625 271.709 421.279 273.903 420.481C276.098 419.684 278.109 418.452 279.816 416.859C281.523 415.266 282.892 413.345 283.84 411.211C284.787 409.078 285.295 406.774 285.332 404.44C285.369 402.105 284.935 399.787 284.055 397.624C283.176 395.461 281.869 393.498 280.213 391.852L280.217 391.85Z" fill="url(#paint19_radial_151_2)"/>
<path id="Rectangle 2801" d="M250.604 382.632H147.774V390.97H250.604V382.632Z" fill="#FF3C7D"/>
<path id="Path 30357" d="M250.605 404.17C247.169 404.17 243.811 403.151 240.955 401.242C238.098 399.334 235.872 396.621 234.557 393.447C233.242 390.273 232.898 386.78 233.569 383.411C234.239 380.041 235.893 376.946 238.323 374.517C240.752 372.088 243.847 370.434 247.217 369.764C250.586 369.093 254.079 369.438 257.253 370.752C260.427 372.067 263.139 374.294 265.048 377.15C266.957 380.007 267.975 383.365 267.975 386.801C267.975 389.082 267.526 391.341 266.653 393.448C265.78 395.555 264.5 397.47 262.887 399.083C261.274 400.696 259.359 401.975 257.252 402.848C255.145 403.721 252.886 404.17 250.605 404.17Z" fill="#FF3C7D"/>
<path id="Path 30383" d="M194.803 380.911C194.836 356.818 186.019 333.552 170.026 315.533C152.179 296.849 127.715 285.913 101.892 285.073C76.0678 284.233 50.9451 293.557 31.9222 311.041C12.8992 328.525 1.49437 352.775 0.158451 378.577C-1.17747 404.38 7.66217 429.678 24.7778 449.033C38.3863 463.288 55.9522 473.141 75.2117 477.322C94.4711 481.503 114.541 479.82 132.836 472.49C151.13 465.161 166.81 452.52 177.854 436.198C188.899 419.875 194.802 400.619 194.803 380.911Z" fill="url(#paint20_radial_151_2)"/>
<path id="Path 30384" d="M41.9448 433.256L87.9158 479.224C90.6272 479.449 93.3685 479.563 96.1398 479.566C122.306 479.566 147.401 469.172 165.903 450.669C184.406 432.167 194.801 407.072 194.801 380.906C194.801 379.342 194.764 377.787 194.691 376.24L161.223 342.772L41.9448 433.256Z" fill="url(#paint21_radial_151_2)"/>
<g id="Group 25527">
<g id="Group 25525">
<g id="Group 25524">
<g id="Group 25523">
<path id="Path 30385" d="M171.678 381.339C171.678 396.24 167.259 410.806 158.981 423.195C150.703 435.585 138.936 445.241 125.17 450.943C111.404 456.645 96.2555 458.137 81.6411 455.23C67.0268 452.323 53.6027 445.148 43.0663 434.612C32.53 424.075 25.3546 410.651 22.4477 396.037C19.5407 381.423 21.0326 366.274 26.7349 352.508C32.4371 338.742 42.0935 326.975 54.4829 318.697C66.8724 310.419 81.4384 306 96.339 306C106.233 306 116.03 307.948 125.17 311.734C134.311 315.52 142.616 321.07 149.612 328.066C156.608 335.062 162.158 343.367 165.944 352.508C169.73 361.648 171.678 371.445 171.678 381.339Z" fill="white"/>
</g>
</g>
</g>
<path id="Path 30386" d="M171.678 381.339C171.703 362.942 164.97 345.176 152.757 331.417C139.129 317.151 120.449 308.8 100.73 308.159C81.011 307.518 61.8276 314.638 47.3019 327.989C32.7762 341.34 24.0675 359.857 23.0472 379.559C22.0269 399.262 28.7763 418.579 41.8452 433.359C52.237 444.244 65.6507 451.768 80.3574 454.961C95.0642 458.153 110.39 456.868 124.36 451.271C138.329 445.673 150.303 436.021 158.736 423.557C167.17 411.093 171.678 396.388 171.678 381.339Z" fill="url(#paint22_radial_151_2)"/>
<g id="Group 25526">
<path id="Path 30387" d="M164.056 348.293C171.614 365.291 172.616 384.483 166.871 402.176C161.125 419.869 149.038 434.811 132.936 444.125C116.834 453.439 97.8548 456.468 79.6534 452.627C61.4519 448.787 45.3146 438.349 34.3481 423.323C36.5659 426.87 39.0746 430.227 41.8481 433.359C54.2643 446.355 70.9173 454.485 88.8014 456.281C106.685 458.076 124.622 453.419 139.374 443.151C154.126 432.882 164.722 417.679 169.248 400.284C173.774 382.889 171.932 364.449 164.056 348.293Z" fill="#D8D9DD"/>
</g>
</g>
<g id="Group 25534">
<path id="Figma" d="M78.0503 403.012H72.5815V407.856H77.6401V409.331H72.5815V415.532H70.9409V401.528H78.0503V403.012ZM81.312 402.993C81.0256 402.993 80.7814 402.895 80.5796 402.7C80.3778 402.505 80.2769 402.257 80.2769 401.958C80.2769 401.658 80.3778 401.411 80.5796 401.216C80.7814 401.014 81.0256 400.913 81.312 400.913C81.605 400.913 81.8524 401.014 82.0542 401.216C82.2625 401.411 82.3667 401.658 82.3667 401.958C82.3667 402.244 82.2625 402.488 82.0542 402.69C81.8524 402.892 81.605 402.993 81.312 402.993ZM82.0933 415.532H80.4917V405.532H82.0933V415.532ZM93.8706 414.731C93.8706 418.403 92.1128 420.239 88.5972 420.239C87.3602 420.239 86.2795 420.005 85.355 419.536V417.934C86.4813 418.559 87.5555 418.872 88.5776 418.872C91.0386 418.872 92.269 417.563 92.269 414.946V413.852H92.23C91.4683 415.128 90.3224 415.766 88.7925 415.766C87.549 415.766 86.5464 415.324 85.7847 414.438C85.0295 413.546 84.6519 412.352 84.6519 410.854C84.6519 409.155 85.0588 407.804 85.8726 406.802C86.6929 405.799 87.8127 405.298 89.2319 405.298C90.5796 405.298 91.5789 405.838 92.23 406.919H92.269V405.532H93.8706V414.731ZM92.269 411.01V409.536C92.269 408.742 91.9989 408.061 91.4585 407.495C90.9246 406.928 90.2573 406.645 89.4565 406.645C88.467 406.645 87.6922 407.007 87.1323 407.729C86.5724 408.445 86.2925 409.451 86.2925 410.747C86.2925 411.86 86.5594 412.752 87.0933 413.423C87.6336 414.087 88.3465 414.419 89.2319 414.419C90.1304 414.419 90.8595 414.1 91.4194 413.462C91.9858 412.824 92.269 412.007 92.269 411.01ZM111.312 415.532H109.71V409.79C109.71 408.683 109.538 407.882 109.193 407.387C108.854 406.893 108.281 406.645 107.474 406.645C106.791 406.645 106.208 406.958 105.726 407.583C105.251 408.208 105.013 408.956 105.013 409.829V415.532H103.412V409.594C103.412 407.628 102.653 406.645 101.136 406.645C100.433 406.645 99.8537 406.941 99.3979 407.534C98.9422 408.12 98.7144 408.885 98.7144 409.829V415.532H97.1128V405.532H98.7144V407.114H98.7534C99.4631 405.903 100.498 405.298 101.859 405.298C102.542 405.298 103.138 405.49 103.646 405.874C104.154 406.251 104.502 406.749 104.691 407.368C105.433 405.988 106.54 405.298 108.011 405.298C110.212 405.298 111.312 406.655 111.312 409.37V415.532ZM121.498 415.532H119.896V413.969H119.857C119.16 415.167 118.135 415.766 116.781 415.766C115.785 415.766 115.003 415.503 114.437 414.975C113.877 414.448 113.597 413.748 113.597 412.876C113.597 411.007 114.697 409.92 116.898 409.614L119.896 409.194C119.896 407.495 119.209 406.645 117.835 406.645C116.631 406.645 115.544 407.055 114.574 407.876V406.235C115.557 405.61 116.69 405.298 117.972 405.298C120.322 405.298 121.498 406.541 121.498 409.028V415.532ZM119.896 410.473L117.484 410.805C116.742 410.91 116.182 411.095 115.804 411.362C115.427 411.622 115.238 412.088 115.238 412.759C115.238 413.247 115.41 413.647 115.755 413.96C116.107 414.266 116.572 414.419 117.152 414.419C117.946 414.419 118.6 414.142 119.115 413.589C119.636 413.029 119.896 412.322 119.896 411.469V410.473Z" fill="#313030"/>
<path id="02" d="M93.9438 373.292C93.9438 375.401 93.7505 377.271 93.3638 378.899C92.9888 380.528 92.438 381.905 91.7114 383.03C90.9966 384.144 90.1118 384.993 89.0571 385.579C88.0142 386.153 86.8247 386.44 85.4888 386.44C84.2231 386.44 83.0923 386.165 82.0962 385.614C81.1118 385.052 80.2798 384.237 79.6001 383.171C78.9204 382.104 78.4048 380.798 78.0532 379.251C77.7017 377.692 77.5259 375.911 77.5259 373.907C77.5259 371.704 77.7075 369.759 78.0708 368.071C78.4458 366.384 78.9907 364.972 79.7056 363.835C80.4204 362.687 81.3052 361.825 82.3599 361.251C83.4263 360.665 84.645 360.372 86.0161 360.372C91.3013 360.372 93.9438 364.679 93.9438 373.292ZM90.9907 373.573C90.9907 366.401 89.2856 362.815 85.8755 362.815C82.2778 362.815 80.479 366.466 80.479 373.767C80.479 380.575 82.2427 383.979 85.77 383.979C89.2505 383.979 90.9907 380.511 90.9907 373.573ZM108.991 367.403C108.991 366.63 108.868 365.956 108.622 365.382C108.387 364.808 108.059 364.333 107.637 363.958C107.227 363.571 106.741 363.284 106.178 363.097C105.616 362.909 105.006 362.815 104.35 362.815C103.788 362.815 103.237 362.892 102.698 363.044C102.159 363.196 101.631 363.407 101.116 363.677C100.612 363.946 100.12 364.269 99.6392 364.644C99.1704 365.019 98.731 365.435 98.3208 365.892V362.798C99.1294 362.013 100.032 361.415 101.028 361.005C102.036 360.583 103.26 360.372 104.702 360.372C105.733 360.372 106.688 360.524 107.567 360.829C108.446 361.122 109.208 361.556 109.852 362.13C110.497 362.704 111 363.413 111.364 364.257C111.739 365.101 111.926 366.067 111.926 367.157C111.926 368.153 111.809 369.056 111.575 369.864C111.352 370.673 111.006 371.435 110.538 372.149C110.081 372.864 109.5 373.55 108.797 374.206C108.094 374.862 107.268 375.53 106.319 376.21C105.135 377.054 104.157 377.774 103.383 378.372C102.622 378.97 102.012 379.532 101.555 380.06C101.11 380.575 100.793 381.097 100.606 381.624C100.43 382.14 100.342 382.737 100.342 383.417H112.893V386.001H97.3364V384.753C97.3364 383.675 97.4536 382.726 97.688 381.905C97.9224 381.085 98.3091 380.306 98.8481 379.567C99.3872 378.829 100.09 378.091 100.958 377.353C101.836 376.614 102.909 375.782 104.174 374.856C105.088 374.2 105.85 373.573 106.459 372.976C107.081 372.378 107.579 371.78 107.954 371.183C108.329 370.585 108.592 369.981 108.745 369.372C108.909 368.751 108.991 368.095 108.991 367.403Z" fill="#B80044"/>
</g>
</g>
<g id="Content-1">
<path id="Path 30358" d="M313.803 96.912C313.836 72.82 305.019 49.555 289.027 31.536C271.181 12.8525 246.717 1.91567 220.893 1.07576C195.069 0.235842 169.947 9.55989 150.924 27.0442C131.901 44.5285 120.496 68.7776 119.16 94.5805C117.824 120.383 126.664 145.681 143.779 165.036C157.388 179.292 174.954 189.145 194.214 193.326C213.473 197.507 233.544 195.824 251.838 188.493C270.133 181.163 285.812 168.522 296.857 152.199C307.901 135.876 313.803 116.619 313.803 96.911V96.912Z" fill="url(#paint23_radial_151_2)"/>
<path id="Path 30352" style="mix-blend-mode:multiply" opacity="0.6" d="M353.619 211.871L336.819 195.1L336.807 195.112C335.213 193.366 333.279 191.964 331.124 190.992C328.969 190.021 326.638 189.5 324.274 189.461C321.91 189.423 319.563 189.868 317.378 190.769C315.192 191.67 313.213 193.008 311.564 194.701C309.914 196.394 308.627 198.406 307.783 200.614C306.938 202.823 306.554 205.18 306.654 207.542C306.753 209.904 307.334 212.221 308.361 214.35C309.388 216.48 310.839 218.377 312.626 219.925L328.244 235.542C329.771 237.309 331.639 238.75 333.736 239.779C335.833 240.807 338.116 241.402 340.448 241.527C342.781 241.653 345.114 241.306 347.31 240.509C349.505 239.711 351.517 238.479 353.224 236.886C354.932 235.292 356.301 233.371 357.249 231.236C358.197 229.102 358.704 226.798 358.741 224.462C358.777 222.127 358.342 219.808 357.462 217.645C356.581 215.481 355.273 213.518 353.616 211.872L353.619 211.871Z" fill="url(#paint24_radial_151_2)"/>
<path id="Rectangle 2798" d="M254.243 131.163L248.348 137.057L321.061 209.77L326.955 203.875L254.243 131.163Z" fill="#FFB655"/>
<path id="Path 30353" d="M311.726 219.103C309.297 216.674 307.643 213.579 306.972 210.209C306.302 206.84 306.646 203.347 307.961 200.173C309.276 196.999 311.502 194.287 314.358 192.378C317.215 190.469 320.573 189.451 324.009 189.451C327.444 189.451 330.802 190.469 333.659 192.378C336.515 194.287 338.742 196.999 340.056 200.173C341.371 203.347 341.715 206.84 341.045 210.209C340.375 213.579 338.72 216.674 336.291 219.103C334.679 220.717 332.764 221.997 330.656 222.87C328.549 223.743 326.29 224.193 324.009 224.193C321.727 224.193 319.469 223.743 317.361 222.87C315.254 221.997 313.339 220.717 311.726 219.103Z" fill="#FFB655"/>
<path id="Path 30359" d="M160.582 149.603L206.551 195.576C209.264 195.801 212.006 195.915 214.778 195.918C240.944 195.918 266.039 185.523 284.541 167.021C303.044 148.519 313.438 123.424 313.438 97.258C313.438 95.6933 313.401 94.138 313.328 92.592L279.861 59.125L160.582 149.603Z" fill="#FF9100"/>
<path id="Path 30360" d="M298.484 98.744C298.484 115.109 293.631 131.107 284.539 144.714C275.447 158.321 262.524 168.927 247.405 175.189C232.285 181.452 215.648 183.091 199.598 179.898C183.547 176.705 168.803 168.825 157.231 157.253C145.659 145.681 137.779 130.937 134.586 114.887C131.393 98.8358 133.032 82.1987 139.295 67.0792C145.557 51.9597 156.163 39.0369 169.77 29.9449C183.377 20.8528 199.375 16 215.74 16C237.685 16 258.731 24.7176 274.249 40.2352C289.766 55.7527 298.484 76.7989 298.484 98.744Z" fill="white"/>
<path id="Path 30361" d="M298.488 98.743C298.516 78.5374 291.122 59.0253 277.708 43.914C262.746 28.225 242.223 19.0356 220.554 18.3225C198.886 17.6094 177.803 25.4296 161.841 40.1009C145.88 54.7722 136.314 75.1224 135.202 96.774C134.09 118.426 141.52 139.649 155.895 155.878C167.308 167.834 182.04 176.098 198.193 179.604C214.345 183.111 231.178 181.699 246.521 175.552C261.864 169.404 275.014 158.802 284.276 145.113C293.539 131.423 298.489 115.273 298.488 98.744V98.743Z" fill="url(#paint25_radial_151_2)"/>
<path id="Path 30362" d="M290.121 62.454C298.419 81.1226 299.518 102.201 293.207 121.631C286.895 141.062 273.62 157.471 255.935 167.7C238.25 177.929 217.407 181.254 197.417 177.036C177.428 172.819 159.705 161.356 147.66 144.854C150.095 148.75 152.849 152.437 155.895 155.877C169.531 170.152 187.821 179.082 207.463 181.055C227.106 183.028 246.806 177.915 263.009 166.637C279.212 155.36 290.85 138.662 295.821 119.557C300.793 100.452 298.771 80.199 290.121 62.454Z" fill="#D8D9DD"/>
<path id="User Experience (UX)" d="M158.505 115.08C158.505 119.012 156.731 120.978 153.183 120.978C149.785 120.978 148.085 119.087 148.085 115.305V106.74H149.726V115.197C149.726 118.068 150.937 119.504 153.359 119.504C155.696 119.504 156.865 118.117 156.865 115.344V106.74H158.505V115.08ZM161.191 120.383V118.664C162.063 119.308 163.024 119.631 164.072 119.631C165.478 119.631 166.181 119.162 166.181 118.224C166.181 117.958 166.119 117.733 165.996 117.551C165.878 117.362 165.716 117.196 165.507 117.053C165.306 116.909 165.065 116.782 164.785 116.672C164.511 116.555 164.215 116.434 163.896 116.31C163.453 116.135 163.063 115.959 162.724 115.783C162.392 115.601 162.112 115.399 161.884 115.178C161.663 114.95 161.494 114.693 161.377 114.406C161.266 114.12 161.21 113.784 161.21 113.4C161.21 112.932 161.318 112.518 161.533 112.16C161.748 111.795 162.034 111.493 162.392 111.252C162.75 111.004 163.157 110.819 163.613 110.695C164.075 110.571 164.55 110.51 165.039 110.51C165.905 110.51 166.679 110.659 167.363 110.959V112.58C166.627 112.098 165.781 111.857 164.824 111.857C164.524 111.857 164.254 111.893 164.013 111.965C163.772 112.03 163.564 112.124 163.388 112.248C163.219 112.372 163.085 112.521 162.988 112.697C162.897 112.866 162.851 113.055 162.851 113.264C162.851 113.524 162.897 113.742 162.988 113.918C163.085 114.094 163.225 114.25 163.408 114.387C163.59 114.523 163.811 114.647 164.072 114.758C164.332 114.868 164.628 114.989 164.96 115.119C165.403 115.288 165.8 115.464 166.152 115.646C166.503 115.822 166.803 116.024 167.05 116.252C167.298 116.473 167.487 116.73 167.617 117.023C167.753 117.316 167.822 117.665 167.822 118.068C167.822 118.563 167.711 118.993 167.49 119.357C167.275 119.722 166.985 120.025 166.621 120.266C166.256 120.506 165.836 120.685 165.361 120.803C164.886 120.92 164.388 120.978 163.867 120.978C162.838 120.978 161.946 120.78 161.191 120.383ZM178.33 116.144H171.269C171.295 117.258 171.595 118.117 172.168 118.723C172.74 119.328 173.528 119.631 174.531 119.631C175.657 119.631 176.692 119.26 177.636 118.517V120.021C176.757 120.659 175.595 120.978 174.15 120.978C172.737 120.978 171.627 120.526 170.82 119.621C170.013 118.71 169.609 117.43 169.609 115.783C169.609 114.227 170.048 112.961 170.927 111.984C171.813 111.001 172.91 110.51 174.218 110.51C175.527 110.51 176.539 110.933 177.255 111.779C177.972 112.626 178.33 113.801 178.33 115.305V116.144ZM176.689 114.787C176.683 113.863 176.458 113.143 176.015 112.629C175.579 112.114 174.97 111.857 174.189 111.857C173.434 111.857 172.793 112.127 172.265 112.668C171.738 113.208 171.412 113.915 171.289 114.787H176.689ZM185.976 112.365C185.696 112.15 185.293 112.043 184.765 112.043C184.082 112.043 183.509 112.365 183.046 113.01C182.591 113.654 182.363 114.533 182.363 115.646V120.744H180.761V110.744H182.363V112.805H182.402C182.63 112.101 182.978 111.555 183.447 111.164C183.916 110.767 184.44 110.568 185.019 110.568C185.436 110.568 185.755 110.614 185.976 110.705V112.365ZM200.839 120.744H193.418V106.74H200.527V108.224H195.058V112.883H200.117V114.357H195.058V119.26H200.839V120.744ZM210.625 110.744L207.265 115.803L210.566 120.744H208.701L206.738 117.502C206.614 117.3 206.468 117.046 206.298 116.74H206.259C206.227 116.799 206.074 117.053 205.8 117.502L203.798 120.744H201.953L205.361 115.842L202.099 110.744H203.964L205.898 114.162C206.041 114.416 206.181 114.676 206.318 114.943H206.357L208.857 110.744H210.625ZM214.14 119.299H214.101V125.344H212.5V110.744H214.101V112.502H214.14C214.928 111.174 216.08 110.51 217.597 110.51C218.886 110.51 219.892 110.959 220.615 111.857C221.337 112.749 221.699 113.947 221.699 115.451C221.699 117.124 221.292 118.465 220.478 119.474C219.664 120.477 218.551 120.978 217.138 120.978C215.843 120.978 214.843 120.418 214.14 119.299ZM214.101 115.266V116.662C214.101 117.489 214.368 118.192 214.902 118.771C215.442 119.344 216.126 119.631 216.953 119.631C217.923 119.631 218.681 119.26 219.228 118.517C219.781 117.775 220.058 116.743 220.058 115.422C220.058 114.308 219.801 113.436 219.287 112.805C218.772 112.173 218.076 111.857 217.197 111.857C216.266 111.857 215.517 112.183 214.951 112.834C214.384 113.478 214.101 114.289 214.101 115.266ZM232.294 116.144H225.234C225.26 117.258 225.559 118.117 226.132 118.723C226.705 119.328 227.493 119.631 228.496 119.631C229.622 119.631 230.657 119.26 231.601 118.517V120.021C230.722 120.659 229.56 120.978 228.115 120.978C226.702 120.978 225.592 120.526 224.785 119.621C223.977 118.71 223.574 117.43 223.574 115.783C223.574 114.227 224.013 112.961 224.892 111.984C225.778 111.001 226.875 110.51 228.183 110.51C229.492 110.51 230.504 110.933 231.22 111.779C231.936 112.626 232.294 113.801 232.294 115.305V116.144ZM230.654 114.787C230.647 113.863 230.423 113.143 229.98 112.629C229.544 112.114 228.935 111.857 228.154 111.857C227.399 111.857 226.757 112.127 226.23 112.668C225.703 113.208 225.377 113.915 225.253 114.787H230.654ZM239.941 112.365C239.661 112.15 239.257 112.043 238.73 112.043C238.046 112.043 237.474 112.365 237.011 113.01C236.556 113.654 236.328 114.533 236.328 115.646V120.744H234.726V110.744H236.328V112.805H236.367C236.595 112.101 236.943 111.555 237.412 111.164C237.88 110.767 238.405 110.568 238.984 110.568C239.401 110.568 239.72 110.614 239.941 110.705V112.365ZM242.5 108.205C242.213 108.205 241.969 108.107 241.767 107.912C241.565 107.717 241.464 107.469 241.464 107.17C241.464 106.87 241.565 106.623 241.767 106.428C241.969 106.226 242.213 106.125 242.5 106.125C242.793 106.125 243.04 106.226 243.242 106.428C243.45 106.623 243.554 106.87 243.554 107.17C243.554 107.456 243.45 107.7 243.242 107.902C243.04 108.104 242.793 108.205 242.5 108.205ZM243.281 120.744H241.679V110.744H243.281V120.744ZM254.56 116.144H247.5C247.526 117.258 247.825 118.117 248.398 118.723C248.971 119.328 249.759 119.631 250.761 119.631C251.888 119.631 252.923 119.26 253.867 118.517V120.021C252.988 120.659 251.826 120.978 250.38 120.978C248.968 120.978 247.858 120.526 247.05 119.621C246.243 118.71 245.839 117.43 245.839 115.783C245.839 114.227 246.279 112.961 247.158 111.984C248.043 111.001 249.14 110.51 250.449 110.51C251.757 110.51 252.77 110.933 253.486 111.779C254.202 112.626 254.56 113.801 254.56 115.305V116.144ZM252.919 114.787C252.913 113.863 252.688 113.143 252.246 112.629C251.809 112.114 251.201 111.857 250.419 111.857C249.664 111.857 249.023 112.127 248.496 112.668C247.968 113.208 247.643 113.915 247.519 114.787H252.919ZM265.293 120.744H263.691V115.041C263.691 112.918 262.916 111.857 261.367 111.857C260.566 111.857 259.902 112.16 259.375 112.766C258.854 113.364 258.593 114.123 258.593 115.041V120.744H256.992V110.744H258.593V112.404H258.632C259.388 111.141 260.481 110.51 261.914 110.51C263.007 110.51 263.844 110.864 264.423 111.574C265.003 112.277 265.293 113.296 265.293 114.631V120.744ZM275.136 120.285C274.368 120.747 273.457 120.978 272.402 120.978C270.976 120.978 269.824 120.516 268.945 119.592C268.072 118.661 267.636 117.456 267.636 115.978C267.636 114.331 268.108 113.01 269.052 112.014C269.996 111.011 271.256 110.51 272.832 110.51C273.71 110.51 274.485 110.672 275.156 110.998V112.639C274.414 112.118 273.619 111.857 272.773 111.857C271.751 111.857 270.911 112.225 270.253 112.961C269.602 113.69 269.277 114.65 269.277 115.842C269.277 117.014 269.583 117.938 270.195 118.615C270.813 119.292 271.64 119.631 272.675 119.631C273.548 119.631 274.368 119.341 275.136 118.762V120.285ZM285.595 116.144H278.535C278.561 117.258 278.86 118.117 279.433 118.723C280.006 119.328 280.794 119.631 281.796 119.631C282.923 119.631 283.958 119.26 284.902 118.517V120.021C284.023 120.659 282.861 120.978 281.416 120.978C280.003 120.978 278.893 120.526 278.085 119.621C277.278 118.71 276.875 117.43 276.875 115.783C276.875 114.227 277.314 112.961 278.193 111.984C279.078 111.001 280.175 110.51 281.484 110.51C282.793 110.51 283.805 110.933 284.521 111.779C285.237 112.626 285.595 113.801 285.595 115.305V116.144ZM283.955 114.787C283.948 113.863 283.724 113.143 283.281 112.629C282.845 112.114 282.236 111.857 281.455 111.857C280.699 111.857 280.058 112.127 279.531 112.668C279.003 113.208 278.678 113.915 278.554 114.787H283.955ZM203.427 150.928H202.002C199.983 148.623 198.974 145.781 198.974 142.402C198.974 139.01 199.983 136.123 202.002 133.74H203.447C201.403 136.214 200.38 139.095 200.38 142.383C200.38 145.644 201.396 148.493 203.427 150.928ZM215.722 142.08C215.722 146.012 213.948 147.978 210.4 147.978C207.002 147.978 205.302 146.087 205.302 142.305V133.74H206.943V142.197C206.943 145.068 208.154 146.504 210.576 146.504C212.913 146.504 214.082 145.117 214.082 142.344V133.74H215.722V142.08ZM228.896 147.744H226.894L223.671 142.383C223.574 142.22 223.466 141.989 223.349 141.689H223.31C223.245 141.839 223.134 142.07 222.978 142.383L219.658 147.744H217.646L222.334 140.703L218.017 133.74H220.029L222.89 138.662C223.079 138.988 223.245 139.313 223.388 139.639H223.427C223.636 139.209 223.818 138.87 223.974 138.623L226.953 133.74H228.837L224.433 140.683L228.896 147.744ZM230.849 150.928H229.423C231.455 148.493 232.47 145.644 232.47 142.383C232.47 139.095 231.448 136.214 229.404 133.74H230.849C232.88 136.123 233.896 139.01 233.896 142.402C233.896 145.781 232.88 148.623 230.849 150.928Z" fill="#313030"/>
<path id="01" d="M214.845 76.874C214.845 78.9834 214.652 80.8525 214.265 82.4814C213.89 84.1104 213.339 85.4873 212.613 86.6123C211.898 87.7256 211.013 88.5752 209.958 89.1611C208.916 89.7354 207.726 90.0225 206.39 90.0225C205.125 90.0225 203.994 89.7471 202.998 89.1963C202.013 88.6338 201.181 87.8193 200.501 86.7529C199.822 85.6865 199.306 84.3799 198.955 82.833C198.603 81.2744 198.427 79.4932 198.427 77.4893C198.427 75.2861 198.609 73.3408 198.972 71.6533C199.347 69.9658 199.892 68.5537 200.607 67.417C201.322 66.2686 202.207 65.4072 203.261 64.833C204.328 64.2471 205.546 63.9541 206.917 63.9541C212.203 63.9541 214.845 68.2607 214.845 76.874ZM211.892 77.1553C211.892 69.9834 210.187 66.3975 206.777 66.3975C203.179 66.3975 201.38 70.0479 201.38 77.3486C201.38 84.1572 203.144 87.5615 206.671 87.5615C210.152 87.5615 211.892 84.0928 211.892 77.1553ZM229.048 89.583H226.166V67.8037C225.943 68.0264 225.615 68.2842 225.181 68.5771C224.759 68.8584 224.279 69.1396 223.74 69.4209C223.212 69.7021 222.65 69.9658 222.052 70.2119C221.466 70.458 220.892 70.6514 220.33 70.792V67.874C220.962 67.6982 221.63 67.4639 222.333 67.1709C223.048 66.8662 223.746 66.5322 224.425 66.1689C225.117 65.7939 225.767 65.4072 226.376 65.0088C226.986 64.5986 227.513 64.2002 227.958 63.8135H229.048V89.583Z" fill="#FF9100"/>
</g>
</g>
<defs>
<linearGradient id="paint0_linear_151_2" x1="499.788" y1="181.102" x2="499.788" y2="583.79" gradientUnits="userSpaceOnUse">
<stop stop-color="#6162D8"/>
<stop offset="1" stop-color="#8D92ED"/>
</linearGradient>
<linearGradient id="paint1_linear_151_2" x1="543.2" y1="300.676" x2="543.2" y2="583.785" gradientUnits="userSpaceOnUse">
<stop stop-color="#6162D8"/>
<stop offset="1" stop-color="#8D92ED"/>
</linearGradient>
<radialGradient id="paint2_radial_151_2" cx="0" cy="0" r="1" gradientUnits="userSpaceOnUse" gradientTransform="translate(369.585 234.511) scale(450.531 450.548)">
<stop stop-color="#F7F7F8"/>
<stop offset="0.505" stop-color="#FAFAFB"/>
<stop offset="0.715" stop-color="white"/>
</radialGradient>
<linearGradient id="paint3_linear_151_2" x1="678.24" y1="563.042" x2="544.769" y2="394.47" gradientUnits="userSpaceOnUse">
<stop offset="0.0799956" stop-color="#F14258"/>
<stop offset="0.378886" stop-color="#07A9F0"/>
<stop offset="0.913019" stop-color="#8078BF"/>
</linearGradient>
<linearGradient id="paint4_linear_151_2" x1="292.128" y1="586.393" x2="127.495" y2="424.638" gradientUnits="userSpaceOnUse">
<stop offset="0.0994761" stop-color="#A1FFBC"/>
<stop offset="0.785451" stop-color="#FF3C7D"/>
<stop offset="1" stop-color="#FFB655"/>
</linearGradient>
<radialGradient id="paint5_radial_151_2" cx="0" cy="0" r="1" gradientUnits="userSpaceOnUse" gradientTransform="translate(679.009 206.444) scale(35.4353 35.4285)">
<stop stop-color="#464646"/>
<stop offset="0.324" stop-color="#787878" stop-opacity="0.729"/>
<stop offset="0.978" stop-color="#FAFAFA" stop-opacity="0.024"/>
<stop offset="1" stop-color="white" stop-opacity="0"/>
</radialGradient>
<radialGradient id="paint6_radial_151_2" cx="0" cy="0" r="1" gradientUnits="userSpaceOnUse" gradientTransform="translate(700.83 3.71995) scale(285.352 285.012)">
<stop offset="0.038" stop-color="#2B3894"/>
<stop offset="0.054" stop-color="#353C95"/>
<stop offset="0.081" stop-color="#51489A"/>
<stop offset="0.554" stop-color="#8078BF"/>
<stop offset="1" stop-color="#D2A8D1"/>
</radialGradient>
<radialGradient id="paint7_radial_151_2" cx="0" cy="0" r="1" gradientUnits="userSpaceOnUse" gradientTransform="translate(716.716 89.2618) scale(118.204 118.189)">
<stop stop-color="#2B3894"/>
<stop offset="0.289" stop-color="#2D3994" stop-opacity="0.984"/>
<stop offset="0.451" stop-color="#363F98" stop-opacity="0.929"/>
<stop offset="0.581" stop-color="#464A9E" stop-opacity="0.835"/>
<stop offset="0.694" stop-color="#5C59A6" stop-opacity="0.702"/>
<stop offset="0.796" stop-color="#796CB0" stop-opacity="0.533"/>
<stop offset="0.89" stop-color="#9C84BD" stop-opacity="0.322"/>
<stop offset="0.977" stop-color="#C59FCC" stop-opacity="0.075"/>
<stop offset="1" stop-color="#D2A8D1" stop-opacity="0"/>
</radialGradient>
<radialGradient id="paint8_radial_151_2" cx="0" cy="0" r="1" gradientUnits="userSpaceOnUse" gradientTransform="translate(713.399 17.9419) scale(242.727 242.728)">
<stop stop-color="#F7F7F8"/>
<stop offset="0.505" stop-color="#FAFAFB"/>
<stop offset="0.715" stop-color="white"/>
</radialGradient>
<radialGradient id="paint9_radial_151_2" cx="0" cy="0" r="1" gradientUnits="userSpaceOnUse" gradientTransform="translate(752.85 388.115) scale(35.4525 35.4417)">
<stop stop-color="#464646"/>
<stop offset="0.324" stop-color="#787878" stop-opacity="0.729"/>
<stop offset="0.978" stop-color="#FAFAFA" stop-opacity="0.024"/>
<stop offset="1" stop-color="white" stop-opacity="0"/>
</radialGradient>
<radialGradient id="paint10_radial_151_2" cx="0" cy="0" r="1" gradientUnits="userSpaceOnUse" gradientTransform="translate(817.254 285.998) scale(289.075)">
<stop offset="0.038" stop-color="#0956C6"/>
<stop offset="0.554" stop-color="#07A9F0"/>
<stop offset="1" stop-color="#93DCFC"/>
</radialGradient>
<radialGradient id="paint11_radial_151_2" cx="0" cy="0" r="1" gradientUnits="userSpaceOnUse" gradientTransform="translate(825.824 373.965) scale(118.201 118.186)">
<stop stop-color="#0956C6"/>
<stop offset="0.265" stop-color="#0A57C6" stop-opacity="0.988"/>
<stop offset="0.413" stop-color="#105DC8" stop-opacity="0.949"/>
<stop offset="0.532" stop-color="#1966CC" stop-opacity="0.878"/>
<stop offset="0.636" stop-color="#2773D1" stop-opacity="0.776"/>
<stop offset="0.729" stop-color="#3984D8" stop-opacity="0.651"/>
<stop offset="0.816" stop-color="#4F9AE1" stop-opacity="0.49"/>
<stop offset="0.897" stop-color="#69B3EB" stop-opacity="0.302"/>
<stop offset="0.971" stop-color="#86CFF7" stop-opacity="0.09"/>
<stop offset="1" stop-color="#93DCFC" stop-opacity="0"/>
</radialGradient>
<radialGradient id="paint12_radial_151_2" cx="0" cy="0" r="1" gradientUnits="userSpaceOnUse" gradientTransform="translate(837.456 308.867) scale(220.732)">
<stop stop-color="#F7F7F8"/>
<stop offset="0.505" stop-color="#FAFAFB"/>
<stop offset="0.715" stop-color="white"/>
</radialGradient>
<radialGradient id="paint13_radial_151_2" cx="0" cy="0" r="1" gradientUnits="userSpaceOnUse" gradientTransform="translate(679.274 559.86) scale(35.4369 35.4303)">
<stop stop-color="#464646"/>
<stop offset="0.324" stop-color="#787878" stop-opacity="0.729"/>
<stop offset="0.978" stop-color="#FAFAFA" stop-opacity="0.024"/>
<stop offset="1" stop-color="white" stop-opacity="0"/>
</radialGradient>
<radialGradient id="paint14_radial_151_2" cx="0" cy="0" r="1" gradientUnits="userSpaceOnUse" gradientTransform="translate(720.453 593.864) scale(220.738)">
<stop stop-color="#F7F7F8"/>
<stop offset="0.505" stop-color="#FAFAFB"/>
<stop offset="0.715" stop-color="white"/>
</radialGradient>
<radialGradient id="paint15_radial_151_2" cx="0" cy="0" r="1" gradientUnits="userSpaceOnUse" gradientTransform="translate(132.485 572.967) scale(285.383 285.049)">
<stop offset="0.038" stop-color="#199A8E"/>
<stop offset="0.554" stop-color="#7AF4AB"/>
<stop offset="1" stop-color="#F1FF8D"/>
</radialGradient>
<radialGradient id="paint16_radial_151_2" cx="0" cy="0" r="1" gradientUnits="userSpaceOnUse" gradientTransform="translate(192.678 658.239) scale(118.204 118.189)">
<stop stop-color="#199A8E"/>
<stop offset="0.286" stop-color="#1B9B8E" stop-opacity="0.984"/>
<stop offset="0.445" stop-color="#22A091" stop-opacity="0.933"/>
<stop offset="0.574" stop-color="#2EA995" stop-opacity="0.843"/>
<stop offset="0.686" stop-color="#3FB69B" stop-opacity="0.714"/>
<stop offset="0.787" stop-color="#56C7A2" stop-opacity="0.549"/>
<stop offset="0.88" stop-color="#71DBAC" stop-opacity="0.345"/>
<stop offset="0.965" stop-color="#91F3B6" stop-opacity="0.11"/>
<stop offset="1" stop-color="#A1FFBC" stop-opacity="0"/>
</radialGradient>
<radialGradient id="paint17_radial_151_2" cx="0" cy="0" r="1" gradientUnits="userSpaceOnUse" gradientTransform="translate(150.452 592.859) scale(220.744)">
<stop stop-color="#F7F7F8"/>
<stop offset="0.505" stop-color="#FAFAFB"/>
<stop offset="0.715" stop-color="white"/>
</radialGradient>
<radialGradient id="paint18_radial_151_2" cx="0" cy="0" r="1" gradientUnits="userSpaceOnUse" gradientTransform="translate(326.866 560.237) scale(35.4434 35.4336)">
<stop stop-color="#464646"/>
<stop offset="0.324" stop-color="#787878" stop-opacity="0.729"/>
<stop offset="0.978" stop-color="#FAFAFA" stop-opacity="0.024"/>
<stop offset="1" stop-color="white" stop-opacity="0"/>
</radialGradient>
<radialGradient id="paint19_radial_151_2" cx="0" cy="0" r="1" gradientUnits="userSpaceOnUse" gradientTransform="translate(253.919 388.137) scale(35.4266 35.4195)">
<stop stop-color="#464646"/>
<stop offset="0.324" stop-color="#787878" stop-opacity="0.729"/>
<stop offset="0.978" stop-color="#FAFAFA" stop-opacity="0.024"/>
<stop offset="1" stop-color="white" stop-opacity="0"/>
</radialGradient>
<radialGradient id="paint20_radial_151_2" cx="0" cy="0" r="1" gradientUnits="userSpaceOnUse" gradientTransform="translate(14.8304 288.717) scale(285.348 285.012)">
<stop offset="0.038" stop-color="#B40042"/>
<stop offset="0.489" stop-color="#C50048"/>
<stop offset="1" stop-color="#FF5E93"/>
</radialGradient>
<radialGradient id="paint21_radial_151_2" cx="0" cy="0" r="1" gradientUnits="userSpaceOnUse" gradientTransform="translate(84.2447 373.961) scale(118.2 118.19)">
<stop stop-color="#920035"/>
<stop offset="0.291" stop-color="#930136" stop-opacity="0.984"/>
<stop offset="0.453" stop-color="#99063B" stop-opacity="0.929"/>
<stop offset="0.583" stop-color="#A40F44" stop-opacity="0.835"/>
<stop offset="0.697" stop-color="#B21C51" stop-opacity="0.698"/>
<stop offset="0.799" stop-color="#C52C61" stop-opacity="0.525"/>
<stop offset="0.894" stop-color="#DD4075" stop-opacity="0.31"/>
<stop offset="0.981" stop-color="#F8588D" stop-opacity="0.063"/>
<stop offset="1" stop-color="#FF5E93" stop-opacity="0"/>
</radialGradient>
<radialGradient id="paint22_radial_151_2" cx="0" cy="0" r="1" gradientUnits="userSpaceOnUse" gradientTransform="translate(34.2509 310.942) scale(217.892 217.634)">
<stop stop-color="#F7F7F8"/>
<stop offset="0.505" stop-color="#FAFAFB"/>
<stop offset="0.715" stop-color="white"/>
</radialGradient>
<radialGradient id="paint23_radial_151_2" cx="0" cy="0" r="1" gradientUnits="userSpaceOnUse" gradientTransform="translate(133.832 4.71996) scale(285.346 285.012)">
<stop offset="0.038" stop-color="#FF9100"/>
<stop offset="0.57" stop-color="#FFB655"/>
<stop offset="1" stop-color="#FFF04A"/>
</radialGradient>
<radialGradient id="paint24_radial_151_2" cx="0" cy="0" r="1" gradientUnits="userSpaceOnUse" gradientTransform="translate(327.324 208.16) scale(35.4312 35.4237)">
<stop stop-color="#464646"/>
<stop offset="0.324" stop-color="#787878" stop-opacity="0.729"/>
<stop offset="0.978" stop-color="#FAFAFA" stop-opacity="0.024"/>
<stop offset="1" stop-color="white" stop-opacity="0"/>
</radialGradient>
<radialGradient id="paint25_radial_151_2" cx="0" cy="0" r="1" gradientUnits="userSpaceOnUse" gradientTransform="translate(147.512 21.3787) scale(239.375 239.103)">
<stop stop-color="#F7F7F8"/>
<stop offset="0.505" stop-color="#FAFAFB"/>
<stop offset="0.715" stop-color="white"/>
</radialGradient>
<clipPath id="clip0_151_2">
<rect width="999.579" height="764.892" fill="white"/>
</clipPath>
</defs>
</svg>