<svg xmlns="http://www.w3.org/2000/svg" width="210" height="1419" viewBox="0 0 210 1419" fill="none">
<g id="Group 25545">
<g id="Group 25544">
<path id="Path 30341" d="M206.221 103.002C206.221 82.7966 200.229 63.0446 189.003 46.2442C177.778 29.4438 161.822 16.3494 143.154 8.61698C124.487 0.884547 103.946 -1.13867 84.1281 2.80319C64.3106 6.74506 46.1071 16.475 31.8194 30.7625C17.5318 45.05 7.80173 63.2534 3.85967 83.0708C-0.0823873 102.888 1.94061 123.43 9.67286 142.097C17.4051 160.765 30.4993 176.721 47.2996 187.946C64.1 199.172 83.8518 205.164 104.058 205.164C117.488 205.216 130.796 202.608 143.214 197.492C155.632 192.376 166.915 184.853 176.412 175.356C185.909 165.859 193.432 154.577 198.548 142.159C203.664 129.741 206.272 116.433 206.221 103.002V103.002Z" fill="url(#paint0_linear_208_135)"/>
<path id="Path 30342" d="M47.9385 157.206L95.5385 204.806C98.3458 205.038 101.185 205.156 104.055 205.16C117.472 205.161 130.756 202.519 143.151 197.385C155.547 192.252 166.809 184.727 176.296 175.241C185.783 165.754 193.309 154.492 198.443 142.098C203.578 129.703 206.221 116.418 206.221 103.002C206.221 101.384 206.183 99.7729 206.107 98.1703L171.451 63.5153L47.9385 157.206Z" fill="url(#paint1_linear_208_135)"/>
<path id="Path 30343" d="M182.376 103.339C182.375 118.768 177.8 133.851 169.228 146.68C160.656 159.508 148.472 169.507 134.217 175.411C119.962 181.316 104.277 182.86 89.1444 179.85C74.0118 176.84 60.1116 169.41 49.2017 158.5C38.2918 147.589 30.8622 133.689 27.8523 118.556C24.8424 103.424 26.3875 87.7384 32.2922 73.4838C38.1968 59.2293 48.1958 47.0457 61.0248 38.4739C73.8538 29.9021 88.9364 25.3271 104.366 25.3273C114.61 25.3271 124.754 27.3449 134.219 31.2654C143.684 35.1858 152.284 40.9321 159.528 48.1763C166.772 55.4204 172.518 64.0205 176.438 73.4854C180.358 82.9503 182.376 93.0946 182.376 103.339Z" fill="white"/>
<path id="Path 30344" d="M182.376 103.339C182.375 87.9104 177.8 72.8282 169.227 59.9998C160.655 47.1714 148.472 37.1729 134.217 31.2688C119.963 25.3648 104.278 23.8202 89.1453 26.8305C74.013 29.8407 60.1131 37.2706 49.2034 48.1806C38.2937 59.0906 30.8642 72.9906 27.8543 88.123C24.8444 103.255 26.3894 118.941 32.2938 133.195C38.1983 147.449 48.197 159.633 61.0257 168.204C73.8543 176.776 88.9367 181.351 104.366 181.351C114.621 181.391 124.783 179.4 134.266 175.494C143.749 171.587 152.364 165.842 159.616 158.59C166.868 151.338 172.613 142.723 176.519 133.24C180.425 123.757 182.415 113.595 182.376 103.339V103.339Z" fill="url(#paint2_radial_208_135)"/>
<path id="Path 30345" d="M174.488 69.1252C182.313 86.7265 183.35 106.6 177.4 124.921C171.45 143.241 158.933 158.713 142.259 168.357C125.585 178.001 105.933 181.137 87.0858 177.159C68.2386 173.182 51.529 162.373 40.1738 146.813C51.1989 163.119 67.9963 174.637 87.179 179.047C106.362 183.456 126.503 180.428 143.541 170.573C160.579 160.718 173.247 144.769 178.99 125.943C184.733 107.116 183.124 86.8123 174.488 69.1252V69.1252Z" fill="#EDEEF0"/>
<path id="UI/UX" d="M83.0586 106.573C83.0586 112.078 80.4518 114.831 75.2383 114.831C70.2435 114.831 67.7461 112.183 67.7461 106.887V94.8972H71V106.217C71 110.064 72.4948 111.987 75.4844 111.987C78.3646 111.987 79.8047 110.132 79.8047 106.423V94.8972H83.0586V106.573ZM91.002 114.503H87.6523V94.8972H91.002V114.503ZM105.275 94.8972L95.8008 117.757H92.916L102.35 94.8972H105.275ZM122.516 106.573C122.516 112.078 119.909 114.831 114.695 114.831C109.701 114.831 107.203 112.183 107.203 106.887V94.8972H110.457V106.217C110.457 110.064 111.952 111.987 114.941 111.987C117.822 111.987 119.262 110.132 119.262 106.423V94.8972H122.516V106.573ZM141.779 114.503H137.883L133.863 107.311C133.745 107.092 133.613 106.783 133.467 106.382H133.412C133.33 106.582 133.193 106.892 133.002 107.311L128.859 114.503H124.936L131.361 104.645L125.455 94.8972H129.434L132.975 101.514C133.202 101.952 133.408 102.389 133.59 102.827H133.631C133.895 102.253 134.123 101.797 134.314 101.46L137.992 94.8972H141.656L135.613 104.618L141.779 114.503Z" fill="#313030"/>
</g>
<g id="Group 25543">
<path id="Rectangle 2798" d="M102.536 291.731H108.605V216.866H102.536V291.731Z" fill="#FFB655"/>
<path id="Path 30353" d="M118.216 216.866C118.216 219.367 117.475 221.812 116.085 223.892C114.696 225.972 112.721 227.593 110.41 228.55C108.099 229.507 105.556 229.757 103.103 229.269C100.65 228.781 98.3968 227.577 96.6282 225.808C94.8597 224.04 93.6552 221.787 93.1673 219.333C92.6793 216.88 92.9298 214.338 93.887 212.027C94.8441 209.716 96.465 207.741 98.5446 206.352C100.624 204.962 103.069 204.22 105.57 204.22C107.231 204.22 108.876 204.547 110.41 205.182C111.945 205.818 113.339 206.749 114.513 207.923C115.688 209.098 116.619 210.492 117.254 212.026C117.89 213.561 118.217 215.205 118.216 216.866Z" fill="#FFB655"/>
<path id="Path 30358" d="M156.119 377.393C168.54 365.007 175.979 348.49 177.023 330.98C177.468 312.165 170.512 293.927 157.649 280.188C144.786 266.45 127.044 258.309 108.241 257.517C89.4374 256.724 71.074 263.344 57.1009 275.951C43.1277 288.559 34.6612 306.147 33.5224 324.933C33.1895 339.278 37.1603 353.393 44.9231 365.46C52.6859 377.527 63.8849 386.993 77.0766 392.637C90.2683 398.281 104.848 399.845 118.937 397.127C133.025 394.41 145.977 387.534 156.123 377.388L156.119 377.393Z" fill="url(#paint3_radial_208_135)"/>
<path id="Path 30359" d="M50.1163 325.641L50.1142 372.972C51.3955 374.485 52.7487 375.955 54.1737 377.384C67.6441 390.854 85.9138 398.422 104.964 398.422C124.014 398.422 142.283 390.854 155.754 377.384C156.559 376.579 157.342 375.759 158.101 374.923V340.466L50.1163 325.641Z" fill="#FF9100"/>
<path id="Path 30360" d="M147.907 370.126C139.482 378.55 128.748 384.288 117.063 386.612C105.377 388.936 93.2651 387.743 82.2577 383.184C71.2503 378.625 61.8421 370.903 55.2229 360.997C48.6036 351.091 45.0706 339.444 45.0706 327.529C45.0706 315.615 48.6036 303.968 55.2228 294.062C61.8421 284.155 71.2503 276.434 82.2577 271.875C93.2651 267.316 105.377 266.123 117.063 268.447C128.748 270.771 139.482 276.509 147.907 284.933C153.5 290.527 157.938 297.168 160.965 304.477C163.992 311.785 165.551 319.619 165.551 327.529C165.551 335.44 163.992 343.274 160.965 350.582C157.938 357.891 153.5 364.532 147.907 370.126V370.126Z" fill="white"/>
<path id="Path 30361" d="M147.906 370.125C156.33 361.7 162.067 350.967 164.391 339.282C166.715 327.596 165.522 315.484 160.963 304.477C156.404 293.47 148.683 284.062 138.776 277.443C128.87 270.824 117.224 267.291 105.31 267.291C93.3955 267.291 81.749 270.824 71.8428 277.443C61.9366 284.062 54.2156 293.47 49.6562 304.477C45.0968 315.484 43.9037 327.596 46.2279 339.282C48.5521 350.967 54.2891 361.7 62.7135 370.125C68.2915 375.747 74.9272 380.209 82.238 383.254C89.5488 386.299 97.39 387.866 105.31 387.866C113.229 387.866 121.07 386.299 128.381 383.254C135.692 380.209 142.328 375.747 147.906 370.125V370.125Z" fill="url(#paint4_radial_208_135)"/>
<path id="Path 30362" d="M162.28 347.135C156.941 361.017 146.656 372.434 133.404 379.188C120.152 385.942 104.871 387.555 90.5006 383.717C76.1307 379.879 63.6884 370.861 55.5689 358.399C47.4495 345.937 44.2269 330.912 46.5214 316.216C43.6389 331.139 46.5217 346.6 54.5885 359.481C62.6554 372.363 75.3062 381.706 89.9901 385.628C104.674 389.55 120.299 387.759 133.714 380.615C147.13 373.472 157.338 361.507 162.28 347.135Z" fill="#D8D9DD"/>
<path id="User Experience (UX)" d="M66.1072 340.365C66.1072 343.118 64.8654 344.494 62.3817 344.494C60.0028 344.494 58.8133 343.17 58.8133 340.523V334.528H59.9617V340.448C59.9617 342.457 60.8094 343.462 62.5047 343.462C64.1408 343.462 64.9588 342.491 64.9588 340.55V334.528H66.1072V340.365ZM67.9871 344.077V342.874C68.5978 343.325 69.27 343.551 70.0037 343.551C70.9881 343.551 71.4803 343.223 71.4803 342.567C71.4803 342.38 71.437 342.223 71.3504 342.095C71.2684 341.963 71.1544 341.847 71.0086 341.746C70.8673 341.646 70.6987 341.557 70.5028 341.48C70.3114 341.398 70.104 341.313 69.8807 341.227C69.5708 341.104 69.2974 340.981 69.0604 340.858C68.828 340.73 68.632 340.589 68.4725 340.434C68.3175 340.274 68.199 340.094 68.117 339.894C68.0395 339.693 68.0008 339.459 68.0008 339.19C68.0008 338.862 68.076 338.572 68.2264 338.322C68.3768 338.066 68.5773 337.854 68.828 337.686C69.0786 337.513 69.3634 337.383 69.6824 337.296C70.006 337.21 70.3387 337.166 70.6805 337.166C71.2866 337.166 71.8289 337.271 72.3074 337.481V338.615C71.7925 338.278 71.2 338.11 70.5301 338.11C70.3205 338.11 70.1313 338.135 69.9627 338.185C69.7941 338.23 69.6483 338.296 69.5252 338.383C69.4067 338.47 69.3133 338.574 69.2449 338.698C69.1811 338.816 69.1492 338.948 69.1492 339.094C69.1492 339.276 69.1811 339.429 69.2449 339.552C69.3133 339.675 69.4113 339.784 69.5389 339.88C69.6665 339.976 69.8214 340.062 70.0037 340.14C70.186 340.217 70.3934 340.302 70.6258 340.393C70.9357 340.511 71.2137 340.634 71.4598 340.762C71.7059 340.885 71.9155 341.026 72.0887 341.186C72.2619 341.341 72.394 341.521 72.4852 341.726C72.5809 341.931 72.6287 342.175 72.6287 342.457C72.6287 342.804 72.5513 343.104 72.3963 343.36C72.2459 343.615 72.0431 343.827 71.7879 343.995C71.5327 344.164 71.2388 344.289 70.9061 344.371C70.5734 344.453 70.2248 344.494 69.8602 344.494C69.1401 344.494 68.5158 344.355 67.9871 344.077ZM79.9842 341.111H75.0418C75.06 341.89 75.2697 342.491 75.6707 342.915C76.0718 343.339 76.6232 343.551 77.325 343.551C78.1134 343.551 78.838 343.291 79.4989 342.772V343.824C78.8836 344.271 78.0701 344.494 77.0584 344.494C76.0695 344.494 75.2925 344.178 74.7274 343.544C74.1623 342.906 73.8797 342.011 73.8797 340.858C73.8797 339.768 74.1873 338.882 74.8026 338.198C75.4224 337.51 76.1903 337.166 77.1063 337.166C78.0223 337.166 78.7309 337.462 79.2322 338.055C79.7336 338.647 79.9842 339.47 79.9842 340.523V341.111ZM78.8358 340.16C78.8312 339.513 78.674 339.01 78.3641 338.65C78.0587 338.29 77.6326 338.11 77.0858 338.11C76.5571 338.11 76.1082 338.299 75.7391 338.677C75.3699 339.055 75.1421 339.55 75.0555 340.16H78.8358ZM85.3367 338.465C85.1408 338.315 84.8582 338.24 84.4891 338.24C84.0106 338.24 83.6095 338.465 83.286 338.916C82.9669 339.367 82.8074 339.983 82.8074 340.762V344.33H81.6864V337.33H82.8074V338.773H82.8348C82.9943 338.281 83.2381 337.898 83.5662 337.624C83.8944 337.346 84.2612 337.207 84.6668 337.207C84.9585 337.207 85.1818 337.239 85.3367 337.303V338.465ZM95.741 344.33H90.5457V334.528H95.5223V335.567H91.6942V338.827H95.2352V339.86H91.6942V343.291H95.741V344.33ZM102.591 337.33L100.239 340.871L102.55 344.33H101.244L99.8699 342.061C99.7834 341.92 99.6808 341.742 99.5623 341.528H99.535C99.5122 341.569 99.4051 341.746 99.2137 342.061L97.8123 344.33H96.5203L98.9061 340.899L96.6229 337.33H97.9285L99.2821 339.723C99.3823 339.901 99.4803 340.083 99.576 340.27H99.6033L101.353 337.33H102.591ZM105.052 343.319H105.024V347.55H103.903V337.33H105.024V338.561H105.052C105.603 337.631 106.41 337.166 107.472 337.166C108.374 337.166 109.078 337.481 109.584 338.11C110.09 338.734 110.343 339.573 110.343 340.625C110.343 341.796 110.058 342.735 109.488 343.442C108.918 344.143 108.139 344.494 107.15 344.494C106.243 344.494 105.544 344.102 105.052 343.319ZM105.024 340.495V341.473C105.024 342.052 105.211 342.544 105.585 342.949C105.963 343.351 106.442 343.551 107.02 343.551C107.699 343.551 108.23 343.291 108.613 342.772C109 342.252 109.194 341.53 109.194 340.605C109.194 339.825 109.014 339.215 108.654 338.773C108.294 338.331 107.806 338.11 107.191 338.11C106.54 338.11 106.015 338.337 105.619 338.793C105.222 339.244 105.024 339.812 105.024 340.495ZM117.76 341.111H112.817C112.835 341.89 113.045 342.491 113.446 342.915C113.847 343.339 114.399 343.551 115.1 343.551C115.889 343.551 116.613 343.291 117.274 342.772V343.824C116.659 344.271 115.846 344.494 114.834 344.494C113.845 344.494 113.068 344.178 112.503 343.544C111.938 342.906 111.655 342.011 111.655 340.858C111.655 339.768 111.963 338.882 112.578 338.198C113.198 337.51 113.966 337.166 114.882 337.166C115.798 337.166 116.506 337.462 117.008 338.055C117.509 338.647 117.76 339.47 117.76 340.523V341.111ZM116.611 340.16C116.607 339.513 116.449 339.01 116.139 338.65C115.834 338.29 115.408 338.11 114.861 338.11C114.333 338.11 113.884 338.299 113.514 338.677C113.145 339.055 112.917 339.55 112.831 340.16H116.611ZM123.112 338.465C122.916 338.315 122.634 338.24 122.264 338.24C121.786 338.24 121.385 338.465 121.061 338.916C120.742 339.367 120.583 339.983 120.583 340.762V344.33H119.462V337.33H120.583V338.773H120.61C120.77 338.281 121.013 337.898 121.342 337.624C121.67 337.346 122.037 337.207 122.442 337.207C122.734 337.207 122.957 337.239 123.112 337.303V338.465ZM124.903 335.553C124.703 335.553 124.532 335.485 124.39 335.348C124.249 335.211 124.179 335.038 124.179 334.828C124.179 334.619 124.249 334.446 124.39 334.309C124.532 334.168 124.703 334.097 124.903 334.097C125.108 334.097 125.281 334.168 125.423 334.309C125.569 334.446 125.641 334.619 125.641 334.828C125.641 335.029 125.569 335.2 125.423 335.341C125.281 335.482 125.108 335.553 124.903 335.553ZM125.45 344.33H124.329V337.33H125.45V344.33ZM133.346 341.111H128.403C128.421 341.89 128.631 342.491 129.032 342.915C129.433 343.339 129.985 343.551 130.686 343.551C131.475 343.551 132.199 343.291 132.86 342.772V343.824C132.245 344.271 131.431 344.494 130.42 344.494C129.431 344.494 128.654 344.178 128.089 343.544C127.524 342.906 127.241 342.011 127.241 340.858C127.241 339.768 127.549 338.882 128.164 338.198C128.784 337.51 129.552 337.166 130.468 337.166C131.384 337.166 132.092 337.462 132.594 338.055C133.095 338.647 133.346 339.47 133.346 340.523V341.111ZM132.197 340.16C132.193 339.513 132.035 339.01 131.725 338.65C131.42 338.29 130.994 338.11 130.447 338.11C129.918 338.11 129.47 338.299 129.1 338.677C128.731 339.055 128.503 339.55 128.417 340.16H132.197ZM140.858 344.33H139.737V340.338C139.737 338.852 139.195 338.11 138.11 338.11C137.55 338.11 137.085 338.322 136.716 338.745C136.351 339.165 136.169 339.696 136.169 340.338V344.33H135.048V337.33H136.169V338.492H136.196C136.725 337.608 137.49 337.166 138.493 337.166C139.259 337.166 139.844 337.415 140.25 337.911C140.655 338.404 140.858 339.117 140.858 340.051V344.33ZM147.749 344.009C147.211 344.333 146.573 344.494 145.835 344.494C144.837 344.494 144.03 344.171 143.415 343.524C142.804 342.872 142.499 342.029 142.499 340.994C142.499 339.841 142.829 338.916 143.49 338.219C144.151 337.517 145.033 337.166 146.136 337.166C146.751 337.166 147.293 337.28 147.763 337.508V338.656C147.243 338.292 146.687 338.11 146.095 338.11C145.379 338.11 144.791 338.367 144.331 338.882C143.875 339.392 143.647 340.065 143.647 340.899C143.647 341.719 143.861 342.366 144.29 342.84C144.723 343.314 145.302 343.551 146.026 343.551C146.637 343.551 147.211 343.348 147.749 342.943V344.009ZM155.07 341.111H150.128C150.146 341.89 150.356 342.491 150.757 342.915C151.158 343.339 151.709 343.551 152.411 343.551C153.199 343.551 153.924 343.291 154.585 342.772V343.824C153.97 344.271 153.156 344.494 152.144 344.494C151.155 344.494 150.378 344.178 149.813 343.544C149.248 342.906 148.966 342.011 148.966 340.858C148.966 339.768 149.273 338.882 149.888 338.198C150.508 337.51 151.276 337.166 152.192 337.166C153.108 337.166 153.817 337.462 154.318 338.055C154.819 338.647 155.07 339.47 155.07 340.523V341.111ZM153.922 340.16C153.917 339.513 153.76 339.01 153.45 338.65C153.145 338.29 152.719 338.11 152.172 338.11C151.643 338.11 151.194 338.299 150.825 338.677C150.456 339.055 150.228 339.55 150.141 340.16H153.922ZM97.5526 365.559H96.5545C95.1418 363.946 94.4354 361.956 94.4354 359.591C94.4354 357.217 95.1418 355.196 96.5545 353.528H97.5662C96.1352 355.259 95.4197 357.276 95.4197 359.577C95.4197 361.861 96.1307 363.854 97.5526 365.559ZM106.159 359.365C106.159 362.118 104.917 363.494 102.433 363.494C100.055 363.494 98.8651 362.17 98.8651 359.523V353.528H100.013V359.448C100.013 361.457 100.861 362.462 102.556 362.462C104.193 362.462 105.011 361.491 105.011 359.55V353.528H106.159V359.365ZM115.381 363.33H113.979L111.723 359.577C111.655 359.463 111.58 359.302 111.498 359.092H111.471C111.425 359.197 111.347 359.359 111.238 359.577L108.914 363.33H107.506L110.787 358.402L107.765 353.528H109.174L111.177 356.973C111.309 357.201 111.425 357.429 111.525 357.656H111.553C111.698 357.356 111.826 357.119 111.935 356.946L114.02 353.528H115.34L112.257 358.388L115.381 363.33ZM116.748 365.559H115.75C117.172 363.854 117.883 361.861 117.883 359.577C117.883 357.276 117.167 355.259 115.736 353.528H116.748C118.17 355.196 118.881 357.217 118.881 359.591C118.881 361.956 118.17 363.946 116.748 365.559Z" fill="#313030"/>
<path id="01" d="M100.484 323.031C96.3172 323.031 94.2339 320.106 94.2339 314.255C94.2339 311.219 94.7954 308.908 95.9185 307.321C97.0496 305.726 98.6854 304.928 100.826 304.928C104.895 304.928 106.929 307.903 106.929 313.852C106.929 316.814 106.372 319.084 105.257 320.663C104.15 322.242 102.559 323.031 100.484 323.031ZM100.655 307.87C98.9865 307.87 98.1523 309.966 98.1523 314.157C98.1523 318.104 98.9702 320.077 100.606 320.077C102.201 320.077 102.999 318.043 102.999 313.974C102.999 309.905 102.217 307.87 100.655 307.87ZM117.928 304.831V322.726H114.083V309.176C113.871 309.364 113.619 309.543 113.326 309.714C113.041 309.876 112.736 310.027 112.41 310.165C112.085 310.295 111.747 310.409 111.397 310.507C111.047 310.597 110.701 310.662 110.359 310.702V307.455C111.36 307.162 112.304 306.788 113.191 306.332C114.078 305.876 114.88 305.376 115.596 304.831H117.928Z" fill="#FF9100"/>
</g>
<g id="Group 25542">
<path id="Path 30357" d="M121.237 410.387C121.237 412.893 120.494 415.343 119.102 417.426C117.71 419.509 115.731 421.133 113.416 422.092C111.101 423.051 108.554 423.302 106.096 422.813C103.639 422.324 101.381 421.117 99.6097 419.345C97.838 417.573 96.6315 415.316 96.1427 412.858C95.654 410.401 95.905 407.853 96.8641 405.538C97.8231 403.224 99.4471 401.245 101.531 399.853C103.614 398.461 106.064 397.718 108.569 397.718C111.929 397.719 115.151 399.054 117.527 401.429C119.903 403.805 121.237 407.028 121.237 410.387Z" fill="#FF3C7D"/>
<g id="Group 25541">
<path id="Rectangle 2801" d="M105.527 410.388V485.39H111.608V410.388H105.527Z" fill="#FF3C7D"/>
<path id="Path 30383" d="M156.046 571.543C168.489 559.134 175.94 542.588 176.986 525.046C177.41 506.21 170.43 487.959 157.546 474.213C144.661 460.467 126.899 452.322 108.075 451.529C89.2505 450.735 70.866 457.356 56.8701 469.969C42.8741 482.582 34.3832 500.181 33.221 518.986C32.8874 533.357 36.8654 547.499 44.6422 559.588C52.4189 571.677 63.6382 581.161 76.8538 586.816C90.0695 592.471 104.676 594.038 118.791 591.316C132.905 588.594 145.881 581.707 156.046 571.543V571.543Z" fill="url(#paint5_radial_208_135)"/>
<path id="Path 30384" d="M50.0978 520.223L50.0971 567.644C51.3798 569.158 52.7351 570.631 54.1629 572.063C67.6583 585.558 85.9619 593.14 105.047 593.14C124.133 593.14 142.436 585.559 155.932 572.064C156.739 571.257 157.521 570.436 158.279 569.603L158.279 535.081L50.0978 520.223Z" fill="url(#paint6_radial_208_135)"/>
<path id="Path 30385" d="M144.032 560.928C136.347 568.613 126.556 573.847 115.896 575.967C105.237 578.088 94.1879 576.999 84.147 572.84C74.106 568.681 65.5238 561.638 59.4857 552.601C53.4476 543.565 50.2248 532.94 50.2248 522.072C50.2248 511.204 53.4476 500.58 59.4857 491.543C65.5238 482.506 74.106 475.463 84.1469 471.304C94.1879 467.145 105.237 466.057 115.896 468.177C126.556 470.297 136.347 475.531 144.032 483.216C149.135 488.319 153.183 494.376 155.944 501.043C158.706 507.71 160.127 514.856 160.127 522.072C160.127 529.288 158.706 536.434 155.944 543.101C153.183 549.768 149.135 555.826 144.032 560.928Z" fill="white"/>
<path id="Path 30386" d="M144.032 560.928C153.533 551.453 159.224 538.818 160.021 525.422C160.363 511.028 155.041 497.075 145.201 486.565C135.36 476.054 121.788 469.825 107.402 469.219C93.0169 468.613 78.9682 473.677 68.2781 483.322C57.5881 492.967 51.1108 506.423 50.2396 520.794C49.9844 531.769 53.0218 542.568 58.9604 551.8C64.8989 561.032 73.4664 568.274 83.5584 572.592C93.6505 576.91 104.805 578.107 115.583 576.028C126.362 573.949 136.27 568.69 144.032 560.928L144.032 560.928Z" fill="url(#paint7_radial_208_135)"/>
<path id="Path 30387" d="M157.145 539.953C152.276 552.617 142.894 563.032 130.806 569.194C118.718 575.355 104.778 576.827 91.6699 573.326C78.5616 569.825 67.2117 561.599 59.8052 550.231C52.3986 538.863 49.4591 525.157 51.5523 511.752C50.8662 514.725 50.4282 517.749 50.2428 520.794C49.9426 533.901 54.3379 546.684 62.6354 556.834C70.9328 566.985 82.5857 573.835 95.4905 576.148C108.395 578.461 121.702 576.084 133.008 569.447C144.314 562.809 152.875 552.349 157.145 539.953V539.953Z" fill="#D8D9DD"/>
<path id="Figma" d="M92.7969 535.676H88.9687V539.066H92.5098V540.098H88.9687V544.439H87.8203V534.637H92.7969V535.676ZM95.0801 535.662C94.8796 535.662 94.7087 535.594 94.5674 535.457C94.4261 535.32 94.3555 535.147 94.3555 534.937C94.3555 534.728 94.4261 534.555 94.5674 534.418C94.7087 534.277 94.8796 534.206 95.0801 534.206C95.2852 534.206 95.4583 534.277 95.5996 534.418C95.7454 534.555 95.8184 534.728 95.8184 534.937C95.8184 535.138 95.7454 535.309 95.5996 535.45C95.4583 535.591 95.2852 535.662 95.0801 535.662ZM95.627 544.439H94.5059V537.439H95.627V544.439ZM103.871 543.879C103.871 546.449 102.641 547.734 100.18 547.734C99.3138 547.734 98.5573 547.57 97.9102 547.242V546.121C98.6986 546.558 99.4505 546.777 100.166 546.777C101.889 546.777 102.75 545.861 102.75 544.029V543.263H102.723C102.189 544.157 101.387 544.603 100.316 544.603C99.446 544.603 98.7441 544.293 98.2109 543.674C97.6823 543.049 97.418 542.213 97.418 541.165C97.418 539.975 97.7028 539.03 98.2725 538.328C98.8467 537.626 99.6305 537.275 100.624 537.275C101.567 537.275 102.267 537.653 102.723 538.41H102.75V537.439H103.871V543.879ZM102.75 541.274V540.242C102.75 539.686 102.561 539.21 102.183 538.813C101.809 538.417 101.342 538.219 100.781 538.219C100.089 538.219 99.5462 538.471 99.1543 538.977C98.7624 539.479 98.5664 540.183 98.5664 541.09C98.5664 541.869 98.7533 542.493 99.127 542.963C99.5052 543.428 100.004 543.66 100.624 543.66C101.253 543.66 101.763 543.437 102.155 542.99C102.552 542.543 102.75 541.971 102.75 541.274ZM116.08 544.439H114.959V540.42C114.959 539.645 114.838 539.084 114.597 538.738C114.36 538.392 113.959 538.219 113.394 538.219C112.915 538.219 112.507 538.437 112.17 538.875C111.837 539.312 111.671 539.836 111.671 540.447V544.439H110.55V540.283C110.55 538.907 110.019 538.219 108.957 538.219C108.465 538.219 108.059 538.426 107.74 538.841C107.421 539.251 107.262 539.786 107.262 540.447V544.439H106.141V537.439H107.262V538.547H107.289C107.786 537.699 108.51 537.275 109.463 537.275C109.941 537.275 110.358 537.41 110.714 537.679C111.069 537.943 111.313 538.291 111.445 538.724C111.965 537.758 112.74 537.275 113.77 537.275C115.31 537.275 116.08 538.225 116.08 540.126V544.439ZM123.21 544.439H122.089V543.346H122.062C121.574 544.184 120.856 544.603 119.908 544.603C119.211 544.603 118.664 544.419 118.268 544.05C117.876 543.68 117.68 543.191 117.68 542.58C117.68 541.272 118.45 540.511 119.99 540.297L122.089 540.003C122.089 538.813 121.608 538.219 120.646 538.219C119.803 538.219 119.042 538.506 118.363 539.08V537.931C119.051 537.494 119.844 537.275 120.742 537.275C122.387 537.275 123.21 538.146 123.21 539.887V544.439ZM122.089 540.898L120.4 541.131C119.881 541.204 119.489 541.333 119.225 541.52C118.96 541.703 118.828 542.028 118.828 542.498C118.828 542.84 118.949 543.12 119.19 543.339C119.437 543.553 119.762 543.66 120.168 543.66C120.724 543.66 121.182 543.466 121.542 543.079C121.907 542.687 122.089 542.193 122.089 541.596V540.898Z" fill="#313030"/>
<path id="02" d="M98.5747 521.075C94.408 521.075 92.3247 518.15 92.3247 512.299C92.3247 509.263 92.8862 506.952 94.0093 505.365C95.1405 503.77 96.7762 502.972 98.9165 502.972C102.986 502.972 105.02 505.947 105.02 511.896C105.02 514.858 104.463 517.129 103.348 518.707C102.241 520.286 100.65 521.075 98.5747 521.075ZM98.7456 505.914C97.0773 505.914 96.2432 508.01 96.2432 512.201C96.2432 516.148 97.061 518.121 98.6968 518.121C100.292 518.121 101.089 516.087 101.089 512.018C101.089 507.949 100.308 505.914 98.7456 505.914ZM111.099 517.572H118.521V520.77H106.875V519.452C106.875 518.557 107.026 517.755 107.327 517.047C107.628 516.331 108.007 515.692 108.462 515.131C108.918 514.561 109.415 514.06 109.952 513.629C110.497 513.19 111.014 512.795 111.502 512.445C112.015 512.079 112.462 511.729 112.845 511.395C113.235 511.062 113.561 510.732 113.821 510.407C114.09 510.073 114.289 509.739 114.419 509.406C114.55 509.064 114.615 508.702 114.615 508.319C114.615 507.57 114.403 507.005 113.98 506.622C113.557 506.24 112.91 506.049 112.039 506.049C110.534 506.049 109.093 506.647 107.718 507.843V504.449C109.24 503.465 110.957 502.972 112.869 502.972C113.756 502.972 114.55 503.09 115.25 503.326C115.958 503.554 116.556 503.884 117.044 504.315C117.532 504.747 117.903 505.271 118.155 505.89C118.415 506.5 118.545 507.184 118.545 507.941C118.545 508.746 118.419 509.462 118.167 510.089C117.923 510.716 117.593 511.285 117.178 511.798C116.771 512.311 116.299 512.783 115.762 513.214C115.225 513.637 114.668 514.048 114.09 514.447C113.699 514.724 113.321 515 112.955 515.277C112.597 515.546 112.279 515.814 112.002 516.083C111.726 516.343 111.506 516.6 111.343 516.852C111.181 517.104 111.099 517.344 111.099 517.572Z" fill="#B80044"/>
</g>
</g>
<g id="Group 25540">
<path id="Rectangle 2799" d="M102.502 606.747V683.302H108.708V606.747H102.502Z" fill="#7AF4AB"/>
<path id="Path 30363" d="M157.401 771.467C167.655 761.187 174.632 748.099 177.451 733.856C180.269 719.612 178.801 704.853 173.234 691.443C167.666 678.034 158.248 666.575 146.17 658.517C134.092 650.458 119.897 646.161 105.377 646.167C90.8576 646.174 76.6659 650.485 64.5957 658.556C52.5256 666.626 43.1186 678.093 37.5638 691.508C32.0089 704.923 30.5555 719.683 33.3872 733.924C36.2189 748.165 43.2086 761.247 53.473 771.516C60.2863 778.362 68.3856 783.793 77.3052 787.497C86.2248 791.202 95.7888 793.107 105.447 793.102C115.105 793.097 124.668 791.184 133.584 787.471C142.5 783.758 150.594 778.319 157.401 771.467V771.467Z" fill="url(#paint8_radial_208_135)"/>
<path id="Path 30364" d="M49.7294 718.349L49.7287 766.75C51.0387 768.296 52.422 769.8 53.8787 771.26C60.699 778.081 68.7959 783.492 77.7071 787.183C86.6184 790.874 96.1695 792.774 105.815 792.775C115.461 792.775 125.012 790.875 133.923 787.184C142.835 783.494 150.932 778.083 157.753 771.263C158.576 770.44 159.375 769.601 160.15 768.748L160.15 733.51L49.7294 718.349Z" fill="url(#paint9_radial_208_135)"/>
<path id="Path 30389" d="M118.536 606.748C118.536 609.305 117.778 611.806 116.357 613.932C114.935 616.059 112.916 617.716 110.553 618.695C108.19 619.674 105.59 619.93 103.081 619.431C100.573 618.932 98.2683 617.7 96.4597 615.892C94.6512 614.083 93.4195 611.779 92.9205 609.27C92.4215 606.762 92.6776 604.162 93.6564 601.799C94.6351 599.436 96.2926 597.416 98.4192 595.995C100.546 594.574 103.046 593.815 105.604 593.815C107.302 593.815 108.984 594.15 110.553 594.799C112.122 595.449 113.548 596.402 114.749 597.603C115.95 598.804 116.902 600.229 117.552 601.799C118.202 603.368 118.536 605.049 118.536 606.748V606.748Z" fill="#7AF4AB"/>
<path id="Path 30365" d="M154.195 748.736C148.648 758.343 140.378 766.089 130.429 770.996C120.48 775.902 109.3 777.748 98.3015 776.3C87.3035 774.852 76.9818 770.176 68.6416 762.862C60.3015 755.548 54.3175 745.925 51.4463 735.21C48.5752 724.495 48.9458 713.169 52.5114 702.665C56.077 692.161 62.6774 682.95 71.4779 676.197C80.2784 669.443 90.8838 665.452 101.953 664.726C113.022 664 124.058 666.573 133.665 672.12C146.547 679.557 155.947 691.808 159.797 706.176C163.648 720.545 161.632 735.854 154.195 748.736V748.736Z" fill="white"/>
<path id="Path 30366" d="M154.195 748.736C159.742 739.13 162.316 728.094 161.59 717.024C160.865 705.955 156.874 695.349 150.121 686.548C143.368 677.747 134.157 671.146 123.652 667.58C113.148 664.014 101.822 663.643 91.1067 666.513C80.3914 669.384 70.7681 675.368 63.4537 683.709C56.1393 692.049 51.4624 702.371 50.0143 713.369C48.5662 724.368 50.4121 735.548 55.3185 745.497C60.2249 755.447 67.9714 763.718 77.5784 769.264C83.9498 772.975 90.9927 775.389 98.3011 776.365C105.61 777.341 113.039 776.862 120.161 774.954C127.283 773.045 133.957 769.746 139.798 765.247C145.64 760.747 150.533 755.136 154.195 748.736V748.736Z" fill="url(#paint10_radial_208_135)"/>
<path id="Path 30367" d="M161.582 724.596C160.126 738.368 153.628 751.114 143.338 760.382C133.047 769.65 119.692 774.783 105.844 774.795C91.9954 774.806 78.6321 769.694 68.3268 760.443C58.0214 751.192 51.5024 738.456 50.0246 724.686C50.1353 727.798 50.5028 730.896 51.1233 733.947C54.2895 746.949 61.9996 758.391 72.8616 766.207C83.7237 774.023 97.0221 777.698 110.356 776.569C123.69 775.44 136.182 769.582 145.575 760.051C154.969 750.52 160.646 737.946 161.581 724.597L161.582 724.596Z" fill="#D8D9DD"/>
<path id="UI + Figma" d="M80.1953 733.579C80.1953 736.332 78.9535 737.708 76.4697 737.708C74.0908 737.708 72.9014 736.384 72.9014 733.737V727.741H74.0498V733.661C74.0498 735.671 74.8975 736.676 76.5928 736.676C78.2288 736.676 79.0469 735.705 79.0469 733.764V727.741H80.1953V733.579ZM83.7979 737.544H82.6494V727.741H83.7979V737.544ZM96.9502 733.921H94.1885V736.676H93.2793V733.921H90.5244V733.005H93.2793V730.25H94.1885V733.005H96.9502V733.921ZM108.626 728.781H104.798V732.171H108.339V733.203H104.798V737.544H103.649V727.741H108.626V728.781ZM110.909 728.767C110.709 728.767 110.538 728.698 110.396 728.562C110.255 728.425 110.185 728.252 110.185 728.042C110.185 727.833 110.255 727.659 110.396 727.523C110.538 727.381 110.709 727.311 110.909 727.311C111.114 727.311 111.287 727.381 111.429 727.523C111.575 727.659 111.647 727.833 111.647 728.042C111.647 728.243 111.575 728.414 111.429 728.555C111.287 728.696 111.114 728.767 110.909 728.767ZM111.456 737.544H110.335V730.544H111.456V737.544ZM119.7 736.984C119.7 739.554 118.47 740.839 116.009 740.839C115.143 740.839 114.386 740.675 113.739 740.347V739.226C114.528 739.663 115.28 739.882 115.995 739.882C117.718 739.882 118.579 738.966 118.579 737.134V736.368H118.552C118.019 737.262 117.216 737.708 116.146 737.708C115.275 737.708 114.573 737.398 114.04 736.779C113.511 736.154 113.247 735.318 113.247 734.27C113.247 733.08 113.532 732.135 114.102 731.433C114.676 730.731 115.46 730.38 116.453 730.38C117.396 730.38 118.096 730.758 118.552 731.515H118.579V730.544H119.7V736.984ZM118.579 734.379V733.347C118.579 732.791 118.39 732.315 118.012 731.918C117.638 731.522 117.171 731.323 116.61 731.323C115.918 731.323 115.375 731.576 114.983 732.082C114.591 732.584 114.396 733.288 114.396 734.195C114.396 734.974 114.582 735.598 114.956 736.068C115.334 736.532 115.833 736.765 116.453 736.765C117.082 736.765 117.592 736.542 117.984 736.095C118.381 735.648 118.579 735.076 118.579 734.379ZM131.909 737.544H130.788V733.525C130.788 732.75 130.667 732.189 130.426 731.843C130.189 731.497 129.788 731.323 129.223 731.323C128.744 731.323 128.336 731.542 127.999 731.98C127.666 732.417 127.5 732.941 127.5 733.552V737.544H126.379V733.388C126.379 732.012 125.848 731.323 124.786 731.323C124.294 731.323 123.888 731.531 123.569 731.946C123.25 732.356 123.091 732.891 123.091 733.552V737.544H121.97V730.544H123.091V731.652H123.118C123.615 730.804 124.34 730.38 125.292 730.38C125.771 730.38 126.188 730.515 126.543 730.783C126.898 731.048 127.142 731.396 127.274 731.829C127.794 730.863 128.569 730.38 129.599 730.38C131.139 730.38 131.909 731.33 131.909 733.231V737.544ZM139.039 737.544H137.918V736.45H137.891C137.403 737.289 136.685 737.708 135.737 737.708C135.04 737.708 134.493 737.524 134.097 737.155C133.705 736.785 133.509 736.295 133.509 735.685C133.509 734.377 134.279 733.616 135.819 733.402L137.918 733.108C137.918 731.918 137.437 731.323 136.476 731.323C135.632 731.323 134.871 731.611 134.192 732.185V731.036C134.881 730.599 135.674 730.38 136.571 730.38C138.216 730.38 139.039 731.251 139.039 732.991V737.544ZM137.918 734.003L136.229 734.236C135.71 734.309 135.318 734.438 135.054 734.625C134.789 734.808 134.657 735.133 134.657 735.603C134.657 735.945 134.778 736.225 135.02 736.444C135.266 736.658 135.591 736.765 135.997 736.765C136.553 736.765 137.011 736.571 137.371 736.184C137.736 735.792 137.918 735.297 137.918 734.7V734.003Z" fill="#313030"/>
<path id="03" d="M99.0747 715.463C94.908 715.463 92.8247 712.538 92.8247 706.687C92.8247 703.651 93.3862 701.34 94.5093 699.753C95.6405 698.158 97.2762 697.36 99.4165 697.36C103.486 697.36 105.52 700.335 105.52 706.284C105.52 709.246 104.963 711.516 103.848 713.095C102.741 714.674 101.15 715.463 99.0747 715.463ZM99.2456 700.302C97.5773 700.302 96.7432 702.398 96.7432 706.589C96.7432 710.536 97.561 712.509 99.1968 712.509C100.792 712.509 101.589 710.475 101.589 706.406C101.589 702.337 100.808 700.302 99.2456 700.302ZM107.791 714.584V711.228C108.962 712.082 110.33 712.509 111.892 712.509C112.877 712.509 113.642 712.298 114.187 711.874C114.74 711.451 115.017 710.861 115.017 710.104C115.017 709.323 114.675 708.721 113.992 708.298C113.316 707.875 112.384 707.663 111.196 707.663H109.573V704.709H111.074C113.353 704.709 114.492 703.952 114.492 702.438C114.492 701.014 113.617 700.302 111.868 700.302C110.696 700.302 109.556 700.681 108.45 701.437V698.288C109.679 697.67 111.111 697.36 112.747 697.36C114.537 697.36 115.929 697.763 116.921 698.569C117.922 699.374 118.423 700.42 118.423 701.706C118.423 703.993 117.263 705.425 114.944 706.003V706.064C116.181 706.219 117.157 706.67 117.874 707.419C118.59 708.159 118.948 709.071 118.948 710.153C118.948 711.789 118.35 713.083 117.153 714.035C115.957 714.987 114.305 715.463 112.197 715.463C110.391 715.463 108.922 715.17 107.791 714.584Z" fill="#2BAB94"/>
</g>
<g id="Group 25539">
<path id="Rectangle 2796" d="M108.197 807.1H102.103V882.271H108.197V807.1Z" fill="#F14258"/>
<path id="Path 30355" d="M117.85 807.099C117.851 809.611 117.106 812.067 115.71 814.155C114.315 816.244 112.331 817.872 110.011 818.833C107.69 819.794 105.136 820.046 102.673 819.556C100.209 819.066 97.9463 817.856 96.1702 816.08C94.394 814.304 93.1845 812.041 92.6945 809.577C92.2044 807.114 92.456 804.56 93.4172 802.239C94.3785 799.919 96.0063 797.935 98.0949 796.54C100.183 795.144 102.639 794.4 105.151 794.4C108.519 794.4 111.749 795.738 114.131 798.119C116.512 800.501 117.85 803.731 117.85 807.099Z" fill="#F14258"/>
<path id="Path 30378" d="M156.435 969.614C166.523 959.526 173.393 946.673 176.177 932.681C178.96 918.688 177.532 904.185 172.072 891.004C166.612 877.824 157.367 866.558 145.505 858.632C133.643 850.706 119.697 846.475 105.43 846.475C91.1636 846.475 77.2175 850.705 65.3553 858.631C53.493 866.557 44.2475 877.823 38.7878 891.003C33.3281 904.184 31.8994 918.687 34.6825 932.68C37.4656 946.672 44.3355 959.525 54.4233 969.613C61.103 976.344 69.0489 981.687 77.803 985.332C86.5571 988.978 95.9462 990.855 105.429 990.855C114.912 990.855 124.301 988.978 133.055 985.333C141.81 981.687 149.756 976.345 156.435 969.614Z" fill="#F14258"/>
<path id="Path 30379" d="M50.5047 917.947L50.5054 965.481C51.7905 966.998 53.1488 968.474 54.5805 969.91C68.1082 983.437 86.4554 991.037 105.586 991.037C124.717 991.037 143.064 983.437 156.592 969.91C157.401 969.101 158.186 968.278 158.947 967.441V932.836L50.5047 917.947Z" fill="#DC1C34"/>
<path id="Path 30380" d="M144.274 958.875C136.571 966.578 126.757 971.824 116.072 973.949C105.387 976.075 94.3122 974.984 84.2474 970.815C74.1826 966.646 65.5801 959.586 59.5278 950.528C53.4754 941.47 50.2451 930.82 50.2452 919.926C50.2453 909.032 53.4758 898.383 59.5284 889.325C65.5809 880.267 74.1835 873.207 84.2483 869.038C94.3131 864.869 105.388 863.779 116.073 865.904C126.757 868.03 136.572 873.276 144.275 880.979C149.39 886.094 153.447 892.166 156.215 898.849C158.983 905.531 160.408 912.694 160.408 919.927C160.408 927.16 158.983 934.323 156.215 941.005C153.446 947.688 149.389 953.76 144.274 958.875V958.875Z" fill="white"/>
<path id="Path 30381" d="M144.273 958.875C151.977 951.172 157.223 941.358 159.348 930.673C161.473 919.988 160.382 908.913 156.213 898.849C152.044 888.784 144.985 880.182 135.927 874.129C126.869 868.077 116.219 864.846 105.325 864.846C94.4312 864.846 83.7819 868.077 74.7239 874.129C65.6658 880.182 58.6059 888.784 54.437 898.849C50.268 908.913 49.1773 919.988 51.3026 930.673C53.4279 941.358 58.6738 951.172 66.377 958.875C71.477 964.016 77.5444 968.097 84.2291 970.881C90.9138 973.666 98.0837 975.1 105.325 975.1C112.567 975.1 119.737 973.666 126.421 970.881C133.106 968.097 139.173 964.016 144.273 958.875V958.875Z" fill="url(#paint11_radial_208_135)"/>
<path id="Path 30382" d="M157.414 937.857C152.533 950.551 143.129 960.991 131.012 967.166C118.895 973.342 104.922 974.817 91.7822 971.308C78.6428 967.798 67.2659 959.553 59.8416 948.158C52.4173 936.763 49.4703 923.025 51.5681 909.588C48.9314 923.234 51.5668 937.371 58.9429 949.15C66.319 960.929 77.887 969.473 91.3143 973.06C104.742 976.646 119.029 975.007 131.296 968.474C143.563 961.942 152.896 951.001 157.414 937.857V937.857Z" fill="#D8D9DD"/>
<path id="Photoshop" d="M73.6904 937.135V940.84H72.542V931.037H75.2354C76.2835 931.037 77.0947 931.292 77.6689 931.803C78.2477 932.313 78.5371 933.033 78.5371 933.963C78.5371 934.892 78.2158 935.654 77.5732 936.246C76.9352 936.838 76.0716 937.135 74.9824 937.135H73.6904ZM73.6904 932.076V936.096H74.8936C75.6865 936.096 76.2904 935.916 76.7051 935.556C77.1243 935.191 77.334 934.678 77.334 934.017C77.334 932.723 76.5684 932.076 75.0371 932.076H73.6904ZM86.0498 940.84H84.9287V936.807C84.9287 935.348 84.3864 934.619 83.3018 934.619C82.7549 934.619 82.2946 934.831 81.9209 935.255C81.5472 935.674 81.3604 936.214 81.3604 936.875V940.84H80.2393V930.476H81.3604V935.002H81.3877C81.9255 934.118 82.6911 933.676 83.6846 933.676C85.2614 933.676 86.0498 934.626 86.0498 936.526V940.84ZM91.0947 941.004C90.0602 941.004 89.2331 940.678 88.6133 940.026C87.998 939.37 87.6904 938.502 87.6904 937.422C87.6904 936.246 88.0117 935.328 88.6543 934.667C89.2969 934.006 90.165 933.676 91.2588 933.676C92.3024 933.676 93.1159 933.997 93.6992 934.64C94.2871 935.282 94.5811 936.173 94.5811 937.312C94.5811 938.429 94.2643 939.324 93.6309 939.999C93.002 940.669 92.1566 941.004 91.0947 941.004ZM91.1768 934.619C90.4567 934.619 89.887 934.865 89.4678 935.357C89.0485 935.845 88.8389 936.519 88.8389 937.381C88.8389 938.21 89.0508 938.864 89.4746 939.343C89.8984 939.821 90.4658 940.06 91.1768 940.06C91.9014 940.06 92.4574 939.826 92.8447 939.356C93.2367 938.887 93.4326 938.219 93.4326 937.353C93.4326 936.478 93.2367 935.804 92.8447 935.33C92.4574 934.856 91.9014 934.619 91.1768 934.619ZM99.6191 940.771C99.3548 940.917 99.0062 940.99 98.5732 940.99C97.3473 940.99 96.7344 940.307 96.7344 938.939V934.797H95.5312V933.84H96.7344V932.131L97.8555 931.768V933.84H99.6191V934.797H97.8555V938.741C97.8555 939.211 97.9352 939.545 98.0947 939.746C98.2542 939.947 98.5186 940.047 98.8877 940.047C99.1702 940.047 99.4141 939.969 99.6191 939.814V940.771ZM104.042 941.004C103.007 941.004 102.18 940.678 101.561 940.026C100.945 939.37 100.638 938.502 100.638 937.422C100.638 936.246 100.959 935.328 101.602 934.667C102.244 934.006 103.112 933.676 104.206 933.676C105.25 933.676 106.063 933.997 106.646 934.64C107.234 935.282 107.528 936.173 107.528 937.312C107.528 938.429 107.212 939.324 106.578 939.999C105.949 940.669 105.104 941.004 104.042 941.004ZM104.124 934.619C103.404 934.619 102.834 934.865 102.415 935.357C101.996 935.845 101.786 936.519 101.786 937.381C101.786 938.21 101.998 938.864 102.422 939.343C102.846 939.821 103.413 940.06 104.124 940.06C104.849 940.06 105.405 939.826 105.792 939.356C106.184 938.887 106.38 938.219 106.38 937.353C106.38 936.478 106.184 935.804 105.792 935.33C105.405 934.856 104.849 934.619 104.124 934.619ZM108.896 940.587V939.384C109.506 939.835 110.178 940.06 110.912 940.06C111.896 940.06 112.389 939.732 112.389 939.076C112.389 938.889 112.345 938.732 112.259 938.604C112.177 938.472 112.063 938.356 111.917 938.256C111.776 938.155 111.607 938.067 111.411 937.989C111.22 937.907 111.012 937.823 110.789 937.736C110.479 937.613 110.206 937.49 109.969 937.367C109.736 937.239 109.54 937.098 109.381 936.943C109.226 936.784 109.107 936.604 109.025 936.403C108.948 936.203 108.909 935.968 108.909 935.699C108.909 935.371 108.984 935.082 109.135 934.831C109.285 934.576 109.486 934.364 109.736 934.195C109.987 934.022 110.272 933.892 110.591 933.806C110.914 933.719 111.247 933.676 111.589 933.676C112.195 933.676 112.737 933.78 113.216 933.99V935.125C112.701 934.788 112.108 934.619 111.438 934.619C111.229 934.619 111.04 934.644 110.871 934.694C110.702 934.74 110.557 934.806 110.434 934.892C110.315 934.979 110.222 935.084 110.153 935.207C110.09 935.325 110.058 935.458 110.058 935.603C110.058 935.786 110.09 935.938 110.153 936.061C110.222 936.184 110.32 936.294 110.447 936.39C110.575 936.485 110.73 936.572 110.912 936.649C111.094 936.727 111.302 936.811 111.534 936.902C111.844 937.021 112.122 937.144 112.368 937.271C112.614 937.394 112.824 937.536 112.997 937.695C113.17 937.85 113.302 938.03 113.394 938.235C113.489 938.44 113.537 938.684 113.537 938.967C113.537 939.313 113.46 939.614 113.305 939.869C113.154 940.124 112.951 940.336 112.696 940.505C112.441 940.673 112.147 940.799 111.814 940.881C111.482 940.963 111.133 941.004 110.769 941.004C110.049 941.004 109.424 940.865 108.896 940.587ZM121.077 940.84H119.956V936.807C119.956 935.348 119.414 934.619 118.329 934.619C117.782 934.619 117.322 934.831 116.948 935.255C116.575 935.674 116.388 936.214 116.388 936.875V940.84H115.267V930.476H116.388V935.002H116.415C116.953 934.118 117.718 933.676 118.712 933.676C120.289 933.676 121.077 934.626 121.077 936.526V940.84ZM126.122 941.004C125.088 941.004 124.26 940.678 123.641 940.026C123.025 939.37 122.718 938.502 122.718 937.422C122.718 936.246 123.039 935.328 123.682 934.667C124.324 934.006 125.192 933.676 126.286 933.676C127.33 933.676 128.143 933.997 128.727 934.64C129.314 935.282 129.608 936.173 129.608 937.312C129.608 938.429 129.292 939.324 128.658 939.999C128.029 940.669 127.184 941.004 126.122 941.004ZM126.204 934.619C125.484 934.619 124.914 934.865 124.495 935.357C124.076 935.845 123.866 936.519 123.866 937.381C123.866 938.21 124.078 938.864 124.502 939.343C124.926 939.821 125.493 940.06 126.204 940.06C126.929 940.06 127.485 939.826 127.872 939.356C128.264 938.887 128.46 938.219 128.46 937.353C128.46 936.478 128.264 935.804 127.872 935.33C127.485 934.856 126.929 934.619 126.204 934.619ZM132.548 939.828H132.521V944.059H131.399V933.84H132.521V935.07H132.548C133.099 934.141 133.906 933.676 134.968 933.676C135.87 933.676 136.574 933.99 137.08 934.619C137.586 935.243 137.839 936.082 137.839 937.135C137.839 938.306 137.554 939.245 136.984 939.951C136.415 940.653 135.635 941.004 134.646 941.004C133.74 941.004 133.04 940.612 132.548 939.828ZM132.521 937.005V937.982C132.521 938.561 132.707 939.053 133.081 939.459C133.459 939.86 133.938 940.06 134.517 940.06C135.196 940.06 135.727 939.801 136.109 939.281C136.497 938.762 136.69 938.039 136.69 937.114C136.69 936.335 136.51 935.724 136.15 935.282C135.79 934.84 135.303 934.619 134.687 934.619C134.036 934.619 133.512 934.847 133.115 935.303C132.719 935.754 132.521 936.321 132.521 937.005Z" fill="#313030"/>
<path id="04" d="M97.812 918.361C93.6453 918.361 91.562 915.435 91.562 909.584C91.562 906.549 92.1235 904.237 93.2466 902.65C94.3778 901.055 96.0135 900.258 98.1538 900.258C102.223 900.258 104.257 903.232 104.257 909.181C104.257 912.143 103.7 914.414 102.585 915.993C101.478 917.572 99.8872 918.361 97.812 918.361ZM97.9829 903.2C96.3146 903.2 95.4805 905.295 95.4805 909.486C95.4805 913.433 96.2983 915.407 97.9341 915.407C99.5291 915.407 100.327 913.372 100.327 909.303C100.327 905.234 99.5454 903.2 97.9829 903.2ZM116.721 900.551V911.586H118.82V914.467H116.721V918.056H113.205V914.467H105.576V911.452C106.251 910.695 106.951 909.869 107.675 908.974C108.4 908.07 109.099 907.143 109.775 906.191C110.45 905.238 111.077 904.282 111.655 903.322C112.241 902.353 112.737 901.43 113.144 900.551H116.721ZM109.03 911.586H113.205V905.47C112.92 905.999 112.611 906.536 112.277 907.082C111.944 907.619 111.594 908.152 111.228 908.681C110.861 909.202 110.491 909.71 110.117 910.207C109.742 910.695 109.38 911.155 109.03 911.586Z" fill="#DC1C34"/>
</g>
<g id="Group 25538">
<path id="Rectangle 2797" d="M102.582 1006.03L102.582 1082.1H108.749L108.749 1006.03H102.582Z" fill="#07A9F0"/>
<path id="Ellipse 4171" d="M93.6319 1010.57C96.1383 1017.21 103.558 1020.57 110.203 1018.06C116.849 1015.55 120.205 1008.13 117.698 1001.49C115.192 994.843 107.773 991.488 101.127 993.994C94.4812 996.5 91.1255 1003.92 93.6319 1010.57Z" fill="#07A9F0"/>
<path id="Path 30368" d="M153.77 1170.46C164.332 1160.61 171.736 1147.85 175.046 1133.8C178.356 1119.74 177.423 1105.02 172.365 1091.49C167.308 1077.96 158.353 1066.24 146.633 1057.8C134.913 1049.36 120.954 1044.59 106.521 1044.09C92.0886 1043.58 77.8307 1047.37 65.5504 1054.97C53.2701 1062.57 43.5189 1073.64 37.53 1086.78C31.5412 1099.92 29.5836 1114.54 31.9047 1128.8C34.2259 1143.05 40.7216 1156.29 50.5704 1166.86C57.09 1173.9 64.9396 1179.59 73.6668 1183.59C82.3941 1187.58 91.8262 1189.81 101.42 1190.15C111.013 1190.48 120.578 1188.92 129.563 1185.54C138.547 1182.16 146.775 1177.03 153.77 1170.46V1170.46Z" fill="url(#paint12_radial_208_135)"/>
<path id="Path 30369" d="M48.7537 1128.61L47.0737 1176.7C48.3209 1178.28 49.6434 1179.82 51.0414 1181.32C64.2485 1195.48 82.5408 1203.82 101.894 1204.5C121.248 1205.17 140.077 1198.13 154.24 1184.93C155.087 1184.14 155.911 1183.33 156.711 1182.51L157.932 1147.5L48.7537 1128.61Z" fill="url(#paint13_radial_208_135)"/>
<path id="Path 30370" d="M132.434 1165.36C122.884 1170.88 111.913 1173.43 100.909 1172.71C89.9051 1171.99 79.3622 1168.02 70.6135 1161.31C61.8648 1154.6 55.3032 1145.44 51.7586 1135C48.214 1124.56 47.8455 1113.3 50.6997 1102.65C53.554 1091.99 59.5027 1082.43 67.7937 1075.16C76.0848 1067.89 86.3457 1063.24 97.2789 1061.8C108.212 1060.36 119.327 1062.19 129.217 1067.07C139.107 1071.95 147.329 1079.65 152.842 1089.2C156.503 1095.54 158.88 1102.54 159.835 1109.8C160.791 1117.06 160.308 1124.44 158.413 1131.51C156.517 1138.58 153.248 1145.21 148.79 1151.02C144.333 1156.83 138.775 1161.7 132.434 1165.36V1165.36Z" fill="white"/>
<path id="Path 30371" d="M132.433 1165.36C141.982 1159.85 149.683 1151.63 154.56 1141.74C159.437 1131.85 161.272 1120.73 159.832 1109.8C158.392 1098.87 153.743 1088.61 146.472 1080.32C139.201 1072.03 129.635 1066.08 118.984 1063.22C108.332 1060.37 97.0734 1060.74 86.6314 1064.28C76.1894 1067.83 67.033 1074.39 60.3201 1083.14C53.6073 1091.89 49.6395 1102.43 48.9185 1113.43C48.1975 1124.44 50.7556 1135.41 56.2694 1144.96C59.9091 1151.32 64.7723 1156.9 70.5789 1161.37C76.3854 1165.85 83.0202 1169.13 90.1006 1171.02C97.1811 1172.92 104.567 1173.4 111.833 1172.43C119.098 1171.45 126.099 1169.05 132.433 1165.36Z" fill="url(#paint14_radial_208_135)"/>
<path id="Path 30372" d="M150.796 1148.25C142.699 1159.39 130.767 1167.14 117.3 1170C103.832 1172.87 89.781 1170.65 77.8513 1163.77C65.9217 1156.9 56.9574 1145.85 52.6847 1132.76C48.4121 1119.67 49.1331 1105.47 54.709 1092.88C48.5499 1105.53 47.4184 1120.05 51.5428 1133.5C55.6672 1146.95 64.7405 1158.34 76.9323 1165.37C89.124 1172.39 103.527 1174.53 117.235 1171.36C130.943 1168.18 142.937 1159.92 150.796 1148.25V1148.25Z" fill="#D8D9DD"/>
<path id="Final Project" d="M76.4795 1131.51H72.9248V1134.66H76.2129V1135.62H72.9248V1139.65H71.8584V1130.55H76.4795V1131.51ZM78.5996 1131.5C78.4134 1131.5 78.2547 1131.43 78.1235 1131.31C77.9924 1131.18 77.9268 1131.02 77.9268 1130.83C77.9268 1130.63 77.9924 1130.47 78.1235 1130.34C78.2547 1130.21 78.4134 1130.15 78.5996 1130.15C78.79 1130.15 78.9508 1130.21 79.082 1130.34C79.2174 1130.47 79.2852 1130.63 79.2852 1130.83C79.2852 1131.01 79.2174 1131.17 79.082 1131.3C78.9508 1131.43 78.79 1131.5 78.5996 1131.5ZM79.1074 1139.65H78.0664V1133.15H79.1074V1139.65ZM86.6104 1139.65H85.5693V1135.94C85.5693 1134.56 85.0658 1133.87 84.0586 1133.87C83.5381 1133.87 83.1064 1134.07 82.7637 1134.46C82.4251 1134.85 82.2559 1135.35 82.2559 1135.94V1139.65H81.2148V1133.15H82.2559V1134.23H82.2812C82.7721 1133.41 83.4831 1133 84.4141 1133C85.125 1133 85.6688 1133.23 86.0454 1133.69C86.422 1134.15 86.6104 1134.81 86.6104 1135.68V1139.65ZM93.231 1139.65H92.1899V1138.63H92.1646C91.7118 1139.41 91.0452 1139.8 90.165 1139.8C89.5176 1139.8 89.0098 1139.63 88.6416 1139.29C88.2777 1138.94 88.0957 1138.49 88.0957 1137.92C88.0957 1136.71 88.8109 1136 90.2412 1135.8L92.1899 1135.53C92.1899 1134.42 91.7435 1133.87 90.8506 1133.87C90.0677 1133.87 89.361 1134.14 88.7305 1134.67V1133.61C89.3695 1133.2 90.1058 1133 90.9395 1133C92.4671 1133 93.231 1133.8 93.231 1135.42V1139.65ZM92.1899 1136.36L90.6221 1136.58C90.1396 1136.64 89.7757 1136.76 89.5303 1136.94C89.2848 1137.11 89.1621 1137.41 89.1621 1137.85C89.1621 1138.16 89.2743 1138.42 89.4985 1138.63C89.7271 1138.83 90.0296 1138.93 90.4062 1138.93C90.9225 1138.93 91.3478 1138.75 91.6821 1138.39C92.0207 1138.02 92.1899 1137.56 92.1899 1137.01V1136.36ZM96.2334 1139.65H95.1924V1130.03H96.2334V1139.65ZM103.114 1136.21V1139.65H102.048V1130.55H104.549C105.522 1130.55 106.275 1130.78 106.809 1131.26C107.346 1131.73 107.615 1132.4 107.615 1133.26C107.615 1134.13 107.316 1134.83 106.72 1135.38C106.127 1135.93 105.325 1136.21 104.314 1136.21H103.114ZM103.114 1131.51V1135.24H104.231C104.968 1135.24 105.528 1135.08 105.914 1134.74C106.303 1134.4 106.498 1133.93 106.498 1133.31C106.498 1132.11 105.787 1131.51 104.365 1131.51H103.114ZM112.585 1134.2C112.403 1134.06 112.141 1133.99 111.798 1133.99C111.354 1133.99 110.981 1134.2 110.681 1134.62C110.384 1135.04 110.236 1135.61 110.236 1136.34V1139.65H109.195V1133.15H110.236V1134.49H110.262C110.41 1134.03 110.636 1133.68 110.941 1133.42C111.246 1133.16 111.586 1133.03 111.963 1133.03C112.234 1133.03 112.441 1133.06 112.585 1133.12V1134.2ZM116.432 1139.8C115.471 1139.8 114.703 1139.5 114.127 1138.89C113.556 1138.28 113.271 1137.48 113.271 1136.47C113.271 1135.38 113.569 1134.53 114.166 1133.92C114.762 1133.3 115.568 1133 116.584 1133C117.553 1133 118.308 1133.29 118.85 1133.89C119.396 1134.49 119.669 1135.32 119.669 1136.37C119.669 1137.41 119.375 1138.24 118.787 1138.87C118.203 1139.49 117.418 1139.8 116.432 1139.8ZM116.508 1133.87C115.839 1133.87 115.31 1134.1 114.921 1134.56C114.532 1135.01 114.337 1135.64 114.337 1136.44C114.337 1137.21 114.534 1137.81 114.927 1138.26C115.321 1138.7 115.848 1138.93 116.508 1138.93C117.181 1138.93 117.697 1138.71 118.057 1138.27C118.421 1137.84 118.603 1137.22 118.603 1136.41C118.603 1135.6 118.421 1134.97 118.057 1134.53C117.697 1134.09 117.181 1133.87 116.508 1133.87ZM122.373 1139.38C122.373 1140.44 122.157 1141.26 121.726 1141.84C121.298 1142.42 120.685 1142.71 119.885 1142.71C119.589 1142.71 119.301 1142.64 119.021 1142.51V1141.53C119.335 1141.72 119.631 1141.82 119.91 1141.82C120.858 1141.82 121.332 1141.06 121.332 1139.55V1133.15H122.373V1139.38ZM121.865 1131.5C121.679 1131.5 121.52 1131.43 121.389 1131.31C121.258 1131.18 121.192 1131.02 121.192 1130.83C121.192 1130.63 121.258 1130.47 121.389 1130.34C121.52 1130.21 121.679 1130.15 121.865 1130.15C122.056 1130.15 122.216 1130.21 122.348 1130.34C122.483 1130.47 122.551 1130.63 122.551 1130.83C122.551 1131.01 122.483 1131.17 122.348 1131.3C122.216 1131.43 122.056 1131.5 121.865 1131.5ZM129.705 1136.66H125.115C125.132 1137.38 125.327 1137.94 125.699 1138.33C126.072 1138.73 126.584 1138.93 127.235 1138.93C127.967 1138.93 128.64 1138.68 129.254 1138.2V1139.18C128.683 1139.59 127.927 1139.8 126.988 1139.8C126.069 1139.8 125.348 1139.51 124.823 1138.92C124.299 1138.33 124.036 1137.49 124.036 1136.42C124.036 1135.41 124.322 1134.59 124.893 1133.95C125.469 1133.32 126.182 1133 127.032 1133C127.883 1133 128.541 1133.27 129.006 1133.82C129.472 1134.37 129.705 1135.14 129.705 1136.11V1136.66ZM128.638 1135.78C128.634 1135.18 128.488 1134.71 128.2 1134.37C127.917 1134.04 127.521 1133.87 127.013 1133.87C126.522 1133.87 126.105 1134.05 125.763 1134.4C125.42 1134.75 125.208 1135.21 125.128 1135.78H128.638ZM135.716 1139.35C135.216 1139.65 134.624 1139.8 133.938 1139.8C133.012 1139.8 132.263 1139.5 131.691 1138.9C131.124 1138.29 130.841 1137.51 130.841 1136.55C130.841 1135.48 131.148 1134.62 131.761 1133.97C132.375 1133.32 133.194 1133 134.218 1133C134.789 1133 135.293 1133.1 135.729 1133.31V1134.38C135.246 1134.04 134.73 1133.87 134.18 1133.87C133.515 1133.87 132.969 1134.11 132.542 1134.59C132.119 1135.06 131.907 1135.69 131.907 1136.46C131.907 1137.22 132.106 1137.82 132.504 1138.27C132.906 1138.71 133.443 1138.93 134.116 1138.93C134.683 1138.93 135.216 1138.74 135.716 1138.36V1139.35ZM140.305 1139.59C140.06 1139.72 139.736 1139.79 139.334 1139.79C138.196 1139.79 137.626 1139.15 137.626 1137.88V1134.04H136.509V1133.15H137.626V1131.56L138.667 1131.23V1133.15H140.305V1134.04H138.667V1137.7C138.667 1138.14 138.742 1138.45 138.89 1138.63C139.038 1138.82 139.283 1138.91 139.626 1138.91C139.888 1138.91 140.115 1138.84 140.305 1138.7V1139.59Z" fill="#313030"/>
<path id="05" d="M98.854 1118.78C94.6873 1118.78 92.604 1115.85 92.604 1110C92.604 1106.96 93.1655 1104.65 94.2886 1103.07C95.4198 1101.47 97.0555 1100.67 99.1958 1100.67C103.265 1100.67 105.299 1103.65 105.299 1109.6C105.299 1112.56 104.742 1114.83 103.627 1116.41C102.52 1117.99 100.929 1118.78 98.854 1118.78ZM99.0249 1103.62C97.3566 1103.62 96.5225 1105.71 96.5225 1109.9C96.5225 1113.85 97.3403 1115.82 98.9761 1115.82C100.571 1115.82 101.369 1113.79 101.369 1109.72C101.369 1105.65 100.587 1103.62 99.0249 1103.62ZM107.875 1118.02V1114.72C109.071 1115.46 110.345 1115.82 111.696 1115.82C112.713 1115.82 113.507 1115.58 114.076 1115.1C114.654 1114.61 114.943 1113.96 114.943 1113.13C114.943 1111.39 113.718 1110.53 111.269 1110.53C110.365 1110.53 109.324 1110.59 108.144 1110.73L108.803 1100.97H118.068V1104.12H111.745L111.5 1107.62C112.127 1107.57 112.668 1107.55 113.124 1107.55C114.923 1107.55 116.33 1108.02 117.348 1108.96C118.365 1109.91 118.874 1111.18 118.874 1112.77C118.874 1114.54 118.267 1115.98 117.055 1117.1C115.842 1118.22 114.198 1118.78 112.123 1118.78C110.438 1118.78 109.022 1118.52 107.875 1118.02Z" fill="#096AD0"/>
</g>
<g id="Group 25537">
<path id="Rectangle 2800" d="M107.03 1280.61V1204.4H100.852V1280.61H107.03Z" fill="#8078BF"/>
<path id="Path 30354" d="M116.815 1204.4C116.816 1206.95 116.061 1209.44 114.646 1211.56C113.231 1213.67 111.22 1215.32 108.868 1216.3C106.515 1217.27 103.926 1217.53 101.429 1217.03C98.9312 1216.53 96.6371 1215.31 94.8364 1213.51C93.0358 1211.71 91.8095 1209.41 91.3128 1206.92C90.816 1204.42 91.0711 1201.83 92.0456 1199.48C93.0202 1197.12 94.6705 1195.11 96.7879 1193.7C98.9053 1192.28 101.395 1191.53 103.941 1191.53C107.356 1191.53 110.63 1192.89 113.044 1195.3C115.459 1197.71 116.815 1200.99 116.815 1204.4V1204.4Z" fill="#8078BF"/>
<path id="Path 30373" d="M67.1033 1255.24C51.6237 1264.14 39.9549 1278.43 34.3138 1295.37C28.8857 1311.6 29.3189 1329.21 35.5381 1345.15C41.7573 1361.09 53.3687 1374.34 68.3515 1382.61C83.3342 1390.87 100.74 1393.61 117.538 1390.37C134.337 1387.12 149.466 1378.09 160.291 1364.84C171.117 1351.59 176.954 1334.96 176.786 1317.85C176.618 1300.74 170.457 1284.24 159.374 1271.2C148.291 1258.17 132.988 1249.43 116.129 1246.51C99.2694 1243.6 81.9212 1246.68 67.1033 1255.24V1255.24Z" fill="url(#paint15_radial_208_135)"/>
<path id="Path 30374" d="M105.997 1261.62L57.8108 1261.62C56.2726 1262.92 54.7761 1264.3 53.3214 1265.75C46.5309 1272.54 41.1444 1280.6 37.4693 1289.47C33.7943 1298.35 31.9027 1307.86 31.9026 1317.46C31.9024 1327.06 33.7938 1336.57 37.4686 1345.44C41.1434 1354.32 46.5297 1362.38 53.32 1369.17C54.1397 1369.99 54.9744 1370.78 55.8238 1371.55L90.9006 1371.55L105.997 1261.62Z" fill="url(#paint16_radial_208_135)"/>
<path id="Path 30375" d="M162.358 1333.17C159.218 1344.89 152.675 1355.41 143.556 1363.41C134.436 1371.41 123.15 1376.52 111.124 1378.1C99.0985 1379.69 86.8733 1377.67 75.9947 1372.3C65.116 1366.94 56.0725 1358.47 50.0077 1347.96C43.943 1337.46 41.1294 1325.39 41.9227 1313.29C42.716 1301.19 47.0806 1289.59 54.4646 1279.97C61.8486 1270.34 71.9203 1263.13 83.4061 1259.23C94.892 1255.33 107.276 1254.92 118.992 1258.06C126.772 1260.15 134.064 1263.74 140.454 1268.65C146.843 1273.55 152.204 1279.66 156.231 1286.64C160.258 1293.61 162.872 1301.31 163.923 1309.3C164.974 1317.28 164.442 1325.39 162.358 1333.17V1333.17Z" fill="white"/>
<path id="Path 30376" d="M161.999 1333.1C165.142 1321.37 164.736 1308.97 160.832 1297.47C156.929 1285.97 149.703 1275.89 140.069 1268.49C130.434 1261.1 118.824 1256.73 106.707 1255.94C94.5888 1255.14 82.5076 1257.96 71.9908 1264.03C61.474 1270.1 52.9939 1279.16 47.6228 1290.05C42.2517 1300.94 40.231 1313.18 41.8161 1325.22C43.4012 1337.26 48.5209 1348.56 56.5278 1357.69C64.5348 1366.82 75.0693 1373.37 86.7993 1376.51C94.5881 1378.63 102.719 1379.19 110.724 1378.15C118.729 1377.11 126.449 1374.5 133.44 1370.46C140.43 1366.43 146.553 1361.05 151.454 1354.64C156.356 1348.22 159.94 1340.9 161.999 1333.1V1333.1Z" fill="url(#paint17_radial_208_135)"/>
<path id="Path 30377" d="M161.23 1313.2C162.786 1320.92 162.537 1328.89 160.502 1336.49C152.52 1366.28 119.293 1383.26 86.2963 1374.42C66.4687 1369.11 51.2366 1355.68 43.9631 1339.35C45.0531 1342.38 46.3984 1345.32 47.9845 1348.12C56.8247 1362.14 70.6845 1372.26 86.7314 1376.4C119.732 1385.24 152.956 1368.26 160.937 1338.47C163.146 1330.21 163.247 1321.52 161.23 1313.2Z" fill="#D8D9DD"/>
<path id="Career Counselling for Designers" d="M92.0376 1320.73C91.313 1321.11 90.4106 1321.3 89.3306 1321.3C87.936 1321.3 86.8195 1320.85 85.9809 1319.95C85.1424 1319.06 84.7231 1317.88 84.7231 1316.42C84.7231 1314.85 85.1948 1313.58 86.1382 1312.62C87.0815 1311.65 88.2778 1311.17 89.727 1311.17C90.6567 1311.17 91.4269 1311.3 92.0376 1311.57V1312.8C91.3358 1312.4 90.561 1312.21 89.7134 1312.21C88.5877 1312.21 87.674 1312.58 86.9722 1313.34C86.2749 1314.09 85.9263 1315.09 85.9263 1316.35C85.9263 1317.54 86.2521 1318.5 86.9038 1319.21C87.56 1319.91 88.4191 1320.27 89.4809 1320.27C90.4653 1320.27 91.3175 1320.05 92.0376 1319.61V1320.73ZM98.894 1321.14H97.7729V1320.04H97.7456C97.258 1320.88 96.5402 1321.3 95.5923 1321.3C94.895 1321.3 94.3481 1321.11 93.9516 1320.75C93.5597 1320.38 93.3638 1319.89 93.3638 1319.28C93.3638 1317.97 94.1339 1317.21 95.6743 1316.99L97.7729 1316.7C97.7729 1315.51 97.2921 1314.91 96.3306 1314.91C95.4875 1314.91 94.7264 1315.2 94.0473 1315.78V1314.63C94.7355 1314.19 95.5285 1313.97 96.4263 1313.97C98.0714 1313.97 98.894 1314.84 98.894 1316.58V1321.14ZM97.7729 1317.59L96.0845 1317.83C95.5649 1317.9 95.173 1318.03 94.9087 1318.22C94.6444 1318.4 94.5122 1318.72 94.5122 1319.19C94.5122 1319.54 94.633 1319.82 94.8745 1320.03C95.1206 1320.25 95.4464 1320.36 95.852 1320.36C96.408 1320.36 96.866 1320.16 97.2261 1319.78C97.5906 1319.38 97.7729 1318.89 97.7729 1318.29V1317.59ZM104.657 1315.27C104.461 1315.12 104.178 1315.04 103.809 1315.04C103.331 1315.04 102.93 1315.27 102.606 1315.72C102.287 1316.17 102.127 1316.79 102.127 1317.57V1321.14H101.006V1314.14H102.127V1315.58H102.155C102.314 1315.09 102.558 1314.7 102.886 1314.43C103.214 1314.15 103.581 1314.01 103.987 1314.01C104.278 1314.01 104.502 1314.04 104.657 1314.11V1315.27ZM111.499 1317.92H106.557C106.575 1318.7 106.785 1319.3 107.186 1319.72C107.587 1320.14 108.138 1320.36 108.84 1320.36C109.629 1320.36 110.353 1320.1 111.014 1319.58V1320.63C110.399 1321.08 109.585 1321.3 108.574 1321.3C107.585 1321.3 106.808 1320.98 106.243 1320.35C105.678 1319.71 105.395 1318.82 105.395 1317.66C105.395 1316.57 105.703 1315.69 106.318 1315C106.938 1314.32 107.706 1313.97 108.622 1313.97C109.538 1313.97 110.246 1314.27 110.748 1314.86C111.249 1315.45 111.499 1316.28 111.499 1317.33V1317.92ZM110.351 1316.97C110.347 1316.32 110.189 1315.81 109.879 1315.45C109.574 1315.09 109.148 1314.91 108.601 1314.91C108.072 1314.91 107.624 1315.1 107.254 1315.48C106.885 1315.86 106.657 1316.35 106.571 1316.97H110.351ZM118.828 1317.92H113.885C113.903 1318.7 114.113 1319.3 114.514 1319.72C114.915 1320.14 115.467 1320.36 116.168 1320.36C116.957 1320.36 117.681 1320.1 118.342 1319.58V1320.63C117.727 1321.08 116.914 1321.3 115.902 1321.3C114.913 1321.3 114.136 1320.98 113.571 1320.35C113.006 1319.71 112.723 1318.82 112.723 1317.66C112.723 1316.57 113.031 1315.69 113.646 1315C114.266 1314.32 115.034 1313.97 115.95 1313.97C116.866 1313.97 117.574 1314.27 118.076 1314.86C118.577 1315.45 118.828 1316.28 118.828 1317.33V1317.92ZM117.679 1316.97C117.675 1316.32 117.517 1315.81 117.208 1315.45C116.902 1315.09 116.476 1314.91 115.929 1314.91C115.401 1314.91 114.952 1315.1 114.583 1315.48C114.213 1315.86 113.985 1316.35 113.899 1316.97H117.679ZM124.18 1315.27C123.984 1315.12 123.702 1315.04 123.333 1315.04C122.854 1315.04 122.453 1315.27 122.129 1315.72C121.81 1316.17 121.651 1316.79 121.651 1317.57V1321.14H120.53V1314.14H121.651V1315.58H121.678C121.838 1315.09 122.082 1314.7 122.41 1314.43C122.738 1314.15 123.105 1314.01 123.51 1314.01C123.802 1314.01 124.025 1314.04 124.18 1314.11V1315.27ZM75.9526 1339.73C75.228 1340.11 74.3257 1340.3 73.2456 1340.3C71.8511 1340.3 70.7345 1339.85 69.896 1338.95C69.0574 1338.06 68.6382 1336.88 68.6382 1335.42C68.6382 1333.85 69.1099 1332.58 70.0532 1331.62C70.9966 1330.65 72.1929 1330.17 73.6421 1330.17C74.5718 1330.17 75.3419 1330.3 75.9526 1330.57V1331.8C75.2508 1331.4 74.4761 1331.21 73.6284 1331.21C72.5028 1331.21 71.589 1331.58 70.8872 1332.34C70.1899 1333.09 69.8413 1334.09 69.8413 1335.35C69.8413 1336.54 70.1671 1337.5 70.8188 1338.21C71.4751 1338.91 72.3341 1339.27 73.396 1339.27C74.3804 1339.27 75.2326 1339.05 75.9526 1338.61V1339.73ZM80.7241 1340.3C79.6896 1340.3 78.8625 1339.97 78.2427 1339.32C77.6274 1338.67 77.3198 1337.8 77.3198 1336.72C77.3198 1335.54 77.6411 1334.62 78.2837 1333.96C78.9263 1333.3 79.7944 1332.97 80.8882 1332.97C81.9318 1332.97 82.7453 1333.29 83.3286 1333.94C83.9165 1334.58 84.2104 1335.47 84.2104 1336.61C84.2104 1337.72 83.8937 1338.62 83.2602 1339.29C82.6313 1339.96 81.786 1340.3 80.7241 1340.3ZM80.8061 1333.91C80.0861 1333.91 79.5164 1334.16 79.0972 1334.65C78.6779 1335.14 78.4682 1335.82 78.4682 1336.68C78.4682 1337.51 78.6802 1338.16 79.104 1338.64C79.5278 1339.12 80.0952 1339.36 80.8061 1339.36C81.5307 1339.36 82.0867 1339.12 82.4741 1338.65C82.866 1338.18 83.062 1337.52 83.062 1336.65C83.062 1335.77 82.866 1335.1 82.4741 1334.63C82.0867 1334.15 81.5307 1333.91 80.8061 1333.91ZM91.6616 1340.14H90.5405V1339.03H90.5132C90.0483 1339.88 89.3283 1340.3 88.353 1340.3C86.685 1340.3 85.8511 1339.31 85.8511 1337.32V1333.14H86.9653V1337.14C86.9653 1338.62 87.5304 1339.36 88.6606 1339.36C89.2075 1339.36 89.6564 1339.16 90.0073 1338.75C90.3628 1338.35 90.5405 1337.82 90.5405 1337.17V1333.14H91.6616V1340.14ZM99.7417 1340.14H98.6206V1336.14C98.6206 1334.66 98.0783 1333.91 96.9936 1333.91C96.4331 1333.91 95.9682 1334.13 95.5991 1334.55C95.2345 1334.97 95.0522 1335.5 95.0522 1336.14V1340.14H93.9311V1333.14H95.0522V1334.3H95.0796C95.6082 1333.41 96.3738 1332.97 97.3765 1332.97C98.1421 1332.97 98.7277 1333.22 99.1333 1333.72C99.5389 1334.21 99.7417 1334.92 99.7417 1335.86V1340.14ZM101.437 1339.88V1338.68C102.048 1339.13 102.72 1339.36 103.454 1339.36C104.438 1339.36 104.93 1339.03 104.93 1338.37C104.93 1338.18 104.887 1338.03 104.8 1337.9C104.718 1337.77 104.604 1337.65 104.458 1337.55C104.317 1337.45 104.149 1337.36 103.953 1337.28C103.761 1337.2 103.554 1337.12 103.331 1337.03C103.021 1336.91 102.747 1336.79 102.51 1336.66C102.278 1336.54 102.082 1336.39 101.922 1336.24C101.767 1336.08 101.649 1335.9 101.567 1335.7C101.489 1335.5 101.451 1335.26 101.451 1334.99C101.451 1334.67 101.526 1334.38 101.676 1334.13C101.827 1333.87 102.027 1333.66 102.278 1333.49C102.528 1333.32 102.813 1333.19 103.132 1333.1C103.456 1333.01 103.789 1332.97 104.13 1332.97C104.736 1332.97 105.279 1333.08 105.757 1333.29V1334.42C105.242 1334.08 104.65 1333.91 103.98 1333.91C103.77 1333.91 103.581 1333.94 103.413 1333.99C103.244 1334.04 103.098 1334.1 102.975 1334.19C102.857 1334.27 102.763 1334.38 102.695 1334.5C102.631 1334.62 102.599 1334.75 102.599 1334.9C102.599 1335.08 102.631 1335.23 102.695 1335.36C102.763 1335.48 102.861 1335.59 102.989 1335.69C103.116 1335.78 103.271 1335.87 103.454 1335.95C103.636 1336.02 103.843 1336.11 104.076 1336.2C104.386 1336.32 104.664 1336.44 104.91 1336.57C105.156 1336.69 105.365 1336.83 105.539 1336.99C105.712 1337.15 105.844 1337.33 105.935 1337.53C106.031 1337.74 106.079 1337.98 106.079 1338.26C106.079 1338.61 106.001 1338.91 105.846 1339.16C105.696 1339.42 105.493 1339.63 105.238 1339.8C104.983 1339.97 104.689 1340.09 104.356 1340.18C104.023 1340.26 103.675 1340.3 103.31 1340.3C102.59 1340.3 101.966 1340.16 101.437 1339.88ZM113.434 1336.92H108.492C108.51 1337.7 108.72 1338.3 109.121 1338.72C109.522 1339.14 110.073 1339.36 110.775 1339.36C111.563 1339.36 112.288 1339.1 112.949 1338.58V1339.63C112.333 1340.08 111.52 1340.3 110.508 1340.3C109.519 1340.3 108.742 1339.98 108.177 1339.35C107.612 1338.71 107.33 1337.82 107.33 1336.66C107.33 1335.57 107.637 1334.69 108.252 1334C108.872 1333.32 109.64 1332.97 110.556 1332.97C111.472 1332.97 112.181 1333.27 112.682 1333.86C113.183 1334.45 113.434 1335.28 113.434 1336.33V1336.92ZM112.286 1335.97C112.281 1335.32 112.124 1334.81 111.814 1334.45C111.509 1334.09 111.083 1333.91 110.536 1333.91C110.007 1333.91 109.558 1334.1 109.189 1334.48C108.82 1334.86 108.592 1335.35 108.505 1335.97H112.286ZM116.257 1340.14H115.136V1329.77H116.257V1340.14ZM119.648 1340.14H118.527V1329.77H119.648V1340.14ZM122.492 1331.36C122.291 1331.36 122.12 1331.29 121.979 1331.15C121.838 1331.02 121.767 1330.84 121.767 1330.63C121.767 1330.42 121.838 1330.25 121.979 1330.11C122.12 1329.97 122.291 1329.9 122.492 1329.9C122.697 1329.9 122.87 1329.97 123.011 1330.11C123.157 1330.25 123.23 1330.42 123.23 1330.63C123.23 1330.83 123.157 1331 123.011 1331.15C122.87 1331.29 122.697 1331.36 122.492 1331.36ZM123.039 1340.14H121.917V1333.14H123.039V1340.14ZM131.119 1340.14H129.998V1336.14C129.998 1334.66 129.455 1333.91 128.371 1333.91C127.81 1333.91 127.345 1334.13 126.976 1334.55C126.611 1334.97 126.429 1335.5 126.429 1336.14V1340.14H125.308V1333.14H126.429V1334.3H126.457C126.985 1333.41 127.751 1332.97 128.753 1332.97C129.519 1332.97 130.105 1333.22 130.51 1333.72C130.916 1334.21 131.119 1334.92 131.119 1335.86V1340.14ZM139.212 1339.57C139.212 1342.15 137.982 1343.43 135.521 1343.43C134.655 1343.43 133.899 1343.27 133.251 1342.94V1341.82C134.04 1342.25 134.792 1342.47 135.507 1342.47C137.23 1342.47 138.091 1341.56 138.091 1339.73V1338.96H138.064C137.531 1339.85 136.729 1340.3 135.658 1340.3C134.787 1340.3 134.085 1339.99 133.552 1339.37C133.024 1338.75 132.759 1337.91 132.759 1336.86C132.759 1335.67 133.044 1334.73 133.614 1334.02C134.188 1333.32 134.972 1332.97 135.965 1332.97C136.909 1332.97 137.608 1333.35 138.064 1334.11H138.091V1333.14H139.212V1339.57ZM138.091 1336.97V1335.94C138.091 1335.38 137.902 1334.91 137.524 1334.51C137.15 1334.11 136.683 1333.91 136.123 1333.91C135.43 1333.91 134.888 1334.17 134.496 1334.67C134.104 1335.17 133.908 1335.88 133.908 1336.79C133.908 1337.57 134.095 1338.19 134.468 1338.66C134.846 1339.12 135.346 1339.36 135.965 1339.36C136.594 1339.36 137.105 1339.13 137.497 1338.69C137.893 1338.24 138.091 1337.67 138.091 1336.97ZM67.7153 1349.76C67.4966 1349.63 67.2482 1349.57 66.9702 1349.57C66.1863 1349.57 65.7944 1350.07 65.7944 1351.06V1352.14H67.435V1353.09H65.7944V1359.14H64.6802V1353.09H63.4839V1352.14H64.6802V1351C64.6802 1350.27 64.8921 1349.69 65.3159 1349.26C65.7397 1348.84 66.2684 1348.62 66.9018 1348.62C67.2436 1348.62 67.5148 1348.66 67.7153 1348.74V1349.76ZM71.5708 1359.3C70.5363 1359.3 69.7091 1358.97 69.0893 1358.32C68.4741 1357.67 68.1665 1356.8 68.1665 1355.72C68.1665 1354.54 68.4878 1353.62 69.1304 1352.96C69.7729 1352.3 70.6411 1351.97 71.7349 1351.97C72.7785 1351.97 73.5919 1352.29 74.1753 1352.94C74.7632 1353.58 75.0571 1354.47 75.0571 1355.61C75.0571 1356.72 74.7404 1357.62 74.1069 1358.29C73.478 1358.96 72.6326 1359.3 71.5708 1359.3ZM71.6528 1352.91C70.9328 1352.91 70.3631 1353.16 69.9438 1353.65C69.5246 1354.14 69.3149 1354.82 69.3149 1355.68C69.3149 1356.51 69.5268 1357.16 69.9507 1357.64C70.3745 1358.12 70.9419 1358.36 71.6528 1358.36C72.3774 1358.36 72.9334 1358.12 73.3208 1357.65C73.7127 1357.18 73.9087 1356.52 73.9087 1355.65C73.9087 1354.77 73.7127 1354.1 73.3208 1353.63C72.9334 1353.15 72.3774 1352.91 71.6528 1352.91ZM80.4985 1353.27C80.3026 1353.12 80.02 1353.04 79.6509 1353.04C79.1724 1353.04 78.7713 1353.27 78.4477 1353.72C78.1287 1354.17 77.9692 1354.79 77.9692 1355.57V1359.14H76.8481V1352.14H77.9692V1353.58H77.9966C78.1561 1353.09 78.3999 1352.7 78.728 1352.43C79.0561 1352.15 79.423 1352.01 79.8286 1352.01C80.1203 1352.01 80.3436 1352.04 80.4985 1352.11V1353.27ZM85.7075 1359.14V1349.33H88.4145C91.869 1349.33 93.5962 1350.93 93.5962 1354.11C93.5962 1355.62 93.1154 1356.84 92.1538 1357.76C91.1968 1358.68 89.9139 1359.14 88.3052 1359.14H85.7075ZM86.8559 1350.37V1358.1H88.3188C89.604 1358.1 90.6043 1357.75 91.3198 1357.06C92.0353 1356.38 92.3931 1355.4 92.3931 1354.14C92.3931 1351.63 91.0578 1350.37 88.3872 1350.37H86.8559ZM100.999 1355.92H96.0571C96.0753 1356.7 96.285 1357.3 96.686 1357.72C97.0871 1358.14 97.6385 1358.36 98.3403 1358.36C99.1287 1358.36 99.8533 1358.1 100.514 1357.58V1358.63C99.8989 1359.08 99.0854 1359.3 98.0737 1359.3C97.0848 1359.3 96.3078 1358.98 95.7427 1358.35C95.1776 1357.71 94.895 1356.82 94.895 1355.66C94.895 1354.57 95.2026 1353.69 95.8179 1353C96.4376 1352.32 97.2056 1351.97 98.1216 1351.97C99.0376 1351.97 99.7462 1352.27 100.248 1352.86C100.749 1353.45 100.999 1354.28 100.999 1355.33V1355.92ZM99.8511 1354.97C99.8465 1354.32 99.6893 1353.81 99.3794 1353.45C99.074 1353.09 98.6479 1352.91 98.1011 1352.91C97.5724 1352.91 97.1235 1353.1 96.7544 1353.48C96.3852 1353.86 96.1574 1354.35 96.0708 1354.97H99.8511ZM102.278 1358.88V1357.68C102.888 1358.13 103.561 1358.36 104.294 1358.36C105.279 1358.36 105.771 1358.03 105.771 1357.37C105.771 1357.18 105.728 1357.03 105.641 1356.9C105.559 1356.77 105.445 1356.65 105.299 1356.55C105.158 1356.45 104.989 1356.36 104.793 1356.28C104.602 1356.2 104.395 1356.12 104.171 1356.03C103.861 1355.91 103.588 1355.79 103.351 1355.66C103.119 1355.54 102.923 1355.39 102.763 1355.24C102.608 1355.08 102.49 1354.9 102.408 1354.7C102.33 1354.5 102.291 1354.26 102.291 1353.99C102.291 1353.67 102.367 1353.38 102.517 1353.13C102.667 1352.87 102.868 1352.66 103.119 1352.49C103.369 1352.32 103.654 1352.19 103.973 1352.1C104.297 1352.01 104.629 1351.97 104.971 1351.97C105.577 1351.97 106.12 1352.08 106.598 1352.29V1353.42C106.083 1353.08 105.491 1352.91 104.821 1352.91C104.611 1352.91 104.422 1352.94 104.253 1352.99C104.085 1353.04 103.939 1353.1 103.816 1353.19C103.697 1353.27 103.604 1353.38 103.536 1353.5C103.472 1353.62 103.44 1353.75 103.44 1353.9C103.44 1354.08 103.472 1354.23 103.536 1354.36C103.604 1354.48 103.702 1354.59 103.83 1354.69C103.957 1354.78 104.112 1354.87 104.294 1354.95C104.477 1355.02 104.684 1355.11 104.916 1355.2C105.226 1355.32 105.504 1355.44 105.75 1355.57C105.997 1355.69 106.206 1355.83 106.379 1355.99C106.553 1356.15 106.685 1356.33 106.776 1356.53C106.872 1356.74 106.919 1356.98 106.919 1357.26C106.919 1357.61 106.842 1357.91 106.687 1358.16C106.537 1358.42 106.334 1358.63 106.079 1358.8C105.823 1358.97 105.529 1359.09 105.197 1359.18C104.864 1359.26 104.515 1359.3 104.151 1359.3C103.431 1359.3 102.806 1359.16 102.278 1358.88ZM109.223 1350.36C109.023 1350.36 108.852 1350.29 108.71 1350.15C108.569 1350.02 108.499 1349.84 108.499 1349.63C108.499 1349.42 108.569 1349.25 108.71 1349.11C108.852 1348.97 109.023 1348.9 109.223 1348.9C109.428 1348.9 109.601 1348.97 109.743 1349.11C109.888 1349.25 109.961 1349.42 109.961 1349.63C109.961 1349.83 109.888 1350 109.743 1350.15C109.601 1350.29 109.428 1350.36 109.223 1350.36ZM109.77 1359.14H108.649V1352.14H109.77V1359.14ZM118.014 1358.57C118.014 1361.15 116.784 1362.43 114.323 1362.43C113.457 1362.43 112.7 1362.27 112.053 1361.94V1360.82C112.842 1361.25 113.594 1361.47 114.309 1361.47C116.032 1361.47 116.893 1360.56 116.893 1358.73V1357.96H116.866C116.333 1358.85 115.53 1359.3 114.459 1359.3C113.589 1359.3 112.887 1358.99 112.354 1358.37C111.825 1357.75 111.561 1356.91 111.561 1355.86C111.561 1354.67 111.846 1353.73 112.416 1353.02C112.99 1352.32 113.774 1351.97 114.767 1351.97C115.71 1351.97 116.41 1352.35 116.866 1353.11H116.893V1352.14H118.014V1358.57ZM116.893 1355.97V1354.94C116.893 1354.38 116.704 1353.91 116.326 1353.51C115.952 1353.11 115.485 1352.91 114.924 1352.91C114.232 1352.91 113.689 1353.17 113.297 1353.67C112.905 1354.17 112.709 1354.88 112.709 1355.79C112.709 1356.57 112.896 1357.19 113.27 1357.66C113.648 1358.12 114.147 1358.36 114.767 1358.36C115.396 1358.36 115.906 1358.13 116.298 1357.69C116.695 1357.24 116.893 1356.67 116.893 1355.97ZM126.094 1359.14H124.973V1355.14C124.973 1353.66 124.431 1352.91 123.346 1352.91C122.786 1352.91 122.321 1353.13 121.952 1353.55C121.587 1353.97 121.405 1354.5 121.405 1355.14V1359.14H120.284V1352.14H121.405V1353.3H121.432C121.961 1352.41 122.726 1351.97 123.729 1351.97C124.495 1351.97 125.08 1352.22 125.486 1352.72C125.891 1353.21 126.094 1353.92 126.094 1354.86V1359.14ZM133.839 1355.92H128.897C128.915 1356.7 129.125 1357.3 129.526 1357.72C129.927 1358.14 130.478 1358.36 131.18 1358.36C131.969 1358.36 132.693 1358.1 133.354 1357.58V1358.63C132.739 1359.08 131.925 1359.3 130.914 1359.3C129.925 1359.3 129.148 1358.98 128.583 1358.35C128.017 1357.71 127.735 1356.82 127.735 1355.66C127.735 1354.57 128.042 1353.69 128.658 1353C129.277 1352.32 130.045 1351.97 130.961 1351.97C131.877 1351.97 132.586 1352.27 133.087 1352.86C133.589 1353.45 133.839 1354.28 133.839 1355.33V1355.92ZM132.691 1354.97C132.686 1354.32 132.529 1353.81 132.219 1353.45C131.914 1353.09 131.488 1352.91 130.941 1352.91C130.412 1352.91 129.963 1353.1 129.594 1353.48C129.225 1353.86 128.997 1354.35 128.911 1354.97H132.691ZM139.192 1353.27C138.996 1353.12 138.713 1353.04 138.344 1353.04C137.866 1353.04 137.465 1353.27 137.141 1353.72C136.822 1354.17 136.663 1354.79 136.663 1355.57V1359.14H135.541V1352.14H136.663V1353.58H136.69C136.849 1353.09 137.093 1352.7 137.421 1352.43C137.749 1352.15 138.116 1352.01 138.522 1352.01C138.814 1352.01 139.037 1352.04 139.192 1352.11V1353.27ZM139.985 1358.88V1357.68C140.596 1358.13 141.268 1358.36 142.001 1358.36C142.986 1358.36 143.478 1358.03 143.478 1357.37C143.478 1357.18 143.435 1357.03 143.348 1356.9C143.266 1356.77 143.152 1356.65 143.006 1356.55C142.865 1356.45 142.696 1356.36 142.5 1356.28C142.309 1356.2 142.102 1356.12 141.878 1356.03C141.569 1355.91 141.295 1355.79 141.058 1355.66C140.826 1355.54 140.63 1355.39 140.47 1355.24C140.315 1355.08 140.197 1354.9 140.115 1354.7C140.037 1354.5 139.999 1354.26 139.999 1353.99C139.999 1353.67 140.074 1353.38 140.224 1353.13C140.374 1352.87 140.575 1352.66 140.826 1352.49C141.076 1352.32 141.361 1352.19 141.68 1352.1C142.004 1352.01 142.336 1351.97 142.678 1351.97C143.284 1351.97 143.827 1352.08 144.305 1352.29V1353.42C143.79 1353.08 143.198 1352.91 142.528 1352.91C142.318 1352.91 142.129 1352.94 141.96 1352.99C141.792 1353.04 141.646 1353.1 141.523 1353.19C141.404 1353.27 141.311 1353.38 141.243 1353.5C141.179 1353.62 141.147 1353.75 141.147 1353.9C141.147 1354.08 141.179 1354.23 141.243 1354.36C141.311 1354.48 141.409 1354.59 141.537 1354.69C141.664 1354.78 141.819 1354.87 142.001 1354.95C142.184 1355.02 142.391 1355.11 142.624 1355.2C142.933 1355.32 143.211 1355.44 143.457 1355.57C143.704 1355.69 143.913 1355.83 144.086 1355.99C144.26 1356.15 144.392 1356.33 144.483 1356.53C144.579 1356.74 144.626 1356.98 144.626 1357.26C144.626 1357.61 144.549 1357.91 144.394 1358.16C144.244 1358.42 144.041 1358.63 143.786 1358.8C143.53 1358.97 143.236 1359.09 142.904 1359.18C142.571 1359.26 142.222 1359.3 141.858 1359.3C141.138 1359.3 140.513 1359.16 139.985 1358.88Z" fill="#313030"/>
<path id="06" d="M97.1802 1300.44C93.0135 1300.44 90.9302 1297.52 90.9302 1291.66C90.9302 1288.63 91.4917 1286.32 92.6147 1284.73C93.7459 1283.14 95.3817 1282.34 97.522 1282.34C101.591 1282.34 103.625 1285.31 103.625 1291.26C103.625 1294.22 103.068 1296.49 101.953 1298.07C100.846 1299.65 99.2554 1300.44 97.1802 1300.44ZM97.3511 1285.28C95.6828 1285.28 94.8486 1287.38 94.8486 1291.57C94.8486 1295.51 95.6665 1297.49 97.3022 1297.49C98.8973 1297.49 99.6948 1295.45 99.6948 1291.38C99.6948 1287.31 98.9136 1285.28 97.3511 1285.28ZM118.018 1294.31C118.018 1295.18 117.867 1295.98 117.566 1296.73C117.265 1297.48 116.846 1298.13 116.309 1298.68C115.771 1299.23 115.133 1299.66 114.392 1299.98C113.652 1300.29 112.842 1300.44 111.963 1300.44C110.978 1300.44 110.095 1300.26 109.314 1299.89C108.541 1299.53 107.886 1299 107.349 1298.3C106.812 1297.6 106.401 1296.75 106.116 1295.74C105.831 1294.73 105.688 1293.59 105.688 1292.31C105.688 1290.81 105.872 1289.44 106.238 1288.22C106.612 1286.99 107.141 1285.94 107.825 1285.07C108.516 1284.2 109.351 1283.53 110.327 1283.06C111.304 1282.58 112.402 1282.34 113.623 1282.34C114.974 1282.34 116.024 1282.5 116.772 1282.81V1286.04C115.885 1285.53 114.917 1285.28 113.867 1285.28C113.216 1285.28 112.626 1285.41 112.097 1285.66C111.568 1285.91 111.112 1286.27 110.73 1286.73C110.356 1287.2 110.059 1287.76 109.839 1288.42C109.627 1289.07 109.513 1289.8 109.497 1290.6H109.57C110.4 1289.45 111.625 1288.88 113.245 1288.88C113.969 1288.88 114.624 1289.01 115.21 1289.27C115.796 1289.53 116.296 1289.9 116.711 1290.38C117.126 1290.85 117.448 1291.42 117.676 1292.09C117.904 1292.76 118.018 1293.5 118.018 1294.31ZM114.246 1294.56C114.246 1292.68 113.477 1291.74 111.938 1291.74C111.589 1291.74 111.271 1291.8 110.986 1291.93C110.701 1292.06 110.457 1292.25 110.254 1292.48C110.05 1292.72 109.892 1293 109.778 1293.32C109.672 1293.64 109.619 1294 109.619 1294.39C109.619 1294.82 109.676 1295.22 109.79 1295.59C109.904 1295.97 110.063 1296.3 110.266 1296.58C110.478 1296.86 110.726 1297.08 111.011 1297.24C111.296 1297.41 111.613 1297.49 111.963 1297.49C112.313 1297.49 112.626 1297.42 112.903 1297.28C113.188 1297.13 113.428 1296.93 113.623 1296.68C113.826 1296.42 113.981 1296.11 114.087 1295.75C114.193 1295.39 114.246 1294.99 114.246 1294.56Z" fill="#5950A0"/>
</g>
</g>
<defs>
<linearGradient id="paint0_linear_208_135" x1="104.059" y1="0.84021" x2="104.059" y2="205.165" gradientUnits="userSpaceOnUse">
<stop stop-color="#6162D8"/>
<stop offset="1" stop-color="#8D92ED"/>
</linearGradient>
<linearGradient id="paint1_linear_208_135" x1="127.08" y1="63.5153" x2="127.08" y2="205.16" gradientUnits="userSpaceOnUse">
<stop stop-color="#6162D8"/>
<stop offset="1" stop-color="#8D92ED"/>
</linearGradient>
<radialGradient id="paint2_radial_208_135" cx="0" cy="0" r="1" gradientUnits="userSpaceOnUse" gradientTransform="translate(38.214 28.2956) scale(228.57)">
<stop stop-color="#F7F7F8"/>
<stop offset="0.505" stop-color="#FAFAFB"/>
<stop offset="0.715" stop-color="white"/>
</radialGradient>
<radialGradient id="paint3_radial_208_135" cx="0" cy="0" r="1" gradientUnits="userSpaceOnUse" gradientTransform="translate(110.937 237.228) rotate(45) scale(207.798 207.559)">
<stop offset="0.038" stop-color="#FF9100"/>
<stop offset="0.57" stop-color="#FFB655"/>
<stop offset="1" stop-color="#FFF04A"/>
</radialGradient>
<radialGradient id="paint4_radial_208_135" cx="0" cy="0" r="1" gradientUnits="userSpaceOnUse" gradientTransform="translate(110.166 250.433) rotate(45) scale(176.501)">
<stop stop-color="#F7F7F8"/>
<stop offset="0.505" stop-color="#FAFAFB"/>
<stop offset="0.715" stop-color="white"/>
</radialGradient>
<radialGradient id="paint5_radial_208_135" cx="0" cy="0" r="1" gradientUnits="userSpaceOnUse" gradientTransform="translate(110.772 431.199) rotate(45) scale(208.102 207.854)">
<stop offset="0.038" stop-color="#B40042"/>
<stop offset="0.489" stop-color="#C50048"/>
<stop offset="1" stop-color="#FF5E93"/>
</radialGradient>
<radialGradient id="paint6_radial_208_135" cx="0" cy="0" r="1" gradientUnits="userSpaceOnUse" gradientTransform="translate(101.345 510.316) rotate(45) scale(86.2153 86.203)">
<stop stop-color="#920035"/>
<stop offset="0.291" stop-color="#930136" stop-opacity="0.984"/>
<stop offset="0.453" stop-color="#99063B" stop-opacity="0.929"/>
<stop offset="0.583" stop-color="#A40F44" stop-opacity="0.835"/>
<stop offset="0.697" stop-color="#B21C51" stop-opacity="0.698"/>
<stop offset="0.799" stop-color="#C52C61" stop-opacity="0.525"/>
<stop offset="0.894" stop-color="#DD4075" stop-opacity="0.31"/>
<stop offset="0.981" stop-color="#F8588D" stop-opacity="0.063"/>
<stop offset="1" stop-color="#FF5E93" stop-opacity="0"/>
</radialGradient>
<radialGradient id="paint7_radial_208_135" cx="0" cy="0" r="1" gradientUnits="userSpaceOnUse" gradientTransform="translate(109.464 453.698) rotate(45) scale(158.974 158.792)">
<stop stop-color="#F7F7F8"/>
<stop offset="0.505" stop-color="#FAFAFB"/>
<stop offset="0.715" stop-color="white"/>
</radialGradient>
<radialGradient id="paint8_radial_208_135" cx="0" cy="0" r="1" gradientUnits="userSpaceOnUse" gradientTransform="translate(111.332 625.616) rotate(45) scale(215.165 215.165)">
<stop offset="0.038" stop-color="#199A8E"/>
<stop offset="0.554" stop-color="#7AF4AB"/>
<stop offset="1" stop-color="#F1FF8D"/>
</radialGradient>
<radialGradient id="paint9_radial_208_135" cx="0" cy="0" r="1" gradientUnits="userSpaceOnUse" gradientTransform="translate(95.592 701.789) rotate(45) scale(87.9993 87.9889)">
<stop stop-color="#199A8E"/>
<stop offset="0.286" stop-color="#1B9B8E" stop-opacity="0.984"/>
<stop offset="0.445" stop-color="#22A091" stop-opacity="0.933"/>
<stop offset="0.574" stop-color="#2EA995" stop-opacity="0.843"/>
<stop offset="0.686" stop-color="#3FB69B" stop-opacity="0.714"/>
<stop offset="0.787" stop-color="#56C7A2" stop-opacity="0.549"/>
<stop offset="0.88" stop-color="#71DBAC" stop-opacity="0.345"/>
<stop offset="0.965" stop-color="#91F3B6" stop-opacity="0.11"/>
<stop offset="1" stop-color="#A1FFBC" stop-opacity="0"/>
</radialGradient>
<radialGradient id="paint10_radial_208_135" cx="0" cy="0" r="1" gradientUnits="userSpaceOnUse" gradientTransform="translate(91.4112 650.182) rotate(30) scale(164.338)">
<stop stop-color="#F7F7F8"/>
<stop offset="0.505" stop-color="#FAFAFB"/>
<stop offset="0.715" stop-color="white"/>
</radialGradient>
<radialGradient id="paint11_radial_208_135" cx="0" cy="0" r="1" gradientUnits="userSpaceOnUse" gradientTransform="translate(109.766 849.432) rotate(45) scale(161.388)">
<stop stop-color="#F7F7F8"/>
<stop offset="0.505" stop-color="#FAFAFB"/>
<stop offset="0.715" stop-color="white"/>
</radialGradient>
<radialGradient id="paint12_radial_208_135" cx="0" cy="0" r="1" gradientUnits="userSpaceOnUse" gradientTransform="translate(113.117 1023.87) rotate(47) scale(213.941)">
<stop offset="0.038" stop-color="#0956C6"/>
<stop offset="0.554" stop-color="#07A9F0"/>
<stop offset="1" stop-color="#93DCFC"/>
</radialGradient>
<radialGradient id="paint13_radial_208_135" cx="0" cy="0" r="1" gradientUnits="userSpaceOnUse" gradientTransform="translate(58.0322 1074.22) rotate(47) scale(87.4804 87.4705)">
<stop stop-color="#0956C6"/>
<stop offset="0.265" stop-color="#0A57C6" stop-opacity="0.988"/>
<stop offset="0.413" stop-color="#105DC8" stop-opacity="0.949"/>
<stop offset="0.532" stop-color="#1966CC" stop-opacity="0.878"/>
<stop offset="0.636" stop-color="#2773D1" stop-opacity="0.776"/>
<stop offset="0.729" stop-color="#3984D8" stop-opacity="0.651"/>
<stop offset="0.816" stop-color="#4F9AE1" stop-opacity="0.49"/>
<stop offset="0.897" stop-color="#69B3EB" stop-opacity="0.302"/>
<stop offset="0.971" stop-color="#86CFF7" stop-opacity="0.09"/>
<stop offset="1" stop-color="#93DCFC" stop-opacity="0"/>
</radialGradient>
<radialGradient id="paint14_radial_208_135" cx="0" cy="0" r="1" gradientUnits="userSpaceOnUse" gradientTransform="translate(127.365 1049.32) rotate(60) scale(163.363)">
<stop stop-color="#F7F7F8"/>
<stop offset="0.505" stop-color="#FAFAFB"/>
<stop offset="0.715" stop-color="white"/>
</radialGradient>
<radialGradient id="paint15_radial_208_135" cx="0" cy="0" r="1" gradientUnits="userSpaceOnUse" gradientTransform="translate(73.731 1407.44) rotate(-119.991) scale(214.261 214.262)">
<stop offset="0.038" stop-color="#2B3894"/>
<stop offset="0.054" stop-color="#353C95"/>
<stop offset="0.081" stop-color="#51489A"/>
<stop offset="0.554" stop-color="#8078BF"/>
<stop offset="1" stop-color="#D2A8D1"/>
</radialGradient>
<radialGradient id="paint16_radial_208_135" cx="0" cy="0" r="1" gradientUnits="userSpaceOnUse" gradientTransform="translate(154.109 1275.65) rotate(135) scale(87.6088 87.5949)">
<stop stop-color="#2B3894"/>
<stop offset="0.289" stop-color="#2D3994" stop-opacity="0.984"/>
<stop offset="0.451" stop-color="#363F98" stop-opacity="0.929"/>
<stop offset="0.581" stop-color="#464A9E" stop-opacity="0.835"/>
<stop offset="0.694" stop-color="#5C59A6" stop-opacity="0.702"/>
<stop offset="0.796" stop-color="#796CB0" stop-opacity="0.533"/>
<stop offset="0.89" stop-color="#9C84BD" stop-opacity="0.322"/>
<stop offset="0.977" stop-color="#C59FCC" stop-opacity="0.075"/>
<stop offset="1" stop-color="#D2A8D1" stop-opacity="0"/>
</radialGradient>
<radialGradient id="paint17_radial_208_135" cx="0" cy="0" r="1" gradientUnits="userSpaceOnUse" gradientTransform="translate(67.6863 1246.68) rotate(15) scale(179.903)">
<stop stop-color="#F7F7F8"/>
<stop offset="0.505" stop-color="#FAFAFB"/>
<stop offset="0.715" stop-color="white"/>
</radialGradient>
</defs>
</svg>