<svg xmlns="http://www.w3.org/2000/svg" width="40.602" height="40.599" viewBox="0 0 40.602 40.599">
  <path id="Help_migrate_your_current_applications_to_the_cloud" data-name="Help migrate your current applications to the cloud" d="M20.24,29.376h3.045V26.331H20.24Zm-13.2,13.2A1.015,1.015,0,1,1,8.06,41.556,1.015,1.015,0,0,1,7.045,42.571Zm24.361-4.06a1.015,1.015,0,1,1-1.015,1.015A1.015,1.015,0,0,1,31.406,38.511Zm-3.045,0a1.015,1.015,0,1,1-1.015,1.015A1.015,1.015,0,0,1,28.361,38.511ZM17.2,40.541h4.06a1.015,1.015,0,1,0,0-2.03H17.2a1.015,1.015,0,1,0,0,2.03Zm14.21-8.12a1.015,1.015,0,1,1-1.015,1.015A1.015,1.015,0,0,1,31.406,32.421Zm-3.045,0a1.015,1.015,0,1,1-1.015,1.015A1.015,1.015,0,0,1,28.361,32.421ZM17.2,34.451h4.06a1.015,1.015,0,1,0,0-2.03H17.2a1.015,1.015,0,1,0,0,2.03Zm24.361-4.06a1.015,1.015,0,1,1-1.015,1.015A1.015,1.015,0,0,1,41.556,30.391Zm-16.24-4.06v3.045h3.045V26.331ZM16.18,17.2a1.015,1.015,0,1,1-1.015,1.015A1.015,1.015,0,0,1,16.18,17.2Zm16.24,0a1.015,1.015,0,1,1-1.015,1.015A1.015,1.015,0,0,1,32.421,17.2Zm-8.12,0a1.015,1.015,0,1,1-1.015,1.015A1.015,1.015,0,0,1,24.3,17.2ZM20.24,22.27v4.06H18.21v3.045H16.18a3.045,3.045,0,0,0-3.045,3.045v2.03a3.136,3.136,0,0,0,.173,1.015H7.045A1.015,1.015,0,0,0,6.03,36.481v2.2a3.045,3.045,0,1,0,2.03,0V37.5h5.248a3.136,3.136,0,0,0-.173,1.015v2.03a3.045,3.045,0,0,0,3.045,3.045h16.24a3.045,3.045,0,0,0,3.045-3.045v-2.03a3.136,3.136,0,0,0-.173-1.015h6.263a1.015,1.015,0,0,0,1.015-1.015v-2.2a3.045,3.045,0,1,0-2.03,0v1.188H35.293a3.136,3.136,0,0,0,.173-1.015v-2.03a3.045,3.045,0,0,0-3.045-3.045h-2.03V26.331h8.12a6.09,6.09,0,0,0,0-12.18v-.508A7.613,7.613,0,0,0,30.9,6.03a7.268,7.268,0,0,0-4.06,1.3,5.5,5.5,0,0,0-1.015-1.3A7.755,7.755,0,0,0,20.748,4a7.623,7.623,0,0,0-7.613,7.227,4.06,4.06,0,0,0-2.913,2.923H10.09a6.09,6.09,0,1,0,0,12.18h8.12V22.687l-1.482-1.431a3.339,3.339,0,0,1-.548,0,3.045,3.045,0,1,1,2.355-1.117l1.411,1.411a1.015,1.015,0,0,1,.294.721Zm5.075-1.188a3.045,3.045,0,1,0-2.03,0v5.248h2.03Zm5.075,1.6,1.482-1.431a3.339,3.339,0,0,0,.548,0,3.045,3.045,0,1,0-2.355-1.117L28.655,21.55a1.015,1.015,0,0,0-.294.721v4.06h2.03Z" transform="translate(-4 -4)" fill="#fff" fill-rule="evenodd"/>
</svg>
