<svg xmlns="http://www.w3.org/2000/svg" width="39" height="39" viewBox="0 0 39 39">
  <g id="Sales_Strategy" data-name="Sales Strategy" transform="translate(0 -0.003)">
    <path id="Path_29756" data-name="Path 29756" d="M37.857,194.7H36.638V172.149a1.143,1.143,0,0,0-1.143-1.143h-4.57a1.143,1.143,0,0,0-1.143,1.143V194.7H27.5v-14.93a1.143,1.143,0,0,0-1.143-1.143h-4.57a1.143,1.143,0,0,0-1.143,1.143V194.7H18.357v-10.74a1.143,1.143,0,0,0-1.143-1.143h-4.57a1.143,1.143,0,0,0-1.143,1.143V194.7H9.217v-8a1.143,1.143,0,0,0-1.143-1.143H3.5A1.143,1.143,0,0,0,2.361,186.7v8H1.143a1.143,1.143,0,1,0,0,2.285H37.857a1.143,1.143,0,1,0,0-2.285Z" transform="translate(0 -157.978)" fill="#fff"/>
    <path id="Path_29757" data-name="Path 29757" d="M1.143,24.553c7.131,0,14.864-2.561,21.775-7.211A42.215,42.215,0,0,0,35.644,4.283l1.11,4.141a1.238,1.238,0,0,0,1.4.808,1.132,1.132,0,0,0,.808-1.4L37.09.85a1.142,1.142,0,0,0-1.4-.808L28.708,1.913A1.143,1.143,0,1,0,29.3,4.12l4.5-1.205A39.665,39.665,0,0,1,21.642,15.446c-6.538,4.4-13.818,6.822-20.5,6.822a1.143,1.143,0,0,0,0,2.285Z" transform="translate(0 0)" fill="#fff"/>
  </g>
</svg>
