<svg xmlns="http://www.w3.org/2000/svg" width="60.802" height="22.165" viewBox="0 0 60.802 22.165">
  <g id="symbols" transform="translate(16.071 -15.649)">
    <g id="Group_25553" data-name="Group 25553" transform="translate(5.066 19.299)">
      <g id="Group_25552" data-name="Group 25552" transform="translate(0)">
        <path id="Path_30399" data-name="Path 30399" d="M7.345,23.227a2.045,2.045,0,0,0,1.254-2.1c0-1.055-.641-2.625-3.151-2.625H.475V28.742H4.809c2.1,0,2.652-.356,3.236-.93a2.972,2.972,0,0,0,.881-2.105A2.383,2.383,0,0,0,7.345,23.227Zm-4.816-2.95H4.982c.968,0,1.567.255,1.567,1.1,0,.815-.668,1.142-1.512,1.142H2.529Zm2.62,6.7H2.529V24.237H5.251c.772,0,1.539.346,1.539,1.24C6.788,26.516,6.189,26.974,5.149,26.974Z" transform="translate(-0.475 -18.506)" fill="#6364d9"/>
      </g>
    </g>
    <g id="Group_25555" data-name="Group 25555" transform="translate(5.067 31.156)">
      <g id="Group_25554" data-name="Group 25554" transform="translate(0)">
        <path id="Path_30400" data-name="Path 30400" d="M.476,27.788v.93H2.06v4.314H3.152V28.718H4.74v-.93Z" transform="translate(-0.476 -27.788)"/>
      </g>
    </g>
    <g id="Group_25557" data-name="Group 25557" transform="translate(35.68 19.297)">
      <g id="Group_25556" data-name="Group 25556">
        <path id="Path_30401" data-name="Path 30401" d="M29.072,22.7l4.177-4.193H30.485l-3.906,4.161V18.505H24.44V28.739h2.138V25.275l1-1.027,3.163,4.49h2.752Z" transform="translate(-24.44 -18.505)" fill="#6364d9"/>
      </g>
    </g>
    <g id="Group_25559" data-name="Group 25559" transform="translate(14.138 19.297)">
      <g id="Group_25558" data-name="Group 25558">
        <path id="Path_30402" data-name="Path 30402" d="M13.688,18.505H11.223L7.577,28.74H9.828l.712-2.108h3.777l.657,2.107H17.3Zm-2.579,6.357,1.312-4.047h.029l1.267,4.047Z" transform="translate(-7.577 -18.505)" fill="#6364d9"/>
      </g>
    </g>
    <g id="Group_25563" data-name="Group 25563" transform="translate(9.984 31.155)">
      <g id="Group_25562" data-name="Group 25562">
        <path id="Path_30404" data-name="Path 30404" d="M8.481,31.847c0-.979-.235-1.139-.666-1.329a1.251,1.251,0,0,0,.811-1.251,1.475,1.475,0,0,0-1.649-1.481H4.325v5.241H5.4v-2.05H6.531c.811,0,.856.278.856.991A3.5,3.5,0,0,0,7.5,33.027H8.714V32.89C8.481,32.8,8.481,32.612,8.481,31.847ZM6.681,30.1H5.4V28.693H6.764c.641,0,.766.406.766.686C7.529,29.895,7.253,30.1,6.681,30.1Z" transform="translate(-4.325 -27.787)"/>
      </g>
    </g>
    <g id="Group_25565" data-name="Group 25565" transform="translate(30.543 31.156)">
      <g id="Group_25564" data-name="Group 25564">
        <path id="Path_30405" data-name="Path 30405" d="M24.149,28.718v-.93h-3.73v5.245h1.1v-2.2h2.307V29.9H21.515V28.718Z" transform="translate(-20.419 -27.788)"/>
      </g>
    </g>
    <g id="Group_25567" data-name="Group 25567" transform="translate(35.009 31.158)">
      <g id="Group_25566" data-name="Group 25566">
        <path id="Path_30406" data-name="Path 30406" d="M24.988,32.1V30.747h2.555V29.82H24.988v-1.1h2.784V27.79H23.915v5.241h3.979V32.1Z" transform="translate(-23.915 -27.79)"/>
      </g>
    </g>
    <g id="Group_25569" data-name="Group 25569" transform="translate(25.403 31.015)">
      <g id="Group_25568" data-name="Group 25568">
        <path id="Path_30407" data-name="Path 30407" d="M19.328,30.073l-1.275-.314c-.22-.052-.557-.141-.557-.549,0-.474.5-.626.913-.626.958,0,1.046.553,1.076.787h1.048c-.008-.643-.437-1.693-2.044-1.693-1.7,0-2.015,1.028-2.015,1.612,0,1.155.816,1.348,1.665,1.542l.561.133c.553.134.949.241.949.653,0,.548-.579.676-1.093.676-.958,0-1.1-.554-1.113-.847H16.395c0,.653.326,1.753,2.239,1.753.457,0,2.066-.143,2.066-1.716C20.7,30.542,20.042,30.247,19.328,30.073Z" transform="translate(-16.395 -27.678)"/>
      </g>
    </g>
    <g id="Group_25571" data-name="Group 25571" transform="translate(39.884 31.155)">
      <g id="Group_25570" data-name="Group 25570" transform="translate(0)">
        <path id="Path_30408" data-name="Path 30408" d="M31.884,31.847c0-.979-.238-1.139-.666-1.329a1.256,1.256,0,0,0,.814-1.251,1.477,1.477,0,0,0-1.652-1.481H27.731v5.241h1.076v-2.05h1.131c.809,0,.856.278.856.991a3.448,3.448,0,0,0,.116,1.058h1.208V32.89C31.884,32.8,31.884,32.612,31.884,31.847Zm-1.8-1.749H28.805V28.693h1.362c.644,0,.769.406.769.686C30.936,29.895,30.659,30.1,30.088,30.1Z" transform="translate(-27.731 -27.787)"/>
      </g>
    </g>
    <g id="Group_25573" data-name="Group 25573" transform="translate(25.128 19.301)">
      <g id="Group_25572" data-name="Group 25572">
        <path id="Path_30409" data-name="Path 30409" d="M22.523,18.508v7.126H22.5l-4.064-7.126H16.18V28.743h2l0-7.3H18.2l4.177,7.3h2.136V18.508Z" transform="translate(-16.18 -18.508)" fill="#6364d9"/>
      </g>
    </g>
    <g id="Group_25575" data-name="Group 25575" transform="translate(14.704 31.156)">
      <g id="Group_25574" data-name="Group 25574">
        <path id="Path_30410" data-name="Path 30410" d="M11.155,27.788H9.889L8.02,33.029H9.175l.364-1.082h1.934l.337,1.082H13ZM9.833,31.043l.673-2.072h.01l.654,2.072Z" transform="translate(-8.02 -27.788)"/>
      </g>
    </g>
    <g id="Group_25577" data-name="Group 25577" transform="translate(20.34 31.156)">
      <g id="Group_25576" data-name="Group 25576">
        <path id="Path_30411" data-name="Path 30411" d="M15.682,27.788v3.648h-.013l-2.084-3.648H12.432v5.241h1.021V29.29h.017l2.138,3.739h1.1V27.788Z" transform="translate(-12.432 -27.788)"/>
      </g>
    </g>
    <g id="Group_25581" data-name="Group 25581" transform="translate(-16.071 15.649)">
      <g id="Group_25561" data-name="Group 25561" transform="translate(0)">
        <g id="Group_25560" data-name="Group 25560">
          <path id="Path_30403" data-name="Path 30403" d="M22.853,3.583a12.838,12.838,0,0,0-2.178-2.076,10.04,10.04,0,0,0-1.332-.85A8.145,8.145,0,0,0,17.766,0a7.665,7.665,0,0,0,.244,1.691,9.725,9.725,0,0,0,.471,1.465c-.452.133-1,.319-1.62.56-.4.179-.838.34-1.28.579a13.482,13.482,0,0,0-1.364.766c-.469.264-.906.64-1.364.964a14.082,14.082,0,0,0-1.248,1.192,8.861,8.861,0,0,0-1.05,1.354c-.147.239-.317.46-.439.7s-.23.494-.34.735a6.922,6.922,0,0,0-.493,1.422,5.769,5.769,0,0,0-.252,1.3,8.47,8.47,0,0,0-.1,1.1c.01.327.018.611.026.846.014.464.018.728.018.728s.05-.262.134-.718c.042-.226.095-.5.155-.812a8.189,8.189,0,0,1,.322-1.012,5.231,5.231,0,0,1,.489-1.133,6.217,6.217,0,0,1,.709-1.151c.139-.183.282-.372.424-.56s.341-.34.506-.511a7.181,7.181,0,0,1,1.113-.924,12.119,12.119,0,0,1,1.225-.742c.45-.18.846-.4,1.288-.535a10.352,10.352,0,0,1,1.243-.374c.395-.115.792-.166,1.138-.24.222-.032.427-.059.623-.083-.023.059-.047.115-.068.175a10.489,10.489,0,0,0-.469,1.746c-.05.31-.091.625-.123.945a7.091,7.091,0,0,0-.008,1.018,7.517,7.517,0,0,0,.924-.429c.277-.162.549-.331.809-.5a10.388,10.388,0,0,0,1.4-1.15,13.115,13.115,0,0,0,2.138-2.721l.075-.125A1.72,1.72,0,0,0,22.853,3.583Z" transform="translate(-8.929)" fill="#ffa950"/>
        </g>
      </g>
      <g id="Group_25579" data-name="Group 25579" transform="translate(2.646 6.505)">
        <g id="Group_25578" data-name="Group 25578">
          <path id="Path_30412" data-name="Path 30412" d="M25,5.818c-.024-.462-.045-.726-.045-.726s-.037.262-.115.72c-.037.226-.079.5-.129.816a8.172,8.172,0,0,1-.293,1.021A5.027,5.027,0,0,1,23.964,8.8a6.137,6.137,0,0,1-.673,1.171c-.133.188-.27.379-.4.574s-.331.349-.5.525a7.048,7.048,0,0,1-1.083.956,11.684,11.684,0,0,1-1.2.778c-.442.193-.832.43-1.27.572a9.876,9.876,0,0,1-1.231.411c-.39.128-.783.19-1.128.273-.221.04-.427.073-.621.1.018-.06.042-.116.063-.176a10.726,10.726,0,0,0,.416-1.76c.04-.312.069-.627.092-.949a7.19,7.19,0,0,0-.02-1.017,7.126,7.126,0,0,0-.911.456c-.275.17-.537.346-.793.528a10.433,10.433,0,0,0-1.359,1.192,13.108,13.108,0,0,0-2.055,2.784l-.073.125a1.719,1.719,0,0,0,.227,1.981,12.966,12.966,0,0,0,2.238,2.009,9.638,9.638,0,0,0,1.359.809,7.794,7.794,0,0,0,1.594.612,8.233,8.233,0,0,0-.294-1.681,9.685,9.685,0,0,0-.516-1.451c.45-.147.99-.349,1.6-.607.393-.189.827-.365,1.262-.617a12.574,12.574,0,0,0,1.335-.806c.46-.278.887-.667,1.337-1.005a14.285,14.285,0,0,0,1.212-1.228,8.856,8.856,0,0,0,1.008-1.383c.141-.244.3-.47.418-.718s.215-.5.317-.745a7.019,7.019,0,0,0,.452-1.436,5.813,5.813,0,0,0,.212-1.309,8.114,8.114,0,0,0,.069-1.1C25.025,6.338,25.01,6.053,25,5.818Z" transform="translate(-11 -5.092)" fill="#ffa950"/>
        </g>
      </g>
    </g>
  </g>
</svg>
