<svg xmlns="http://www.w3.org/2000/svg" width="71.601" height="18.298" viewBox="0 0 71.601 18.298">
  <g id="paypal" transform="translate(0 -187.6)">
    <path id="Path_30390" data-name="Path 30390" d="M353.224,221.2h-3.864a.755.755,0,0,0-.568.455l-1.591,10a.3.3,0,0,0,.341.341h2.046a.3.3,0,0,0,.341-.341l.455-2.841a.52.52,0,0,1,.568-.455h1.25q3.921,0,4.432-3.751a2.979,2.979,0,0,0-.455-2.5,4.584,4.584,0,0,0-2.955-.909m.455,3.751c-.227,1.364-1.25,1.364-2.273,1.364h-.682l.455-2.614c0-.114.114-.227.341-.227h.227c.682,0,1.364,0,1.7.455.227.114.227.455.227,1.023" transform="translate(-297.875 -28.827)" fill="#139ad6"/>
    <g id="Group_25551" data-name="Group 25551" transform="translate(21.48 192.373)">
      <path id="Path_30391" data-name="Path 30391" d="M157.224,221.2h-3.864a.755.755,0,0,0-.568.455l-1.591,10a.3.3,0,0,0,.341.341h1.818a.755.755,0,0,0,.568-.455l.455-2.728a.52.52,0,0,1,.568-.455h1.25q3.921,0,4.432-3.751a2.979,2.979,0,0,0-.455-2.5,4.368,4.368,0,0,0-2.955-.909m.455,3.751c-.227,1.364-1.25,1.364-2.273,1.364h-.568l.455-2.614c0-.114.114-.227.341-.227h.227c.682,0,1.364,0,1.7.455a1.217,1.217,0,0,1,.114,1.023" transform="translate(-151.2 -221.2)" fill="#263b80"/>
      <path id="Path_30392" data-name="Path 30392" d="M222.721,245.427H220.9c-.114,0-.341.114-.341.227l-.114.568-.114-.227a2.673,2.673,0,0,0-2.159-.8,4.367,4.367,0,0,0-4.205,3.751,3.388,3.388,0,0,0,.682,2.841,2.864,2.864,0,0,0,2.387.909,3.633,3.633,0,0,0,2.614-1.023l-.114.568a.3.3,0,0,0,.341.341h1.7a.755.755,0,0,0,.568-.455l1.023-6.365c-.114-.114-.341-.341-.455-.341m-2.614,3.637a2.2,2.2,0,0,1-2.159,1.818,1.817,1.817,0,0,1-1.25-.455,2.424,2.424,0,0,1-.341-1.364,2.027,2.027,0,0,1,3.3-1.364,1.984,1.984,0,0,1,.455,1.364" transform="translate(-204.992 -241.79)" fill="#263b80"/>
    </g>
    <path id="Path_30393" data-name="Path 30393" d="M417.921,245.427H416.1c-.114,0-.341.114-.341.227l-.114.568-.114-.227a2.673,2.673,0,0,0-2.159-.8,4.367,4.367,0,0,0-4.205,3.751,3.387,3.387,0,0,0,.682,2.841,2.864,2.864,0,0,0,2.387.909,3.633,3.633,0,0,0,2.614-1.023l-.114.568a.3.3,0,0,0,.341.341h1.7a.755.755,0,0,0,.568-.455l1.023-6.365c-.114-.114-.227-.341-.455-.341m-2.614,3.637a2.2,2.2,0,0,1-2.159,1.818,1.817,1.817,0,0,1-1.25-.455,2.423,2.423,0,0,1-.341-1.364,2.027,2.027,0,0,1,3.3-1.364,1.3,1.3,0,0,1,.455,1.364" transform="translate(-350.98 -49.417)" fill="#139ad6"/>
    <path id="Path_30394" data-name="Path 30394" d="M292.751,246.8h-1.932a.59.59,0,0,0-.455.227l-2.5,3.864-1.137-3.637a.525.525,0,0,0-.568-.341h-1.818c-.227,0-.341.227-.341.455l2.046,6.024-1.932,2.728c-.114.227,0,.568.227.568h1.818a.59.59,0,0,0,.455-.227l6.251-8.978c.341-.341.114-.682-.114-.682" transform="translate(-243.654 -50.79)" fill="#263b80"/>
    <path id="Path_30395" data-name="Path 30395" d="M476.791,221.958,475.2,232.187a.3.3,0,0,0,.341.341h1.591a.755.755,0,0,0,.568-.455l1.591-10a.3.3,0,0,0-.341-.341h-1.818c-.114-.114-.227,0-.341.227" transform="translate(-407.691 -29.244)" fill="#139ad6"/>
    <path id="Path_30396" data-name="Path 30396" d="M13.07,188.964c-.8-.909-2.273-1.364-4.319-1.364H3.069a.975.975,0,0,0-.8.682L0,203.17a.52.52,0,0,0,.455.568H3.978l.909-5.569v.227a.975.975,0,0,1,.8-.682h1.7c3.3,0,5.8-1.364,6.592-5.114v-.341h0a3.969,3.969,0,0,0-.909-3.3" fill="#263b80"/>
    <path id="Path_30397" data-name="Path 30397" d="M35.829,220.4h0v.341c-.8,3.864-3.3,5.114-6.592,5.114h-1.7a.975.975,0,0,0-.8.682L25.6,233.47a.416.416,0,0,0,.455.455H29.01a.636.636,0,0,0,.682-.568v-.114l.568-3.523v-.227a.636.636,0,0,1,.682-.568H31.4c2.841,0,5.114-1.137,5.683-4.546a4.178,4.178,0,0,0-.568-3.41,1.164,1.164,0,0,0-.682-.568" transform="translate(-21.963 -28.14)" fill="#139ad6"/>
    <path id="Path_30398" data-name="Path 30398" d="M42.583,215.941c-.114,0-.227-.114-.341-.114a.417.417,0,0,1-.341-.114,6.005,6.005,0,0,0-1.477-.114H35.991a.418.418,0,0,0-.341.114.625.625,0,0,0-.341.568l-.909,5.91v.227a.975.975,0,0,1,.8-.682h1.7c3.3,0,5.8-1.364,6.592-5.114a.418.418,0,0,1,.114-.341c-.227-.114-.341-.227-.568-.227-.341-.114-.341-.114-.455-.114" transform="translate(-29.513 -24.022)" fill="#232c65"/>
  </g>
</svg>
