<svg xmlns="http://www.w3.org/2000/svg" width="43" height="13.036" viewBox="0 0 43 13.036">
  <g id="visa" transform="translate(0 -175.6)">
    <path id="Path_30413" data-name="Path 30413" d="M184.8,192.686l2.184-12.286H190.4l-2.116,12.286Z" transform="translate(-169.033 -4.39)" fill="#3c58bf"/>
    <path id="Path_30414" data-name="Path 30414" d="M184.8,192.686l2.8-12.286h2.8l-2.116,12.286Z" transform="translate(-169.033 -4.39)" fill="#293688"/>
    <path id="Path_30415" data-name="Path 30415" d="M258.443,176.146a8.656,8.656,0,0,0-3.14-.546c-3.413,0-5.87,1.706-5.87,4.163,0,1.843,1.706,2.8,3.071,3.413s1.775,1.024,1.775,1.57c0,.819-1.092,1.229-2.048,1.229a7.419,7.419,0,0,1-3.276-.683l-.478-.2-.478,2.8a11.067,11.067,0,0,0,3.89.683c3.617,0,6.006-1.706,6.006-4.3,0-1.433-.887-2.525-2.935-3.413-1.229-.614-1.979-.956-1.979-1.57,0-.546.614-1.092,1.979-1.092a6.26,6.26,0,0,1,2.594.478l.341.137.546-2.662Z" transform="translate(-226.841)" fill="#3c58bf"/>
    <path id="Path_30416" data-name="Path 30416" d="M258.443,176.146a8.656,8.656,0,0,0-3.14-.546c-3.413,0-5.256,1.706-5.256,4.163a3.568,3.568,0,0,0,2.457,3.413c1.365.614,1.775,1.024,1.775,1.57,0,.819-1.092,1.229-2.048,1.229a7.419,7.419,0,0,1-3.276-.683l-.478-.2-.478,2.8a11.067,11.067,0,0,0,3.89.683c3.617,0,6.006-1.706,6.006-4.3,0-1.433-.887-2.525-2.935-3.413-1.229-.614-1.979-.956-1.979-1.57,0-.546.614-1.092,1.979-1.092a6.26,6.26,0,0,1,2.594.478l.341.137.546-2.662Z" transform="translate(-226.841)" fill="#293688"/>
    <path id="Path_30417" data-name="Path 30417" d="M365.294,180.4c-.819,0-1.433.068-1.775.887l-5.119,11.4h3.686l.683-2.048h4.368l.41,2.048h3.276L367.956,180.4Zm-1.57,8.19c.2-.614,1.365-3.617,1.365-3.617s.273-.751.478-1.229l.2,1.16s.683,3.071.819,3.754h-2.867Z" transform="translate(-327.822 -4.39)" fill="#3c58bf"/>
    <path id="Path_30418" data-name="Path 30418" d="M366.113,180.4c-.819,0-1.433.068-1.775.887l-5.938,11.4h3.686l.683-2.048h4.368l.41,2.048h3.276L367.956,180.4Zm-2.389,8.19c.273-.683,1.365-3.617,1.365-3.617s.273-.751.478-1.229l.2,1.16s.683,3.071.819,3.754h-2.867Z" transform="translate(-327.822 -4.39)" fill="#293688"/>
    <path id="Path_30419" data-name="Path 30419" d="M56.319,189.732l-.341-1.775a9.894,9.894,0,0,0-4.778-5.392l3.071,10.921h3.686L63.486,181.2H59.8Z" transform="translate(-46.832 -5.122)" fill="#3c58bf"/>
    <path id="Path_30420" data-name="Path 30420" d="M56.319,189.732l-.341-1.775a9.894,9.894,0,0,0-4.778-5.392l3.071,10.921h3.686L63.486,181.2h-3Z" transform="translate(-46.832 -5.122)" fill="#293688"/>
    <path id="Path_30421" data-name="Path 30421" d="M0,180.4l.614.137c4.368,1.024,7.371,3.617,8.532,6.689l-1.229-5.8c-.2-.819-.819-1.024-1.57-1.024Z" transform="translate(0 -4.39)" fill="#ffbc00"/>
    <path id="Path_30422" data-name="Path 30422" d="M0,180.4H0c4.368,1.024,7.986,3.686,9.146,6.757l-1.16-4.846a1.666,1.666,0,0,0-1.638-1.3Z" transform="translate(0 -4.39)" fill="#f7981d"/>
    <path id="Path_30423" data-name="Path 30423" d="M0,180.4H0c4.368,1.024,7.986,3.686,9.146,6.757L8.327,184.5a2.407,2.407,0,0,0-1.433-1.979Z" transform="translate(0 -4.39)" fill="#ed7c00"/>
    <g id="Group_25580" data-name="Group 25580" transform="translate(4.437 177.375)">
      <path id="Path_30424" data-name="Path 30424" d="M60.463,203.225,58.143,200.9,57.051,203.5l-.273-1.706A9.894,9.894,0,0,0,52,196.4l3.071,10.921h3.686Z" transform="translate(-52 -196.4)" fill="#051244"/>
      <path id="Path_30425" data-name="Path 30425" d="M188.281,292.2l-2.935-3-.546,3Z" transform="translate(-173.47 -281.283)" fill="#051244"/>
      <path id="Path_30426" data-name="Path 30426" d="M253.938,274.8h0c.273.273.41.478.341.751,0,.819-1.092,1.229-2.048,1.229a7.419,7.419,0,0,1-3.276-.683l-.478-.2-.478,2.8a11.067,11.067,0,0,0,3.89.683,6.758,6.758,0,0,0,4.983-1.706Z" transform="translate(-231.278 -268.111)" fill="#051244"/>
      <path id="Path_30427" data-name="Path 30427" d="M364,228.541h3.208l.683-2.048h4.368l.41,2.048h3.276l-1.16-4.983-4.1-3.959.2,1.092s.683,3.071.819,3.754h-2.867c.273-.683,1.365-3.617,1.365-3.617s.273-.751.478-1.229" transform="translate(-337.381 -217.621)" fill="#051244"/>
    </g>
  </g>
</svg>
