<svg xmlns="http://www.w3.org/2000/svg" width="58.6" height="58.6" viewBox="0 0 58.6 58.6">
  <g id="Back_End" data-name="Back End" opacity="0.8">
    <g id="Group_27478" data-name="Group 27478">
      <path id="Path_31622" data-name="Path 31622" d="M53.717,0H4.884A4.9,4.9,0,0,0,0,4.884V43.95a4.9,4.9,0,0,0,4.884,4.884H26.859v4.883H19.534A4.882,4.882,0,0,0,14.65,58.6l29.3-.005a4.885,4.885,0,0,0-4.884-4.883H31.741V48.834H53.717A4.9,4.9,0,0,0,58.6,43.95V4.884A4.9,4.9,0,0,0,53.717,0ZM19.891,30.373,17.3,32.963l-6.82-6.82a2.441,2.441,0,0,1,0-3.453l6.82-6.82,2.589,2.589-5.957,5.956ZM28.735,35.4H24.98l4.886-21.975h3.755Zm19.383-9.261-6.82,6.82-2.589-2.589,5.957-5.957L38.709,18.46,41.3,15.871l6.82,6.82A2.441,2.441,0,0,1,48.118,26.143Z" fill="#707070"/>
    </g>
  </g>
</svg>
