<svg xmlns="http://www.w3.org/2000/svg" width="68" height="67.96" viewBox="0 0 68 67.96">
  <g id="Evening_Time" data-name="Evening Time" opacity="0.8">
    <circle id="Ellipse_4222" data-name="Ellipse 4222" cx="2.297" cy="2.297" r="2.297" transform="translate(59.73 3.676)" fill="#707070"/>
    <circle id="Ellipse_4223" data-name="Ellipse 4223" cx="1.838" cy="1.838" r="1.838" transform="translate(64.324 20.216)" fill="#707070"/>
    <path id="Path_31014" data-name="Path 31014" d="M34.113,67.96A33.939,33.939,0,0,0,66.157,44.818a1.991,1.991,0,0,0-3.136-2.187A23.616,23.616,0,0,1,48.05,47.917,24.032,24.032,0,0,1,24.025,24.025,24.131,24.131,0,0,1,35.347,3.683a1.951,1.951,0,0,0,.764-2.24,2.1,2.1,0,0,0-2-1.443A34.227,34.227,0,0,0,0,33.98,34.227,34.227,0,0,0,34.113,67.96Z" transform="translate(0 0)" fill="#707070"/>
    <path id="Path_31015" data-name="Path 31015" d="M273.991,42.079a5.98,5.98,0,0,1,5.973,5.973,1.991,1.991,0,1,0,3.982,0,5.98,5.98,0,0,1,5.973-5.973,1.991,1.991,0,1,0,0-3.982,6.1,6.1,0,0,1-5.973-6.106,1.991,1.991,0,1,0-3.982,0,6.1,6.1,0,0,1-5.973,6.106,1.991,1.991,0,0,0,0,3.982Z" transform="translate(-235.896 -26.018)" fill="#707070"/>
  </g>
</svg>
