<svg id="Front_End" data-name="Front End" xmlns="http://www.w3.org/2000/svg" width="58.6" height="58.6" viewBox="0 0 58.6 58.6">
  <path id="Path_31617" data-name="Path 31617" d="M127.867,451v3.548h-5.15a1.717,1.717,0,0,0,0,3.434h27.469a1.717,1.717,0,0,0,0-3.434h-5.15V451Z" transform="translate(-107.151 -399.382)" fill="#fff"/>
  <path id="Path_31618" data-name="Path 31618" d="M1.717,102.2H56.883a1.716,1.716,0,0,0,1.717-1.717V62.717A1.716,1.716,0,0,0,56.883,61H53.335V90.186a5.156,5.156,0,0,1-5.15,5.15H10.415a5.156,5.156,0,0,1-5.15-5.15V61H1.717A1.716,1.716,0,0,0,0,62.717v37.77A1.716,1.716,0,0,0,1.717,102.2Z" transform="translate(0 -54.018)" fill="#fff"/>
  <path id="Path_31619" data-name="Path 31619" d="M314.136,221.186l-4.406-1.47,1.469,4.408Z" transform="translate(-274.28 -194.569)" fill="#fff"/>
  <path id="Path_31620" data-name="Path 31620" d="M117.2,1.717A1.716,1.716,0,0,0,115.486,0H77.717A1.716,1.716,0,0,0,76,1.717V13.849h41.2ZM82.867,8.7a1.717,1.717,0,1,1,1.717-1.717A1.717,1.717,0,0,1,82.867,8.7Zm6.867,0a1.717,1.717,0,1,1,1.717-1.717A1.717,1.717,0,0,1,89.734,8.7Zm6.867,0a1.717,1.717,0,1,1,1.717-1.717A1.717,1.717,0,0,1,96.6,8.7Z" transform="translate(-67.302)" fill="#fff"/>
  <path id="Path_31621" data-name="Path 31621" d="M76,169.885a1.716,1.716,0,0,0,1.717,1.717h37.77a1.716,1.716,0,0,0,1.717-1.717V151H76Zm22.821-14.948a1.723,1.723,0,0,1,1.757-.414l10.3,3.434a1.717,1.717,0,0,1,.671,2.842l-2.22,2.22,2.22,2.22a1.717,1.717,0,0,1-2.428,2.428l-2.22-2.22-2.22,2.22a1.717,1.717,0,0,1-2.843-.671l-3.434-10.3A1.72,1.72,0,0,1,98.821,154.937Zm-15.954-.5h10.3a1.717,1.717,0,0,1,0,3.434h-10.3a1.717,1.717,0,0,1,0-3.434Zm0,6.867h10.3a1.717,1.717,0,0,1,0,3.434h-10.3a1.717,1.717,0,0,1,0-3.434Z" transform="translate(-67.302 -133.718)" fill="#fff"/>
</svg>
