<svg xmlns="http://www.w3.org/2000/svg" width="60.204" height="60.204" viewBox="0 0 60.204 60.204">
  <g id="UI_UX_Design_Course" data-name="UI UX Design Course" opacity="0.8">
    <path id="Path_31650" data-name="Path 31650" d="M2.681,11.263A12,12,0,0,0,5.827,16.8l1.4,1.382L18.205,7.209l-1.4-1.382A12.009,12.009,0,0,0,11.264,2.68L.733.018A.588.588,0,0,0,.018.733Z" transform="translate(0 0)" fill="#707070"/>
    <path id="Path_31651" data-name="Path 31651" d="M88.151,98.631,99.128,87.655l-5.341-5.274L82.809,93.358Z" transform="translate(-73.072 -72.694)" fill="#707070"/>
    <path id="Path_31652" data-name="Path 31652" d="M0,0H15.524V9.305H0Z" transform="translate(34.261 45.241) rotate(-45)" fill="#707070"/>
    <path id="Path_31653" data-name="Path 31653" d="M379.588,368.587,368.61,379.564l3.613,3.613A7.763,7.763,0,0,0,383.2,372.2Z" transform="translate(-325.267 -325.247)" fill="#707070"/>
    <path id="Path_31654" data-name="Path 31654" d="M27.157,32.323a1.764,1.764,0,0,1,2.494,0L35.727,38.4,38.4,35.724l-3.468-3.468a1.764,1.764,0,1,1,2.494-2.494l3.468,3.468,2.721-2.721L37.54,24.434a1.764,1.764,0,0,1,2.494-2.494l6.076,6.075,2.721-2.721-3.468-3.468a1.764,1.764,0,1,1,2.494-2.494L51.326,22.8l2.721-2.721L47.971,14a1.764,1.764,0,1,1,2.494-2.494l6.076,6.075,2.5-2.5a3.986,3.986,0,0,0,0-5.637L50.753,1.168a3.986,3.986,0,0,0-5.637,0L1.167,45.117a3.985,3.985,0,0,0,0,5.636L9.45,59.036a3.986,3.986,0,0,0,5.637,0l2.5-2.5L14.118,53.07a1.764,1.764,0,1,1,2.494-2.494l3.468,3.468L22.8,51.322l-6.076-6.075a1.764,1.764,0,0,1,2.494-2.494L25.3,48.828l2.721-2.721L24.549,42.64a1.764,1.764,0,1,1,2.495-2.494l3.468,3.468,2.721-2.721-6.076-6.075a1.764,1.764,0,0,1,0-2.494Z" transform="translate(0)" fill="#707070"/>
  </g>
</svg>
