<svg xmlns="http://www.w3.org/2000/svg" width="60" height="60" viewBox="0 0 60 60">
  <g id="Full-_Time_-_From_2_Hours_A_Day" data-name="Full- Time - From 2 Hours A Day" transform="translate(-1 -1)">
    <path id="Path_31025" data-name="Path 31025" d="M61,31A30,30,0,1,1,31,1,29.7,29.7,0,0,1,49,7V3.9a2,2,0,0,1,4,0v8.5a2,2,0,0,1-2,2H42.52a2,2,0,1,1,0-4H46.8A25.6,25.6,0,0,0,31,5,26,26,0,1,0,54.5,19.86a2,2,0,1,1,3.62-1.72A30,30,0,0,1,61,31ZM27,33a2,2,0,0,0,2-2V23a2,2,0,0,0-2-2H19a2,2,0,1,0,0,4h6v4H19a2,2,0,0,0-2,2v8a2,2,0,0,0,2,2h8a2,2,0,1,0,0-4H21V33Zm16,8a2,2,0,0,0,2-2V23a2,2,0,0,0-4,0v6H37V23a2,2,0,1,0-4,0v8a2,2,0,0,0,2,2h6v6A2,2,0,0,0,43,41Z" transform="translate(0 0)" fill="#fff"/>
  </g>
</svg>
