<svg xmlns="http://www.w3.org/2000/svg" width="60.572" height="58.6" viewBox="0 0 60.572 58.6">
  <g id="Full_Stack" data-name="Full Stack" transform="translate(-1 -3)" opacity="0.8">
    <path id="Path_31623" data-name="Path 31623" d="M5,48.083h6.062V40H5Zm2.021-6.062H9.041v4.041H7.021Z" transform="translate(0.041 0.383)" fill="#707070"/>
    <path id="Path_31624" data-name="Path 31624" d="M1,40H3.021v8.083H1Z" transform="translate(0 0.383)" fill="#707070"/>
    <path id="Path_31625" data-name="Path 31625" d="M7.062,30H1v8.083H7.062ZM5.041,36.062H3.021V32.021H5.041Z" transform="translate(0 0.279)" fill="#707070"/>
    <path id="Path_31626" data-name="Path 31626" d="M9,30h2.021v8.083H9Z" transform="translate(0.083 0.279)" fill="#707070"/>
    <path id="Path_31627" data-name="Path 31627" d="M43.949,12.048h6.167A18.073,18.073,0,0,0,47.032,7.4,17.938,17.938,0,0,0,43.949,12.048Z" transform="translate(0.444 0.046)" fill="#707070"/>
    <path id="Path_31628" data-name="Path 31628" d="M29.136,35.725a3.022,3.022,0,0,1,.754-1.44,12.66,12.66,0,0,1-5.869-10.69V15.124a8.083,8.083,0,1,1,16.166,0v8.471a12.66,12.66,0,0,1-5.869,10.69,3.017,3.017,0,0,1,.754,1.44,14.309,14.309,0,0,0,7.136-12.366V13.1A10.1,10.1,0,1,0,22,13.1V23.359A14.309,14.309,0,0,0,29.136,35.725Z" transform="translate(0.217)" fill="#707070"/>
    <path id="Path_31629" data-name="Path 31629" d="M44.544,7.227a14.11,14.11,0,0,0-1.809.448A12.07,12.07,0,0,1,43.3,9.015a20.22,20.22,0,0,1,1.24-1.788Z" transform="translate(0.432 0.044)" fill="#707070"/>
    <path id="Path_31630" data-name="Path 31630" d="M32.01,35.089l-.14-.061a1,1,0,0,0-.87.982v2.021a1.01,1.01,0,0,0,2.021,0V36.01a1,1,0,0,0-.87-.982Z" transform="translate(0.31 0.331)" fill="#707070"/>
    <path id="Path_31631" data-name="Path 31631" d="M26,21.059a6.062,6.062,0,0,0,12.124,0v-2.7a8.389,8.389,0,0,0-4.251-3.1,3.146,3.146,0,0,1-2.539,1.987L26,17.91Zm9.093-3.031a1.01,1.01,0,1,1-1.01,1.01A1.011,1.011,0,0,1,35.093,18.028ZM32.062,23.08a2.247,2.247,0,0,0,2.021-1.249l.106-.213,1.808.9-.106.213a4.28,4.28,0,0,1-7.656,0l-.106-.213,1.808-.9.106.214A2.247,2.247,0,0,0,32.062,23.08Zm-3.031-5.052a1.01,1.01,0,1,1-1.01,1.01A1.011,1.011,0,0,1,29.031,18.028Z" transform="translate(0.259 0.127)" fill="#707070"/>
    <path id="Path_31632" data-name="Path 31632" d="M57.793,12.049a14.131,14.131,0,0,0-8.3-4.814,20.824,20.824,0,0,1,2.789,4.814Z" transform="translate(0.502 0.044)" fill="#707070"/>
    <path id="Path_31633" data-name="Path 31633" d="M52.061,22H44.008v1.163a16.258,16.258,0,0,1-.761,4.9h7.7A21.516,21.516,0,0,0,52.061,22Z" transform="translate(0.437 0.197)" fill="#707070"/>
    <path id="Path_31634" data-name="Path 31634" d="M44,14v6.062h8.045A21.484,21.484,0,0,0,50.929,14Z" transform="translate(0.445 0.114)" fill="#707070"/>
    <path id="Path_31635" data-name="Path 31635" d="M53.974,20.062h7.058A14.025,14.025,0,0,0,59.169,14H52.976a23.888,23.888,0,0,1,1,6.062Z" transform="translate(0.538 0.114)" fill="#707070"/>
    <path id="Path_31636" data-name="Path 31636" d="M47.928,33.6a18.732,18.732,0,0,0,2.2-3.6H44.084a9.865,9.865,0,0,1,3.844,3.6Z" transform="translate(0.446 0.279)" fill="#707070"/>
    <path id="Path_31637" data-name="Path 31637" d="M34.365,28.656a8.024,8.024,0,0,1-4.672,0l-.465,2.322a10.6,10.6,0,0,0,2.8,1.968,10.611,10.611,0,0,0,2.8-1.968Z" transform="translate(0.292 0.265)" fill="#707070"/>
    <path id="Path_31638" data-name="Path 31638" d="M42.417,45H21.832A1.833,1.833,0,0,0,20,46.832a1.762,1.762,0,0,0,.016.241l1.34,10.051H42.891l1.341-10.049a1.788,1.788,0,0,0,.016-.242A1.834,1.834,0,0,0,42.417,45Z" transform="translate(0.197 0.435)" fill="#707070"/>
    <path id="Path_31639" data-name="Path 31639" d="M47.567,37.235a7.865,7.865,0,0,0-5.45-5.985A16.313,16.313,0,0,1,35.229,37.7v.38a3.031,3.031,0,1,1-6.062,0V37.7a16.3,16.3,0,0,1-6.889-6.453,7.921,7.921,0,0,0-3.215,1.912V30H13v8.083h3.656L15.175,45.5a7.9,7.9,0,0,0,3.761,8.374L18.085,47.5a3.906,3.906,0,0,1-.033-.509,3.858,3.858,0,0,1,3.031-3.761V40.341l-.9-1.808,1.808-.9L23.1,39.865v3.269H41.29V39.865l1.116-2.234,1.808.9-.9,1.806v2.886a3.857,3.857,0,0,1,3.031,3.761,3.933,3.933,0,0,1-.033.51l-.851,6.374A7.9,7.9,0,0,0,49.219,45.5ZM15.021,32.021h2.021v4.041H15.021Z" transform="translate(0.124 0.279)" fill="#707070"/>
    <path id="Path_31640" data-name="Path 31640" d="M49.481,34.82a14.1,14.1,0,0,0,8.3-4.82H52.279a21.075,21.075,0,0,1-2.8,4.82Z" transform="translate(0.502 0.279)" fill="#707070"/>
    <path id="Path_31641" data-name="Path 31641" d="M53.981,22a23.714,23.714,0,0,1-1.012,6.062h6.2A14.049,14.049,0,0,0,61.035,22Z" transform="translate(0.538 0.197)" fill="#707070"/>
    <path id="Path_31642" data-name="Path 31642" d="M13.507,26.031a.351.351,0,0,0,.607-.2v-3.7h6.062V18.5l-2.317,2.317-1.429-1.429,3.327-3.327-3.327-3.327,1.429-1.429,2.317,2.317v-.592a12.049,12.049,0,0,1,.4-3.031H3V22.124h7.578Zm-.373-14.255,1.959.489-2.021,8.083-1.959-.489ZM9.776,19.389,8.348,20.818,3.592,16.062l4.756-4.756,1.429,1.429L6.449,16.062Z" transform="translate(0.021 0.072)" fill="#707070"/>
    <path id="Path_31643" data-name="Path 31643" d="M21.667,59.431a1.837,1.837,0,0,0,1.816,1.589H40.733a1.837,1.837,0,0,0,1.816-1.589L42.606,59h-21Z" transform="translate(0.213 0.579)" fill="#707070"/>
    <path id="Path_31644" data-name="Path 31644" d="M30.907,11.021a3.169,3.169,0,0,1,3.008,2.206,10.4,10.4,0,0,1,4.209,2.211v-.375a6.062,6.062,0,1,0-12.124,0v.876l5.084-.636a1.117,1.117,0,0,0,.978-1.106,1.156,1.156,0,0,0-1.155-1.155.868.868,0,0,0-.866.866v.144H28.021v-.144A2.89,2.89,0,0,1,30.907,11.021Z" transform="translate(0.259 0.062)" fill="#707070"/>
  </g>
</svg>
