<svg id="Morning_Time" data-name="Morning Time" xmlns="http://www.w3.org/2000/svg" width="121.544" height="64.332" viewBox="0 0 121.544 64.332">
  <g id="Group_26046" data-name="Group 26046" transform="translate(96.848 28.604)">
    <g id="Group_26045" data-name="Group 26045">
      <path id="Path_31016" data-name="Path 31016" d="M424.522,242.776a3.56,3.56,0,0,0-4.864-1.3l-9.909,5.721a3.561,3.561,0,1,0,3.561,6.167l9.909-5.721A3.561,3.561,0,0,0,424.522,242.776Z" transform="translate(-407.967 -240.995)" fill="#fff"/>
    </g>
  </g>
  <g id="Group_26048" data-name="Group 26048" transform="translate(80.095 7.664)">
    <g id="Group_26047" data-name="Group 26047">
      <path id="Path_31017" data-name="Path 31017" d="M348.461,153.263a3.56,3.56,0,0,0-4.864,1.3l-5.721,9.909a3.561,3.561,0,1,0,6.168,3.561l5.721-9.909A3.561,3.561,0,0,0,348.461,153.263Z" transform="translate(-337.398 -152.785)" fill="#fff"/>
    </g>
  </g>
  <g id="Group_26050" data-name="Group 26050" transform="translate(57.211 0)">
    <g id="Group_26049" data-name="Group 26049">
      <path id="Path_31018" data-name="Path 31018" d="M244.56,120.5A3.561,3.561,0,0,0,241,124.062V135.5a3.561,3.561,0,1,0,7.122,0V124.062A3.561,3.561,0,0,0,244.56,120.5Z" transform="translate(-240.999 -120.501)" fill="#fff"/>
    </g>
  </g>
  <g id="Group_26052" data-name="Group 26052" transform="translate(28.605 7.664)">
    <g id="Group_26051" data-name="Group 26051">
      <path id="Path_31019" data-name="Path 31019" d="M132.863,164.476l-5.721-9.909a3.561,3.561,0,0,0-6.167,3.561l5.721,9.909a3.561,3.561,0,1,0,6.167-3.561Z" transform="translate(-120.496 -152.785)" fill="#fff"/>
    </g>
  </g>
  <g id="Group_26054" data-name="Group 26054" transform="translate(7.664 28.605)">
    <g id="Group_26053" data-name="Group 26053">
      <path id="Path_31020" data-name="Path 31020" d="M47.537,247.2l-9.909-5.721a3.561,3.561,0,0,0-3.561,6.167l9.909,5.721a3.561,3.561,0,0,0,3.561-6.167Z" transform="translate(-32.286 -240.999)" fill="#fff"/>
    </g>
  </g>
  <g id="Group_26056" data-name="Group 26056" transform="translate(0 34.326)">
    <g id="Group_26055" data-name="Group 26055">
      <path id="Path_31021" data-name="Path 31021" d="M117.983,287.984H86.977a26.446,26.446,0,0,0-52.409,0H3.561a3.561,3.561,0,1,0,0,7.122H117.983a3.561,3.561,0,1,0,0-7.122Z" transform="translate(0 -265.1)" fill="#fff"/>
    </g>
  </g>
</svg>
