<svg xmlns="http://www.w3.org/2000/svg" width="60.643" height="60.204" viewBox="0 0 60.643 60.204">
  <g id="Part-Time_-_From_1_Hour_A_Day" data-name="Part-Time - From 1 Hour A Day" transform="translate(0 -1.688)" opacity="0.8">
    <g id="Layer_2_16_" transform="translate(0 1.688)">
      <g id="Group_26057" data-name="Group 26057" transform="translate(0 0)">
        <path id="Path_31026" data-name="Path 31026" d="M256.177,423.228c-.5.125-1.01.235-1.516.329a2.438,2.438,0,0,0,.888,4.794c.6-.112,1.21-.243,1.806-.392a2.438,2.438,0,0,0-1.178-4.731Z" transform="translate(-219.729 -368.213)" fill="#707070"/>
        <path id="Path_31027" data-name="Path 31027" d="M413.167,141.012a2.438,2.438,0,0,0,4.629-1.533c-.193-.582-.406-1.167-.634-1.736a2.438,2.438,0,1,0-4.527,1.81C412.826,140.032,413.005,140.523,413.167,141.012Z" transform="translate(-358.691 -118.674)" fill="#707070"/>
        <path id="Path_31028" data-name="Path 31028" d="M323.408,394.316c-.43.284-.874.559-1.321.816a2.438,2.438,0,1,0,2.436,4.223c.532-.307,1.06-.633,1.572-.971a2.438,2.438,0,0,0-2.688-4.068Z" transform="translate(-279.038 -342.781)" fill="#707070"/>
        <path id="Path_31029" data-name="Path 31029" d="M432.508,209.654a2.438,2.438,0,1,0-4.872.191c.02.514.025,1.036.014,1.55a2.438,2.438,0,1,0,4.874.108C432.538,210.889,432.533,210.267,432.508,209.654Z" transform="translate(-371.888 -180.506)" fill="#707070"/>
        <path id="Path_31030" data-name="Path 31030" d="M381.72,344.557a2.437,2.437,0,0,0-3.414.487c-.309.412-.635.82-.969,1.212a2.439,2.439,0,0,0,.276,3.436c.058.05.117.1.179.138a2.438,2.438,0,0,0,3.258-.413c.4-.468.787-.955,1.157-1.447A2.438,2.438,0,0,0,381.72,344.557Z" transform="translate(-327.642 -299.436)" fill="#707070"/>
        <path id="Path_31031" data-name="Path 31031" d="M417.477,279.464a2.438,2.438,0,0,0-3.055,1.6c-.154.491-.325.984-.509,1.467a2.438,2.438,0,0,0,4.556,1.736c.219-.574.422-1.161.606-1.744A2.439,2.439,0,0,0,417.477,279.464Z" transform="translate(-359.815 -243.155)" fill="#707070"/>
        <path id="Path_31032" data-name="Path 31032" d="M25.812,57.053a25.173,25.173,0,0,1-6.253-1.987c-.023-.012-.044-.026-.069-.037-.467-.22-.934-.455-1.386-.7l-.007,0a26.005,26.005,0,0,1-2.425-1.516,25.439,25.439,0,0,1,.106-41.669l.087-.061a25.483,25.483,0,0,1,28.56-.229l-1.9,2.752c-.53.766-.2,1.324.723,1.241l8.274-.741a1.363,1.363,0,0,0,1.234-1.783l-2.222-8c-.249-.9-.886-1-1.416-.239L47.2,6.832A30.107,30.107,0,0,0,25.143,2.141q-1.171.2-2.309.493l-.015,0c-.029.007-.059.017-.088.025A30.061,30.061,0,0,0,6.062,13.833c-.035.042-.071.082-.1.127-.138.186-.276.377-.41.567-.22.312-.436.633-.644.953-.026.039-.046.078-.068.117a30.056,30.056,0,0,0-4.8,17.728c0,.021,0,.041,0,.062.028.612.076,1.232.142,1.842,0,.039.012.077.019.116.068.614.153,1.229.26,1.844A30.087,30.087,0,0,0,8.937,53.506l.031.032.011.01a30.718,30.718,0,0,0,3.884,3.246,30.059,30.059,0,0,0,12.088,5.059,2.438,2.438,0,0,0,.86-4.8Z" transform="translate(0 -1.688)" fill="#707070"/>
        <path id="Path_31033" data-name="Path 31033" d="M207.96,83.2a1.973,1.973,0,0,0-1.973,1.972v19.651l17.973,9.291a1.972,1.972,0,0,0,1.811-3.5l-15.84-8.189V85.17A1.972,1.972,0,0,0,207.96,83.2Z" transform="translate(-179.135 -72.572)" fill="#707070"/>
      </g>
    </g>
  </g>
</svg>
