<svg xmlns="http://www.w3.org/2000/svg" width="60.204" height="60.204" viewBox="0 0 60.204 60.204">
  <g id="Weekends_Time" data-name="Weekends Time" opacity="0.8">
    <path id="Path_31022" data-name="Path 31022" d="M197.764,196A1.765,1.765,0,0,0,196,197.764h3.528A1.765,1.765,0,0,0,197.764,196Z" transform="translate(-172.953 -172.953)" fill="#707070"/>
    <path id="Path_31023" data-name="Path 31023" d="M54.912,3.528H53.031V1.764a1.764,1.764,0,0,0-3.528,0V3.528H42.448V1.764a1.764,1.764,0,0,0-3.528,0V3.528H31.866V1.764a1.764,1.764,0,0,0-3.528,0V3.528H21.283V1.764a1.764,1.764,0,0,0-3.528,0V3.528H10.7V1.764a1.764,1.764,0,1,0-3.528,0V3.528H5.291A5.3,5.3,0,0,0,0,8.819v1.764H60.2V8.819A5.3,5.3,0,0,0,54.912,3.528Z" fill="#707070"/>
    <path id="Path_31024" data-name="Path 31024" d="M0,160.8a5.3,5.3,0,0,0,5.291,5.291H54.912A5.3,5.3,0,0,0,60.2,160.8V120H0Zm42.448-12.464a1.764,1.764,0,1,1,3.528,0v7.055a1.764,1.764,0,1,0,3.528,0v-7.055a1.764,1.764,0,1,1,3.528,0v7.055a5.291,5.291,0,1,1-10.583,0Zm-1.764,0a1.763,1.763,0,0,1-1.764,1.764H34.511a.882.882,0,1,0,0,1.764h1.764a4.409,4.409,0,0,1,0,8.819H31.866a1.764,1.764,0,1,1,0-3.528h4.409a.882.882,0,0,0,0-1.764H34.511a4.409,4.409,0,1,1,0-8.819h4.409A1.763,1.763,0,0,1,40.684,148.338ZM38.259,132.85a1.767,1.767,0,0,1,.276,2.48l-14.11,17.638a1.765,1.765,0,1,1-2.756-2.2l14.11-17.638A1.77,1.77,0,0,1,38.259,132.85Zm-18.74-2.15a5.291,5.291,0,0,1,10.583,0v7.055a1.764,1.764,0,1,1-3.528,0v-3.528H23.047v3.528a1.764,1.764,0,1,1-3.528,0Zm-6.173,3.528H11.582a4.409,4.409,0,1,1,0-8.819h4.409a1.764,1.764,0,1,1,0,3.528H11.582a.882.882,0,0,0,0,1.764h1.764a4.409,4.409,0,0,1,0,8.819H8.936a1.764,1.764,0,0,1,0-3.528h4.409a.882.882,0,1,0,0-1.764Z" transform="translate(0 -105.89)" fill="#707070"/>
  </g>
</svg>
