<svg id="UI_UX_Design" data-name="UI/UX Design" xmlns="http://www.w3.org/2000/svg" width="35.065" height="35.065" viewBox="0 0 35.065 35.065">
  <g id="Group_21392" data-name="Group 21392" transform="translate(13.152 15.412)">
    <g id="Group_21391" data-name="Group 21391">
      <path id="Path_8866" data-name="Path 8866" d="M192.041,227.218l3.285,2.19v-4.379Z" transform="translate(-192.041 -225.028)" fill="#fff"/>
    </g>
  </g>
  <g id="Group_21394" data-name="Group 21394" transform="translate(0 10.273)">
    <g id="Group_21393" data-name="Group 21393">
      <path id="Path_8867" data-name="Path 8867" d="M0,150v21.71a3.085,3.085,0,0,0,3.082,3.082h28.9a3.085,3.085,0,0,0,3.082-3.082V150Zm4.109,3.219a1.067,1.067,0,0,1,1.027-1.027H17.464a1.069,1.069,0,0,1,1.027,1.027v8.218a1.063,1.063,0,0,1-1.027,1.027H5.137a1.05,1.05,0,0,1-1.027-1.027Zm26.847,16.437a1.027,1.027,0,0,1-1.027,1.027H5.137a1.027,1.027,0,0,1-1.027-1.027v-4.109a1.027,1.027,0,0,1,1.027-1.027H29.929a1.027,1.027,0,0,1,1.027,1.027Zm-1.027-7.191H21.642a1.027,1.027,0,0,1,0-2.055h8.287a1.027,1.027,0,0,1,0,2.055Zm0-4.109H21.642a1.027,1.027,0,0,1,0-2.055h8.287a1.027,1.027,0,0,1,0,2.055Zm0-4.109H21.642a1.027,1.027,0,0,1,0-2.055h8.287a1.027,1.027,0,0,1,0,2.055Z" transform="translate(0 -150)" fill="#fff"/>
    </g>
  </g>
  <g id="Group_21396" data-name="Group 21396">
    <g id="Group_21395" data-name="Group 21395">
      <path id="Path_8868" data-name="Path 8868" d="M3.082,0A3.085,3.085,0,0,0,0,3.082V8.218H22.669V0ZM7.191,6.164H5.137a1.027,1.027,0,0,1,0-2.055H7.191a1.027,1.027,0,0,1,0,2.055Zm6.164,0H11.3a1.027,1.027,0,0,1,0-2.055h2.055a1.027,1.027,0,1,1,0,2.055Zm6.232,0H17.464a1.027,1.027,0,0,1,0-2.055h2.123a1.027,1.027,0,1,1,0,2.055Z" fill="#fff"/>
    </g>
  </g>
  <g id="Group_21398" data-name="Group 21398" transform="translate(8.529 18.836)">
    <g id="Group_21397" data-name="Group 21397">
      <path id="Path_8869" data-name="Path 8869" d="M127.312,275.027l-2.771,1.847h5.542Z" transform="translate(-124.541 -275.027)" fill="#fff"/>
    </g>
  </g>
  <g id="Group_21400" data-name="Group 21400" transform="translate(6.164 15.412)">
    <g id="Group_21399" data-name="Group 21399">
      <path id="Path_8870" data-name="Path 8870" d="M90,225.028v4.379l3.285-2.19Z" transform="translate(-90 -225.028)" fill="#fff"/>
    </g>
  </g>
  <g id="Group_21402" data-name="Group 21402" transform="translate(8.529 14.519)">
    <g id="Group_21401" data-name="Group 21401">
      <path id="Path_8871" data-name="Path 8871" d="M124.541,212l2.771,1.847L130.083,212Z" transform="translate(-124.541 -212)" fill="#fff"/>
    </g>
  </g>
  <g id="Group_21404" data-name="Group 21404" transform="translate(24.724)">
    <g id="Group_21403" data-name="Group 21403">
      <path id="Path_8872" data-name="Path 8872" d="M368.26,0H361V8.218h10.342V3.082A3.085,3.085,0,0,0,368.26,0Z" transform="translate(-361)" fill="#fff"/>
    </g>
  </g>
  <g id="Group_21406" data-name="Group 21406" transform="translate(6.26 26.881)">
    <g id="Group_21405" data-name="Group 21405" transform="translate(0 0)">
      <rect id="Rectangle_2188" data-name="Rectangle 2188" width="22.468" height="2.006" fill="#fff"/>
    </g>
  </g>
</svg>
