<svg xmlns="http://www.w3.org/2000/svg" width="39" height="39" viewBox="0 0 39 39">
  <g id="Sales_Research" data-name="Sales Research" transform="translate(-1.85 -1.85)">
    <path id="Path_29766" data-name="Path 29766" d="M16.671,5A11.671,11.671,0,1,0,28.342,16.671,11.671,11.671,0,0,0,16.671,5Zm-5.3,8.221.577-1.738h1.478v2.594H11.983a.637.637,0,0,1-.525-.272A.624.624,0,0,1,11.374,13.221Zm.759,2.153h9.077v6.484H12.132Zm2.594-1.3V11.484h1.3v2.594Zm2.594,0V11.484h1.3v2.594Zm2.594,0V11.484h1.478l.577,1.738a.624.624,0,0,1-.084.584.637.637,0,0,1-.525.272Z" transform="translate(-1.108 -1.108)" fill="#fff"/>
    <path id="Path_29767" data-name="Path 29767" d="M30.508,25.924a.648.648,0,0,0-.914,0l-.46.46L26.456,23.7A13.665,13.665,0,1,0,23.7,26.456l2.684,2.678-.46.46a.648.648,0,0,0,0,.914l9.168,9.168a3.242,3.242,0,1,0,4.584-4.584ZM15.563,27.882A12.319,12.319,0,1,1,27.882,15.563,12.319,12.319,0,0,1,15.563,27.882Zm9.142-2.256a12.335,12.335,0,0,0,.921-.921L28.22,27.3l-.921.921Z" transform="translate(0)" fill="#fff"/>
    <path id="Path_29768" data-name="Path 29768" d="M49.835,13.671A5.835,5.835,0,1,0,44,7.835a5.835,5.835,0,0,0,5.835,5.835Zm0-10.374A4.539,4.539,0,1,1,45.3,7.835,4.539,4.539,0,0,1,49.835,3.3Z" transform="translate(-14.821 -0.053)" fill="#fff"/>
    <path id="Path_29769" data-name="Path 29769" d="M51.945,10.835a.648.648,0,0,1-.648-.648H50a1.945,1.945,0,0,0,1.3,1.826v.768h1.3v-.768a1.941,1.941,0,0,0-.648-3.771.648.648,0,1,1,.648-.648h1.3a1.945,1.945,0,0,0-1.3-1.826V5H51.3v.768a1.941,1.941,0,0,0,.648,3.771.648.648,0,1,1,0,1.3Z" transform="translate(-16.931 -1.108)" fill="#fff"/>
    <path id="Path_29770" data-name="Path 29770" d="M7.835,44a5.835,5.835,0,1,0,5.835,5.835A5.835,5.835,0,0,0,7.835,44Zm0,10.374a4.539,4.539,0,1,1,4.539-4.539,4.539,4.539,0,0,1-4.539,4.539Z" transform="translate(-0.053 -14.821)" fill="#fff"/>
    <path id="Path_29771" data-name="Path 29771" d="M9.945,48.945a.648.648,0,0,1,.648.648h1.3a1.945,1.945,0,0,0-1.3-1.826V47H9.3v.768a1.941,1.941,0,0,0,.648,3.771.648.648,0,1,1-.648.648H8a1.945,1.945,0,0,0,1.3,1.826v.768h1.3v-.768a1.941,1.941,0,0,0-.648-3.771.648.648,0,0,1,0-1.3Z" transform="translate(-2.162 -15.876)" fill="#fff"/>
    <path id="Path_29772" data-name="Path 29772" d="M56.53,29.043l-2.444-.81-.81-2.444a.648.648,0,0,0-1.232,0l-.81,2.444-2.444.81a.648.648,0,0,0,0,1.232l2.444.81.81,2.444a.648.648,0,0,0,1.232,0l.81-2.444,2.444-.81a.648.648,0,0,0,0-1.232Z" transform="translate(-16.348 -8.26)" fill="#fff"/>
    <path id="Path_29773" data-name="Path 29773" d="M33.53,52.043l-2.444-.81-.81-2.444a.648.648,0,0,0-1.232,0l-.81,2.444-2.444.81a.648.648,0,0,0,0,1.232l2.444.81.81,2.444a.648.648,0,0,0,1.232,0l.81-2.444,2.444-.81a.648.648,0,0,0,0-1.232Z" transform="translate(-8.26 -16.348)" fill="#fff"/>
  </g>
</svg>
