<svg xmlns="http://www.w3.org/2000/svg"  viewBox="0 0 936.73 568.417">
  <g id="Group_23681" data-name="Group 23681" transform="translate(-216.382 -318.219)">
    <path id="Path_29279" data-name="Path 29279" d="M1285.5,1103.125c-1.671-1.4-3.69-.764-9.488-3.444a35.574,35.574,0,0,0-5.4-1.612.665.665,0,0,1-.509-.482c-1.762-6.668-9.482-37.5-10.329-46.387-.867-9.091-6.73-47.634-7.624-53.494a.671.671,0,0,0-.846-.544l-16.845,4.7a.672.672,0,0,0-.475.8c1.04,4.594,7.515,33.439,9.417,48.038,1.516,11.638,18.854,48.974,19.2,51.362,0,.023.007.045.01.067a1.461,1.461,0,0,0,1.446,1.25c4.277,0,17.99,0,18.772,0C1283.543,1103.376,1286.02,1103.562,1285.5,1103.125Z" transform="translate(-637.007 -425.002)" fill="#f48c7f"/>
    <path id="Path_29280" data-name="Path 29280" d="M1239.743,915.825c-8.963-27.191-18.988-26.033-18.988-26.033l7.752,57.167c5.535-1.514,12.743-4.882,18.272-6.444A249.044,249.044,0,0,0,1239.743,915.825Z" transform="translate(-628.736 -357.8)" fill="#ff0303"/>
    <path id="Path_29281" data-name="Path 29281" d="M1157.475,728.781c-2.743-17.883-18.923-30.741-35.843-22.064A40.162,40.162,0,0,0,1110.046,716c-7.106,9.12-8.923,20.385-16.263,29.24a72.463,72.463,0,0,0,9.84,6.25l4.571-6.094L1106.62,753c11.36,5.436,27.4,9.92,49.345,9.794A94.852,94.852,0,0,0,1157.475,728.781Z" transform="translate(-549.252 -241.462)" fill="#f47458"/>
    <path id="Path_29282" data-name="Path 29282" d="M1207.5,1414.986c-2.582-1.9-4.667-3.161-12.915-7.16-.537-.261-2.5-1.509-3.2-1.942a24.857,24.857,0,0,1-5.138-4.55c-1.479-1.649-2.183-6.938-2.516-11.153.849-9.413,14.49-160.389,17.367-176.733,2.97-16.871-1.554-42.6-1.554-42.6l-10.531-3.972-19.99,69.287,1.577,52.741s-4.7,15.2-5.295,24.287,6.8,82.825,6.8,82.825h0a38.484,38.484,0,0,1-.4,6.511c-.542,2.758-3.564,8.436-2.178,11.031a6.965,6.965,0,0,0,2.97,3.245l35.921.58C1210.37,1417.41,1209.077,1416.148,1207.5,1414.986Z" transform="translate(-594.001 -531.256)" fill="#f48c7f"/>
    <path id="Path_29283" data-name="Path 29283" d="M1042.452,1153.246s-12.474,18.817-15.443,34.39,2.18,63.432-3.533,83.84c-3.093,11.047-14.814,28.107-16.6,42.382s-7.982,55.478-7.982,55.478h0c-.938,4.325-2.408,9.675-4.315,12.163-1.168,1.522-3.3,3.448-4.7,6.2-2.179,4.283-.974,10.659.633,14.171.825,1.8-.058,1.8,1.821,2.378a11.532,11.532,0,0,0,13.851-6.517,33.166,33.166,0,0,0,2.717-11.977,55.949,55.949,0,0,1,1.965-12.661h0l39.871-97.806,28.865-84.408,7.394-43.472Z" transform="translate(-483.47 -519.07)" fill="#f79c8d"/>
    <path id="Path_29284" data-name="Path 29284" d="M1005.223,1797.041c-8.63,1.577-14.371-3.483-17.359-7.27-2.193,4.291-3.264,10.693-1.65,14.218,1.421,3.1,5.574,3.016,8.843,3.138,3.457.129,6.132-1.8,7.847-4.813A28.865,28.865,0,0,0,1005.223,1797.041Z" transform="translate(-481.428 -921.19)" fill="#f7421b"/>
    <path id="Path_29285" data-name="Path 29285" d="M1197.762,1804.583c-9.5,2.443-16.522.782-20.45-.806-1.013,2.878-2.356,6.488-1.644,8.569.872,2.549,2.114,3.125,3.21,3.154,8.677.228,31.785.539,38.4.626a1.084,1.084,0,0,0,.84-1.781C1216.479,1812.381,1198.47,1805.016,1197.762,1804.583Z" transform="translate(-600.386 -929.958)" fill="#f7421b"/>
    <path id="Path_29286" data-name="Path 29286" d="M1106.17,1271.53q1.118.076,2.25.145l.116.007q1.11.066,2.229.125l.135.007q1.12.058,2.246.106l.115,0q1.146.049,2.293.087c8.514.28,19.031.172,25.78-.976,3.44-34.44,4.722-65.87,6-72.827,3.089-16.871-2.691-43.5-2.691-43.5l-2.759-.5,1.744-9.861-46.326,5.84s-12.972,18.817-16.06,34.39,2.267,63.432-3.674,83.84C1077.565,1268.422,1090.791,1270.483,1106.17,1271.53Z" transform="translate(-539.099 -517.158)" fill="#6364d9"/>
    <path id="Path_29287" data-name="Path 29287" d="M1121.849,876.367s-14.553-1.9-21.086,5.236,12.531,64.448,13.719,73.532-6.056,33.239-6.056,33.239,38.8,7.824,49.884.47c0,0,1.188-65.324,0-71.813s-11.088-32.878-13.464-35.474S1121.849,876.367,1121.849,876.367Z" transform="translate(-552.77 -349.256)" fill="#f7421b"/>
    <path id="Path_29288" data-name="Path 29288" d="M1163.981,817s-.086.488-.239,1.317c-.736,3.98-3.572,17.181-5.487,20.811-2.315,4.386,7.925,18.375,17.781,16.667,2.934-.508-2.48-12.853-2.22-14.16.5-2.5,1.173-5.918,1.865-9.42l1.156-5.86c1.054-5.349,1.914-9.724,1.914-9.724Z" transform="translate(-589.403 -312.003)" fill="#f7a491"/>
    <path id="Path_29289" data-name="Path 29289" d="M1172.73,818.313c.154-.829.239-1.317.239-1.317l14.769-.368s-.86,4.374-1.914,9.724c-.369,1.871-.761,3.863-1.149,5.827a13.822,13.822,0,0,1-7.051-3.544,18.676,18.676,0,0,1-5.342-7.962C1172.464,819.736,1172.616,818.93,1172.73,818.313Z" transform="translate(-598.392 -312.003)" fill="#f47458" opacity="0.5"/>
    <path id="Path_29290" data-name="Path 29290" d="M1173.6,727.581s-6.961-.806-11.325,4.85-9.067,23.149,1.773,32.659,21.55-1.255,23.138-12.669S1189.389,727.169,1173.6,727.581Z" transform="translate(-589.08 -256.235)" fill="#f7a491"/>
    <path id="Path_29291" data-name="Path 29291" d="M1235.656,783.178c-1.294,2.521-3.466,3.917-4.851,3.118s-1.459-3.49-.165-6.011,3.466-3.916,4.851-3.118S1236.95,780.657,1235.656,783.178Z" transform="translate(-634.346 -287.16)" fill="#f7a491"/>
    <path id="Path_29292" data-name="Path 29292" d="M1163.479,722.352s-9.3,16.634-15.953,17.4-7.527,9.608-7.527,9.608,2.379-20.367,8.965-24.3S1163.479,722.352,1163.479,722.352Z" transform="translate(-578.183 -252.876)" fill="#f47458"/>
    <path id="Path_29293" data-name="Path 29293" d="M1153.14,772.5c.541,2.954-.547,5.663-2.431,6.051s-3.849-1.693-4.39-4.647.547-5.663,2.431-6.051S1152.6,769.546,1153.14,772.5Z" transform="translate(-582.053 -281.441)" fill="#f7a491"/>
    <path id="Path_29294" data-name="Path 29294" d="M1186.632,809.046l10.063,1.98s-.984,3.777-5.435,3.034C1185.834,813.154,1186.632,809.046,1186.632,809.046Z" transform="translate(-607.35 -307.257)" fill="#fff"/>
    <path id="Path_29295" data-name="Path 29295" d="M900.233,991.827c-.613-1.458,6.559-3.114,6.85-4.646s-9.251-1.053-9.676-2.355c-.782-2.4,10.42-1.167,10.13-2.295s-11.778-2.967-10.676-5,11.714,3.151,11.941,1.8-10.3-3.934-10.3-6.858c0-1.563,17.435,6.7,19.336,5.733s-2.613-8.03-1.125-9.213,6.952,14.492,8.059,14.957,24.683,12.033,32.912,13.592c.814-2.774,6.982-17.6,7.689-20.22,4.747,2.95,10.063,3.326,14.938,5.981-2.865,8.729-13.229,30.426-15.529,31.644-7.005,3.708-36.331-17.671-42.143-21.28s-8.925-2.128-12.77-3.144S900.847,993.285,900.233,991.827Z" transform="translate(-425.933 -407.346)" fill="#f7a491"/>
    <path id="Path_29296" data-name="Path 29296" d="M1080.71,945.59s15.019-30.213,15.473-40.74-10.04-22.3-19.142-20.264-16.375,50.595-16.375,50.595Z" transform="translate(-528.521 -354.401)" fill="#ff0303"/>
    <path id="Path_29297" data-name="Path 29297" d="M1954.541,1168.64l48.733-12.556a428.917,428.917,0,0,1,27.9-44.864c5.425,5.37,8.44,13.62,13.9,18.937l-31.759,40.055c-1.461,1.617-62.493,7.781-62.493,7.781Z" transform="translate(-1085.761 -496.418)" fill="#f48c7f"/>
    <path id="Path_29298" data-name="Path 29298" d="M2163.071,895.048a56,56,0,0,1,5.115-26.989c3.56-7.407,12.367-11.61,20.4-11.621,25.506-.033,28.749,33.666,44.985,46.665,4.961,3.972,10.506,7.207,15.2,11.49,17.334,15.817,9.526,45.095-6.391,58.961-11.045,9.622-28.4,15.089-42.017,7.567-7.106-3.927-12.5-10.454-16.344-17.605-5.454-10.15-8.97-21.86-12.85-32.678C2167.041,919.326,2163.58,907.34,2163.071,895.048Z" transform="translate(-1218.586 -336.924)" fill="#f7cc7f"/>
    <path id="Path_29299" data-name="Path 29299" d="M2157.612,1107.345s19.137-19.622,24.062-28.148-3.354-2.975-11.809-5.218c-3.2-.85-2.392-19.614-8.445-13.514-9.931,10.007-22.416,27.5-22.416,27.5Z" transform="translate(-1203.558 -463.883)" fill="#4d4ed2"/>
    <g id="Group_23668" data-name="Group 23668" transform="translate(418.125 662.612)">
      <path id="Path_29300" data-name="Path 29300" d="M796.174,1247.682c.6-.9-.863-2.447-1.956-3.608-1.212-1.287-8.59-4.557-9.847-4.953s-12.066,1.026-16.212,2.342a14.625,14.625,0,0,1-6.863.734c-1.082-.231-2.708-.543-3.971-.817L755.8,1251c9.7-.033,18.686.776,19.606.761,2.916-.047,8.284-3.048,9.527-3.485a8.7,8.7,0,0,1,5.429.746c1.679.806,6.573,2.731,7.4,2.3S796.174,1247.682,796.174,1247.682Z" transform="translate(-755.801 -1239.052)" fill="#f48c7f"/>
    </g>
    <path id="Path_29301" data-name="Path 29301" d="M629.757,1141.344l-54.552-13.687a454.6,454.6,0,0,0-29.57-47.546c-5.75,5.691-8.945,14.434-14.735,20.069l30.518,41.525c1.549,1.713,69.369,9.171,69.369,9.171Z" transform="translate(-196.888 -476.943)" fill="#f48c7f"/>
    <path id="Path_29302" data-name="Path 29302" d="M542.288,1106.976s-15.691-20.961-21.42-30.88,3.9-3.462,13.74-6.072c3.725-.988.637-21.33,7.68-14.233,11.554,11.642,23.138,36.864,23.138,36.864Z" transform="translate(-189.532 -460.78)" fill="#4d4ed2"/>
    <g id="Group_23669" data-name="Group 23669" transform="translate(935.445 389.541)" opacity="0.5">
      <path id="Path_29303" data-name="Path 29303" d="M2150.5,508.919h130.247a11.52,11.52,0,0,1,11.5,11.54V596.6a11.52,11.52,0,0,1-11.5,11.539h-91.136c-5.859,8.2-16.481,22.894-17.419,22.894-.878,0,.812-13.876,2-22.894h-23.7A11.52,11.52,0,0,1,2139,596.6V520.458A11.52,11.52,0,0,1,2150.5,508.919Z" transform="translate(-2139.003 -508.919)" fill="#cae1f9"/>
    </g>
    <path id="Path_29304" data-name="Path 29304" d="M357.926,563.46H227.866a11.5,11.5,0,0,0-11.484,11.523v76.032a11.5,11.5,0,0,0,11.484,11.523h91.005c5.85,8.191,16.458,22.861,17.394,22.861.877,0-.811-13.856-2-22.861h23.661a11.5,11.5,0,0,0,11.484-11.523V574.983A11.5,11.5,0,0,0,357.926,563.46Z" transform="translate(0 -153.521)" fill="#cae1f9" opacity="0.5"/>
    <path id="Path_29305" data-name="Path 29305" d="M975.3,349.432H845.243a11.5,11.5,0,0,0-11.484,11.523v76.031a11.5,11.5,0,0,0,11.484,11.523h91c5.851,8.192,16.458,22.862,17.394,22.862.877,0-.811-13.856-2-22.862H975.3a11.5,11.5,0,0,0,11.484-11.523V360.955A11.5,11.5,0,0,0,975.3,349.432Z" transform="translate(-386.477 -19.539)" fill="#96d9c9"/>
    <rect id="Rectangle_2569" data-name="Rectangle 2569" width="42.502" height="5.208" rx="0.857" transform="translate(463.012 351.969)" fill="#fff"/>
    <rect id="Rectangle_2570" data-name="Rectangle 2570" width="25.922" height="5.208" rx="0.857" transform="translate(463.012 368.977)" fill="#fff"/>
    <rect id="Rectangle_2571" data-name="Rectangle 2571" width="30.624" height="5.208" rx="0.857" transform="translate(496.021 368.977)" fill="#fff"/>
    <rect id="Rectangle_2572" data-name="Rectangle 2572" width="49.377" height="5.208" rx="0.857" transform="translate(534.995 368.977)" fill="#fff"/>
    <rect id="Rectangle_2573" data-name="Rectangle 2573" width="65.588" height="5.208" rx="0.857" transform="translate(518.992 351.969)" fill="#fff"/>
    <rect id="Rectangle_2574" data-name="Rectangle 2574" width="121.567" height="5.208" rx="0.857" transform="translate(463.012 402.29)" fill="#fff"/>
    <rect id="Rectangle_2575" data-name="Rectangle 2575" width="55.149" height="5.208" rx="0.857" transform="translate(463.012 385.83)" fill="#fff"/>
    <path id="Rectangle_2576" data-name="Rectangle 2576" d="M.857,0H54.793a.858.858,0,0,1,.858.858V4.351a.857.857,0,0,1-.857.857H.857A.857.857,0,0,1,0,4.35V.857A.857.857,0,0,1,.857,0Z" transform="translate(528.929 385.83)" fill="#fff"/>
    <path id="Path_29306" data-name="Path 29306" d="M1605.261,318.219h120.072a11.5,11.5,0,0,1,11.484,11.523v76.032a11.5,11.5,0,0,1-11.484,11.523h-81.017c-5.85,8.192-16.458,22.861-17.394,22.861-.877,0,.811-13.856,2-22.861h-23.662a11.5,11.5,0,0,1-11.484-11.523V329.742A11.5,11.5,0,0,1,1605.261,318.219Z" transform="translate(-862.247)" fill="#f47458"/>
    <path id="Path_29307" data-name="Path 29307" d="M1842.2,422.723h-58.375a.354.354,0,0,0-.354.354v4.5a.354.354,0,0,0,.354.354H1842.2a.354.354,0,0,0,.354-.354v-4.5A.354.354,0,0,0,1842.2,422.723Z" transform="translate(-980.996 -65.419)" fill="#fff"/>
    <rect id="Rectangle_2577" data-name="Rectangle 2577" width="49.377" height="5.208" rx="0.857" transform="translate(794.125 362.511) rotate(180)" fill="#fff"/>
    <rect id="Rectangle_2578" data-name="Rectangle 2578" width="65.587" height="5.208" rx="0.857" transform="translate(810.128 345.503) rotate(180)" fill="#fff"/>
    <path id="Rectangle_2579" data-name="Rectangle 2579" d="M.858,0H39.474a.856.856,0,0,1,.856.856V4.35a.857.857,0,0,1-.857.857H.858A.858.858,0,0,1,0,4.35V.858A.858.858,0,0,1,.858,0Z" transform="translate(861.558 345.503) rotate(180)" fill="#fff"/>
    <path id="Path_29308" data-name="Path 29308" d="M1628.566,517h117.017V511.8H1628.566Z" transform="translate(-884.026 -121.179)" fill="#fff"/>
    <rect id="Rectangle_2580" data-name="Rectangle 2580" width="55.651" height="5.207" transform="translate(861.558 379.364) rotate(180)" fill="#fff"/>
    <rect id="Rectangle_2581" data-name="Rectangle 2581" width="55.651" height="5.207" transform="translate(800.399 379.364) rotate(180)" fill="#fff"/>
    <path id="Path_29309" data-name="Path 29309" d="M633.676,1768.782s-.832,13.777-.837,13.806c-.306,1.749-1.511,6.071-1.511,7.661,0,5.974,28.366-5.071,22.009-7.719-.576-.24-3.59-2.052-3.779-4.085-.292-3.133-1.031-9.47-1.031-9.47Z" transform="translate(-259.756 -908.051)" fill="#f7a491"/>
    <path id="Path_29310" data-name="Path 29310" d="M648.585,1801.98s-6.659,1.827-10.071,2.283-7.908-3.389-10.321-2.35c-2.655,1.144-2.551,11.438-2.551,11.438s35.714,2.93,45.756-.1C675.378,1812.048,662.2,1806.235,648.585,1801.98Z" transform="translate(-256.197 -928.678)" fill="#b75742"/>
    <path id="Path_29311" data-name="Path 29311" d="M762.429,1765.259s-.832,13.777-.837,13.805c-.306,1.749-1.511,6.071-1.511,7.661,0,5.974,28.366-5.071,22.009-7.719-.576-.24-4.871-1-5.06-3.033-.292-3.132-.836-12.82-.836-12.82Z" transform="translate(-340.355 -904.528)" fill="#f7a491"/>
    <path id="Path_29312" data-name="Path 29312" d="M777.339,1801.98s-6.66,1.827-10.071,2.283-7.908-3.389-10.321-2.35c-2.655,1.144-2.551,11.438-2.551,11.438s35.714,2.93,45.756-.1C804.131,1812.048,790.954,1806.235,777.339,1801.98Z" transform="translate(-336.796 -928.678)" fill="#b75742"/>
    <path id="Path_29313" data-name="Path 29313" d="M515.474,1373.621l67.806.293s30.629-.8,35.471,9.789,3.691,145.108,3.691,145.108-16.348,2.431-17.186,1.534l-18.409-80.536a56.753,56.753,0,0,1-1.975-21.035l1.758-18.731-27.978,1.43s-31.719-.5-42.176-11.025S515.474,1373.621,515.474,1373.621Z" transform="translate(-184.777 -660.68)" fill="#5e5858"/>
    <path id="Path_29314" data-name="Path 29314" d="M397.847,1353.628l72.907,4.473s31.377,2.549,36.219,13.141-3.09,146.263-3.09,146.263-18.2,1.123-18.164.324c.044-.95-7.47-62.146-11.637-81.525a68.047,68.047,0,0,1-1.377-18.731l2.633-21.719s-67.72-.385-71.082-3.766C393.8,1381.567,397.847,1353.628,397.847,1353.628Z" transform="translate(-113.114 -648.165)" fill="#707070"/>
    <path id="Path_29315" data-name="Path 29315" d="M464.175,1044.547c-10.148-3.076-29.161-4.686-29.161-4.686s-11.918-1.938-15.791-1.1c-5.7,1.234-16.4,1.8-17.4,26.54-.712,17.705-2.728,61.509-4.749,91.088l72.569,4.4C466.361,1115.286,473.783,1047.46,464.175,1044.547Z" transform="translate(-113.114 -450.928)" fill="#6364d9"/>
    <path id="Path_29316" data-name="Path 29316" d="M505.964,985.524l-11.4,20.959s8.586,15.3,16.707,15.711c6.814.343,5.744-9.731,5.744-9.731s1.072-13.025,4.343-18.859S505.964,985.524,505.964,985.524Z" transform="translate(-174.143 -417.732)" fill="#f7a491"/>
    <path id="Path_29317" data-name="Path 29317" d="M522.414,993.918a42.948,42.948,0,0,0,11.465,8.613,33.386,33.386,0,0,1,2.89-8.927c1.509-2.693-1.655-4.62-5.5-5.915-5.15-1.369-9.9-2.164-9.9-2.164l-2.19,4.028A18.377,18.377,0,0,0,522.414,993.918Z" transform="translate(-189.554 -417.732)" fill="#f47458"/>
    <g id="Group_23670" data-name="Group 23670" transform="translate(318.807 518.027)">
      <path id="Path_29318" data-name="Path 29318" d="M527.209,884.743c-.47-.335-11.712,25.866-6.835,35.293s17.756,15.652,24.262,11.106c7.2-5.028,15.066-34.361,6.388-45.077S527.209,884.743,527.209,884.743Z" transform="translate(-508.34 -870.286)" fill="#f7a491"/>
      <path id="Path_29319" data-name="Path 29319" d="M532.861,852.535a31.2,31.2,0,0,0-18.277,4.607c-3.923-.608-9.669.055-17.456,7.4-9.574,9.029-8.079,22.4-2.09,30.422s3.987,14.807,3.987,14.807l2.187-3.189a20.45,20.45,0,0,0,3.266-8.036,16.831,16.831,0,0,0,.154-5.335c-.739-4.45,5.767-5.46,8.3-8.287,1.95-2.177,3.617-7.934,6.743-11.559l3.233-2.532s6.587-2.707,11.553-.044S544.2,853.332,532.861,852.535Z" transform="translate(-490.246 -852.463)" fill="#f7cc7f"/>
      <path id="Path_29320" data-name="Path 29320" d="M534.1,940.191c-.869,3.337-3.135,5.636-5.062,5.135s-2.784-3.612-1.916-6.948,3.135-5.635,5.062-5.135S534.968,936.854,534.1,940.191Z" transform="translate(-513.118 -902.988)" fill="#f7a491"/>
    </g>
    <path id="Path_29321" data-name="Path 29321" d="M570.759,980.864,581.4,983.24s-1.148,3.987-5.858,3.078C569.8,985.209,570.759,980.864,570.759,980.864Z" transform="translate(-221.802 -414.815)" fill="#fff"/>
    <g id="Group_23673" data-name="Group 23673" transform="translate(241.364 332.243)">
      <ellipse id="Ellipse_4114" data-name="Ellipse 4114" cx="11.624" cy="7.199" rx="11.624" ry="7.199" transform="translate(40.783 145.761)" fill="#adaeb5"/>
      <path id="Path_29322" data-name="Path 29322" d="M335.586,355.717a52.407,52.407,0,0,1,34.326,92.009c-.039.042-8.187,8.848-9.531,18.071l-.243,5.646a7.921,7.921,0,0,1-2.053,4.986c-.11.122-.225.238-.342.352H313.429c-.117-.114-.232-.23-.342-.352a7.921,7.921,0,0,1-2.052-4.986l-.244-5.646c-1.344-9.222-9.492-18.029-9.531-18.071a52.408,52.408,0,0,1,34.326-92.009Z" transform="translate(-283.179 -355.717)" fill="#f7cc7f"/>
      <path id="Rectangle_2582" data-name="Rectangle 2582" d="M22.268,0h0A22.268,22.268,0,0,1,44.536,22.268V32.7a0,0,0,0,1,0,0H0a0,0,0,0,1,0,0V22.268A22.268,22.268,0,0,1,22.268,0Z" transform="translate(74.675 153.764) rotate(-180)" fill="#544c60"/>
      <path id="Path_29323" data-name="Path 29323" d="M340.032,462.724a52.44,52.44,0,0,0,42.031-83.795,52.41,52.41,0,0,1,5.433,83.327c-.039.042-8.187,8.848-9.531,18.071l-.243,5.646a7.921,7.921,0,0,1-2.052,4.986c-.11.122-.225.238-.342.352H331.013c-.117-.114-.232-.23-.342-.352a7.921,7.921,0,0,1-2.052-4.986l-.244-5.646c-1.344-9.222-9.492-18.029-9.531-18.071a52.738,52.738,0,0,1-7.576-8.123A52.188,52.188,0,0,0,340.032,462.724Z" transform="translate(-300.763 -370.248)" fill="#eab054" opacity="0.3"/>
      <g id="Group_23671" data-name="Group 23671" transform="translate(31.048 22.129)">
        <path id="Path_29324" data-name="Path 29324" d="M387.922,470.58l10.413-45.419,9.139,26.418,2.68-.927-12.373-35.766-10.625,46.344-10.883-26.566-10.08,17.017,2.44,1.445,7.175-12.114Z" transform="translate(-366.194 -414.885)" fill="#fff"/>
      </g>
      <g id="Group_23672" data-name="Group 23672" transform="translate(28.723 52.789)">
        <path id="Path_29325" data-name="Path 29325" d="M455.788,571.966l.25.026a2.4,2.4,0,0,0,2.629-2.135l7.283-70.324a2.4,2.4,0,0,0-2.136-2.629l-.25-.026a2.4,2.4,0,0,0-2.63,2.136l-7.282,70.324A2.4,2.4,0,0,0,455.788,571.966Z" transform="translate(-418.61 -496.864)" fill="#544c60"/>
        <path id="Path_29326" data-name="Path 29326" d="M370.015,572h0a2.521,2.521,0,0,1-2.767-2.248l-7.257-70.074a2.521,2.521,0,0,1,2.248-2.767h0a2.521,2.521,0,0,1,2.767,2.248l7.257,70.074A2.521,2.521,0,0,1,370.015,572Z" transform="translate(-359.978 -496.884)" fill="#544c60"/>
      </g>
      <rect id="Rectangle_2583" data-name="Rectangle 2583" width="48.318" height="4.93" rx="2.465" transform="translate(76.552 125.993) rotate(180)" fill="#adaeb5"/>
      <rect id="Rectangle_2584" data-name="Rectangle 2584" width="48.318" height="4.93" rx="2.465" transform="translate(76.552 135.877) rotate(-180)" fill="#adaeb5"/>
      <rect id="Rectangle_2585" data-name="Rectangle 2585" width="43.184" height="4.93" rx="2.465" transform="translate(73.985 146.937) rotate(180)" fill="#adaeb5"/>
    </g>
    <path id="Path_29327" data-name="Path 29327" d="M547.594,1152.011l-56.055-14.827s-17.158-19.4-33.285-41.717c-5.762,4.764-8.214,17.342-14.009,22.052l37.012,36.84c1.285,1.7,63.5,6.111,63.5,6.111Z" transform="translate(-142.642 -486.557)" fill="#f7a491"/>
    <path id="Path_29328" data-name="Path 29328" d="M435.823,1104.347s-19.057-24.216-23.71-33.725.32-24.561,9.557-26.343,35.983,41.659,35.983,41.659Z" transform="translate(-121.418 -454.48)" fill="#4d4ed2"/>
    <g id="Group_23674" data-name="Group 23674" transform="translate(401.204 664.401)">
      <path id="Path_29329" data-name="Path 29329" d="M749.051,1252.513c.6-.8-.661-2.305-1.606-3.436-1.047-1.254-7.674-4.676-8.812-5.111s-11.188.283-15.085,1.269a13.523,13.523,0,0,1-6.372.3c-.985-.273-2.468-.65-3.618-.972l-3,8.723c8.954.5,18.262,1.813,19.111,1.85,2.692.117,7.811-2.357,8.981-2.692a8.05,8.05,0,0,1,4.967.988c1.505.836,5.914,2.881,6.7,2.53S749.051,1252.513,749.051,1252.513Z" transform="translate(-710.556 -1243.836)" fill="#f7a491"/>
    </g>
    <path id="Path_29330" data-name="Path 29330" d="M2302.737,393.21c-3.5-.163-7-.2-10.489-.437a2.539,2.539,0,0,1-1.8-1.172c-1.777-3.643-3.346-7.389-5.148-11.018a2.143,2.143,0,0,1,.117-2.684c2.584-3.391,5.077-6.853,7.6-10.291.409-.557.8-1.129,1.492-2.112l-14.28-12.581c-3.812,3.5-7.328,6.627-10.711,9.892-1.192,1.152-2.043,1.45-3.712.711-3.411-1.511-7.031-2.545-10.526-3.879a2.3,2.3,0,0,1-1.241-1.465c-.768-4.258-1.544-8.522-2.05-12.815-.243-2.06-1.138-2.7-3.039-2.573a11.769,11.769,0,0,1-2.219-.258l-9.921.532a5.976,5.976,0,0,1-1.055.375c-3.8.608-3.2.276-3.377,3.865-.221,4.372-.369,8.748-.524,12.545l-14.272,6.96-13.056-9.581a60.787,60.787,0,0,0-12.542,14.231c3.451,3.743,6.806,7.4,10.188,11.033a1.682,1.682,0,0,1,.438,2.122c-1.557,3.879-3.017,7.805-4.3,11.782a1.978,1.978,0,0,1-1.922,1.613c-4.344.652-8.672,1.4-13.013,2.073-1.079.166-1.62.532-1.744,1.762a54.178,54.178,0,0,0,1.154,16.318c.216,1.067.867,1.189,1.789,1.217,4.264.125,8.526.354,12.791.45a2.136,2.136,0,0,1,2.314,1.6c1.793,4.319,3.838,8.534,5.944,13.132l-9.194,12.528a56.656,56.656,0,0,0,14.26,12.83l11.6-10.8c4.346,1.389,8.354,2.785,12.434,3.914a2.718,2.718,0,0,1,2.368,2.642c.54,4.166,1.242,8.312,1.92,12.459.134.82.076,1.9,1.433,1.821q8.276-.507,16.552-1.01c1.173-.072,1.551-.712,1.579-1.875.1-4.328.4-8.652.429-12.979.012-1.669.791-2.207,2.152-2.8a99.492,99.492,0,0,0,9.886-4.858,2.39,2.39,0,0,1,3.262.182c3.81,2.964,7.737,5.778,11.536,8.589,3.342-2.036,10.712-10.435,12.752-14.473-3.358-3.58-6.716-7.235-10.174-10.793a2.062,2.062,0,0,1-.417-2.624c1.33-3.56,2.407-7.214,3.7-10.789a2.508,2.508,0,0,1,1.57-1.422c3.823-.672,7.672-1.21,11.518-1.747,2.15-.3,3.019-.414,3.406-1.25l-.945-17.605C2306.615,393.4,2305.565,393.342,2302.737,393.21ZM2273.4,404.7a28.533,28.533,0,0,1-26.964,30.02h0a28.533,28.533,0,0,1-30.02-26.964h0a28.533,28.533,0,0,1,26.964-30.02h0A28.533,28.533,0,0,1,2273.4,404.7Z" transform="translate(-1230.11 -15.217)" fill="#9bc1f9"/>
    <path id="Path_29331" data-name="Path 29331" d="M2626.7,545.26c-1.433-.578-2.886-1.106-4.307-1.712a1.119,1.119,0,0,1-.577-.751c-.209-1.777-.316-3.567-.538-5.342a.945.945,0,0,1,.44-1.1c1.572-1.036,3.115-2.115,4.668-3.179.252-.173.5-.354.93-.662l-4.115-7.325c-2.1.9-4.02,1.692-5.906,2.559a1.24,1.24,0,0,1-1.65-.246c-1.2-1.127-2.558-2.086-3.82-3.152a1.015,1.015,0,0,1-.3-.792c.3-1.886.6-3.776,1.015-5.639.2-.894-.08-1.292-.891-1.516a5.208,5.208,0,0,1-.887-.431l-4.211-1.226a2.668,2.668,0,0,1-.494,0c-1.671-.3-1.372-.351-1.971,1.117-.73,1.79-1.43,3.591-2.048,5.151l-6.962.818-4.043-5.9a26.82,26.82,0,0,0-7.3,4.1c.892,2.063,1.756,4.077,2.635,6.083a.743.743,0,0,1-.126.948c-1.216,1.389-2.4,2.813-3.513,4.282a.874.874,0,0,1-1.037.392c-1.9-.362-3.818-.68-5.724-1.035a.752.752,0,0,0-.984.479,23.912,23.912,0,0,0-1.9,6.968c-.066.476.188.622.568.768,1.759.674,3.5,1.392,5.264,2.054a.943.943,0,0,1,.731,1c.117,2.061.354,4.116.561,6.339l-5.659,3.879a25,25,0,0,0,4.07,7.427l6.411-2.808c1.609,1.212,3.075,2.379,4.61,3.445a1.2,1.2,0,0,1,.6,1.446c-.383,1.815-.7,3.645-1.018,5.472-.064.361-.246.8.331.968q3.522,1,7.044,1.994c.5.141.75-.07.931-.551.675-1.788,1.428-3.547,2.073-5.346.249-.694.652-.8,1.306-.854a43.976,43.976,0,0,0,4.828-.582,1.055,1.055,0,0,1,1.333.552c1.155,1.791,2.381,3.536,3.554,5.262a23.981,23.981,0,0,0,7.425-4.17c-.877-1.982-1.743-3.994-2.665-5.982a.91.91,0,0,1,.209-1.154c1.073-1.29,2.055-2.655,3.116-3.956a1.106,1.106,0,0,1,.861-.364c1.691.278,3.373.615,5.054.952.94.188,1.319.268,1.6-.024l2.175-7.473C2628.284,545.906,2627.856,545.727,2626.7,545.26Zm-13.9.507a12.6,12.6,0,0,1-15.615,8.575h0a12.6,12.6,0,0,1-8.575-15.615h0a12.6,12.6,0,0,1,15.615-8.575h0a12.6,12.6,0,0,1,8.575,15.615Z" transform="translate(-1475.28 -122.921)" fill="#9bc1f9" opacity="0.2"/>
    <rect id="Rectangle_2586" data-name="Rectangle 2586" width="7.102" height="103.871" transform="translate(961.467 871.619) rotate(180)" fill="#13375b"/>
    <g id="Group_23675" data-name="Group 23675" transform="translate(773.708 690.338)">
      <path id="Path_29332" data-name="Path 29332" d="M1905.7,1726.858s-1.553,16.212-.532,21.5a19.743,19.743,0,0,0,.788,2.592c1.053,2.964-1.83,12.015-1.83,12.015l-38.65.137c-2.105.007-.7-1.269,1.015-2.439,2.8-1.916,5.061-3.177,13.989-7.167.582-.26,2.706-1.514,3.471-1.947a26.45,26.45,0,0,0,5.588-4.593c2.813-2.914,3.24-17.2,3.24-17.2Z" transform="translate(-1805.378 -1572.144)" fill="#f7a491"/>
      <path id="Path_29333" data-name="Path 29333" d="M1878.945,1791.921c10.187,2.622,17.763,1.011,22.011-.564,1.051,2.959,2.859,14.078,1.678,14.078-9.692,0-17.723.641-45.494.223-.994-.015-.873-3.28-.224-4C1858.707,1799.668,1878.177,1792.357,1878.945,1791.921Z" transform="translate(-1800.365 -1612.52)" fill="#6364d9"/>
      <path id="Path_29334" data-name="Path 29334" d="M1768.883,1650.807s-8.453,14.134-9.82,19.349a19.63,19.63,0,0,0-.408,2.671c-.329,3.114-6.882,10.205-6.882,10.205l-35.222-15.212c-1.919-.828-.084-1.431,1.983-1.816,3.382-.63,5.985-.882,15.839-.969.642-.006,3.119-.3,4-.394a27.659,27.659,0,0,0,7.078-1.961c3.824-1.535,10.418-14.365,10.418-14.365Z" transform="translate(-1712.305 -1522.976)" fill="#f7a491"/>
      <path id="Path_29335" data-name="Path 29335" d="M1732.63,1691.326c8.129,6.427,15.721,7.969,20.27,8.22-.328,3.11-2.874,13-3.947,12.53-8.818-3.846-17.042-5.5-42.125-16.9-.9-.408.63-3.33,1.533-3.728C1710.854,1690.344,1731.743,1691.417,1732.63,1691.326Z" transform="translate(-1706.554 -1549.662)" fill="#6364d9"/>
      <path id="Path_29336" data-name="Path 29336" d="M2008.072,1320.322v8.331l-81.938,16.472-20.338,58.4,11.333-7.4-2.617,89.924,17.235.114s29.862-75.446,20.066-113.391l90.687,1.326s41.1-15.171,19.893-60.915Z" transform="translate(-1831.279 -1313.185)" fill="#ffa950"/>
      <path id="Path_29337" data-name="Path 29337" d="M1940.963,1354.544s-85,.545-91.036,4.988-51.334,114.871-51.334,114.871l19.757,7.053s39.3-62.647,41.385-67.116,17.3-37.138,23.115-40.47S1940.963,1354.544,1940.963,1354.544Z" transform="translate(-1764.17 -1339.076)" fill="#fc9d3a"/>
    </g>
    <path id="Path_29338" data-name="Path 29338" d="M2171.663,1810.275h-70.574a5.886,5.886,0,0,0-5.886,5.886h0a1.03,1.03,0,0,0,1.03,1.029h80.287a1.03,1.03,0,0,0,1.029-1.029h0A5.886,5.886,0,0,0,2171.663,1810.275Z" transform="translate(-1176.139 -934.025)" fill="#13375b"/>
    <path id="Path_29339" data-name="Path 29339" d="M2189.473,1797.893h-8.645a4.631,4.631,0,0,0-4.631,4.631h0a4.632,4.632,0,0,0,4.631,4.631h8.645a4.631,4.631,0,0,0,4.631-4.631h0A4.631,4.631,0,0,0,2189.473,1797.893Z" transform="translate(-1226.842 -926.274)" fill="#13375b"/>
    <path id="Path_29340" data-name="Path 29340" d="M2205.05,1038.114s17.094-3.374,24.9,3.143-1.671,64.464-1.663,74.069,5.357,36.746,5.357,36.746-51.812,9.069-60.043-5.352c0,0-2.342-54.94-1.993-61.849s8.031-35.164,10.155-38.19S2205.05,1038.114,2205.05,1038.114Z" transform="translate(-1223.943 -450.107)" fill="#6364d9"/>
    <path id="Path_29341" data-name="Path 29341" d="M2235.349,968.226s.09.511.251,1.381c.775,4.173,3.761,18.013,5.778,21.819,2.438,4.6-8.345,19.265-18.722,17.475-3.09-.533,2.611-13.476,2.337-14.846-.524-2.625-1.236-6.2-1.963-9.876-.411-2.071-.827-4.171-1.217-6.144-1.11-5.608-2.015-10.195-2.015-10.195Z" transform="translate(-1254.135 -406.661)" fill="#f7a491"/>
    <path id="Path_29342" data-name="Path 29342" d="M2235.6,969.607c-.162-.87-.251-1.381-.251-1.381l-15.552-.387s.906,4.587,2.015,10.195c.389,1.962.8,4.05,1.21,6.11a14.582,14.582,0,0,0,7.425-3.715,19.577,19.577,0,0,0,5.625-8.348C2235.881,971.1,2235.72,970.254,2235.6,969.607Z" transform="translate(-1254.135 -406.661)" fill="#f47458"/>
    <path id="Path_29343" data-name="Path 29343" d="M2208.09,874.479s7.329-.845,11.924,5.085,9.547,24.271-1.866,34.242-22.691-1.315-24.363-13.283S2191.462,874.047,2208.09,874.479Z" transform="translate(-1237.343 -348.192)" fill="#f7a491"/>
    <path id="Path_29344" data-name="Path 29344" d="M2184.486,932.769c1.363,2.643,3.649,4.107,5.108,3.269s1.536-3.66.174-6.3-3.649-4.107-5.107-3.269S2183.124,930.126,2184.486,932.769Z" transform="translate(-1231.422 -380.615)" fill="#f7a491"/>
    <path id="Path_29345" data-name="Path 29345" d="M2231.2,869s9.793,17.441,16.8,18.246,7.926,10.073,7.926,10.073-2.5-21.354-9.44-25.473S2231.2,869,2231.2,869Z" transform="translate(-1261.273 -344.67)" fill="#f7cc7f"/>
    <path id="Path_29346" data-name="Path 29346" d="M2270.958,921.575c-.569,3.1.576,5.937,2.56,6.344s4.053-1.775,4.622-4.872-.576-5.937-2.559-6.344S2271.528,918.478,2270.958,921.575Z" transform="translate(-1286.07 -374.62)" fill="#f7a491"/>
    <path id="Path_29347" data-name="Path 29347" d="M2213.072,961.229l8.565-.443a3.749,3.749,0,0,1-3.79,3.567C2213.261,964.724,2213.072,961.229,2213.072,961.229Z" transform="translate(-1249.926 -402.246)" fill="#fff"/>
    <path id="Path_29348" data-name="Path 29348" d="M2123.134,1260.236s-84.5,1.447-93.31,0-12.622,9.6-9.993,15.384,9.861,8.02,20.511,8.547,99.271,3.024,101.769.657c2.041-1.933,28.906-93.78,38.681-127.368a12.669,12.669,0,0,0-8.608-15.7h0a12.681,12.681,0,0,0-15.706,8.488Z" transform="translate(-1128.445 -515.211)" fill="#f47458"/>
    <g id="Group_23676" data-name="Group 23676" transform="translate(218.933 625.345)">
      <rect id="Rectangle_2587" data-name="Rectangle 2587" width="7.145" height="104.483" transform="translate(91.927 142.552)" fill="#13375b"/>
      <path id="Path_29349" data-name="Path 29349" d="M372.1,1812.382h70.989a5.92,5.92,0,0,1,5.92,5.92h0a1.035,1.035,0,0,1-1.035,1.035h-80.76a1.035,1.035,0,0,1-1.035-1.035h0A5.92,5.92,0,0,1,372.1,1812.382Z" transform="translate(-312.705 -1560.689)" fill="#13375b"/>
      <path id="Path_29350" data-name="Path 29350" d="M459.709,1799.926h8.7a4.658,4.658,0,0,1,4.658,4.659h0a4.658,4.658,0,0,1-4.658,4.659h-8.7a4.658,4.658,0,0,1-4.659-4.659h0A4.658,4.658,0,0,1,459.709,1799.926Z" transform="translate(-368.34 -1552.891)" fill="#13375b"/>
      <path id="Path_29351" data-name="Path 29351" d="M435.344,1397.533l-4.884-20.333a32.988,32.988,0,0,0-30.624-25.158l-61.866-2.5-1.91-6.3,64.027,2.588a39.228,39.228,0,0,1,36.417,29.917l5.191,21.607C439.937,1397.43,437.793,1397.489,435.344,1397.533Z" transform="translate(-293.852 -1267.009)" fill="#355389"/>
      <path id="Path_29352" data-name="Path 29352" d="M281.713,1259.1s85,1.455,93.859,0,12.7,9.655,10.052,15.474-9.92,8.068-20.633,8.6-99.855,3.041-102.368.661c-2.053-1.944-29.076-94.332-38.909-128.118a12.744,12.744,0,0,1,8.659-15.79h0a12.755,12.755,0,0,1,15.8,8.538Z" transform="translate(-223.204 -1139.408)" fill="#f7cc7f"/>
    </g>
    <g id="Group_23677" data-name="Group 23677" transform="translate(407.812 617.38)">
      <path id="Path_29353" data-name="Path 29353" d="M866.317,1118.113H795.408a4.625,4.625,0,0,0-4.278,2.87L769.3,1174.233H730.2a1.978,1.978,0,0,0-1.979,1.978h0a1.979,1.979,0,0,0,1.979,1.978h111.26a7.768,7.768,0,0,0,7.086-4.586l21.984-48.973A4.623,4.623,0,0,0,866.317,1118.113Z" transform="translate(-728.225 -1118.113)" fill="#86b1f2"/>
      <path id="Path_29354" data-name="Path 29354" d="M982.513,1192.393a3.9,3.9,0,1,1-2.925-5.089A4.171,4.171,0,0,1,982.513,1192.393Z" transform="translate(-882.599 -1161.385)" fill="#fff"/>
    </g>
    <g id="Group_23678" data-name="Group 23678" transform="translate(780.709 617.38)">
      <path id="Path_29355" data-name="Path 29355" d="M1729.9,1118.113h70.909a4.624,4.624,0,0,1,4.278,2.87l21.833,53.251h39.092a1.978,1.978,0,0,1,1.979,1.978h0a1.978,1.978,0,0,1-1.979,1.978h-111.26a7.768,7.768,0,0,1-7.086-4.586l-21.984-48.973A4.624,4.624,0,0,1,1729.9,1118.113Z" transform="translate(-1725.273 -1118.113)" fill="#6394db"/>
      <path id="Path_29356" data-name="Path 29356" d="M1839.563,1192.393a3.9,3.9,0,1,0,2.925-5.089A4.171,4.171,0,0,0,1839.563,1192.393Z" transform="translate(-1796.756 -1161.385)" fill="#fff"/>
    </g>
    <rect id="Rectangle_2588" data-name="Rectangle 2588" width="528.43" height="11.889" rx="4.651" transform="translate(924.681 689.345) rotate(180)" fill="#13375b"/>
    <path id="Path_29357" data-name="Path 29357" d="M2009.2,1506.122h8.461l-18.23-195.591h-8.461Z" transform="translate(-1110.888 -621.186)" fill="#13375b"/>
    <path id="Path_29358" data-name="Path 29358" d="M1833.321,1506.122h-8.461l18.23-195.591h8.461Z" transform="translate(-1006.905 -621.186)" fill="#13375b"/>
    <path id="Path_29359" data-name="Path 29359" d="M916.814,1506.122h8.461l-18.231-195.591h-8.461Z" transform="translate(-427.057 -621.186)" fill="#13375b"/>
    <path id="Path_29360" data-name="Path 29360" d="M1627.4,1017.565a12.172,12.172,0,0,1-1.28,3.1c-3.687,6.711-12.242,16.288-12.242,16.288l-6.617-14.91s1.079-4.682,2.95-11.374C1616.6,1012.34,1622.688,1013.307,1627.4,1017.565Z" transform="translate(-870.687 -433.475)" fill="#f8a492"/>
    <path id="Path_29361" data-name="Path 29361" d="M1559.66,907.266s36.911,15.9,38.1,15.591c.769-.2,15.141-24.251,15.294-46.873.071-10.448-10.78-23.016-22.886-20.531-6.095,1.251-6,2.947-15.018,16.05S1559.66,907.266,1559.66,907.266Z" transform="translate(-840.89 -336.109)" fill="#f19b43"/>
    <path id="Path_29362" data-name="Path 29362" d="M1439.152,1756.494s.875,14.5.881,14.526c.322,1.841,1.59,6.388,1.59,8.061,0,6.286-29.847-5.336-23.158-8.121.606-.252,3.777-2.159,3.976-4.3.307-3.3,1.085-9.965,1.085-9.965Z" transform="translate(-751.891 -900.359)" fill="#f7a491"/>
    <path id="Path_29363" data-name="Path 29363" d="M1375.3,1793.289a106.973,106.973,0,0,0,10.788,2.685c3.653.537,8.47-3.985,11.055-2.763,2.844,1.344,2.733,13.446,2.733,13.446s-38.256,3.445-49.013-.119C1346.6,1805.126,1360.713,1798.292,1375.3,1793.289Z" transform="translate(-709.698 -923.212)" fill="#dd513a"/>
    <path id="Path_29364" data-name="Path 29364" d="M1602.4,1756.494s.876,14.5.881,14.526c.322,1.841,1.59,6.388,1.59,8.061,0,6.286-29.847-5.336-23.158-8.121.606-.252,4.718-3.583,4.917-5.721.307-3.3.145-8.541.145-8.541Z" transform="translate(-854.086 -900.359)" fill="#f7a491"/>
    <path id="Path_29365" data-name="Path 29365" d="M1541.525,1793.289a106.962,106.962,0,0,0,10.787,2.685c3.654.537,8.471-3.985,11.055-2.763,2.844,1.344,2.958,13.446,2.958,13.446s-38.429,4.016-49.238-.119C1512.89,1804.932,1526.94,1798.292,1541.525,1793.289Z" transform="translate(-813.768 -923.212)" fill="#dd513a"/>
    <g id="Group_23679" data-name="Group 23679" transform="translate(677.241 478.306)">
      <path id="Path_29366" data-name="Path 29366" d="M1510.575,860.073l-26.287-36.825c-.11-.322-.349-.982-.714-1.99-1.324-3.654-4.078-11.257-6.479-18.822l-.025-.081c-.754-2.643-2.352-7.256-3.9-11.719-1.719-4.961-3.851-11.113-3.925-12.163.066-.179.19-.5.355-.929a84.907,84.907,0,0,0,2.728-11.051c.294-1.649.587-5.66-1.374-5.66-3.083,0-1.614,4-3.035,6.507a63.091,63.091,0,0,1-2.137-8.345l-.515-7.829c-.1-.59.529-4.909-1.634-4.909l-.1,0c-1.943.142-1.9,4.734-2.707,12.5-.255-.894-.511-1.972-.7-2.962a28.379,28.379,0,0,0-.657-4.1c.39-2.164.163-5.577-2.141-5.255-1.155.162-1.06,4.925-1.06,4.925.012.653.08,5.69.045,6.685-.238-1.69-1.161-8.9-2.969-8.9-1.5,0-1.62,1.94-1.589,3.475.018.908.961,8.717,1.013,9.625-.706-1.184-1.543-8.066-2.243-8.066-2.924,0-1.867,9.784-.793,12.334a11.453,11.453,0,0,1,.333,1.365,24.016,24.016,0,0,0,2.507,7.28c1.836,3.141,4.368,8.133,4.754,8.9.283,1.56,1.162,7.169,2.269,14.225.474,3.019.993,6.33,1.533,9.758l.029,0c.1.742.648,3.1,2.727,11.955,2.845,12.115,3.141,12.638,3.267,12.862,1.235,2.187,29.578,40.677,30.784,42.314l.711.966Z" transform="translate(-1448.62 -746.257)" fill="#f7a491"/>
      <path id="Path_29367" data-name="Path 29367" d="M1483.545,811.445s2.133-5.457,5.932-5.466a4.367,4.367,0,0,0-3.942.675C1483.715,808.094,1483.545,811.445,1483.545,811.445Z" transform="translate(-1470.483 -783.515)" fill="#f47458"/>
    </g>
    <g id="Group_23680" data-name="Group 23680" transform="translate(723.422 447.911)">
      <path id="Path_29368" data-name="Path 29368" d="M1597.021,790.649l3.384,21.4s-12.894,10.353-20.411,8.169c-6.307-1.833-1.981-10.078-1.981-10.078s3.359-11.425,2.328-17.413S1597.021,790.649,1597.021,790.649Z" transform="translate(-1574.896 -742.867)" fill="#f7a491"/>
      <path id="Path_29369" data-name="Path 29369" d="M1600.336,797.123a52.664,52.664,0,0,1-14.594,4.113,28.4,28.4,0,0,0,.344-8.5c-.475-2.764,3.041-3.418,6.966-3.322,5.136.44,9.714,1.242,9.714,1.242l.65,4.112A10.606,10.606,0,0,1,1600.336,797.123Z" transform="translate(-1580.64 -742.87)" fill="#fe875e"/>
      <path id="Path_29370" data-name="Path 29370" d="M1610.5,707.49c.532,0-5.1,23.908-13.808,28.022s-21.7,1.969-24.141-4.47c-2.7-7.122,7.139-31.513,19.391-34.611S1610.5,707.49,1610.5,707.49Z" transform="translate(-1572.1 -684.393)" fill="#f7a491"/>
      <path id="Path_29371" data-name="Path 29371" d="M1624.393,666.117a27.432,27.432,0,0,1,11.227,12.4c3.266,1.55,7.218,4.9,9.115,13.934,2.333,11.105-5.96,19.666-14.752,22.241s-10.149,8.393-10.149,8.393l-1-6.261s1.956-5.451,4.9-8.179-1.393-6.7-1.774-9.947c-.293-2.5,1.545-7.346,1.147-11.443,0,0-4.885-7.4-9.7-9.233C1605.2,674.907,1615.465,660.968,1624.393,666.117Z" transform="translate(-1596.076 -664.987)" fill="#13375b"/>
      <path id="Path_29372" data-name="Path 29372" d="M1636.869,759.564c-1.139,2.761-.673,5.5,1.039,6.123s4.024-1.115,5.163-3.876.673-5.5-1.04-6.123S1638.007,756.8,1636.869,759.564Z" transform="translate(-1612.255 -721.687)" fill="#f7a491"/>
    </g>
    <path id="Path_29373" data-name="Path 29373" d="M1466.278,1014.014l-50.706-8.266s5.769-14.524,7.831-14.524,38.34,15.838,38.34,15.838l2.886,5.795Z" transform="translate(-750.691 -421.3)" fill="#f8a492"/>
    <path id="Path_29374" data-name="Path 29374" d="M1555.041,1141.238s5.058,24.454,3,43-2.223,84.409-2.223,84.409l7.866,105.387-18.664.406S1522.884,1269.1,1523.3,1271.8s-7.421-74.167-7.421-74.167l26.385-58.716Z" transform="translate(-813.482 -513.758)" fill="#5e5858"/>
    <path id="Path_29375" data-name="Path 29375" d="M1483.85,1128.442s3.3,22.018-.824,31.675-35.36,104.412-35.772,112.138-10.8,93.118-10.8,93.118l-21.7-.61-4.695-94.94,9.831-119.325,9.545-30.169Z" transform="translate(-747.238 -502.12)" fill="#707070"/>
    <path id="Path_29376" data-name="Path 29376" d="M1602.826,838.377s-5.352,3.511-10.343,3.1-12.049-5.013-12.049-5.013l.981-3.324s12.913-1.881,13.238-1.678S1602.826,838.377,1602.826,838.377Z" transform="translate(-853.895 -321.283)" fill="#f7a491"/>
    <path id="Path_29377" data-name="Path 29377" d="M1429.79,959.272s-19.18,18.1-27.837,15.009-12.24-13.654,8.884-29.109C1429.742,931.341,1429.79,959.272,1429.79,959.272Z" transform="translate(-737.899 -390.065)" fill="#f8a492"/>
    <path id="Path_29378" data-name="Path 29378" d="M1442,920.653c2.849-15.5,23.5-63.738,25.148-72.622.8-4.321,11.94-4.416,22.55-3.852,11.206.6,22.339,2.013,22.339,2.013s9.92,1.629,14.285,5.719,5.524,15.4-.75,36.872c-4.953,16.949-11.093,26.256-14.132,38.6-.616,4.142-1.143,8.227-1.841,13-1.117,18.46.013,42.848.013,42.848s-54.006,11.2-74.207-5.794C1435.408,977.437,1439.085,936.534,1442,920.653Z" transform="translate(-763.109 -329.097)" fill="#ffa950"/>
    <path id="Path_29379" data-name="Path 29379" d="M1416.226,888.359s21.191,17.492,22.428,17.492c.8,0,30.241-21.66,37.037-39.454,3.758-9.837-4.124-20.844-13.126-20.807-6.24.025-9.014,1.633-21.382,12.063S1416.226,888.359,1416.226,888.359Z" transform="translate(-751.101 -330.134)" fill="#f19b43"/>
    <path id="Path_29380" data-name="Path 29380" d="M740.936,1506.122h-8.461l18.23-195.591h8.461Z" transform="translate(-323.074 -621.186)" fill="#13375b"/>
    <path id="Rectangle_2589" data-name="Rectangle 2589" d="M1.686,0H798.216A1.686,1.686,0,0,1,799.9,1.686v0a1.686,1.686,0,0,1-1.686,1.686H1.685A1.685,1.685,0,0,1,0,1.686v0A1.686,1.686,0,0,1,1.686,0Z" transform="translate(248.799 883.265)" fill="#3c8f7c"/>
    <path id="Path_29381" data-name="Path 29381" d="M2053.576,1149.863c-.59-1.71,7.718-3.059,8.166-4.785s-10.477-1.9-10.863-3.417c-.711-2.8,11.977-.547,11.731-1.854s-13.215-4.273-11.8-6.511,13.128,4.478,13.489,2.958-11.458-5.265-11.235-8.6c.119-1.783,19.388,8.961,21.63,8s-2.376-9.36-.589-10.6,6.84,17.06,8.068,17.674,27.258,15.591,36.53,17.99c1.138-3.1,9.293-19.557,10.3-22.493,5.194,3.724,11.231,4.554,16.594,7.951-3.927,9.744-17.388,33.719-20.105,34.936-8.272,3.7-40.123-22.9-46.483-27.458s-10.023-3.1-14.333-4.55S2054.166,1151.572,2053.576,1149.863Z" transform="translate(-1148.28 -505.04)" fill="#f7a491"/>
    <path id="Path_29382" data-name="Path 29382" d="M2270.716,1095.235s11.27-24.985,12.982-34.681-6.607-21.867-15.32-21.083-21.776,43.921-21.776,43.921Z" transform="translate(-1270.915 -451.481)" fill="#4d4ed2"/>
    <path id="Path_29383" data-name="Path 29383" d="M1578.968,768.632l7.939,3.575a3.806,3.806,0,0,1-5.078,1.462C1577.517,771.875,1578.968,768.632,1578.968,768.632Z" transform="translate(-852.83 -281.958)" fill="#fff"/>
    <path id="Path_29384" data-name="Path 29384" d="M2480.092,739.962c-1.923-1.747-3.908-3.427-5.8-5.211a1.883,1.883,0,0,1-.474-1.521c.706-2.926,1.58-5.811,2.266-8.74.2-.852.461-1.277,1.336-1.48,3.083-.718,6.146-1.519,9.217-2.293.5-.125.991-.268,1.852-.5l-2.22-13.953c-3.837.2-7.328.325-10.808.594a2.087,2.087,0,0,1-2.46-1.35c-1.237-2.478-2.819-4.782-4.187-7.2a1.7,1.7,0,0,1-.018-1.425c1.575-2.8,3.148-5.606,4.889-8.3.836-1.294.627-2.085-.522-2.91a8.767,8.767,0,0,1-1.147-1.2l-5.928-4.388a4.475,4.475,0,0,1-.781-.284c-2.46-1.449-1.959-1.354-3.76.614-2.194,2.4-4.349,4.831-6.233,6.93l-11.458-2.768-2.938-11.657a45.11,45.11,0,0,0-13.907,2.21c.2,3.774.394,7.454.61,11.132a1.248,1.248,0,0,1-.753,1.421c-2.726,1.484-5.419,3.039-8.036,4.706a1.469,1.469,0,0,1-1.863.013c-2.793-1.682-5.626-3.3-8.426-4.969a1.264,1.264,0,0,0-1.832.183,40.235,40.235,0,0,0-7.058,9.883c-.381.712-.066,1.091.448,1.542,2.381,2.089,4.711,4.236,7.105,6.308a1.585,1.585,0,0,1,.568,2.011c-1.017,3.32-1.841,6.7-2.811,10.326l-11.186,2.819a42.045,42.045,0,0,0,2.091,14.086l11.749-.692c1.83,2.851,3.462,5.545,5.263,8.121a2.016,2.016,0,0,1,.105,2.631c-1.661,2.639-3.221,5.343-4.794,8.037-.311.532-.857,1.125-.042,1.72q4.975,3.624,9.948,7.251c.705.513,1.224.326,1.79-.326,2.107-2.427,4.32-4.762,6.386-7.223.8-.95,1.5-.889,2.558-.587a73.8,73.8,0,0,0,7.954,1.9c1.157.195,1.539.558,1.781,1.647.778,3.5,1.694,6.965,2.538,10.371,2.876.416,11.065-.9,14.143-2.25-.229-3.636-.421-7.316-.717-10.987-.074-.919.246-1.262,1-1.7,2.444-1.409,4.789-2.99,7.22-4.423a1.861,1.861,0,0,1,1.57-.072c2.505,1.424,4.962,2.937,7.417,4.449,1.372.845,1.923,1.191,2.54.9l7.786-10.519C2482.22,741.906,2481.647,741.375,2480.092,739.962Zm-22.217-7.3a21.182,21.182,0,0,1-29.627,4.423h0a21.183,21.183,0,0,1-4.423-29.628h0a21.182,21.182,0,0,1,29.628-4.423h0a21.182,21.182,0,0,1,4.423,29.627Z" transform="translate(-1363.046 -222.041)" fill="#cae1f9"/>
  </g>
</svg>
