   <svg
      xmlns="http://www.w3.org/2000/svg"
     width="564.8"
       height="416.553"
      viewBox="0 0 564.8 416.553"
    >
      <g
        id="Group_22790"
        data-name="Group 22790"
        transform="translate(-801.2 -843)"
      >
        <g
          id="Background_Complete"
          data-name="Background Complete"
          transform="translate(801.2 843)"
        >
          <g id="Group_21774" data-name="Group 21774">
            <rect
              id="Rectangle_2221"
              data-name="Rectangle 2221"
              width="37.415"
              height="0.282"
              transform="translate(470.794 388.064)"
              fill="#ebebeb"
            />
            <rect
              id="Rectangle_2222"
              data-name="Rectangle 2222"
              width="9.82"
              height="0.282"
              transform="translate(364.326 391.13)"
              fill="#ebebeb"
            />
            <rect
              id="Rectangle_2223"
              data-name="Rectangle 2223"
              width="21.68"
              height="0.282"
              transform="translate(447.983 377.575)"
              fill="#ebebeb"
            />
            <rect
              id="Rectangle_2224"
              data-name="Rectangle 2224"
              width="48.791"
              height="0.282"
              transform="translate(59.258 379.473)"
              fill="#ebebeb"
            />
            <rect
              id="Rectangle_2225"
              data-name="Rectangle 2225"
              width="7.154"
              height="0.282"
              transform="translate(118.106 379.473)"
              fill="#ebebeb"
            />
            <rect
              id="Rectangle_2226"
              data-name="Rectangle 2226"
              width="105.816"
              height="0.282"
              transform="translate(148.51 384.242)"
              fill="#ebebeb"
            />
            <path
              id="Path_13397"
              data-name="Path 13397"
              d="M262.779,374.457H44.655a6.456,6.456,0,0,1-6.448-6.448V61.4a6.455,6.455,0,0,1,6.448-6.447H262.779a6.454,6.454,0,0,1,6.447,6.447v306.61A6.455,6.455,0,0,1,262.779,374.457ZM44.655,55.235A6.171,6.171,0,0,0,38.489,61.4v306.61a6.172,6.172,0,0,0,6.165,6.165H262.779a6.171,6.171,0,0,0,6.164-6.165V61.4a6.171,6.171,0,0,0-6.164-6.164Z"
              transform="translate(4.952 -54.953)"
              fill="#ebebeb"
            />
            <path
              id="Path_13398"
              data-name="Path 13398"
              d="M479.076,374.457H260.952a6.455,6.455,0,0,1-6.447-6.448V61.4a6.454,6.454,0,0,1,6.447-6.447H479.076a6.455,6.455,0,0,1,6.448,6.447v306.61A6.456,6.456,0,0,1,479.076,374.457ZM260.952,55.235a6.171,6.171,0,0,0-6.164,6.164v306.61a6.171,6.171,0,0,0,6.164,6.165H479.076a6.172,6.172,0,0,0,6.165-6.165V61.4a6.172,6.172,0,0,0-6.165-6.164Z"
              transform="translate(32.984 -54.953)"
              fill="#ebebeb"
            />
            <rect
              id="Rectangle_2227"
              data-name="Rectangle 2227"
              width="564.8"
              height="0.282"
              transform="translate(0 369.882)"
              fill="#ebebeb"
            />
          </g>
          <g
            id="Group_21780"
            data-name="Group 21780"
            transform="translate(83.957 35.897)"
          >
            <g
              id="Group_21777"
              data-name="Group 21777"
              transform="translate(235.748)"
            >
              <rect
                id="Rectangle_2228"
                data-name="Rectangle 2228"
                width="140.958"
                height="150.113"
                transform="translate(10.09 8.966)"
                fill="#ebebeb"
              />
              <rect
                id="Rectangle_2229"
                data-name="Rectangle 2229"
                width="124.014"
                height="133.17"
                transform="translate(18.562 17.438)"
                fill="#f5f5f5"
              />
              <g
                id="Group_21775"
                data-name="Group 21775"
                transform="translate(49.919 17.438)"
              >
                <path
                  id="Path_13399"
                  data-name="Path 13399"
                  d="M342.55,235.339h37.277l35-133.17H377.546Z"
                  transform="translate(-325.229 -102.169)"
                  fill="#fafafa"
                />
                <path
                  id="Path_13400"
                  data-name="Path 13400"
                  d="M362.213,102.169l-35,133.17h9.037l35-133.17Z"
                  transform="translate(-327.217 -102.169)"
                  fill="#fafafa"
                />
              </g>
              <g id="Group_21776" data-name="Group 21776">
                <path
                  id="Path_13401"
                  data-name="Path 13401"
                  d="M435.257,101.738H290.725l-3.05-7.116H438.307Z"
                  transform="translate(-282.423 -85.709)"
                  fill="#f5f5f5"
                />
                <path
                  id="Path_13402"
                  data-name="Path 13402"
                  d="M435.257,105.388H290.725l-3.05-7.116H438.307Z"
                  transform="translate(-282.423 -85.236)"
                  fill="#f0f0f0"
                />
                <path
                  id="Path_13403"
                  data-name="Path 13403"
                  d="M435.257,109.037H290.725l-3.05-7.116H438.307Z"
                  transform="translate(-282.423 -84.763)"
                  fill="#e6e6e6"
                />
                <path
                  id="Path_13404"
                  data-name="Path 13404"
                  d="M435.257,112.686H290.725l-3.05-7.116H438.307Z"
                  transform="translate(-282.423 -84.29)"
                  fill="#e0e0e0"
                />
                <rect
                  id="Rectangle_2230"
                  data-name="Rectangle 2230"
                  width="161.137"
                  height="9.489"
                  fill="#e0e0e0"
                />
                <path
                  id="Path_13405"
                  data-name="Path 13405"
                  d="M284.678,178.018h0a1.64,1.64,0,0,1-1.64-1.64V121.035a1.64,1.64,0,0,1,1.64-1.64h0a1.64,1.64,0,0,1,1.639,1.64v55.342A1.64,1.64,0,0,1,284.678,178.018Z"
                  transform="translate(-283.024 -82.498)"
                  fill="#e0e0e0"
                />
                <rect
                  id="Rectangle_2231"
                  data-name="Rectangle 2231"
                  width="1.186"
                  height="32.869"
                  transform="translate(1.061 7.586)"
                  fill="#e0e0e0"
                />
              </g>
            </g>
            <g id="Group_21779" data-name="Group 21779">
              <g
                id="Group_21778"
                data-name="Group 21778"
                transform="translate(16.266 6.061)"
              >
                <rect
                  id="Rectangle_2232"
                  data-name="Rectangle 2232"
                  width="2.033"
                  height="158.557"
                  fill="#e0e0e0"
                />
                <rect
                  id="Rectangle_2233"
                  data-name="Rectangle 2233"
                  width="2.033"
                  height="158.557"
                  transform="translate(126.572)"
                  fill="#e0e0e0"
                />
              </g>
              <path
                id="Path_13406"
                data-name="Path 13406"
                d="M226.557,101.738H82.025l-3.05-7.116H229.607Z"
                transform="translate(-73.722 -85.709)"
                fill="#f5f5f5"
              />
              <path
                id="Path_13407"
                data-name="Path 13407"
                d="M226.557,110.388H82.025l-3.05-7.116H229.607Z"
                transform="translate(-73.722 -84.588)"
                fill="#f5f5f5"
              />
              <path
                id="Path_13408"
                data-name="Path 13408"
                d="M226.557,119.037H82.025l-3.05-7.116H229.607Z"
                transform="translate(-73.722 -83.467)"
                fill="#f5f5f5"
              />
              <path
                id="Path_13409"
                data-name="Path 13409"
                d="M226.557,127.686H82.025l-3.05-7.116H229.607Z"
                transform="translate(-73.722 -82.346)"
                fill="#f5f5f5"
              />
              <path
                id="Path_13410"
                data-name="Path 13410"
                d="M226.557,136.336H82.025l-3.05-7.116H229.607Z"
                transform="translate(-73.722 -81.225)"
                fill="#f5f5f5"
              />
              <path
                id="Path_13411"
                data-name="Path 13411"
                d="M226.557,144.985H82.025l-3.05-7.116H229.607Z"
                transform="translate(-73.722 -80.104)"
                fill="#f5f5f5"
              />
              <path
                id="Path_13412"
                data-name="Path 13412"
                d="M226.557,153.635H82.025l-3.05-7.116H229.607Z"
                transform="translate(-73.722 -78.983)"
                fill="#f5f5f5"
              />
              <path
                id="Path_13413"
                data-name="Path 13413"
                d="M226.557,162.284H82.025l-3.05-7.116H229.607Z"
                transform="translate(-73.722 -77.862)"
                fill="#f5f5f5"
              />
              <path
                id="Path_13414"
                data-name="Path 13414"
                d="M226.557,170.933H82.025l-3.05-7.116H229.607Z"
                transform="translate(-73.722 -76.741)"
                fill="#f5f5f5"
              />
              <path
                id="Path_13415"
                data-name="Path 13415"
                d="M226.557,179.583H82.025l-3.05-7.117H229.607Z"
                transform="translate(-73.722 -75.62)"
                fill="#f5f5f5"
              />
              <path
                id="Path_13416"
                data-name="Path 13416"
                d="M226.557,188.232H82.025l-3.05-7.116H229.607Z"
                transform="translate(-73.722 -74.499)"
                fill="#f5f5f5"
              />
              <path
                id="Path_13417"
                data-name="Path 13417"
                d="M226.557,196.882H82.025l-3.05-7.116H229.607Z"
                transform="translate(-73.722 -73.378)"
                fill="#f5f5f5"
              />
              <path
                id="Path_13418"
                data-name="Path 13418"
                d="M226.557,205.531H82.025l-3.05-7.116H229.607Z"
                transform="translate(-73.722 -72.257)"
                fill="#f5f5f5"
              />
              <path
                id="Path_13419"
                data-name="Path 13419"
                d="M226.557,214.18H82.025l-3.05-7.117H229.607Z"
                transform="translate(-73.722 -71.136)"
                fill="#f5f5f5"
              />
              <path
                id="Path_13420"
                data-name="Path 13420"
                d="M226.557,222.83H82.025l-3.05-7.116H229.607Z"
                transform="translate(-73.722 -70.015)"
                fill="#f5f5f5"
              />
              <path
                id="Path_13421"
                data-name="Path 13421"
                d="M226.557,231.479H82.025l-3.05-7.116H229.607Z"
                transform="translate(-73.722 -68.894)"
                fill="#f5f5f5"
              />
              <rect
                id="Rectangle_2234"
                data-name="Rectangle 2234"
                width="150.632"
                height="4.067"
                transform="translate(5.253 162.585)"
                fill="#e0e0e0"
              />
              <rect
                id="Rectangle_2235"
                data-name="Rectangle 2235"
                width="161.137"
                height="9.489"
                fill="#e0e0e0"
              />
              <path
                id="Path_13422"
                data-name="Path 13422"
                d="M75.977,178.018h0a1.64,1.64,0,0,1-1.639-1.64V121.035a1.64,1.64,0,0,1,1.639-1.64h0a1.64,1.64,0,0,1,1.64,1.64v55.342A1.64,1.64,0,0,1,75.977,178.018Z"
                transform="translate(-74.323 -82.498)"
                fill="#e0e0e0"
              />
              <rect
                id="Rectangle_2236"
                data-name="Rectangle 2236"
                width="1.186"
                height="32.869"
                transform="translate(1.061 7.586)"
                fill="#e0e0e0"
              />
            </g>
          </g>
          <g
            id="Group_21785"
            data-name="Group 21785"
            transform="translate(54.725 216.605)"
          >
            <g id="Group_21781" data-name="Group 21781">
              <path
                id="Path_13423"
                data-name="Path 13423"
                d="M94.614,332.184c-.138.155.624,1.215-2.472.751-7.623-1.147-20.9-4.234-24.593-12.078-5.277-11.2,11.085-7.111,10.52-12.835S58.889,303.3,56.911,294.9s10.651-4.4,10.818-8.49S53.348,284.858,50.46,275.8s8.108-2.39,6.844-6.156-13.572-20.8-6.874-22.781,17.979,15.5,22.333,17.982,8.221-11.792,13.411-5.768-3.041,27.1,3.579,31.194c4.93,3.047,3.537-5.345,10.043-3.78C108.634,288.62,105.661,319.827,94.614,332.184Z"
                transform="translate(-48.447 -246.707)"
                fill="#ebebeb"
              />
              <path
                id="Path_13424"
                data-name="Path 13424"
                d="M68.541,284.152a26.129,26.129,0,0,1,6.588,1.352,49.692,49.692,0,0,0-4.688-6.022.565.565,0,0,1,.8-.794,66.474,66.474,0,0,1,9.389,13.622c2.4-14.444-3.653-27.07-3.716-27.2a.424.424,0,0,1,.761-.373c.067.136,6.523,13.609,3.6,28.768.779,1.487,1.564,3.076,2.341,4.785a106.737,106.737,0,0,1,6.44,18.879,38.777,38.777,0,0,0,4.5-17.241.423.423,0,0,1,.846.026,38.974,38.974,0,0,1-5.053,18.4,131.639,131.639,0,0,1,2.868,38.923.566.566,0,0,1-.6.525.7.7,0,0,1-.07-.01.563.563,0,0,1-.454-.592c1.4-20.3-1.638-36.618-5.839-48.975a15.517,15.517,0,0,0-9.013-5.142.444.444,0,0,1-.352-.485.424.424,0,0,1,.483-.354,15.942,15.942,0,0,1,8.221,4.086,94.425,94.425,0,0,0-9.63-19.577A23.31,23.31,0,0,0,68.469,285a.432.432,0,0,1-.386-.459A.423.423,0,0,1,68.541,284.152Z"
                transform="translate(-45.902 -244.401)"
                fill="#f5f5f5"
              />
            </g>
            <g
              id="Group_21784"
              data-name="Group 21784"
              transform="translate(51.406 22.079)"
            >
              <g
                id="Group_21783"
                data-name="Group 21783"
                transform="translate(0.066)"
              >
                <path
                  id="Path_13425"
                  data-name="Path 13425"
                  d="M98.476,333.976c6.334.12,17.154-5.763,21.4-11.486,4.311-5.807-7.815-2.2-6.569-6.765S129.5,314.535,132.261,308s-8.027-5.03-7.6-8.368,11.6-2.661,15.189-9.6-6.241-3.053-4.7-5.932,13.862-14.989,8.707-17.513-16.7,10.09-20.573,11.5-4.774-7.305-9.808-3.137-1.266,22.382-7.193,24.786c-4.413,1.789-2.536-6.551-7.618-4.445C89.769,298.971,95.9,333.926,98.476,333.976Z"
                  transform="translate(-94.013 -266.253)"
                  fill="#e0e0e0"
                />
                <g id="Group_21782" data-name="Group 21782" opacity="0.3">
                  <path
                    id="Path_13426"
                    data-name="Path 13426"
                    d="M98.476,333.976c6.334.12,17.154-5.763,21.4-11.486,4.311-5.807-7.815-2.2-6.569-6.765S129.5,314.535,132.261,308s-8.027-5.03-7.6-8.368,11.6-2.661,15.189-9.6-6.241-3.053-4.7-5.932,13.862-14.989,8.707-17.513-16.7,10.09-20.573,11.5-4.774-7.305-9.808-3.137-1.266,22.382-7.193,24.786c-4.413,1.789-2.536-6.551-7.618-4.445C89.769,298.971,95.9,333.926,98.476,333.976Z"
                    transform="translate(-94.013 -266.253)"
                    fill="#e0e0e0"
                  />
                </g>
              </g>
              <path
                id="Path_13427"
                data-name="Path 13427"
                d="M100.576,324.8a.4.4,0,0,1-.224-.185,33.324,33.324,0,0,1-2.842-16.981.424.424,0,1,1,.845.067,33.856,33.856,0,0,0,2.564,16.139,129.967,129.967,0,0,1,9.647-20.406c-1.121-13.6,5.849-24.74,5.92-24.852a.424.424,0,1,1,.715.455,44,44,0,0,0-5.872,23.086,118.7,118.7,0,0,1,16.2-21.656.565.565,0,0,1,.791.808,110.089,110.089,0,0,0-12.363,15.633,33.168,33.168,0,0,1,11.977-2.109.424.424,0,0,1-.009.847h-.008a32.511,32.511,0,0,0-12.774,2.487,134.835,134.835,0,0,0-6.894,11.854,14.323,14.323,0,0,1,11.818-2.082.424.424,0,0,1,.3.517.419.419,0,0,1-.517.3,13.656,13.656,0,0,0-12.491,3.021,114.715,114.715,0,0,0-12.279,46.442.564.564,0,0,1-.564.543H94.5a.565.565,0,0,1-.542-.587A111.465,111.465,0,0,1,100.576,324.8Z"
                transform="translate(-93.955 -264.681)"
                fill="#f5f5f5"
              />
            </g>
            <path
              id="Path_13428"
              data-name="Path 13428"
              d="M83.342,386.762c-6.047-11.369-10.018-27.8-10.018-35a20.1,20.1,0,0,1,7.383-15.374h30.963a20.107,20.107,0,0,1,7.383,15.374c0,7.2-3.973,23.628-10.02,35Z"
              transform="translate(-45.223 -235.084)"
              fill="#f0f0f0"
            />
          </g>
        </g>
        <g id="Shadow" transform="translate(859.136 1233.971)">
          <ellipse
            id="_Path_"
            data-name="&lt;Path&gt;"
            cx="219.017"
            cy="12.791"
            rx="219.017"
            ry="12.791"
            fill="#f5f5f5"
          />
        </g>
        <g id="Screen" transform="translate(987.901 916.072)">
          <g id="Group_21807" data-name="Group 21807">
            <g id="Group_21786" data-name="Group 21786">
              <path
                id="Path_13429"
                data-name="Path 13429"
                d="M309.159,119.641H282.068a3.932,3.932,0,0,0-3.766,3.079l-.183.848a9.6,9.6,0,0,1-9.2,7.519H243.166a7.734,7.734,0,0,1-7.882-7.519l-.034-.848a3.166,3.166,0,0,0-3.227-3.079H204.931A18.213,18.213,0,0,0,187.14,136l-21.8,249.12a14.751,14.751,0,0,0,14.929,16.36H284.5a18.214,18.214,0,0,0,17.791-16.36L324.088,136A14.751,14.751,0,0,0,309.159,119.641Z"
                transform="translate(-165.281 -119.641)"
                fill="#407bff"
              />
              <path
                id="Path_13430"
                data-name="Path 13430"
                d="M309.159,119.641H282.068a3.932,3.932,0,0,0-3.766,3.079l-.183.848a9.6,9.6,0,0,1-9.2,7.519H243.166a7.734,7.734,0,0,1-7.882-7.519l-.034-.848a3.166,3.166,0,0,0-3.227-3.079H204.931A18.213,18.213,0,0,0,187.14,136l-21.8,249.12a14.751,14.751,0,0,0,14.929,16.36H284.5a18.214,18.214,0,0,0,17.791-16.36L324.088,136A14.751,14.751,0,0,0,309.159,119.641Z"
                transform="translate(-165.281 -119.641)"
                fill="#f5f6f9"
                opacity="0.7"
              />
            </g>
            <path
              id="Path_13431"
              data-name="Path 13431"
              d="M290.032,227.377H234.687a3.279,3.279,0,0,1-3.318-3.635l4.169-47.657a4.048,4.048,0,0,1,3.954-3.635h55.345a3.278,3.278,0,0,1,3.318,3.635l-4.169,47.657A4.047,4.047,0,0,1,290.032,227.377Z"
              transform="translate(-156.717 -112.797)"
              fill="#fff"
            />
            <path
              id="Path_13432"
              data-name="Path 13432"
              d="M278.56,355.067H185.947a8.141,8.141,0,0,1-8.238-9.029h0a10.05,10.05,0,0,1,9.817-9.028h92.612a8.14,8.14,0,0,1,8.238,9.028h0A10.051,10.051,0,0,1,278.56,355.067Z"
              transform="translate(-163.675 -91.47)"
              fill="#fff"
            />
            <g
              id="Group_21788"
              data-name="Group 21788"
              transform="translate(32.658 28.495)"
            >
              <path
                id="Path_13433"
                data-name="Path 13433"
                d="M283.817,162.923H198.836a4.57,4.57,0,0,1-4.625-5.069l.692-7.918a5.644,5.644,0,0,1,5.512-5.069H285.4a4.57,4.57,0,0,1,4.626,5.069l-.692,7.918A5.644,5.644,0,0,1,283.817,162.923Z"
                transform="translate(-194.192 -144.867)"
                fill="#fff"
              />
              <g
                id="Group_21787"
                data-name="Group 21787"
                transform="translate(103.339 3.399)"
              >
                <path
                  id="Path_13434"
                  data-name="Path 13434"
                  d="M289.154,149.287a1.57,1.57,0,0,1-1.534,1.41,1.271,1.271,0,0,1-1.287-1.41,1.57,1.57,0,0,1,1.534-1.411A1.271,1.271,0,0,1,289.154,149.287Z"
                  transform="translate(-285.589 -147.876)"
                  fill="#fff"
                />
                <path
                  id="Path_13435"
                  data-name="Path 13435"
                  d="M288.828,153.021a1.571,1.571,0,0,1-1.534,1.411,1.272,1.272,0,0,1-1.288-1.411,1.57,1.57,0,0,1,1.534-1.411A1.272,1.272,0,0,1,288.828,153.021Z"
                  transform="translate(-285.632 -147.392)"
                  fill="#fff"
                />
                <path
                  id="Path_13436"
                  data-name="Path 13436"
                  d="M288.5,156.756a1.571,1.571,0,0,1-1.534,1.411,1.272,1.272,0,0,1-1.288-1.411,1.57,1.57,0,0,1,1.534-1.411A1.272,1.272,0,0,1,288.5,156.756Z"
                  transform="translate(-285.674 -146.908)"
                  fill="#fff"
                />
              </g>
            </g>
            <path
              id="Path_13437"
              data-name="Path 13437"
              d="M289.455,297.756h-103.4a3.278,3.278,0,0,1-3.318-3.635l4.759-54.4a4.048,4.048,0,0,1,3.954-3.636h103.4a3.278,3.278,0,0,1,3.318,3.636l-4.759,54.4A4.047,4.047,0,0,1,289.455,297.756Z"
              transform="translate(-163.02 -104.549)"
              fill="#fff"
            />
            <g
              id="Group_21799"
              data-name="Group 21799"
              transform="translate(15.738 202.797)"
            >
              <g
                id="Group_21789"
                data-name="Group 21789"
                transform="translate(2.745)"
              >
                <path
                  id="Path_13438"
                  data-name="Path 13438"
                  d="M214.645,300.947H182.456a.8.8,0,0,1-.81-.888h0a.989.989,0,0,1,.966-.888H214.8a.8.8,0,0,1,.81.888h0A.989.989,0,0,1,214.645,300.947Z"
                  transform="translate(-181.643 -299.171)"
                  fill="#fff"
                />
              </g>
              <g
                id="Group_21790"
                data-name="Group 21790"
                transform="translate(40.611)"
              >
                <path
                  id="Path_13439"
                  data-name="Path 13439"
                  d="M250.536,300.947H215.979a.8.8,0,0,1-.811-.888h0a.989.989,0,0,1,.966-.888h34.558a.8.8,0,0,1,.81.888h0A.989.989,0,0,1,250.536,300.947Z"
                  transform="translate(-215.165 -299.171)"
                  fill="#fff"
                />
              </g>
              <g
                id="Group_21791"
                data-name="Group 21791"
                transform="translate(2.058 7.844)"
              >
                <path
                  id="Path_13440"
                  data-name="Path 13440"
                  d="M203.625,307.891H181.849a.8.8,0,0,1-.811-.888h0a.989.989,0,0,1,.966-.888h21.776a.8.8,0,0,1,.81.888h0A.989.989,0,0,1,203.625,307.891Z"
                  transform="translate(-181.035 -306.115)"
                  fill="#fff"
                />
              </g>
              <g
                id="Group_21792"
                data-name="Group 21792"
                transform="translate(29.511 7.844)"
              >
                <path
                  id="Path_13441"
                  data-name="Path 13441"
                  d="M241.823,307.891h-35.67a.8.8,0,0,1-.811-.888h0a.989.989,0,0,1,.966-.888h35.671a.8.8,0,0,1,.811.888h0A.989.989,0,0,1,241.823,307.891Z"
                  transform="translate(-205.338 -306.115)"
                  fill="#fff"
                />
              </g>
              <g
                id="Group_21793"
                data-name="Group 21793"
                transform="translate(1.372 15.688)"
              >
                <path
                  id="Path_13442"
                  data-name="Path 13442"
                  d="M239.294,314.835H181.241a.8.8,0,0,1-.81-.888h0a.989.989,0,0,1,.966-.888H239.45a.8.8,0,0,1,.81.888h0A.988.988,0,0,1,239.294,314.835Z"
                  transform="translate(-180.428 -313.059)"
                  fill="#fff"
                />
              </g>
              <g
                id="Group_21794"
                data-name="Group 21794"
                transform="translate(65.102 15.688)"
              >
                <path
                  id="Path_13443"
                  data-name="Path 13443"
                  d="M241.493,314.835H237.66a.8.8,0,0,1-.811-.888h0a.989.989,0,0,1,.966-.888h3.833a.8.8,0,0,1,.811.888h0A.988.988,0,0,1,241.493,314.835Z"
                  transform="translate(-236.846 -313.059)"
                  fill="#fff"
                />
              </g>
              <g
                id="Group_21795"
                data-name="Group 21795"
                transform="translate(0.686 23.533)"
              >
                <path
                  id="Path_13444"
                  data-name="Path 13444"
                  d="M207.738,321.78h-27.1a.8.8,0,0,1-.811-.888h0a.989.989,0,0,1,.966-.888h27.1a.8.8,0,0,1,.811.888h0A.988.988,0,0,1,207.738,321.78Z"
                  transform="translate(-179.82 -320.004)"
                  fill="#fff"
                />
              </g>
              <g
                id="Group_21796"
                data-name="Group 21796"
                transform="translate(33.467 23.533)"
              >
                <path
                  id="Path_13445"
                  data-name="Path 13445"
                  d="M243.4,321.78H209.654a.8.8,0,0,1-.811-.888h0a.989.989,0,0,1,.966-.888h33.747a.8.8,0,0,1,.81.888h0A.988.988,0,0,1,243.4,321.78Z"
                  transform="translate(-208.84 -320.004)"
                  fill="#fff"
                />
              </g>
              <g
                id="Group_21797"
                data-name="Group 21797"
                transform="translate(0 31.377)"
              >
                <path
                  id="Path_13446"
                  data-name="Path 13446"
                  d="M213.4,328.725H180.026a.8.8,0,0,1-.81-.888h0a.988.988,0,0,1,.966-.889h33.373a.8.8,0,0,1,.81.889h0A.989.989,0,0,1,213.4,328.725Z"
                  transform="translate(-179.213 -326.948)"
                  fill="#fff"
                />
              </g>
              <g
                id="Group_21798"
                data-name="Group 21798"
                transform="translate(39.05 31.377)"
              >
                <path
                  id="Path_13447"
                  data-name="Path 13447"
                  d="M241.482,328.725H214.6a.8.8,0,0,1-.811-.888h0a.989.989,0,0,1,.966-.889h26.884a.8.8,0,0,1,.811.889h0A.989.989,0,0,1,241.482,328.725Z"
                  transform="translate(-213.783 -326.948)"
                  fill="#fff"
                />
              </g>
            </g>
            <g
              id="Group_21806"
              data-name="Group 21806"
              transform="translate(79.854 63.931)"
            >
              <g
                id="Group_21800"
                data-name="Group 21800"
                transform="translate(3.999 0.141)"
              >
                <path
                  id="Path_13448"
                  data-name="Path 13448"
                  d="M287.66,222.359a1.143,1.143,0,0,1-1.6.1l-46.23-44.121a1.124,1.124,0,0,1,.038-1.6h0a1.144,1.144,0,0,1,1.6-.1l46.23,44.12a1.125,1.125,0,0,1-.038,1.6Z"
                  transform="translate(-239.513 -176.362)"
                  fill="#407bff"
                />
              </g>
              <g
                id="Group_21801"
                data-name="Group 21801"
                transform="translate(0 24.959)"
              >
                <path
                  id="Path_13449"
                  data-name="Path 13449"
                  d="M236.194,219.494h0a1.154,1.154,0,0,1,.241-1.594l23.582-19.286a1.114,1.114,0,0,1,1.586.1h0a1.153,1.153,0,0,1-.241,1.594L237.78,219.6A1.114,1.114,0,0,1,236.194,219.494Z"
                  transform="translate(-235.973 -198.332)"
                  fill="#407bff"
                />
              </g>
              <g
                id="Group_21802"
                data-name="Group 21802"
                transform="translate(30.475)"
              >
                <path
                  id="Path_13450"
                  data-name="Path 13450"
                  d="M263.173,197.435h0a1.153,1.153,0,0,1,.241-1.594l23.626-19.322a1.114,1.114,0,0,1,1.586.1h0a1.154,1.154,0,0,1-.241,1.594l-23.626,19.322A1.114,1.114,0,0,1,263.173,197.435Z"
                  transform="translate(-262.952 -176.237)"
                  fill="#407bff"
                />
              </g>
              <g
                id="Group_21803"
                data-name="Group 21803"
                transform="translate(3.999 0.141)"
                opacity="0.7"
              >
                <path
                  id="Path_13451"
                  data-name="Path 13451"
                  d="M287.66,222.359a1.143,1.143,0,0,1-1.6.1l-46.23-44.121a1.124,1.124,0,0,1,.038-1.6h0a1.144,1.144,0,0,1,1.6-.1l46.23,44.12a1.125,1.125,0,0,1-.038,1.6Z"
                  transform="translate(-239.513 -176.362)"
                  fill="#fff"
                />
              </g>
              <g
                id="Group_21804"
                data-name="Group 21804"
                transform="translate(0 24.959)"
                opacity="0.7"
              >
                <path
                  id="Path_13452"
                  data-name="Path 13452"
                  d="M236.194,219.494h0a1.154,1.154,0,0,1,.241-1.594l23.582-19.286a1.114,1.114,0,0,1,1.586.1h0a1.153,1.153,0,0,1-.241,1.594L237.78,219.6A1.114,1.114,0,0,1,236.194,219.494Z"
                  transform="translate(-235.973 -198.332)"
                  fill="#fff"
                />
              </g>
              <g
                id="Group_21805"
                data-name="Group 21805"
                transform="translate(30.475)"
                opacity="0.7"
              >
                <path
                  id="Path_13453"
                  data-name="Path 13453"
                  d="M263.173,197.435h0a1.153,1.153,0,0,1,.241-1.594l23.626-19.322a1.114,1.114,0,0,1,1.586.1h0a1.154,1.154,0,0,1-.241,1.594l-23.626,19.322A1.114,1.114,0,0,1,263.173,197.435Z"
                  transform="translate(-262.952 -176.237)"
                  fill="#fff"
                />
              </g>
            </g>
          </g>
        </g>
        <g id="Icons" transform="translate(918.012 910.654)">
          <g
            id="Group_21808"
            data-name="Group 21808"
            transform="translate(50.407)"
          >
            <path
              id="Path_13454"
              data-name="Path 13454"
              d="M168.038,114.845H153.406a5.372,5.372,0,0,0-5.372,5.371v14.632a5.372,5.372,0,0,0,5.372,5.372h14.632a5.372,5.372,0,0,0,5.371-5.372V120.216A5.371,5.371,0,0,0,168.038,114.845Zm-7.316,5.193c2.208,0,3.4,1.79,3.4,4s-1.187,4-3.4,4-3.4-1.789-3.4-4S158.513,120.038,160.722,120.038Zm8.832,14.989H151.89a.536.536,0,0,1-.378-.156l1.133-3.093a5.05,5.05,0,0,1,4.742-3.313h6.67a5.051,5.051,0,0,1,4.742,3.313l1.132,3.093A.536.536,0,0,1,169.554,135.026Z"
              transform="translate(-148.034 -114.845)"
              fill="#407bff"
            />
            <path
              id="Path_13455"
              data-name="Path 13455"
              d="M168.038,114.845H153.406a5.372,5.372,0,0,0-5.372,5.371v14.632a5.372,5.372,0,0,0,5.372,5.372h14.632a5.372,5.372,0,0,0,5.371-5.372V120.216A5.371,5.371,0,0,0,168.038,114.845Zm-7.316,5.193c2.208,0,3.4,1.79,3.4,4s-1.187,4-3.4,4-3.4-1.789-3.4-4S158.513,120.038,160.722,120.038Zm8.832,14.989H151.89a.536.536,0,0,1-.378-.156l1.133-3.093a5.05,5.05,0,0,1,4.742-3.313h6.67a5.051,5.051,0,0,1,4.742,3.313l1.132,3.093A.536.536,0,0,1,169.554,135.026Z"
              transform="translate(-148.034 -114.845)"
              fill="#fff"
              opacity="0.7"
            />
          </g>
          <g
            id="Group_21811"
            data-name="Group 21811"
            transform="translate(0 60.176)"
          >
            <g id="Group_21809" data-name="Group 21809">
              <path
                id="Path_13456"
                data-name="Path 13456"
                d="M121.764,168.117H110.646a7.236,7.236,0,0,0-7.236,7.236v11.118a7.236,7.236,0,0,0,7.236,7.236h11.118A7.236,7.236,0,0,0,129,186.471V175.353A7.236,7.236,0,0,0,121.764,168.117ZM116.2,186.979s-4.567-4.968-4.567-7.49a4.568,4.568,0,1,1,9.135,0C120.773,182.011,116.2,186.979,116.2,186.979Z"
                transform="translate(-103.41 -168.117)"
                fill="#407bff"
              />
              <path
                id="Path_13457"
                data-name="Path 13457"
                d="M114.976,176.339a2.084,2.084,0,1,0,2.084,2.084A2.084,2.084,0,0,0,114.976,176.339Z"
                transform="translate(-102.181 -167.051)"
                fill="#407bff"
              />
            </g>
            <g id="Group_21810" data-name="Group 21810" opacity="0.7">
              <path
                id="Path_13458"
                data-name="Path 13458"
                d="M121.764,168.117H110.646a7.236,7.236,0,0,0-7.236,7.236v11.118a7.236,7.236,0,0,0,7.236,7.236h11.118A7.236,7.236,0,0,0,129,186.471V175.353A7.236,7.236,0,0,0,121.764,168.117ZM116.2,186.979s-4.567-4.968-4.567-7.49a4.568,4.568,0,1,1,9.135,0C120.773,182.011,116.2,186.979,116.2,186.979Z"
                transform="translate(-103.41 -168.117)"
                fill="#fff"
              />
              <path
                id="Path_13459"
                data-name="Path 13459"
                d="M114.976,176.339a2.084,2.084,0,1,0,2.084,2.084A2.084,2.084,0,0,0,114.976,176.339Z"
                transform="translate(-102.181 -167.051)"
                fill="#fff"
              />
            </g>
          </g>
          <g
            id="Group_21814"
            data-name="Group 21814"
            transform="translate(251.757 10.723)"
          >
            <g id="Group_21812" data-name="Group 21812">
              <path
                id="Path_13460"
                data-name="Path 13460"
                d="M335.7,141.34l7.446-4.82L335.7,131.7Z"
                transform="translate(-325.063 -123.384)"
                fill="#407bff"
              />
              <path
                id="Path_13461"
                data-name="Path 13461"
                d="M346.512,124.338H332.328a6.045,6.045,0,0,0-6.045,6.044v14.184a6.045,6.045,0,0,0,6.045,6.044h14.184a6.045,6.045,0,0,0,6.044-6.044V130.382A6.045,6.045,0,0,0,346.512,124.338Zm-7.092,22.585a9.449,9.449,0,1,1,9.448-9.449A9.449,9.449,0,0,1,339.42,146.923Z"
                transform="translate(-326.283 -124.338)"
                fill="#407bff"
              />
            </g>
            <g id="Group_21813" data-name="Group 21813" opacity="0.7">
              <path
                id="Path_13462"
                data-name="Path 13462"
                d="M335.7,141.34l7.446-4.82L335.7,131.7Z"
                transform="translate(-325.063 -123.384)"
                fill="#fff"
              />
              <path
                id="Path_13463"
                data-name="Path 13463"
                d="M346.512,124.338H332.328a6.045,6.045,0,0,0-6.045,6.044v14.184a6.045,6.045,0,0,0,6.045,6.044h14.184a6.045,6.045,0,0,0,6.044-6.044V130.382A6.045,6.045,0,0,0,346.512,124.338Zm-7.092,22.585a9.449,9.449,0,1,1,9.448-9.449A9.449,9.449,0,0,1,339.42,146.923Z"
                transform="translate(-326.283 -124.338)"
                fill="#fff"
              />
            </g>
          </g>
        </g>
        <g id="Gears" transform="translate(1146.246 964.284)">
          <g
            id="Group_21815"
            data-name="Group 21815"
            transform="translate(36.325)"
          >
            <path
              id="Path_13464"
              data-name="Path 13464"
              d="M358.968,173.831c0-.294-.016-.583-.041-.87l1.7-.948A11.525,11.525,0,0,0,360,169.65l-1.947.033a9.772,9.772,0,0,0-.872-1.507l1-1.67a11.674,11.674,0,0,0-1.732-1.732l-1.671,1a9.847,9.847,0,0,0-1.506-.871l.032-1.947a11.558,11.558,0,0,0-2.364-.635l-.947,1.706c-.287-.026-.576-.041-.87-.041s-.583.015-.87.041l-.947-1.706a11.558,11.558,0,0,0-2.364.635l.032,1.947a9.848,9.848,0,0,0-1.506.871l-1.671-1a11.676,11.676,0,0,0-1.732,1.732l1,1.67a9.78,9.78,0,0,0-.872,1.507l-1.947-.033a11.525,11.525,0,0,0-.634,2.364l1.7.948c-.025.287-.041.576-.041.87s.016.583.041.87l-1.7.947a11.486,11.486,0,0,0,.634,2.364l1.947-.032a9.821,9.821,0,0,0,.872,1.506l-1,1.671a11.73,11.73,0,0,0,1.732,1.732l1.671-1a9.76,9.76,0,0,0,1.506.872l-.032,1.947a11.484,11.484,0,0,0,2.364.634l.947-1.7c.287.025.576.041.87.041s.583-.016.87-.041l.947,1.7a11.484,11.484,0,0,0,2.364-.634l-.032-1.947a9.76,9.76,0,0,0,1.506-.872l1.671,1a11.728,11.728,0,0,0,1.732-1.732l-1-1.671a9.814,9.814,0,0,0,.872-1.506l1.947.032a11.486,11.486,0,0,0,.634-2.364l-1.7-.947C358.952,174.414,358.968,174.124,358.968,173.831Zm-9.844,6.683a6.683,6.683,0,1,1,6.683-6.683A6.682,6.682,0,0,1,349.123,180.514Z"
              transform="translate(-337.615 -162.322)"
              fill="#407bff"
            />
            <path
              id="Path_13465"
              data-name="Path 13465"
              d="M358.968,173.831c0-.294-.016-.583-.041-.87l1.7-.948A11.525,11.525,0,0,0,360,169.65l-1.947.033a9.772,9.772,0,0,0-.872-1.507l1-1.67a11.674,11.674,0,0,0-1.732-1.732l-1.671,1a9.847,9.847,0,0,0-1.506-.871l.032-1.947a11.558,11.558,0,0,0-2.364-.635l-.947,1.706c-.287-.026-.576-.041-.87-.041s-.583.015-.87.041l-.947-1.706a11.558,11.558,0,0,0-2.364.635l.032,1.947a9.848,9.848,0,0,0-1.506.871l-1.671-1a11.676,11.676,0,0,0-1.732,1.732l1,1.67a9.78,9.78,0,0,0-.872,1.507l-1.947-.033a11.525,11.525,0,0,0-.634,2.364l1.7.948c-.025.287-.041.576-.041.87s.016.583.041.87l-1.7.947a11.486,11.486,0,0,0,.634,2.364l1.947-.032a9.821,9.821,0,0,0,.872,1.506l-1,1.671a11.73,11.73,0,0,0,1.732,1.732l1.671-1a9.76,9.76,0,0,0,1.506.872l-.032,1.947a11.484,11.484,0,0,0,2.364.634l.947-1.7c.287.025.576.041.87.041s.583-.016.87-.041l.947,1.7a11.484,11.484,0,0,0,2.364-.634l-.032-1.947a9.76,9.76,0,0,0,1.506-.872l1.671,1a11.728,11.728,0,0,0,1.732-1.732l-1-1.671a9.814,9.814,0,0,0,.872-1.506l1.947.032a11.486,11.486,0,0,0,.634-2.364l-1.7-.947C358.952,174.414,358.968,174.124,358.968,173.831Zm-9.844,6.683a6.683,6.683,0,1,1,6.683-6.683A6.682,6.682,0,0,1,349.123,180.514Z"
              transform="translate(-337.615 -162.322)"
              fill="#fff"
              opacity="0.7"
            />
          </g>
          <g
            id="Group_21816"
            data-name="Group 21816"
            transform="translate(0 27.877)"
          >
            <path
              id="Path_13466"
              data-name="Path 13466"
              d="M337.4,204.216c0-.438-.024-.872-.061-1.3l2.551-1.417a17.3,17.3,0,0,0-.949-3.536l-2.912.047a14.766,14.766,0,0,0-1.3-2.254l1.5-2.5a17.546,17.546,0,0,0-2.59-2.59l-2.5,1.5a14.7,14.7,0,0,0-2.252-1.3l.048-2.912a17.3,17.3,0,0,0-3.536-.949l-1.418,2.551c-.428-.038-.862-.061-1.3-.061s-.872.023-1.3.061L319.955,187a17.288,17.288,0,0,0-3.537.949l.049,2.912a14.765,14.765,0,0,0-2.254,1.3l-2.5-1.5a17.6,17.6,0,0,0-2.59,2.59l1.5,2.5a14.768,14.768,0,0,0-1.3,2.254l-2.913-.047a17.293,17.293,0,0,0-.948,3.536l2.549,1.417c-.037.429-.06.863-.06,1.3s.023.872.06,1.3l-2.549,1.417a17.3,17.3,0,0,0,.948,3.537l2.913-.049a14.77,14.77,0,0,0,1.3,2.254l-1.5,2.5a17.548,17.548,0,0,0,2.59,2.59l2.5-1.5a14.765,14.765,0,0,0,2.254,1.3l-.049,2.912a17.288,17.288,0,0,0,3.537.949l1.417-2.55c.429.037.862.06,1.3.06s.872-.023,1.3-.06l1.418,2.55a17.3,17.3,0,0,0,3.536-.949l-.048-2.912a14.7,14.7,0,0,0,2.252-1.3l2.5,1.5a17.5,17.5,0,0,0,2.59-2.59l-1.5-2.5a14.768,14.768,0,0,0,1.3-2.254l2.912.049a17.307,17.307,0,0,0,.949-3.537l-2.551-1.417C337.375,205.088,337.4,204.656,337.4,204.216Zm-14.725,5.8a5.8,5.8,0,1,1,5.8-5.8A5.8,5.8,0,0,1,322.673,210.02Z"
              transform="translate(-305.458 -187.001)"
              fill="#407bff"
            />
            <path
              id="Path_13467"
              data-name="Path 13467"
              d="M337.4,204.216c0-.438-.024-.872-.061-1.3l2.551-1.417a17.3,17.3,0,0,0-.949-3.536l-2.912.047a14.766,14.766,0,0,0-1.3-2.254l1.5-2.5a17.546,17.546,0,0,0-2.59-2.59l-2.5,1.5a14.7,14.7,0,0,0-2.252-1.3l.048-2.912a17.3,17.3,0,0,0-3.536-.949l-1.418,2.551c-.428-.038-.862-.061-1.3-.061s-.872.023-1.3.061L319.955,187a17.288,17.288,0,0,0-3.537.949l.049,2.912a14.765,14.765,0,0,0-2.254,1.3l-2.5-1.5a17.6,17.6,0,0,0-2.59,2.59l1.5,2.5a14.768,14.768,0,0,0-1.3,2.254l-2.913-.047a17.293,17.293,0,0,0-.948,3.536l2.549,1.417c-.037.429-.06.863-.06,1.3s.023.872.06,1.3l-2.549,1.417a17.3,17.3,0,0,0,.948,3.537l2.913-.049a14.77,14.77,0,0,0,1.3,2.254l-1.5,2.5a17.548,17.548,0,0,0,2.59,2.59l2.5-1.5a14.765,14.765,0,0,0,2.254,1.3l-.049,2.912a17.288,17.288,0,0,0,3.537.949l1.417-2.55c.429.037.862.06,1.3.06s.872-.023,1.3-.06l1.418,2.55a17.3,17.3,0,0,0,3.536-.949l-.048-2.912a14.7,14.7,0,0,0,2.252-1.3l2.5,1.5a17.5,17.5,0,0,0,2.59-2.59l-1.5-2.5a14.768,14.768,0,0,0,1.3-2.254l2.912.049a17.307,17.307,0,0,0,.949-3.537l-2.551-1.417C337.375,205.088,337.4,204.656,337.4,204.216Zm-14.725,5.8a5.8,5.8,0,1,1,5.8-5.8A5.8,5.8,0,0,1,322.673,210.02Z"
              transform="translate(-305.458 -187.001)"
              fill="#fff"
              opacity="0.7"
            />
          </g>
        </g>
        <g
          id="Speech_bubbles"
          data-name="Speech bubbles"
          transform="translate(1019.004 909.608)"
        >
          <g
            id="Group_21818"
            data-name="Group 21818"
            transform="translate(111.287 31.883)"
          >
            <path
              id="Path_13468"
              data-name="Path 13468"
              d="M297.7,144.534v5.918l-5.631,2.97a1.373,1.373,0,0,0,0,2.429l5.631,2.97v5.918a2.391,2.391,0,0,0,2.391,2.39h20.2a2.391,2.391,0,0,0,2.391-2.39v-20.2a2.391,2.391,0,0,0-2.391-2.39h-20.2A2.391,2.391,0,0,0,297.7,144.534Z"
              transform="translate(-291.334 -142.144)"
              fill="#6364d9"
            />
            <g
              id="Group_21817"
              data-name="Group 21817"
              transform="translate(11.907 5.733)"
              opacity="0.9"
            >
              <path
                id="Path_13469"
                data-name="Path 13469"
                d="M303.286,150.041h11.479a1.411,1.411,0,0,0,0-2.822H303.286a1.411,1.411,0,1,0,0,2.822Z"
                transform="translate(-301.875 -147.219)"
                fill="#fff"
              />
              <path
                id="Path_13470"
                data-name="Path 13470"
                d="M314.765,151.954H303.286a1.411,1.411,0,1,0,0,2.822h11.479a1.411,1.411,0,0,0,0-2.822Z"
                transform="translate(-301.875 -146.605)"
                fill="#fff"
              />
              <path
                id="Path_13471"
                data-name="Path 13471"
                d="M314.765,156.689H303.286a1.411,1.411,0,1,0,0,2.822h11.479a1.411,1.411,0,0,0,0-2.822Z"
                transform="translate(-301.875 -145.992)"
                fill="#fff"
              />
            </g>
          </g>
          <g id="Group_21819" data-name="Group 21819">
            <path
              id="Path_13472"
              data-name="Path 13472"
              d="M196.3,138.9h4.827l2.487,4.716a1.918,1.918,0,0,0,3.393,0l2.487-4.716h4.827a3.482,3.482,0,0,0,3.481-3.481V117.4a3.482,3.482,0,0,0-3.481-3.481H196.3a3.482,3.482,0,0,0-3.481,3.481v18.022A3.482,3.482,0,0,0,196.3,138.9Z"
              transform="translate(-192.815 -113.919)"
              fill="#6364d9"
            />
            <path
              id="Path_13473"
              data-name="Path 13473"
              d="M204.524,118.687l-5.568,3.257v9.508H203.1V125.07h2.85v6.383h4.143v-9.508Z"
              transform="translate(-192.019 -113.301)"
              fill="#fff"
              opacity="0.9"
            />
          </g>
          <g
            id="Group_21820"
            data-name="Group 21820"
            transform="translate(36.572 277.275)"
          >
            <path
              id="Path_13474"
              data-name="Path 13474"
              d="M246.212,365.491h-4.344l-2.773-5.258a1.594,1.594,0,0,0-2.821,0l-2.773,5.258h-4.344a3.965,3.965,0,0,0-3.965,3.965V386.51a3.965,3.965,0,0,0,3.965,3.965h17.056a3.965,3.965,0,0,0,3.965-3.965V369.456A3.965,3.965,0,0,0,246.212,365.491Z"
              transform="translate(-225.191 -359.382)"
              fill="#6364d9"
            />
            <path
              id="Path_13475"
              data-name="Path 13475"
              d="M239.594,370.763a6.17,6.17,0,1,0-.871,9.443,1.379,1.379,0,0,0,.384.751l3.832,3.832a1.383,1.383,0,1,0,1.956-1.956L241.064,379a1.369,1.369,0,0,0-.752-.383A6.176,6.176,0,0,0,239.594,370.763Zm-1.3,7.42a4.325,4.325,0,1,1,0-6.117A4.33,4.33,0,0,1,238.29,378.183Z"
              transform="translate(-224.689 -358.141)"
              fill="#fff"
              opacity="0.9"
            />
          </g>
        </g>
        <g
          id="Character_2"
          data-name="Character 2"
          transform="translate(1108.39 1005.072)"
        >
          <path
            id="Path_13476"
            data-name="Path 13476"
            d="M411.59,264.588s-9.212,22.818-18.22,25.286-22.608.463-22.608.463l-4.2,1.149-4.119-.612a1.169,1.169,0,0,0-.142-.012l-4.653-.107a.886.886,0,0,1-.791-1.4l1.671-2.3a1.092,1.092,0,0,1,.549-.39l4.425-1.426a1.165,1.165,0,0,1,.539-.043l6.764,1.073s18.809-3.082,20.722-4.827,7.584-19.985,7.584-19.985Z"
            transform="translate(-260.964 -190.262)"
            fill="#eec1bb"
          />
          <path
            id="Path_13477"
            data-name="Path 13477"
            d="M371.236,283.473l-.434.072-6.764-1.073a1.165,1.165,0,0,0-.539.043l-4.424,1.424a1.1,1.1,0,0,0-.55.391l-1.671,2.3a.886.886,0,0,0,.791,1.4l4.654.107a1.183,1.183,0,0,1,.141.012l2.77.411A17.688,17.688,0,0,0,371.236,283.473Z"
            transform="translate(-260.964 -187.54)"
            opacity="0.1"
          />
          <path
            id="Path_13478"
            data-name="Path 13478"
            d="M412.468,244.278c-6.687-2.195-16.1,2.83-19.7,23.889l13.886,4.052S422.029,247.416,412.468,244.278Z"
            transform="translate(-256.287 -192.55)"
            fill="#407bff"
          />
          <g
            id="Group_21821"
            data-name="Group 21821"
            transform="translate(116.732)"
          >
            <path
              id="Path_13479"
              data-name="Path 13479"
              d="M375.768,220.009c.008.691.373,1.25.826,1.246s.844-.6.817-1.27-.373-1.25-.827-1.239S375.767,219.32,375.768,220.009Z"
              transform="translate(-375.222 -195.797)"
              fill="#263238"
            />
            <path
              id="Path_13480"
              data-name="Path 13480"
              d="M378.571,220.47l-3.286,5.435s1.136,1.287,3.6.337Z"
              transform="translate(-375.285 -195.574)"
              fill="#d4827d"
            />
            <path
              id="Path_13481"
              data-name="Path 13481"
              d="M379.135,216.1a.375.375,0,0,1-.323.12,2.846,2.846,0,0,0-2.478.773.363.363,0,0,1-.507.037.369.369,0,0,1-.034-.513,3.531,3.531,0,0,1,3.119-1.017.363.363,0,0,1,.311.409h0A.4.4,0,0,1,379.135,216.1Z"
              transform="translate(-375.231 -196.225)"
              fill="#263238"
            />
            <path
              id="Path_13482"
              data-name="Path 13482"
              d="M402.25,216.879c.515,9.183.932,13.065-3.121,18.286-6.475,5.594-17.5,6.486-20.75-2.365-2.926-7.964-3.274-21.609,5.226-26.341a12.554,12.554,0,0,1,18.645,10.421Z"
              transform="translate(-375.127 -197.595)"
              fill="#eec1bb"
            />
            <path
              id="Path_13483"
              data-name="Path 13483"
              d="M387.968,233.628l2.326,13.6,11.344-2.62-3.97-13.886Z"
              transform="translate(-373.641 -194.245)"
              fill="#eec1bb"
            />
            <path
              id="Path_13484"
              data-name="Path 13484"
              d="M381.266,218.393c.577-5.969-1.471.922-4.236-6.949s10.269-14.27,12.353-12.8.888,3.724,7.781,4.993,6.6,7.961,6.6,7.961,3.965,1.839,2.555,10.356a34.963,34.963,0,0,1-6.791,14.959s-2.608-2.69-6.735-.2a13.483,13.483,0,0,1-4.029-4.121c-1.86-2.779-2.432-5.415-4.977-5.645C378.445,226.46,381.076,220.352,381.266,218.393Z"
              transform="translate(-375.109 -198.43)"
              fill="#263238"
            />
            <path
              id="Path_13485"
              data-name="Path 13485"
              d="M399.993,211.937s5.625-3.46,3.136-7.087S401.841,208.834,399.993,211.937Z"
              transform="translate(-372.083 -197.723)"
              fill="#263238"
            />
            <path
              id="Path_13486"
              data-name="Path 13486"
              d="M382.379,219.309a7.066,7.066,0,0,0-1.794,5.116c.159,2.487,2.594,2.93,4.517,1.571,1.743-1.231,3.737-4,2.627-6.183A3.2,3.2,0,0,0,382.379,219.309Z"
              transform="translate(-374.6 -195.881)"
              fill="#ffc3bd"
            />
            <path
              id="Path_13487"
              data-name="Path 13487"
              d="M388.162,234.657l.923,5.4c-.059-4.937,2.552-7.377,2.552-7.377A4.557,4.557,0,0,0,388.162,234.657Z"
              transform="translate(-373.616 -193.992)"
              opacity="0.1"
            />
          </g>
          <g
            id="Group_21822"
            data-name="Group 21822"
            transform="translate(48.293 75.777)"
          >
            <rect
              id="Rectangle_2237"
              data-name="Rectangle 2237"
              width="3.243"
              height="19.129"
              fill="#407bff"
            />
            <rect
              id="Rectangle_2238"
              data-name="Rectangle 2238"
              width="3.243"
              height="19.129"
              fill="#fff"
              opacity="0.7"
            />
          </g>
          <g
            id="Group_21824"
            data-name="Group 21824"
            transform="translate(15.701 37.8)"
          >
            <path
              id="Path_13488"
              data-name="Path 13488"
              d="M299.4,231.894h-8.076a5.48,5.48,0,0,0-5.48,5.48v37.412a5.48,5.48,0,0,0,5.48,5.48H299.4Z"
              transform="translate(-285.845 -231.894)"
              fill="#6364d9"
            />
            <g
              id="Group_21823"
              data-name="Group 21823"
              transform="translate(2.824 0)"
            >
              <rect
                id="Rectangle_2239"
                data-name="Rectangle 2239"
                width="65.602"
                height="48.371"
                rx="4.851"
                fill="#407bff"
              />
              <rect
                id="Rectangle_2240"
                data-name="Rectangle 2240"
                width="65.602"
                height="48.371"
                rx="4.851"
                fill="#fff"
                opacity="0.5"
              />
            </g>
            <rect
              id="Rectangle_2241"
              data-name="Rectangle 2241"
              width="61.084"
              height="43.853"
              rx="2.851"
              transform="translate(5.084 2.26)"
              fill="#263238"
            />
          </g>
          <path
            id="Path_13489"
            data-name="Path 13489"
            d="M305.689,290.894a11.8,11.8,0,0,1,23.6,0Z"
            transform="translate(-267.572 -187.976)"
            fill="#6364d9"
          />
          <g
            id="Group_21825"
            data-name="Group 21825"
            transform="translate(42.371 98.892)"
          >
            <path
              id="Path_13490"
              data-name="Path 13490"
              d="M333.051,285.976h-23.6v3.836h47.192v-1.577Z"
              transform="translate(-309.455 -285.976)"
              fill="#407bff"
            />
            <path
              id="Path_13491"
              data-name="Path 13491"
              d="M333.051,285.976h-23.6v3.836h47.192v-1.577Z"
              transform="translate(-309.455 -285.976)"
              fill="#fff"
              opacity="0.8"
            />
            <path
              id="Path_13492"
              data-name="Path 13492"
              d="M333.051,289.812h-23.6v-3.836l23.6,2.259Z"
              transform="translate(-309.455 -285.976)"
              fill="#407bff"
            />
            <path
              id="Path_13493"
              data-name="Path 13493"
              d="M333.051,289.812h-23.6v-3.836l23.6,2.259Z"
              transform="translate(-309.455 -285.976)"
              fill="#fff"
              opacity="0.6"
            />
          </g>
          <g
            id="Group_21828"
            data-name="Group 21828"
            transform="translate(61.916 107.862)"
          >
            <g id="Group_21826" data-name="Group 21826">
              <path
                id="Path_13494"
                data-name="Path 13494"
                d="M382.838,420.62H334.153a7.4,7.4,0,0,1-7.4-7.4V301.313a7.4,7.4,0,0,1,7.4-7.4h48.685a1.977,1.977,0,0,1,1.977,1.977h0a1.977,1.977,0,0,1-1.977,1.977H334.153a3.442,3.442,0,0,0-3.442,3.442V413.224a3.442,3.442,0,0,0,3.442,3.442h48.685a1.977,1.977,0,0,1,1.977,1.977h0A1.977,1.977,0,0,1,382.838,420.62Z"
                transform="translate(-326.758 -293.917)"
                fill="#263238"
              />
            </g>
            <g id="Group_21827" data-name="Group 21827" opacity="0.5">
              <path
                id="Path_13495"
                data-name="Path 13495"
                d="M382.838,420.62H334.153a7.4,7.4,0,0,1-7.4-7.4V301.313a7.4,7.4,0,0,1,7.4-7.4h48.685a1.977,1.977,0,0,1,1.977,1.977h0a1.977,1.977,0,0,1-1.977,1.977H334.153a3.442,3.442,0,0,0-3.442,3.442V413.224a3.442,3.442,0,0,0,3.442,3.442h48.685a1.977,1.977,0,0,1,1.977,1.977h0A1.977,1.977,0,0,1,382.838,420.62Z"
                transform="translate(-326.758 -293.917)"
                fill="#fff"
              />
            </g>
          </g>
          <g
            id="Group_21829"
            data-name="Group 21829"
            transform="translate(0 102.728)"
          >
            <rect
              id="Rectangle_2242"
              data-name="Rectangle 2242"
              width="69.115"
              height="5.792"
              fill="#6364d9"
            />
            <rect
              id="Rectangle_2243"
              data-name="Rectangle 2243"
              width="69.115"
              height="5.792"
              fill="#6364d9"
              opacity="0.2"
            />
            <rect
              id="Rectangle_2244"
              data-name="Rectangle 2244"
              width="58.949"
              height="5.792"
              transform="translate(65.967)"
              fill="#6364d9"
            />
            <rect
              id="Rectangle_2245"
              data-name="Rectangle 2245"
              width="58.949"
              height="5.792"
              transform="translate(65.967)"
              fill="#6364d9"
              opacity="0.5"
            />
          </g>
          <g
            id="Group_21832"
            data-name="Group 21832"
            transform="translate(81.273 117.403)"
          >
            <g
              id="Group_21831"
              data-name="Group 21831"
              transform="translate(3.764 76.1)"
            >
              <path
                id="Path_13496"
                data-name="Path 13496"
                d="M365.646,369.733l3.272,33h-7.823l-7.823-32.147Z"
                transform="translate(-346.443 -369.733)"
                fill="#eec1bb"
              />
              <g
                id="Group_21830"
                data-name="Group 21830"
                transform="translate(0 30.841)"
              >
                <path
                  id="Path_13497"
                  data-name="Path 13497"
                  d="M361.145,397.041l9.976.171a.8.8,0,0,1,.774.641L373.559,406a1.336,1.336,0,0,1-1.03,1.584,1.381,1.381,0,0,1-.281.029c-3.6-.124-6.79-.376-11.267-.446-5.284-.088-3.954.566-10.168.549-3.743-.015-4.356-4.28-2.765-4.463,7.279-.79,8.07-2.971,10.916-5.523A3.221,3.221,0,0,1,361.145,397.041Z"
                  transform="translate(-347.226 -397.035)"
                  fill="#263238"
                />
              </g>
              <path
                id="Path_13498"
                data-name="Path 13498"
                d="M368.063,394.119l-2.418-24.387-12.375.853L359,394.119Z"
                transform="translate(-346.443 -369.733)"
                opacity="0.1"
              />
            </g>
            <path
              id="Path_13499"
              data-name="Path 13499"
              d="M420.392,302.364l-32.066,1.15s-43.144,15.082-44.356,26.73c-1.243,11.948,13.266,66.854,13.266,66.854h12.883s-3.553-40.292-4.918-52.63,44.949-8.249,52.989-18.776C425.591,316,420.392,302.364,420.392,302.364Z"
              transform="translate(-343.894 -302.364)"
              fill="#263238"
            />
            <path
              id="Path_13500"
              data-name="Path 13500"
              d="M420.392,302.364l-32.066,1.15s-43.144,15.082-44.356,26.73c-1.243,11.948,13.266,66.854,13.266,66.854h12.883s-3.553-40.292-4.918-52.63,44.949-8.249,52.989-18.776C425.591,316,420.392,302.364,420.392,302.364Z"
              transform="translate(-343.894 -302.364)"
              opacity="0.2"
            />
            <path
              id="Path_13501"
              data-name="Path 13501"
              d="M371.027,384.592l.285,4.552H355.38l-1.565-4.552Z"
              transform="translate(-342.608 -291.707)"
              fill="#6364d9"
            />
          </g>
          <g
            id="Group_21835"
            data-name="Group 21835"
            transform="translate(52.606 117.403)"
          >
            <g
              id="Group_21834"
              data-name="Group 21834"
              transform="translate(0 77.664)"
            >
              <path
                id="Path_13502"
                data-name="Path 13502"
                d="M339.13,371.118l.853,31.436H332.3l-4.552-31.436Z"
                transform="translate(-317.319 -371.118)"
                fill="#eec1bb"
              />
              <g
                id="Group_21833"
                data-name="Group 21833"
                transform="translate(0 29.276)"
              >
                <path
                  id="Path_13503"
                  data-name="Path 13503"
                  d="M332.434,397.041l9.977.171a.8.8,0,0,1,.773.641L344.848,406a1.335,1.335,0,0,1-1.029,1.584,1.391,1.391,0,0,1-.282.029c-3.594-.124-6.789-.376-11.267-.446-5.283-.088-3.954.566-10.166.549-3.743-.015-4.356-4.28-2.766-4.463,7.279-.79,8.071-2.971,10.918-5.523A3.216,3.216,0,0,1,332.434,397.041Z"
                  transform="translate(-318.516 -397.035)"
                  fill="#263238"
                />
              </g>
              <path
                id="Path_13504"
                data-name="Path 13504"
                d="M339.749,393.913l-.619-22.8H327.75l3.3,22.819C333.529,393.946,336.938,393.93,339.749,393.913Z"
                transform="translate(-317.319 -371.118)"
                opacity="0.1"
              />
            </g>
            <path
              id="Path_13505"
              data-name="Path 13505"
              d="M409.524,305.019s2.663,24.371-22.139,25.51-44.146,3.982-44.715,12.8,0,53.768,0,53.768H329.192s-5.244-28.415-7.289-46.04c-1.985-17.116-5.611-29.525,11.949-35.323,18.668-6.164,51.858-11.862,51.858-11.862l23.9-1.509Z"
              transform="translate(-318.3 -302.364)"
              fill="#263238"
            />
            <path
              id="Path_13506"
              data-name="Path 13506"
              d="M343.828,384.592l-.853,4.552H328.181l-1.565-4.552Z"
              transform="translate(-317.466 -291.707)"
              fill="#6364d9"
            />
          </g>
          <g
            id="Group_21836"
            data-name="Group 21836"
            transform="translate(128.373 45.21)"
          >
            <path
              id="Path_13507"
              data-name="Path 13507"
              d="M406.429,243.369s0-5.5-11.106-4.864c-11.786.676-9.567,5.945-9.567,5.945Z"
              transform="translate(-385.59 -238.454)"
              fill="#407bff"
            />
            <path
              id="Path_13508"
              data-name="Path 13508"
              d="M406.429,243.369s0-5.5-11.106-4.864c-11.786.676-9.567,5.945-9.567,5.945Z"
              transform="translate(-385.59 -238.454)"
              opacity="0.3"
            />
          </g>
          <path
            id="Path_13509"
            data-name="Path 13509"
            d="M418.324,267.632c-.746,10.853-.489,43.512-.489,43.512s-23.691,1.557-42.337.951l-2.161-62.823a5.5,5.5,0,0,1,3.548-5.111c5.265-2.047,17.621-4.364,36.95-1.827C420.5,243.209,419.2,254.8,418.324,267.632Z"
            transform="translate(-258.805 -192.885)"
            fill="#6364d9"
          />
          <path
            id="Path_13510"
            data-name="Path 13510"
            d="M383.007,264.588s-9.211,22.818-18.219,25.286-22.608.463-22.608.463l-4.2,1.149-4.119-.612a1.21,1.21,0,0,0-.142-.012l-4.653-.107a.886.886,0,0,1-.791-1.4l1.671-2.3a1.087,1.087,0,0,1,.549-.39l4.425-1.426a1.164,1.164,0,0,1,.539-.043l6.763,1.073s18.81-3.082,20.724-4.827,7.584-19.985,7.584-19.985Z"
            transform="translate(-264.668 -190.262)"
            fill="#eec1bb"
          />
          <path
            id="Path_13511"
            data-name="Path 13511"
            d="M376.86,255.031s-1.427,1.7-3.174,4.164l.626,18.184c6.923-3.054,9.668-20.884,9.668-20.884l-4.494-3.19Z"
            transform="translate(-258.76 -191.319)"
            opacity="0.1"
          />
          <path
            id="Path_13512"
            data-name="Path 13512"
            d="M383.886,244.278c-6.688-2.195-16.1,2.83-19.7,23.889l13.886,4.052S393.447,247.416,383.886,244.278Z"
            transform="translate(-259.991 -192.55)"
            fill="#6364d9"
          />
          <g
            id="Group_21842"
            data-name="Group 21842"
            transform="translate(67.839 87.985)"
          >
            <g
              id="Group_21839"
              data-name="Group 21839"
              transform="translate(17.091 69.413)"
            >
              <rect
                id="Rectangle_2246"
                data-name="Rectangle 2246"
                width="10.449"
                height="30.627"
                transform="translate(37.362)"
                fill="#263238"
              />
              <rect
                id="Rectangle_2247"
                data-name="Rectangle 2247"
                width="10.449"
                height="30.627"
                transform="translate(37.362)"
                fill="#fff"
                opacity="0.6"
              />
              <g
                id="Group_21837"
                data-name="Group 21837"
                transform="translate(4.573 19.457)"
              >
                <path
                  id="Path_13513"
                  data-name="Path 13513"
                  d="M396.038,393.909V354.995H382.347v38.914l-31.167,4.324v4.324l38.013-3.243,38.013,3.243v-4.324Z"
                  transform="translate(-351.179 -354.995)"
                  fill="#263238"
                />
              </g>
              <g
                id="Group_21838"
                data-name="Group 21838"
                transform="translate(0 69.383)"
              >
                <circle
                  id="Ellipse_4062"
                  data-name="Ellipse 4062"
                  cx="4.121"
                  cy="4.121"
                  r="4.121"
                  fill="#6364d9"
                />
                <circle
                  id="Ellipse_4063"
                  data-name="Ellipse 4063"
                  cx="4.121"
                  cy="4.121"
                  r="4.121"
                  transform="translate(76.478)"
                  fill="#6364d9"
                />
              </g>
              <circle
                id="Ellipse_4064"
                data-name="Ellipse 4064"
                cx="4.121"
                cy="4.121"
                r="4.121"
                transform="translate(38.465 69.383)"
                fill="#407bff"
              />
              <rect
                id="Rectangle_2248"
                data-name="Rectangle 2248"
                width="10.449"
                height="7.567"
                transform="translate(37.362)"
                opacity="0.3"
              />
            </g>
            <g id="Group_21841" data-name="Group 21841">
              <path
                id="Path_13514"
                data-name="Path 13514"
                d="M432.987,276.321H398.941a10.741,10.741,0,0,0-10.7,9.743l-2.875,30.765a14.165,14.165,0,0,1-13.386,12.828L339.13,331.32a7.509,7.509,0,0,0-7.129,7.5v.694a6.22,6.22,0,0,0,6.221,6.221H438.294l5.388-57.672A10.742,10.742,0,0,0,432.987,276.321Z"
                transform="translate(-332.001 -276.321)"
                fill="#407bff"
              />
              <path
                id="Path_13515"
                data-name="Path 13515"
                d="M432.987,276.321H398.941a10.741,10.741,0,0,0-10.7,9.743l-2.875,30.765a14.165,14.165,0,0,1-13.386,12.828L339.13,331.32a7.509,7.509,0,0,0-7.129,7.5v.694a6.22,6.22,0,0,0,6.221,6.221H438.294l5.388-57.672A10.742,10.742,0,0,0,432.987,276.321Z"
                transform="translate(-332.001 -276.321)"
                fill="#fff"
                opacity="0.3"
              />
              <path
                id="Rectangle_2249"
                data-name="Rectangle 2249"
                d="M0,0H4.684a0,0,0,0,1,0,0V24.782a2,2,0,0,1-2,2H2a2,2,0,0,1-2-2V0A0,0,0,0,1,0,0Z"
                transform="translate(22.835 34.706)"
                fill="#263238"
              />
              <path
                id="Rectangle_2250"
                data-name="Rectangle 2250"
                d="M0,0H4.684a0,0,0,0,1,0,0V24.782a2,2,0,0,1-2,2H2a2,2,0,0,1-2-2V0A0,0,0,0,1,0,0Z"
                transform="translate(22.835 34.706)"
                fill="#fff"
                opacity="0.2"
              />
              <g
                id="Group_21840"
                data-name="Group 21840"
                transform="translate(0.585 27.616)"
              >
                <path
                  id="Path_13516"
                  data-name="Path 13516"
                  d="M373.431,300.769h-10.45v8.647h10.45a4.324,4.324,0,0,0,0-8.647Z"
                  transform="translate(-328.571 -300.769)"
                  fill="#407bff"
                />
                <path
                  id="Path_13517"
                  data-name="Path 13517"
                  d="M373.431,300.769h-10.45v8.647h10.45a4.324,4.324,0,0,0,0-8.647Z"
                  transform="translate(-328.571 -300.769)"
                  fill="#fff"
                  opacity="0.5"
                />
                <rect
                  id="Rectangle_2251"
                  data-name="Rectangle 2251"
                  width="44.859"
                  height="8.648"
                  rx="3.688"
                  fill="#407bff"
                />
                <rect
                  id="Rectangle_2252"
                  data-name="Rectangle 2252"
                  width="44.859"
                  height="8.648"
                  rx="3.688"
                  fill="#6364d9"
                />
              </g>
              <path
                id="Path_13518"
                data-name="Path 13518"
                d="M433.924,345.734h-50.05l5.576-59.67a10.742,10.742,0,0,1,10.7-9.743h34.046a10.741,10.741,0,0,1,10.7,11.741l-4.87,52.123A6.118,6.118,0,0,1,433.924,345.734Z"
                transform="translate(-325.278 -276.321)"
                fill="#407bff"
              />
              <path
                id="Path_13519"
                data-name="Path 13519"
                d="M433.924,345.734h-50.05l5.576-59.67a10.742,10.742,0,0,1,10.7-9.743h34.046a10.741,10.741,0,0,1,10.7,11.741l-4.87,52.123A6.118,6.118,0,0,1,433.924,345.734Z"
                transform="translate(-325.278 -276.321)"
                fill="#fff"
                opacity="0.5"
              />
            </g>
          </g>
          <g
            id="Group_21845"
            data-name="Group 21845"
            transform="translate(3.483 107.862)"
          >
            <g id="Group_21843" data-name="Group 21843">
              <path
                id="Path_13520"
                data-name="Path 13520"
                d="M331.108,420.62H282.424a7.4,7.4,0,0,1-7.4-7.4V301.313a7.4,7.4,0,0,1,7.4-7.4h48.684a1.977,1.977,0,0,1,1.977,1.977h0a1.977,1.977,0,0,1-1.977,1.977H282.424a3.442,3.442,0,0,0-3.442,3.442V413.224a3.442,3.442,0,0,0,3.442,3.442h48.684a1.977,1.977,0,0,1,1.977,1.977h0A1.976,1.976,0,0,1,331.108,420.62Z"
                transform="translate(-275.029 -293.917)"
                fill="#263238"
              />
            </g>
            <g id="Group_21844" data-name="Group 21844" opacity="0.5">
              <path
                id="Path_13521"
                data-name="Path 13521"
                d="M331.108,420.62H282.424a7.4,7.4,0,0,1-7.4-7.4V301.313a7.4,7.4,0,0,1,7.4-7.4h48.684a1.977,1.977,0,0,1,1.977,1.977h0a1.977,1.977,0,0,1-1.977,1.977H282.424a3.442,3.442,0,0,0-3.442,3.442V413.224a3.442,3.442,0,0,0,3.442,3.442h48.684a1.977,1.977,0,0,1,1.977,1.977h0A1.976,1.976,0,0,1,331.108,420.62Z"
                transform="translate(-275.029 -293.917)"
                fill="#fff"
              />
            </g>
          </g>
          <g
            id="Group_21846"
            data-name="Group 21846"
            transform="translate(23.688 43.305)"
          >
            <path
              id="Path_13522"
              data-name="Path 13522"
              d="M296.619,242.436l-3.428-2.275a.616.616,0,0,1,0-1.027l3.428-2.275a.557.557,0,0,1,.77.156h0a.557.557,0,0,1-.156.77l-2.8,1.862,2.8,1.862a.558.558,0,0,1,.156.772h0A.556.556,0,0,1,296.619,242.436Z"
              transform="translate(-292.915 -236.767)"
              fill="#fff"
            />
          </g>
          <g
            id="Group_21847"
            data-name="Group 21847"
            transform="translate(34.79 43.305)"
          >
            <path
              id="Path_13523"
              data-name="Path 13523"
              d="M302.837,242.281h0a.558.558,0,0,1,.156-.772l2.806-1.862-2.806-1.862a.557.557,0,0,1-.156-.77h0a.557.557,0,0,1,.77-.156l3.428,2.275a.616.616,0,0,1,0,1.027l-3.428,2.275A.557.557,0,0,1,302.837,242.281Z"
              transform="translate(-302.744 -236.767)"
              fill="#fff"
            />
          </g>
          <g
            id="Group_21848"
            data-name="Group 21848"
            transform="translate(29.857 41.821)"
          >
            <path
              id="Path_13524"
              data-name="Path 13524"
              d="M298.766,243.931h0a.555.555,0,0,1-.363-.7l2.334-7.392a.556.556,0,0,1,.7-.363h0a.557.557,0,0,1,.363.7l-2.334,7.391A.555.555,0,0,1,298.766,243.931Z"
              transform="translate(-298.377 -235.453)"
              fill="#fff"
            />
          </g>
          <g
            id="Group_21859"
            data-name="Group 21859"
            transform="translate(23.687 54.821)"
          >
            <g id="Group_21849" data-name="Group 21849">
              <path
                id="Path_13525"
                data-name="Path 13525"
                d="M318.653,248.135H293.5a.586.586,0,0,1-.586-.586h0a.587.587,0,0,1,.586-.586h25.152a.586.586,0,0,1,.586.586h0A.586.586,0,0,1,318.653,248.135Z"
                transform="translate(-292.915 -246.962)"
                fill="#fff"
              />
            </g>
            <g
              id="Group_21850"
              data-name="Group 21850"
              transform="translate(28.9)"
            >
              <path
                id="Path_13526"
                data-name="Path 13526"
                d="M344.237,248.135H319.085a.586.586,0,0,1-.586-.586h0a.586.586,0,0,1,.586-.586h25.152a.586.586,0,0,1,.586.586h0A.586.586,0,0,1,344.237,248.135Z"
                transform="translate(-318.499 -246.962)"
                fill="#fff"
              />
            </g>
            <g
              id="Group_21851"
              data-name="Group 21851"
              transform="translate(0 5.178)"
            >
              <path
                id="Path_13527"
                data-name="Path 13527"
                d="M307.873,252.717H293.5a.586.586,0,0,1-.586-.586h0a.586.586,0,0,1,.586-.585h14.372a.586.586,0,0,1,.586.585h0A.586.586,0,0,1,307.873,252.717Z"
                transform="translate(-292.915 -251.546)"
                fill="#fff"
              />
            </g>
            <g
              id="Group_21852"
              data-name="Group 21852"
              transform="translate(18.119 5.178)"
            >
              <path
                id="Path_13528"
                data-name="Path 13528"
                d="M333.083,252.717H309.541a.586.586,0,0,1-.586-.586h0a.586.586,0,0,1,.586-.585h23.542a.585.585,0,0,1,.586.585h0A.586.586,0,0,1,333.083,252.717Z"
                transform="translate(-308.955 -251.546)"
                fill="#fff"
              />
            </g>
            <g
              id="Group_21853"
              data-name="Group 21853"
              transform="translate(0 10.355)"
            >
              <path
                id="Path_13529"
                data-name="Path 13529"
                d="M331.816,257.3H293.5a.586.586,0,0,1-.586-.585h0a.586.586,0,0,1,.586-.586h38.315a.586.586,0,0,1,.586.586h0A.586.586,0,0,1,331.816,257.3Z"
                transform="translate(-292.915 -256.129)"
                fill="#fff"
              />
            </g>
            <g
              id="Group_21854"
              data-name="Group 21854"
              transform="translate(42.062 10.355)"
            >
              <path
                id="Path_13530"
                data-name="Path 13530"
                d="M338.737,257.3h-8a.585.585,0,0,1-.586-.585h0a.586.586,0,0,1,.586-.586h8a.586.586,0,0,1,.586.586h0A.585.585,0,0,1,338.737,257.3Z"
                transform="translate(-330.151 -256.129)"
                fill="#fff"
              />
            </g>
            <g
              id="Group_21855"
              data-name="Group 21855"
              transform="translate(0 15.532)"
            >
              <path
                id="Path_13531"
                data-name="Path 13531"
                d="M311.39,261.885H293.5a.586.586,0,0,1-.586-.586h0a.587.587,0,0,1,.586-.586H311.39a.586.586,0,0,1,.586.586h0A.586.586,0,0,1,311.39,261.885Z"
                transform="translate(-292.915 -260.712)"
                fill="#fff"
              />
            </g>
            <g
              id="Group_21856"
              data-name="Group 21856"
              transform="translate(21.635 15.532)"
            >
              <path
                id="Path_13532"
                data-name="Path 13532"
                d="M334.927,261.885H312.654a.586.586,0,0,1-.586-.586h0a.587.587,0,0,1,.586-.586h22.272a.586.586,0,0,1,.586.586h0A.586.586,0,0,1,334.927,261.885Z"
                transform="translate(-312.068 -260.712)"
                fill="#fff"
              />
            </g>
            <g
              id="Group_21857"
              data-name="Group 21857"
              transform="translate(0 20.71)"
            >
              <path
                id="Path_13533"
                data-name="Path 13533"
                d="M318.653,266.467H293.5a.586.586,0,0,1-.586-.585h0a.586.586,0,0,1,.586-.586h25.152a.586.586,0,0,1,.586.586h0A.585.585,0,0,1,318.653,266.467Z"
                transform="translate(-292.915 -265.296)"
                fill="#fff"
              />
            </g>
            <g
              id="Group_21858"
              data-name="Group 21858"
              transform="translate(28.9 20.71)"
            >
              <path
                id="Path_13534"
                data-name="Path 13534"
                d="M336.829,266.467H319.085a.586.586,0,0,1-.586-.585h0a.586.586,0,0,1,.586-.586h17.744a.586.586,0,0,1,.586.586h0A.586.586,0,0,1,336.829,266.467Z"
                transform="translate(-318.499 -265.296)"
                fill="#fff"
              />
            </g>
          </g>
        </g>
        <g
          id="Character_1"
          data-name="Character 1"
          transform="translate(892.615 952.612)"
        >
          <g id="Group_21870" data-name="Group 21870">
            <path
              id="Path_13535"
              data-name="Path 13535"
              d="M142.014,176.82c.457,5.319-.694,14.958-4.707,18.04,6.548,2.357,13.474,6.43,17.913,11.791,4.391-6.394-.609-10.039-.609-10.039-5.658-2.014-5.043-6.29-3.588-10.233Z"
              transform="translate(-73.62 -148.771)"
              fill="#b97964"
            />
            <path
              id="Path_13536"
              data-name="Path 13536"
              d="M160.4,172.893c-.064.664.249,1.241.686,1.284s.843-.473.907-1.138-.249-1.248-.687-1.291S160.481,172.22,160.4,172.893Z"
              transform="translate(-70.628 -149.428)"
              fill="#263238"
            />
            <path
              id="Path_13537"
              data-name="Path 13537"
              d="M161.045,171.8l1.649-.315S161.756,172.7,161.045,171.8Z"
              transform="translate(-70.543 -149.462)"
              fill="#263238"
            />
            <path
              id="Path_13538"
              data-name="Path 13538"
              d="M160.65,173.391a18.127,18.127,0,0,0,2,4.5,2.9,2.9,0,0,1-2.434.229Z"
              transform="translate(-70.651 -149.215)"
              fill="#a24e3f"
            />
            <path
              id="Path_13539"
              data-name="Path 13539"
              d="M162.475,169.844a.428.428,0,0,0,.267-.139.4.4,0,0,0-.041-.559,3.925,3.925,0,0,0-3.485-.931.4.4,0,0,0,.211.734,3.167,3.167,0,0,1,2.754.774A.38.38,0,0,0,162.475,169.844Z"
              transform="translate(-70.805 -149.898)"
              fill="#263238"
            />
            <path
              id="Path_13540"
              data-name="Path 13540"
              d="M140.989,170.286c-.261,8.263-.544,11.776,3.14,16.38,5.547,6.927,15.585,5.41,18.268-2.633,2.42-7.236,2.444-19.567-5.154-23.571S141.255,162,140.989,170.286Z"
              transform="translate(-73.161 -151.063)"
              fill="#b97964"
            />
            <path
              id="Path_13541"
              data-name="Path 13541"
              d="M142.535,186.8c-8.126-1.384-5.793-6.505-5.793-6.505-8-1.62-1.824-5.527-1.824-5.527-6.656-2.867,0-5.438,0-5.438-6.416-5.323,2.779-7.132,2.779-7.132-2.268-8.3,5.613-4.9,5.613-4.9,4.3-7.132,8-.32,8-.32,7.529-10.219,9.36-1.6,9.36-1.6,7.682-2.023,4.736,6.064,4.736,6.064,6.33,1.7,1.361,4.9,1.361,4.9,2.437,3.087-6.387,3.62-6.387,3.62s4.2,6.729-.037,8.64L149.657,186.8S144.75,184.76,142.535,186.8Z"
              transform="translate(-74.313 -151.989)"
              fill="#263238"
            />
            <path
              id="Path_13542"
              data-name="Path 13542"
              d="M148.388,179.938s5.594-13.524,1.234-25.125l3.731-1.278S158.221,170.358,148.388,179.938Z"
              transform="translate(-72.184 -151.789)"
              fill="#6364d9"
            />
            <path
              id="Path_13543"
              data-name="Path 13543"
              d="M153.414,176.068c.936,1.941,1.29,2.784,2.625,3.428a2.429,2.429,0,0,0,3.553-2.686c-.351-1.946-1.849-4.805-3.914-4.864A2.717,2.717,0,0,0,153.414,176.068Z"
              transform="translate(-71.577 -149.403)"
              fill="#b97964"
            />
            <g
              id="Group_21860"
              data-name="Group 21860"
              transform="translate(53.618 44.05)"
            >
              <path
                id="Path_13544"
                data-name="Path 13544"
                d="M148.86,201.814s7.642,5.613,10.749,7.87l22.125-10.437h0a6.11,6.11,0,0,1,3.734-5.779l1.574-.664,3.338-1.484a3.874,3.874,0,0,1,3.852.407h0a3.872,3.872,0,0,1,1.437,4.224h0a9.6,9.6,0,0,1-6.774,6.579l-3.227.846s-18.982,14.4-25.735,14.781-16.7-6.312-16.7-6.312Z"
                transform="translate(-126.47 -190.985)"
                fill="#b97964"
              />
              <path
                id="Path_13545"
                data-name="Path 13545"
                d="M132.388,192.14c5.841-.025,12.367,3.641,22.645,10.3a28.084,28.084,0,0,1-7.92,12.52s-5.639-1.517-13.143-8.58C124.892,197.833,128.806,192.155,132.388,192.14Z"
                transform="translate(-128.393 -190.836)"
                fill="#263238"
              />
            </g>
            <g
              id="Group_21864"
              data-name="Group 21864"
              transform="translate(109.867 7.351)"
            >
              <g id="Group_21861" data-name="Group 21861">
                <path
                  id="Path_13546"
                  data-name="Path 13546"
                  d="M236.865,213.425H181.52a3.279,3.279,0,0,1-3.318-3.636l4.169-47.656a4.048,4.048,0,0,1,3.954-3.636H241.67a3.278,3.278,0,0,1,3.318,3.636l-4.169,47.656A4.047,4.047,0,0,1,236.865,213.425Z"
                  transform="translate(-178.189 -158.497)"
                  fill="#407bff"
                />
                <path
                  id="Path_13547"
                  data-name="Path 13547"
                  d="M236.865,213.425H181.52a3.279,3.279,0,0,1-3.318-3.636l4.169-47.656a4.048,4.048,0,0,1,3.954-3.636H241.67a3.278,3.278,0,0,1,3.318,3.636l-4.169,47.656A4.047,4.047,0,0,1,236.865,213.425Z"
                  transform="translate(-178.189 -158.497)"
                  fill="#fff"
                  opacity="0.4"
                />
              </g>
              <path
                id="Path_13548"
                data-name="Path 13548"
                d="M236.8,210.905a1.534,1.534,0,0,0,1.5-1.376l4.169-47.656a1.243,1.243,0,0,0-1.256-1.377H185.868a1.535,1.535,0,0,0-1.5,1.377L180.2,209.53a1.242,1.242,0,0,0,1.256,1.376Z"
                transform="translate(-177.928 -158.238)"
                fill="#fff"
                opacity="0.7"
              />
              <g
                id="Group_21862"
                data-name="Group 21862"
                transform="translate(2.268 24.647)"
              >
                <path
                  id="Path_13549"
                  data-name="Path 13549"
                  d="M198.338,180.316l-18.1,26.171-.042.474a1.242,1.242,0,0,0,1.256,1.376H212.81Z"
                  transform="translate(-180.196 -180.316)"
                  fill="#407bff"
                />
                <path
                  id="Path_13550"
                  data-name="Path 13550"
                  d="M198.338,180.316l-18.1,26.171-.042.474a1.242,1.242,0,0,0,1.256,1.376H212.81Z"
                  transform="translate(-180.196 -180.316)"
                  fill="#fff"
                  opacity="0.3"
                />
              </g>
              <path
                id="Path_13551"
                data-name="Path 13551"
                d="M236.087,205.587l-15.152-28.77L198.5,208.79H234.43a1.533,1.533,0,0,0,1.5-1.376Z"
                transform="translate(-175.556 -156.123)"
                fill="#6364d9"
              />
              <g
                id="Group_21863"
                data-name="Group 21863"
                transform="translate(29.339 10.523)"
              >
                <path
                  id="Path_13552"
                  data-name="Path 13552"
                  d="M214.352,172.9a5.662,5.662,0,0,1-5.531,5.085,4.584,4.584,0,0,1-4.64-5.085,5.661,5.661,0,0,1,5.531-5.085A4.586,4.586,0,0,1,214.352,172.9Z"
                  transform="translate(-204.161 -167.813)"
                  fill="#407bff"
                />
                <path
                  id="Path_13553"
                  data-name="Path 13553"
                  d="M214.352,172.9a5.662,5.662,0,0,1-5.531,5.085,4.584,4.584,0,0,1-4.64-5.085,5.661,5.661,0,0,1,5.531-5.085A4.586,4.586,0,0,1,214.352,172.9Z"
                  transform="translate(-204.161 -167.813)"
                  fill="#fff"
                  opacity="0.4"
                />
              </g>
            </g>
            <g
              id="Group_21866"
              data-name="Group 21866"
              transform="translate(0 254.591)"
            >
              <path
                id="Path_13554"
                data-name="Path 13554"
                d="M91.54,377.371l-5.62,16.675,8.618,3.518,6.744-15.386Z"
                transform="translate(-80.279 -377.371)"
                fill="#b97964"
              />
              <g
                id="Group_21865"
                data-name="Group 21865"
                transform="translate(0 14.69)"
              >
                <path
                  id="Path_13555"
                  data-name="Path 13555"
                  d="M96.3,394.979a.258.258,0,0,1-.13-.252.243.243,0,0,1,.189-.209c.18-.041,4.25-.949,5.765.018a1.287,1.287,0,0,1,.57.778.925.925,0,0,1-.3,1.027c-.572.4-1.916.236-3.149-.145A18.272,18.272,0,0,1,96.3,394.979Zm.858-.08c1.775.8,4.281,1.554,4.941,1.051.092-.059.2-.182.112-.527a.68.68,0,0,0-.359-.471,1.6,1.6,0,0,0-.432-.2A11.343,11.343,0,0,0,97.163,394.9Z"
                  transform="translate(-78.951 -389.894)"
                  fill="#6364d9"
                />
                <path
                  id="Path_13556"
                  data-name="Path 13556"
                  d="M96.19,395.262a.245.245,0,0,1-.041-.245c.052-.121,1.143-2.714,2.727-3.363a1.825,1.825,0,0,1,1.431,0c.627.265.729.654.67.931-.133,1.182-3.181,2.6-4.529,2.756a.142.142,0,0,1-.1-.023A.23.23,0,0,1,96.19,395.262Zm3.823-3.208a1.282,1.282,0,0,0-.9.045,5.772,5.772,0,0,0-2.256,2.633c1.454-.347,3.536-1.546,3.682-2.239,0-.066.026-.244-.385-.41l-.139-.029Z"
                  transform="translate(-78.956 -390.229)"
                  fill="#6364d9"
                />
                <path
                  id="Path_13557"
                  data-name="Path 13557"
                  d="M97.7,393.759l-10.827-3.342a.911.911,0,0,0-1.061.418l-4.677,8.2a1.517,1.517,0,0,0,.551,2.073,1.663,1.663,0,0,0,.294.131c3.924,1.136,7.461,1.994,12.318,3.5,5.733,1.772,4.067,2.008,10.779,4.186,4.045,1.307,6.214-3.08,4.561-3.839-7.576-3.425-7.66-6.058-9.83-9.819A3.647,3.647,0,0,0,97.7,393.759Z"
                  transform="translate(-80.927 -390.376)"
                  fill="#263238"
                />
              </g>
              <path
                id="Path_13558"
                data-name="Path 13558"
                d="M88.511,385.365l9.037,4.568,3.4-7.756L91.2,377.371Z"
                transform="translate(-79.944 -377.371)"
                fill="#263238"
                opacity="0.2"
              />
            </g>
            <path
              id="Path_13559"
              data-name="Path 13559"
              d="M129.417,240.85s-12.144,9.279-9.544,38.327c.241,2.687,1.11,5.5,1.122,8.578.009,2.041-.56,3.476-1.229,8.07-.975,6.693-2.761,31.625-4.64,34.867-1.86,3.209-2.655,2.674-7.955,11.617-5.7,9.621-12.988,26.5-18.666,55.109a31.927,31.927,0,0,0,12.69,5.313s31.035-48.932,37.631-67.149c5.9-16.3,12.936-68.318,12.936-68.318l.568-22.554Z"
              transform="translate(-79.945 -140.473)"
              fill="#6364d9"
            />
            <path
              id="Path_13560"
              data-name="Path 13560"
              d="M137.54,274.78h-8.8s-2.89,27.647,6.664,50.721c1-3.7,2.007-8.149,2.989-12.943l3.8-24.356c-.54-4.115-.964-7.252-1.027-7.461C140.981,280.1,137.54,274.78,137.54,274.78Z"
              transform="translate(-74.783 -136.075)"
              opacity="0.1"
            />
            <g
              id="Group_21868"
              data-name="Group 21868"
              transform="translate(57.47 261.3)"
            >
              <path
                id="Path_13561"
                data-name="Path 13561"
                d="M135.2,383.31l.059,17.722,10-.669,1.534-17.053Z"
                transform="translate(-131.363 -383.31)"
                fill="#b97964"
              />
              <g
                id="Group_21867"
                data-name="Group 21867"
                transform="translate(0 11.984)"
              >
                <path
                  id="Path_13562"
                  data-name="Path 13562"
                  d="M145.146,398.418a.258.258,0,0,1-.206-.194.245.245,0,0,1,.11-.261c.156-.1,3.7-2.293,5.45-1.878a1.286,1.286,0,0,1,.794.547.925.925,0,0,1,.056,1.069c-.407.569-1.732.853-3.021.9A18.306,18.306,0,0,1,145.146,398.418Zm.784-.358c1.938.169,4.555.06,5.012-.633.067-.086.125-.236-.068-.535a.684.684,0,0,0-.495-.326,1.659,1.659,0,0,0-.472-.044A11.372,11.372,0,0,0,145.93,398.06Z"
                  transform="translate(-130.101 -393.645)"
                  fill="#6364d9"
                />
                <path
                  id="Path_13563"
                  data-name="Path 13563"
                  d="M145.019,398.681a.243.243,0,0,1-.117-.218c.009-.131.185-2.938,1.468-4.072a1.824,1.824,0,0,1,1.352-.468c.68.043.9.377.939.659.262,1.159-2.15,3.5-3.371,4.091a.139.139,0,0,1-.1.012A.225.225,0,0,1,145.019,398.681Zm2.555-4.287a1.281,1.281,0,0,0-.837.34,5.775,5.775,0,0,0-1.264,3.23c1.258-.807,2.83-2.625,2.742-3.326-.021-.062-.056-.239-.5-.261l-.141.017Z"
                  transform="translate(-130.106 -393.919)"
                  fill="#6364d9"
                />
                <path
                  id="Path_13564"
                  data-name="Path 13564"
                  d="M145.737,396.893l-11.323.4a.913.913,0,0,0-.865.744l-1.717,9.285a1.515,1.515,0,0,0,1.2,1.776,1.535,1.535,0,0,0,.321.027c4.079-.217,7.7-.57,12.784-.744,6-.212,4.5.559,11.556.407,4.25-.095,4.855-4.952,3.045-5.125-8.281-.743-9.227-3.2-12.513-6.04A3.649,3.649,0,0,0,145.737,396.893Z"
                  transform="translate(-131.803 -393.535)"
                  fill="#263238"
                />
              </g>
              <path
                id="Path_13565"
                data-name="Path 13565"
                d="M135.23,392.477l10.756-.224.8-8.942H135.2Z"
                transform="translate(-131.363 -383.31)"
                fill="#263238"
                opacity="0.2"
              />
            </g>
            <path
              id="Path_13566"
              data-name="Path 13566"
              d="M131.447,237.971s-12.115,16.05-3.14,47.48l10.131,45.843s-9.643,20.857-4.552,75.867a46.537,46.537,0,0,0,14.962-.334s11.281-58.1,13-77.725c1.89-21.614.757-86.784.757-86.784Z"
              transform="translate(-75.215 -140.846)"
              fill="#6364d9"
            />
            <g
              id="Group_21869"
              data-name="Group 21869"
              transform="translate(63.451 39.728)"
            >
              <path
                id="Path_13567"
                data-name="Path 13567"
                d="M137.2,192.562s-1.877-8.025,10.16-4.514S158.4,198.413,158.4,198.413Z"
                transform="translate(-137.098 -187.159)"
                fill="#f78c1d"
              />
              <path
                id="Path_13568"
                data-name="Path 13568"
                d="M137.2,192.562s-1.877-8.025,10.16-4.514S158.4,198.413,158.4,198.413Z"
                transform="translate(-137.098 -187.159)"
                fill="#f78c1d"
                opacity="0.4"
              />
            </g>
            <path
              id="Path_13569"
              data-name="Path 13569"
              d="M168.75,212.126c0,2.813-1.186,6.879-2.249,11.432-.518,2.158-.994,4.405-1.309,6.687-1.707,12.437-2.259,25.518-2.259,25.518a49.549,49.549,0,0,1-38.792-7.693s4.734-4.01,3.762-31.787c-.439-12.516-4.958-27.393,15.724-25.055,17.465,1.977,23.339,7.4,24.751,15.882.01.1.034.215.056.328.034.26.068.52.1.791A33.1,33.1,0,0,1,168.75,212.126Z"
              transform="translate(-75.326 -146.935)"
              fill="#ffa950"
            />
            <path
              id="Path_13570"
              data-name="Path 13570"
              d="M164.975,210.92c0,2.813-1.186,6.879-2.249,11.432-4.721-5.682-9.455-16.323-9.455-16.323l3.9-5.738,6.869,3.2a20.612,20.612,0,0,1,.565,2.417c.01.1.034.215.056.328.034.26.068.52.1.791A33.1,33.1,0,0,1,164.975,210.92Z"
              transform="translate(-71.551 -145.729)"
              fill="#f88c1c"
            />
            <path
              id="Path_13571"
              data-name="Path 13571"
              d="M170.758,205.853s6.72,6.687,9.457,9.384l23.434-7.026h0a6.113,6.113,0,0,1,4.553-5.159l1.655-.421,3.522-.971a3.874,3.874,0,0,1,3.748.976h0a3.874,3.874,0,0,1,.792,4.391h0a9.6,9.6,0,0,1-7.679,5.5l-3.317.356s-20.917,11.416-27.649,10.782-15.577-8.73-15.577-8.73Z"
              transform="translate(-70.2 -145.57)"
              fill="#b97964"
            />
            <path
              id="Path_13572"
              data-name="Path 13572"
              d="M155.641,194.6c5.781.846,11.688,5.442,20.859,13.559a28.078,28.078,0,0,1-9.7,11.2s-5.35-2.341-11.716-10.443C147.382,199.109,152.1,194.078,155.641,194.6Z"
              transform="translate(-71.854 -146.472)"
              fill="#ffa950"
            />
          </g>
        </g>
      </g>
    </svg>