<svg xmlns="http://www.w3.org/2000/svg" width="589.133" height="372.708" viewBox="0 0 589.133 372.708">
  <g id="Group_21924" data-name="Group 21924" transform="translate(-1543.743 -434.915)">
    <path id="Path_13573" data-name="Path 13573" d="M2220.171,586.037l8.23-.927a1.835,1.835,0,0,1,1.728.827q.714,1.109,1.531,2.174a30.874,30.874,0,0,0,3.259,3.639,1.811,1.811,0,0,1,.447,1.992l-3.156,8.06a1.778,1.778,0,0,0,.876,2.255l7.091,3.512a1.758,1.758,0,0,0,2.254-.625l4.288-6.718a1.765,1.765,0,0,1,1.976-.764,32,32,0,0,0,10.039,1,1.823,1.823,0,0,1,1.825,1.265l1.453,4.626a1.841,1.841,0,0,0,2.092,1.242l7.7-1.558a1.6,1.6,0,0,0,.445-.148,1.767,1.767,0,0,0,.985-1.8l-.686-6.149-.17-1.5a31.665,31.665,0,0,0,3.735-2.466,32.132,32.132,0,0,0,4.382-4.057,1.766,1.766,0,0,1,1.971-.476l6.489,2.55a1.829,1.829,0,0,0,2.309-.895l2.687-5.421.765-1.556a1.853,1.853,0,0,0-.659-2.388l-5.612-3.588a1.763,1.763,0,0,1-.791-1.922,31.742,31.742,0,0,0,.855-6.739,5.544,5.544,0,0,0,.017-.571.966.966,0,0,1,.012-.192,1.806,1.806,0,0,1,1.274-1.547l7.506-2.376a1.317,1.317,0,0,0,.244-.1,1.837,1.837,0,0,0,.99-1.99l-1.541-7.679a1.827,1.827,0,0,0-1.993-1.455l-8.584.971a1.766,1.766,0,0,1-1.772-.93,32.348,32.348,0,0,0-2.687-4.111q-.809-1.054-1.687-2.02a1.861,1.861,0,0,1-.352-1.928l3.031-7.748a1.777,1.777,0,0,0-.865-2.241l-7.02-3.464a1.857,1.857,0,0,0-2.395.664l-3.394,5.315a1.825,1.825,0,0,1-2.123.752,31.928,31.928,0,0,0-9.684-1.74,1.812,1.812,0,0,1-1.708-1.275l-2.138-6.765a1.875,1.875,0,0,0-2.147-1.269l-7.652,1.531a1.792,1.792,0,0,0-1.432,1.964l.036.359.8,7.143a1.833,1.833,0,0,1-.99,1.842l-.007.005a31.763,31.763,0,0,0-4.748,3.016c-.81.622-1.573,1.275-2.314,1.958a1.8,1.8,0,0,1-1.892.37l-6.587-2.588a1.86,1.86,0,0,0-2.349.9l-3.453,6.989a2,2,0,0,0-.178.615,1.851,1.851,0,0,0,.829,1.733l4.49,2.854a1.85,1.85,0,0,1,.838,1.612,1.971,1.971,0,0,1-.092.5,31.8,31.8,0,0,0-1.616,12.471,1.79,1.79,0,0,1-.961,1.717,1.851,1.851,0,0,1-.286.117l-6.079,1.919a1.82,1.82,0,0,0-1.235,2.087l.034.179,1.5,7.486A1.853,1.853,0,0,0,2220.171,586.037Zm52.654-23.371a21.261,21.261,0,0,1,1.117,3.8,16.723,16.723,0,0,1-1.19,9.034c-.124.254-.253.5-.382.749-8.053,14.949-29.163,11.976-32.639-4.891a17.337,17.337,0,0,1,.619-7.878,11.263,11.263,0,0,1,.63-1.554,19.658,19.658,0,0,1,3.928-5.406A17.156,17.156,0,0,1,2272.826,562.666Z" transform="translate(-434.935 -62.221)" fill="#e9e9e9"/>
    <path id="Path_13574" data-name="Path 13574" d="M2803.755,599.471c-7.9-15.924-35.257-5.023-35.257-5.023s-13.433,33.284-18.9,35.1,5.929-30.7,5.929-30.7c-11.079,1.107-36.131,19.934-36.131,19.934s8.579,34.013,2.83,34.426-6.06-30.5-6.06-30.5c-9.892,5.245-17.272,19.467-17.272,19.467-8.3,22.424,20.921,31.926,20.921,31.926s2.719,11.851-1.927,26.988h0a41.386,41.386,0,0,0-2,7.482l2.868-.57q.122-1.223.336-2.38a.016.016,0,0,1,0-.014l.006-.034c.108-.482.266-1.169.465-2.007v0s0,0,0,0c.536-1.889.876-3.274,1.069-4.263a.041.041,0,0,0,0-.009c1.556-5.905,3.944-13.671,6.174-15.644a5.659,5.659,0,0,1-.875-1.193l.875,1.193c7,9.544,31.89,6.421,45.007.9s6.39-8.194-2.216-12.991-23.706-.082-28.752-1.631,1.129-5.327,10.384-6.436,15.625,7.1,30.63,5.578,20.722-31.451,20.722-31.451c-9.542,5.176-28.888,3.188-30.286-.179s25.67-8.379,29.669-10.267S2811.656,615.4,2803.755,599.471Z" transform="translate(-739.068 -104.482)" fill="#e9e9e9"/>
    <path id="Path_13575" data-name="Path 13575" d="M1650.715,916.909c-3.216-17.484,25.217-25.148,25.217-25.148s30.7,18.6,36.166,16.773-23.141-21.025-23.141-21.025c9.533-5.751,40.87-5.691,40.87-5.691s13.512,32.371,18.363,29.257-13.427-28.053-13.427-28.053c11.062-1.728,25.492,5.237,25.492,5.237,20.082,12.978,2.381,38.1,2.381,38.1s4.925,11.117,17.715,20.451h0a41.368,41.368,0,0,1,6.082,4.793l-2.637,1.262q-.831-.906-1.7-1.7a.018.018,0,0,0-.011-.01l-.025-.023c-.376-.321-.913-.777-1.574-1.328l0,0s0,0,0,0c-1.561-1.192-2.663-2.1-3.41-2.773l-.006-.007c-4.784-3.8-11.35-8.582-14.317-8.825a5.664,5.664,0,0,0-.015-1.48c.005.472.01.964.015,1.48.116,11.834-21.684,24.25-35.494,27.689s-10.026-2.731-6.01-11.729,18.93-14.271,22.041-18.534-4.1-3.588-12.17,1.069-8.254,15.048-21.18,22.819-35.436-12.763-35.436-12.763c10.74-1.573,25.038-14.758,24.14-18.291s-25.573,8.673-29.9,9.557S1653.931,934.392,1650.715,916.909Z" transform="translate(-71.525 -287.981)" fill="#e9e9e9"/>
    <path id="Path_13576" data-name="Path 13576" d="M2817.71,1136.82c13.991-10.967-2.231-35.543-2.231-35.543s-35.316-6.4-38.2-11.393,31.263-.42,31.263-.42c-3.331-10.624-26.847-31.338-26.847-31.338s-31.566,15.3-33.137,9.753,28.641-12.121,28.641-12.121c-7.142-8.622-22.566-12.964-22.566-12.964-23.641-3.581-27.019,26.96-27.019,26.96s-11.054,5.066-26.819,3.586h0a41.344,41.344,0,0,0-7.731-.438l1.139,2.693c.815-.085,1.615-.138,2.4-.154a.016.016,0,0,1,.014,0h.034c.494.009,1.2.023,2.059.048h.008c1.958.141,3.383.194,4.391.181h.009c6.1.326,14.187,1.09,16.571,2.873a5.661,5.661,0,0,1,.991-1.1l-.991,1.1c-7.926,8.788.18,32.53,8.247,44.254s9.32,4.6,12.272-4.8-4.728-23.23-4.234-28.485,5.445.025,8.409,8.863-3.784,16.74.75,31.124,35,13.913,35,13.913c-7-8.293-8.98-27.641-5.966-29.693s13.411,23.437,16.071,26.97S2803.719,1147.786,2817.71,1136.82Z" transform="translate(-736.156 -386.324)" fill="#e9e9e9"/>
    <g id="Group_21874" data-name="Group 21874" transform="translate(1944.24 469.035)">
      <path id="Path_13577" data-name="Path 13577" d="M2685.876,593.126s1.641-32.757,16.953-53.292a3.642,3.642,0,0,1,6.545,2.02c0,.057.005.114.007.172C2709.565,547.836,2692.609,573.568,2685.876,593.126Z" transform="translate(-2684.494 -538.377)" fill="#e9e9e9" opacity="0.5"/>
      <path id="Path_13578" data-name="Path 13578" d="M2681.684,606.14s13.792-41.752,40.891-61.663a3.864,3.864,0,0,1,5.294.628c.83,1.046,1.287,2.738.625,5.475C2726.728,557.878,2696.782,584.1,2681.684,606.14Z" transform="translate(-2681.684 -541.95)" fill="#e9e9e9" opacity="0.5"/>
    </g>
    <g id="Group_21875" data-name="Group 21875" transform="translate(1637 550.377)">
      <path id="Path_13579" data-name="Path 13579" d="M1894.1,796.891s-13.745-23.975-33.089-33.549a3.069,3.069,0,0,0-4.144,4.017l.06.132C1859.012,771.926,1881.575,784.774,1894.1,796.891Z" transform="translate(-1840.681 -763.016)" fill="#e9e9e9" opacity="0.5"/>
      <path id="Path_13580" data-name="Path 13580" d="M1866.416,823.17s-26.307-26.089-54.264-30.692a3.256,3.256,0,0,0-3.737,2.494c-.224,1.1.079,2.548,1.622,4.35C1814.151,804.13,1846.657,812.382,1866.416,823.17Z" transform="translate(-1808.349 -782.732)" fill="#e9e9e9" opacity="0.5"/>
    </g>
    <path id="Path_13581" data-name="Path 13581" d="M2257.025,695.191V903.162c0,3.638-2.627,6.59-5.865,6.59H1951.1c-3.239,0-5.865-2.951-5.865-6.59V695.191c0-3.641,2.627-6.59,5.865-6.59h300.057C2254.4,688.6,2257.025,691.549,2257.025,695.191Z" transform="translate(-250.504 -149.133)" fill="#fff"/>
    <g id="Group_21877" data-name="Group 21877" transform="translate(1652.894 511.576)">
      <path id="Path_13582" data-name="Path 13582" d="M2165.15,659.779v16.865H1830.286V659.779a6.3,6.3,0,0,1,6.3-6.3h322.265A6.3,6.3,0,0,1,2165.15,659.779Z" transform="translate(-1830.286 -653.48)" fill="#6364d9"/>
      <g id="Group_21876" data-name="Group 21876" transform="translate(10.244 8.65)">
        <path id="Path_13583" data-name="Path 13583" d="M1861.348,682.641a2.933,2.933,0,1,1,2.932,2.932A2.933,2.933,0,0,1,1861.348,682.641Z" transform="translate(-1861.348 -679.708)" fill="#e9e9e9"/>
        <path id="Path_13584" data-name="Path 13584" d="M1896.388,682.641a2.932,2.932,0,1,1,2.932,2.932A2.933,2.933,0,0,1,1896.388,682.641Z" transform="translate(-1884.832 -679.708)" fill="#e9e9e9"/>
        <path id="Path_13585" data-name="Path 13585" d="M1932.312,682.641a2.932,2.932,0,1,1,2.932,2.932A2.933,2.933,0,0,1,1932.312,682.641Z" transform="translate(-1908.909 -679.708)" fill="#e9e9e9"/>
      </g>
    </g>
    <path id="Path_13586" data-name="Path 13586" d="M2484.564,540.7l4.008-.451a.894.894,0,0,1,.841.4q.348.54.746,1.059a15.019,15.019,0,0,0,1.587,1.772.882.882,0,0,1,.218.97l-1.537,3.925a.866.866,0,0,0,.427,1.1l3.453,1.711a.857.857,0,0,0,1.1-.3l2.088-3.272a.86.86,0,0,1,.962-.372,15.584,15.584,0,0,0,4.889.487.888.888,0,0,1,.889.616l.708,2.253a.9.9,0,0,0,1.019.605l3.75-.758a.786.786,0,0,0,.217-.072.86.86,0,0,0,.48-.878l-.334-2.994-.083-.73a15.422,15.422,0,0,0,1.819-1.2,15.64,15.64,0,0,0,2.134-1.976.86.86,0,0,1,.96-.232l3.16,1.242a.89.89,0,0,0,1.125-.436l1.308-2.64.373-.757a.9.9,0,0,0-.321-1.163l-2.733-1.747a.859.859,0,0,1-.385-.936,15.5,15.5,0,0,0,.417-3.282c.009-.1.008-.184.008-.278a.457.457,0,0,1,.006-.093.88.88,0,0,1,.62-.753l3.655-1.157a.622.622,0,0,0,.119-.047.894.894,0,0,0,.482-.969l-.75-3.74a.89.89,0,0,0-.971-.709l-4.181.473a.86.86,0,0,1-.863-.453,15.77,15.77,0,0,0-1.309-2q-.394-.514-.821-.984a.906.906,0,0,1-.171-.939l1.476-3.773a.865.865,0,0,0-.421-1.091l-3.419-1.687a.9.9,0,0,0-1.166.324l-1.653,2.588a.889.889,0,0,1-1.034.366,15.539,15.539,0,0,0-4.716-.847.883.883,0,0,1-.832-.621l-1.041-3.295a.913.913,0,0,0-1.045-.618l-3.727.746a.873.873,0,0,0-.7.957l.018.175.39,3.479a.893.893,0,0,1-.482.9l0,0a15.458,15.458,0,0,0-2.312,1.469c-.394.3-.766.621-1.127.953a.875.875,0,0,1-.921.18l-3.208-1.26a.906.906,0,0,0-1.144.439l-1.682,3.4a.976.976,0,0,0-.087.3.9.9,0,0,0,.4.844l2.187,1.39a.9.9,0,0,1,.408.785.955.955,0,0,1-.045.245,15.492,15.492,0,0,0-.787,6.074.872.872,0,0,1-.468.836.887.887,0,0,1-.139.057l-2.961.935a.887.887,0,0,0-.6,1.016l.017.087.729,3.646A.9.9,0,0,0,2484.564,540.7Zm25.643-11.382a10.375,10.375,0,0,1,.544,1.851,8.145,8.145,0,0,1-.579,4.4c-.06.124-.123.244-.186.365a8.415,8.415,0,0,1-15.594-6.219,5.515,5.515,0,0,1,.307-.757,9.564,9.564,0,0,1,1.913-2.633A8.355,8.355,0,0,1,2510.207,529.323Z" transform="translate(-608.858 -51.877)" fill="#e9e9e9"/>
    <g id="Group_21881" data-name="Group 21881" transform="translate(1557.357 693.019)">
      <path id="Path_13587" data-name="Path 13587" d="M1745.339,1159.083s.447-4.867-4.991-4.867a6.39,6.39,0,0,1,2.5,1.341,6.43,6.43,0,0,0-7.243,1.093c-3.775,3.129-1.429,10.976-2.577,12.466s-5.617,1.788-5.071,6.605,14.186,10.851,13.31,14.837c0,0,5.345-7.857,1.523-11.443a7.082,7.082,0,0,1,2.052,3.841s.506-4.072-2.086-5.375c-2.293-1.153-4.172-5.368-3.973-6.122S1745.339,1159.083,1745.339,1159.083Z" transform="translate(-1680.79 -1154.216)" fill="#151f2c"/>
      <path id="Path_13588" data-name="Path 13588" d="M1752.817,1239.833s4.062,16.807,8.051,20.167c2.4,2.019,9.524,6.654,9.524,6.654l-2.964,1.076s-9.886-3.338-12.1-5.94-8.273-15.641-8.273-15.641Z" transform="translate(-1693.621 -1211.598)" fill="#ee805f"/>
      <path id="Path_13589" data-name="Path 13589" d="M1643.6,1297.08l.112.2c.889,1.545,2.928,5.331,5.175,9.475,1.063,1.966,2.175,4.012,3.231,5.938,1.818,3.323,3.473,6.282,4.438,7.846.981,1.59,1.7,2.708,2,3.154l0,0a.737.737,0,0,1,.1.461,24.131,24.131,0,0,0,.064,4.167,31.964,31.964,0,0,0,10.444,20.7l2.7.4s-3.824-14.169-4.951-22.179a15.4,15.4,0,0,1-.207-3.176,33.17,33.17,0,0,0-.872-8.669,194.213,194.213,0,0,0-5.526-20.067c-.126-.392-3.927-14.14-3.927-14.14-3.19,2.788-14.825,3.939-14.825,3.939S1639.577,1289.927,1643.6,1297.08Z" transform="translate(-1622.585 -1239.318)" fill="#384152"/>
      <path id="Path_13590" data-name="Path 13590" d="M1728.59,1485.7h-11.28a6.193,6.193,0,0,1,.318-3.023c.565-1.251,1.369-1.291.1-3.253.717.738,3.021,1.043,4.651.824a13.833,13.833,0,0,0,1.956,2.977C1725.076,1483.757,1728.363,1483.568,1728.59,1485.7Z" transform="translate(-1673.643 -1372.178)" fill="#151f2c"/>
      <path id="Path_13591" data-name="Path 13591" d="M1648.746,1315.852l.112.2c.889,1.545,5.7,10.425,7.943,14.568a60.069,60.069,0,0,1-.792-21.417Z" transform="translate(-1627.732 -1258.09)" fill="#151f2c"/>
      <path id="Path_13592" data-name="Path 13592" d="M1758.218,1166.738c.074-.3-6.442,2.945-6.772,3.312-3.056,3.39-2.185,7.813-.436,7.856,1.122.027.9,1.892.9,1.892l12.493-5.285S1762.9,1165.74,1758.218,1166.738Z" transform="translate(-1695.207 -1162.556)" fill="#151f2c"/>
      <path id="Path_13593" data-name="Path 13593" d="M1750,1232.18s1.9,3.8,1.664,6.88c0,0-2.292,3.619-8.238,4.535C1743.428,1243.6,1748.54,1232.177,1750,1232.18Z" transform="translate(-1691.19 -1206.469)" fill="#7f80ea"/>
      <path id="Path_13594" data-name="Path 13594" d="M1617.871,1281.187l.038-2.11c-4.2.53-14.493-5.023-14.493-5.023s-4.4,2.924-5,11.277c-.294,4.077-2.153,21.318-2.358,26.466-.075,1.866-.1,3.2-.109,3.73a.008.008,0,0,1,0,.005.735.735,0,0,1-.179.434,24.089,24.089,0,0,0-2.278,3.491c-6.414,11.933-3.06,28.148-3.06,28.148l1.489-.379s5.423-16.809,8.968-24.08a15.22,15.22,0,0,1,1.6-2.747,33.166,33.166,0,0,0,4.123-7.676C1609.239,1306.469,1617.871,1281.187,1617.871,1281.187Z" transform="translate(-1588.064 -1234.534)" fill="#384152"/>
      <path id="Path_13595" data-name="Path 13595" d="M1596.366,1485.538h-11.28a6.194,6.194,0,0,1,.319-3.023c.565-1.251,1.449-1.82,1.237-3.334a4.061,4.061,0,0,0,3.516,1.345,12.368,12.368,0,0,0,1.957,2.537C1592.853,1483.592,1596.14,1483.4,1596.366,1485.538Z" transform="translate(-1585.025 -1372.013)" fill="#151f2c"/>
      <path id="Path_13596" data-name="Path 13596" d="M1666.793,1233.025c-1.515.258.247,1.463-1.837,1.689-2.966.324-6.028.545-7.632,1.185a1.722,1.722,0,0,0-1.1.89c-.7,2.091-5.1,5.684-5.1,5.684-19.641-.894-20.906-9.648-20.906-9.648,12.747-12.38,23.592-19.128,32.554-19.963a15.946,15.946,0,0,1,6.5.684c3.135,1.4,4.852,5.643,4.852,5.643S1672.55,1232.043,1666.793,1233.025Z" transform="translate(-1615.316 -1193.477)" fill="#6364d9"/>
      <path id="Path_13597" data-name="Path 13597" d="M1719.91,1246.788c-2.966.324-6.028.545-7.632,1.185a31.278,31.278,0,0,1,3.967-17.164S1719.26,1243.081,1719.91,1246.788Z" transform="translate(-1670.269 -1205.55)" fill="#7f80ea"/>
      <path id="Path_13598" data-name="Path 13598" d="M1748.059,1208.38c.561,1.756,2.43,6.761,5.02,4.835a6.4,6.4,0,0,1,1.1-2.562c.82-1.41,1.8-2.85,1.8-2.85l-4.221-3.7-.252-.221a10.756,10.756,0,0,1-3.141,3.565A.844.844,0,0,0,1748.059,1208.38Z" transform="translate(-1694.267 -1187.503)" fill="#ee805f"/>
      <path id="Path_13599" data-name="Path 13599" d="M1763.4,1208.252s-.976,1.438-1.8,2.849c-2.624-1.618-2.627-4.866-2.424-6.549Z" transform="translate(-1701.697 -1187.952)" fill="#de6b4d"/>
      <path id="Path_13600" data-name="Path 13600" d="M1763.166,1194.775s-6.371-3.545-4.1-7.479,2.974-7.04,7.138-4.943,4.081,4.05,3.643,5.547S1764.882,1195.6,1763.166,1194.775Z" transform="translate(-1701.342 -1172.621)" fill="#ee805f"/>
      <path id="Path_13601" data-name="Path 13601" d="M1769.561,1184.523c-.292-1.747-1.179-1.913-1.8-1.8a5.1,5.1,0,0,0-6.2-2.372,8.673,8.673,0,0,1-5.021,3.016s.739,1.376,3.785,2.227a5.21,5.21,0,0,0,3.005-.24,17.019,17.019,0,0,1-4.323,1.629c4.014.367,7.833-3.3,8.229-3.7a5.709,5.709,0,0,1,.316,2.63c-.264,1.183-1.314,3.326-.673,3.6C1766.884,1189.524,1770,1187.142,1769.561,1184.523Z" transform="translate(-1699.981 -1171.539)" fill="#151f2c"/>
      <g id="Group_21880" data-name="Group 21880" transform="translate(55.981 48.571)">
        <rect id="Rectangle_2253" data-name="Rectangle 2253" width="52.886" height="13.87" transform="translate(29.538 14.919) rotate(25.99)" fill="#6364d9"/>
        <g id="Group_21878" data-name="Group 21878">
          <path id="Path_13602" data-name="Path 13602" d="M1763.367,1331.491a15.716,15.716,0,0,1-8.507-10.815,3.572,3.572,0,1,1,6.977-1.533,8.651,8.651,0,1,0,6-10.147,3.572,3.572,0,0,1-2.024-6.851,15.794,15.794,0,1,1-2.45,29.345Z" transform="translate(-1754.775 -1301.497)" fill="#6364d9"/>
        </g>
        <g id="Group_21879" data-name="Group 21879" transform="translate(66.969 32.79)">
          <path id="Path_13603" data-name="Path 13603" d="M1966.719,1430.916a15.794,15.794,0,1,1,21.609-20.005,3.572,3.572,0,0,1-6.643,2.625,8.651,8.651,0,1,0-4.3,10.979,3.572,3.572,0,0,1,3.089,6.441A15.718,15.718,0,0,1,1966.719,1430.916Z" transform="translate(-1957.847 -1400.926)" fill="#6364d9"/>
        </g>
        <path id="Rectangle_2254" data-name="Rectangle 2254" d="M2.179,0h0A2.179,2.179,0,0,1,4.358,2.179V28.587a2.179,2.179,0,0,1-2.179,2.179h0A2.179,2.179,0,0,1,0,28.587V2.179A2.179,2.179,0,0,1,2.179,0Z" transform="translate(33.617 26.666) rotate(-64.01)" fill="#7f80ea"/>
      </g>
      <path id="Path_13604" data-name="Path 13604" d="M1755.559,1353.384a4.216,4.216,0,0,0,.64,1.8c.5.613,1.961,2.1,1.987,2.965,0,0-.074.386-.387.315s-1.4-1.147-1.958-1.07a10.817,10.817,0,0,0,.593,2.231,6.119,6.119,0,0,1,.661,2.759c-.177.423-3.131-2.039-4.026-3.241s-.014-6.085-.014-6.085Z" transform="translate(-1697.382 -1287.484)" fill="#ee805f"/>
      <path id="Path_13605" data-name="Path 13605" d="M1724.895,1225.763s-7.459-.407-8.784,4.275,2.487,23.374,3.308,25.3c1.5,3.512,8.776,13.536,8.776,13.536l2.677-.815s-4.854-15.314-5.938-16.829C1723.232,1248.854,1727.127,1227.8,1724.895,1225.763Z" transform="translate(-1672.695 -1202.162)" fill="#ee805f"/>
      <path id="Path_13606" data-name="Path 13606" d="M1712.214,1233.49c.019.109,7.058,1.295,11.461-.94,0,0,3.678-11.522-1.578-10.97s-8.368,2.207-8.5,4.723A48.439,48.439,0,0,1,1712.214,1233.49Z" transform="translate(-1670.269 -1199.351)" fill="#7f80ea"/>
      <path id="Path_13607" data-name="Path 13607" d="M1803.217,1298.417a2.919,2.919,0,0,0-1.236.312c-.407.314-.864.859.047,1.313,1.367.681,4.1.379,3.994-.032C1805.686,1298.718,1805.193,1298.325,1803.217,1298.417Z" transform="translate(-1730.11 -1250.853)" fill="#ee805f"/>
    </g>
    <g id="Group_21884" data-name="Group 21884" transform="translate(1696.847 434.915)">
      <path id="Path_13608" data-name="Path 13608" d="M2069.609,718.992a1.276,1.276,0,0,0-.228,1.365.009.009,0,0,0,0,.007,8.473,8.473,0,0,0,2.68,2.94c.161.131.3.249.43.359.033.029.066.058.1.086l.074.067c1.178,1.086.734,1.335,2.851,3.538,2.413,2.511,4.074,2.556,4.547,2.327.4-.195-.413-1.526-1.312-3.023-.044-.072-.086-.145-.131-.218-.12-.2-.239-.4-.358-.6-1.055-1.8-.784-2.647-.534-5.327.2-2.178,3.389-12.169,3.389-12.169l-4.624-.8s-1.393,7.956-2.927,9.181c-.82.653-1.739.661-2.527,1.146-.056.034-.111.068-.164.1A6.067,6.067,0,0,0,2069.609,718.992Z" transform="translate(-2038.765 -617.637)" fill="#ee805f"/>
      <path id="Path_13609" data-name="Path 13609" d="M2069.609,739.979a1.276,1.276,0,0,0-.228,1.365.009.009,0,0,0,0,.007,9.812,9.812,0,0,0,2.684,2.93c.159.133.3.254.426.368.033.029.066.058.1.086l.074.067c1.178,1.086.734,1.335,2.851,3.538,2.413,2.511,4.074,2.556,4.547,2.327.4-.195-.413-1.526-1.312-3.023a10.277,10.277,0,0,1-4.3-3.169c-1.453-1.854-2.422-4.236-3.411-5.616-.056.034-.111.068-.164.1A6.07,6.07,0,0,0,2069.609,739.979Z" transform="translate(-2038.765 -638.624)" fill="#151f2c"/>
      <path id="Path_13610" data-name="Path 13610" d="M2175.824,713.244c.286,1.427,2.32,1.189,4.593.634s1.733.1,4.968-.253,4.215-1.565,4.314-2.046c.088-.427-1.51-.577-3.225-.775-.216-.024-.433-.051-.649-.078-1.935-.243-3.353-1.492-5.112-2.518-1.666-.972-4.151-4.931-4.151-4.931l-4.437.352s2.328,3.536,3.229,5.074a5.36,5.36,0,0,1,.436,3.023A5.687,5.687,0,0,0,2175.824,713.244Z" transform="translate(-2107.694 -614.777)" fill="#ee805f"/>
      <path id="Path_13611" data-name="Path 13611" d="M2187.8,729.175c2.273-.556,1.733.1,4.968-.253s4.215-1.565,4.314-2.046c.088-.427-1.51-.577-3.225-.775l-.016.033a9.119,9.119,0,0,1-4.633,1.44c-2.2.053-4.52-.576-6.035-.551a5.687,5.687,0,0,0,.034,1.518C2183.488,729.968,2185.522,729.73,2187.8,729.175Z" transform="translate(-2115.072 -630.073)" fill="#151f2c"/>
      <path id="Path_13612" data-name="Path 13612" d="M2100.849,633.02l-4.147,11.16-5.415,14.572a8.774,8.774,0,0,1-2.877-.263,12.478,12.478,0,0,1-2.782-1.354s1.5-15.646,4.308-24.628a16,16,0,0,1,2.414-5.22C2096.7,622.15,2100.849,633.02,2100.849,633.02Z" transform="translate(-2049.722 -562.923)" fill="#151f2c"/>
      <path id="Path_13613" data-name="Path 13613" d="M2037.466,589.2c-2.717-.877-10.467.249-18.252,1.773l-1.63-2.688-16.815-1.313s-5.549,12.305-2.511,20.145a2.843,2.843,0,0,0,2.846,1.916h.245s10.008-.006,13.258-.006c8.362,0,17.7-5.748,18.906-5.99,1.977-.4,2.767,3.558,4.744,7.709s18.581,18.383,18.581,18.383a14.612,14.612,0,0,0,3.606-.37,3.551,3.551,0,0,0,1.548-.977S2043.594,591.176,2037.466,589.2Z" transform="translate(-1990.556 -536.825)" fill="#384152"/>
      <path id="Path_13614" data-name="Path 13614" d="M1998.207,435.184a17.721,17.721,0,0,0-6.116.05c-6.4.63-8.548,7.767-7.579,13.3.893,5.11-1.7,6.524-4.7,10.56-6.023,8.093-2.087,14.917,2.666,16.676,2.852,1.056,6.811-1.607,6.811-1.607.072.029,12.44-8.1,17.51-12.687C2015.24,458.177,2004.211,436.728,1998.207,435.184Z" transform="translate(-1976.75 -434.915)" fill="#151f2c"/>
      <path id="Path_13615" data-name="Path 13615" d="M2027.148,490.741c.168.593-2.631,1.681-4.767,1.281-2.01-.375-4.263-2.728-3.8-2.949.77-.365,1.287-1.274.866-6.189l.382.044,6.43.734s.02,2,.169,3.879A12.7,12.7,0,0,0,2027.148,490.741Z" transform="translate(-2004.746 -467.065)" fill="#ee805f"/>
      <path id="Path_13616" data-name="Path 13616" d="M2028.924,483.75s.02,2,.169,3.879c-3.549.191-5.685-2.886-6.6-4.613Z" transform="translate(-2007.408 -467.153)" fill="#de6b4d"/>
      <path id="Path_13617" data-name="Path 13617" d="M2027.155,462.018s-8.366.825-8.8-4.393-1.806-8.625,3.518-9.373,6.528,1.158,7.1,2.864S2029.32,461.669,2027.155,462.018Z" transform="translate(-2004.311 -443.742)" fill="#ee805f"/>
      <path id="Path_13618" data-name="Path 13618" d="M2021.214,444.414s-1.054,6.374-5.818,7.887c-3.476,1.1-5.05.376-5.05.376a14.166,14.166,0,0,0,2.268-5.3,2.55,2.55,0,0,1,1.7-1.947C2016.784,444.615,2019.777,442.393,2021.214,444.414Z" transform="translate(-1999.266 -440.728)" fill="#151f2c"/>
      <path id="Path_13619" data-name="Path 13619" d="M2038.521,447.247a5.535,5.535,0,0,1,2.974,2.386,10.676,10.676,0,0,1,1.5,5.155s1.465-5.9-.671-8.094C2040.057,444.366,2038.521,447.247,2038.521,447.247Z" transform="translate(-2018.15 -442.201)" fill="#151f2c"/>
      <path id="Path_13620" data-name="Path 13620" d="M1997.436,519.518c.149.634.277,1.217.381,1.754.17.868.288,1.616.37,2.276.255,2.058.178,3.277.351,4.611a11.475,11.475,0,0,0,.626,2.51c.346.956,9.437,1.808,14.61,1.464a7.089,7.089,0,0,0,3.338-.722c1.845-1.6,1.661,1.922,1.914-14.943.122-8.226-6.98-15.553-6.98-15.553s-.567,3.514-7.611-.668c-.25-.146-3.024,3.962-5.695,9.02C1995.8,514.857,1996.6,516.039,1997.436,519.518Z" transform="translate(-1990.099 -478.701)" fill="#6364d9"/>
      <path id="Path_13621" data-name="Path 13621" d="M2096.7,657.593l-5.415,14.572a8.775,8.775,0,0,1-2.877-.263,12.479,12.479,0,0,1-2.782-1.354s1.5-15.646,4.308-24.628Z" transform="translate(-2049.722 -576.335)" fill="#384152"/>
      <path id="Path_13622" data-name="Path 13622" d="M2043.3,502.28s7.248,1.229,8.1,4.349,6.731,20.573,6.731,20.573-4.556,1.555-6.258-.147-5.923-15.792-5.923-15.792Z" transform="translate(-2021.354 -480.064)" fill="#6364d9"/>
      <path id="Path_13623" data-name="Path 13623" d="M2040.165,480.655a1.438,1.438,0,0,0,1.277.858c.926,0,1.177-.139,1.352-.335a2.9,2.9,0,0,0,.349-.574A7.864,7.864,0,0,0,2040.165,480.655Z" transform="translate(-2019.252 -465.456)" fill="#fff"/>
      <path id="Path_13624" data-name="Path 13624" d="M2001.274,569.951c.255,2.058.178,3.277.351,4.611,6.581.021,15.38-5.082,15.38-5.082Z" transform="translate(-1993.186 -525.103)" fill="#494adc"/>
      <path id="Path_13625" data-name="Path 13625" d="M2016.448,539.268s-10.252-.305-11.98-6.133c-1.9-6.4-4.025,2.633-4.025,2.633l1.131,5.766h11.248Z" transform="translate(-1992.629 -499.207)" fill="#494adc"/>
      <g id="Group_21883" data-name="Group 21883" transform="translate(27.309 20.442)">
        <path id="Path_13626" data-name="Path 13626" d="M2073.941,500.709l-.554-1.372a3.891,3.891,0,0,0-3.608-2.434h-10.22v34.171h42.278V503.388h-23.925A4.282,4.282,0,0,1,2073.941,500.709Z" transform="translate(-2059.558 -496.903)" fill="#b8c0c7"/>
        <g id="Group_21882" data-name="Group 21882" transform="translate(6.377 11.587)">
          <path id="Path_13627" data-name="Path 13627" d="M2078.9,547.217v-2.464l8.639-3.784v2.517l-6.033,2.481,6.033,2.481V551Z" transform="translate(-2078.896 -538.024)" fill="#fff"/>
          <path id="Path_13628" data-name="Path 13628" d="M2116.248,532.038h2.3l-7.907,16.529h-2.3Z" transform="translate(-2098.63 -532.038)" fill="#fff"/>
          <path id="Path_13629" data-name="Path 13629" d="M2150.862,544.753v2.464L2142.223,551v-2.517l6.033-2.481-6.033-2.481v-2.553Z" transform="translate(-2121.339 -538.024)" fill="#fff"/>
        </g>
      </g>
      <path id="Path_13630" data-name="Path 13630" d="M2048.971,553.273l.742-1.164a5.965,5.965,0,0,0,1.411-.769c.979-.688.85-1.718,1.339-1.609l.006,2.264-.053.008c2.1.561,4.558-.049,4.607.474.135,1.439-.978,2.087-1.91,2.538a3.383,3.383,0,0,1-2.814.461c-.943-.293-2.426-.592-2.426-.592Z" transform="translate(-2025.154 -511.861)" fill="#ee805f"/>
      <path id="Path_13631" data-name="Path 13631" d="M1997.082,500.261s-6.655.435-8.319,3.031-3.727,15.773-2.862,20.3,22.177-.865,22.177-.865l-.68-3.927s-12.3.071-13-1.531C1993.466,515.139,1997.082,500.261,1997.082,500.261Z" transform="translate(-1982.746 -478.711)" fill="#6364d9"/>
      <path id="Path_13632" data-name="Path 13632" d="M2117.627,513.935a2.477,2.477,0,0,0,2.512,1.613c.942-.189,2.167-2.217,1.091-2.665A3.061,3.061,0,0,0,2117.627,513.935Z" transform="translate(-2071.167 -487.022)" fill="#ee805f"/>
    </g>
    <g id="Group_21890" data-name="Group 21890" transform="translate(1804.001 512.214)">
      <g id="Group_21885" data-name="Group 21885" transform="translate(13.919 0.029)">
        <rect id="Rectangle_2255" data-name="Rectangle 2255" width="52.487" height="0.253" transform="translate(0 46.304) rotate(-61.908)" fill="#151f2c"/>
      </g>
      <g id="Group_21886" data-name="Group 21886" transform="translate(101.364)">
        <rect id="Rectangle_2256" data-name="Rectangle 2256" width="0.253" height="40.872" transform="matrix(0.733, -0.68, 0.68, 0.733, 0, 0.172)" fill="#151f2c"/>
      </g>
      <g id="Group_21889" data-name="Group 21889" transform="translate(0 29.262)">
        <path id="Path_13633" data-name="Path 13633" d="M2418.554,751.5a11.116,11.116,0,0,1-2.073,8.142,10.6,10.6,0,0,1-7.089,4.241L2285.17,780.952c-6.34.871-12.2-3.329-13.028-9.333a10.7,10.7,0,0,1,2.327-8.175,11.924,11.924,0,0,1,7.7-4.325l124.222-17.069A10.925,10.925,0,0,1,2418.554,751.5Z" transform="translate(-2272.045 -741.952)" fill="#e9e9e9"/>
        <path id="Path_13634" data-name="Path 13634" d="M2645.9,751.5a11.116,11.116,0,0,1-2.073,8.142,10.6,10.6,0,0,1-7.089,4.241l-22.479,3.089-3-21.834,22.479-3.089A10.925,10.925,0,0,1,2645.9,751.5Z" transform="translate(-2499.395 -741.952)" fill="#6364d9"/>
        <g id="Group_21888" data-name="Group 21888" transform="translate(120.743 4.296)">
          <g id="Group_21887" data-name="Group 21887" transform="translate(5.695)">
            <path id="Path_13635" data-name="Path 13635" d="M2661.832,766.155a5.7,5.7,0,0,1-.841.052,5.616,5.616,0,0,1-3.86-9.633h0a5.616,5.616,0,1,1,4.7,9.58Zm-4.055-8.919a4.691,4.691,0,1,0,6.634.077,4.7,4.7,0,0,0-6.634-.077Z" transform="translate(-2655.443 -754.978)" fill="#fff"/>
          </g>
          <rect id="Rectangle_2257" data-name="Rectangle 2257" width="0.925" height="7.664" transform="translate(7.299 8.884) rotate(45.662)" fill="#fff"/>
          <path id="Path_13636" data-name="Path 13636" d="M2638.409,795.546h0a.826.826,0,0,1,.013-1.168l3.229-3.154a.826.826,0,0,1,1.168.014h0a.826.826,0,0,1-.014,1.168l-3.229,3.155A.826.826,0,0,1,2638.409,795.546Z" transform="translate(-2638.173 -779.113)" fill="#fff"/>
        </g>
      </g>
    </g>
    <g id="Group_21893" data-name="Group 21893" transform="translate(1705.312 675.888)">
      <rect id="Rectangle_2258" data-name="Rectangle 2258" width="27.909" height="2.368" rx="1.184" fill="#6364d9"/>
      <g id="Group_21892" data-name="Group 21892" transform="translate(0 5.505)">
        <path id="Path_13637" data-name="Path 13637" d="M2015.7,1152.057H2002.9a.808.808,0,0,1-.808-.808h0a.808.808,0,0,1,.808-.808H2015.7a.808.808,0,0,1,.808.808h0A.808.808,0,0,1,2015.7,1152.057Z" transform="translate(-2002.09 -1147.052)" fill="#151f2c"/>
        <g id="Group_21891" data-name="Group 21891">
          <rect id="Rectangle_2259" data-name="Rectangle 2259" width="24.171" height="1.616" rx="0.808" fill="#151f2c"/>
          <rect id="Rectangle_2260" data-name="Rectangle 2260" width="22.57" height="1.616" rx="0.808" transform="translate(26.374)" fill="#151f2c"/>
          <path id="Path_13638" data-name="Path 13638" d="M2064.135,1152.057H2051.33a.808.808,0,0,1-.808-.808h0a.808.808,0,0,1,.808-.808h12.805a.808.808,0,0,1,.808.808h0A.808.808,0,0,1,2064.135,1152.057Z" transform="translate(-2034.55 -1147.052)" fill="#151f2c"/>
        </g>
      </g>
      <path id="Rectangle_2261" data-name="Rectangle 2261" d="M1.184,0H26.725a1.184,1.184,0,0,1,1.184,1.184v0a1.184,1.184,0,0,1-1.184,1.184H1.184A1.184,1.184,0,0,1,0,1.184v0A1.184,1.184,0,0,1,1.184,0Z" transform="translate(31.603)" fill="#6364d9"/>
    </g>
    <g id="Group_21896" data-name="Group 21896" transform="translate(1705.312 694.808)">
      <path id="Rectangle_2262" data-name="Rectangle 2262" d="M1.184,0H26.725a1.184,1.184,0,0,1,1.184,1.184v0a1.184,1.184,0,0,1-1.184,1.184H1.184A1.184,1.184,0,0,1,0,1.184v0A1.184,1.184,0,0,1,1.184,0Z" transform="translate(0 0)" fill="#6364d9"/>
      <g id="Group_21895" data-name="Group 21895" transform="translate(0 5.505)">
        <path id="Path_13639" data-name="Path 13639" d="M2015.7,1206.118H2002.9a.808.808,0,0,1-.808-.808h0a.808.808,0,0,1,.808-.808H2015.7a.808.808,0,0,1,.808.808h0A.808.808,0,0,1,2015.7,1206.118Z" transform="translate(-2002.09 -1201.113)" fill="#151f2c"/>
        <g id="Group_21894" data-name="Group 21894">
          <rect id="Rectangle_2263" data-name="Rectangle 2263" width="24.171" height="1.616" rx="0.808" fill="#151f2c"/>
          <path id="Rectangle_2264" data-name="Rectangle 2264" d="M.808,0H21.763a.808.808,0,0,1,.808.808v0a.808.808,0,0,1-.808.808H.808A.808.808,0,0,1,0,.808v0A.808.808,0,0,1,.808,0Z" transform="translate(26.374)" fill="#151f2c"/>
          <path id="Path_13640" data-name="Path 13640" d="M2064.135,1206.118H2051.33a.808.808,0,0,1-.808-.808h0a.808.808,0,0,1,.808-.808h12.805a.808.808,0,0,1,.808.808h0A.808.808,0,0,1,2064.135,1206.118Z" transform="translate(-2034.55 -1201.113)" fill="#151f2c"/>
        </g>
      </g>
      <path id="Path_13709" data-name="Path 13709" d="M1.184,0H26.725a1.184,1.184,0,0,1,0,2.368H1.184A1.184,1.184,0,0,1,0,1.184H0A1.184,1.184,0,0,1,1.184,0Z" transform="translate(31.603 0)" fill="#6364d9"/>
    </g>
    <g id="Group_21897" data-name="Group 21897" transform="translate(1847.446 568.363)">
      <path id="Path_13641" data-name="Path 13641" d="M2436.412,828.48l-14.822,3.449-7.329,13.337-5.6-30.394Z" transform="translate(-2408.664 -814.872)" fill="#ffa950"/>
      <rect id="Rectangle_2266" data-name="Rectangle 2266" width="2.71" height="15.676" transform="matrix(0.797, -0.604, 0.604, 0.797, 9.957, 15.766)" fill="#ffa950"/>
    </g>
    <g id="Group_21899" data-name="Group 21899" transform="translate(1825.476 605.643)">
      <rect id="Rectangle_2267" data-name="Rectangle 2267" width="41.789" height="41.789" rx="8.099" transform="translate(0 0)" fill="#e9e9e9"/>
      <g id="Group_21898" data-name="Group 21898" transform="translate(5 8.373)">
        <path id="Path_13642" data-name="Path 13642" d="M2360.263,987.595l8.12-14.639a2.671,2.671,0,0,1,4.49-.284l4.684,6.388a2.671,2.671,0,0,0,4.125.224h0a2.671,2.671,0,0,1,4.212.351l5.054,7.8a2.671,2.671,0,0,1-2.242,4.123H2362.6A2.671,2.671,0,0,1,2360.263,987.595Z" transform="translate(-2359.924 -962.919)" fill="#6364d9"/>
        <path id="Path_13643" data-name="Path 13643" d="M2409.546,948.512a3.194,3.194,0,1,1,3.194,3.194A3.194,3.194,0,0,1,2409.546,948.512Z" transform="translate(-2393.181 -945.318)" fill="#6364d9"/>
      </g>
    </g>
    <g id="Group_21901" data-name="Group 21901" transform="translate(1877.399 607.391)">
      <path id="Path_13644" data-name="Path 13644" d="M2535.924,965.861l-36.112,4.926a2.671,2.671,0,0,1-3.008-2.286l-4.926-36.112a2.671,2.671,0,0,1,2.285-3.008l36.113-4.926a2.67,2.67,0,0,1,3.007,2.285l4.926,36.113A2.671,2.671,0,0,1,2535.924,965.861Z" transform="translate(-2491.854 -924.431)" fill="#e9e9e9"/>
      <g id="Group_21900" data-name="Group 21900" transform="translate(9.235 10.259)">
        <path id="Path_13645" data-name="Path 13645" d="M2520.042,1002.47l6.067-15.6a2.671,2.671,0,0,1,4.411-.888l5.5,5.7a2.672,2.672,0,0,0,4.117-.336h0a2.671,2.671,0,0,1,4.221-.222l6.063,7.049a2.671,2.671,0,0,1-1.664,4.388l-25.868,3.529A2.671,2.671,0,0,1,2520.042,1002.47Z" transform="translate(-2519.857 -975.394)" fill="#6364d9"/>
        <path id="Path_13646" data-name="Path 13646" d="M2559.7,959.164a3.194,3.194,0,1,1,3.6,2.733A3.194,3.194,0,0,1,2559.7,959.164Z" transform="translate(-2546.542 -955.538)" fill="#6364d9"/>
      </g>
    </g>
    <g id="Group_21902" data-name="Group 21902" transform="translate(1787.051 786.996)">
      <rect id="Rectangle_2268" data-name="Rectangle 2268" width="21.06" height="18.057" transform="translate(0.85 0.773)" fill="#6364d9"/>
      <rect id="Rectangle_2269" data-name="Rectangle 2269" width="22.623" height="1.395" transform="translate(0 0)" fill="#384152"/>
      <rect id="Rectangle_2270" data-name="Rectangle 2270" width="21.06" height="5.736" transform="translate(0.85 5.658)" fill="#384152"/>
    </g>
    <path id="Path_13647" data-name="Path 13647" d="M2338.113,1486.478h-19.886a1.318,1.318,0,0,1-1.318-1.318v-2.206a1.318,1.318,0,0,1,1.463-1.31l19.886,2.206a1.319,1.319,0,0,1,1.173,1.31h0A1.318,1.318,0,0,1,2338.113,1486.478Z" transform="translate(-501.843 -680.64)" fill="#6364d9"/>
    <path id="Path_13648" data-name="Path 13648" d="M2132.16,1497.9l-587.7-.191a.7.7,0,0,1-.716-.675v-.346a.7.7,0,0,1,.716-.674l587.7.191a.7.7,0,0,1,.716.675v.346A.7.7,0,0,1,2132.16,1497.9Z" transform="translate(0 -690.275)" fill="#313030"/>
    <g id="Group_21903" data-name="Group 21903" transform="translate(1713.062 597.627)">
      <path id="Path_13649" data-name="Path 13649" d="M2105.86,947.484h-2.292a.377.377,0,1,1,0-.754h2.276a.384.384,0,0,1,.384.377A.37.37,0,0,1,2105.86,947.484Zm-4.568,0h-2.276a.377.377,0,1,1,0-.754h2.276a.377.377,0,0,1,0,.754Zm-4.552,0h-2.276a.377.377,0,0,1,0-.754h2.276a.377.377,0,1,1,0,.754Zm-4.552,0h-2.276a.377.377,0,0,1,0-.754h2.276a.377.377,0,0,1,0,.754Zm-4.552,0h-2.276a.377.377,0,0,1,0-.754h2.276a.377.377,0,1,1,0,.754Zm-4.552,0h-2.276a.377.377,0,0,1,0-.754h2.276a.377.377,0,1,1,0,.754Zm-4.552,0h-2.276a.377.377,0,0,1,0-.754h2.276a.377.377,0,1,1,0,.754Zm-4.552,0H2071.7a.377.377,0,0,1,0-.754h2.276a.377.377,0,1,1,0,.754Zm-4.552,0h-2.276a.377.377,0,1,1,0-.754h2.276a.377.377,0,0,1,0,.754Zm-4.552,0H2062.6a.377.377,0,1,1,0-.754h2.276a.377.377,0,0,1,0,.754Zm-4.552,0h-2.276a.377.377,0,1,1,0-.754h2.276a.377.377,0,0,1,0,.754Zm-4.552,0h-2.276a.377.377,0,1,1,0-.754h2.276a.377.377,0,0,1,0,.754Zm-4.552,0h-2.276a.377.377,0,0,1,0-.754h2.276a.377.377,0,0,1,0,.754Zm-4.552,0h-2.276a.377.377,0,1,1,0-.754h2.276a.377.377,0,1,1,0,.754Zm-4.552,0h-2.276a.377.377,0,0,1,0-.754h2.276a.377.377,0,1,1,0,.754Zm-4.552,0h-2.276a.377.377,0,0,1,0-.754h2.276a.377.377,0,1,1,0,.754Zm-4.552,0h-2.276a.377.377,0,0,1,0-.754h2.276a.377.377,0,0,1,0,.754Zm-4.552,0h-2.029q-.136,0-.271-.009a.377.377,0,0,1,.048-.752c.074,0,.148.007.223.007h2.029a.377.377,0,1,1,0,.754Zm79.547-.662a.377.377,0,0,1-.212-.688,3.467,3.467,0,0,0,1.271-1.574.377.377,0,1,1,.7.282,4.217,4.217,0,0,1-1.546,1.916A.375.375,0,0,1,2108,946.822Zm-83.921-.136a.374.374,0,0,1-.23-.078,4.207,4.207,0,0,1-1.428-2.005.377.377,0,1,1,.715-.239,3.459,3.459,0,0,0,1.174,1.648.377.377,0,0,1-.23.675Zm85.607-3.849a.377.377,0,0,1-.377-.377v-2.276a.377.377,0,1,1,.754,0v2.276A.377.377,0,0,1,2109.688,942.837Zm-87.105-.232a.377.377,0,0,1-.377-.377v-2.276a.377.377,0,1,1,.753,0v2.276A.377.377,0,0,1,2022.583,942.605Zm87.105-4.321a.377.377,0,0,1-.377-.377v-2.276a.377.377,0,1,1,.754,0v2.276A.377.377,0,0,1,2109.688,938.284Zm-87.105-.232a.377.377,0,0,1-.377-.377V935.4a.377.377,0,1,1,.753,0v2.276A.377.377,0,0,1,2022.583,938.052Zm87.105-4.321a.377.377,0,0,1-.377-.377v-2.276a.377.377,0,0,1,.754,0v2.276A.376.376,0,0,1,2109.688,933.732Zm-87.105-.232a.377.377,0,0,1-.377-.377v-2.276a.377.377,0,0,1,.753,0v2.276A.377.377,0,0,1,2022.583,933.5Zm87.105-4.32a.377.377,0,0,1-.377-.377v-2.276a.377.377,0,0,1,.754,0V928.8A.377.377,0,0,1,2109.688,929.18Zm-87.105-.232a.377.377,0,0,1-.377-.377V926.3a.377.377,0,0,1,.753,0v2.276A.376.376,0,0,1,2022.583,928.948Zm87.105-4.32a.377.377,0,0,1-.377-.377v-2.276a.377.377,0,1,1,.754,0v2.276A.377.377,0,0,1,2109.688,924.627Zm-87.105-.232a.377.377,0,0,1-.377-.377v-2.276a.377.377,0,0,1,.753,0v2.276A.377.377,0,0,1,2022.583,924.4Zm87.105-4.321a.377.377,0,0,1-.377-.377v-2.276a.377.377,0,1,1,.754,0V919.7A.377.377,0,0,1,2109.688,920.075Zm-87.105-.231a.377.377,0,0,1-.377-.377V917.19a.377.377,0,1,1,.753,0v2.276A.377.377,0,0,1,2022.583,919.844Zm87.105-4.321a.377.377,0,0,1-.377-.377V912.87a.377.377,0,0,1,.754,0v2.276A.377.377,0,0,1,2109.688,915.523Zm-87.105-.232a.377.377,0,0,1-.377-.377v-2.276a.377.377,0,1,1,.753,0v2.276A.377.377,0,0,1,2022.583,915.291Zm87.105-4.321a.377.377,0,0,1-.377-.377v-2.276a.377.377,0,0,1,.754,0v2.276A.377.377,0,0,1,2109.688,910.97Zm-87.105-.232a.377.377,0,0,1-.377-.377v-2.276a.377.377,0,0,1,.753,0v2.276A.377.377,0,0,1,2022.583,910.739Zm87.105-4.321a.377.377,0,0,1-.377-.377v-2.276a.377.377,0,0,1,.754,0v2.276A.377.377,0,0,1,2109.688,906.418Zm-87.105-.232a.377.377,0,0,1-.377-.377v-2.276a.377.377,0,1,1,.753,0v2.276A.377.377,0,0,1,2022.583,906.187Zm87.105-4.321a.377.377,0,0,1-.377-.377v-1.028a3.469,3.469,0,0,0-.18-1.106.377.377,0,1,1,.714-.24,4.216,4.216,0,0,1,.22,1.347v1.028A.377.377,0,0,1,2109.688,901.866Zm-87.105-.231a.377.377,0,0,1-.377-.377v-.8a4.2,4.2,0,0,1,.308-1.585.377.377,0,1,1,.7.283,3.447,3.447,0,0,0-.253,1.3v.8A.377.377,0,0,1,2022.583,901.634Zm85.6-3.847a.374.374,0,0,1-.229-.078,3.447,3.447,0,0,0-1.893-.709.377.377,0,0,1,.046-.752,4.2,4.2,0,0,1,2.306.863.377.377,0,0,1-.23.676Zm-83.907-.135a.377.377,0,0,1-.211-.689,4.2,4.2,0,0,1,2.354-.723h0a.377.377,0,0,1,0,.754,3.449,3.449,0,0,0-1.933.593A.375.375,0,0,1,2024.276,897.652Zm79.532-.658h-2.276a.377.377,0,1,1,0-.754h2.276a.377.377,0,0,1,0,.754Zm-4.552,0h-2.276a.377.377,0,1,1,0-.754h2.276a.377.377,0,0,1,0,.754Zm-4.552,0h-2.276a.377.377,0,0,1,0-.754h2.276a.377.377,0,0,1,0,.754Zm-4.552,0h-2.276a.377.377,0,0,1,0-.754h2.276a.377.377,0,0,1,0,.754Zm-4.552,0h-2.276a.377.377,0,0,1,0-.754h2.276a.377.377,0,0,1,0,.754Zm-4.552,0h-2.276a.377.377,0,0,1,0-.754h2.276a.377.377,0,1,1,0,.754Zm-4.552,0h-2.276a.377.377,0,0,1,0-.754h2.276a.377.377,0,1,1,0,.754Zm-4.552,0h-2.276a.377.377,0,0,1,0-.754h2.276a.377.377,0,1,1,0,.754Zm-4.552,0h-2.276a.377.377,0,0,1,0-.754h2.276a.377.377,0,1,1,0,.754Zm-4.552,0h-2.276a.377.377,0,1,1,0-.754h2.276a.377.377,0,0,1,0,.754Zm-4.552,0h-2.276a.377.377,0,1,1,0-.754h2.276a.377.377,0,0,1,0,.754Zm-4.552,0h-2.276a.377.377,0,1,1,0-.754h2.276a.377.377,0,0,1,0,.754Zm-4.552,0H2046.9a.377.377,0,0,1,0-.754h2.276a.377.377,0,0,1,0,.754Zm-4.552,0h-2.276a.377.377,0,0,1,0-.754h2.276a.377.377,0,1,1,0,.754Zm-4.552,0H2037.8a.377.377,0,1,1,0-.754h2.276a.377.377,0,1,1,0,.754Zm-4.552,0h-2.276a.377.377,0,0,1,0-.754h2.276a.377.377,0,0,1,0,.754Zm-4.552,0H2028.7a.377.377,0,0,1,0-.754h2.276a.377.377,0,0,1,0,.754Z" transform="translate(-2022.206 -896.241)" fill="#151f2c"/>
    </g>
    <g id="Group_21904" data-name="Group 21904" transform="translate(1896.665 703.742)">
      <path id="Path_13650" data-name="Path 13650" d="M2587.106,1216.042h-2.031a.334.334,0,0,1,0-.667h2.016a.34.34,0,0,1,.342.334A.328.328,0,0,1,2587.106,1216.042Zm-4.048,0h-2.017a.334.334,0,0,1,0-.667h2.017a.334.334,0,0,1,0,.667Zm-4.033,0h-2.016a.334.334,0,0,1,0-.667h2.016a.334.334,0,0,1,0,.667Zm-4.033,0h-2.016a.334.334,0,1,1,0-.667h2.016a.334.334,0,0,1,0,.667Zm-4.033,0h-2.016a.334.334,0,0,1,0-.667h2.016a.334.334,0,1,1,0,.667Zm-4.032,0h-2.016a.334.334,0,0,1,0-.667h2.016a.334.334,0,0,1,0,.667Zm-4.033,0h-2.016a.334.334,0,0,1,0-.667h2.016a.334.334,0,1,1,0,.667Zm-4.032,0h-2.016a.334.334,0,0,1,0-.667h2.016a.334.334,0,0,1,0,.667Zm-4.032,0h-2.017a.334.334,0,0,1,0-.667h2.017a.334.334,0,0,1,0,.667Zm-4.033,0h-1.947l-.086,0a.334.334,0,1,1,.033-.667h2a.334.334,0,0,1,0,.667Zm37.614-1.278h-.011a.334.334,0,0,1-.323-.344v-2.006a.334.334,0,0,1,.668,0v2.027A.334.334,0,0,1,2588.41,1214.764Zm-40.88-.054a.334.334,0,0,1-.334-.334v-2.016a.334.334,0,1,1,.667,0v2.016A.334.334,0,0,1,2547.53,1214.71Zm40.881-3.979a.334.334,0,0,1-.334-.334v-2.016a.334.334,0,0,1,.668,0v2.016A.334.334,0,0,1,2588.411,1210.731Zm-40.881-.054a.334.334,0,0,1-.334-.334v-2.017a.334.334,0,0,1,.667,0v2.017A.334.334,0,0,1,2547.53,1210.678Zm40.881-3.979a.334.334,0,0,1-.334-.333v-2.016a.334.334,0,0,1,.668,0v2.016A.334.334,0,0,1,2588.411,1206.7Zm-40.881-.054a.334.334,0,0,1-.334-.334v-1.966c0-.021,0-.043,0-.064a.328.328,0,0,1,.347-.32.334.334,0,0,1,.32.347v2A.334.334,0,0,1,2547.53,1206.645Zm39.623-3.285h-2.017a.334.334,0,1,1,0-.667h1.955l.076,0a.334.334,0,0,1-.014.667Zm-4.033,0H2581.1a.334.334,0,0,1,0-.667h2.016a.334.334,0,0,1,0,.667Zm-4.033,0h-2.016a.334.334,0,0,1,0-.667h2.016a.334.334,0,0,1,0,.667Zm-4.033,0h-2.016a.334.334,0,0,1,0-.667h2.016a.334.334,0,1,1,0,.667Zm-4.033,0h-2.016a.334.334,0,0,1,0-.667h2.016a.334.334,0,0,1,0,.667Zm-4.032,0h-2.016a.334.334,0,0,1,0-.667h2.016a.334.334,0,0,1,0,.667Zm-4.033,0h-2.017a.334.334,0,0,1,0-.667h2.017a.334.334,0,0,1,0,.667Zm-4.033,0h-2.016a.334.334,0,0,1,0-.667h2.016a.334.334,0,1,1,0,.667Zm-4.032,0h-2.016a.334.334,0,0,1,0-.667h2.016a.334.334,0,0,1,0,.667Zm-4.032,0h-2.009a.337.337,0,0,1-.338-.334.33.33,0,0,1,.33-.334h2.017a.334.334,0,0,1,0,.667Z" transform="translate(-2547.196 -1202.691)" fill="#151f2c"/>
    </g>
    <g id="Group_21905" data-name="Group 21905" transform="translate(1750.772 557.808)">
      <path id="Path_13651" data-name="Path 13651" d="M2165.389,815.627h-2.245a.377.377,0,1,1,0-.754h2.231a.383.383,0,0,1,.383.377A.371.371,0,0,1,2165.389,815.627Zm-4.476,0h-2.231a.377.377,0,0,1,0-.754h2.231a.377.377,0,1,1,0,.754Zm-4.463,0h-2.231a.377.377,0,1,1,0-.754h2.231a.377.377,0,1,1,0,.754Zm-4.462,0h-2.231a.377.377,0,1,1,0-.754h2.231a.377.377,0,0,1,0,.754Zm-4.462,0h-2.231a.377.377,0,0,1,0-.754h2.231a.377.377,0,1,1,0,.754Zm-4.462,0h-2.231a.377.377,0,1,1,0-.754h2.231a.377.377,0,0,1,0,.754Zm-4.463,0h-2.231a.377.377,0,0,1,0-.754h2.231a.377.377,0,1,1,0,.754Zm-4.421-.24a.373.373,0,0,1-.185-.049,2.236,2.236,0,0,1-1.132-1.941v-.273a.377.377,0,1,1,.754,0v.274a1.481,1.481,0,0,0,.75,1.285.377.377,0,0,1-.187.7Zm32.931-.961a.377.377,0,0,1-.353-.51,1.47,1.47,0,0,0,.094-.52v-1.564a.377.377,0,0,1,.754,0V813.4a2.224,2.224,0,0,1-.142.786A.377.377,0,0,1,2167.11,814.426Zm-33.871-3.158a.377.377,0,0,1-.377-.377V808.66a.377.377,0,0,1,.754,0v2.231A.377.377,0,0,1,2133.239,811.268Zm33.99-1.29a.377.377,0,0,1-.377-.377V807.37a.377.377,0,1,1,.754,0V809.6A.377.377,0,0,1,2167.228,809.978Zm-33.99-3.172a.377.377,0,0,1-.377-.377V804.2a.377.377,0,1,1,.754,0v2.231A.377.377,0,0,1,2133.239,806.806Zm33.99-1.29a.377.377,0,0,1-.377-.377v-2.231a.377.377,0,1,1,.754,0v2.231A.377.377,0,0,1,2167.228,805.516Zm-33.99-3.172a.377.377,0,0,1-.377-.377v-2.231a.377.377,0,1,1,.754,0v2.231A.377.377,0,0,1,2133.239,802.344Zm33.99-1.29a.377.377,0,0,1-.377-.377v-2.231a.377.377,0,0,1,.754,0v2.231A.377.377,0,0,1,2167.228,801.053Zm-33.99-3.172a.377.377,0,0,1-.377-.377v-2.231a.377.377,0,1,1,.754,0V797.5A.377.377,0,0,1,2133.239,797.881Zm33.99-1.29a.377.377,0,0,1-.377-.377v-2.231a.377.377,0,1,1,.754,0v2.231A.377.377,0,0,1,2167.228,796.591Zm-33.99-3.172a.377.377,0,0,1-.377-.377V790.81a.377.377,0,0,1,.754,0v2.231A.377.377,0,0,1,2133.239,793.418Zm33.99-1.29a.377.377,0,0,1-.377-.377V789.52a.377.377,0,0,1,.754,0v2.231A.377.377,0,0,1,2167.228,792.128Zm-33.99-3.172a.377.377,0,0,1-.377-.377v-1.557a2.222,2.222,0,0,1,.145-.793.377.377,0,1,1,.7.268,1.477,1.477,0,0,0-.1.525v1.557A.377.377,0,0,1,2133.239,788.956Zm33.99-1.29a.377.377,0,0,1-.377-.377v-.266a1.479,1.479,0,0,0-.755-1.288.377.377,0,0,1,.37-.657,2.236,2.236,0,0,1,1.138,1.945v.266A.377.377,0,0,1,2167.228,787.666Zm-3.137-2.12h-2.231a.377.377,0,0,1,0-.754h2.231a.377.377,0,1,1,0,.754Zm-4.462,0H2157.4a.377.377,0,1,1,0-.754h2.231a.377.377,0,0,1,0,.754Zm-4.462,0h-2.231a.377.377,0,1,1,0-.754h2.231a.377.377,0,1,1,0,.754Zm-4.463,0h-2.231a.377.377,0,1,1,0-.754h2.231a.377.377,0,1,1,0,.754Zm-4.462,0h-2.231a.377.377,0,1,1,0-.754h2.231a.377.377,0,0,1,0,.754Zm-4.463,0h-2.231a.377.377,0,0,1,0-.754h2.231a.377.377,0,1,1,0,.754Zm-4.462,0h-2.225a.38.38,0,0,1-.38-.377.374.374,0,0,1,.373-.377h2.231a.377.377,0,0,1,0,.754Z" transform="translate(-2132.862 -784.792)" fill="#151f2c"/>
    </g>
    <g id="Group_21906" data-name="Group 21906" transform="translate(1896.665 723.5)">
      <path id="Path_13652" data-name="Path 13652" d="M2587.106,1272.471h-2.031a.334.334,0,0,1,0-.667h2.016a.34.34,0,0,1,.342.334A.328.328,0,0,1,2587.106,1272.471Zm-4.048,0h-2.017a.334.334,0,0,1,0-.667h2.017a.334.334,0,0,1,0,.667Zm-4.033,0h-2.016a.334.334,0,0,1,0-.667h2.016a.334.334,0,0,1,0,.667Zm-4.033,0h-2.016a.334.334,0,1,1,0-.667h2.016a.334.334,0,0,1,0,.667Zm-4.033,0h-2.016a.334.334,0,0,1,0-.667h2.016a.334.334,0,1,1,0,.667Zm-4.032,0h-2.016a.334.334,0,0,1,0-.667h2.016a.334.334,0,0,1,0,.667Zm-4.033,0h-2.016a.334.334,0,0,1,0-.667h2.016a.334.334,0,1,1,0,.667Zm-4.032,0h-2.016a.334.334,0,0,1,0-.667h2.016a.334.334,0,0,1,0,.667Zm-4.032,0h-2.017a.334.334,0,0,1,0-.667h2.017a.334.334,0,0,1,0,.667Zm-4.033,0h-1.947l-.086,0a.334.334,0,0,1-.317-.35.329.329,0,0,1,.35-.317h2a.334.334,0,0,1,0,.667Zm37.614-1.278h-.011a.334.334,0,0,1-.323-.344v-2.006a.334.334,0,0,1,.668,0v2.027A.334.334,0,0,1,2588.41,1271.193Zm-40.88-.054a.334.334,0,0,1-.334-.334v-2.016a.334.334,0,0,1,.667,0v2.016A.334.334,0,0,1,2547.53,1271.139Zm40.881-3.979a.334.334,0,0,1-.334-.334v-2.016a.334.334,0,0,1,.668,0v2.016A.334.334,0,0,1,2588.411,1267.16Zm-40.881-.054a.334.334,0,0,1-.334-.334v-2.017a.334.334,0,0,1,.667,0v2.017A.334.334,0,0,1,2547.53,1267.107Zm40.881-3.979a.333.333,0,0,1-.334-.333v-2.016a.334.334,0,0,1,.668,0v2.016A.333.333,0,0,1,2588.411,1263.127Zm-40.881-.054a.334.334,0,0,1-.334-.334v-1.966c0-.021,0-.043,0-.064a.329.329,0,0,1,.347-.32.334.334,0,0,1,.32.347v2A.334.334,0,0,1,2547.53,1263.074Zm39.623-3.285h-2.017a.334.334,0,1,1,0-.667h1.955l.076,0a.334.334,0,0,1-.014.667Zm-4.033,0H2581.1a.334.334,0,0,1,0-.667h2.016a.334.334,0,0,1,0,.667Zm-4.033,0h-2.016a.334.334,0,0,1,0-.667h2.016a.334.334,0,0,1,0,.667Zm-4.033,0h-2.016a.334.334,0,0,1,0-.667h2.016a.334.334,0,1,1,0,.667Zm-4.033,0h-2.016a.334.334,0,0,1,0-.667h2.016a.334.334,0,0,1,0,.667Zm-4.032,0h-2.016a.334.334,0,0,1,0-.667h2.016a.334.334,0,0,1,0,.667Zm-4.033,0h-2.017a.334.334,0,0,1,0-.667h2.017a.334.334,0,0,1,0,.667Zm-4.033,0h-2.016a.334.334,0,0,1,0-.667h2.016a.334.334,0,1,1,0,.667Zm-4.032,0h-2.016a.334.334,0,0,1,0-.667h2.016a.334.334,0,0,1,0,.667Zm-4.032,0h-2.009a.337.337,0,0,1-.338-.334.33.33,0,0,1,.33-.334h2.017a.334.334,0,0,1,0,.667Z" transform="translate(-2547.196 -1259.12)" fill="#151f2c"/>
    </g>
    <g id="Group_21907" data-name="Group 21907" transform="translate(1700.415 670.183)">
      <path id="Path_13653" data-name="Path 13653" d="M2052.956,1153.125h-2.013a.334.334,0,0,1,0-.667h2a.34.34,0,0,1,.341.334A.328.328,0,0,1,2052.956,1153.125Zm-4.011,0h-2a.334.334,0,1,1,0-.667h2a.334.334,0,0,1,0,.667Zm-4,0h-2a.334.334,0,0,1,0-.667h2a.334.334,0,0,1,0,.667Zm-4,0h-2a.334.334,0,0,1,0-.667h2a.334.334,0,0,1,0,.667Zm-4,0h-2a.334.334,0,1,1,0-.667h2a.334.334,0,0,1,0,.667Zm-4,0h-2a.334.334,0,0,1,0-.667h2a.334.334,0,1,1,0,.667Zm-4,0h-2a.334.334,0,0,1,0-.667h2a.334.334,0,1,1,0,.667Zm-4,0h-2a.334.334,0,0,1,0-.667h2a.334.334,0,0,1,0,.667Zm-4,0h-2a.334.334,0,0,1,0-.667h2a.334.334,0,0,1,0,.667Zm-4,0h-2a.334.334,0,1,1,0-.667h2a.334.334,0,0,1,0,.667Zm-4,0h-2a.334.334,0,0,1,0-.667h2a.334.334,0,1,1,0,.667Zm-4,0h-2a.334.334,0,0,1,0-.667h2a.334.334,0,1,1,0,.667Zm-4,0h-2a.334.334,0,0,1,0-.667h2a.334.334,0,1,1,0,.667Zm-4,0h-2a.334.334,0,1,1,0-.667h2a.334.334,0,0,1,0,.667Zm-4,0h-2a.334.334,0,1,1,0-.667h2a.334.334,0,0,1,0,.667Zm-4,0h-1.6a3.759,3.759,0,0,1-.442-.026.334.334,0,1,1,.078-.663,3.161,3.161,0,0,0,.363.021h1.6a.334.334,0,0,1,0,.667Zm61.865-.576a.334.334,0,0,1-.187-.611,3.071,3.071,0,0,0,1.128-1.374.334.334,0,1,1,.616.256,3.739,3.739,0,0,1-1.371,1.672A.334.334,0,0,1,2054.84,1152.548Zm-65.669-.235a.333.333,0,0,1-.216-.079,3.731,3.731,0,0,1-1.172-1.818.334.334,0,1,1,.642-.184,3.064,3.064,0,0,0,.963,1.493.334.334,0,0,1-.217.588Zm67.177-3.253a.334.334,0,0,1-.334-.333v-2a.334.334,0,0,1,.668,0v2A.333.333,0,0,1,2056.348,1149.06Zm-68.375-.389a.334.334,0,0,1-.334-.334v-2a.334.334,0,0,1,.668,0v2A.334.334,0,0,1,1987.973,1148.671Zm68.375-3.608a.334.334,0,0,1-.334-.334v-2a.334.334,0,0,1,.668,0v2A.334.334,0,0,1,2056.348,1145.063Zm-68.375-.39a.334.334,0,0,1-.334-.334v-2a.334.334,0,1,1,.668,0v2A.334.334,0,0,1,1987.973,1144.673Zm68.375-3.608a.334.334,0,0,1-.334-.334v-2a.334.334,0,0,1,.668,0v2A.334.334,0,0,1,2056.348,1141.065Zm-68.375-.39a.334.334,0,0,1-.334-.334v-2a.334.334,0,0,1,.668,0v2A.334.334,0,0,1,1987.973,1140.675Zm68.375-3.608a.334.334,0,0,1-.334-.334v-2a.334.334,0,0,1,.668,0v2A.334.334,0,0,1,2056.348,1137.067Zm-68.375-.389a.334.334,0,0,1-.334-.334v-2a.334.334,0,0,1,.668,0v2A.334.334,0,0,1,1987.973,1136.677Zm68.375-3.608a.334.334,0,0,1-.334-.334v-2a.334.334,0,0,1,.668,0v2A.334.334,0,0,1,2056.348,1133.069Zm-68.375-.39a.334.334,0,0,1-.334-.334v-2a.334.334,0,0,1,.668,0v2A.334.334,0,0,1,1987.973,1132.679Zm68.375-3.609a.334.334,0,0,1-.334-.334v-2a.334.334,0,0,1,.668,0v2A.334.334,0,0,1,2056.348,1129.071Zm-68.375-.389a.334.334,0,0,1-.334-.334v-2a.334.334,0,0,1,.668,0v2A.334.334,0,0,1,1987.973,1128.681Zm68.375-3.609a.334.334,0,0,1-.334-.333v-2a.334.334,0,0,1,.668,0v2A.334.334,0,0,1,2056.348,1125.073Zm-68.375-.389a.334.334,0,0,1-.334-.334v-2a.334.334,0,0,1,.668,0v2A.334.334,0,0,1,1987.973,1124.684Zm68.375-3.609a.334.334,0,0,1-.334-.334v-2a.334.334,0,0,1,.668,0v2A.334.334,0,0,1,2056.348,1121.075Zm-68.375-.389a.334.334,0,0,1-.334-.334v-2a.334.334,0,0,1,.668,0v2A.334.334,0,0,1,1987.973,1120.686Zm68.375-3.608a.334.334,0,0,1-.334-.334v-2a.334.334,0,0,1,.668,0v2A.334.334,0,0,1,2056.348,1117.077Zm-68.375-.39a.334.334,0,0,1-.334-.334v-2a.334.334,0,1,1,.668,0v2A.334.334,0,0,1,1987.973,1116.688Zm68.375-3.609a.334.334,0,0,1-.334-.334v-2a.334.334,0,0,1,.668,0v2A.334.334,0,0,1,2056.348,1113.079Zm-68.375-.389a.334.334,0,0,1-.334-.334v-2a.334.334,0,0,1,.668,0v2A.334.334,0,0,1,1987.973,1112.69Zm68.375-3.608a.334.334,0,0,1-.334-.334v-2a.334.334,0,0,1,.668,0v2A.334.334,0,0,1,2056.348,1109.082Zm-68.375-.39a.334.334,0,0,1-.334-.334v-2a.334.334,0,0,1,.668,0v2A.334.334,0,0,1,1987.973,1108.692Zm68.243-3.6a.334.334,0,0,1-.321-.241,3.065,3.065,0,0,0-.966-1.491.334.334,0,1,1,.432-.509,3.727,3.727,0,0,1,1.176,1.815.334.334,0,0,1-.321.426Zm-67.981-.367a.326.326,0,0,1-.128-.026.334.334,0,0,1-.179-.437,3.73,3.73,0,0,1,1.375-1.669.334.334,0,1,1,.371.555,3.071,3.071,0,0,0-1.13,1.372A.334.334,0,0,1,1988.235,1104.729Zm65.1-2.071-.038,0a3.141,3.141,0,0,0-.357-.021h-1.6a.334.334,0,1,1,0-.667h1.6a3.854,3.854,0,0,1,.433.025.334.334,0,0,1-.038.666Zm-4-.023h-2a.334.334,0,0,1,0-.667h2a.334.334,0,1,1,0,.667Zm-4,0h-2a.334.334,0,0,1,0-.667h2a.334.334,0,0,1,0,.667Zm-4,0h-2a.334.334,0,1,1,0-.667h2a.334.334,0,0,1,0,.667Zm-4,0h-2a.334.334,0,1,1,0-.667h2a.334.334,0,0,1,0,.667Zm-4,0h-2a.334.334,0,0,1,0-.667h2a.334.334,0,1,1,0,.667Zm-4,0h-2a.334.334,0,0,1,0-.667h2a.334.334,0,1,1,0,.667Zm-4,0h-2a.334.334,0,0,1,0-.667h2a.334.334,0,1,1,0,.667Zm-4,0h-2a.334.334,0,1,1,0-.667h2a.334.334,0,0,1,0,.667Zm-4,0h-2a.334.334,0,1,1,0-.667h2a.334.334,0,0,1,0,.667Zm-4,0h-2a.334.334,0,0,1,0-.667h2a.334.334,0,1,1,0,.667Zm-4,0h-2a.334.334,0,0,1,0-.667h2a.334.334,0,0,1,0,.667Zm-4,0h-2a.334.334,0,1,1,0-.667h2a.334.334,0,0,1,0,.667Zm-4,0h-2a.334.334,0,0,1,0-.667h2a.334.334,0,1,1,0,.667Zm-4,0h-2a.334.334,0,1,1,0-.667h2a.334.334,0,0,1,0,.667Zm-4,0h-1.992a.337.337,0,0,1-.337-.334.331.331,0,0,1,.33-.334h2a.334.334,0,1,1,0,.667Z" transform="translate(-1987.639 -1101.968)" fill="#151f2c"/>
    </g>
    <g id="Group_21909" data-name="Group 21909" transform="translate(1701.669 605.344)">
      <rect id="Rectangle_2271" data-name="Rectangle 2271" width="87.106" height="50.489" rx="9.573" fill="#e9e9e9"/>
      <path id="Path_13654" data-name="Path 13654" d="M2092.319,961.179v20.03a1.574,1.574,0,0,0,2.439,1.315l15.222-10.015a1.574,1.574,0,0,0,0-2.629l-15.222-10.015A1.574,1.574,0,0,0,2092.319,961.179Z" transform="translate(-2058.596 -945.949)" fill="#6364d9"/>
      <g id="Group_21908" data-name="Group 21908" transform="translate(4.528 44.371)">
        <path id="Path_13655" data-name="Path 13655" d="M2003.79,1054.313a1.563,1.563,0,1,1,1.563,1.563A1.563,1.563,0,0,1,2003.79,1054.313Z" transform="translate(-2003.79 -1052.749)" fill="#aec3ff"/>
        <path id="Path_13656" data-name="Path 13656" d="M2079.658,1057.055h-70.707a.421.421,0,0,1-.421-.421h0a.421.421,0,0,1,.421-.421h70.707a.421.421,0,0,1,.421.421h0A.421.421,0,0,1,2079.658,1057.055Z" transform="translate(-2006.967 -1055.071)" fill="#aec3ff"/>
      </g>
    </g>
    <rect id="Rectangle_2272" data-name="Rectangle 2272" width="45.064" height="67.27" transform="translate(1787.697 671.407)" fill="#e9e9e9"/>
    <g id="Group_21915" data-name="Group 21915" transform="translate(1809.058 677.726)">
      <g id="Group_21911" data-name="Group 21911" transform="translate(0 5.568)">
        <g id="Group_21910" data-name="Group 21910" transform="translate(7.32 2.292)">
          <path id="Path_13657" data-name="Path 13657" d="M2317.26,1143.826h-.616v-2.772a1.8,1.8,0,0,1,1.8-1.8h7.625a1.188,1.188,0,0,0,1.147-.885l1.206-4.584a1.187,1.187,0,0,0-1.147-1.489h-9.948v-.616h9.948a1.8,1.8,0,0,1,1.743,2.262l-1.206,4.584a1.8,1.8,0,0,1-1.744,1.344h-7.625a1.188,1.188,0,0,0-1.186,1.187Z" transform="translate(-2316.644 -1131.677)" fill="#384152"/>
        </g>
        <path id="Rectangle_2273" data-name="Rectangle 2273" d="M2.6,0h11.9a2.6,2.6,0,0,1,2.6,2.6v0a2.6,2.6,0,0,1-2.6,2.6H2.6A2.6,2.6,0,0,1,0,2.6v0A2.6,2.6,0,0,1,2.6,0Z" fill="#ffa950"/>
        <path id="Path_13658" data-name="Path 13658" d="M2314.133,1175.638h0a1.7,1.7,0,0,1-1.7-1.695v-10.274a1.7,1.7,0,0,1,1.7-1.7h0a1.7,1.7,0,0,1,1.7,1.7v10.274A1.7,1.7,0,0,1,2314.133,1175.638Z" transform="translate(-2306.505 -1149.69)" fill="#384152"/>
      </g>
      <g id="Group_21912" data-name="Group 21912" transform="translate(45.056 19.726)">
        <path id="Path_13659" data-name="Path 13659" d="M2508.054,1270.664a23.354,23.354,0,0,1,1.066,4.413,15.985,15.985,0,0,1-1.355,4.347c-.523.719-.781-2.926-1.195-3.474s-.085,1.373-.377,1.55-.9-1.413-1.162-1.974.639-2.631.642-4.073S2508.054,1270.664,2508.054,1270.664Z" transform="translate(-2480.609 -1236.596)" fill="#ee805f"/>
        <path id="Path_13660" data-name="Path 13660" d="M2431.087,1173.2a5.1,5.1,0,0,1,7.684-4.8c.073.044.145.089.215.135,5.289,3.4,16.7,19.29,17.486,20.881s3.1,14.251,3.1,14.251-2.864,1.048-4.2-.039c0,0-4.646-12.006-5.333-12.606s-18.583-10.641-18.736-14.406C2431.263,1175.614,2431.183,1174.417,2431.087,1173.2Z" transform="translate(-2431.071 -1167.66)" fill="#151f2c"/>
      </g>
      <g id="Group_21913" data-name="Group 21913" transform="translate(38.311 56.564)">
        <path id="Path_13661" data-name="Path 13661" d="M2512.258,1464.514s2.133,1.946,1.717,3.329-2.341,2.3-2.6,3.995-1.3,2.612-2.237,2.612h-4.463s-.689-1.189.975-1.548,2.292-2.345,2.188-4.189a32.479,32.479,0,0,1,.156-4.3l3.537-.82Z" transform="translate(-2473.562 -1402.836)" fill="#2a4a7c"/>
        <path id="Path_13662" data-name="Path 13662" d="M2423.153,1478.167s.383,4.429-.553,4.89l-11.982-.024s0-1.383,1.925-1.69,5.305-1.434,5.877-3.943S2423.153,1478.167,2423.153,1478.167Z" transform="translate(-2410.618 -1411.456)" fill="#2a4a7c"/>
        <path id="Path_13663" data-name="Path 13663" d="M2417.954,1289.754s.632,7.764,1.375,17.1c1.01,12.677,2.223,28.248,2.344,31.2.208,5.122,1.041,13.316,1.041,13.316s1.976,1.947,5.929,1.126a132.216,132.216,0,0,0,4.53-24.072c.016-.2.031-.407.047-.611.936-12.6,2.392-39.128,2.392-39.128Z" transform="translate(-2415.535 -1285.606)" fill="#6364d9"/>
        <path id="Path_13664" data-name="Path 13664" d="M2417.954,1289.754s.632,7.764,1.375,17.1l13.844,21.568c.016-.2.031-.407.047-.611.936-12.6,2.392-39.128,2.392-39.128Z" transform="translate(-2415.535 -1285.606)" fill="#4c4de2"/>
        <path id="Path_13665" data-name="Path 13665" d="M2426.705,1284.432s11.391,28.116,18.88,41.33,9.83,16.9,9.83,16.9,4.291-1.69,4.681-2.842c0,0-2.864-25.509-7.88-31.727-2.834-3.514-6.163-14.058-6.32-17.745s-1.014-10.985-1.014-10.985Z" transform="translate(-2421.4 -1279.362)" fill="#6364d9"/>
      </g>
      <path id="Path_13666" data-name="Path 13666" d="M2431.894,1148.026s-7.632,3.871-12.1,2.579a10.488,10.488,0,0,1,2.959-2.465c-.171-.889-.306-1.66-.387-2.315a21.458,21.458,0,0,1-.235-2.369l2.927-2.4,2.775-2.294A11.363,11.363,0,0,0,2431.894,1148.026Z" transform="translate(-2378.456 -1128.568)" fill="#ee805f"/>
      <path id="Path_13667" data-name="Path 13667" d="M2431.652,1201.32a31.434,31.434,0,0,1-9.412,4.055c-4.027.955-8.976.673-10.632.925a.686.686,0,0,1-.483-.122c-.13-.067-.86-4.978-1.593-11.178-.032-.249-.066-.5-.08-.754l-.011-.083c-.285-2.424-.534-4.969-.75-7.521-.177-1.986-.322-3.949-.422-5.794-.127-2.308-.18-4.428-.127-6.172.023-.8.07-1.513.141-2.136a15.191,15.191,0,0,1,3.79-8.135l1.35-1.536a7.4,7.4,0,0,0,4.669-1.192c1.648-1.085,3.427-2.252,3.762-2.056,2.526,1.382,4.582,4.963,6.051,9.692a53.963,53.963,0,0,1,1.9,9.083c.133,1.016.246,2.057.333,3.093.017.192.031.384.046.573.2,2.835.522,5.492.881,7.865.483,3.2,1.032,5.881,1.421,7.769.195.961.344,1.7.431,2.236C2433,1200.4,2432.067,1201.062,2431.652,1201.32Z" transform="translate(-2370.634 -1142.531)" fill="#384152"/>
      <path id="Path_13668" data-name="Path 13668" d="M2432.678,1145.832a10.215,10.215,0,0,1-5.565,4.655,21.455,21.455,0,0,1-.235-2.368l2.927-2.4Z" transform="translate(-2383.205 -1133.229)" fill="#de6b4d"/>
      <path id="Path_13669" data-name="Path 13669" d="M2419.623,1128.3s7.374,1.057,7.975-3.476,1.957-7.449-2.727-8.315-5.829.746-6.4,2.211S2417.72,1127.911,2419.623,1128.3Z" transform="translate(-2377.307 -1113.49)" fill="#ee805f"/>
      <path id="Path_13670" data-name="Path 13670" d="M2425.035,1110.22c.065-.078.218-.142.56-.168a1.4,1.4,0,0,0-.643-.168,1.724,1.724,0,0,0-1.175-1.5,1.028,1.028,0,0,1,.513.731c-.969-.956-3.017-1.625-8.642-1.069-7.413.733-4.872,5.438-3.9,5.986s3.361-1.054,5.155-.947,2.186,2.688,2.8,3.031.364-.28,1.178-.668.92.973.7,1.863.933,2.036.933,2.036l1.117-1.251c1.117-1.252,2.089-6.48,1.549-7.579Z" transform="translate(-2372.249 -1107.843)" fill="#151f2c"/>
      <path id="Path_13671" data-name="Path 13671" d="M2421.078,1205.719s-6.218,4.731-12.809,5.768c-.127-2.308-.18-4.428-.127-6.172Z" transform="translate(-2370.634 -1173.171)" fill="#151f2c"/>
      <g id="Group_21914" data-name="Group 21914" transform="translate(5.45 21.295)">
        <path id="Path_13672" data-name="Path 13672" d="M2317.781,1179.8c-.1-.105-1.366-4.344-3.558-4.035-1.431.2-3.769,1.03-3.148,2.915.244.741,4.6,3.294,4.6,3.294Z" transform="translate(-2310.972 -1174.647)" fill="#ee805f"/>
        <path id="Path_13673" data-name="Path 13673" d="M2365.737,1174.529a5.1,5.1,0,0,1-.534,9.044c-.078.034-.156.066-.234.1-5.838,2.342-25.4,2.451-27.149,2.17s-13.417-5.72-13.417-5.72.8-2.943,2.466-3.405c0,0,12.479,3.162,13.367,2.95s19.435-8.991,22.593-6.936C2363.663,1173.272,2364.685,1173.9,2365.737,1174.529Z" transform="translate(-2319.973 -1172.417)" fill="#384152"/>
      </g>
    </g>
    <g id="Group_21916" data-name="Group 21916" transform="translate(1983.636 545.085)">
      <path id="Path_13674" data-name="Path 13674" d="M2814.671,752.025H2799.1a1.193,1.193,0,0,1-1.189-1.19h0a1.193,1.193,0,0,1,1.189-1.19h15.57a1.193,1.193,0,0,1,1.19,1.19h0A1.194,1.194,0,0,1,2814.671,752.025Z" transform="translate(-2797.912 -749.646)" fill="#ebf3fa"/>
      <path id="Path_13675" data-name="Path 13675" d="M2814.671,766.122H2799.1a1.193,1.193,0,0,1-1.189-1.19h0a1.193,1.193,0,0,1,1.189-1.19h15.57a1.194,1.194,0,0,1,1.19,1.19h0A1.193,1.193,0,0,1,2814.671,766.122Z" transform="translate(-2797.912 -759.093)" fill="#ebf3fa"/>
      <path id="Path_13676" data-name="Path 13676" d="M2814.671,780.583H2799.1a1.193,1.193,0,0,1-1.189-1.19h0a1.193,1.193,0,0,1,1.189-1.19h15.57a1.194,1.194,0,0,1,1.19,1.19h0A1.194,1.194,0,0,1,2814.671,780.583Z" transform="translate(-2797.912 -768.785)" fill="#ebf3fa"/>
    </g>
    <path id="Path_13677" data-name="Path 13677" d="M2585.312,1119.424h-37.067a1.583,1.583,0,0,1-1.578-1.578h0a1.583,1.583,0,0,1,1.578-1.578h37.067a1.582,1.582,0,0,1,1.578,1.578h0A1.582,1.582,0,0,1,2585.312,1119.424Z" transform="translate(-650.244 -443.191)" fill="#ebf3fa"/>
    <path id="Path_13678" data-name="Path 13678" d="M2035.889,791.035h-37.067a1.582,1.582,0,0,1-1.578-1.578h0a1.582,1.582,0,0,1,1.578-1.578h37.067a1.582,1.582,0,0,1,1.578,1.578h0A1.582,1.582,0,0,1,2035.889,791.035Z" transform="translate(-294.027 -229.588)" fill="#ebf3fa"/>
    <path id="Path_13679" data-name="Path 13679" d="M2585.312,1166.888h-37.067a1.582,1.582,0,0,1-1.578-1.578h0a1.583,1.583,0,0,1,1.578-1.578h37.067a1.582,1.582,0,0,1,1.578,1.578h0A1.582,1.582,0,0,1,2585.312,1166.888Z" transform="translate(-650.244 -474.065)" fill="#ebf3fa"/>
    <path id="Path_13680" data-name="Path 13680" d="M2570.545,1143.156h-44.333a1.583,1.583,0,0,1-1.578-1.578h0a1.582,1.582,0,0,1,1.578-1.577h44.333a1.582,1.582,0,0,1,1.578,1.577h0A1.582,1.582,0,0,1,2570.545,1143.156Z" transform="translate(-635.653 -458.628)" fill="#ebf3fa"/>
    <g id="Group_21917" data-name="Group 21917" transform="translate(1701.537 568.807)">
      <rect id="Rectangle_2274" data-name="Rectangle 2274" width="23.317" height="3.156" rx="1.578" transform="translate(6.926)" fill="#ebf3fa"/>
      <path id="Path_13681" data-name="Path 13681" d="M1993,819.542a1.578,1.578,0,1,1,1.578,1.578A1.578,1.578,0,0,1,1993,819.542Z" transform="translate(-1992.998 -817.964)" fill="#ebf3fa"/>
    </g>
    <g id="Group_21918" data-name="Group 21918" transform="translate(1701.613 575.463)">
      <rect id="Rectangle_2275" data-name="Rectangle 2275" width="27.388" height="3.156" rx="1.578" transform="translate(6.926)" fill="#ebf3fa"/>
      <path id="Path_13682" data-name="Path 13682" d="M1993,838.583a1.578,1.578,0,1,1,1.578,1.578A1.578,1.578,0,0,1,1993,838.583Z" transform="translate(-1992.998 -837.005)" fill="#ebf3fa"/>
    </g>
    <g id="Group_21919" data-name="Group 21919" transform="translate(1701.537 582.687)">
      <rect id="Rectangle_2276" data-name="Rectangle 2276" width="23.317" height="3.156" rx="1.578" transform="translate(6.926 0)" fill="#ebf3fa"/>
      <path id="Path_13683" data-name="Path 13683" d="M1993,859.251a1.578,1.578,0,1,1,1.578,1.578A1.578,1.578,0,0,1,1993,859.251Z" transform="translate(-1992.998 -857.673)" fill="#ebf3fa"/>
    </g>
    <g id="Group_21921" data-name="Group 21921" transform="translate(1759.901 564.447)">
      <g id="Group_21920" data-name="Group 21920" transform="translate(5.645 0)">
        <path id="Path_13684" data-name="Path 13684" d="M2183.558,815.734a5.646,5.646,0,0,1-.834.052,5.567,5.567,0,0,1-3.826-9.548h0a5.567,5.567,0,1,1,4.66,9.5Zm-4.019-8.84a4.65,4.65,0,1,0,6.575.076,4.655,4.655,0,0,0-6.575-.076Z" transform="translate(-2177.225 -804.655)" fill="#151f2c"/>
      </g>
      <rect id="Rectangle_2277" data-name="Rectangle 2277" width="0.917" height="7.597" transform="translate(7.235 8.806) rotate(45.662)" fill="#151f2c"/>
      <path id="Path_13685" data-name="Path 13685" d="M2160.341,844.865h0a.819.819,0,0,1,.013-1.158l3.2-3.127a.819.819,0,0,1,1.158.014h0a.818.818,0,0,1-.014,1.157l-3.2,3.127A.819.819,0,0,1,2160.341,844.865Z" transform="translate(-2160.108 -828.577)" fill="#151f2c"/>
    </g>
    <g id="Group_21922" data-name="Group 21922" transform="translate(2008.15 673.276)">
      <path id="Path_13686" data-name="Path 13686" d="M2892.941,1227.486h0a1.829,1.829,0,0,1-1.664-1.146l-42.77-130.224a.858.858,0,0,1,.907-1.161h0a1.828,1.828,0,0,1,1.664,1.146l42.77,130.224A.858.858,0,0,1,2892.941,1227.486Z" transform="translate(-2848.452 -1094.755)" fill="#151f2c"/>
      <path id="Path_13687" data-name="Path 13687" d="M2997.463,1226.881h0a1.828,1.828,0,0,1-1.664-1.146l-42.77-130.224a.858.858,0,0,1,.906-1.161h0a1.828,1.828,0,0,1,1.665,1.146l42.77,130.224A.858.858,0,0,1,2997.463,1226.881Z" transform="translate(-2918.505 -1094.35)" fill="#151f2c"/>
      <path id="Path_13688" data-name="Path 13688" d="M2901.693,1148.467l-34.614.2a1.732,1.732,0,0,1-1.571-1.082h0a.811.811,0,0,1,.855-1.1l34.614-.2a1.732,1.732,0,0,1,1.571,1.082h0A.811.811,0,0,1,2901.693,1148.467Z" transform="translate(-2859.849 -1129.16)" fill="#151f2c"/>
      <path id="Path_13689" data-name="Path 13689" d="M2924.337,1217.411l-34.614.2a1.731,1.731,0,0,1-1.571-1.082h0a.812.812,0,0,1,.855-1.1l34.614-.2a1.732,1.732,0,0,1,1.571,1.082h0A.812.812,0,0,1,2924.337,1217.411Z" transform="translate(-2875.025 -1175.368)" fill="#151f2c"/>
      <path id="Path_13690" data-name="Path 13690" d="M2946.145,1283.813l-34.614.2a1.732,1.732,0,0,1-1.571-1.082h0a.811.811,0,0,1,.855-1.1l34.614-.2a1.73,1.73,0,0,1,1.571,1.082h0A.811.811,0,0,1,2946.145,1283.813Z" transform="translate(-2889.641 -1219.872)" fill="#151f2c"/>
      <path id="Path_13691" data-name="Path 13691" d="M2970.7,1358.567l-34.614.2a1.731,1.731,0,0,1-1.571-1.082h0a.811.811,0,0,1,.855-1.1l34.614-.2a1.731,1.731,0,0,1,1.571,1.082h0A.811.811,0,0,1,2970.7,1358.567Z" transform="translate(-2906.097 -1269.973)" fill="#151f2c"/>
      <path id="Path_13692" data-name="Path 13692" d="M2996.394,1436.809l-34.614.2a1.731,1.731,0,0,1-1.571-1.082h0a.811.811,0,0,1,.856-1.1l34.614-.2a1.732,1.732,0,0,1,1.571,1.082h0A.811.811,0,0,1,2996.394,1436.809Z" transform="translate(-2923.319 -1322.412)" fill="#151f2c"/>
    </g>
    <g id="Group_21923" data-name="Group 21923" transform="translate(1994.965 563.382)">
      <path id="Path_13693" data-name="Path 13693" d="M2841.75,909.781h0a.5.5,0,0,1-.589-.4l-.554-2.861a.5.5,0,0,1,.4-.589h0a.5.5,0,0,1,.589.4l.554,2.862A.5.5,0,0,1,2841.75,909.781Z" transform="translate(-2835.677 -868.573)" fill="#151f2c"/>
      <rect id="Rectangle_2278" data-name="Rectangle 2278" width="0.345" height="4.212" transform="translate(4.224 32.567) rotate(-10.953)" fill="#151f2c"/>
      <path id="Path_13694" data-name="Path 13694" d="M2830.24,809.276a13.293,13.293,0,0,0-1.017-3.937,5.361,5.361,0,0,0-3.465-1.628c-.511.495,1.509,2.245,1.588,2.889s-1.025.2-.495,1.456a9.813,9.813,0,0,0,1.924,2.438Z" transform="translate(-2825.675 -800.052)" fill="#ee805f"/>
      <path id="Path_13695" data-name="Path 13695" d="M2833.621,818.181c.952-.747,1.154-.732,1.154-.732s8.8,7.625,9.659,8.3,14.076,4.512,14.076,4.512l2.1,10.746s-17.887-8.64-20.024-10.4c-3.532-2.913-7.989-11.067-7.989-11.067A3.37,3.37,0,0,1,2833.621,818.181Z" transform="translate(-2830.314 -809.275)" fill="#6364d9"/>
      <path id="Path_13696" data-name="Path 13696" d="M2890.352,1129.7s-.152,3.673-.857,4.566l-9.811.057a1.534,1.534,0,0,1,1.466-1.491,6.582,6.582,0,0,0,4.765-3.76C2887.008,1126.683,2890.352,1129.7,2890.352,1129.7Z" transform="translate(-2861.873 -1017.512)" fill="#151f2c"/>
      <path id="Path_13697" data-name="Path 13697" d="M2946.95,1128.2s.684,4.88-.245,4.964c-.123.012-3.953.073-5.612.1-1.951.033-5.156-.036-5.156-.036a.51.51,0,0,1-.462-.767,2.056,2.056,0,0,1,1.474-.945c1.708-.329,4.556-1.584,5.554-3.867C2943.554,1125.249,2946.95,1128.2,2946.95,1128.2Z" transform="translate(-2899.218 -1016.547)" fill="#151f2c"/>
      <path id="Path_13698" data-name="Path 13698" d="M2896.563,960.61s2.728,9.546,10.546,26.123,8.157,24.566,8.157,24.566a6.869,6.869,0,0,0,2.754.251,7.4,7.4,0,0,0,2.9-.939s-.507-19.731-4.2-28.1-4.446-31.257-4.446-31.257Z" transform="translate(-2873.186 -898.956)" fill="#151f2c"/>
      <path id="Path_13699" data-name="Path 13699" d="M2883.273,954.712a238.067,238.067,0,0,0,2.34,32.93c2.558,18.149,1.362,26.589,1.362,26.589a5.1,5.1,0,0,0,2.763.485,6.2,6.2,0,0,0,3.691-1.018s3.66-18.156,2.611-27.24,5.013-31.171,5.013-31.171Z" transform="translate(-2864.275 -901.271)" fill="#384152"/>
      <path id="Path_13700" data-name="Path 13700" d="M2905.575,834.973l-2.889,2.14-4.175-.879c.058-.381.333-1.959.584-3.388.016-.084.031-.169.045-.251.215-1.216.4-2.261.4-2.261l3.9-1.943,1.454-.725c0,.026-.113,1.35-.128,1.543A12.485,12.485,0,0,0,2905.575,834.973Z" transform="translate(-2874.491 -816.122)" fill="#ee805f"/>
      <path id="Path_13701" data-name="Path 13701" d="M2902.547,883.719c-.944,4.32-21.161,2.424-20.9-.213.01-.088.063-1.309.135-2.954.153-3.559.387-9.12.417-9.554,0-.008,0-.015,0-.023.364-3.672.713-7.264.736-9.61a33.3,33.3,0,0,1,.673-6c.344-1.743.766-3.326,1.133-4.559a5.04,5.04,0,0,1,2.954-3.238,4.438,4.438,0,0,1,.49-.171c2.379-.691,5.671-1.545,6.563-1.283,2.416.711,4.212,4.966,5.483,10.388C2902.615,866.649,2903.166,880.9,2902.547,883.719Z" transform="translate(-2863.189 -828.453)" fill="#6364d9"/>
      <path id="Path_13702" data-name="Path 13702" d="M2905.66,830.741c-.856,1.639-4.047,3.056-5.378,3.576.016-.084.031-.169.045-.251.215-1.216.4-2.261.4-2.261l3.9-1.943C2905.489,829.849,2906.014,830.066,2905.66,830.741Z" transform="translate(-2875.678 -817.594)" fill="#de6b4d"/>
      <path id="Path_13703" data-name="Path 13703" d="M2894.1,811.532s7.036,2.195,8.335-2.208,3.083-7.084-1.354-8.671-5.81-.166-6.6,1.2S2892.3,810.847,2894.1,811.532Z" transform="translate(-2870.945 -797.549)" fill="#ee805f"/>
      <path id="Path_13704" data-name="Path 13704" d="M2896.531,796.541s.448,5.123,1.508,4.9,2.021-.387,1.865,1.157-1.624,3.328,1.641,3.6,7.958-8.147,7.062-9.741C2906.019,791.858,2892.79,790.929,2896.531,796.541Z" transform="translate(-2872.72 -792.663)" fill="#151f2c"/>
      <path id="Path_13705" data-name="Path 13705" d="M2882.066,916.667c.153-3.559.387-9.12.417-9.554,0-.008,0-.015,0-.023l11.943-7.141S2894.891,916.62,2882.066,916.667Z" transform="translate(-2863.469 -864.568)" fill="#6364d9"/>
      <path id="Path_13706" data-name="Path 13706" d="M2841.2,901.254a31.563,31.563,0,0,0-2.888-1.785,6.057,6.057,0,0,0-2.04-.179c-.07.119-.277.483-.013.606s.592.08.494.166-1.091-.386-1.32.12-.43,2.24.734,2.765,4.038.051,4.245.111C2842.171,903.569,2841.2,901.254,2841.2,901.254Z" transform="translate(-2832.098 -864.098)" fill="#ee805f"/>
      <path id="Path_13707" data-name="Path 13707" d="M2851.657,873.919s11.847,2.014,12.9,1.5c1.676-.816-.65-12.835-.65-12.835a3.457,3.457,0,0,1,3.082-3.366c2.765-.558,5.433,1.513,5.433,1.513s2.426,2.171,2.116,4.579c-.687,5.337-1.756,16.194-5.326,17.858-4.6,2.146-17.929-5.952-17.929-5.952a2.329,2.329,0,0,1-.381-1.552A3.619,3.619,0,0,1,2851.657,873.919Z" transform="translate(-2842.576 -837.207)" fill="#7f80ea"/>
      <path id="Path_13708" data-name="Path 13708" d="M2827.229,812.458s-.759-1.507-.88-1.79.174-.222.466-.064.69,1.033,1.14.927C2828.312,811.448,2827.229,812.458,2827.229,812.458Z" transform="translate(-2826.108 -804.598)" fill="#ee805f"/>
    </g>
  </g>
</svg>
