<svg id="Product_Usage_" data-name="Product Usage " xmlns="http://www.w3.org/2000/svg" width="38.55" height="38.55" viewBox="0 0 38.55 38.55">
  <path id="Path_8873" data-name="Path 8873" d="M10.164,362H1.129A1.129,1.129,0,0,0,0,363.129v9.035a1.129,1.129,0,0,0,1.129,1.129h9.035a1.129,1.129,0,0,0,1.129-1.129v-9.035A1.129,1.129,0,0,0,10.164,362Z" transform="translate(0 -334.744)" fill="#fff"/>
  <path id="Path_8874" data-name="Path 8874" d="M62.259,228.433v-3.087H73.628v3.087h2.259v-3.087H87.256v3.087h2.259v-4.216a1.129,1.129,0,0,0-1.129-1.129h-12.5V220H73.628v3.087h-12.5A1.129,1.129,0,0,0,60,224.216v4.216Z" transform="translate(-55.482 -203.436)" fill="#fff"/>
  <path id="Path_8875" data-name="Path 8875" d="M162.129,14.306h12.047a1.129,1.129,0,0,0,1.129-1.129V1.129A1.129,1.129,0,0,0,174.176,0H162.129A1.129,1.129,0,0,0,161,1.129V13.176A1.129,1.129,0,0,0,162.129,14.306Z" transform="translate(-148.878)" fill="#fff"/>
  <path id="Path_8876" data-name="Path 8876" d="M191.164,362h-9.035A1.129,1.129,0,0,0,181,363.129v9.035a1.129,1.129,0,0,0,1.129,1.129h9.035a1.129,1.129,0,0,0,1.129-1.129v-9.035A1.129,1.129,0,0,0,191.164,362Z" transform="translate(-167.372 -334.744)" fill="#fff"/>
  <path id="Path_8877" data-name="Path 8877" d="M372.164,362h-9.035A1.129,1.129,0,0,0,362,363.129v9.035a1.129,1.129,0,0,0,1.129,1.129h9.035a1.129,1.129,0,0,0,1.129-1.129v-9.035A1.129,1.129,0,0,0,372.164,362Z" transform="translate(-334.744 -334.744)" fill="#fff"/>
</svg>
