<svg xmlns="http://www.w3.org/2000/svg" width="33.765" height="36.018" viewBox="0 0 33.765 36.018">
  <g id="Publishing_to_" data-name="Publishing to " transform="translate(-16.014 0)">
    <g id="Group_21418" data-name="Group 21418" transform="translate(18.285 0)">
      <g id="Group_21417" data-name="Group 21417" transform="translate(0 0)">
        <path id="Path_8913" data-name="Path 8913" d="M52.766.576A4.573,4.573,0,0,0,48.3.588l16.41,15.138,5.513-5.513Z" transform="translate(-48.302 0)" fill="#fff"/>
      </g>
    </g>
    <g id="Group_21420" data-name="Group 21420" transform="translate(16.014 2.136)">
      <g id="Group_21419" data-name="Group 21419" transform="translate(0)">
        <path id="Path_8914" data-name="Path 8914" d="M16.644,30.365a4.2,4.2,0,0,0-.63,2.2V59.9A4.211,4.211,0,0,0,16.6,62.05l16.5-16.5Z" transform="translate(-16.014 -30.365)" fill="#fff"/>
      </g>
    </g>
    <g id="Group_21422" data-name="Group 21422" transform="translate(36.349 11.345)">
      <g id="Group_21421" data-name="Group 21421">
        <path id="Path_8915" data-name="Path 8915" d="M316.269,164.179l-5.258-2.9-5.909,5.907,7.241,6.679,3.928-2.168a4.254,4.254,0,0,0,0-7.516Z" transform="translate(-305.102 -161.277)" fill="#fff"/>
      </g>
    </g>
    <g id="Group_21424" data-name="Group 21424" transform="translate(18.211 18.845)">
      <g id="Group_21423" data-name="Group 21423" transform="translate(0)">
        <path id="Path_8916" data-name="Path 8916" d="M63.793,267.9,47.246,284.448a4.563,4.563,0,0,0,4.538.043L70.55,274.134Z" transform="translate(-47.246 -267.901)" fill="#fff"/>
      </g>
    </g>
  </g>
</svg>
