<svg id="Search_Engine_Optimization" data-name="Search Engine Optimization" xmlns="http://www.w3.org/2000/svg" width="40" height="39.995" viewBox="0 0 40 39.995">
  <path id="Path_8895" data-name="Path 8895" d="M8.989,25.163l2.075,2.075,3.543-3.578A14.373,14.373,0,0,1,12.061,9.7l4.715,4.715A8.852,8.852,0,0,0,32.819,19.61l-5.353-5.353-3.712,3.712L9.948,4.163v3.13H7.527V.03H14.79V2.451H11.66L23.754,14.545l3.712-3.713,6.527,6.527A8.856,8.856,0,0,0,20.135,7.5L16.22,3.585a14.369,14.369,0,1,1,.091,21.8l-3.535,3.57,2.083,2.083L5.87,40.022,0,34.152Z" transform="translate(0 -0.03)" fill="#fff"/>
  <path id="Path_8896" data-name="Path 8896" d="M255.12,405.609h19.369v2.421H255.12Z" transform="translate(-234.531 -372.877)" fill="#fff"/>
  <path id="Path_8897" data-name="Path 8897" d="M165.119,465.609h14.527v2.421H165.119Z" transform="translate(-151.793 -428.035)" fill="#fff"/>
</svg>
