<svg xmlns="http://www.w3.org/2000/svg" width="653.5" height="633.443" viewBox="0 0 653.5 633.443">
  <g id="Group_24049" data-name="Group 24049" transform="translate(-24.719 -32.627)">
    <g id="Group_23866" data-name="Group 23866" transform="translate(182.59 393.222)">
      <g id="Group_23864" data-name="Group 23864" transform="translate(20.301)">
        <rect id="Rectangle_2760" data-name="Rectangle 2760" width="24.064" height="26.944" transform="translate(54.972 60.192)" fill="#003154"/>
        <path id="Path_29799" data-name="Path 29799" d="M267.965,358.879h-106.4a5.46,5.46,0,0,1-5.425-4.839L148.773,289.7a5.46,5.46,0,0,1,5.425-6.081H260.529a5.17,5.17,0,0,1,5.136,4.582L273.1,353.12A5.17,5.17,0,0,1,267.965,358.879Z" transform="translate(-148.737 -283.62)" fill="#003154"/>
        <path id="Path_29800" data-name="Path 29800" d="M266.293,351.81H159.553l-7.183-64.417H259.11Z" transform="translate(-147.15 -281.972)" fill="#6364d9"/>
        <rect id="Rectangle_2761" data-name="Rectangle 2761" width="55.671" height="3.92" transform="translate(39.168 87.136)" fill="#1b468a"/>
      </g>
      <g id="Group_23865" data-name="Group 23865" transform="translate(0 91.056)">
        <rect id="Rectangle_2762" data-name="Rectangle 2762" width="6.824" height="158.341" transform="translate(7.39 7.902)" fill="#1b468a"/>
        <rect id="Rectangle_2763" data-name="Rectangle 2763" width="6.824" height="158.341" transform="translate(191.284 7.902)" fill="#1b468a"/>
        <rect id="Rectangle_2764" data-name="Rectangle 2764" width="205.085" height="9.578" fill="#003154"/>
      </g>
    </g>
    <g id="Group_23910" data-name="Group 23910" transform="translate(438.951 240.791)">
      <path id="Path_29801" data-name="Path 29801" d="M511.514,469.542c0,5.34-42.54,9.669-95.016,9.669s-95.014-4.329-95.014-9.669,42.54-9.669,95.014-9.669S511.514,464.2,511.514,469.542Z" transform="translate(-309.362 -54.224)" fill="#b9baff"/>
      <g id="Group_23909" data-name="Group 23909">
        <g id="Group_23873" data-name="Group 23873" transform="translate(0 76.797)">
          <path id="Path_29802" data-name="Path 29802" d="M337.918,269.02c-.481-4.563-1.471-4.017-3.97-7.866-1.4-2.151-.863-9.154-.863-11.669-5.926-.478-5.887,8.053-5.926,9.877-2.973-.862-6.07-4.107-8.979-3.053-1.8.652-1.616,4.849-1.616,4.849-2.757,1.975-1.437,6.106-1.437,6.106a6.145,6.145,0,0,0-1.98,2.988,7.419,7.419,0,0,0,.543,4.041s-1.975,3.027,1.975,5.721c1.329.906,7.008,2.345,8.61,2.506a41.937,41.937,0,0,1,15.609,4.763,93.279,93.279,0,0,1,5.477-9.022,11.984,11.984,0,0,1-7.214-9.284" transform="translate(-313.046 -222.9)" fill="#ff9690"/>
          <path id="Path_29803" data-name="Path 29803" d="M376.566,289.953c-2.5.669-21.919-4.658-31.9-8.33-1-.369-4.307.323-5.136,0-1.69-.658-2.98-.726-3.664-1.089-4.362-2.325-12.525,11.568-8.261,14.824.685.524,2.273.5,3.592,1.391.907.616,1.042,3.962,2.2,4.712,13.328,8.626,41.883,24.882,54.558,21.648,9.2-2.348,19.94-41.09,24.423-53.875,2.827-8.06,3.835-39.394-6.465-38.227C388.669,232.958,379.457,289.178,376.566,289.953Z" transform="translate(-307.213 -230.975)" fill="#6364d9"/>
          <g id="Group_23867" data-name="Group 23867" transform="translate(5.628 38.349)">
            <path id="Path_29804" data-name="Path 29804" d="M317.322,259c1.845.981,7.439,5.155,8.587,1.269a.719.719,0,0,0-1.385-.382c-.487,1.649-5.574-1.646-6.477-2.128-.816-.434-1.543.806-.725,1.241Z" transform="translate(-316.964 -257.668)" fill="#dd7878"/>
          </g>
          <g id="Group_23868" data-name="Group 23868" transform="translate(3.633 43.823)">
            <path id="Path_29805" data-name="Path 29805" d="M315.947,262.791c1.685.776,3.36,1.585,5.06,2.326a5.191,5.191,0,0,0,3.652.586,2.417,2.417,0,0,0,1.131-3.915.719.719,0,0,0-1.016,1.016c1.534,1.539-1.98,1.45-2.385,1.34a15.461,15.461,0,0,1-2.125-.94l-3.592-1.654c-.835-.385-1.565.853-.725,1.24Z" transform="translate(-315.575 -261.478)" fill="#dd7878"/>
          </g>
          <g id="Group_23869" data-name="Group 23869" transform="translate(3.513 48.833)">
            <path id="Path_29806" data-name="Path 29806" d="M316,267.585c1.7.419,4.056,1.46,5.814.82a2.2,2.2,0,0,0,1.28-3.076c-.417-.826-1.656-.1-1.24.724.764,1.516-2.445.891-2.951.767q-1.261-.308-2.521-.621c-.9-.221-1.28,1.164-.382,1.385Z" transform="translate(-315.492 -264.965)" fill="#dd7878"/>
          </g>
          <g id="Group_23870" data-name="Group 23870" transform="translate(2.45 54.057)">
            <path id="Path_29807" data-name="Path 29807" d="M315.44,270.428c1.616.138,2.916,1.418,4.606,1.059a2.3,2.3,0,0,0,2.007-2.191.719.719,0,0,0-1.437,0c-.014,1.177-1.783.782-2.415.539a9.8,9.8,0,0,0-2.761-.843c-.921-.078-.917,1.359,0,1.437Z" transform="translate(-314.751 -268.602)" fill="#dd7878"/>
          </g>
          <g id="Group_23871" data-name="Group 23871" transform="translate(70.742 60.797)">
            <path id="Path_29808" data-name="Path 29808" d="M362.608,274.661c2.343,1.608,2.47,6.234,2.822,8.723.375,2.654.606,5.31.748,7.987.049.919,1.486.925,1.437,0a92.155,92.155,0,0,0-1.317-11.614c-.454-2.493-.774-4.834-2.964-6.337-.764-.524-1.483.72-.726,1.241Z" transform="translate(-362.286 -273.293)" fill="#2d62ad"/>
          </g>
          <g id="Group_23872" data-name="Group 23872" transform="translate(25.193 52.532)">
            <path id="Path_29809" data-name="Path 29809" d="M331.981,278.293a21.9,21.9,0,0,1,4.254-9.486c.562-.721-.448-1.746-1.016-1.017a23.394,23.394,0,0,0-4.623,10.121c-.172.9,1.213,1.29,1.385.382Z" transform="translate(-330.582 -267.54)" fill="#2d62ad"/>
          </g>
        </g>
        <g id="Group_23884" data-name="Group 23884" transform="translate(37.116 190.52)">
          <path id="Path_29810" data-name="Path 29810" d="M432.3,460.381c-1.97,5.087-4.843,9.218-11.128,12.091-5.981,2.734-6.1,7.416-3.546,8.419s10.976-.27,13.6-1.056c7.639-2.284,9.14-5.477,16.12-9.331,3.332-1.84,7.155-4.564,6.748-8.347a9.759,9.759,0,0,0-1.172-3.257l-9.68-19.3a35.582,35.582,0,0,1-13.342,4.531A19.056,19.056,0,0,1,432.3,460.381Z" transform="translate(-305.182 -253.597)" fill="#1b468a"/>
          <path id="Path_29811" data-name="Path 29811" d="M362.091,458.883c-5.089,3.556-10.525,3.684-15.864,5.352-5.747,1.8-7.88,4.1-7.235,5.84.8,2.161,3.464,2.863,5.747,3.189a108.948,108.948,0,0,0,30.195.08,16.256,16.256,0,0,0,6.672-1.927c1.454-.925-.78-11.34-1.078-13.038-1.039-5.938-1.116-5.627-2.155-11.565a41.926,41.926,0,0,1-16.342-2.335C362.517,451.488,364.024,457.532,362.091,458.883Z" transform="translate(-338.881 -251.465)" fill="#1b468a"/>
          <path id="Path_29812" data-name="Path 29812" d="M349.379,421.7c-1.431,9.986,5.192,73.8,7.788,88.884.174,1.011,18.432,1.323,18.684-.435,1.789-12.493,6.852-70.888,6.106-81.172,0,0,22.073-58.724,35-80.274,0,14.367,2.439,76.037,4.617,84.9,1.5,6.083,31.854,64.333,38.858,75.467,1.369,2.177,18.161-2.48,17.237-5.926-5.923-22.089-14.345-59.8-21.368-74.527-1.985-4.162,7.665-87.822,9.7-104.673-6.824-16.24-38.205-12.607-43.1-13.019-11.314-.957-35.045-3.2-41.3,9.223C376.691,329.888,352.025,403.241,349.379,421.7Z" transform="translate(-334.384 -310.132)" fill="#003154"/>
          <g id="Group_23874" data-name="Group 23874" transform="translate(67.098 29.682)">
            <path id="Path_29813" data-name="Path 29813" d="M385.827,331.983a35.155,35.155,0,0,0,11.66,6.379c.882.284,1.26-1.1.382-1.385a33.2,33.2,0,0,1-11.025-6.01c-.71-.583-1.731.428-1.017,1.016Z" transform="translate(-385.584 -330.792)" fill="#05446b"/>
          </g>
          <g id="Group_23875" data-name="Group 23875" transform="translate(79.538 21.538)">
            <path id="Path_29814" data-name="Path 29814" d="M394.244,325.815q.179,3.592.359,7.183c.046.921,1.483.927,1.437,0q-.181-3.59-.359-7.183c-.046-.919-1.484-.925-1.437,0Z" transform="translate(-394.243 -325.123)" fill="#05446b"/>
          </g>
          <g id="Group_23876" data-name="Group 23876" transform="translate(85.664 35.131)">
            <path id="Path_29815" data-name="Path 29815" d="M399.024,335.989a31.284,31.284,0,0,0,10.253.532c.908-.1.918-1.542,0-1.437a30.184,30.184,0,0,1-9.871-.48c-.9-.2-1.287,1.188-.382,1.385Z" transform="translate(-398.508 -334.585)" fill="#05446b"/>
          </g>
          <g id="Group_23877" data-name="Group 23877" transform="translate(87.484 39.359)">
            <path id="Path_29816" data-name="Path 29816" d="M400.285,338.939a24.777,24.777,0,0,1,8.027,3.681c.761.529,1.48-.717.724-1.24a25.924,25.924,0,0,0-8.369-3.826.719.719,0,0,0-.382,1.385Z" transform="translate(-399.774 -337.528)" fill="#05446b"/>
          </g>
          <g id="Group_23878" data-name="Group 23878" transform="translate(35.124 113.593)">
            <path id="Path_29817" data-name="Path 29817" d="M363.687,390.531l7.787,4.165c.815.437,1.542-.8.724-1.24l-7.785-4.166c-.816-.435-1.542.8-.726,1.241Z" transform="translate(-363.329 -389.198)" fill="#05446b"/>
          </g>
          <g id="Group_23879" data-name="Group 23879" transform="translate(36.103 120.542)">
            <path id="Path_29818" data-name="Path 29818" d="M364.7,395.523a21.162,21.162,0,0,1,5.912.412c.9.193,1.287-1.192.382-1.386a22.641,22.641,0,0,0-6.294-.463c-.918.062-.924,1.5,0,1.437Z" transform="translate(-364.01 -394.036)" fill="#05446b"/>
          </g>
          <g id="Group_23880" data-name="Group 23880" transform="translate(110.087 116.284)">
            <path id="Path_29819" data-name="Path 29819" d="M416.026,392.471l5.754,1.037c.905.164,1.293-1.221.382-1.385l-5.754-1.039c-.9-.162-1.292,1.221-.382,1.386Z" transform="translate(-415.507 -391.072)" fill="#05446b"/>
          </g>
          <g id="Group_23881" data-name="Group 23881" transform="translate(112.255 120.006)">
            <path id="Path_29820" data-name="Path 29820" d="M417.881,396.4a19.229,19.229,0,0,1,5.574-1.294c.915-.07.924-1.507,0-1.437a20.492,20.492,0,0,0-5.956,1.346c-.852.333-.481,1.723.382,1.385Z" transform="translate(-417.016 -393.662)" fill="#05446b"/>
          </g>
          <g id="Group_23882" data-name="Group 23882" transform="translate(3.768 217.275)">
            <path id="Path_29821" data-name="Path 29821" d="M342.006,462.787c5.094,1.572,10.752,1.1,16.017,1.134,6.235.037,12.463-.065,18.685-.507.917-.065.924-1.5,0-1.437-5.76.409-11.526.532-17.3.513-5.531-.017-11.683.559-17.02-1.088-.886-.273-1.264,1.113-.382,1.385Z" transform="translate(-341.504 -461.366)" fill="#2d62ad"/>
          </g>
          <g id="Group_23883" data-name="Group 23883" transform="translate(113.697 207.288)">
            <path id="Path_29822" data-name="Path 29822" d="M418.539,472.468c7.278,1.29,13.993-1.454,19.782-5.752,2.382-1.767,4.549-3.8,6.85-5.663a35.673,35.673,0,0,0,6.117-5.61c.563-.733-.685-1.45-1.241-.726-2.744,3.57-7.186,6.525-10.677,9.367-5.8,4.722-12.75,8.364-20.448,7-.9-.161-1.292,1.224-.382,1.385Z" transform="translate(-418.02 -454.415)" fill="#2d62ad"/>
          </g>
        </g>
        <g id="Group_23889" data-name="Group 23889" transform="translate(84.329 73.404)">
          <path id="Path_29823" data-name="Path 29823" d="M379.286,261.286c.519,13-.059,22.1,0,35.1.075,16.746-9.166,39.021-6.652,45.487,1.09,2.806,1.513,3.5.84,6.489-.547,2.429-1.125,4.883-1.731,7.382,6.106,9.37,70.37,11.33,84.4,3.8.211-2.477.382-4.889.53-7.251.188-3.049.224-.491,2.589-2.2,6.033-4.36,3.245-24.287,4.237-36.588.9-11.189-.177-29.36,1.536-40.452,1.065-6.887,6.7-36.3-2.427-39.06-6.465-1.951-17.638-5.053-20.659-5.219-6.609-.362-25.962-.011-39.243.218-5.679.1-16.6,3.05-16.6,3.05C379.229,235.538,378.629,244.814,379.286,261.286Z" transform="translate(-371.744 -228.613)" fill="#6364d9"/>
          <g id="Group_23885" data-name="Group 23885" transform="translate(6.41 28.029)">
            <path id="Path_29824" data-name="Path 29824" d="M377.881,291.92q-.386-21.55-.148-43.1a.719.719,0,0,0-1.437,0q-.239,21.552.148,43.1a.719.719,0,0,0,1.437,0Z" transform="translate(-376.206 -248.123)" fill="#2d62ad"/>
          </g>
          <g id="Group_23886" data-name="Group 23886" transform="translate(19.668 44.179)">
            <path id="Path_29825" data-name="Path 29825" d="M385.5,260.463c4.329,9.6,12.077,17.911,20.432,24.215,8.6,6.489,15.822.724,20.723-7.035.494-.784-.747-1.506-1.241-.724-2.417,3.827-5.258,7.974-9.927,9.149-5.4,1.359-9.867-3.355-13.487-6.632-6.231-5.64-11.778-11.978-15.258-19.7-.379-.842-1.619-.112-1.241.726Z" transform="translate(-385.434 -259.364)" fill="#2d62ad"/>
          </g>
          <g id="Group_23887" data-name="Group 23887" transform="translate(27.591 87.096)">
            <path id="Path_29826" data-name="Path 29826" d="M392.009,293.9c11.62-7.337,25.01-.471,36.592,3.234.882.283,1.26-1.1.382-1.385-11.993-3.837-25.695-10.669-37.7-3.089-.779.493-.059,1.735.726,1.24Z" transform="translate(-390.949 -289.236)" fill="#2d62ad"/>
          </g>
          <g id="Group_23888" data-name="Group 23888" transform="translate(5.29 118.094)">
            <path id="Path_29827" data-name="Path 29827" d="M375.911,312.248c10.792,4.112,22.468,5.508,33.946,5.941a259.615,259.615,0,0,0,42.217-2.274c.905-.115.917-1.553,0-1.437a263.049,263.049,0,0,1-40.95,2.319c-11.778-.363-23.755-1.714-34.831-5.933-.865-.33-1.24,1.059-.382,1.385Z" transform="translate(-375.426 -310.813)" fill="#2d62ad"/>
          </g>
        </g>
        <g id="Group_23903" data-name="Group 23903" transform="translate(112.618)">
          <path id="Path_29828" data-name="Path 29828" d="M434.59,239.078c-9.077-4.273-4.442-27.224-4.895-31.926-5.808-1-28.673-3.3-27.856,2.99a99.674,99.674,0,0,1,.217,18.457c-.935,8.122-5.738,10.282-8.758,10.3C395.693,250.036,414.769,252.956,434.59,239.078Z" transform="translate(-390.62 -165.123)" fill="#ed8585"/>
          <path id="Path_29829" data-name="Path 29829" d="M424.683,230.835c-1.307,2.312-14.426,9.448-22.425,7.764-7.01-1.477-8.734-11.427-8.521-21.534.023-1.342.075-2.692.18-4.026a112.46,112.46,0,0,1,2.4-16.846c1.714-7.284,18.533-7.642,21.983-7.224,8.308,1,13.572,6.527,15.252,16.76C434.54,211.759,430.46,220.622,424.683,230.835Z" transform="translate(-390.437 -172.571)" fill="#ff9690"/>
          <path id="Path_29830" data-name="Path 29830" d="M391.771,191.811c-.983,3.686.2,8.058,3.386,10.152,3.639,2.391,27.9-.852,31.207,4.515a26.91,26.91,0,0,1,2.24,11.447c-.313,7.359,1.149,5.494,1.256,7.334,5.168-1.935,8.693-4.869,10.141-8.147,5.922-13.4-3.72-18.227-3.72-18.227,1.75-4.569.254-8.818-4.036-11.172s-16.927-1.758-19.3-2.109-8.807-.961-5.972-8.084C399.995,179.316,393.975,183.534,391.771,191.811Z" transform="translate(-391.435 -177.52)" fill="#ef3f7f"/>
          <path id="Path_29831" data-name="Path 29831" d="M423.97,203.83c-4.29-1.471-7.287,4.663-7.287,4.663-.98,1.915-2.938,7.7.694,9.759,2.86,1.625,4.712.3,6.31-1.787C426.229,213.15,429.654,205.78,423.97,203.83Z" transform="translate(-381.026 -166.131)" fill="#ff9690"/>
          <g id="Group_23890" data-name="Group 23890" transform="translate(8.976 38.851)">
            <path id="Path_29832" data-name="Path 29832" d="M402.8,204.887c-1.641,2.415-3.827,4.928-4.994,7.613-.842,1.939,2.767,2.868,3.951,3.839.71.582,1.731-.43,1.016-1.016a23.317,23.317,0,0,0-2.926-1.912c-.139-.083-.552-.431-.711-.425-.622.02.178-.092-.177.408.238-.335.422-.738.639-1.088,1.408-2.277,2.939-4.481,4.442-6.695.521-.766-.723-1.486-1.24-.724Z" transform="translate(-397.682 -204.562)" fill="#dd7878"/>
          </g>
          <g id="Group_23891" data-name="Group 23891" transform="translate(37.339 39.691)">
            <path id="Path_29833" data-name="Path 29833" d="M420.1,207.13c.835-.563,1.934-1.039,2.592.045a3.881,3.881,0,0,1-.009,2.993c-.536,1.839-2.007,4.82-4.356,4.4-.905-.161-1.293,1.224-.382,1.385,3.589.639,5.839-3.392,6.36-6.416.559-3.244-1.922-5.676-4.929-3.649-.763.514-.045,1.76.724,1.241Z" transform="translate(-417.424 -205.147)" fill="#dd7878"/>
          </g>
          <g id="Group_23892" data-name="Group 23892" transform="translate(5.871 28.632)">
            <path id="Path_29834" data-name="Path 29834" d="M396.415,199.025a4.71,4.71,0,0,1,5.143,2.047c.494.779,1.737.057,1.24-.725a6.188,6.188,0,0,0-6.765-2.707.719.719,0,0,0,.382,1.385Z" transform="translate(-395.521 -197.45)" fill="#ef3f7f"/>
          </g>
          <g id="Group_23893" data-name="Group 23893" transform="translate(20.605 30.6)">
            <path id="Path_29835" data-name="Path 29835" d="M407.041,201.492a5.84,5.84,0,0,1,6.431-.529c.813.44,1.539-.8.724-1.241a7.343,7.343,0,0,0-8.17.754c-.726.575.3,1.585,1.016,1.016Z" transform="translate(-405.777 -198.82)" fill="#ef3f7f"/>
          </g>
          <g id="Group_23894" data-name="Group 23894" transform="translate(10.206 50.372)">
            <path id="Path_29836" data-name="Path 29836" d="M399.03,212.91a5.307,5.307,0,0,0-.491,2.546.735.735,0,0,0,.527.694c2.487.783,5.084,1.47,7.627.549l-.884-.5c.115.787-.958,1.827-1.48,2.261a5.336,5.336,0,0,1-4.247,1.119c-.914-.119-.905,1.319,0,1.437a6.651,6.651,0,0,0,5.5-1.747,4.265,4.265,0,0,0,1.616-3.451.721.721,0,0,0-.884-.5c-2.307.836-4.616.159-6.863-.549.175.231.352.463.527.692a3.96,3.96,0,0,1,.295-1.82c.513-.774-.731-1.494-1.24-.726Z" transform="translate(-398.539 -212.581)" fill="#dd7878"/>
          </g>
          <path id="Path_29837" data-name="Path 29837" d="M406.608,204.646c-.125,1.228.368,2.284,1.1,2.358s1.427-.861,1.552-2.089-.368-2.283-1.1-2.358S406.733,203.418,406.608,204.646Z" transform="translate(-384.817 -166.589)" fill="#003154"/>
          <path id="Path_29838" data-name="Path 29838" d="M397.311,203.709c-.124,1.227.368,2.283,1.1,2.358s1.425-.861,1.55-2.089-.366-2.284-1.1-2.358S397.436,202.481,397.311,203.709Z" transform="translate(-388.877 -166.998)" fill="#003154"/>
          <path id="Path_29839" data-name="Path 29839" d="M408.164,209.473c-.125,1.231,1.287,2.383,3.155,2.573s3.484-.655,3.609-1.886-1.287-2.383-3.156-2.573S408.289,208.241,408.164,209.473Z" transform="translate(-384.133 -164.402)" fill="#f7827f"/>
          <path id="Path_29840" data-name="Path 29840" d="M398.647,208.193c-.122,1.234-1.736,2.073-3.606,1.882a4.7,4.7,0,0,1-1.309-.32c.023-1.342.075-2.692.18-4.026a4.731,4.731,0,0,1,1.589-.113C397.358,205.8,398.78,206.96,398.647,208.193Z" transform="translate(-390.431 -165.261)" fill="#f7827f"/>
          <g id="Group_23895" data-name="Group 23895" transform="translate(7.018 8.874)">
            <path id="Path_29841" data-name="Path 29841" d="M398.444,183.923a7.963,7.963,0,0,0-.51,10.216c.556.723,1.806.007,1.24-.724a6.536,6.536,0,0,1,.286-8.476c.623-.68-.389-1.7-1.016-1.016Z" transform="translate(-396.319 -183.697)" fill="#f75c9b"/>
          </g>
          <g id="Group_23896" data-name="Group 23896" transform="translate(14.18 11.623)">
            <path id="Path_29842" data-name="Path 29842" d="M401.7,186.114a9.271,9.271,0,0,0,2.613,9.511c.678.625,1.7-.388,1.016-1.017a7.812,7.812,0,0,1-2.243-8.111.72.72,0,0,0-1.386-.382Z" transform="translate(-401.304 -185.611)" fill="#f75c9b"/>
          </g>
          <g id="Group_23897" data-name="Group 23897" transform="translate(21.996 14.498)">
            <path id="Path_29843" data-name="Path 29843" d="M406.746,188.3a15.991,15.991,0,0,0,2.524,7.749c.5.774,1.743.055,1.24-.726a14.5,14.5,0,0,1-2.327-7.024c-.057-.919-1.494-.925-1.437,0Z" transform="translate(-406.745 -187.611)" fill="#f75c9b"/>
          </g>
          <g id="Group_23898" data-name="Group 23898" transform="translate(29.439 15.988)">
            <path id="Path_29844" data-name="Path 29844" d="M411.949,189.339a11.244,11.244,0,0,0,1.724,6.76c.49.78,1.734.06,1.24-.726a9.885,9.885,0,0,1-1.527-6.034c.059-.922-1.378-.919-1.437,0Z" transform="translate(-411.926 -188.648)" fill="#f75c9b"/>
          </g>
          <g id="Group_23899" data-name="Group 23899" transform="translate(35.442 18.006)">
            <path id="Path_29845" data-name="Path 29845" d="M418.031,195.594q-.241-2.429-.486-4.855c-.092-.911-1.529-.921-1.437,0q.244,2.427.486,4.855c.092.911,1.53.921,1.437,0Z" transform="translate(-416.104 -190.053)" fill="#f75c9b"/>
          </g>
          <g id="Group_23900" data-name="Group 23900" transform="translate(39.719 16.149)">
            <path id="Path_29846" data-name="Path 29846" d="M420.512,195.394a13.767,13.767,0,0,0,.756-5.946c-.083-.912-1.521-.921-1.437,0a12.79,12.79,0,0,1-.7,5.564c-.312.872,1.076,1.247,1.385.382Z" transform="translate(-419.081 -188.76)" fill="#f75c9b"/>
          </g>
          <g id="Group_23901" data-name="Group 23901" transform="translate(38.186 26.862)">
            <path id="Path_29847" data-name="Path 29847" d="M418.242,197.426a6.666,6.666,0,0,1,2.1,3.715c.181.905,1.566.521,1.386-.382a7.95,7.95,0,0,0-2.471-4.349c-.684-.619-1.7.394-1.016,1.016Z" transform="translate(-418.014 -196.217)" fill="#f75c9b"/>
          </g>
          <g id="Group_23902" data-name="Group 23902" transform="translate(41.713 25.887)">
            <path id="Path_29848" data-name="Path 29848" d="M420.7,196.749a8.02,8.02,0,0,1,2.12,3.053c.329.853,1.718.483,1.385-.382a9.563,9.563,0,0,0-2.49-3.687c-.682-.622-1.7.391-1.016,1.016Z" transform="translate(-420.469 -195.538)" fill="#f75c9b"/>
          </g>
        </g>
        <g id="Group_23908" data-name="Group 23908" transform="translate(161.615 78.633)">
          <path id="Path_29849" data-name="Path 29849" d="M462.282,316.979c-1.04,2.356-1.727,3.365-1.855,5.34a3.373,3.373,0,0,0,2.381,3.781c.234,2.53-.339,4.138.576,6.466.3.774,1.928,1.467,2.754,1.577a5.434,5.434,0,0,0,2.991-.748s.773,1.017,3.385,1.053a2.657,2.657,0,0,0,2.4-1.774c1.81,1.557,4.767.328,5.406-1.062,0,0,4.919.32,3.482-7.815-.3-1.715-1.7-9.206-1.6-11.919.069-1.784,1.257-5,3.3-14.033-3.873-.368-13.222-1.593-16.767-3.2-1.014,4.53-2.859,15.232-3.135,16.082A30.809,30.809,0,0,1,462.282,316.979Z" transform="translate(-410.309 -205.007)" fill="#ff9690"/>
          <path id="Path_29850" data-name="Path 29850" d="M475.479,288.476c.1,1.99,3.158,32.847,4.527,37.1.325,1.009,1.654,1.468,1.684,2.32.057,1.629-.81,4.82-.76,5.423.386,4.645,17.081,6.576,18.539,1.76.3-1,.079-2.437.359-3.951.175-.947,1.954-1.738,2.118-2.852,2.521-17.148.237-50.353-2.836-56.338-3.023-5.886-45.428-37.025-60.154-39.539-13.779-2.352-17.787,24.234-6.4,33.78S475.413,287.2,475.479,288.476Z" transform="translate(-425.373 -232.253)" fill="#6364d9"/>
          <g id="Group_23904" data-name="Group 23904" transform="translate(1.2 17.39)">
            <path id="Path_29851" data-name="Path 29851" d="M438.229,262.13c-7.978-1.668-9.542-10.259-10.412-17.089-.115-.905-1.553-.917-1.437,0,.951,7.468,2.842,16.673,11.468,18.474.9.188,1.287-1.2.381-1.385Z" transform="translate(-426.374 -244.357)" fill="#2d62ad"/>
          </g>
          <g id="Group_23905" data-name="Group 23905" transform="translate(0 32.801)">
            <path id="Path_29852" data-name="Path 29852" d="M425.632,256.166a8.176,8.176,0,0,0,8.688,4.112c.908-.164.523-1.549-.382-1.385a6.713,6.713,0,0,1-7.064-3.452c-.441-.813-1.682-.089-1.241.726Z" transform="translate(-425.539 -255.084)" fill="#2d62ad"/>
          </g>
          <g id="Group_23906" data-name="Group 23906" transform="translate(52.434 46.264)">
            <path id="Path_29853" data-name="Path 29853" d="M463.287,271.86a72.84,72.84,0,0,0,5.757-6.163c.623-.68-.389-1.7-1.016-1.016a73.051,73.051,0,0,1-5.757,6.162c-.7.6.319,1.618,1.016,1.017Z" transform="translate(-462.036 -264.455)" fill="#2d62ad"/>
          </g>
          <g id="Group_23907" data-name="Group 23907" transform="translate(60.374 94.831)">
            <path id="Path_29854" data-name="Path 29854" d="M468.04,299.7a19.454,19.454,0,0,0,9.126,1.386c.914-.079.922-1.516,0-1.437a18.6,18.6,0,0,1-8.745-1.335c-.855-.349-1.227,1.04-.381,1.385Z" transform="translate(-467.562 -298.26)" fill="#2d62ad"/>
          </g>
        </g>
      </g>
    </g>
    <g id="Group_23960" data-name="Group 23960" transform="translate(24.719 187.915)">
      <ellipse id="Ellipse_4148" data-name="Ellipse 4148" cx="70.035" cy="9.669" rx="70.035" ry="9.669" transform="translate(22.18 458.817)" fill="#b9baff"/>
      <g id="Group_23959" data-name="Group 23959">
        <g id="Group_23915" data-name="Group 23915" transform="translate(93.752)">
          <path id="Path_29855" data-name="Path 29855" d="M111.2,167.08c-3.165-2.546-6.188-3.4-6.188-5.5,6.058-.144,7.751.579,12.223,4.669-4.268-8.665-13.937-17.371-12.223-19.385,2.118-2.3,10.5,10.72,13.611,12.071,1.339-1.859-10.3-17.24-6.465-18.223,3.426.1,8.379,15.519,11.743,16.872.111-2.1-8.331-16.872-2.885-16.872,2.395,1.7,5.03,13.434,8.4,16.872,1.182,0-2.169-14.691,2.381-12.776.1,9.083,3.814,14.854,3.912,23.945.162,15.051-11.266,17.466-16.561,9.011C115.749,172.349,113.71,169.1,111.2,167.08Z" transform="translate(-83.498 -140.716)" fill="#ff9690"/>
          <path id="Path_29856" data-name="Path 29856" d="M116.24,223.912c.543-2.25,1.566-13.512,3-27.389.484-4.7.721-16.436,3.788-18.832.217-4.244.878-6.331.628-11.131,9.323-.4,10.147.384,19.261,2.381a43.909,43.909,0,0,0-.731,9.886c.052,1.6,2.734,4.337,2.73,6.522-.022,10.587-.868,40.317-4.01,52.776-1.906,7.563-23.722,43.267-31.184,57.068-8.762,16.207-7.633,12.982-14.071,2.159-5.436-9.139-5.672-30.492-5.672-30.492C96.822,256.8,112.888,237.8,116.24,223.912Z" transform="translate(-89.976 -129.475)" fill="#ffa950"/>
          <g id="Group_23911" data-name="Group 23911" transform="translate(31.191 97.672)">
            <path id="Path_29857" data-name="Path 29857" d="M111.881,209.944a21.164,21.164,0,0,0,10.973,6.423c.9.208,1.284-1.175.382-1.385a19.872,19.872,0,0,1-10.34-6.054c-.624-.685-1.638.333-1.016,1.016Z" transform="translate(-111.687 -208.701)" fill="#e88622"/>
          </g>
          <g id="Group_23912" data-name="Group 23912" transform="translate(32.59 94.473)">
            <path id="Path_29858" data-name="Path 29858" d="M112.977,207.846c3.029,2.138,6.886,4.192,10.239,1.5.72-.579-.3-1.589-1.017-1.016-2.756,2.214-6.14-.062-8.5-1.724-.757-.534-1.475.711-.726,1.241Z" transform="translate(-112.66 -206.474)" fill="#e88622"/>
          </g>
          <g id="Group_23913" data-name="Group 23913" transform="translate(36.127 46.342)">
            <path id="Path_29859" data-name="Path 29859" d="M115.81,174.413c3.744.356,7.6,0,11.114,1.586.836.378,1.567-.859.726-1.241-3.778-1.71-7.805-1.4-11.84-1.781-.921-.088-.914,1.35,0,1.437Z" transform="translate(-115.122 -172.972)" fill="#e88622"/>
          </g>
          <g id="Group_23914" data-name="Group 23914" transform="translate(36.815 25.41)">
            <path id="Path_29860" data-name="Path 29860" d="M116.288,159.933a16.264,16.264,0,0,1,8.084,1.2c.852.356,1.224-1.033.382-1.385a17.152,17.152,0,0,0-8.466-1.25c-.911.093-.921,1.531,0,1.437Z" transform="translate(-115.601 -158.403)" fill="#dd7878"/>
          </g>
        </g>
        <path id="Path_29861" data-name="Path 29861" d="M46.595,228.145c1.157,7.478,6.326,11.317,2.573,17.888-5.4,9.46-3.993,15.749-.45,22.316,2.46,4.56,1.053,13.542,1.463,15.384,1.264,5.683,3.241,11.947,9.064,11.973S70.7,293.671,76.5,293.155c5.762-.513,11.535.507,17.3.9s11.851.095,16.869-2.783,8.573-8.961,6.942-14.509c-1.405-4.784-6.125-8.024-7.57-12.795-1.066-3.516-.19-7.28.053-10.946s-.464-7.884-3.553-9.873a30.62,30.62,0,0,1-2.748-1.579c-3.445-2.764-1.144-8.147-.48-12.513,1.09-7.176-5.38-11.962-11.216-16.279-18.506-13.689-32.861-8.086-35.3-6.722C45.579,212.339,45.567,221.5,46.595,228.145Z" transform="translate(-15.611 -113.183)" fill="#1b468a"/>
        <g id="Group_23926" data-name="Group 23926" transform="translate(54.618 252.999)">
          <path id="Path_29862" data-name="Path 29862" d="M94.683,456.869c-.817,3.524-1.537,6.465-1.537,6.465-.032,7.037,12.233,7.656,14.467,7.186,2.082-.437,8.979-2.313,7.06-7.917a45.526,45.526,0,0,1-4.044-2.965c-.421-.575.576-5.4,3.784-13.9a19.626,19.626,0,0,0-18.2-4.788C95.735,449.341,95.29,454.25,94.683,456.869Z" transform="translate(-49.458 -262.882)" fill="#ff9690"/>
          <path id="Path_29863" data-name="Path 29863" d="M93.6,456.564a12.142,12.142,0,0,0-1.484,6.534c.043,2.915,17.029,9.988,29.241,9.269s12.212-5.382,8.261-8.617-14.49-7.917-14.49-7.917.116,4.3-5.627,5.209S97.09,459.752,93.6,456.564Z" transform="translate(-49.909 -256.112)" fill="#ffa950"/>
          <path id="Path_29864" data-name="Path 29864" d="M65.308,459.844c-.817,3.524-1.537,6.465-1.537,6.465-.032,7.037,12.233,7.656,14.467,7.186,2.082-.438,8.979-2.313,7.06-7.917a45.515,45.515,0,0,1-4.044-2.965c-.421-.575.576-5.4,3.784-13.9a19.626,19.626,0,0,0-18.2-4.788C66.36,452.316,65.915,457.225,65.308,459.844Z" transform="translate(-62.285 -261.583)" fill="#ff9690"/>
          <path id="Path_29865" data-name="Path 29865" d="M72.6,427.082c-7.183,22.268-4.6,56.944-5.531,72.074-.338,5.478,14.38,8.739,18.2,4.788,6.669-22.268,10.62-42.741,16.964-77.563,3.218-17.654,7.708-50.39,8.666-77.927.244,36.964,4.691,70.028,2.661,77.927-5.652,21.983-3.458,48.837-4.287,68.5-.243,5.744,17.106,8.412,18.2,4.788,5.78-19.188,10.807-43.8,16.007-74.2,6.117-35.776,11.134-71.654,4.07-108.549-27.04-1.073-61.662,6.672-84.285,14.637C62.567,371.546,75.391,418.445,72.6,427.082Z" transform="translate(-62.518 -316.816)" fill="#313030"/>
          <path id="Path_29866" data-name="Path 29866" d="M64.223,459.539a12.139,12.139,0,0,0-1.484,6.533c.043,2.916,17.029,9.989,29.241,9.271s12.212-5.382,8.261-8.617-14.49-7.917-14.49-7.917.116,4.3-5.627,5.209S67.715,462.727,64.223,459.539Z" transform="translate(-62.737 -254.812)" fill="#ffa950"/>
          <g id="Group_23924" data-name="Group 23924" transform="translate(2.743 209.275)">
            <path id="Path_29875" data-name="Path 29875" d="M64.992,463.828a49.675,49.675,0,0,0,31.577,6.587c.907-.113.918-1.55,0-1.437a48.433,48.433,0,0,1-30.853-6.39.718.718,0,0,0-.724,1.24Z" transform="translate(-64.646 -462.483)" fill="#e88622"/>
          </g>
          <g id="Group_23925" data-name="Group 23925" transform="translate(44.715 205.403)">
            <path id="Path_29876" data-name="Path 29876" d="M94.192,461.146c4.846,3.156,10.3,4.671,15.979,5.514,4.684.7,10.529,2.159,14.946-.057.828-.415.1-1.655-.724-1.241-4.336,2.177-11.624.362-16.164-.467a35.757,35.757,0,0,1-13.311-4.988c-.777-.506-1.5.737-.726,1.24Z" transform="translate(-93.861 -459.787)" fill="#e88622"/>
          </g>
        </g>
        <g id="Group_23933" data-name="Group 23933" transform="translate(32.893 135.25)">
          <path id="Path_29877" data-name="Path 29877" d="M49.853,256.5c-7.8,6.2,6.357,26.725,18.147,44.962,6.215,9.614,8.473,24.9,8.473,30.118,0,12.528-5.456,20.567-6.386,35.757,25.564-3.88,59.7-6.645,84.285-14.637-6.584-20.842-12.077-24.387-16.413-35.526-2.1-5.4-4.363-13.565-5.257-25.273,0,0,4.8-14.984,1.392-20.939-3.356-5.872-4.974-7.15-7.5-13.9-2.171-6.176-5.227-24.3-10.683-22.013-2.421,1.014-4.942,1.149-9.192,2.427-18.441,5.546-27.519,3.651-40.763,10.265C58.81,251.32,52.952,254.038,49.853,256.5Z" transform="translate(-47.615 -234.857)" fill="#ffa950"/>
          <g id="Group_23927" data-name="Group 23927" transform="translate(70.215 8.183)">
            <path id="Path_29878" data-name="Path 29878" d="M106.583,259.911c-5.7-4-7.7-12.337-8.7-18.838-.139-.911-1.524-.524-1.386.382,1.059,6.906,3.314,15.454,9.36,19.7.759.532,1.477-.713.726-1.241Z" transform="translate(-96.488 -240.553)" fill="#e88622"/>
          </g>
          <g id="Group_23928" data-name="Group 23928" transform="translate(77.301 12.504)">
            <path id="Path_29879" data-name="Path 29879" d="M106.516,254.744a36.5,36.5,0,0,1-3.7-10.664c-.167-.908-1.552-.524-1.386.382a37.826,37.826,0,0,0,3.84,11.008c.435.816,1.675.092,1.241-.726Z" transform="translate(-101.421 -243.561)" fill="#e88622"/>
          </g>
          <g id="Group_23929" data-name="Group 23929" transform="translate(35.272 54.498)">
            <path id="Path_29880" data-name="Path 29880" d="M72.507,277.9c7.461,4.556,17.888,4.548,22.414-4.028.431-.817-.809-1.544-1.241-.726-4.159,7.883-13.64,7.67-20.448,3.514-.79-.484-1.513.759-.724,1.24Z" transform="translate(-72.166 -272.791)" fill="#e88622"/>
          </g>
          <g id="Group_23930" data-name="Group 23930" transform="translate(64.338 52.662)">
            <path id="Path_29881" data-name="Path 29881" d="M92.7,272.9a15.121,15.121,0,0,0,13.885,2.461c.881-.273.5-1.661-.382-1.385a13.774,13.774,0,0,1-12.778-2.316c-.733-.565-1.45.684-.726,1.24Z" transform="translate(-92.397 -271.513)" fill="#e88622"/>
          </g>
          <g id="Group_23931" data-name="Group 23931" transform="translate(48.454 81.132)">
            <path id="Path_29882" data-name="Path 29882" d="M81.66,292.7A66.9,66.9,0,0,0,111.5,304.342c.914.124.9-1.315,0-1.437a65.477,65.477,0,0,1-29.113-11.446c-.759-.533-1.477.713-.726,1.241Z" transform="translate(-81.342 -291.33)" fill="#e88622"/>
          </g>
          <g id="Group_23932" data-name="Group 23932" transform="translate(57.082 76.09)">
            <path id="Path_29883" data-name="Path 29883" d="M87.867,289.215a72.158,72.158,0,0,0,17.433.428c.912-.089.921-1.526,0-1.437a70.538,70.538,0,0,1-17.05-.378c-.905-.131-1.294,1.254-.382,1.386Z" transform="translate(-87.347 -287.82)" fill="#e88622"/>
          </g>
        </g>
        <g id="Group_23952" data-name="Group 23952" transform="translate(33.415 85.545)">
          <path id="Path_29884" data-name="Path 29884" d="M81.422,264.475c7.791,1.338,15.763.734,19.958-5.966,3.628-5.791,0-14.677,0-14.677s-7.893.664-9.361.144c-5.975-2.112-3.895-17.039-7.114-23.037-1.5-2.794-26.15,4.444-25.017,9.156,1.119,4.646,8.1,16.091,7.8,18.741-.152,1.343-2.172,2.277-7.067,5.261A41.67,41.67,0,0,0,81.422,264.475Z" transform="translate(-42.794 -191.502)" fill="#ed8585"/>
          <path id="Path_29885" data-name="Path 29885" d="M65.846,247.054c2.888,2.712,12.5,5.273,20.664,3.4,2.484-.568,5.321-8.278,5.321-13.926,0-4.5.342-6.981-4.064-16.66-.8-1.748-9.585-19.194-25.775-11.414C46.584,215.864,57.713,239.412,65.846,247.054Z" transform="translate(-45.222 -197.548)" fill="#ff9690"/>
          <path id="Path_29886" data-name="Path 29886" d="M95.385,206.379c-2.682,2.863-7.422,2.477-10.96.786s-6.543-4.418-10.2-5.844a15.867,15.867,0,0,0-21.595,13.546c-.154,1.97-2.679,6.372-3.046,8.313-.813,4.3,3.039,12.121,3.584,13.687,1.958,5.6,7.945,16.346,12.5,15.237,2.087-.509-9.225-11.473-8.5-21.83a74.142,74.142,0,0,1,6.148-13.486c1.024-1.184,13.1,5.505,26.847,3.066,2.313-.409,3.2,13.321,4.781,13.2,1.1-.55.086-9.843-.284-11.015-.858-2.715.878-5.475,2.019-8.086S97.981,207.55,95.385,206.379Z" transform="translate(-47.324 -200.26)" fill="#1b468a"/>
          <g id="Group_23934" data-name="Group 23934" transform="translate(27.614 27.687)">
            <path id="Path_29887" data-name="Path 29887" d="M67.3,220.605a10.567,10.567,0,0,0,3.55,3.74,10.14,10.14,0,0,0,2.115.991c.759.253,1.684.261,2.08,1.178a2.608,2.608,0,0,1-.565,2.294c-.543.75.7,1.468,1.241.726.98-1.35,1.327-3.84-.28-4.934-.948-.645-2.366-.665-3.4-1.225a8.961,8.961,0,0,1-3.5-3.5.719.719,0,0,0-1.24.726Z" transform="translate(-67.199 -219.532)" fill="#dd7878"/>
          </g>
          <g id="Group_23935" data-name="Group 23935" transform="translate(29.887 38.993)">
            <path id="Path_29888" data-name="Path 29888" d="M75.164,228.441a9.448,9.448,0,0,0,.648.908c.011.013.6-.559.145-.194a7.034,7.034,0,0,1-1.465.754,13.992,13.992,0,0,1-4.974,1.313.75.75,0,0,0-.692.527c-.467,1.271,2.872,3.375,3.664,3.807,2.679,1.467,5.184.777,6.883-1.728.52-.767-.724-1.487-1.24-.724-1.467,2.162-3.445,2.215-5.505.856a10.571,10.571,0,0,1-1.758-1.481c-.155-.161-.338-.473-.527-.582-.414-.238.158-.549-.131.234l-.692.527a16.026,16.026,0,0,0,6.622-1.96c1.705-.914,1.378-1.424.264-2.984-.532-.746-1.779-.029-1.24.726Z" transform="translate(-68.781 -227.401)" fill="#dd7878"/>
          </g>
          <path id="Path_29889" data-name="Path 29889" d="M64.946,223.182c.543,1.106.45,2.266-.21,2.59s-1.635-.31-2.178-1.417-.451-2.266.208-2.59S64.4,222.076,64.946,223.182Z" transform="translate(-41.766 -190.906)" fill="#003154"/>
          <path id="Path_29890" data-name="Path 29890" d="M74.171,218.646c.543,1.108.45,2.267-.21,2.59s-1.635-.309-2.178-1.415-.451-2.267.208-2.59S73.627,217.54,74.171,218.646Z" transform="translate(-37.737 -192.886)" fill="#003154"/>
          <g id="Group_23936" data-name="Group 23936" transform="translate(14.99 24.73)">
            <path id="Path_29891" data-name="Path 29891" d="M59.85,222.757c.147-2.076,2.337-3.553,4.22-3.886.909-.161.524-1.544-.382-1.385-2.564.454-5.084,2.562-5.274,5.271-.065.922,1.373.918,1.437,0Z" transform="translate(-58.412 -217.473)" fill="#1b468a"/>
          </g>
          <g id="Group_23937" data-name="Group 23937" transform="translate(27.639 18.518)">
            <path id="Path_29892" data-name="Path 29892" d="M68.421,216.942a7.063,7.063,0,0,1,4.224-2.392c.907-.172.523-1.557-.382-1.385a8.3,8.3,0,0,0-4.857,2.761c-.612.688.4,1.708,1.016,1.016Z" transform="translate(-67.216 -213.15)" fill="#1b468a"/>
          </g>
          <ellipse id="Ellipse_4149" data-name="Ellipse 4149" cx="3.395" cy="2.238" rx="3.395" ry="2.238" transform="translate(17.658 39.999) rotate(-26.181)" fill="#f7827f"/>
          <ellipse id="Ellipse_4150" data-name="Ellipse 4150" cx="3.395" cy="2.238" rx="3.395" ry="2.238" transform="translate(37.813 29.503) rotate(-26.181)" fill="#f7827f"/>
          <path id="Path_29893" data-name="Path 29893" d="M59.747,226.918c-1.122-1.98-6.658-4.465-6.627,1.6.017,3.63,2.231,7.283,5.741,8.211.983.26,2.224.294,2.845-.51C64.157,233.05,59.747,226.918,59.747,226.918Z" transform="translate(-45.733 -189.591)" fill="#ff9690"/>
          <g id="Group_23938" data-name="Group 23938" transform="translate(8.574 36.578)">
            <path id="Path_29894" data-name="Path 29894" d="M57.163,225.751c-2.609-.3-3.616,1.575-3.076,3.924.595,2.587,2.494,5.044,5.3,5.287.921.079.915-1.358,0-1.437-1.974-.171-3.25-1.987-3.778-3.727-.471-1.557-.405-2.833,1.554-2.61.917.1.909-1.333,0-1.437Z" transform="translate(-53.946 -225.72)" fill="#dd7878"/>
          </g>
          <g id="Group_23939" data-name="Group 23939" transform="translate(30.849 62.047)">
            <path id="Path_29895" data-name="Path 29895" d="M70.31,247.159c3.01-1.224,9.679-3.888,12.367-1.04.636.674,1.651-.343,1.016-1.016-3.189-3.379-10.226-.769-13.765.669-.845.345-.476,1.734.382,1.386Z" transform="translate(-69.451 -243.448)" fill="#dd7878"/>
          </g>
          <g id="Group_23940" data-name="Group 23940" transform="translate(47.06 55.935)">
            <path id="Path_29896" data-name="Path 29896" d="M82.172,245.91c.076-1.29,1.452-2.376,2.366-3.138.964-.8,2.013-1.491,3.04-2.208.753-.526.036-1.773-.726-1.241-2.2,1.54-5.939,3.553-6.117,6.587-.053.924,1.384.921,1.437,0Z" transform="translate(-80.734 -239.194)" fill="#dd7878"/>
          </g>
          <g id="Group_23941" data-name="Group 23941" transform="translate(4.991 17.391)">
            <path id="Path_29897" data-name="Path 29897" d="M52.846,226.783a33.791,33.791,0,0,1,4.977-13.358c.5-.783-.744-1.5-1.24-.725a34.778,34.778,0,0,0-5.122,13.7c-.134.9,1.25,1.294,1.385.382Z" transform="translate(-51.452 -212.365)" fill="#2d62ad"/>
          </g>
          <g id="Group_23942" data-name="Group 23942" transform="translate(0 16.002)">
            <path id="Path_29898" data-name="Path 29898" d="M49.522,224.995A18.034,18.034,0,0,1,52.8,212.441c.534-.757-.711-1.475-1.24-.726a19.272,19.272,0,0,0-3.478,13.279c.093.911,1.531.921,1.437,0Z" transform="translate(-47.978 -211.398)" fill="#2d62ad"/>
          </g>
          <g id="Group_23943" data-name="Group 23943" transform="translate(14.567 10.215)">
            <path id="Path_29899" data-name="Path 29899" d="M59.217,209.5c3.919-1.748,7.37.2,11.037,1.345a31.875,31.875,0,0,0,7.772,1.342c.924.05.921-1.386,0-1.437-4.334-.241-7.864-1.728-11.952-2.859a10.677,10.677,0,0,0-7.583.368c-.843.376-.113,1.615.726,1.241Z" transform="translate(-58.117 -207.37)" fill="#2d62ad"/>
          </g>
          <g id="Group_23944" data-name="Group 23944" transform="translate(13.425 4.388)">
            <path id="Path_29900" data-name="Path 29900" d="M58.356,207.075a11.385,11.385,0,0,1,13.436-.254c.764.524,1.484-.72.726-1.241a12.783,12.783,0,0,0-14.887.254c-.736.545-.019,1.792.726,1.241Z" transform="translate(-57.322 -203.314)" fill="#2d62ad"/>
          </g>
          <g id="Group_23945" data-name="Group 23945" transform="translate(0.824 46.584)">
            <path id="Path_29901" data-name="Path 29901" d="M51.323,233.054c-1.968,4.135-4.589,11.6-.961,15.535.628.681,1.642-.338,1.016-1.017-3.06-3.316-.445-10.366,1.185-13.792.4-.832-.842-1.562-1.24-.726Z" transform="translate(-48.552 -232.685)" fill="#2d62ad"/>
          </g>
          <g id="Group_23946" data-name="Group 23946" transform="translate(7.184 50.69)">
            <path id="Path_29902" data-name="Path 29902" d="M53.415,236.053a13.352,13.352,0,0,0,.681,8.726c.359.849,1.6.118,1.24-.726a11.731,11.731,0,0,1-.534-7.619.72.72,0,0,0-1.386-.382Z" transform="translate(-52.978 -235.543)" fill="#2d62ad"/>
          </g>
          <g id="Group_23947" data-name="Group 23947" transform="translate(12.991 53.396)">
            <path id="Path_29903" data-name="Path 29903" d="M57.028,238.328a7.527,7.527,0,0,0,1.922,4.05c.622.687,1.636-.332,1.017-1.016a6.227,6.227,0,0,1-1.554-3.416c-.125-.911-1.51-.523-1.385.382Z" transform="translate(-57.02 -237.426)" fill="#2d62ad"/>
          </g>
          <g id="Group_23948" data-name="Group 23948" transform="translate(44.998 20.031)">
            <path id="Path_29904" data-name="Path 29904" d="M79.647,215.546a9.567,9.567,0,0,1,4.711,9.584c-.115.915,1.323.907,1.437,0a10.945,10.945,0,0,0-5.422-10.825.719.719,0,0,0-.726,1.241Z" transform="translate(-79.299 -214.203)" fill="#2d62ad"/>
          </g>
          <g id="Group_23949" data-name="Group 23949" transform="translate(49.356 37.077)">
            <path id="Path_29905" data-name="Path 29905" d="M82.368,226.759a15.425,15.425,0,0,0,3.337,10.682c.569.728,1.579-.294,1.016-1.016a13.932,13.932,0,0,1-2.916-9.666c.062-.924-1.375-.919-1.437,0Z" transform="translate(-82.332 -226.068)" fill="#2d62ad"/>
          </g>
          <g id="Group_23950" data-name="Group 23950" transform="translate(47.996 45.583)">
            <path id="Path_29906" data-name="Path 29906" d="M81.623,232.363a2.541,2.541,0,0,0,1.169,3.385c.835.382,1.566-.856.726-1.24a1.111,1.111,0,0,1-.654-1.419c.371-.838-.868-1.57-1.241-.726Z" transform="translate(-81.386 -231.988)" fill="#2d62ad"/>
          </g>
          <g id="Group_23951" data-name="Group 23951" transform="translate(38.882 12.594)">
            <path id="Path_29907" data-name="Path 29907" d="M75.546,210.751a9.116,9.116,0,0,0,6.347-.419c.846-.365.116-1.6-.724-1.24a7.574,7.574,0,0,1-5.242.274.719.719,0,0,0-.381,1.385Z" transform="translate(-75.042 -209.026)" fill="#2d62ad"/>
          </g>
        </g>
        <g id="Group_23958" data-name="Group 23958" transform="translate(0 154.865)">
          <path id="Path_29908" data-name="Path 29908" d="M26.51,357.837c-1.927,5.593-2.316,15.46-1.085,16.081,1.339.674,1.983-10.091,3.516-13.986-.392,4.25-.4,18.407,2.777,18.983,2.633.478-.264-12.355,1.891-16.187-.238,8.382,2.192,19.234,5.09,17.079,1.21-1.677-1.474-17,0-17.48,1.437,9.578,3.794,15.279,6.209,14.641C46.8,375.5,40.817,364,44.127,356.761c2.552.908,7.271,6.895,9.9,3.064-2.633-3.353-4.261-6.465-7.708-8.514-.977-.58-1.681-3.056-2.362-3.968a6.2,6.2,0,0,1-.81-3.8c.019-4.761,1.717-10,1.736-14.759a66.9,66.9,0,0,0-12.69.2C29.861,340.78,29.285,349.781,26.51,357.837Z" transform="translate(-24.719 -213.55)" fill="#ff9690"/>
          <path id="Path_29909" data-name="Path 29909" d="M59.2,250.543c-8.313,7.064-17.423,50.334-21.309,61.622-.822,2.385-6.617,29.535-11.558,50.342-.668,2.814,1.833,5.163,1.424,7.377-.761,4.117-1,7-.465,7.907,3.178,5.353,11.137,6.01,16.617,3.057,1.014-.546.782-5.323,2.483-8.7.711-1.412,2.326-3.988,2.776-5.863,5.411-22.533,6.9-31.255,8.507-38.738,5.642-12.421,6.767-18.3,17.486-36.17,7.709-12.851,4.859-16.334,4.017-22.655C77.074,252.978,66.529,244.312,59.2,250.543Z" transform="translate(-24.066 -248.51)" fill="#ffa950"/>
          <g id="Group_23953" data-name="Group 23953" transform="translate(50.36 15.224)">
            <path id="Path_29910" data-name="Path 29910" d="M61.71,282.247a39.422,39.422,0,0,0-.514-22.642c-.282-.876-1.669-.5-1.385.382a37.957,37.957,0,0,1,.513,21.878.72.72,0,0,0,1.386.382Z" transform="translate(-59.772 -259.107)" fill="#e88622"/>
          </g>
          <g id="Group_23954" data-name="Group 23954" transform="translate(54.374 31.337)">
            <path id="Path_29911" data-name="Path 29911" d="M63.942,278.222a16.386,16.386,0,0,0,2.948-7c.151-.9-1.233-1.293-1.386-.382a15.421,15.421,0,0,1-2.8,6.655c-.546.747.7,1.465,1.24.726Z" transform="translate(-62.567 -270.323)" fill="#e88622"/>
          </g>
          <g id="Group_23955" data-name="Group 23955" transform="translate(22.811 68.654)">
            <path id="Path_29912" data-name="Path 29912" d="M41.011,296.646c-1.911,3.3,3.291,7.136,5.558,8.731.759.533,1.477-.713.726-1.241-1.463-1.027-6.311-4.576-5.043-6.765a.719.719,0,0,0-1.241-.724Z" transform="translate(-40.597 -296.297)" fill="#e88622"/>
          </g>
          <g id="Group_23956" data-name="Group 23956" transform="translate(27.814 67.272)">
            <path id="Path_29913" data-name="Path 29913" d="M47.215,301.609q-.858-2.886-1.717-5.77a.719.719,0,0,0-1.385.382q.858,2.883,1.717,5.77a.719.719,0,0,0,1.385-.382Z" transform="translate(-44.08 -295.335)" fill="#e88622"/>
          </g>
          <g id="Group_23957" data-name="Group 23957" transform="translate(5.913 122.942)">
            <path id="Path_29914" data-name="Path 29914" d="M29.168,335.442a12.374,12.374,0,0,0,12.538.549c.822-.424.1-1.664-.726-1.24a10.9,10.9,0,0,1-11.087-.55c-.78-.5-1.5.744-.726,1.241Z" transform="translate(-28.835 -334.084)" fill="#e88622"/>
          </g>
        </g>
      </g>
    </g>
    <path id="Path_29915" data-name="Path 29915" d="M278.279,222.139A4.14,4.14,0,1,1,274.14,218,4.139,4.139,0,0,1,278.279,222.139Z" transform="translate(107.107 80.947)" fill="#fff"/>
    <g id="Group_23961" data-name="Group 23961" transform="translate(199.14 53.064)">
      <path id="Path_29916" data-name="Path 29916" d="M246.967,99.018V85.6H236.881a35.67,35.67,0,0,0-5.617-13.562l7.14-7.126-9.482-9.482-7.14,7.126a35.671,35.671,0,0,0-13.562-5.617V46.852h-13.4V56.937a35.831,35.831,0,0,0-13.577,5.617l-7.126-7.126-9.482,9.482,7.126,7.126A35.9,35.9,0,0,0,166.139,85.6H156.054V99.018h10.085a35.9,35.9,0,0,0,5.617,13.562l-7.126,7.126,9.482,9.482,7.126-7.126a35.831,35.831,0,0,0,13.577,5.617v10.085h13.4V127.679a35.671,35.671,0,0,0,13.562-5.617l7.14,7.126,9.482-9.482-7.14-7.126a35.67,35.67,0,0,0,5.617-13.562ZM201.51,115.453a23.145,23.145,0,1,1,23.145-23.145A23.137,23.137,0,0,1,201.51,115.453Z" transform="translate(-141.789 -46.852)" fill="#6364d9"/>
      <path id="Path_29917" data-name="Path 29917" d="M284.034,276.162v-5.491h-4.128a14.6,14.6,0,0,0-2.3-5.55l2.922-2.916-3.88-3.88-2.922,2.916a14.6,14.6,0,0,0-5.55-2.3v-4.128H262.69v4.128a14.663,14.663,0,0,0-5.556,2.3l-2.916-2.916-3.879,3.88,2.915,2.916a14.694,14.694,0,0,0-2.3,5.55h-4.128v5.491h4.128a14.7,14.7,0,0,0,2.3,5.55l-2.915,2.916,3.879,3.88,2.916-2.916a14.662,14.662,0,0,0,5.556,2.3v4.128h5.487v-4.128a14.6,14.6,0,0,0,5.55-2.3l2.922,2.916,3.88-3.88-2.922-2.916a14.612,14.612,0,0,0,2.3-5.55Zm-18.6,6.727a9.472,9.472,0,1,1,9.472-9.472A9.468,9.468,0,0,1,265.43,282.888Z" transform="translate(-102.151 43.959)" fill="#ffa950"/>
      <path id="Path_29918" data-name="Path 29918" d="M201.148,219.551v-8.113h-6.1a21.667,21.667,0,0,0-3.4-8.216l4.313-4.313-5.74-5.74-4.313,4.313a21.81,21.81,0,0,0-8.208-3.391v-6.113h-8.122v6.113a21.7,21.7,0,0,0-8.208,3.391l-4.322-4.313-5.74,5.74,4.322,4.313a21.667,21.667,0,0,0-3.4,8.216h-6.1v8.113h6.1a21.571,21.571,0,0,0,3.4,8.208l-4.322,4.322,5.74,5.74,4.322-4.322a21.571,21.571,0,0,0,8.208,3.4v6.113H177.7V236.9a21.685,21.685,0,0,0,8.208-3.4l4.313,4.322,5.74-5.74-4.313-4.322a21.571,21.571,0,0,0,3.4-8.208Zm-27.511,4.313a8.369,8.369,0,1,1,8.373-8.374A8.373,8.373,0,0,1,173.637,223.864Z" transform="translate(-146.125 14.774)" fill="#6364d9"/>
      <path id="Path_29919" data-name="Path 29919" d="M366.47,202.688v-4.643h-3.494a12.405,12.405,0,0,0-1.947-4.7l2.47-2.468-3.286-3.286-2.468,2.468a12.5,12.5,0,0,0-4.7-1.941v-3.5H348.4v3.5a12.424,12.424,0,0,0-4.7,1.941l-2.474-2.468-3.286,3.286,2.474,2.468a12.429,12.429,0,0,0-1.947,4.7h-3.494v4.643h3.494a12.371,12.371,0,0,0,1.947,4.7l-2.474,2.474,3.286,3.286,2.474-2.474a12.363,12.363,0,0,0,4.7,1.945v3.5h4.649v-3.5a12.436,12.436,0,0,0,4.7-1.945l2.468,2.474,3.286-3.286-2.47-2.474a12.348,12.348,0,0,0,1.947-4.7Zm-15.749,2.47a4.791,4.791,0,1,1,4.794-4.793A4.792,4.792,0,0,1,350.721,205.158Z" transform="translate(-63.661 13.305)" fill="#b9baff"/>
      <path id="Path_29920" data-name="Path 29920" d="M386.122,125.7H384.15a27.5,27.5,0,0,0-3.5-8.428l1.4-1.391a3.2,3.2,0,0,0,0-4.527l-4.175-4.175a3.2,3.2,0,0,0-4.526,0l-1.4,1.4a27.071,27.071,0,0,0-8.416-3.5v-1.973a3.2,3.2,0,0,0-3.2-3.2h-5.9a3.2,3.2,0,0,0-3.211,3.2v1.973a27.3,27.3,0,0,0-8.416,3.5l-1.4-1.4a3.2,3.2,0,0,0-4.526,0l-4.175,4.175a3.2,3.2,0,0,0,0,4.527l1.4,1.391a27.746,27.746,0,0,0-3.5,8.428h-1.973a3.2,3.2,0,0,0-3.2,3.2v5.9a3.205,3.205,0,0,0,3.2,3.21h1.973a27.57,27.57,0,0,0,3.5,8.417l-1.4,1.4a3.2,3.2,0,0,0,0,4.527l4.175,4.163a3.182,3.182,0,0,0,4.526,0l1.4-1.392a27.245,27.245,0,0,0,8.416,3.485v1.984a3.206,3.206,0,0,0,3.211,3.2h5.9a3.2,3.2,0,0,0,3.2-3.2v-1.984a27.259,27.259,0,0,0,8.416-3.485l1.4,1.392a3.182,3.182,0,0,0,4.526,0l4.175-4.163a3.2,3.2,0,0,0,0-4.527l-1.4-1.4a27.323,27.323,0,0,0,3.5-8.417h1.973a3.206,3.206,0,0,0,3.2-3.21v-5.9A3.2,3.2,0,0,0,386.122,125.7Zm-28.733,19.233a13.085,13.085,0,1,1,13.085-13.084A13.086,13.086,0,0,1,357.389,144.931Z" transform="translate(-67.822 -23.682)" fill="#6364d9"/>
    </g>
    <g id="Group_24001" data-name="Group 24001" transform="translate(193.393 32.627)">
      <g id="Group_23977" data-name="Group 23977" transform="translate(0 248.361)">
        <path id="Path_29921" data-name="Path 29921" d="M239.068,306.211a4.446,4.446,0,0,0-1.113-2.494c-1.406-1.425-3.845-1.151-5.57-.134-1.889,1.112-3.268,2.9-4.955,4.3s-4.007,2.432-6.046,1.628c-3.179-1.256,4.224-10.45-1.858-11.937-4.669-2.324-4.755,6.429-5.8,7.847s-3.241,2.151-4.619,1.049c-1.794-1.435-1.1-4.807-3.083-5.975-2.046-1.208-4.4,1.375-4.689,3.732-5.869-.408-7.844-8.119-10.14-7.889a3.2,3.2,0,0,0-1.809.634c-1.3,1.126-.56,3.284-1.141,4.9-1,2.79-5.271,2.534-7.531.615s-3.57-4.823-5.987-6.541-6.841-1.129-7.093,1.826a5.212,5.212,0,0,0,1.616,3.625,25.269,25.269,0,0,0,9.126,6.7,12.24,12.24,0,0,1,3.615,1.938,3.165,3.165,0,0,1,.908,3.707c-.967,1.7-3.645,1.539-4.89,3.047-1.4,1.692.036,4.469,2.1,5.2s4.343.083,6.439-.566a7.177,7.177,0,0,0-.328,6.024,5.072,5.072,0,0,0,4.957,3.06c2.155-.24,4.441-2.042,6.231-.816a3.837,3.837,0,0,1,1.333,2.3c.82,3.162.444,6.567,1.467,9.669s4.429,5.908,7.386,4.52c.03-2.812-1.45-5.423-1.794-8.215s1.326-6.314,4.129-6.087c2.276.182,3.9,2.777,6.183,2.684,2.656-.111,3.619-4.056,1.99-6.158-.727-.938-1.794-1.671-2.144-2.806-.533-1.734,1-3.564,2.766-3.988a8.815,8.815,0,0,1,5.281.859c2.371.971,5.935,1.662,6.76-.763.839-2.468-2.556-4.084-5.135-4.475,1.784-2.25,5.273-1.7,8.024-2.513A7.945,7.945,0,0,0,239.068,306.211Z" transform="translate(-130.992 -166.419)" fill="#fff"/>
        <path id="Path_29922" data-name="Path 29922" d="M180.033,267.962c-3.688,3.811,8.189,32.888,8.644,33.088C189.328,301.335,191.795,255.8,180.033,267.962Z" transform="translate(-125.881 -179.126)" fill="#fff"/>
        <path id="Path_29923" data-name="Path 29923" d="M225.2,286.244c1.343-.981,3.224-1.86,4.564-.876a2.915,2.915,0,0,1,.461,3.715,8.936,8.936,0,0,1-3,2.733c-4.794,3.218-16.338,13.294-18.162,13.868C214.764,296.86,221.2,289.168,225.2,286.244Z" transform="translate(-112.896 -170.812)" fill="#b9baff"/>
        <path id="Path_29924" data-name="Path 29924" d="M148.428,305.289c3.847,5.525,11.06,4.722,17.095,5.011,6.034.335,11.888.34,17.716,2.141C178.16,305.05,145.386,295,148.428,305.289Z" transform="translate(-139.459 -163.842)" fill="#fff"/>
        <path id="Path_29925" data-name="Path 29925" d="M223.9,329.4a26.843,26.843,0,0,1,6.1,5.435,12.279,12.279,0,0,1,2.786,7.55c-1.319.611-2.824,1.21-4.178.684A5.694,5.694,0,0,1,226.357,341c-5.093-6.7-11.225-12.093-16.878-18.2C214.632,323.222,220.916,327.332,223.9,329.4Z" transform="translate(-112.713 -154.276)" fill="#fff"/>
        <path id="Path_29926" data-name="Path 29926" d="M164.625,348.887a6.187,6.187,0,0,0-.718,3.063,2.321,2.321,0,0,0,1.964,2.164c1.181.055,2.042-1.056,2.685-2.046l6.2-9.548a41.936,41.936,0,0,1,4.426-6c2.687-2.859,4.622-5.965,8.818-9.9C178.779,324.827,167.593,342.148,164.625,348.887Z" transform="translate(-132.622 -152.668)" fill="#b9baff"/>
        <circle id="Ellipse_4151" data-name="Ellipse 4151" cx="3.64" cy="3.64" r="3.64" transform="translate(113.08 152.939)" fill="#b9baff"/>
        <path id="Path_29927" data-name="Path 29927" d="M172.541,280.867a4.327,4.327,0,1,1-4.326-4.327A4.327,4.327,0,0,1,172.541,280.867Z" transform="translate(-132.622 -174.479)" fill="#b9baff"/>
        <path id="Path_29928" data-name="Path 29928" d="M191.6,257.11a2.651,2.651,0,1,1-2.651-2.651A2.651,2.651,0,0,1,191.6,257.11Z" transform="translate(-122.837 -184.121)" fill="#fff"/>
        <path id="Path_29929" data-name="Path 29929" d="M168.809,322.676a5.655,5.655,0,1,1-5.655-5.655A5.654,5.654,0,0,1,168.809,322.676Z" transform="translate(-135.411 -156.802)" fill="#b9baff"/>
        <path id="Path_29930" data-name="Path 29930" d="M252.767,235.3a2.8,2.8,0,1,1-2.8-2.8A2.8,2.8,0,0,1,252.767,235.3Z" transform="translate(-96.257 -193.709)" fill="#b9baff"/>
        <path id="Path_29931" data-name="Path 29931" d="M209.044,222.673a2.647,2.647,0,1,1-2.648-2.646A2.648,2.648,0,0,1,209.044,222.673Z" transform="translate(-115.215 -199.156)" fill="#fff"/>
        <path id="Path_29932" data-name="Path 29932" d="M156.168,258.428a3.969,3.969,0,1,1-3.968-3.97A3.969,3.969,0,0,1,156.168,258.428Z" transform="translate(-139.459 -184.121)" fill="#fff"/>
        <path id="Path_29933" data-name="Path 29933" d="M200.055,231.762a4.018,4.018,0,1,1-4.018-4.018A4.019,4.019,0,0,1,200.055,231.762Z" transform="translate(-120.338 -195.787)" fill="#b9baff"/>
        <path id="Path_29934" data-name="Path 29934" d="M196.965,208.376a2.876,2.876,0,1,1-2.876-2.876A2.876,2.876,0,0,1,196.965,208.376Z" transform="translate(-120.69 -205.5)" fill="#b9baff"/>
        <path id="Path_29935" data-name="Path 29935" d="M250.162,244.779a2.614,2.614,0,1,1-2.615-2.615A2.614,2.614,0,0,1,250.162,244.779Z" transform="translate(-97.231 -189.49)" fill="#fff"/>
        <path id="Path_29936" data-name="Path 29936" d="M238.733,281.332a2.614,2.614,0,1,1-2.615-2.615A2.615,2.615,0,0,1,238.733,281.332Z" transform="translate(-102.222 -173.528)" fill="#b9baff"/>
        <circle id="Ellipse_4152" data-name="Ellipse 4152" cx="2.715" cy="2.715" r="2.715" transform="translate(111.784 135.031)" fill="#b9baff"/>
        <circle id="Ellipse_4153" data-name="Ellipse 4153" cx="3.908" cy="3.908" r="3.908" transform="translate(85.302 183.907)" fill="#fff"/>
        <path id="Path_29937" data-name="Path 29937" d="M153.745,331.7a4.622,4.622,0,1,1-4.623-4.622A4.624,4.624,0,0,1,153.745,331.7Z" transform="translate(-141.088 -152.412)" fill="#f0eff4"/>
        <path id="Path_29938" data-name="Path 29938" d="M234.594,273.258a3.708,3.708,0,1,1-3.708-3.708A3.708,3.708,0,0,1,234.594,273.258Z" transform="translate(-104.985 -177.531)" fill="#fff"/>
        <circle id="Ellipse_4154" data-name="Ellipse 4154" cx="2.992" cy="2.992" r="2.992" transform="translate(22.089 121.841)" fill="#f0eff4"/>
        <circle id="Ellipse_4155" data-name="Ellipse 4155" cx="2.637" cy="2.637" r="2.637" transform="translate(0 104.27)" fill="#f0eff4"/>
        <path id="Path_29939" data-name="Path 29939" d="M187.789,334.247a3.14,3.14,0,1,1-3.141-3.139A3.14,3.14,0,0,1,187.789,334.247Z" transform="translate(-124.927 -150.65)" fill="#fff"/>
        <g id="Group_23962" data-name="Group 23962" transform="translate(67.574 87.643)">
          <path id="Path_29940" data-name="Path 29940" d="M190.553,304.791q2.648-18.757,4.587-37.6c.093-.919-1.343-.912-1.437,0q-1.918,18.652-4.536,37.218c-.128.9,1.257,1.3,1.385.382Z" transform="translate(-189.16 -266.504)" fill="#b9baff"/>
        </g>
        <g id="Group_23963" data-name="Group 23963" transform="translate(39.649 86.761)">
          <path id="Path_29941" data-name="Path 29941" d="M187.91,300.919l-16.867-34.661c-.405-.832-1.645-.1-1.241.724q8.435,17.331,16.867,34.663c.405.83,1.645.1,1.241-.726Z" transform="translate(-169.722 -265.89)" fill="#b9baff"/>
        </g>
        <g id="Group_23964" data-name="Group 23964" transform="translate(17.025 111.411)">
          <path id="Path_29942" data-name="Path 29942" d="M154.337,284.375l28,14.39c.82.421,1.549-.817.724-1.241l-28-14.39c-.822-.421-1.549.817-.726,1.241Z" transform="translate(-153.975 -283.048)" fill="#b9baff"/>
        </g>
        <g id="Group_23965" data-name="Group 23965" transform="translate(6.327 155.24)">
          <path id="Path_29943" data-name="Path 29943" d="M147.219,317.95l38.065-2.955c.917-.072.924-1.509,0-1.437l-38.065,2.955c-.917.072-.924,1.508,0,1.437Z" transform="translate(-146.529 -313.555)" fill="#b9baff"/>
        </g>
        <g id="Group_23966" data-name="Group 23966" transform="translate(20.613 163.834)">
          <path id="Path_29944" data-name="Path 29944" d="M157.5,337.225a256.128,256.128,0,0,1,24.548-16.344.718.718,0,0,0-.724-1.24,256.03,256.03,0,0,0-24.548,16.342c-.73.549-.016,1.8.724,1.241Z" transform="translate(-156.472 -319.537)" fill="#b9baff"/>
        </g>
        <g id="Group_23967" data-name="Group 23967" transform="translate(89.002 169.418)">
          <path id="Path_29945" data-name="Path 29945" d="M204.285,324.652a176.226,176.226,0,0,1,17.684,20.833c.537.741,1.784.026,1.241-.726a178.641,178.641,0,0,0-17.91-21.123.719.719,0,0,0-1.016,1.016Z" transform="translate(-204.075 -323.424)" fill="#b9baff"/>
        </g>
        <g id="Group_23968" data-name="Group 23968" transform="translate(77.894 173.185)">
          <path id="Path_29946" data-name="Path 29946" d="M196.364,326.942q3.982,17.231,7.968,34.464c.207.9,1.593.52,1.385-.381q-3.985-17.234-7.968-34.466c-.208-.9-1.593-.519-1.385.382Z" transform="translate(-196.343 -326.046)" fill="#b9baff"/>
        </g>
        <g id="Group_23969" data-name="Group 23969" transform="translate(65.907 181.763)">
          <path id="Path_29947" data-name="Path 29947" d="M188,332.711v26.578a.719.719,0,0,0,1.437,0V332.711a.719.719,0,0,0-1.437,0Z" transform="translate(-188 -332.017)" fill="#b9baff"/>
        </g>
        <g id="Group_23970" data-name="Group 23970" transform="translate(103.939 159.549)">
          <path id="Path_29948" data-name="Path 29948" d="M214.81,317.909l21.628,13.525c.786.491,1.509-.751.724-1.241l-21.628-13.525c-.786-.491-1.507.751-.724,1.241Z" transform="translate(-214.472 -316.554)" fill="#b9baff"/>
        </g>
        <g id="Group_23971" data-name="Group 23971" transform="translate(111.204 146.427)">
          <path id="Path_29949" data-name="Path 29949" d="M220.216,308.862l16.506,1.611c.919.09.912-1.348,0-1.437l-16.506-1.611c-.919-.091-.912,1.348,0,1.437Z" transform="translate(-219.529 -307.421)" fill="#b9baff"/>
        </g>
        <g id="Group_23972" data-name="Group 23972" transform="translate(94.476 94.84)">
          <path id="Path_29950" data-name="Path 29950" d="M209.248,302.634q9.967-14.9,19.536-30.059c.494-.784-.749-1.506-1.241-.724Q218,287.017,208.008,301.908c-.516.771.728,1.491,1.24.725Z" transform="translate(-207.886 -271.514)" fill="#b9baff"/>
        </g>
        <g id="Group_23973" data-name="Group 23973" transform="translate(76.685 36.787)">
          <path id="Path_29951" data-name="Path 29951" d="M196.91,296.571c5.205-21.389,9.229-43.036,13.782-64.567.19-.9-1.194-1.287-1.386-.382-4.551,21.531-8.577,43.179-13.781,64.567-.218.9,1.167,1.281,1.385.382Z" transform="translate(-195.502 -231.106)" fill="#fff"/>
        </g>
        <g id="Group_23974" data-name="Group 23974" transform="translate(111.636 55.329)">
          <path id="Path_29952" data-name="Path 29952" d="M221.173,279.8c6.682-11.429,12.847-23.149,19.3-34.706.451-.809-.79-1.533-1.241-.726-6.454,11.558-12.618,23.277-19.3,34.706a.719.719,0,0,0,1.24.726Z" transform="translate(-219.83 -244.012)" fill="#fff"/>
        </g>
        <g id="Group_23975" data-name="Group 23975" transform="translate(122.866 53.539)">
          <path id="Path_29953" data-name="Path 29953" d="M229.014,269.8c5.9-8.514,11.7-17.083,17.022-25.969a.719.719,0,0,0-1.241-.725c-5.324,8.886-11.123,17.457-17.02,25.969-.527.761.717,1.481,1.24.726Z" transform="translate(-227.646 -242.766)" fill="#fff"/>
        </g>
        <g id="Group_23976" data-name="Group 23976" transform="translate(78.543 48.021)">
          <path id="Path_29954" data-name="Path 29954" d="M198.2,261.145q2.218-10.661,4.434-21.32c.188-.9-1.2-1.289-1.385-.382q-2.218,10.661-4.434,21.32c-.188.9,1.2,1.289,1.385.382Z" transform="translate(-196.795 -238.925)" fill="#fff"/>
        </g>
      </g>
      <g id="Group_24000" data-name="Group 24000" transform="translate(54.15)">
        <g id="Group_23983" data-name="Group 23983" transform="translate(14.957 216.941)">
          <path id="Path_29955" data-name="Path 29955" d="M286.406,209.91c.677-11.462-6.126-18.682-16.948-22.516-11.034-3.908-25.323-6.731-38.855,1.853-2.432,3.215-14.867,3.893-20.543,10.672-4.823,5.758-1.483,16.427,8.215,13.627-2.539,4.1-2.539,8.182-1.224,10.4,1.846,3.119,6.6,4.179,10.2,1.875-11.518,42.166-18.453,71.8-36.994,137.2-.46,6.218,4.017,6.293,7.363,1.885,23.376-47.484,41.748-73.8,65.788-129.283,0,0,3.536,7.745,10.176,5.765,4.991-1.488,4.307-7.619,4.307-7.619a7.364,7.364,0,0,0,6.025,2.8c5.112-1.5,2.406-4.671,1.405-9.422,2.263,1.773,6.518.52,7.175-2.279C294.2,217.646,286.158,214.114,286.406,209.91Z" transform="translate(-190.227 -183.63)" fill="#6364d9"/>
          <path id="Path_29956" data-name="Path 29956" d="M192.018,350.129l58.816-132.645s.421,6.137,6.527,3.619Z" transform="translate(-189.445 -168.846)" fill="#b9baff"/>
          <path id="Path_29957" data-name="Path 29957" d="M234.345,207.48s-.718,7.571,7.183,5.416L195.375,338.605Z" transform="translate(-187.979 -173.215)" fill="#b9baff"/>
          <g id="Group_23978" data-name="Group 23978" transform="translate(26.938 17.886)">
            <path id="Path_29958" data-name="Path 29958" d="M209.222,196.577a4.627,4.627,0,0,0,1.678,5.263c2.082,1.523,4.722,1.029,6.864-.034l-1.082-.621a4.868,4.868,0,0,0,7.267,4.5c.83-.405.1-1.645-.726-1.241a3.426,3.426,0,0,1-5.1-3.261.726.726,0,0,0-1.08-.621c-2.7,1.342-7.79.563-6.431-3.6.287-.882-1.1-1.259-1.386-.382Z" transform="translate(-208.977 -196.079)" fill="#b9baff"/>
          </g>
          <g id="Group_23979" data-name="Group 23979" transform="translate(65.633 37.507)">
            <path id="Path_29959" data-name="Path 29959" d="M235.93,214.237a5.245,5.245,0,0,0,5.7,4.057c3.256-.246,5.423-3.143,6.78-5.8-.376.047-.751.1-1.128.145,1.616,2.085,3.659,4.395,6.57,3.916,2.84-.467,4.327-3.356,5.4-5.722.378-.836-.859-1.567-1.24-.726-.714,1.58-1.531,3.649-3.191,4.408-2.662,1.217-4.923-.833-6.52-2.892a.721.721,0,0,0-1.128.145,10.373,10.373,0,0,1-3.337,4.23c-2.378,1.539-5.852.963-6.518-2.145-.194-.9-1.579-.522-1.385.382Z" transform="translate(-235.911 -209.736)" fill="#b9baff"/>
          </g>
          <g id="Group_23980" data-name="Group 23980" transform="translate(52.408 25.687)">
            <path id="Path_29960" data-name="Path 29960" d="M226.812,202.028a5.515,5.515,0,0,0,9.383,4.951c.647-.662-.368-1.678-1.017-1.016a4.07,4.07,0,0,1-6.981-3.553c.168-.9-1.215-1.292-1.385-.382Z" transform="translate(-226.706 -201.509)" fill="#b9baff"/>
          </g>
          <g id="Group_23981" data-name="Group 23981" transform="translate(71.155 31.793)">
            <path id="Path_29961" data-name="Path 29961" d="M239.778,206.654a4.663,4.663,0,0,0,8.2,1.882c.575-.714-.435-1.737-1.016-1.016a3.231,3.231,0,0,1-5.794-1.248c-.217-.9-1.6-.517-1.386.382Z" transform="translate(-239.755 -205.759)" fill="#b9baff"/>
          </g>
          <g id="Group_23982" data-name="Group 23982" transform="translate(39.42 14.232)">
            <path id="Path_29962" data-name="Path 29962" d="M218.319,193.887a4.766,4.766,0,0,0,5.372,7,.719.719,0,0,0-.382-1.385,3.316,3.316,0,0,1-3.748-4.892.719.719,0,0,0-1.241-.726Z" transform="translate(-217.665 -193.536)" fill="#b9baff"/>
          </g>
        </g>
        <g id="Group_23999" data-name="Group 23999">
          <path id="Path_29963" data-name="Path 29963" d="M316.9,195.639l-21.95,49.16s-15.951,7.1-42.992-3.678c-27.167-10.825-31.126-23.765-31.126-23.765L236.18,165.75q2.875-10.536,6.656-20.75a247.828,247.828,0,0,1,63.711-95.549l15.571-14.46a8.806,8.806,0,0,1,14.74,5.456l2.386,21.11A247.512,247.512,0,0,1,316.9,195.639Z" transform="translate(-161.905 -32.627)" fill="#fff"/>
          <rect id="Rectangle_2765" data-name="Rectangle 2765" transform="translate(115.804 266.762)" fill="#fed190"/>
          <path id="Path_29964" data-name="Path 29964" d="M274.521,219.7c-14.209,4.409-49.108-7.377-55.8-20.662-4.276-8.484,3.6-37.83,3.6-37.83,19.632,21.251,58.095,29.716,74.114,27.442C296.429,188.65,283.593,216.885,274.521,219.7Z" transform="translate(-163.385 23.52)" fill="#ffa950"/>
          <g id="Group_23989" data-name="Group 23989" transform="translate(60.1 201.698)">
            <g id="Group_23984" data-name="Group 23984">
              <path id="Path_29965" data-name="Path 29965" d="M223.093,191.292a136.973,136.973,0,0,1,3.385-17.381.719.719,0,0,0-1.385-.381,139.774,139.774,0,0,0-3.437,17.762c-.116.915,1.32.907,1.437,0Z" transform="translate(-221.649 -173.02)" fill="#e88622"/>
            </g>
            <g id="Group_23985" data-name="Group 23985" transform="translate(11.287 5.753)">
              <path id="Path_29966" data-name="Path 29966" d="M230.943,196.231c2.353-6.007,3.691-12.337,6.044-18.343.338-.861-1.05-1.234-1.385-.381-2.353,6.005-3.691,12.337-6.044,18.342-.338.861,1.052,1.234,1.385.382Z" transform="translate(-229.505 -177.024)" fill="#e88622"/>
            </g>
            <g id="Group_23986" data-name="Group 23986" transform="translate(22.786 13.304)">
              <path id="Path_29967" data-name="Path 29967" d="M238.815,200.19q3.575-8.409,6.583-17.035c.3-.875-1.083-1.251-1.386-.382q-2.942,8.454-6.438,16.693c-.358.84.881,1.573,1.241.724Z" transform="translate(-237.509 -182.28)" fill="#e88622"/>
            </g>
            <g id="Group_23987" data-name="Group 23987" transform="translate(34.006 16.523)">
              <path id="Path_29968" data-name="Path 29968" d="M246.628,202.842c2.615-5.951,6.074-11.462,8.591-17.464.358-.852-1.032-1.224-1.385-.382-2.468,5.887-5.883,11.285-8.448,17.121-.368.839.869,1.57,1.241.726Z" transform="translate(-245.319 -184.521)" fill="#e88622"/>
            </g>
            <g id="Group_23988" data-name="Group 23988" transform="translate(45.648 20.148)">
              <path id="Path_29969" data-name="Path 29969" d="M254.777,203.806q5.043-8.017,10.544-15.721c.537-.754-.708-1.471-1.241-.726q-5.5,7.708-10.542,15.721c-.494.784.749,1.507,1.24.726Z" transform="translate(-253.423 -187.044)" fill="#e88622"/>
            </g>
          </g>
          <path id="Path_29970" data-name="Path 29970" d="M238.747,183.259c-29.206-10.814-76.448,25.724-52.268-26.209,24.2-51.94,74.269-46.146,74.269-46.146q-3.776,10.2-6.656,20.75Z" transform="translate(-179.817 1.47)" fill="#ffa950"/>
          <path id="Path_29971" data-name="Path 29971" d="M272.422,201.353c29.2,10.814,41.261,69.307,56.731,14.15,15.463-55.175-26.307-83.386-26.307-83.386q-3.778,10.2-8.462,20.082Z" transform="translate(-139.378 10.817)" fill="#ffa950"/>
          <g id="Group_23994" data-name="Group 23994" transform="translate(91.174 74.757)">
            <circle id="Ellipse_4156" data-name="Ellipse 4156" cx="27.893" cy="27.893" r="27.893" transform="translate(0 23.085) rotate(-24.445)" fill="#ffa950"/>
            <circle id="Ellipse_4157" data-name="Ellipse 4157" cx="19.724" cy="19.724" r="19.724" transform="translate(13.911 21.191) rotate(-10.635)" fill="#00baff"/>
            <g id="Group_23993" data-name="Group 23993" transform="translate(23.782 23.074)">
              <g id="Group_23990" data-name="Group 23990" transform="translate(0 7.524)">
                <path id="Path_29972" data-name="Path 29972" d="M259.9,107.058a149.985,149.985,0,0,0,8.246,15.658.719.719,0,0,0,1.24-.726,149.976,149.976,0,0,1-8.245-15.658c-.381-.84-1.621-.111-1.241.726Z" transform="translate(-259.831 -105.96)" fill="#7be0ff"/>
              </g>
              <g id="Group_23991" data-name="Group 23991" transform="translate(7.502)">
                <path id="Path_29973" data-name="Path 29973" d="M265.139,101.809Q271.7,114.6,278.26,127.4c.422.823,1.662.1,1.241-.726q-6.562-12.792-13.121-25.586c-.422-.823-1.662-.1-1.241.724Z" transform="translate(-265.053 -100.723)" fill="#7be0ff"/>
              </g>
              <g id="Group_23992" data-name="Group 23992" transform="translate(18.559 3.276)">
                <path id="Path_29974" data-name="Path 29974" d="M272.849,104.079a78.73,78.73,0,0,1,4.6,9.525c.34.848,1.731.477,1.386-.382a81.72,81.72,0,0,0-4.745-9.868.719.719,0,0,0-1.24.726Z" transform="translate(-272.75 -103.003)" fill="#7be0ff"/>
              </g>
            </g>
          </g>
          <path id="Path_29975" data-name="Path 29975" d="M322.806,102.425l-.013,0c-36.9,5.28-61.471-22.761-61.471-22.761a247.867,247.867,0,0,1,27.545-30.207l15.571-14.46a8.806,8.806,0,0,1,14.74,5.456l2.386,21.11A247.572,247.572,0,0,1,322.806,102.425Z" transform="translate(-144.225 -32.627)" fill="#ffa950"/>
          <g id="Group_23998" data-name="Group 23998" transform="translate(15.681 9.537)">
            <g id="Group_23995" data-name="Group 23995" transform="translate(127.173 198.672)">
              <path id="Path_29976" data-name="Path 29976" d="M279.945,178.989c5.474-.039,9.423,5.643,12.384,9.6,2.145,2.865,3.855,5.972,5.824,8.945,2.615,3.949,5.721,8.619,9.54,11.492,8.274,6.222,11.019-15.621,11.065-19.708a.719.719,0,0,0-1.437,0c-.06,5.278-.8,11.463-3.511,16.1-1.542,2.643-3.57,4-6.02,1.8a42.162,42.162,0,0,1-4.816-5.5c-3.32-4.255-5.83-8.986-9.019-13.327-3.363-4.579-7.691-10.878-14.01-10.834a.719.719,0,0,0,0,1.437Z" transform="translate(-279.251 -177.552)" fill="#e88622"/>
            </g>
            <g id="Group_23996" data-name="Group 23996" transform="translate(0 113.416)">
              <path id="Path_29977" data-name="Path 29977" d="M192.044,156.164a65.625,65.625,0,0,1,17.523-23.158c9.287-8.04,19.9-14.163,32.605-13.273.922.063.918-1.373,0-1.437-12.268-.859-23.115,4.7-32.209,12.48-8.287,7.09-14.628,14.645-19.161,24.663-.378.836.861,1.567,1.241.724Z" transform="translate(-190.732 -118.209)" fill="#e88622"/>
            </g>
            <g id="Group_23997" data-name="Group 23997" transform="translate(112.809)">
              <path id="Path_29978" data-name="Path 29978" d="M270.443,73.891c5.153-6.27,10.581-12.307,15.957-18.385,4.787-5.412,10.66-14.849,18.731-14.8a.719.719,0,0,0,0-1.437c-7.577-.043-12.467,6.994-17,12.117-6.291,7.113-12.674,14.156-18.706,21.493-.582.71.428,1.731,1.016,1.016Z" transform="translate(-269.252 -39.266)" fill="#e88622"/>
            </g>
          </g>
        </g>
      </g>
    </g>
    <g id="Group_24048" data-name="Group 24048" transform="translate(171.795 298.129)">
      <ellipse id="Ellipse_4158" data-name="Ellipse 4158" cx="133.917" cy="9.669" rx="133.917" ry="9.669" transform="translate(0 345.565)" fill="#b9baff"/>
      <g id="Group_24047" data-name="Group 24047" transform="translate(27.693)">
        <g id="Group_24038" data-name="Group 24038">
          <g id="Group_24009" data-name="Group 24009" transform="translate(187.92)">
            <path id="Path_29979" data-name="Path 29979" d="M307.2,225.512l.425-2.738c-.037-1.534-1.771-4.265-4.6-3.26,0,0-1.641-2.077-2.918-2.083-1.257-.007-2.536.089-3.233,1.437a6.218,6.218,0,0,0-3.432-.961c-1.136.191-2.135,1.662-2.494,2.666a1.939,1.939,0,0,0-2.447-.159c-2.691,1.546-1.942,4.78-1.954,7.882-.011,3.5-.807,9.249,2.793,11.949.815.612-2.474,10.7-2.882,13.921-.557,4.4,12.651.971,15.548,1.257,1.632-6.261.257-12.995,1.714-14.736.99-1.184,2.251-2.937,4.708-6.574C309.448,230.9,310.346,226.231,307.2,225.512Z" transform="translate(-273.119 -217.431)" fill="#ff9690"/>
            <path id="Path_29980" data-name="Path 29980" d="M323.072,323.377c-3.62-4.639-19.947-14.592-16.655-31.98.885-4.679,4.133-40.381,3.63-43.433a19.88,19.88,0,0,0-1.577-3.957c.234-2.158.257-5.936.524-7.277-6.994-1.588-12.467-1.089-17.944-1.089-.319.961-.238,5.58-.556,6.556-.585,1.8-3.085,3.274-3.658,5.117-3.662,11.784-6.387,28.916-8.744,42.455C274,313.291,283.8,330.961,301.719,346.74c4.35,3.83,14.441.855,18.065-3.26C323.365,339.44,327.7,329.307,323.072,323.377Z" transform="translate(-277.169 -209.511)" fill="#ffa950"/>
            <g id="Group_24002" data-name="Group 24002" transform="translate(20.404 8.029)">
              <path id="Path_29981" data-name="Path 29981" d="M302.6,223.049c-1.764.493-3.954.978-5.728.318a.724.724,0,0,0-.812.33,3.2,3.2,0,0,1-2.676,1.817,3.689,3.689,0,0,0-1.1.144,1.493,1.493,0,0,0-.786,2.011,3.088,3.088,0,0,0,2.826,1.573c2.007.1,4.119-.027,6.145,0a.719.719,0,0,0,0-1.437c-1.389-.022-2.784-.181-4.175-.131a14.878,14.878,0,0,1-1.97.126c-.295-.03-1.962-.352-1.317-.855.29-.227,1.542-.158,1.967-.33a4.73,4.73,0,0,0,2.324-2.2l-.81.329c2,.746,4.5.24,6.492-.318a.719.719,0,0,0-.382-1.385Z" transform="translate(-291.372 -223.019)" fill="#dd7878"/>
            </g>
            <g id="Group_24003" data-name="Group 24003" transform="translate(27.716 3.527)">
              <path id="Path_29982" data-name="Path 29982" d="M297.9,225.068c.034-1.5.421-2.985.455-4.49a.719.719,0,0,0-1.437,0c-.034,1.5-.421,2.987-.455,4.49a.719.719,0,0,0,1.437,0Z" transform="translate(-296.461 -219.886)" fill="#dd7878"/>
            </g>
            <g id="Group_24004" data-name="Group 24004" transform="translate(23.175 2.897)">
              <path id="Path_29983" data-name="Path 29983" d="M293.314,220.141a29.748,29.748,0,0,0,.6,6.872c.187.905,1.572.522,1.386-.382a28.028,28.028,0,0,1-.546-6.489c.029-.925-1.408-.924-1.437,0Z" transform="translate(-293.3 -219.447)" fill="#dd7878"/>
            </g>
            <g id="Group_24005" data-name="Group 24005" transform="translate(18.151 4.873)">
              <path id="Path_29984" data-name="Path 29984" d="M289.8,221.517c-.007,2.356.375,8.157,4.155,6.3.83-.408.1-1.648-.724-1.241-2.033,1-2-4-1.994-5.054a.719.719,0,0,0-1.437,0Z" transform="translate(-289.803 -220.823)" fill="#dd7878"/>
            </g>
            <g id="Group_24006" data-name="Group 24006" transform="translate(14.284 6.397)">
              <path id="Path_29985" data-name="Path 29985" d="M287.114,222.577a9.049,9.049,0,0,0,.638,3.231,5.366,5.366,0,0,0,1.774,2.8,2.961,2.961,0,0,0,4.322-1.577c.27-.886-1.116-1.266-1.385-.382a1.48,1.48,0,0,1-2.59.267,7.8,7.8,0,0,1-1.322-4.343c.029-.925-1.408-.924-1.437,0Z" transform="translate(-287.111 -221.883)" fill="#dd7878"/>
            </g>
            <g id="Group_24007" data-name="Group 24007" transform="translate(22.483 12.827)">
              <path id="Path_29986" data-name="Path 29986" d="M299.649,226.378c-2.635.565-6.948,2.521-6.828,5.745.034.921,1.471.925,1.437,0-.091-2.444,3.839-3.945,5.774-4.359.9-.194.522-1.579-.382-1.386Z" transform="translate(-292.818 -226.359)" fill="#dd7878"/>
            </g>
          </g>
          <g id="Group_24024" data-name="Group 24024" transform="translate(192.456 46.658)">
            <path id="Path_29988" data-name="Path 29988" d="M280.415,283.225c-.766,2.169,3.714,1.389,3.169,5.306-.71,5.1-3.149,14.01,1.46,15.326s11.367,3.435,16.069,2.51c8.522-1.674,13.151-4.043,17.777-11.391,2.178-3.461,6.038-9.519,6.659-13.562.772-5.023.412-7.354-1.136-12.194-2.139-6.691-10.686-11.643-17.6-12.871-15.433-2.741-15.813,6.714-20.5,17.621C284.745,277.6,281.679,279.649,280.415,283.225Z" transform="translate(-280.327 -247.304)" fill="#ff9690"/>
            <path id="Path_29989" data-name="Path 29989" d="M284.367,308.528c8.854,3.3,37.264-.184,35.562-4.211-2.211-5.227-2.122-9.585-2.553-12.887-.646-12.153-15.963-12.462-16.584-12.149-3.6,1.813-5.869,2.231-6.6,6.094C291.82,297.9,292.842,300.367,284.367,308.528Z" transform="translate(-278.562 -237.109)" fill="#ff9690"/>
            <path id="Path_29990" data-name="Path 29990" d="M286.731,262.357c-.682,1.675-3.454,1.984,0,5.515,2.082,1.7,8.063,3.846,10.751,3.737,1.287-.052,6.685.023,5.412,4.191-.522,1.711-3.207,9.5,3.143,10.991,1.717,7.051-1.093,7.126.19,16.262,4.138,1.731,7.558.639,12.14,1.175,1.79-2.761,2.053-5.523,3.843-8.284a9.131,9.131,0,0,1,1.816-2.243c1.088-.875,2.533-1.218,3.6-2.116,3.5-2.938.724-8.894,2.577-13.074.5-1.123,1.323-2.077,1.827-3.2a6.428,6.428,0,0,0-1.675-7.336,12.009,12.009,0,0,1-2.221-1.883c-1.863-2.58-.507-5.324-2.711-7.622-2.167-2.258-4.806-1.309-7.7-2.491-3.536-1.445-2.964-7.866-11.874-5.169-3.4,1.03-7.238,2.488-8.9.188-3-2.33-7.847-.651-11.549,2.363C281.1,256.866,280.467,263.791,286.731,262.357Z" transform="translate(-279.552 -249.907)" fill="#003154"/>
            <path id="Path_29991" data-name="Path 29991" d="M300.7,271.391c-2.6,1.921-4.092,9.512-2.725,12.417a2.486,2.486,0,0,0,2.575,1.424,4.975,4.975,0,0,0,2.779-1.611,10.848,10.848,0,0,0,2.118-3.143C307.516,275.869,305.848,267.583,300.7,271.391Z" transform="translate(-272.845 -240.95)" fill="#ff9690"/>
            <g id="Group_24010" data-name="Group 24010" transform="translate(3.998 40.145)">
              <path id="Path_29992" data-name="Path 29992" d="M283.372,278.367c-.287,1.447-.687,2.595.947,3.164a18.445,18.445,0,0,0,5.017.7,2.931,2.931,0,0,1,.908.042l.158.007q-.649-.075-.454.688a5.089,5.089,0,0,1-1.438,2.233,5.461,5.461,0,0,1-3.734,1.092c-.922-.079-.917,1.358,0,1.437a6.135,6.135,0,0,0,6.646-4.875c.224-1.494-.259-1.971-1.635-2.039-.993-.049-1.988-.1-2.974-.228a5.756,5.756,0,0,1-1.779-.338c-.652-.369-.415-.8-.276-1.5.18-.9-1.205-1.289-1.386-.382Z" transform="translate(-283.109 -277.85)" fill="#dd7878"/>
            </g>
            <g id="Group_24011" data-name="Group 24011" transform="translate(26.169 32.213)">
              <path id="Path_29993" data-name="Path 29993" d="M300.4,275.752c.106-1.072.68-2.872,1.727-.888a4.274,4.274,0,0,1,.233,2.342,5.941,5.941,0,0,1-.47,1.974c-.638,1.27-1.457,1.185-2.654,1.151a.719.719,0,0,0,0,1.437c1.519.045,3.062-.027,3.776-1.536a7.971,7.971,0,0,0,.576-5.494c-.335-1.119-1.191-2.745-2.62-2.348-1.333.372-1.885,2.172-2,3.362-.092.919,1.345.912,1.437,0Z" transform="translate(-298.541 -272.329)" fill="#dd7878"/>
            </g>
            <g id="Group_24012" data-name="Group 24012" transform="translate(13.142 53.781)">
              <path id="Path_29994" data-name="Path 29994" d="M290.166,291.392a10.1,10.1,0,0,0,6.748-2.832c.669-.641-.348-1.655-1.017-1.016a8.549,8.549,0,0,1-5.731,2.411c-.921.03-.925,1.467,0,1.437Z" transform="translate(-289.474 -287.341)" fill="#dd7878"/>
            </g>
            <g id="Group_24013" data-name="Group 24013" transform="translate(9.906 23.223)">
              <path id="Path_29995" data-name="Path 29995" d="M287.739,267.472a10.572,10.572,0,0,1,5.941,3.319c.625.684,1.638-.333,1.016-1.016a11.842,11.842,0,0,0-6.574-3.688c-.9-.174-1.29,1.211-.382,1.385Z" transform="translate(-287.221 -266.072)" fill="#003154"/>
            </g>
            <path id="Path_29996" data-name="Path 29996" d="M286.974,269.5c-.522,1.119-.4,2.277.266,2.587s1.629-.346,2.149-1.465.4-2.279-.266-2.589S287.494,268.376,286.974,269.5Z" transform="translate(-277.566 -242.026)" fill="#003154"/>
            <g id="Group_24014" data-name="Group 24014" transform="translate(11.98 5.714)">
              <path id="Path_29997" data-name="Path 29997" d="M288.681,254.573a4.013,4.013,0,0,0,6.992,3.008c.621-.682-.394-1.7-1.016-1.016a2.581,2.581,0,0,1-4.54-1.993c.075-.921-1.362-.917-1.437,0Z" transform="translate(-288.666 -253.884)" fill="#05446b"/>
            </g>
            <g id="Group_24015" data-name="Group 24015" transform="translate(24.588 7.516)">
              <path id="Path_29998" data-name="Path 29998" d="M297.458,255.827a5.306,5.306,0,0,0,4.686,5.6c.915.114.907-1.325,0-1.437a3.871,3.871,0,0,1-3.25-4.165c.078-.921-1.359-.917-1.437,0Z" transform="translate(-297.441 -255.138)" fill="#05446b"/>
            </g>
            <g id="Group_24016" data-name="Group 24016" transform="translate(21.372 13.589)">
              <path id="Path_29999" data-name="Path 29999" d="M295.275,260.464a7.988,7.988,0,0,0,6.758,4.617c.922.066.918-1.371,0-1.437a6.57,6.57,0,0,1-5.518-3.906c-.384-.84-1.622-.111-1.24.726Z" transform="translate(-295.203 -259.366)" fill="#05446b"/>
            </g>
            <g id="Group_24017" data-name="Group 24017" transform="translate(33.235 19.348)">
              <path id="Path_30000" data-name="Path 30000" d="M303.762,263.861a4.411,4.411,0,0,0,6.133,5.462c.835-.4.106-1.638-.724-1.241a2.971,2.971,0,0,1-4.023-3.84c.326-.865-1.063-1.24-1.386-.381Z" transform="translate(-303.46 -263.375)" fill="#05446b"/>
            </g>
            <g id="Group_24018" data-name="Group 24018" transform="translate(37.427 12.957)">
              <path id="Path_30001" data-name="Path 30001" d="M306.435,259.784a8.375,8.375,0,0,0,6.876,5.2c.917.108.909-1.33,0-1.437a6.86,6.86,0,0,1-5.491-4.141c-.349-.842-1.74-.473-1.385.382Z" transform="translate(-306.378 -258.926)" fill="#05446b"/>
            </g>
            <g id="Group_24019" data-name="Group 24019" transform="translate(42.531 26.908)">
              <path id="Path_30002" data-name="Path 30002" d="M309.931,269.33a7.306,7.306,0,0,0,2.932,5.612c.731.563,1.448-.684.726-1.241a5.75,5.75,0,0,1-2.221-4.37c-.036-.922-1.473-.927-1.437,0Z" transform="translate(-309.931 -268.636)" fill="#05446b"/>
            </g>
            <g id="Group_24020" data-name="Group 24020" transform="translate(37.538 33.372)">
              <path id="Path_30003" data-name="Path 30003" d="M306.455,273.829a4.449,4.449,0,0,0,3.047,4.27c.876.3,1.254-1.088.382-1.385a2.985,2.985,0,0,1-1.993-2.885.719.719,0,0,0-1.437,0Z" transform="translate(-306.455 -273.135)" fill="#05446b"/>
            </g>
            <g id="Group_24021" data-name="Group 24021" transform="translate(12.413 13.233)">
              <path id="Path_30004" data-name="Path 30004" d="M289.282,260.49a10.248,10.248,0,0,0,4.51,1.813c.9.131,1.294-1.253.382-1.385a9.311,9.311,0,0,1-4.166-1.668c-.754-.539-1.473.707-.726,1.24Z" transform="translate(-288.966 -259.118)" fill="#05446b"/>
            </g>
            <g id="Group_24022" data-name="Group 24022" transform="translate(30.658 47.019)">
              <path id="Path_30005" data-name="Path 30005" d="M303.341,285.165a2.337,2.337,0,0,1-.175-1.636c.214-.9-1.171-1.281-1.385-.381a3.936,3.936,0,0,0,.319,2.743c.409.829,1.649.1,1.241-.726Z" transform="translate(-301.666 -282.634)" fill="#05446b"/>
            </g>
            <g id="Group_24023" data-name="Group 24023" transform="translate(34.275 46.315)">
              <path id="Path_30006" data-name="Path 30006" d="M305.618,285.886l1.078-2.873c.326-.866-1.063-1.241-1.385-.382l-1.078,2.873c-.326.866,1.063,1.241,1.385.382Z" transform="translate(-304.184 -282.145)" fill="#05446b"/>
            </g>
            <path id="Path_30007" data-name="Path 30007" d="M286.458,275.158c-.29,1.2.955,2.534,2.78,2.974s3.54-.178,3.83-1.382-.955-2.534-2.78-2.974S286.748,273.954,286.458,275.158Z" transform="translate(-277.667 -239.546)" fill="#f7827f"/>
          </g>
          <path id="Path_30008" data-name="Path 30008" d="M273.139,337.3c-4.572,23.915-13.667,38.836-20.473,54.992-1.047,2.485.918,11.792-.253,14.183a58.528,58.528,0,0,1-3.73,6.517,197.949,197.949,0,0,0,42.436,8.67c4.089.376,8.324.608,12.19-.773,4.7-1.677,8.251-5.507,11.475-9.31,12.239-14.44,22.684-30.728,28.182-48.84s3.263-53.177-7.456-65.469c-10.812-1.855-15.3-2.4-28.789-1.521a143.879,143.879,0,0,0-18.856,2.679C280.453,299.987,276.008,322.3,273.139,337.3Z" transform="translate(-101.688 -183.409)" fill="#ffa950"/>
          <g id="Group_24032" data-name="Group 24032" transform="translate(119.137 99.478)">
            <path id="Path_30009" data-name="Path 30009" d="M231.394,294.5c-.049-1.09.45-4.13,2.711-4.13.932,0,1.807-2.2,2.691-2.49,1.664-.552,2.2.922,4.458-.552,1.467-.96,5.05-.941,5.854.618.754,1.461-.644,4.7.987,4.49a2.721,2.721,0,0,1,2.155.711c1.8,2.072.3,5.808-.089,7.228-1.662,6.091-2.309,5.82-3.971,11.91a2.17,2.17,0,0,1-2.317,2c-3.151.418-6.3.819-9.443,1.306C233.354,307.546,231.762,302.765,231.394,294.5Z" transform="translate(-228.376 -286.673)" fill="#ff9690"/>
            <path id="Path_30010" data-name="Path 30010" d="M268.318,320.951a198.606,198.606,0,0,0-13.289,18.069c0-5.092-1.361-14.426-2.756-23.8-.115-.777-2.76-3.554-2.847-4.339a49.289,49.289,0,0,1-.323-6.362,153.168,153.168,0,0,0-15.894-.539,32.828,32.828,0,0,0-.448,5.388c-.145,2.618-2.9,2.941-2.993,3.856-1.9,19.174,1.817,53.772,12.335,56.664,17.415,4.79,34.059-13.795,49.561-27.476,7.211-6.363,17.874-46.767,4.669-44.9C285.558,299.039,274.388,313.5,268.318,320.951Z" transform="translate(-229.292 -281.967)" fill="#ffa950"/>
            <g id="Group_24025" data-name="Group 24025" transform="translate(18.161 6.239)">
              <path id="Path_30011" data-name="Path 30011" d="M241.937,291.7c.152,1.529-.088,3.856,1.638,4.527.862.335,1.236-1.053.382-1.385-.445-.174-.381-1.106-.418-1.487l-.165-1.655c-.092-.911-1.529-.921-1.437,0Z" transform="translate(-241.933 -291.016)" fill="#dd7878"/>
            </g>
            <g id="Group_24026" data-name="Group 24026" transform="translate(49.065 40.547)">
              <path id="Path_30012" data-name="Path 30012" d="M264.542,345.647c6.419-2.941,12.772-6.949,17.569-12.2,4.7-5.149,5.013-11.184,4.6-17.855-.057-.918-1.494-.925-1.437,0,.457,7.321-.208,13.14-5.738,18.411a57.112,57.112,0,0,1-15.717,10.407c-.839.385-.111,1.623.726,1.241Z" transform="translate(-263.444 -314.896)" fill="#ef8b24"/>
            </g>
            <g id="Group_24027" data-name="Group 24027" transform="translate(61.315 57.744)">
              <path id="Path_30013" data-name="Path 30013" d="M272.862,338.35a22.57,22.57,0,0,0,13.69-10.413.719.719,0,0,0-1.24-.726,21.1,21.1,0,0,1-12.832,9.754.719.719,0,0,0,.382,1.385Z" transform="translate(-271.971 -326.866)" fill="#ef8b24"/>
            </g>
            <g id="Group_24028" data-name="Group 24028" transform="translate(57.368 71.548)">
              <path id="Path_30014" data-name="Path 30014" d="M269.743,338.36a35.662,35.662,0,0,0,14.411-.477c.9-.215.517-1.6-.382-1.386a33.738,33.738,0,0,1-13.647.478c-.905-.154-1.293,1.231-.382,1.385Z" transform="translate(-269.223 -336.474)" fill="#ef8b24"/>
            </g>
            <g id="Group_24029" data-name="Group 24029" transform="translate(17.117 58.738)">
              <path id="Path_30015" data-name="Path 30015" d="M247.806,327.784a30.336,30.336,0,0,0-6.56,11.169c-.289.879,1.1,1.257,1.386.381a28.58,28.58,0,0,1,6.189-10.534c.625-.68-.388-1.7-1.016-1.016Z" transform="translate(-241.207 -327.558)" fill="#ef8b24"/>
            </g>
            <g id="Group_24030" data-name="Group 24030" transform="translate(23.967 60.979)">
              <path id="Path_30016" data-name="Path 30016" d="M247.344,329.628a45.571,45.571,0,0,0-1.369,9.907.719.719,0,0,0,1.437,0,43.862,43.862,0,0,1,1.317-9.525.719.719,0,0,0-1.385-.382Z" transform="translate(-245.975 -329.117)" fill="#ef8b24"/>
            </g>
            <g id="Group_24031" data-name="Group 24031" transform="translate(4.567 28.158)">
              <path id="Path_30017" data-name="Path 30017" d="M233.373,307.917a22.993,22.993,0,0,1,9.739.728.719.719,0,0,0,.381-1.385,24.689,24.689,0,0,0-10.5-.73c-.911.129-.523,1.513.382,1.386Z" transform="translate(-232.471 -306.272)" fill="#ef8b24"/>
            </g>
          </g>
          <g id="Group_24037" data-name="Group 24037" transform="translate(0 229.377)">
            <path id="Path_30018" data-name="Path 30018" d="M150.285,466.868c-1.721.746-3.684,1.813-3.9,3.676-.326,2.825,3.37,4.13,6.2,4.432a142.853,142.853,0,0,0,37.724-1.687A133.061,133.061,0,0,1,195.1,447.9a30.406,30.406,0,0,1-14.664-3.934C174.211,456.966,163.236,461.262,150.285,466.868Z" transform="translate(-146.367 -347.888)" fill="#5f3c87"/>
            <path id="Path_30019" data-name="Path 30019" d="M208.255,466.868c-1.723.746-3.685,1.813-3.9,3.676-.326,2.825,3.372,4.13,6.2,4.432,12.631,1.343,28.619.579,37.724-1.687a133.064,133.064,0,0,1,4.793-25.393,30.41,30.41,0,0,1-14.664-3.934C232.18,456.966,221.205,461.262,208.255,466.868Z" transform="translate(-121.053 -347.888)" fill="#5f3c87"/>
            <path id="Path_30020" data-name="Path 30020" d="M222.491,473.588c4.438.78,15.443,3.391,19.881,4.169,10.676-27.577,22.75-48.453,33.426-76.03-1.256,3.241-33.666,5.286-36.994,10.526C236.229,416.306,221.793,473.466,222.491,473.588Z" transform="translate(-113.136 -366.331)" fill="#1b468a"/>
            <path id="Path_30021" data-name="Path 30021" d="M221.064,386.18c-3.662,1.861-9.35,5.5-11.68,8.882-18.185,26.393-30.611,56.467-43.356,85.876,7.2,3.52,10.483,4.165,17.687,7.683A339.749,339.749,0,0,0,233.1,419.871c30.651-1.715,65.053.868,92.065-13.72,4.974-2.685,14.515-8.377,16.736-13.577,3.184-7.446-41.064-17.025-57.125-15.276C259.933,380,224.154,384.61,221.064,386.18Z" transform="translate(-137.782 -377.089)" fill="#1b468a"/>
            <g id="Group_24033" data-name="Group 24033" transform="translate(83.48 26.722)">
              <path id="Path_30022" data-name="Path 30022" d="M204.539,396.791a51.514,51.514,0,0,0,7.316,12.105c.58.72,1.59-.3,1.016-1.016a50.274,50.274,0,0,1-7.091-11.815c-.363-.846-1.6-.115-1.24.726Z" transform="translate(-204.474 -395.689)" fill="#2d62ad"/>
            </g>
            <g id="Group_24034" data-name="Group 24034" transform="translate(79.636 32.951)">
              <path id="Path_30023" data-name="Path 30023" d="M202,401.266l6.225,6.7c.631.68,1.645-.339,1.016-1.016q-3.112-3.353-6.225-6.7c-.631-.678-1.645.339-1.016,1.017Z" transform="translate(-201.798 -400.025)" fill="#2d62ad"/>
            </g>
            <g id="Group_24035" data-name="Group 24035" transform="translate(4.365 120.475)">
              <path id="Path_30024" data-name="Path 30024" d="M149.916,462.775a62.693,62.693,0,0,0,16.753,2.007,61.365,61.365,0,0,0,7.882-.675c1.737-.262,7.834-2.6,9.126-1.371.669.638,1.687-.376,1.016-1.016-1.319-1.256-2.537-.7-4.222-.293a66.15,66.15,0,0,1-9.945,1.717A61.048,61.048,0,0,1,150.3,461.39a.719.719,0,0,0-.382,1.385Z" transform="translate(-149.405 -460.946)" fill="#6a489b"/>
            </g>
            <g id="Group_24036" data-name="Group 24036" transform="translate(87.631 121.709)">
              <path id="Path_30025" data-name="Path 30025" d="M207.85,463.344c5.129,1.888,11.485,1.392,16.864,1.287a143.5,143.5,0,0,0,17.227-1.431c.911-.129.523-1.514-.382-1.386a139.773,139.773,0,0,1-16.845,1.381c-5.242.1-11.515.592-16.482-1.236-.868-.32-1.243,1.067-.382,1.385Z" transform="translate(-207.363 -461.805)" fill="#6a489b"/>
            </g>
          </g>
        </g>
        <g id="Group_24046" data-name="Group 24046" transform="translate(98.929 142.278)">
          <rect id="Rectangle_2766" data-name="Rectangle 2766" width="11.178" height="87.771" transform="translate(81.401 116.625)" fill="#8ebddd"/>
          <path id="Path_30026" data-name="Path 30026" d="M320.419,325.736c-1.685,2.891,1.021,46.176-18.2,83.038-2.247,4.31-8.321,13.753-23.258,18.967-11.469,4-32.3,6.7-53.331,6.7-14.726,0-12.985,16.079,0,15.836,7.811-.147,34.824.277,48.472-.342,39.31-1.78,61.515-1.283,78.029-14.176,23.544-18.381,44.987-112.943,37.648-116.4C385.731,317.458,328.767,311.414,320.419,325.736Z" transform="translate(-215.227 -316.464)" fill="#003154"/>
          <g id="Group_24039" data-name="Group 24039" transform="translate(45.541 188.066)">
            <path id="Path_30027" data-name="Path 30027" d="M263.256,464.266a6.481,6.481,0,1,1-6.481-6.481A6.482,6.482,0,0,1,263.256,464.266Z" transform="translate(-245.455 -442.819)" fill="#003154"/>
            <circle id="Ellipse_4159" data-name="Ellipse 4159" cx="6.481" cy="6.481" r="6.481" transform="translate(62.361 14.966)" fill="#003154"/>
            <path id="Path_30028" data-name="Path 30028" d="M319.689,453.368H255.726a8.8,8.8,0,0,0-8.8,8.8,4.027,4.027,0,0,0,4.027,4.027h73.509a4.027,4.027,0,0,0,4.027-4.027A8.8,8.8,0,0,0,319.689,453.368Z" transform="translate(-246.926 -444.748)" fill="#003154"/>
            <path id="Path_30029" data-name="Path 30029" d="M285.183,447.368H271.894a2.438,2.438,0,0,0-2.438,2.438v10.97h18.165v-10.97A2.438,2.438,0,0,0,285.183,447.368Z" transform="translate(-237.088 -447.368)" fill="#003154"/>
          </g>
          <g id="Group_24040" data-name="Group 24040" transform="translate(7.964 7.021)">
            <path id="Path_30030" data-name="Path 30030" d="M221.462,439.007c15.476-.894,31.092-.494,46.33-3.763,9.3-2,18.875-5.06,26.554-10.874,6.679-5.057,11.5-12.216,15.381-19.539,6.362-12,9.942-25.252,12.628-38.509A124.807,124.807,0,0,0,325.077,342c.014-4.678-1.056-10.509,2.053-14.466,2.853-3.63,8.3-4.942,12.67-4.721.924.047.921-1.389,0-1.437-5.014-.254-11.268,1.474-14.258,5.875-3.4,5.007-1.761,12.456-1.975,18.124-.57,15.133-4.04,30.838-9.088,45.107-3.833,10.837-9.437,22.12-17.888,30.113-6.02,5.7-13.838,9.067-21.7,11.381-17.407,5.128-35.507,4.56-53.433,5.6-.919.053-.925,1.49,0,1.437Z" transform="translate(-220.77 -321.351)" fill="#05446b"/>
          </g>
          <g id="Group_24041" data-name="Group 24041" transform="translate(53.764 207.869)">
            <path id="Path_30031" data-name="Path 30031" d="M252.949,461.523a2.887,2.887,0,0,0,5.047,2.8c.5-.783-.747-1.5-1.24-.724a1.453,1.453,0,0,1-2.566-1.353c.386-.833-.85-1.563-1.241-.726Z" transform="translate(-252.649 -461.152)" fill="#05446b"/>
          </g>
          <g id="Group_24042" data-name="Group 24042" transform="translate(111.68 208.906)">
            <path id="Path_30032" data-name="Path 30032" d="M292.971,462.776a3.112,3.112,0,0,0,5.26,1.468c.588-.705-.424-1.727-1.016-1.016a1.668,1.668,0,0,1-2.858-.835c-.129-.912-1.514-.524-1.386.382Z" transform="translate(-292.962 -461.874)" fill="#05446b"/>
          </g>
          <g id="Group_24043" data-name="Group 24043" transform="translate(84.375 134.934)">
            <path id="Path_30033" data-name="Path 30033" d="M273.956,411.079v40.586a.719.719,0,0,0,1.437,0V411.079a.719.719,0,0,0-1.437,0Z" transform="translate(-273.956 -410.385)" fill="#72a5c1"/>
          </g>
          <g id="Group_24044" data-name="Group 24044" transform="translate(88.685 151.456)">
            <path id="Path_30034" data-name="Path 30034" d="M278.393,450.235V422.579a.719.719,0,0,0-1.437,0v27.656a.719.719,0,0,0,1.437,0Z" transform="translate(-276.956 -421.885)" fill="#72a5c1"/>
          </g>
          <g id="Group_24045" data-name="Group 24045" transform="translate(50.637 203.391)">
            <path id="Path_30035" data-name="Path 30035" d="M251.167,459.472h67.524a.719.719,0,0,0,0-1.437H251.167a.719.719,0,0,0,0,1.437Z" transform="translate(-250.473 -458.035)" fill="#05446b"/>
          </g>
        </g>
      </g>
    </g>
  </g>
</svg>
