<svg xmlns="http://www.w3.org/2000/svg" width="714" height="536" viewBox="0 0 714 536" fill="none">
<path d="M493.831 160.072C464.39 132.193 432.072 117.023 409.971 109.175C397.233 104.652 386.461 102.028 379.667 100.622C375.519 99.7645 372.336 99.2461 370.309 98.953C372.405 93.3034 377.994 78.3126 383.882 63.1127C388.239 51.8649 391.904 42.708 394.775 35.8963C396.472 31.8706 397.904 28.6375 399.03 26.2869C400.246 23.7483 400.886 22.7003 401.181 22.2806C402.28 22.1135 405.082 21.7681 409.464 21.7681C414.947 21.7681 424.025 22.3229 436.134 24.9662C449.816 27.9528 464.458 32.9345 479.655 39.7732C492.919 45.7422 504.707 52.4119 514.69 59.5972C522.662 65.3352 529.508 71.4122 535.035 77.6593C539.944 83.2076 542.883 87.8656 544.485 90.7961C545.495 92.6457 546.114 94.058 546.456 94.9177L493.831 160.072Z" fill="white"/>
<path d="M409.464 23.7681C406.118 23.7681 403.737 23.9743 402.378 24.1372C401.61 25.4778 399.872 28.9084 396.259 37.5271C393.39 44.3728 389.76 53.4629 385.472 64.5451C380.364 77.7451 375.519 90.6844 373.037 97.3521C374.917 97.6606 377.282 98.0868 380.072 98.6639C386.927 100.082 397.795 102.73 410.641 107.291C432.53 115.063 464.363 129.963 493.629 157.14L544.146 94.5946C542.918 91.8621 539.954 86.289 533.762 79.2392C528.344 73.0707 521.607 67.0606 513.737 61.3758C503.816 54.209 492.073 47.5544 478.835 41.5971C463.764 34.8152 449.254 29.8772 435.708 26.9202C423.773 24.3149 414.849 23.7681 409.464 23.7681ZM409.464 19.7681C421.685 19.7681 445.83 22.3587 480.476 37.9494C539.594 64.553 548.72 95.2971 548.72 95.2971L494.021 163.02C436.717 107.668 367.561 100.614 367.561 100.614C367.561 100.614 396.696 21.5953 400.251 20.4099C400.251 20.4099 403.38 19.7681 409.464 19.7681Z" fill="#7376E1"/>
<path d="M377.715 106.752C377.715 106.752 445.715 113.621 487.615 152.085" stroke="#2A1E17" stroke-linecap="round" stroke-linejoin="round"/>
<path d="M436.433 103.435L461.801 54.108L487.874 105.549L436.433 103.435Z" fill="#A0C6F4"/>
<path d="M441.366 102.731L466.736 53.405L492.806 104.845L441.366 102.731Z" stroke="#2A1E17" stroke-linecap="round" stroke-linejoin="round"/>
<path d="M417.552 16.772C417.552 16.772 493.796 23.64 541.19 79.965" stroke="#2A1E17" stroke-linecap="round" stroke-linejoin="round"/>
<path d="M456.508 235.359C452.323 232.281 449.573 230.217 449.573 230.217C450.734 228.669 469.083 209.123 479.705 193.371C479.705 193.373 458.221 236.619 456.508 235.359Z" fill="#2A1E17"/>
<path d="M196.533 92.885C198.577 96.291 199.485 94.928 205.388 94.474C211.291 94.02 219.688 98.334 222.642 105.599C225.596 112.864 224.686 113.999 223.097 114.908C221.508 115.817 210.155 117.177 209.697 119.448" stroke="#2A1E17" stroke-linecap="round" stroke-linejoin="round"/>
<path d="M349.485 462.402L344.196 453.463L325.431 484.738L330.357 488.527L349.485 462.402Z" fill="#FFBEA8"/>
<path d="M224.883 384.846C224.883 384.846 215.16 369.037 219.331 361.29L250.351 364.609L224.883 384.846Z" fill="#FFBEA8"/>
<path d="M224.882 384.847L226.74 389.117L221.01 411.466C220.656 412.845 220.695 414.296 221.121 415.655C221.547 417.014 222.344 418.227 223.422 419.157V419.157L251.791 377.221C253.095 375.293 253.666 372.962 253.402 370.65C253.138 368.337 252.056 366.195 250.351 364.611L244.011 358.722L224.882 384.847Z" fill="black"/>
<path d="M209.702 119.447C218.585 119.236 229.843 118.673 227.592 111.919C225.341 105.165 216.898 88.278 197.76 93.344C197.76 93.344 191.006 98.972 199.448 109.105C207.89 119.238 209.702 119.447 209.702 119.447Z" fill="#2A1E33"/>
<path d="M254.667 364.983C254.667 364.983 239.503 320.212 252.334 300.553C262.925 284.329 297.523 310.719 302.264 314.274L327.019 269.565C327.019 269.565 321.305 261.553 307.274 253.707C293.243 245.861 235.28 222.369 208.043 265.347C197.976 281.231 197.822 349.389 217.13 375.512L254.667 364.983Z" fill="#313030"/>
<path d="M254.666 364.983C254.666 364.983 239.502 320.212 252.333 300.553C262.924 284.329 297.522 310.719 302.263 314.274" stroke="#2A1E17" stroke-linecap="round" stroke-linejoin="round"/>
<path d="M327.019 269.566C315.76 281.418 282.38 339.153 274.873 366.748C264.833 403.659 268.609 434.271 323.794 494.212L350.469 455.358C350.469 455.358 331.714 426.877 335.215 400.03C340.28 361.192 367.915 323.53 381.905 299.646L327.019 269.566Z" fill="#313030"/>
<path d="M331.256 274.583L375.631 309.409L388.891 289.247L331.256 274.583Z" fill="#2A1E17"/>
<path d="M586.118 237.966C593.037 239.449 598.31 242.085 601.935 245.874C605.56 249.664 603.911 251.642 602.594 252.794C601.277 253.946 596.169 252.63 591.721 248.676C587.273 244.722 586.118 237.966 586.118 237.966Z" fill="#FFBEA8"/>
<path d="M449.573 230.217C450.734 228.669 469.083 209.123 479.705 193.371C479.705 193.371 511.812 229.347 515.294 230.508C516.589 230.939 524.46 230.836 534.236 230.736C550.756 230.565 572.715 230.399 577.575 232.829C585.311 236.698 589.954 238.629 591.888 244.047C593.822 249.465 594.588 253 589.954 253.331C584.539 253.718 581.054 246.756 581.054 246.756C581.054 246.756 576.628 249.429 565.193 253.718C565.193 253.718 524.051 269.691 496.548 261.967C489.041 259.857 449.573 230.217 449.573 230.217Z" fill="#FFBEA8"/>
<path d="M200.167 86.529C196.635 87.874 194.49 89.48 196.533 92.885C198.576 96.29 199.485 94.928 205.388 94.474C211.291 94.02 219.688 98.334 222.642 105.599C225.596 112.864 224.686 113.999 223.097 114.908C221.508 115.817 210.155 117.177 209.697 119.448C209.239 121.719 214.297 128.42 224.741 127.966L227.241 127.512C227.241 127.512 249.205 148.963 252.383 152.141C255.561 155.319 278.92 171.141 291.783 174.361C301.564 176.808 321.383 173.652 333.283 171.33C339.066 170.202 342.983 169.269 342.983 169.269C342.983 169.269 334.046 153.169 332.231 128.427C332.231 128.427 310.853 131.862 296.648 134.978C296.648 134.978 263.498 116.498 247.379 108.324C247.379 108.324 233.303 91.068 226.719 88.798C220.135 86.528 204.935 84.712 200.167 86.529Z" fill="#FFBEA8"/>
<path d="M333.291 171.33C339.074 170.202 342.991 169.269 342.991 169.269C342.991 169.269 332.181 155.645 330.366 130.898C330.366 130.898 325.479 136.165 326.998 150.18C328.911 167.795 333.291 171.33 333.291 171.33Z" fill="#2A1E17"/>
<path d="M329.845 128.129C329.845 128.129 330.145 158.369 338.245 170.985L341.151 169.822C341.151 169.822 302.97 214.487 290.623 243.673C288.601 248.449 369.894 300.373 381.904 299.647C381.904 299.647 421.51 239.197 435.057 221.278L449.615 232.56C449.615 232.56 478.171 203.643 479.705 193.373C479.705 193.373 452.124 159.812 429.559 149.984C406.994 140.156 386.83 123.324 362.592 123.784C341.61 124.174 329.845 128.129 329.845 128.129Z" fill="#6364D9"/>
<path d="M449.615 232.559L435.057 221.277L437.376 214.958L449.615 232.559Z" fill="#2A1E17"/>
<path d="M471.762 112.977C469.214 120.906 461.851 143.841 453.64 146.672C445.429 149.503 436.881 145.948 436.881 145.948L428.134 150.424C427.158 153.352 420.255 155.873 411.341 156.216C404.741 156.471 400.721 147.996 402.674 141.859C403.574 139.042 406.922 125.153 406.922 125.153C406.922 125.153 413.999 99.105 420.512 93.724C427.025 88.343 433.144 83.018 450.525 90.043C477.141 100.807 471.762 112.977 471.762 112.977Z" fill="#FFBEA8"/>
<path d="M419.002 114.11C417.833 118.979 412.77 128.716 409.46 126.963C406.15 125.21 404.981 120.731 407.318 112.163C409.655 103.595 411.601 84.122 418.218 80.618C424.835 77.114 427.76 81.201 427.76 81.201C427.76 81.201 424.84 66.987 433.408 65.04C433.408 65.04 436.328 63.676 435.16 73.412C435.16 73.412 438.472 64.456 449.181 65.623C459.89 66.79 463.591 81.786 463.591 81.786C463.897 80.5469 464.633 79.4563 465.667 78.7077C466.701 77.9592 467.966 77.6011 469.239 77.697C474.108 77.697 481.507 84.897 479.754 92.885C479.754 92.885 492.213 88.985 498.839 98.923C505.465 108.861 504.681 119.759 488.712 124.042C472.012 128.522 472.161 109.048 469.629 106.516C467.097 103.984 464.37 101.064 455.024 104.569C445.678 108.074 435.941 97.754 435.941 97.754C435.941 97.754 434.382 110.216 432.825 111.385C431.268 112.554 428.152 114.111 428.93 108.269C429.708 102.427 430.683 103.011 430.099 101.454C429.515 99.897 426.878 94.981 421.335 99.311C415.102 104.179 419.002 114.11 419.002 114.11Z" fill="#2A1E33"/>
<path d="M421.647 116.291C417.933 113.172 415.357 107.673 418.627 102.176C421.897 96.679 427.243 95.936 428.878 98.016C430.513 100.096 431.144 103.603 429.608 107.762" stroke="#2A1E33" stroke-linecap="round" stroke-linejoin="round"/>
<path d="M330.355 488.53L332.213 492.8L326.483 515.152C326.129 516.531 326.167 517.982 326.593 519.341C327.019 520.7 327.817 521.913 328.895 522.843V522.843L357.263 480.904C358.567 478.976 359.139 476.645 358.874 474.332C358.61 472.02 357.527 469.878 355.821 468.294L349.483 462.405L330.355 488.53Z" fill="black"/>
<path d="M427.759 81.2C427.759 81.2 425.587 74.135 419.076 72.274" stroke="#2A1E33" stroke-linecap="round" stroke-linejoin="round"/>
<path d="M289.733 241.539L368.326 131.753" stroke="#2A1E17" stroke-linecap="round" stroke-linejoin="round"/>
<path d="M400.72 139.434C397.889 143.116 396.599 158.959 409.626 159.988C422.653 161.017 430.983 155.294 430.983 155.294" stroke="#2A1E17" stroke-linecap="round" stroke-linejoin="round"/>
<path d="M226.73 88.799C226.73 88.799 235.714 100.691 237.13 104.925" stroke="#2A1E17" stroke-linecap="round" stroke-linejoin="round"/>
<path d="M563.101 248.208C563.101 248.208 569.101 253.15 581.056 246.755C585.391 244.436 582.304 238.949 576.817 240.32C571.33 241.691 564.817 239.635 564.817 239.635" stroke="#2A1E17" stroke-linecap="round" stroke-linejoin="round"/>
<path d="M588.178 238.652C588.178 238.652 593.936 245.37 593.778 249.361" stroke="#2A1E17" stroke-linecap="round" stroke-linejoin="round"/>
<path d="M503.433 237.921C503.433 237.921 508.639 230.983 515.294 230.508" stroke="#2A1E17" stroke-linecap="round" stroke-linejoin="round"/>
<path d="M283.879 146.187C283.879 146.187 286.919 136.719 296.659 134.978" stroke="#2A1E17" stroke-linecap="round" stroke-linejoin="round"/>
<path d="M310.27 289.882L298.653 312.108C298.653 312.108 260.343 376.94 273.341 418.824" stroke="#2A1E17" stroke-linecap="round" stroke-linejoin="round"/>
<path d="M344.21 364.262L381.904 299.646C381.904 299.646 431.304 227.993 436.363 217.883L453.798 185.632" stroke="#2A1E17" stroke-linecap="round" stroke-linejoin="round"/>
<path d="M294.996 248.421C294.996 248.421 362.026 297.292 381.904 299.646" stroke="#2A1E17" stroke-linecap="round" stroke-linejoin="round"/>
<path d="M329.845 128.128C329.845 128.128 329.784 158.796 338.052 171.371" stroke="#2A1E17" stroke-linecap="round" stroke-linejoin="round"/>
<path d="M477.553 188.515C475.448 201.157 447.463 227.703 447.463 227.703" stroke="#2A1E17" stroke-linecap="round" stroke-linejoin="round"/>
<path d="M268.766 345.944C270.964 345.944 272.746 344.162 272.746 341.964C272.746 339.766 270.964 337.984 268.766 337.984C266.568 337.984 264.786 339.766 264.786 341.964C264.786 344.162 266.568 345.944 268.766 345.944Z" fill="#2A1E17"/>
<path d="M642.2 427.495L640 412.27L652.986 420.903L646.186 422.385L642.2 427.495Z" stroke="#2A1E17" stroke-linecap="round" stroke-linejoin="round"/>
<path d="M211.548 167.598C186.942 145.886 146.279 200.031 295.071 372.352C380.903 471.759 448.342 480.675 457.476 446.091C473.867 384.044 414.676 368.36 436.699 392.662C468.726 427.999 559.82 435.462 627.699 402.488C694.678 369.95 653.509 319.419 649.35 316.471" stroke="#2A1E17" stroke-linecap="round" stroke-linejoin="round"/>
<path d="M628.772 406.158C630.97 406.158 632.752 404.376 632.752 402.178C632.752 399.98 630.97 398.198 628.772 398.198C626.574 398.198 624.792 399.98 624.792 402.178C624.792 404.376 626.574 406.158 628.772 406.158Z" fill="#2A1E17"/>
<path d="M570.854 434.665L688.835 368.166" stroke="#2A1E17" stroke-linecap="round" stroke-linejoin="round"/>
<path d="M214.001 174.795C216.199 174.795 217.981 173.013 217.981 170.815C217.981 168.617 216.199 166.835 214.001 166.835C211.803 166.835 210.021 168.617 210.021 170.815C210.021 173.013 211.803 174.795 214.001 174.795Z" fill="#2A1E17"/>
<path d="M315.49 97.179C320.206 97.179 324.029 93.356 324.029 88.64C324.029 83.9241 320.206 80.101 315.49 80.101C310.774 80.101 306.951 83.9241 306.951 88.64C306.951 93.356 310.774 97.179 315.49 97.179Z" fill="#FF6D66"/>
<path d="M160.54 29.018C161.509 29.018 162.294 28.2327 162.294 27.264C162.294 26.2953 161.509 25.51 160.54 25.51C159.571 25.51 158.786 26.2953 158.786 27.264C158.786 28.2327 159.571 29.018 160.54 29.018Z" stroke="#A0C6F4" stroke-width="4" stroke-miterlimit="10"/>
<path d="M663.528 489.74C665.602 489.74 667.282 488.059 667.282 485.986C667.282 483.913 665.602 482.232 663.528 482.232C661.455 482.232 659.774 483.913 659.774 485.986C659.774 488.059 661.455 489.74 663.528 489.74Z" fill="#FAD8B0"/>
<path d="M596.455 316.454L556.1 297.517C555.372 297.175 554.757 296.631 554.33 295.95C553.903 295.268 553.681 294.478 553.691 293.674C553.701 292.869 553.942 292.085 554.386 291.414C554.829 290.743 555.457 290.214 556.193 289.89L631.27 256.856C631.796 256.625 632.364 256.504 632.938 256.502C633.512 256.499 634.081 256.615 634.609 256.841L686.177 278.976L596.455 316.454Z" fill="#2A1E33"/>
<path d="M593.957 254.216C594.057 270.916 596.457 316.454 596.457 316.454L686.179 278.976L684.166 215.604C684.138 214.707 683.888 213.831 683.44 213.053C682.991 212.276 682.357 211.621 681.595 211.147C680.832 210.674 679.965 210.396 679.069 210.339C678.173 210.281 677.277 210.446 676.46 210.818L599.208 246.018C597.635 246.731 596.302 247.885 595.37 249.34C594.438 250.795 593.947 252.488 593.957 254.216V254.216Z" fill="#C6CBCB"/>
<path d="M596.457 316.454L686.179 278.976L684.166 215.604C684.166 215.604 683.566 208.686 676.46 210.818" stroke="#2A1E17" stroke-linecap="round" stroke-linejoin="round"/>
<path d="M639.884 270.907L645.942 256.589" stroke="#2A1E17" stroke-linecap="round" stroke-linejoin="round"/>
<path d="M645.941 270.907L651.999 256.589" stroke="#2A1E17" stroke-linecap="round" stroke-linejoin="round"/>
<path d="M176.723 427.093C178.797 427.093 180.477 425.412 180.477 423.339C180.477 421.266 178.797 419.585 176.723 419.585C174.65 419.585 172.969 421.266 172.969 423.339C172.969 425.412 174.65 427.093 176.723 427.093Z" fill="#FF6D66"/>
<path d="M493.226 447.152C496.107 447.152 498.442 444.817 498.442 441.936C498.442 439.055 496.107 436.72 493.226 436.72C490.346 436.72 488.01 439.055 488.01 441.936C488.01 444.817 490.346 447.152 493.226 447.152Z" fill="#FF6D66"/>
<path d="M215.625 478.997C230.488 485.823 246.671 489.293 263.025 489.16C263.329 489.16 263.629 489.224 263.905 489.349C264.182 489.474 264.429 489.656 264.63 489.884C264.83 490.112 264.98 490.38 265.069 490.67C265.158 490.96 265.184 491.266 265.145 491.567L261.87 517.56C261.814 518.01 261.616 518.43 261.305 518.76C260.994 519.091 260.586 519.313 260.14 519.396C253.497 520.644 226.717 524.318 206.687 507.333C206.382 507.07 206.157 506.726 206.039 506.341C205.921 505.955 205.915 505.545 206.021 505.156L212.64 480.377C212.72 480.073 212.867 479.791 213.069 479.551C213.271 479.31 213.523 479.117 213.808 478.985C214.093 478.853 214.404 478.786 214.718 478.788C215.032 478.79 215.342 478.861 215.625 478.997V478.997Z" fill="#FFA950"/>
<path d="M217.979 486.636C217.979 486.636 229.551 502.896 233.679 505.224C237.807 507.552 260.079 494.275 260.079 494.275" stroke="#2A1E17" stroke-linecap="round" stroke-linejoin="round"/>
<path d="M244.587 502.957L256.743 515.453" stroke="#2A1E17" stroke-linecap="round" stroke-linejoin="round"/>
<path d="M227.698 500.549L213.479 504.414" stroke="#2A1E17" stroke-linecap="round" stroke-linejoin="round"/>
<path d="M587.853 171.499H574.272V185.08H587.853V171.499Z" fill="#FFE1C0"/>
<path d="M576.113 354.693L580.15 361.684L584.187 368.676H568.04L572.077 361.684L576.113 354.693Z" fill="#A0C6F4"/>
<path d="M570.555 457.328L581.686 477.882C582.858 479.723 582.443 480.77 581.433 481.705C576.664 486.123 562.188 499.578 540.946 504.822C538.202 505.499 537.552 504.222 536.936 503.081L526.336 483.481C526.173 483.093 526.092 482.676 526.1 482.256C526.108 481.835 526.204 481.421 526.381 481.04C526.559 480.659 526.814 480.319 527.131 480.043C527.448 479.766 527.819 479.559 528.221 479.435C535.243 476.379 542.039 472.829 548.559 468.811C554.932 465.12 560.98 460.893 566.637 456.177C568.225 454.778 569.685 455.722 570.555 457.328Z" stroke="#2A1E17" stroke-linecap="round" stroke-linejoin="round"/>
<path d="M566.187 463.842L562.868 482.348L544.462 477.663C549.251 476.618 566.187 463.842 566.187 463.842Z" stroke="#2A1E17" stroke-linecap="round" stroke-linejoin="round"/>
<path d="M553.064 480.418L548.534 492.224L538.355 491.301L533.396 483.447L544.461 477.657" stroke="#2A1E17" stroke-linecap="round" stroke-linejoin="round"/>
<path d="M572.383 480.629C573.59 480.078 574.19 478.8 573.721 477.776C573.253 476.751 571.895 476.369 570.687 476.921C569.48 477.472 568.88 478.75 569.349 479.774C569.817 480.799 571.175 481.181 572.383 480.629Z" stroke="#2A1E17" stroke-linecap="round" stroke-linejoin="round"/>
<path d="M371.88 182.448H222.098C219.07 182.448 216.614 184.903 216.614 187.932V213.102C216.614 216.131 219.07 218.586 222.098 218.586H371.88C374.909 218.586 377.364 216.131 377.364 213.102V187.932C377.364 184.903 374.909 182.448 371.88 182.448Z" fill="#7595EC"/>
<path d="M315.988 193.087H235.553C234.552 193.087 233.741 193.898 233.741 194.899V196.774C233.741 197.775 234.552 198.586 235.553 198.586H315.988C316.989 198.586 317.8 197.775 317.8 196.774V194.899C317.8 193.898 316.989 193.087 315.988 193.087Z" fill="white"/>
<path d="M234.527 205.71H368.079" stroke="#2A1E17" stroke-linecap="round" stroke-linejoin="round"/>
<path d="M166.198 114.47L169.064 117.608C169.368 117.941 169.527 118.381 169.507 118.831C169.486 119.281 169.288 119.704 168.955 120.008L163.937 124.592C163.604 124.895 163.164 125.055 162.714 125.034C162.264 125.014 161.84 124.815 161.536 124.483L158.67 121.345L166.198 114.47Z" fill="#91BA83"/>
<path d="M145.411 109.248L156.805 121.724C157.169 122.123 157.789 122.151 158.188 121.786L166.339 114.343C166.738 113.978 166.766 113.358 166.402 112.959L155.008 100.483C154.643 100.084 154.023 100.056 153.624 100.42L145.473 107.864C145.074 108.229 145.046 108.848 145.411 109.248Z" stroke="#2A1E17" stroke-width="0.99946" stroke-linecap="round" stroke-linejoin="round"/>
<path d="M134.548 162.931H121.083V175.225H134.548V162.931Z" fill="#FF6D66"/>
<path d="M121.083 155.02V162.931H113.026" stroke="#2A1E17" stroke-linecap="round" stroke-linejoin="round"/>
<path d="M578.118 24.1H564.653V36.394H578.118V24.1Z" fill="#FAD8B0"/>
<path d="M564.653 16.189V24.1H556.599" stroke="#2A1E17" stroke-linecap="round" stroke-linejoin="round"/>
<path d="M200.253 100.086C60.6722 42.225 -46.7838 153.661 216.331 324.3C237.05 337.737 268.822 342.451 268.822 342.451" stroke="#2A1E17" stroke-linecap="round" stroke-linejoin="round"/>
<path d="M71.876 107.961C74.0741 107.961 75.856 106.179 75.856 103.981C75.856 101.783 74.0741 100.001 71.876 100.001C69.6779 100.001 67.896 101.783 67.896 103.981C67.896 106.179 69.6779 107.961 71.876 107.961Z" fill="#2A1E17"/>
<path d="M400.811 517.96L446.661 505.686L448.41 510.655L402.044 522.691L400.811 517.96Z" stroke="#2A1E17" stroke-linecap="round" stroke-linejoin="round"/>
<path d="M394.449 511.548L395.772 515.711" stroke="#2A1E17" stroke-linecap="round" stroke-linejoin="round"/>
<path d="M393.157 514.263L397.026 512.934" stroke="#2A1E17" stroke-linecap="round" stroke-linejoin="round"/>
<path d="M392.224 527.445L394.719 535.298" stroke="#2A1E17" stroke-linecap="round" stroke-linejoin="round"/>
<path d="M390.099 532.424L396.988 530.235" stroke="#2A1E17" stroke-linecap="round" stroke-linejoin="round"/>
<path d="M381.746 514.484L385 524.884" stroke="#2A1E17" stroke-linecap="round" stroke-linejoin="round"/>
<path d="M378.512 520.961L388.167 517.879" stroke="#2A1E17" stroke-linecap="round" stroke-linejoin="round"/>
<path d="M174.928 264.919C154.477 250.195 134.384 227.313 143.197 203.809C143.197 203.809 157.297 194.409 179.63 206.16L201.958 217.912L174.928 264.919Z" fill="#FAD8B0"/>
<path d="M166.01 364.036C164.658 363.417 162.308 362.293 159.328 360.683C154.935 358.309 148.234 354.361 141.259 349.029C133.448 343.058 126.889 336.603 121.765 329.843C115.399 321.445 111.243 312.55 109.414 303.404C107.583 294.246 108.262 283.382 111.434 271.113C113.991 261.222 118.161 250.416 123.83 238.995C128.883 228.811 134.214 220.021 137.795 214.44C138.507 213.331 139.18 212.301 139.804 211.36C138.746 220.089 141.089 229.165 146.813 238.441C154.228 250.458 165.719 260.133 174.053 266.134C186.048 274.77 194.422 278.726 206.911 283.369L166.01 364.036Z" fill="white"/>
<path d="M138.075 216.794C134.559 222.359 129.727 230.475 125.131 239.747C119.521 251.063 115.397 261.758 112.874 271.537C109.77 283.565 109.101 294.187 110.885 303.11C112.667 312.02 116.721 320.698 122.935 328.904C127.968 335.551 134.42 341.906 142.112 347.793C149.004 353.068 155.632 356.978 159.978 359.329C162.146 360.502 163.978 361.415 165.329 362.061L204.816 284.185C193.256 279.807 184.712 275.656 173.176 267.351C164.731 261.271 153.081 251.456 145.536 239.229C140.834 231.608 138.343 224.105 138.075 216.794ZM143.198 203.806C134.385 227.31 154.478 250.192 174.929 264.916C187.2 273.751 195.789 277.698 209.011 282.545L166.703 365.985C166.703 365.985 116.17 344.83 107.943 303.699C99.717 262.567 143.198 203.806 143.198 203.806Z" fill="#FAD8B0"/>
<path d="M131.764 237.953C133.041 245.597 136.063 252.845 140.595 259.132C145.128 265.419 151.048 270.576 157.897 274.204" stroke="#2A1E17" stroke-linecap="round" stroke-linejoin="round"/>
<path d="M170.543 282.634L194.148 295.279" stroke="#2A1E17" stroke-linecap="round" stroke-linejoin="round"/>
<path d="M135.135 271.675C135.135 271.675 142.722 288.534 167.171 299.494" stroke="#2A1E17" stroke-linecap="round" stroke-linejoin="round"/>
<path d="M115.747 274.204C115.747 274.204 116.589 291.904 128.392 297.804" stroke="#2A1E17" stroke-linecap="round" stroke-linejoin="round"/>
<path d="M142.722 212.662C142.722 212.662 140.535 235.398 174.928 264.916" stroke="#2A1E17" stroke-linecap="round" stroke-linejoin="round"/>
<path d="M155.37 216.877C155.37 216.877 166.328 216.035 182.347 227.837" stroke="#2A1E17" stroke-linecap="round" stroke-linejoin="round"/>
<path d="M103.831 289.466C103.125 300.742 104.531 341.612 163.731 367.685" stroke="#2A1E17" stroke-linecap="round" stroke-linejoin="round"/>
<path d="M481.804 266.728L456.697 317.047C456.697 317.047 473.726 323.314 460.414 342.834C460.414 342.834 491.888 355.887 512.483 321.986C533.078 288.085 481.804 266.728 481.804 266.728Z" fill="#91BA83"/>
<path d="M424.341 421.282C411.291 421.282 397.533 415.899 383.432 405.279L431.172 326.193L459.615 344.104L459.723 344.171L459.84 344.22C460.095 344.325 466.173 346.804 474.798 346.805C474.798 346.805 474.8 346.805 474.801 346.805C482.584 346.805 492.657 344.759 502.141 336.707L465.798 398.883C465.499 399.325 461.749 404.763 455.005 410.121C450.916 413.369 446.539 415.955 441.996 417.807C436.34 420.112 430.401 421.281 424.344 421.282C424.343 421.282 424.342 421.282 424.341 421.282Z" fill="white"/>
<path d="M431.667 328.277L385.42 404.889C398.874 414.774 411.958 419.782 424.344 419.782C430.185 419.782 435.914 418.658 441.373 416.442C445.774 414.655 450.02 412.154 453.992 409.01C460.472 403.882 464.13 398.664 464.529 398.082L497.252 342.099C489.276 346.942 481.273 348.305 474.798 348.305C465.878 348.305 459.531 345.716 459.266 345.605L459.031 345.508L431.667 328.277ZM512.483 321.986L467.07 399.68C467.07 399.68 451.846 422.782 424.344 422.782C412.314 422.782 397.937 418.363 381.452 405.657L430.678 324.109L460.414 342.834C460.414 342.834 466.373 345.305 474.798 345.305C485.741 345.305 500.847 341.14 512.483 321.986Z" fill="#96BD89"/>
<path d="M456.697 317.047C456.697 317.047 475.423 323.658 460.414 342.834" stroke="#2A1E17" stroke-linecap="round" stroke-linejoin="round"/>
<path d="M430.097 322.362C430.097 322.362 455.603 345.727 469.725 345.569C483.847 345.411 500.404 342.049 510.172 325.205" stroke="#2A1E17" stroke-linecap="round" stroke-linejoin="round"/>
<path d="M433.225 352.589C433.225 352.589 450.734 368.136 470.312 363.142" stroke="#2A1E17" stroke-linecap="round" stroke-linejoin="round"/>
<path d="M451.614 375.821C451.614 375.821 460.801 382.706 473.642 376.194" stroke="#2A1E17" stroke-linecap="round" stroke-linejoin="round"/>
<path d="M409.358 385.401C409.358 385.401 430.558 406.478 463.919 392.575" stroke="#2A1E17" stroke-linecap="round" stroke-linejoin="round"/>
<path d="M420.891 364.842C420.891 364.842 429.539 371.025 434.956 373" stroke="#2A1E17" stroke-linecap="round" stroke-linejoin="round"/>
<path d="M486.116 281.334C486.116 281.334 505.468 287.663 507.785 313.197" stroke="#2A1E17" stroke-linecap="round" stroke-linejoin="round"/>
<path d="M495.843 312.888C495.843 312.888 504.752 326.674 489.694 340.461" stroke="#2A1E17" stroke-linecap="round" stroke-linejoin="round"/>
<path d="M383.246 409.501C383.246 409.501 431.838 451.117 467.102 402.454" stroke="#2A1E17" stroke-linecap="round" stroke-linejoin="round"/>
<path d="M32.509 251.023H43.837" stroke="#FF6D66" stroke-linecap="round" stroke-linejoin="round"/>
<path d="M663.528 114.777H674.856" stroke="#FF6D66" stroke-linecap="round" stroke-linejoin="round"/>
<path d="M359.752 37.056H371.08" stroke="#FAD8B0" stroke-miterlimit="10"/>
<path d="M685.155 173.531L696.304 175.534" stroke="#FAD8B0" stroke-miterlimit="10"/>
<path d="M240.183 456.179H251.511" stroke="#A0C6F4" stroke-linecap="round" stroke-linejoin="round"/>
<path d="M709.56 318.725C711.633 318.725 713.314 317.044 713.314 314.971C713.314 312.898 711.633 311.217 709.56 311.217C707.487 311.217 705.806 312.898 705.806 314.971C705.806 317.044 707.487 318.725 709.56 318.725Z" fill="#91BA83"/>
<path d="M4.7291 138.679C6.80237 138.679 8.4831 136.998 8.4831 134.925C8.4831 132.852 6.80237 131.171 4.7291 131.171C2.65582 131.171 0.975098 132.852 0.975098 134.925C0.975098 136.998 2.65582 138.679 4.7291 138.679Z" fill="#91BA83"/>
<path d="M69.4402 23.588C75.8158 23.588 80.9842 18.4196 80.9842 12.044C80.9842 5.66842 75.8158 0.5 69.4402 0.5C63.0647 0.5 57.8962 5.66842 57.8962 12.044C57.8962 18.4196 63.0647 23.588 69.4402 23.588Z" fill="#FFE07D"/>
<path d="M76.0021 2.547C77.5383 4.76969 78.2462 7.4608 78.0024 10.1517C77.7587 12.8425 76.5789 15.3627 74.6683 17.2732C72.7578 19.1837 70.2377 20.3636 67.5468 20.6073C64.8559 20.851 62.1648 20.1432 59.9421 18.607C60.9039 19.9986 62.1598 21.1619 63.6209 22.0144C65.0821 22.867 66.7127 23.388 68.3975 23.5406C70.0822 23.6932 71.78 23.4736 73.3705 22.8975C74.961 22.3213 76.4054 21.4027 77.6016 20.2065C78.7978 19.0103 79.7165 17.5658 80.2926 15.9753C80.8688 14.3848 81.0883 12.6871 80.9357 11.0023C80.7831 9.31756 80.2621 7.68692 79.4096 6.2258C78.557 4.76468 77.3938 3.50879 76.0021 2.547V2.547Z" fill="#FFD064"/>
<path d="M64.864 16.51C64.1869 16.4892 63.5432 16.2109 63.064 15.732C62.9886 15.6569 62.9288 15.5677 62.8879 15.4694C62.847 15.3712 62.8259 15.2658 62.8257 15.1594C62.8255 15.053 62.8463 14.9476 62.8868 14.8492C62.9274 14.7508 62.9869 14.6614 63.062 14.586C63.1371 14.5106 63.2264 14.4508 63.3246 14.4099C63.4229 14.369 63.5282 14.3478 63.6346 14.3477C63.741 14.3475 63.8464 14.3683 63.9448 14.4088C64.0432 14.4494 64.1326 14.5089 64.208 14.584C64.238 14.612 64.708 15.046 65.124 14.813C65.2344 14.7494 65.3258 14.6575 65.3887 14.5467C65.4517 14.436 65.4839 14.3104 65.482 14.183V8.162C65.482 7.94704 65.5674 7.7409 65.7194 7.5889C65.8714 7.4369 66.0776 7.3515 66.2925 7.3515C66.5075 7.3515 66.7136 7.4369 66.8656 7.5889C67.0176 7.7409 67.103 7.94704 67.103 8.162V14.187C67.1048 14.6035 66.9952 15.0128 66.7856 15.3727C66.576 15.7326 66.2741 16.03 65.911 16.234C65.5914 16.4141 65.2309 16.5091 64.864 16.51Z" fill="#595454"/>
<path d="M72.3301 16.52C71.7356 16.5231 71.1469 16.4037 70.6005 16.1694C70.0541 15.9351 69.5617 15.5908 69.1542 15.158C69.0807 15.0795 69.0237 14.9873 68.9862 14.8866C68.9488 14.7858 68.9318 14.6787 68.9362 14.5713C68.9406 14.4639 68.9663 14.3585 69.0119 14.2612C69.0574 14.1639 69.1219 14.0766 69.2015 14.0044C69.2811 13.9323 69.3743 13.8767 69.4756 13.8408C69.5769 13.805 69.6843 13.7897 69.7915 13.7958C69.8988 13.8019 70.0038 13.8293 70.1004 13.8764C70.197 13.9234 70.2832 13.9893 70.3541 14.07C70.6089 14.3362 70.9157 14.5471 71.2555 14.6897C71.5953 14.8323 71.9607 14.9036 72.3291 14.899C72.6334 14.9228 72.9369 14.8437 73.1908 14.6743C73.4447 14.5049 73.6343 14.2551 73.7291 13.965C73.8421 13.331 73.0381 12.965 72.6871 12.832C71.5441 12.41 70.5302 11.959 70.4872 11.94C70.4483 11.9226 70.4108 11.9023 70.3752 11.879C70.0127 11.6454 69.7255 11.3121 69.5481 10.9191C69.3707 10.5262 69.3107 10.0903 69.3752 9.66399C69.4507 9.19201 69.6606 8.75179 69.9799 8.39603C70.2991 8.04026 70.7141 7.78403 71.1751 7.658C71.8033 7.50025 72.4596 7.4904 73.0922 7.62921C73.7249 7.76803 74.3167 8.05173 74.8211 8.458C74.9861 8.59578 75.0896 8.79344 75.1088 9.00751C75.128 9.22159 75.0614 9.43453 74.9237 9.59949C74.8554 9.68118 74.7718 9.74862 74.6775 9.79798C74.5832 9.84734 74.4801 9.87764 74.3741 9.88716C74.1601 9.90638 73.9471 9.83978 73.7821 9.702C73.4847 9.46842 73.1395 9.30317 72.7711 9.21796C72.4026 9.13276 72.0199 9.1297 71.6502 9.209C71.483 9.24318 71.33 9.32675 71.2109 9.44887C71.0918 9.571 71.0121 9.72607 70.9822 9.894C70.9629 10.0059 70.9746 10.121 71.0161 10.2267C71.0575 10.3325 71.127 10.4249 71.2171 10.494C71.4621 10.601 72.3232 10.974 73.2492 11.315C75.0492 11.979 75.5011 13.268 75.3251 14.254C75.1693 14.9221 74.7844 15.5146 74.2373 15.9285C73.6902 16.3424 73.0155 16.5517 72.3301 16.52V16.52Z" fill="#595454"/>
<path d="M53.4691 37.391H37.1491C34.1106 37.391 31.1964 36.184 29.0478 34.0354C26.8992 31.8868 25.6921 28.9726 25.6921 25.934V25.922C25.6921 22.8834 26.8992 19.9693 29.0478 17.8207C31.1964 15.6721 34.1106 14.465 37.1491 14.465H53.4691C56.5076 14.4653 59.4214 15.6725 61.5698 17.8211C63.7182 19.9696 64.9251 22.8836 64.9251 25.922V25.931C64.9255 27.4358 64.6295 28.9258 64.054 30.3161C63.4785 31.7064 62.6347 32.9698 61.5709 34.0339C60.5071 35.0981 59.244 35.9423 57.8539 36.5183C56.4638 37.0944 54.9739 37.3909 53.4691 37.391Z" fill="#FB74C4"/>
<path d="M59.967 16.492C61.1526 18.2125 61.8452 20.2244 61.9701 22.3101C62.0949 24.3958 61.6473 26.4759 60.6755 28.3255C59.7037 30.1752 58.2448 31.724 56.4564 32.8045C54.6681 33.885 52.6184 34.4561 50.529 34.456H34.218C31.8959 34.459 29.6283 33.7532 27.718 32.433C28.771 33.9631 30.1804 35.2139 31.8247 36.0777C33.4689 36.9415 35.2987 37.3922 37.156 37.391H53.464C55.909 37.3909 58.2898 36.6088 60.2586 35.1592C62.2275 33.7096 63.6811 31.6683 64.4072 29.3336C65.1333 26.999 65.0938 24.4933 64.2944 22.1828C63.495 19.8722 61.9776 17.8778 59.964 16.491L59.967 16.492Z" fill="#DD5CA2"/>
<path d="M42.4081 21.449C42.1933 21.449 41.9873 21.5343 41.8354 21.6862C41.6835 21.8381 41.5981 22.0442 41.5981 22.259V29.6C41.5981 29.8149 41.6835 30.0211 41.8355 30.1731C41.9875 30.3251 42.1937 30.4105 42.4086 30.4105C42.6236 30.4105 42.8298 30.3251 42.9818 30.1731C43.1337 30.0211 43.2191 29.8149 43.2191 29.6V26.614H46.6781V29.6C46.6781 29.8149 46.7635 30.0211 46.9155 30.1731C47.0675 30.3251 47.2737 30.4105 47.4886 30.4105C47.7036 30.4105 47.9098 30.3251 48.0618 30.1731C48.2138 30.0211 48.2991 29.8149 48.2991 29.6V22.259C48.2991 22.044 48.2138 21.8379 48.0618 21.6859C47.9098 21.5339 47.7036 21.4485 47.4886 21.4485C47.2737 21.4485 47.0675 21.5339 46.9155 21.6859C46.7635 21.8379 46.6781 22.044 46.6781 22.259V24.993H43.2191V22.259C43.2191 22.1525 43.1982 22.0471 43.1574 21.9488C43.1166 21.8504 43.0569 21.7611 42.9815 21.6859C42.9062 21.6106 42.8168 21.551 42.7184 21.5103C42.62 21.4697 42.5146 21.4488 42.4081 21.449V21.449Z" fill="#595454"/>
<path d="M36.0131 29.6V27.217C36.4501 27.217 36.9621 27.217 37.2471 27.217C38.0114 27.217 38.7445 26.9134 39.285 26.3729C39.8254 25.8324 40.1291 25.0994 40.1291 24.335C40.1291 23.5707 39.8254 22.8376 39.285 22.2971C38.7445 21.7566 38.0114 21.453 37.2471 21.453H35.2031C34.9886 21.4546 34.7833 21.5406 34.6317 21.6923C34.4801 21.8441 34.3944 22.0495 34.3931 22.264V29.605C34.3931 29.82 34.4785 30.0261 34.6305 30.1781C34.7825 30.3301 34.9886 30.4155 35.2036 30.4155C35.4185 30.4155 35.6247 30.3301 35.7767 30.1781C35.9287 30.0261 36.0141 29.82 36.0141 29.605L36.0131 29.6ZM37.2471 23.07C37.4169 23.0632 37.5863 23.0908 37.7452 23.1512C37.9041 23.2115 38.0492 23.3033 38.1717 23.4211C38.2943 23.5388 38.3918 23.6801 38.4584 23.8365C38.525 23.9928 38.5593 24.1611 38.5593 24.331C38.5593 24.501 38.525 24.6692 38.4584 24.8255C38.3918 24.9819 38.2943 25.1232 38.1717 25.241C38.0492 25.3587 37.9041 25.4505 37.7452 25.5108C37.5863 25.5712 37.4169 25.5988 37.2471 25.592C36.9641 25.592 36.4591 25.592 36.0231 25.592C36.0231 25.142 36.0231 24.617 36.0231 24.326C36.0231 24.081 36.0231 23.535 36.0231 23.065L37.2471 23.07Z" fill="#595454"/>
<path d="M52.068 29.6V27.217C52.505 27.217 53.017 27.217 53.302 27.217C54.0664 27.217 54.7994 26.9134 55.3399 26.3729C55.8804 25.8324 56.184 25.0994 56.184 24.335C56.184 23.5707 55.8804 22.8376 55.3399 22.2971C54.7994 21.7566 54.0664 21.453 53.302 21.453H51.258C51.0433 21.4543 50.8378 21.5402 50.686 21.692C50.5342 21.8438 50.4483 22.0493 50.447 22.264V29.605C50.4544 29.815 50.543 30.014 50.6942 30.16C50.8454 30.3059 51.0474 30.3875 51.2575 30.3875C51.4677 30.3875 51.6696 30.3059 51.8208 30.16C51.972 30.014 52.0606 29.815 52.068 29.605V29.6ZM53.302 23.07C53.4718 23.0632 53.6413 23.0908 53.8002 23.1512C53.9591 23.2115 54.1041 23.3033 54.2267 23.4211C54.3492 23.5388 54.4467 23.6801 54.5133 23.8365C54.5799 23.9928 54.6143 24.1611 54.6143 24.331C54.6143 24.501 54.5799 24.6692 54.5133 24.8255C54.4467 24.9819 54.3492 25.1232 54.2267 25.241C54.1041 25.3587 53.9591 25.4505 53.8002 25.5108C53.6413 25.5712 53.4718 25.5988 53.302 25.592C53.019 25.592 52.514 25.592 52.078 25.592C52.078 25.142 52.078 24.617 52.078 24.326C52.078 24.081 52.078 23.535 52.078 23.065L53.302 23.07Z" fill="#595454"/>
<path d="M69.5462 52.084H61.4153C58.3767 52.084 55.4625 50.8769 53.3139 48.7283C51.1653 46.5797 49.9583 43.6656 49.9583 40.627V40.618C49.9583 37.5794 51.1653 34.6653 53.3139 32.5167C55.4625 30.3681 58.3767 29.161 61.4153 29.161H69.5462C72.5848 29.161 75.499 30.3681 77.6476 32.5167C79.7962 34.6653 81.0033 37.5794 81.0033 40.618V40.627C81.0033 43.6656 79.7962 46.5797 77.6476 48.7283C75.499 50.8769 72.5848 52.084 69.5462 52.084V52.084Z" fill="#FCB143"/>
<path d="M76.039 31.184C77.2246 32.9045 77.9172 34.9163 78.0421 37.002C78.167 39.0877 77.7193 41.1678 76.7475 43.0175C75.7757 44.8672 74.3168 46.416 72.5285 47.4965C70.7401 48.577 68.6904 49.1481 66.601 49.148H58.478C56.156 49.151 53.8883 48.4452 51.978 47.125C53.031 48.655 54.4404 49.9059 56.0847 50.7697C57.7289 51.6334 59.5587 52.0842 61.416 52.083H69.539C71.984 52.0828 74.3648 51.3008 76.3336 49.8511C78.3025 48.4015 79.7561 46.3602 80.4822 44.0256C81.2083 41.691 81.1688 39.1853 80.3694 36.8747C79.57 34.5642 78.0526 32.5698 76.039 31.183V31.184Z" fill="#FA9801"/>
<path d="M75.1802 37.717H73.7272L74.4552 34.217C74.4769 34.1128 74.4778 34.0053 74.4579 33.9008C74.4381 33.7962 74.3978 33.6966 74.3394 33.6076C74.2811 33.5186 74.2058 33.4419 74.1178 33.382C74.0298 33.3221 73.9309 33.2802 73.8267 33.2585C73.7225 33.2368 73.615 33.2359 73.5105 33.2557C73.4059 33.2756 73.3063 33.3159 73.2173 33.3742C73.1283 33.4326 73.0516 33.5079 72.9917 33.5959C72.9318 33.6839 72.8899 33.7828 72.8682 33.887L72.0682 37.717H70.5042L71.2322 34.217C71.276 34.0065 71.2343 33.7873 71.1165 33.6076C70.9986 33.4278 70.8141 33.3023 70.6037 33.2585C70.3932 33.2147 70.174 33.2564 69.9943 33.3742C69.8145 33.4921 69.689 33.6766 69.6452 33.887L68.8452 37.717H67.0642C66.8493 37.717 66.6431 37.8024 66.4911 37.9544C66.3391 38.1064 66.2537 38.3125 66.2537 38.5275C66.2537 38.7425 66.3391 38.9486 66.4911 39.1006C66.6431 39.2526 66.8493 39.338 67.0642 39.338H68.5132L67.8642 42.453H66.0832C65.8682 42.453 65.6621 42.5384 65.5101 42.6904C65.3581 42.8424 65.2727 43.0485 65.2727 43.2635C65.2727 43.4785 65.3581 43.6846 65.5101 43.8366C65.6621 43.9886 65.8682 44.074 66.0832 44.074H67.5272L66.7842 47.65C66.7582 47.7558 66.7537 47.8658 66.7712 47.9733C66.7886 48.0809 66.8276 48.1838 66.8857 48.276C66.9437 48.3682 67.0198 48.4477 67.1093 48.5099C67.1989 48.572 67.3 48.6154 67.4066 48.6376C67.5133 48.6598 67.6234 48.6602 67.7302 48.639C67.8371 48.6177 67.9386 48.5751 68.0286 48.5137C68.1186 48.4523 68.1954 48.3734 68.2542 48.2817C68.3131 48.19 68.3529 48.0874 68.3712 47.98L69.1832 44.074H70.7512L70.0082 47.65C69.9822 47.7558 69.9777 47.8658 69.9952 47.9733C70.0126 48.0809 70.0516 48.1838 70.1096 48.276C70.1677 48.3682 70.2438 48.4477 70.3333 48.5099C70.4229 48.572 70.524 48.6154 70.6306 48.6376C70.7373 48.6598 70.8474 48.6602 70.9542 48.639C71.0611 48.6177 71.1626 48.5751 71.2526 48.5137C71.3426 48.4523 71.4194 48.3734 71.4782 48.2817C71.5371 48.19 71.5769 48.0874 71.5952 47.98L72.4072 44.074H74.2072C74.4221 44.074 74.6283 43.9886 74.7803 43.8366C74.9323 43.6846 75.0177 43.4785 75.0177 43.2635C75.0177 43.0485 74.9323 42.8424 74.7803 42.6904C74.6283 42.5384 74.4221 42.453 74.2072 42.453H72.7492L73.3962 39.338H75.1862C75.4011 39.338 75.6073 39.2526 75.7593 39.1006C75.9113 38.9486 75.9967 38.7425 75.9967 38.5275C75.9967 38.3125 75.9113 38.1064 75.7593 37.9544C75.6073 37.8024 75.4011 37.717 75.1862 37.717H75.1802ZM71.0872 42.453H69.5192L70.1662 39.338H71.7342L71.0872 42.453Z" fill="#595454"/>
<path d="M60.6692 45.42C59.9679 45.4199 59.2764 45.2555 58.6501 44.9398C58.0239 44.624 57.4804 44.1659 57.0633 43.6021C56.6462 43.0384 56.3671 42.3846 56.2483 41.6934C56.1296 41.0022 56.1746 40.2928 56.3797 39.6222C56.5848 38.9515 56.9442 38.3383 57.4292 37.8317C57.9142 37.3251 58.5112 36.9393 59.1723 36.7053C59.8334 36.4712 60.5402 36.3954 61.2359 36.4839C61.9316 36.5724 62.5968 36.8228 63.1782 37.215C63.2664 37.2746 63.342 37.351 63.4006 37.4398C63.4593 37.5287 63.4999 37.6282 63.5201 37.7327C63.5403 37.8372 63.5397 37.9447 63.5184 38.049C63.497 38.1533 63.4553 38.2523 63.3957 38.3405C63.3361 38.4287 63.2597 38.5042 63.1709 38.5629C63.082 38.6215 62.9825 38.6621 62.878 38.6823C62.7735 38.7025 62.666 38.702 62.5618 38.6806C62.4575 38.6593 62.3584 38.6176 62.2702 38.558C61.8988 38.3077 61.4739 38.148 61.0295 38.0917C60.5852 38.0354 60.1339 38.0841 59.7118 38.2338C59.2896 38.3835 58.9085 38.63 58.5989 38.9537C58.2893 39.2774 58.06 39.6691 57.9292 40.0975C57.7984 40.5258 57.7699 40.9789 57.8459 41.4203C57.9219 41.8616 58.1004 42.279 58.3669 42.639C58.6334 42.9989 58.9807 43.2914 59.3807 43.4928C59.7807 43.6943 60.2223 43.7991 60.6702 43.799C61.2114 43.8164 61.7392 43.6289 62.1482 43.274C62.2254 43.2049 62.2976 43.1304 62.3642 43.051C62.4326 42.9694 62.5163 42.9021 62.6107 42.853C62.705 42.8038 62.8082 42.7737 62.9142 42.7643C63.0202 42.755 63.1269 42.7666 63.2284 42.7986C63.3299 42.8305 63.4242 42.8821 63.5057 42.9505C63.5873 43.0188 63.6546 43.1026 63.7038 43.197C63.7529 43.2913 63.783 43.3944 63.7924 43.5004C63.8017 43.6064 63.7901 43.7132 63.7581 43.8147C63.7262 43.9162 63.6746 44.0105 63.6062 44.092C63.2485 44.5204 62.7984 44.8623 62.2898 45.0921C61.7812 45.3219 61.2271 45.4337 60.6692 45.419V45.42Z" fill="#595454"/>
<path d="M289.989 38.189H323.989C324.519 38.1905 325.027 38.4018 325.402 38.7765C325.776 39.1512 325.988 39.659 325.989 40.189V66.189C325.988 66.7189 325.776 67.2267 325.402 67.6014C325.027 67.9762 324.519 68.1874 323.989 68.189H320.989C320.724 68.189 320.47 68.2943 320.282 68.4819C320.095 68.6694 319.989 68.9237 319.989 69.189V72.189C319.988 72.5579 319.885 72.9193 319.692 73.2334C319.498 73.5475 319.222 73.8019 318.893 73.9685C318.564 74.1351 318.195 74.2075 317.827 74.1776C317.459 74.1477 317.107 74.0166 316.809 73.799L309.519 68.569C309.175 68.3219 308.763 68.189 308.339 68.189H289.989C289.459 68.1874 288.952 67.9762 288.577 67.6014C288.202 67.2267 287.991 66.7189 287.989 66.189V40.189C287.989 39.6585 288.2 39.1498 288.575 38.7748C288.95 38.3997 289.459 38.189 289.989 38.189V38.189Z" fill="#866ADC"/>
<path d="M267.989 18.189V44.189C267.989 44.7194 268.2 45.2281 268.575 45.6032C268.95 45.9783 269.459 46.189 269.989 46.189H272.989C273.254 46.189 273.509 46.2943 273.696 46.4819C273.884 46.6694 273.989 46.9237 273.989 47.189V50.189C273.989 50.5579 274.091 50.9196 274.284 51.2342C274.477 51.5487 274.753 51.8039 275.081 51.9713C275.41 52.1388 275.779 52.2121 276.147 52.1831C276.514 52.154 276.867 52.0239 277.165 51.807L284.465 46.576C284.806 46.3262 285.217 46.1908 285.639 46.189H303.989C304.52 46.189 305.028 45.9783 305.403 45.6032C305.779 45.2281 305.989 44.7194 305.989 44.189V18.189C305.989 17.6585 305.779 17.1498 305.403 16.7748C305.028 16.3997 304.52 16.189 303.989 16.189H269.989C269.459 16.189 268.95 16.3997 268.575 16.7748C268.2 17.1498 267.989 17.6585 267.989 18.189V18.189Z" fill="#31B791"/>
<path d="M281.989 28.189C281.724 28.1889 281.47 28.0835 281.282 27.896L278.282 24.896C278.095 24.7085 277.99 24.4541 277.99 24.189C277.99 23.9238 278.095 23.6695 278.282 23.482L281.282 20.482C281.375 20.3865 281.485 20.3103 281.607 20.2579C281.729 20.2055 281.86 20.1779 281.993 20.1767C282.126 20.1756 282.257 20.2009 282.38 20.2512C282.503 20.3014 282.615 20.3757 282.709 20.4696C282.803 20.5635 282.877 20.6751 282.927 20.798C282.977 20.9209 283.003 21.0526 283.002 21.1854C283 21.3182 282.973 21.4494 282.92 21.5714C282.868 21.6934 282.792 21.8037 282.696 21.896L280.403 24.189L282.696 26.482C282.836 26.6218 282.931 26.8 282.97 26.994C283.008 27.1879 282.989 27.3889 282.913 27.5716C282.837 27.7543 282.709 27.9105 282.545 28.0204C282.38 28.1303 282.187 28.1889 281.989 28.189Z" fill="#F0F2F5"/>
<path d="M291.989 28.1889C291.792 28.1889 291.598 28.1302 291.434 28.0203C291.269 27.9105 291.141 27.7543 291.066 27.5716C290.99 27.3889 290.97 27.1879 291.009 26.9939C291.047 26.8 291.142 26.6218 291.282 26.4819L293.575 24.1889L291.282 21.8959C291.1 21.7073 290.999 21.4547 291.002 21.1925C291.004 20.9303 291.109 20.6795 291.294 20.4941C291.48 20.3087 291.731 20.2035 291.993 20.2013C292.255 20.199 292.508 20.2998 292.696 20.4819L295.696 23.4819C295.884 23.6695 295.989 23.9238 295.989 24.1889C295.989 24.4541 295.884 24.7084 295.696 24.8959L292.696 27.8959C292.509 28.0835 292.254 28.1889 291.989 28.1889Z" fill="#F0F2F5"/>
<path d="M285.989 29.1889C285.907 29.1893 285.826 29.1792 285.746 29.1589C285.619 29.1271 285.499 29.0705 285.393 28.9923C285.288 28.9142 285.198 28.8159 285.131 28.7033C285.063 28.5906 285.018 28.4658 284.999 28.3358C284.98 28.2059 284.986 28.0734 285.018 27.9459L287.018 19.9459C287.084 19.6903 287.249 19.4712 287.475 19.3363C287.702 19.2014 287.973 19.1617 288.229 19.2258C288.486 19.29 288.706 19.4528 288.842 19.6787C288.979 19.9047 289.021 20.1754 288.958 20.4319L286.958 28.4319C286.904 28.648 286.779 28.8398 286.604 28.977C286.428 29.1141 286.212 29.1887 285.989 29.1889Z" fill="#F0F2F5"/>
<path d="M301.989 59.1889C301.724 59.1889 301.47 59.0835 301.282 58.8959L299.282 56.8959C299.095 56.7084 298.99 56.4541 298.99 56.1889C298.99 55.9238 299.095 55.6695 299.282 55.4819L301.282 53.4819C301.471 53.2998 301.723 53.199 301.986 53.2013C302.248 53.2035 302.499 53.3087 302.684 53.4941C302.87 53.6795 302.975 53.9303 302.977 54.1925C302.979 54.4547 302.878 54.7073 302.696 54.8959L301.403 56.1889L302.696 57.4819C302.836 57.6218 302.931 57.8 302.97 57.9939C303.008 58.1879 302.989 58.3889 302.913 58.5716C302.837 58.7543 302.709 58.9105 302.545 59.0203C302.38 59.1302 302.187 59.1889 301.989 59.1889Z" fill="white"/>
<path d="M310.989 59.1889C310.792 59.1889 310.598 59.1302 310.434 59.0203C310.269 58.9105 310.141 58.7543 310.066 58.5716C309.99 58.3889 309.97 58.1879 310.009 57.9939C310.047 57.8 310.142 57.6218 310.282 57.4819L311.575 56.1889L310.282 54.8959C310.1 54.7073 309.999 54.4547 310.002 54.1925C310.004 53.9303 310.109 53.6795 310.294 53.4941C310.48 53.3087 310.731 53.2035 310.993 53.2013C311.255 53.199 311.508 53.2998 311.696 53.4819L313.696 55.4819C313.884 55.6695 313.989 55.9238 313.989 56.1889C313.989 56.4541 313.884 56.7084 313.696 56.8959L311.696 58.8959C311.509 59.0835 311.254 59.1889 310.989 59.1889V59.1889Z" fill="white"/>
<path d="M305.989 60.189C305.934 60.1892 305.879 60.1845 305.824 60.175C305.563 60.1314 305.329 59.9857 305.175 59.7701C305.021 59.5545 304.959 59.2865 305.002 59.025L306.002 53.025C306.053 52.7699 306.2 52.5445 306.414 52.3965C306.628 52.2485 306.891 52.1896 307.147 52.2322C307.404 52.2749 307.634 52.4158 307.788 52.625C307.942 52.8342 308.009 53.0953 307.974 53.353L306.974 59.353C306.935 59.5863 306.815 59.7983 306.635 59.9514C306.455 60.1044 306.226 60.1886 305.989 60.189Z" fill="white"/>
<path d="M300.989 34.189H299.989C299.724 34.189 299.47 34.0836 299.282 33.8961C299.095 33.7085 298.989 33.4542 298.989 33.189C298.989 32.9237 299.095 32.6694 299.282 32.4819C299.47 32.2943 299.724 32.189 299.989 32.189H300.989C301.254 32.189 301.509 32.2943 301.696 32.4819C301.884 32.6694 301.989 32.9237 301.989 33.189C301.989 33.4542 301.884 33.7085 301.696 33.8961C301.509 34.0836 301.254 34.189 300.989 34.189Z" fill="#F0F2F5"/>
<path d="M300.989 38.189H299.989C299.724 38.189 299.47 38.0836 299.282 37.8961C299.095 37.7085 298.989 37.4542 298.989 37.189C298.989 36.9237 299.095 36.6694 299.282 36.4819C299.47 36.2943 299.724 36.189 299.989 36.189H300.989C301.254 36.189 301.509 36.2943 301.696 36.4819C301.884 36.6694 301.989 36.9237 301.989 37.189C301.989 37.4542 301.884 37.7085 301.696 37.8961C301.509 38.0836 301.254 38.189 300.989 38.189Z" fill="#F0F2F5"/>
<path d="M295.989 34.189H273.989C273.724 34.189 273.47 34.0836 273.282 33.8961C273.095 33.7085 272.989 33.4542 272.989 33.189C272.989 32.9237 273.095 32.6694 273.282 32.4819C273.47 32.2943 273.724 32.189 273.989 32.189H295.989C296.254 32.189 296.509 32.2943 296.696 32.4819C296.884 32.6694 296.989 32.9237 296.989 33.189C296.989 33.4542 296.884 33.7085 296.696 33.8961C296.509 34.0836 296.254 34.189 295.989 34.189Z" fill="#F0F2F5"/>
<path d="M286.989 42.189H273.989C273.724 42.189 273.47 42.0836 273.282 41.8961C273.095 41.7085 272.989 41.4542 272.989 41.189C272.989 40.9237 273.095 40.6694 273.282 40.4819C273.47 40.2943 273.724 40.189 273.989 40.189H286.989C287.254 40.189 287.509 40.2943 287.696 40.4819C287.884 40.6694 287.989 40.9237 287.989 41.189C287.989 41.4542 287.884 41.7085 287.696 41.8961C287.509 42.0836 287.254 42.189 286.989 42.189Z" fill="#F0F2F5"/>
<path d="M295.989 38.189H278.989C278.724 38.189 278.47 38.0836 278.282 37.8961C278.095 37.7085 277.989 37.4542 277.989 37.189C277.989 36.9237 278.095 36.6694 278.282 36.4819C278.47 36.2943 278.724 36.189 278.989 36.189H295.989C296.254 36.189 296.509 36.2943 296.696 36.4819C296.884 36.6694 296.989 36.9237 296.989 37.189C296.989 37.4542 296.884 37.7085 296.696 37.8961C296.509 38.0836 296.254 38.189 295.989 38.189Z" fill="#F0F2F5"/>
<path d="M274.989 38.189H273.989C273.724 38.189 273.47 38.0836 273.282 37.8961C273.095 37.7085 272.989 37.4542 272.989 37.189C272.989 36.9237 273.095 36.6694 273.282 36.4819C273.47 36.2943 273.724 36.189 273.989 36.189H274.989C275.254 36.189 275.509 36.2943 275.696 36.4819C275.884 36.6694 275.989 36.9237 275.989 37.189C275.989 37.4542 275.884 37.7085 275.696 37.8961C275.509 38.0836 275.254 38.189 274.989 38.189Z" fill="#F0F2F5"/>
<path d="M299.989 63.189C298.928 63.189 297.911 62.7675 297.161 62.0174C296.411 61.2672 295.989 60.2498 295.989 59.189C295.989 58.54 294.565 57.543 293.581 57.102C293.405 57.0231 293.256 56.8949 293.151 56.733C293.046 56.5711 292.99 56.3824 292.99 56.1895C292.99 55.9966 293.046 55.8078 293.151 55.6459C293.256 55.484 293.405 55.3559 293.581 55.277C294.719 54.763 295.989 53.779 295.989 53.189C295.989 52.1281 296.411 51.1107 297.161 50.3605C297.911 49.6104 298.928 49.189 299.989 49.189C300.254 49.189 300.509 49.2943 300.696 49.4819C300.884 49.6694 300.989 49.9237 300.989 50.189C300.989 50.4542 300.884 50.7085 300.696 50.8961C300.509 51.0836 300.254 51.189 299.989 51.189C299.459 51.189 298.95 51.3997 298.575 51.7747C298.2 52.1498 297.989 52.6585 297.989 53.189C297.913 53.8104 297.692 54.4054 297.345 54.9263C296.998 55.4472 296.533 55.8796 295.989 56.189C296.533 56.4983 296.998 56.9307 297.345 57.4516C297.692 57.9726 297.913 58.5675 297.989 59.189C297.989 59.7194 298.2 60.2281 298.575 60.6032C298.95 60.9783 299.459 61.189 299.989 61.189C300.254 61.189 300.509 61.2943 300.696 61.4819C300.884 61.6694 300.989 61.9237 300.989 62.189C300.989 62.4542 300.884 62.7085 300.696 62.8961C300.509 63.0836 300.254 63.189 299.989 63.189Z" fill="white"/>
<path d="M312.989 63.189C312.724 63.189 312.47 63.0836 312.282 62.8961C312.095 62.7085 311.989 62.4542 311.989 62.189C311.989 61.9237 312.095 61.6694 312.282 61.4819C312.47 61.2943 312.724 61.189 312.989 61.189C313.52 61.189 314.028 60.9783 314.403 60.6032C314.779 60.2281 314.989 59.7194 314.989 59.189C315.065 58.5675 315.286 57.9726 315.633 57.4516C315.981 56.9307 316.445 56.4983 316.989 56.189C316.445 55.8796 315.981 55.4472 315.633 54.9263C315.286 54.4054 315.065 53.8104 314.989 53.189C314.989 52.6585 314.779 52.1498 314.403 51.7747C314.028 51.3997 313.52 51.189 312.989 51.189C312.724 51.189 312.47 51.0836 312.282 50.8961C312.095 50.7085 311.989 50.4542 311.989 50.189C311.989 49.9237 312.095 49.6694 312.282 49.4819C312.47 49.2943 312.724 49.189 312.989 49.189C314.05 49.189 315.068 49.6104 315.818 50.3605C316.568 51.1107 316.989 52.1281 316.989 53.189C316.989 53.838 318.413 54.835 319.397 55.276C319.573 55.3549 319.723 55.483 319.828 55.6449C319.932 55.8068 319.988 55.9956 319.988 56.1885C319.988 56.3814 319.932 56.5701 319.828 56.732C319.723 56.8939 319.573 57.0221 319.397 57.101C318.259 57.615 316.989 58.599 316.989 59.189C316.989 60.2498 316.568 61.2672 315.818 62.0174C315.068 62.7675 314.05 63.189 312.989 63.189Z" fill="white"/>
<path d="M618.457 157.376H652.457C652.987 157.378 653.495 157.589 653.869 157.964C654.244 158.338 654.455 158.846 654.457 159.376V185.376C654.455 185.906 654.244 186.414 653.869 186.788C653.495 187.163 652.987 187.374 652.457 187.376H649.457C649.192 187.376 648.937 187.481 648.75 187.669C648.562 187.856 648.457 188.111 648.457 188.376V191.376C648.456 191.745 648.353 192.106 648.16 192.42C647.966 192.734 647.69 192.989 647.36 193.156C647.031 193.322 646.663 193.395 646.295 193.365C645.927 193.335 645.575 193.204 645.277 192.986L637.987 187.756C637.643 187.509 637.23 187.376 636.807 187.376H618.457C617.927 187.374 617.419 187.163 617.045 186.788C616.67 186.414 616.459 185.906 616.457 185.376V159.376C616.457 158.846 616.668 158.337 617.043 157.962C617.418 157.587 617.927 157.376 618.457 157.376V157.376Z" fill="#866ADC"/>
<path d="M596.457 137.376V163.376C596.457 163.906 596.668 164.415 597.043 164.79C597.418 165.165 597.927 165.376 598.457 165.376H601.457C601.722 165.376 601.977 165.481 602.164 165.669C602.352 165.856 602.457 166.111 602.457 166.376V169.376C602.457 169.745 602.559 170.107 602.752 170.421C602.944 170.736 603.22 170.991 603.549 171.158C603.878 171.326 604.247 171.399 604.614 171.37C604.982 171.341 605.335 171.211 605.633 170.994L612.933 165.763C613.274 165.513 613.685 165.378 614.107 165.376H632.457C632.987 165.376 633.496 165.165 633.871 164.79C634.246 164.415 634.457 163.906 634.457 163.376V137.376C634.457 136.846 634.246 136.337 633.871 135.962C633.496 135.587 632.987 135.376 632.457 135.376H598.457C597.927 135.376 597.418 135.587 597.043 135.962C596.668 136.337 596.457 136.846 596.457 137.376V137.376Z" fill="#31B791"/>
<path d="M610.457 147.376C610.192 147.376 609.937 147.271 609.75 147.083L606.75 144.083C606.562 143.895 606.457 143.641 606.457 143.376C606.457 143.111 606.562 142.857 606.75 142.669L609.75 139.669C609.842 139.573 609.952 139.497 610.074 139.445C610.196 139.392 610.328 139.365 610.46 139.364C610.593 139.363 610.725 139.388 610.848 139.438C610.971 139.488 611.082 139.563 611.176 139.657C611.27 139.75 611.344 139.862 611.395 139.985C611.445 140.108 611.47 140.24 611.469 140.372C611.468 140.505 611.44 140.636 611.388 140.758C611.336 140.88 611.259 140.991 611.164 141.083L608.871 143.376L611.164 145.669C611.304 145.809 611.399 145.987 611.437 146.181C611.476 146.375 611.456 146.576 611.38 146.759C611.305 146.941 611.177 147.098 611.012 147.207C610.848 147.317 610.655 147.376 610.457 147.376Z" fill="#F0F2F5"/>
<path d="M620.457 147.376C620.259 147.376 620.066 147.317 619.901 147.207C619.737 147.097 619.609 146.941 619.533 146.759C619.457 146.576 619.438 146.375 619.476 146.181C619.515 145.987 619.61 145.809 619.75 145.669L622.043 143.376L619.75 141.083C619.568 140.894 619.467 140.642 619.469 140.38C619.471 140.117 619.577 139.867 619.762 139.681C619.947 139.496 620.198 139.391 620.46 139.388C620.723 139.386 620.975 139.487 621.164 139.669L624.164 142.669C624.351 142.856 624.457 143.111 624.457 143.376C624.457 143.641 624.351 143.895 624.164 144.083L621.164 147.083C620.976 147.271 620.722 147.376 620.457 147.376Z" fill="#F0F2F5"/>
<path d="M614.457 148.376C614.375 148.376 614.293 148.366 614.214 148.346C614.086 148.314 613.967 148.258 613.861 148.179C613.755 148.101 613.666 148.003 613.599 147.89C613.531 147.778 613.486 147.653 613.467 147.523C613.448 147.393 613.454 147.26 613.486 147.133L615.486 139.133C615.552 138.877 615.716 138.658 615.943 138.523C616.17 138.388 616.441 138.349 616.697 138.413C616.953 138.477 617.174 138.64 617.31 138.866C617.447 139.092 617.488 139.362 617.426 139.619L615.426 147.619C615.372 147.835 615.247 148.027 615.072 148.164C614.896 148.301 614.68 148.376 614.457 148.376Z" fill="#F0F2F5"/>
<path d="M630.457 178.376C630.192 178.376 629.937 178.271 629.75 178.083L627.75 176.083C627.562 175.895 627.457 175.641 627.457 175.376C627.457 175.111 627.562 174.856 627.75 174.669L629.75 172.669C629.938 172.487 630.191 172.386 630.453 172.388C630.715 172.391 630.966 172.496 631.152 172.681C631.337 172.867 631.442 173.117 631.444 173.38C631.447 173.642 631.346 173.894 631.164 174.083L629.871 175.376L631.164 176.669C631.304 176.809 631.399 176.987 631.437 177.181C631.476 177.375 631.456 177.576 631.38 177.759C631.305 177.941 631.177 178.097 631.012 178.207C630.848 178.317 630.655 178.376 630.457 178.376Z" fill="white"/>
<path d="M639.457 178.376C639.259 178.376 639.066 178.317 638.901 178.207C638.737 178.097 638.609 177.941 638.533 177.759C638.457 177.576 638.438 177.375 638.476 177.181C638.515 176.987 638.61 176.809 638.75 176.669L640.043 175.376L638.75 174.083C638.568 173.894 638.467 173.642 638.469 173.38C638.471 173.117 638.577 172.867 638.762 172.681C638.947 172.496 639.198 172.391 639.46 172.388C639.723 172.386 639.975 172.487 640.164 172.669L642.164 174.669C642.351 174.856 642.457 175.111 642.457 175.376C642.457 175.641 642.351 175.895 642.164 176.083L640.164 178.083C639.976 178.271 639.722 178.376 639.457 178.376V178.376Z" fill="white"/>
<path d="M634.457 179.376C634.402 179.376 634.346 179.372 634.292 179.362C634.031 179.318 633.797 179.173 633.643 178.957C633.489 178.741 633.427 178.473 633.47 178.212L634.47 172.212C634.52 171.957 634.668 171.731 634.882 171.583C635.096 171.436 635.359 171.377 635.615 171.419C635.872 171.462 636.101 171.603 636.256 171.812C636.41 172.021 636.477 172.282 636.442 172.54L635.442 178.54C635.403 178.773 635.283 178.985 635.103 179.138C634.922 179.291 634.694 179.376 634.457 179.376Z" fill="white"/>
<path d="M629.457 153.376H628.457C628.192 153.376 627.937 153.271 627.75 153.083C627.562 152.896 627.457 152.641 627.457 152.376C627.457 152.111 627.562 151.856 627.75 151.669C627.937 151.481 628.192 151.376 628.457 151.376H629.457C629.722 151.376 629.977 151.481 630.164 151.669C630.352 151.856 630.457 152.111 630.457 152.376C630.457 152.641 630.352 152.896 630.164 153.083C629.977 153.271 629.722 153.376 629.457 153.376Z" fill="#F0F2F5"/>
<path d="M629.457 157.376H628.457C628.192 157.376 627.937 157.271 627.75 157.083C627.562 156.896 627.457 156.641 627.457 156.376C627.457 156.111 627.562 155.856 627.75 155.669C627.937 155.481 628.192 155.376 628.457 155.376H629.457C629.722 155.376 629.977 155.481 630.164 155.669C630.352 155.856 630.457 156.111 630.457 156.376C630.457 156.641 630.352 156.896 630.164 157.083C629.977 157.271 629.722 157.376 629.457 157.376Z" fill="#F0F2F5"/>
<path d="M624.457 153.376H602.457C602.192 153.376 601.937 153.271 601.75 153.083C601.562 152.896 601.457 152.641 601.457 152.376C601.457 152.111 601.562 151.856 601.75 151.669C601.937 151.481 602.192 151.376 602.457 151.376H624.457C624.722 151.376 624.977 151.481 625.164 151.669C625.352 151.856 625.457 152.111 625.457 152.376C625.457 152.641 625.352 152.896 625.164 153.083C624.977 153.271 624.722 153.376 624.457 153.376Z" fill="#F0F2F5"/>
<path d="M615.457 161.376H602.457C602.192 161.376 601.937 161.271 601.75 161.083C601.562 160.896 601.457 160.641 601.457 160.376C601.457 160.111 601.562 159.856 601.75 159.669C601.937 159.481 602.192 159.376 602.457 159.376H615.457C615.722 159.376 615.977 159.481 616.164 159.669C616.352 159.856 616.457 160.111 616.457 160.376C616.457 160.641 616.352 160.896 616.164 161.083C615.977 161.271 615.722 161.376 615.457 161.376Z" fill="#F0F2F5"/>
<path d="M624.457 157.376H607.457C607.192 157.376 606.937 157.271 606.75 157.083C606.562 156.896 606.457 156.641 606.457 156.376C606.457 156.111 606.562 155.856 606.75 155.669C606.937 155.481 607.192 155.376 607.457 155.376H624.457C624.722 155.376 624.977 155.481 625.164 155.669C625.352 155.856 625.457 156.111 625.457 156.376C625.457 156.641 625.352 156.896 625.164 157.083C624.977 157.271 624.722 157.376 624.457 157.376Z" fill="#F0F2F5"/>
<path d="M603.457 157.376H602.457C602.192 157.376 601.937 157.271 601.75 157.083C601.562 156.896 601.457 156.641 601.457 156.376C601.457 156.111 601.562 155.856 601.75 155.669C601.937 155.481 602.192 155.376 602.457 155.376H603.457C603.722 155.376 603.977 155.481 604.164 155.669C604.352 155.856 604.457 156.111 604.457 156.376C604.457 156.641 604.352 156.896 604.164 157.083C603.977 157.271 603.722 157.376 603.457 157.376Z" fill="#F0F2F5"/>
<path d="M628.457 182.376C627.396 182.376 626.379 181.955 625.629 181.204C624.878 180.454 624.457 179.437 624.457 178.376C624.457 177.727 623.033 176.73 622.049 176.289C621.873 176.21 621.723 176.082 621.619 175.92C621.514 175.758 621.458 175.569 621.458 175.376C621.458 175.184 621.514 174.995 621.619 174.833C621.723 174.671 621.873 174.543 622.049 174.464C623.187 173.95 624.457 172.966 624.457 172.376C624.457 171.315 624.878 170.298 625.629 169.548C626.379 168.797 627.396 168.376 628.457 168.376C628.722 168.376 628.977 168.481 629.164 168.669C629.352 168.856 629.457 169.111 629.457 169.376C629.457 169.641 629.352 169.896 629.164 170.083C628.977 170.271 628.722 170.376 628.457 170.376C627.926 170.376 627.418 170.587 627.043 170.962C626.668 171.337 626.457 171.846 626.457 172.376C626.381 172.997 626.16 173.592 625.813 174.113C625.466 174.634 625.001 175.067 624.457 175.376C625.001 175.685 625.466 176.118 625.813 176.639C626.16 177.16 626.381 177.755 626.457 178.376C626.457 178.906 626.668 179.415 627.043 179.79C627.418 180.165 627.926 180.376 628.457 180.376C628.722 180.376 628.977 180.481 629.164 180.669C629.352 180.856 629.457 181.111 629.457 181.376C629.457 181.641 629.352 181.896 629.164 182.083C628.977 182.271 628.722 182.376 628.457 182.376Z" fill="white"/>
<path d="M641.457 182.376C641.192 182.376 640.937 182.271 640.75 182.083C640.562 181.896 640.457 181.641 640.457 181.376C640.457 181.111 640.562 180.856 640.75 180.669C640.937 180.481 641.192 180.376 641.457 180.376C641.987 180.376 642.496 180.165 642.871 179.79C643.246 179.415 643.457 178.906 643.457 178.376C643.533 177.755 643.754 177.16 644.101 176.639C644.448 176.118 644.913 175.685 645.457 175.376C644.913 175.067 644.448 174.634 644.101 174.113C643.754 173.592 643.533 172.997 643.457 172.376C643.457 171.846 643.246 171.337 642.871 170.962C642.496 170.587 641.987 170.376 641.457 170.376C641.192 170.376 640.937 170.271 640.75 170.083C640.562 169.896 640.457 169.641 640.457 169.376C640.457 169.111 640.562 168.856 640.75 168.669C640.937 168.481 641.192 168.376 641.457 168.376C642.518 168.376 643.535 168.797 644.285 169.548C645.036 170.298 645.457 171.315 645.457 172.376C645.457 173.025 646.881 174.022 647.865 174.463C648.041 174.542 648.19 174.67 648.295 174.832C648.4 174.994 648.456 175.183 648.456 175.375C648.456 175.568 648.4 175.757 648.295 175.919C648.19 176.081 648.041 176.209 647.865 176.288C646.727 176.802 645.457 177.786 645.457 178.376C645.457 179.437 645.036 180.454 644.285 181.204C643.535 181.955 642.518 182.376 641.457 182.376Z" fill="white"/>
<path d="M132.617 396.206C132.617 395.278 132.248 394.387 131.592 393.731C130.936 393.075 130.045 392.706 129.117 392.706H96.2952C95.3669 392.706 94.4767 393.075 93.8203 393.731C93.1639 394.387 92.7952 395.278 92.7952 396.206V403.206L93.5732 403.984H131.839L132.617 403.206V396.206Z" fill="#6364D9"/>
<path d="M132.617 396.206V403.206L131.839 403.984H112.706V392.706H129.117C130.045 392.706 130.936 393.075 131.592 393.731C132.248 394.387 132.617 395.278 132.617 396.206Z" fill="#6364D9"/>
<path d="M126.706 397.373H119.706C119.403 397.382 119.115 397.509 118.903 397.726C118.692 397.944 118.573 398.236 118.573 398.539C118.573 398.843 118.692 399.135 118.903 399.353C119.115 399.57 119.403 399.697 119.706 399.706H126.706C126.862 399.711 127.018 399.684 127.163 399.627C127.309 399.571 127.441 399.485 127.553 399.377C127.665 399.268 127.754 399.138 127.815 398.994C127.876 398.85 127.907 398.696 127.907 398.539C127.907 398.383 127.876 398.229 127.815 398.085C127.754 397.941 127.665 397.811 127.553 397.702C127.441 397.594 127.309 397.508 127.163 397.452C127.018 397.395 126.862 397.368 126.706 397.373V397.373Z" fill="#8485FF"/>
<path d="M107.795 399.706C108.347 399.706 108.795 399.258 108.795 398.706C108.795 398.154 108.347 397.706 107.795 397.706C107.243 397.706 106.795 398.154 106.795 398.706C106.795 399.258 107.243 399.706 107.795 399.706Z" fill="#F03800"/>
<path d="M102.795 399.706C103.347 399.706 103.795 399.258 103.795 398.706C103.795 398.154 103.347 397.706 102.795 397.706C102.243 397.706 101.795 398.154 101.795 398.706C101.795 399.258 102.243 399.706 102.795 399.706Z" fill="#FDBF00"/>
<path d="M98.7952 399.706C99.3475 399.706 99.7952 399.258 99.7952 398.706C99.7952 398.154 99.3475 397.706 98.7952 397.706C98.2429 397.706 97.7952 398.154 97.7952 398.706C97.7952 399.258 98.2429 399.706 98.7952 399.706Z" fill="#37D742"/>
<path d="M92.7952 403.206V428.872C92.7952 429.8 93.1639 430.69 93.8203 431.347C94.4767 432.003 95.3669 432.372 96.2952 432.372H129.117C130.045 432.372 130.936 432.003 131.592 431.347C132.248 430.69 132.617 429.8 132.617 428.872V403.206H92.7952Z" fill="white"/>
<path d="M132.617 403.206V428.872C132.617 429.8 132.248 430.69 131.592 431.347C130.936 432.003 130.045 432.372 129.117 432.372H112.706V403.206H132.617Z" fill="white"/>
<path d="M116.666 407.967C116.382 407.845 116.061 407.841 115.773 407.956C115.486 408.071 115.256 408.296 115.134 408.58L108.134 424.913C108.07 425.054 108.035 425.207 108.031 425.362C108.027 425.517 108.054 425.672 108.11 425.816C108.167 425.961 108.251 426.093 108.359 426.204C108.467 426.316 108.596 426.405 108.738 426.466C108.881 426.527 109.034 426.559 109.189 426.56C109.345 426.561 109.498 426.531 109.642 426.472C109.785 426.413 109.916 426.326 110.025 426.216C110.134 426.106 110.221 425.976 110.279 425.832L117.279 409.499C117.401 409.215 117.405 408.893 117.29 408.606C117.175 408.319 116.951 408.089 116.666 407.967V407.967Z" fill="#FF641A"/>
<path d="M117.279 409.499L112.706 420.169V414.244L115.133 408.58C115.191 408.436 115.278 408.306 115.387 408.196C115.497 408.086 115.627 407.999 115.77 407.94C115.914 407.881 116.068 407.851 116.223 407.852C116.378 407.853 116.531 407.885 116.674 407.946C116.816 408.008 116.945 408.096 117.053 408.208C117.161 408.319 117.246 408.451 117.302 408.596C117.358 408.74 117.385 408.895 117.381 409.05C117.377 409.205 117.342 409.358 117.278 409.499H117.279Z" fill="#F03800"/>
<path d="M106.434 420.961L101.74 417.205L106.434 413.449C106.557 413.354 106.66 413.236 106.737 413.101C106.814 412.967 106.863 412.818 106.882 412.664C106.9 412.51 106.888 412.354 106.846 412.204C106.803 412.055 106.731 411.916 106.634 411.795C106.537 411.673 106.417 411.573 106.281 411.499C106.145 411.424 105.995 411.378 105.84 411.363C105.686 411.347 105.53 411.362 105.382 411.408C105.233 411.453 105.095 411.528 104.976 411.627L99.1432 416.294C99.0066 416.403 98.8964 416.542 98.8206 416.7C98.7449 416.857 98.7056 417.03 98.7056 417.205C98.7056 417.38 98.7449 417.553 98.8206 417.71C98.8964 417.868 99.0066 418.007 99.1432 418.116L104.976 422.783C105.095 422.882 105.233 422.957 105.382 423.002C105.53 423.048 105.686 423.063 105.84 423.047C105.995 423.032 106.145 422.986 106.281 422.911C106.417 422.837 106.537 422.737 106.634 422.616C106.731 422.494 106.803 422.355 106.846 422.206C106.888 422.057 106.9 421.9 106.882 421.746C106.863 421.592 106.814 421.443 106.737 421.309C106.66 421.174 106.557 421.056 106.434 420.961Z" fill="#FF641A"/>
<path d="M126.268 416.295L120.435 411.628C120.316 411.529 120.178 411.454 120.03 411.409C119.881 411.363 119.725 411.348 119.571 411.364C119.417 411.379 119.267 411.425 119.13 411.5C118.994 411.574 118.874 411.674 118.777 411.796C118.68 411.917 118.608 412.056 118.566 412.205C118.523 412.354 118.511 412.511 118.53 412.665C118.548 412.819 118.597 412.968 118.674 413.102C118.751 413.237 118.854 413.355 118.977 413.45L123.671 417.206L118.977 420.962C118.854 421.057 118.751 421.175 118.674 421.31C118.597 421.444 118.548 421.593 118.53 421.747C118.511 421.901 118.523 422.058 118.566 422.207C118.608 422.356 118.68 422.495 118.777 422.616C118.874 422.738 118.994 422.838 119.13 422.912C119.267 422.987 119.417 423.033 119.571 423.048C119.725 423.064 119.881 423.049 120.03 423.003C120.178 422.958 120.316 422.883 120.435 422.784L126.268 418.117C126.405 418.008 126.515 417.869 126.591 417.711C126.666 417.554 126.706 417.381 126.706 417.206C126.706 417.031 126.666 416.858 126.591 416.701C126.515 416.543 126.405 416.404 126.268 416.295V416.295Z" fill="#F03800"/>
</svg>