<svg xmlns="http://www.w3.org/2000/svg" xmlns:xlink="http://www.w3.org/1999/xlink" width="854.113" height="482.808" viewBox="0 0 854.113 482.808">
  <defs>
    <linearGradient id="linear-gradient" x1="0.5" y1="1.698" x2="0.5" y2="-0.054" gradientUnits="objectBoundingBox">
      <stop offset="0" stop-color="#6162d8"/>
      <stop offset="1" stop-color="#8d92ed"/>
    </linearGradient>
    <linearGradient id="linear-gradient-2" x1="0.5" y1="-0.202" x2="0.5" y2="1.32" xlink:href="#linear-gradient"/>
    <linearGradient id="linear-gradient-3" x1="-0.226" y1="1.235" x2="0.624" y2="0.476" xlink:href="#linear-gradient"/>
    <linearGradient id="linear-gradient-4" x1="0.636" y1="0.501" x2="-0.153" y2="1.03" gradientUnits="objectBoundingBox">
      <stop offset="0.001" stop-color="#00d1ff"/>
      <stop offset="0.996" stop-color="#0162ff"/>
    </linearGradient>
    <linearGradient id="linear-gradient-5" x1="0.019" y1="1.042" x2="0.657" y2="0.488" xlink:href="#linear-gradient"/>
    <linearGradient id="linear-gradient-6" x1="0.6" y1="0.458" x2="-0.104" y2="0.832" xlink:href="#linear-gradient-4"/>
    <linearGradient id="linear-gradient-7" x1="-0.155" y1="0.887" x2="0.87" y2="0.31" gradientUnits="objectBoundingBox">
      <stop offset="0" stop-color="#ffe000"/>
      <stop offset="1" stop-color="#ffe000" stop-opacity="0"/>
    </linearGradient>
    <linearGradient id="linear-gradient-8" x1="-0.079" y1="0.912" x2="0.69" y2="0.134" gradientUnits="objectBoundingBox">
      <stop offset="0.007" stop-color="#ff9a25"/>
      <stop offset="1" stop-color="#ffe000"/>
    </linearGradient>
    <linearGradient id="linear-gradient-9" x1="-0.487" y1="0.675" x2="1.115" y2="0.391" xlink:href="#linear-gradient-8"/>
    <linearGradient id="linear-gradient-10" x1="0" y1="0.5" x2="1" y2="0.5" xlink:href="#linear-gradient-8"/>
    <linearGradient id="linear-gradient-11" x1="0.288" y1="0.264" x2="1.117" y2="1.188" xlink:href="#linear-gradient"/>
    <linearGradient id="linear-gradient-12" x1="0.5" y1="0" x2="0.5" y2="1" xlink:href="#linear-gradient"/>
    <linearGradient id="linear-gradient-13" x1="1.004" y1="0.112" x2="-0.057" y2="0.93" xlink:href="#linear-gradient"/>
    <linearGradient id="linear-gradient-14" x1="1.57" y1="-0.219" x2="-0.029" y2="0.846" xlink:href="#linear-gradient-4"/>
    <linearGradient id="linear-gradient-15" x1="0.5" y1="1.264" x2="0.5" y2="-0.032" xlink:href="#linear-gradient"/>
    <linearGradient id="linear-gradient-16" x1="0.5" y1="-0.398" x2="0.5" y2="0.942" gradientUnits="objectBoundingBox">
      <stop offset="0" stop-color="#ff6570"/>
      <stop offset="1" stop-color="#ec374f"/>
    </linearGradient>
  </defs>
  <g id="Group_23803" data-name="Group 23803" transform="translate(-57.328 0)">
    <g id="Group_23771" data-name="Group 23771" transform="translate(193.616 9.21)">
      <g id="Group_23762" data-name="Group 23762" transform="translate(0 93.884)">
        <rect id="Rectangle_2725" data-name="Rectangle 2725" width="107.051" height="41.363" transform="translate(231.754 314.841)" fill="url(#linear-gradient)"/>
        <rect id="Rectangle_2726" data-name="Rectangle 2726" width="107.051" height="15.569" transform="translate(231.754 314.841)" fill="#0e0092" opacity="0.18" style="mix-blend-mode: multiply;isolation: isolate"/>
        <rect id="Rectangle_2727" data-name="Rectangle 2727" width="570.559" height="323.014" rx="8.994" fill="url(#linear-gradient-2)"/>
        <rect id="Rectangle_2728" data-name="Rectangle 2728" width="540.443" height="293.721" rx="5.658" transform="translate(15.058 14.647)" fill="#def2fb"/>
        <rect id="Rectangle_2729" data-name="Rectangle 2729" width="540.443" height="255.813" transform="translate(15.058 33.601)" fill="#fff"/>
        <rect id="Rectangle_2730" data-name="Rectangle 2730" width="320.377" height="12.033" rx="2.463" transform="translate(125.091 356.204)" fill="#6364d9"/>
      </g>
      <g id="Group_23763" data-name="Group 23763" transform="translate(34.523 167.431)">
        <path id="Path_29599" data-name="Path 29599" d="M265.834,354.4a46.578,46.578,0,1,0-3.148-16.845A46.563,46.563,0,0,0,265.834,354.4Zm19.743-30.518a27.307,27.307,0,1,1,24.332,40.956c-.221.014-.456.027-.693.027a27.273,27.273,0,0,1-25.4-17.274,27.28,27.28,0,0,1,1.76-23.71Z" transform="translate(-262.686 -291.024)" fill="#43ffd9"/>
        <path id="Path_29600" data-name="Path 29600" d="M283.306,377.374v-19.2c.237,0,.472-.014.693-.027a27.289,27.289,0,0,0,17.7-47.457l12.783-14.336a46.508,46.508,0,0,1-31.181,81.023Z" transform="translate(-236.776 -284.33)" fill="#ff6570"/>
        <path id="Path_29601" data-name="Path 29601" d="M262.688,324.74a46.366,46.366,0,0,1,6.37-23.52l16.52,9.848a27.316,27.316,0,0,0-1.771,23.707l-17.976,6.81A46.364,46.364,0,0,1,262.688,324.74Z" transform="translate(-262.684 -278.212)" fill="#6364d9"/>
        <path id="Path_29602" data-name="Path 29602" d="M265.511,314.029a46.52,46.52,0,0,1,71.341-10.987l-12.792,14.329a27.291,27.291,0,0,0-42.028,6.506Z" transform="translate(-259.136 -291.021)" fill="#ffa950"/>
      </g>
      <g id="Group_23764" data-name="Group 23764" transform="translate(138.71 167.431)">
        <path id="Path_29603" data-name="Path 29603" d="M338.526,294.172a46.586,46.586,0,1,0,16.845-3.148A46.561,46.561,0,0,0,338.526,294.172Zm30.515,19.742a27.306,27.306,0,1,1-40.954,24.332c-.016-.223-.029-.458-.029-.693a27.273,27.273,0,0,1,17.276-25.4,27.275,27.275,0,0,1,23.707,1.76Z" transform="translate(-308.857 -291.024)" fill="#def2fb"/>
        <path id="Path_29604" data-name="Path 29604" d="M308.857,311.644h19.2c0,.235.014.469.029.693a27.29,27.29,0,0,0,47.457,17.7l14.336,12.783a46.51,46.51,0,0,1-81.023-31.181Z" transform="translate(-308.857 -265.114)" fill="#6364d9" opacity="0.75"/>
        <path id="Path_29605" data-name="Path 29605" d="M338.851,291.026a46.356,46.356,0,0,1,23.518,6.368l-9.848,16.52a27.3,27.3,0,0,0-23.705-1.769l-6.81-17.978A46.41,46.41,0,0,1,338.851,291.026Z" transform="translate(-292.335 -291.021)" fill="#6364d9" opacity="0.22"/>
        <path id="Path_29606" data-name="Path 29606" d="M345.377,293.848a46.519,46.519,0,0,1,10.989,71.341L342.035,352.4a27.29,27.29,0,0,0-6.506-42.03Z" transform="translate(-275.342 -287.475)" fill="#6364d9" opacity="0.48"/>
      </g>
      <path id="Path_29607" data-name="Path 29607" d="M436.508,351.519H272.882a5.594,5.594,0,0,1-5.594-5.594V345a5.594,5.594,0,0,1,5.594-5.594H436.508A5.592,5.592,0,0,1,442.1,345v.921A5.592,5.592,0,0,1,436.508,351.519Zm0,8.586H272.882a5.594,5.594,0,0,0-5.594,5.594v.923a5.594,5.594,0,0,0,5.594,5.592H436.508a5.592,5.592,0,0,0,5.592-5.592V365.7A5.592,5.592,0,0,0,436.508,360.1Zm0,20.7H272.882a5.593,5.593,0,0,0-5.594,5.592v.923a5.594,5.594,0,0,0,5.594,5.594H436.508a5.592,5.592,0,0,0,5.592-5.594v-.923A5.591,5.591,0,0,0,436.508,380.8Zm0,20.695H272.882a5.594,5.594,0,0,0-5.594,5.594v.921a5.594,5.594,0,0,0,5.594,5.594H436.508a5.592,5.592,0,0,0,5.592-5.594v-.921A5.592,5.592,0,0,0,436.508,401.5Z" transform="translate(-222.38 -62.794)" fill="#def2fb"/>
      <g id="Group_23765" data-name="Group 23765" transform="translate(347.844 188.767)">
        <rect id="Rectangle_2731" data-name="Rectangle 2731" width="186.179" height="179.358" rx="7.001" fill="#def2fb"/>
        <path id="Path_29608" data-name="Path 29608" d="M464.532,372.728H417a9.258,9.258,0,0,1-9.256-9.256V315.938A9.258,9.258,0,0,1,417,306.679h47.534a9.259,9.259,0,0,1,9.259,9.259v47.534A9.258,9.258,0,0,1,464.532,372.728Zm101.38-58.939v-.46a2.8,2.8,0,0,0-2.8-2.8H485.9a2.8,2.8,0,0,0-2.8,2.8v.46a2.8,2.8,0,0,0,2.8,2.8h77.212A2.8,2.8,0,0,0,565.912,313.789Zm0,16.969v.46a2.8,2.8,0,0,1-2.8,2.8H485.9a2.8,2.8,0,0,1-2.8-2.8v-.46a2.8,2.8,0,0,1,2.8-2.8h77.212A2.8,2.8,0,0,1,565.912,330.759Zm0,17.43v.463a2.8,2.8,0,0,1-2.8,2.8H485.9a2.8,2.8,0,0,1-2.8-2.8v-.463a2.8,2.8,0,0,1,2.8-2.8h77.212A2.8,2.8,0,0,1,565.912,348.188Zm0,17.432v.46a2.8,2.8,0,0,1-2.8,2.8H485.9a2.8,2.8,0,0,1-2.8-2.8v-.46a2.8,2.8,0,0,1,2.8-2.8h77.212A2.8,2.8,0,0,1,565.912,365.62Z" transform="translate(-393.737 -292.689)" fill="#fff"/>
        <path id="Path_29609" data-name="Path 29609" d="M464.532,410.435H417a9.256,9.256,0,0,1-9.256-9.256V353.644A9.256,9.256,0,0,1,417,344.388h47.534a9.257,9.257,0,0,1,9.259,9.256v47.534A9.257,9.257,0,0,1,464.532,410.435ZM565.912,351.5v-.46a2.8,2.8,0,0,0-2.8-2.8H485.9a2.8,2.8,0,0,0-2.8,2.8v.46a2.8,2.8,0,0,0,2.8,2.8h77.212A2.8,2.8,0,0,0,565.912,351.5Zm0,16.969v.462a2.8,2.8,0,0,1-2.8,2.8H485.9a2.8,2.8,0,0,1-2.8-2.8v-.462a2.8,2.8,0,0,1,2.8-2.8h77.212A2.8,2.8,0,0,1,565.912,368.465Zm0,17.432v.46a2.8,2.8,0,0,1-2.8,2.8H485.9a2.8,2.8,0,0,1-2.8-2.8v-.46a2.8,2.8,0,0,1,2.8-2.8h77.212A2.8,2.8,0,0,1,565.912,385.9Zm0,17.43v.46a2.8,2.8,0,0,1-2.8,2.8H485.9a2.8,2.8,0,0,1-2.8-2.8v-.46a2.8,2.8,0,0,1,2.8-2.8h77.212A2.8,2.8,0,0,1,565.912,403.327Z" transform="translate(-393.737 -245.306)" fill="#fff"/>
      </g>
      <g id="Group_23770" data-name="Group 23770" transform="translate(235.375 63.397)">
        <g id="Group_23769" data-name="Group 23769" transform="translate(0 0)">
          <path id="Path_29610" data-name="Path 29610" d="M364.966,384.062c14.609,6.293,33.182,6.6,45.485,4.186l-3.015-16.981L367.2,335.49Z" transform="translate(-335.018 -131.117)" fill="#ffd2d2"/>
          <path id="Path_29611" data-name="Path 29611" d="M373.506,386.984a61.7,61.7,0,0,1-8.541-2.922L367.2,335.49l8.435,7.5A417.981,417.981,0,0,0,373.506,386.984Z" transform="translate(-335.02 -131.117)" fill="#ffdede"/>
          <path id="Path_29612" data-name="Path 29612" d="M376.748,376.946a86.574,86.574,0,0,0,23.775-1.02l-3.017-16.971-24.639-13.663C373.589,353.435,374.907,368.9,376.748,376.946Z" transform="translate(-325.09 -118.801)" fill="#fccaca"/>
          <path id="Path_29613" data-name="Path 29613" d="M388.966,321.029c12.779-4.617,22.9-1.625,32.724,15.2s23.414,31.445,16.942,36.644S419.5,393.254,400.317,391.8C371.607,389.625,351.641,334.514,388.966,321.029Z" transform="translate(-330.505 -151.742)" fill="#fccaca"/>
          <g id="Group_23767" data-name="Group 23767" transform="translate(0)">
            <path id="Path_29614" data-name="Path 29614" d="M425.982,399.729h0a13.091,13.091,0,0,1-17.809-5.061l-41.1-73.753,32.661-18.2,32.047,80.75A13.092,13.092,0,0,1,425.982,399.729Z" transform="translate(-332.375 -172.302)" fill="#f8b024"/>
            <rect id="Rectangle_2732" data-name="Rectangle 2732" width="45.558" height="39.838" rx="8.155" transform="matrix(0.874, -0.487, 0.487, 0.874, 0, 135.277)" fill="#6364d9"/>
            <path id="Path_29615" data-name="Path 29615" d="M365.019,315.624l14.149-7.884a14.682,14.682,0,0,1,19.97,5.677l4.457,8a14.622,14.622,0,0,0-1.769-5.517l-5.1-9.15a14.682,14.682,0,0,0-19.97-5.677l-14.146,7.887a14.678,14.678,0,0,0-5.677,19.97l.643,1.153A14.681,14.681,0,0,1,365.019,315.624Z" transform="translate(-347.451 -176.704)" opacity="0.44" fill="url(#linear-gradient-3)" style="mix-blend-mode: screen;isolation: isolate"/>
            <path id="Path_29616" data-name="Path 29616" d="M398.271,311.627l-5.1-9.153a14.669,14.669,0,0,0-2.372-3.143l2.67,4.788a14.68,14.68,0,0,1-5.677,19.97l-14.146,7.884a14.68,14.68,0,0,1-17.6-2.532l2.433,4.362a14.68,14.68,0,0,0,19.97,5.677l14.146-7.884A14.678,14.678,0,0,0,398.271,311.627Z" transform="translate(-346.229 -176.552)" opacity="0.42" fill="url(#linear-gradient-4)" style="mix-blend-mode: multiply;isolation: isolate"/>
            <rect id="Rectangle_2733" data-name="Rectangle 2733" width="65.312" height="57.111" rx="10.369" transform="matrix(0.874, -0.487, 0.487, 0.874, 10.475, 119.552)" fill="#6364d9"/>
            <path id="Path_29617" data-name="Path 29617" d="M372.758,313.644,398.8,299.132A17.751,17.751,0,0,1,422.944,306l8.931,16.026a17.733,17.733,0,0,0-2.024-5.831l-10.52-18.876a17.751,17.751,0,0,0-24.147-6.864l-26.038,14.512a17.751,17.751,0,0,0-6.865,24.147l1.586,2.848A17.757,17.757,0,0,1,372.758,313.644Z" transform="translate(-341.217 -190.535)" opacity="0.44" fill="url(#linear-gradient-5)" style="mix-blend-mode: screen;isolation: isolate"/>
            <path id="Path_29618" data-name="Path 29618" d="M421.727,313.346l-10.52-18.876a17.671,17.671,0,0,0-6.752-6.8c.09.153.183.3.271.458L415.246,307a17.751,17.751,0,0,1-6.864,24.147L382.341,345.66a17.733,17.733,0,0,1-17.393-.061,17.746,17.746,0,0,0,23.876,6.406l26.038-14.512A17.751,17.751,0,0,0,421.727,313.346Z" transform="translate(-335.041 -191.208)" opacity="0.42" fill="url(#linear-gradient-6)" style="mix-blend-mode: multiply;isolation: isolate"/>
            <path id="Path_29619" data-name="Path 29619" d="M511.891,376.865c-46.521,3.008-72.331-3-100.956,12.928-19.483,10.843-53.331-49.976-33.848-60.821,31.154-17.337,39.383-41.572,64.079-79.013Z" transform="translate(-327.133 -238.59)" fill="#ffa950"/>
            <path id="Path_29620" data-name="Path 29620" d="M380.5,337.658c31.154-17.337,40.949-38.158,65.643-75.6l-2.972-6.822c-24.693,37.438-34.491,58.259-65.643,75.6-9,5.009-4.43,19.747,2.66,34.1C375.6,352.738,372.916,341.88,380.5,337.658Z" transform="translate(-325.509 -231.954)" fill="url(#linear-gradient-7)" style="mix-blend-mode: screen;isolation: isolate"/>
            <path id="Path_29621" data-name="Path 29621" d="M503.939,307.949c-44.989,2.654-70.407-2.866-98.525,12.783-10.6,5.9-25.449-9.412-33.652-26.347,5.032,20.74,25.154,47.022,38.519,39.584,28.624-15.931,54.435-9.92,100.956-12.928Z" transform="translate(-326.479 -182.767)" opacity="0.3" fill="url(#linear-gradient-8)" style="mix-blend-mode: multiply;isolation: isolate"/>
            <ellipse id="Ellipse_4117" data-name="Ellipse 4117" cx="23.356" cy="72.641" rx="23.356" ry="72.641" transform="translate(93.631 22.74) rotate(-29.131)" fill="url(#linear-gradient-9)"/>
            <path id="Path_29622" data-name="Path 29622" d="M470.942,374.1c3.507-12.865-3.89-39.977-19.564-68.1-16.99-30.488-38.091-52.088-50.711-53.058-3.509,12.862,3.89,39.977,19.562,68.1C437.22,351.525,458.321,373.127,470.942,374.1Z" transform="translate(-291.237 -234.846)" opacity="0.3" fill="url(#linear-gradient-10)" style="mix-blend-mode: multiply;isolation: isolate"/>
            <path id="Path_29623" data-name="Path 29623" d="M471.7,303.779c-21.99-39.456-52.072-64.607-67.2-56.181s-9.557,47.245,12.434,86.7,52.072,64.609,67.193,56.181S493.689,343.232,471.7,303.779Zm9.085,78.1c-11.269,6.28-36.236-17.039-55.766-52.083s-26.228-68.542-14.959-74.823,36.233,17.039,55.764,52.083S492.053,375.6,480.786,381.875Z" transform="translate(-296.028 -243.601)" fill="url(#linear-gradient-11)"/>
            <g id="Group_23766" data-name="Group 23766" transform="translate(99.969 5.613)" opacity="0.5" style="mix-blend-mode: multiply;isolation: isolate">
              <path id="Path_29624" data-name="Path 29624" d="M461.5,300.511c-19.53-35.044-44.5-58.361-55.764-52.081-2.487,1.385-4.1,4.1-4.888,7.862a8.511,8.511,0,0,1,3.112-3.128c11.267-6.278,36.233,17.039,55.764,52.083,15.22,27.309,22.644,53.679,19.846,66.961C486.05,361.494,478.838,331.62,461.5,300.511Z" transform="translate(-389.897 -247.408)" fill="#6364d9"/>
              <path id="Path_29625" data-name="Path 29625" d="M485.908,381.507c-15.121,8.428-45.205-16.726-67.193-56.179-16.78-30.109-23.994-59.844-19.751-75.987-7.465,14.464-.616,47.365,17.976,80.721,21.988,39.456,52.072,64.609,67.193,56.181,3.583-2,6-5.7,7.32-10.712A13.927,13.927,0,0,1,485.908,381.507Z" transform="translate(-395.996 -244.98)" fill="#6364d9"/>
            </g>
            <path id="Path_29626" data-name="Path 29626" d="M414.938,301.781a215.136,215.136,0,0,0,13.4,21.126L448.089,311.9l-24.319-43.635-19.751,11.007A214.848,214.848,0,0,0,414.938,301.781Z" transform="translate(-285.947 -215.588)" fill="url(#linear-gradient-12)"/>
            <path id="Path_29627" data-name="Path 29627" d="M409.358,291.085s-3.75-7.959-5.339-11.813l19.751-11.007,6.589,11.824Z" transform="translate(-285.947 -215.588)" fill="url(#linear-gradient-13)" style="mix-blend-mode: screen;isolation: isolate"/>
            <path id="Path_29628" data-name="Path 29628" d="M430.385,282.322,411.18,293.027c2.669,4.314,5.4,8.4,8.157,12.217l19.754-11.007Z" transform="translate(-276.948 -197.925)" opacity="0.5" fill="url(#linear-gradient-14)" style="mix-blend-mode: multiply;isolation: isolate"/>
            <path id="Path_29629" data-name="Path 29629" d="M432.993,286.368c6.715,12.05,9.017,23.567,5.145,25.727s-12.461-5.858-19.174-17.908-9.019-23.567-5.145-25.727S426.278,274.319,432.993,286.368Z" transform="translate(-275.995 -215.783)" fill="#6364d9"/>
          </g>
          <g id="Group_23768" data-name="Group 23768" transform="translate(31.692 154.547)">
            <path id="Path_29630" data-name="Path 29630" d="M409.577,336.963c6.086-1.559,12.368,9.726,4.556,14.419a54.022,54.022,0,0,1-19.111,7.086c-6.142.9-8.83-7.356-2.694-12.154S404.38,338.294,409.577,336.963Z" transform="translate(-336.691 -283.997)" fill="#ffdede"/>
            <path id="Path_29631" data-name="Path 29631" d="M395.018,354.748a54,54,0,0,0,19.111-7.083,7.053,7.053,0,0,0,3.459-7.891,8.819,8.819,0,0,1-1.449,1.088,53.918,53.918,0,0,1-19.111,7.083,5.155,5.155,0,0,1-6-4.15C386.637,348.647,389.372,355.577,395.018,354.748Z" transform="translate(-336.691 -280.28)" fill="#ffd2d2"/>
            <path id="Path_29632" data-name="Path 29632" d="M410,330.507c7.187-1.841,14.607,11.486,5.38,17.026a63.806,63.806,0,0,1-22.565,8.367c-7.253,1.063-10.427-8.686-3.179-14.352S403.865,332.078,410,330.507Z" transform="translate(-340.866 -292.142)" fill="#ffdede"/>
            <path id="Path_29633" data-name="Path 29633" d="M392.813,351.812a63.952,63.952,0,0,0,22.57-8.37,8.406,8.406,0,0,0,3.951-9.852,8.446,8.446,0,0,1-3.951,4.849,63.708,63.708,0,0,1-22.57,8.369,6.043,6.043,0,0,1-6.885-4.2C384.385,347.581,387.505,352.595,392.813,351.812Z" transform="translate(-340.867 -288.051)" fill="#ffd2d2"/>
            <path id="Path_29634" data-name="Path 29634" d="M404.513,323.329c7.65-4.026,19.655,9.076,10.694,17.847a74.342,74.342,0,0,1-23.319,15.575c-7.932,3.161-14.162-7.029-7.478-15.408S397.983,326.768,404.513,323.329Z" transform="translate(-345.836 -301.885)" fill="#ffdede"/>
            <path id="Path_29635" data-name="Path 29635" d="M391.891,352.27a74.348,74.348,0,0,0,23.319-15.581,9.644,9.644,0,0,0,2.572-10.543,10.8,10.8,0,0,1-2.572,3.811,74.388,74.388,0,0,1-23.319,15.568c-4.43,1.765-8.333-.63-9.748-4.547C379.771,348.168,385.229,354.924,391.891,352.27Z" transform="translate(-345.837 -297.404)" fill="#ffd2d2"/>
            <path id="Path_29636" data-name="Path 29636" d="M397.845,317.491c7.1-3.737,18.246,8.426,9.929,16.568-9.313,9.114-17.2,13.923-19.919,15.3-7.742,3.935-14.688-4.953-8.482-12.731S391.781,320.684,397.845,317.491Z" transform="translate(-351.615 -309.153)" fill="#ffdede"/>
            <path id="Path_29637" data-name="Path 29637" d="M387.845,346.634c2.724-1.381,10.613-6.2,19.919-15.3,4.019-3.926,3.493-8.8,1.074-12.366a9.09,9.09,0,0,1-2.945,6.37c-9.3,9.116-17.195,13.921-19.919,15.3-3.552,1.812-6.941.912-8.94-1.343C376.4,345.091,381.9,349.66,387.845,346.634Z" transform="translate(-351.609 -306.425)" fill="#ffd2d2"/>
            <path id="Path_29638" data-name="Path 29638" d="M403.685,313.411c7.3.025,13.1,14.424-10.107,25.5.449,6.154-3.92,10.188.418,15.441,6.612,8.008,10.064,12.522,8.667,21.121-1.437,8.859-12.262,14.478-22.843,8.963-10.845-5.657-26.029-32.736,1.44-57.145,2.534-2.252,14.724-8.412,15.816-9.541C400.612,314.1,401.71,313.4,403.685,313.411Z" transform="translate(-365.739 -313.406)" fill="#ffdede"/>
            <path id="Path_29639" data-name="Path 29639" d="M371.981,384.44c10.579,5.517,21.4-.106,22.841-8.965,1.39-8.6-2.058-13.115-8.674-21.121-4.335-5.249.036-9.281-.408-15.441,23.2-11.08,17.4-25.467,10.1-25.5a3.166,3.166,0,0,0-.467.023c3.121,4.815,1.462,14.519-15.266,22.5.456,6.149-3.915,10.182.422,15.442,6.6,8.006,10.064,12.519,8.661,21.121C387.89,380.512,384.568,384.264,371.981,384.44Z" transform="translate(-357.896 -313.409)" fill="#ffd2d2"/>
          </g>
        </g>
        <rect id="Rectangle_2734" data-name="Rectangle 2734" width="53.16" height="79.285" transform="translate(24.047 240.615)" fill="#fff"/>
        <rect id="Rectangle_2735" data-name="Rectangle 2735" width="64.114" height="69.56" transform="translate(18.569 250.341)" fill="#6364d9"/>
        <path id="Path_29640" data-name="Path 29640" d="M416.648,425.419H365.8c13.424-20.415,22.762-40.629,28.76-69.558h22.085Z" transform="translate(-333.965 -105.52)" fill="url(#linear-gradient-15)" style="mix-blend-mode: multiply;isolation: isolate"/>
      </g>
      <path id="Path_29641" data-name="Path 29641" d="M428.819,300.126A5.276,5.276,0,0,1,424.387,292l46.792-72.749a5.275,5.275,0,1,1,8.873,5.707L433.262,297.7A5.276,5.276,0,0,1,428.819,300.126Zm32.648,32.115,77.345-38.725a5.275,5.275,0,1,0-4.723-9.435l-77.345,38.724a5.275,5.275,0,0,0,4.723,9.435ZM472.5,379.8l86.428-3.437a5.275,5.275,0,0,0-.417-10.543l-86.43,3.437a5.275,5.275,0,1,0,.42,10.543Z" transform="translate(-26.032 -216.826)" fill="#ffa950"/>
      <path id="Path_29642" data-name="Path 29642" d="M265.868,271.154a3.2,3.2,0,1,1-3.2-3.2A3.2,3.2,0,0,1,265.868,271.154Zm7.241-3.2a3.2,3.2,0,1,0,3.2,3.2A3.2,3.2,0,0,0,273.109,267.952Zm10.443,0a3.2,3.2,0,1,0,3.2,3.2A3.2,3.2,0,0,0,283.553,267.952Z" transform="translate(-232.211 -152.584)" fill="#fff"/>
    </g>
    <g id="Group_23772" data-name="Group 23772" transform="translate(83.688 349.899)">
      <rect id="Rectangle_2736" data-name="Rectangle 2736" width="176.927" height="121.432" rx="11.408" transform="translate(9.569)" fill="#e6f4ff" style="mix-blend-mode: multiply;isolation: isolate"/>
      <rect id="Rectangle_2737" data-name="Rectangle 2737" width="176.927" height="121.432" rx="11.408" fill="url(#linear-gradient-16)"/>
      <path id="Path_29643" data-name="Path 29643" d="M226.676,437.073V386.409a5.245,5.245,0,0,1,8.047-4.432l40.054,25.332a5.244,5.244,0,0,1,0,8.864l-40.054,25.332A5.244,5.244,0,0,1,226.676,437.073Z" transform="translate(-163.483 -351.026)" fill="#fff"/>
    </g>
    <g id="Group_23773" data-name="Group 23773" transform="translate(114.203 190.284)">
      <path id="Path_29644" data-name="Path 29644" d="M221.7,298.781h51.427a7.321,7.321,0,0,1,7.32,7.323v34.931a7.321,7.321,0,0,1-7.32,7.323H269.39l8.078,8.214-21.056-8.214H221.7a7.321,7.321,0,0,1-7.32-7.323V306.1A7.321,7.321,0,0,1,221.7,298.781Z" transform="translate(-209.449 -294.92)" fill="#e6f4ff" style="mix-blend-mode: multiply;isolation: isolate"/>
      <rect id="Rectangle_2738" data-name="Rectangle 2738" width="66.068" height="49.576" rx="3.793" transform="translate(66.068 49.576) rotate(180)" fill="#fff"/>
      <path id="Path_29645" data-name="Path 29645" d="M244.9,317.942l10.514,10.693-27.406-10.693" transform="translate(-192.325 -270.844)" fill="#fff"/>
      <path id="Path_29646" data-name="Path 29646" d="M268.172,306.594H216.447a1.929,1.929,0,1,1,0-3.859h51.725a1.929,1.929,0,1,1,0,3.859Zm1.929,8.146a1.93,1.93,0,0,0-1.929-1.929H216.447a1.929,1.929,0,1,0,0,3.859h51.725A1.929,1.929,0,0,0,270.1,314.74Zm0,10.076a1.93,1.93,0,0,0-1.929-1.929H216.447a1.93,1.93,0,0,0,0,3.861h51.725A1.93,1.93,0,0,0,270.1,324.815Z" transform="translate(-209.276 -289.952)" fill="#def2fb"/>
    </g>
    <g id="Group_23774" data-name="Group 23774" transform="translate(820.563 39.823)">
      <path id="Path_29647" data-name="Path 29647" d="M586.5,232.1H535.072a7.323,7.323,0,0,0-7.322,7.323v34.934a7.321,7.321,0,0,0,7.322,7.32h3.735l-8.076,8.216,21.054-8.216H586.5a7.321,7.321,0,0,0,7.323-7.32V239.425A7.323,7.323,0,0,0,586.5,232.1Z" transform="translate(-522.046 -228.243)" fill="#e6f4ff" style="mix-blend-mode: multiply;isolation: isolate"/>
      <rect id="Rectangle_2739" data-name="Rectangle 2739" width="66.069" height="49.576" rx="3.793" fill="#fff"/>
      <path id="Path_29648" data-name="Path 29648" d="M537.057,251.264l-10.514,10.693,27.406-10.693" transform="translate(-523.563 -204.166)" fill="#fff"/>
      <path id="Path_29649" data-name="Path 29649" d="M527.545,237.986a1.931,1.931,0,0,1,1.932-1.929H581.2a1.93,1.93,0,1,1,0,3.861H529.477A1.931,1.931,0,0,1,527.545,237.986Zm1.932,12.007H581.2a1.93,1.93,0,1,0,0-3.861H529.477a1.93,1.93,0,1,0,0,3.861Zm0,10.075H581.2a1.93,1.93,0,1,0,0-3.861H529.477a1.93,1.93,0,1,0,0,3.861Z" transform="translate(-522.303 -223.275)" fill="#def2fb"/>
    </g>
    <g id="Group_23786" data-name="Group 23786" transform="translate(0 0)">
      <path id="Path_29652" data-name="Path 29652" d="M387.311,240.43l-5.271-8.013-3.394,2.232a15.4,15.4,0,0,0-1.889-1.275l.821-3.985-9.4-1.938-.821,3.985a14.992,14.992,0,0,0-2.239.424l-2.234-3.394-8.015,5.271,2.234,3.394a15.4,15.4,0,0,0-1.275,1.889l-3.985-.821-1.938,9.4,3.985.821a15.273,15.273,0,0,0,.422,2.238l-3.394,2.234L356.2,260.9l3.394-2.234a15.4,15.4,0,0,0,1.889,1.275l-.821,3.985,9.4,1.938.821-3.985a15.332,15.332,0,0,0,2.239-.422l2.234,3.392,8.013-5.271-2.232-3.394A15.214,15.214,0,0,0,382.4,254.3l3.985.821,1.938-9.4-3.985-.821a15.025,15.025,0,0,0-.424-2.238Zm-12.88,14.3a9.666,9.666,0,1,1,2.762-13.388A9.667,9.667,0,0,1,374.43,254.734Zm-36.112-1.079L335,248.616l-2.132,1.4a9.617,9.617,0,0,0-1.189-.8l.517-2.507-5.908-1.219-.517,2.5a9.794,9.794,0,0,0-1.408.266l-1.4-2.132-5.039,3.315,1.4,2.135a9.418,9.418,0,0,0-.8,1.187l-2.5-.517-1.221,5.908,2.507.517a9.48,9.48,0,0,0,.266,1.408l-2.135,1.4,3.315,5.039,2.135-1.4a9.433,9.433,0,0,0,1.187.8l-.517,2.507,5.908,1.219.517-2.507a9.436,9.436,0,0,0,1.408-.264l1.4,2.132,5.041-3.315-1.406-2.135a9.44,9.44,0,0,0,.8-1.187l2.5.517,1.219-5.908-2.5-.517a9.492,9.492,0,0,0-.266-1.408Zm-8.1,8.992a6.078,6.078,0,1,1,1.738-8.417A6.076,6.076,0,0,1,330.218,262.648Z" transform="translate(30.935 -194.267)" fill="#fff"/>
      <g id="Group_23776" data-name="Group 23776" transform="translate(173.46 26.966)">
        <path id="Path_29746" data-name="Path 29746" d="M22.529,0A22.529,22.529,0,1,1,0,22.529,22.529,22.529,0,0,1,22.529,0Z" transform="translate(0 17.138) rotate(-22.356)" fill="#ffa950"/>
        <g id="Group_23775" data-name="Group 23775" transform="translate(20.792 10.495)">
          <path id="Path_29653" data-name="Path 29653" d="M254.714,267.166v-4.653a13.405,13.405,0,0,1-7.045-2.029l1.106-3.085a12.288,12.288,0,0,0,6.632,1.979c3.27,0,5.481-1.889,5.481-4.513,0-2.534-1.8-4.1-5.206-5.481-4.7-1.841-7.6-3.96-7.6-7.968,0-3.825,2.717-6.727,6.957-7.417v-4.653h2.855v4.468a12.293,12.293,0,0,1,5.989,1.613l-1.153,3.042a11.1,11.1,0,0,0-5.8-1.568c-3.547,0-4.881,2.119-4.881,3.962,0,2.4,1.7,3.592,5.709,5.249,4.745,1.936,7.142,4.333,7.142,8.43,0,3.64-2.534,7.047-7.277,7.832v4.791Z" transform="translate(-247.669 -229.346)" fill="#fff"/>
        </g>
      </g>
      <g id="Group_23778" data-name="Group 23778" transform="translate(515.648)">
        <circle id="Ellipse_4119" data-name="Ellipse 4119" cx="24.731" cy="24.731" r="24.731" transform="translate(0 48.828) rotate(-80.814)" fill="#ffa950"/>
        <g id="Group_23777" data-name="Group 23777" transform="translate(18.907 7.605)">
          <path id="Path_29654" data-name="Path 29654" d="M406.211,257.629v-5.106a14.7,14.7,0,0,1-7.735-2.225l1.214-3.389a13.473,13.473,0,0,0,7.282,2.175c3.588,0,6.016-2.074,6.016-4.955,0-2.782-1.972-4.5-5.716-6.018-5.154-2.02-8.342-4.346-8.342-8.744,0-4.2,2.983-7.386,7.636-8.142v-5.109H409.7v4.9a13.522,13.522,0,0,1,6.576,1.771l-1.266,3.337a12.212,12.212,0,0,0-6.37-1.72c-3.895,0-5.359,2.327-5.359,4.348,0,2.631,1.871,3.944,6.269,5.765,5.208,2.123,7.837,4.752,7.837,9.252,0,4-2.78,7.738-7.988,8.6v5.258Z" transform="translate(-398.476 -216.115)" fill="#fff"/>
        </g>
      </g>
      <g id="Group_23784" data-name="Group 23784" transform="translate(733.573 25.723)">
        <path id="Path_29659" data-name="Path 29659" d="M531.907,246.759a22.617,22.617,0,1,1-22.617-22.615A22.617,22.617,0,0,1,531.907,246.759Z" transform="translate(-486.672 -224.144)" fill="#fff"/>
        <path id="Path_29660" data-name="Path 29660" d="M515.441,243.207a11.153,11.153,0,1,0-16.579,3.073l-6.352,10.931a1.634,1.634,0,1,0,2.825,1.643l6.354-10.933A11.137,11.137,0,0,0,515.441,243.207Zm-13.607,1.212a7.885,7.885,0,1,1,10.782-2.855A7.9,7.9,0,0,1,501.835,244.418Z" transform="translate(-479.614 -221.246)" fill="#7fd4ff"/>
      </g>
      <g id="Group_23785" data-name="Group 23785" transform="translate(883.613 348.343)">
        <path id="Path_29661" data-name="Path 29661" d="M580.991,381.029a13.914,13.914,0,1,1-13.914-13.914A13.913,13.913,0,0,1,580.991,381.029Z" transform="translate(-553.163 -367.115)" fill="#fff"/>
        <path id="Path_29662" data-name="Path 29662" d="M567.949,379.374a6.449,6.449,0,0,0-.722-8.927,6.475,6.475,0,0,0-10.667,3.705,6.378,6.378,0,0,0,1.347,5.2,7.434,7.434,0,0,1,1.819,4.669v.749h-.158V387.9H566.3v-3.121h-.158v-.751A7.341,7.341,0,0,1,567.949,379.374Zm-9-.866a5.07,5.07,0,0,1-1.065-4.127,5.186,5.186,0,0,1,4.4-4.177,5.136,5.136,0,0,1,5.781,5.093,5.015,5.015,0,0,1-1.158,3.225,8.66,8.66,0,0,0-2.11,5.5v.278h-.679c.49-1.6,1.343-4.766.787-5.763a.763.763,0,0,0-.458-.381.945.945,0,0,0-.695.106,1.148,1.148,0,0,0-.887-.469h0a.944.944,0,0,0-.837.483.822.822,0,0,0-.111-.052.873.873,0,0,0-.921.124c-.677.571.065,3.678.724,5.953h-.652v-.275A8.742,8.742,0,0,0,558.948,378.508Zm3.484,5.793c-.715-2.466-1.259-5.1-.977-5.477.036-.027.077-.068.208-.011a.746.746,0,0,1,.122.072.954.954,0,0,0,.16.907.529.529,0,0,0,.589.07.488.488,0,0,0,.291-.478,1.2,1.2,0,0,0-.278-.659.889.889,0,0,1,.088-.147c.043-.059.124-.151.205-.149a.5.5,0,0,1,.393.241,1.473,1.473,0,0,0-.316.5.567.567,0,0,0,.379.774.54.54,0,0,0,.548-.131,1.069,1.069,0,0,0,.176-.952.558.558,0,0,1,.228-.095.155.155,0,0,1,.059.065c.388.7-.275,3.477-.9,5.472Z" transform="translate(-549.021 -364.971)" fill="#7fd4ff"/>
      </g>
    </g>
    <g id="Group_23787" data-name="Group 23787" transform="translate(247.356 384.942)">
      <rect id="Rectangle_2740" data-name="Rectangle 2740" width="124.747" height="86.388" rx="2.773" transform="translate(7.033 0.001)" fill="#e6f4ff" style="mix-blend-mode: multiply;isolation: isolate"/>
      <rect id="Rectangle_2741" data-name="Rectangle 2741" width="124.747" height="86.388" rx="2.773" transform="translate(0 0.001)" fill="#ffa950"/>
      <path id="Path_29663" data-name="Path 29663" d="M273.907,451.515l55.382-57.745a1.38,1.38,0,0,1,1.966,0l53.823,56.391Z" transform="translate(-267.803 -370.737)" fill="#fc0" opacity="0.22" style="mix-blend-mode: multiply;isolation: isolate"/>
      <path id="Path_29664" data-name="Path 29664" d="M274.492,447.038l53.2-48.92a4.531,4.531,0,0,1,6.135,0l53.2,48.92a3.233,3.233,0,0,1-2.189,5.612H276.681A3.233,3.233,0,0,1,274.492,447.038Z" transform="translate(-268.389 -366.26)" fill="#ffa950"/>
      <path id="Path_29665" data-name="Path 29665" d="M326.409,433.542l-52.566-45.923a2.445,2.445,0,0,1,1.607-4.285H387.176a2.445,2.445,0,0,1,1.609,4.285l-52.566,45.923A7.453,7.453,0,0,1,326.409,433.542Z" transform="translate(-268.94 -383.334)" fill="#ffe356"/>
      <path id="Path_29666" data-name="Path 29666" d="M327.548,436.935l-54.173-51.7H388.317l-54.173,51.7A5.014,5.014,0,0,1,327.548,436.935Z" transform="translate(-268.472 -380.948)" fill="#ffa950" opacity="0.22" style="mix-blend-mode: multiply;isolation: isolate"/>
    </g>
    <path id="Path_29667" data-name="Path 29667" d="M1026.594,433.132H192.762a5.771,5.771,0,0,1-5.772-5.772h0a5.771,5.771,0,0,1,5.772-5.772h833.832a5.771,5.771,0,0,1,5.772,5.772h0A5.771,5.771,0,0,1,1026.594,433.132Z" transform="translate(-129.662 49.676)" fill="#484ff0"/>
    <g id="Group_23796" data-name="Group 23796" transform="translate(683.97 90.677)">
      <g id="Group_23793" data-name="Group 23793" transform="translate(87.141)">
        <g id="Group_23788" data-name="Group 23788" transform="translate(3.074 91.632)">
          <path id="Path_29668" data-name="Path 29668" d="M557.009,332.005,561.3,336.8l15.981,2.478-21.443,5.8-5.853-10.145Z" transform="translate(-447.727 -245.198)" fill="#6364d9"/>
          <path id="Path_29669" data-name="Path 29669" d="M507.261,299.455c-6.533,18.628.023,23.784,11.4,27.573,4.524,1.505,42.069-2.033,53.288,1.53s34.979,58.821,34.979,58.821l10.315-6.178s-23.473-64.673-26.873-67.033c-5.294-3.674-36.283-6.731-45.185-9.116s-15.954-11.515-15.954-11.515Z" transform="translate(-504.669 -293.536)" fill="#201e1e"/>
        </g>
        <g id="Group_23789" data-name="Group 23789" transform="translate(8.744 53.038)">
          <path id="Path_29670" data-name="Path 29670" d="M507.182,278.342s2.53,26.25,5.562,31.72,38.7,17.463,41.827,17.682,8.216-2.247,8.216-2.247,7.875,2.83,9.171,2.139-7.043-6.646-10.245-7.273-8.065,1.889-8.065,1.889S526.087,310.782,523,305.845s-5.407-29.412-5.407-29.412Z" transform="translate(-507.182 -276.433)" fill="#f8c3c7"/>
        </g>
        <path id="Path_29671" data-name="Path 29671" d="M512.072,265.9l-3.395,8.993,8.557,1.872,1.494-10.142Z" transform="translate(-496.56 -236.633)" fill="#fcc"/>
        <path id="Path_29672" data-name="Path 29672" d="M509.217,270.209a5.152,5.152,0,0,1,.21.918,14.888,14.888,0,0,0,2.34,6.492,8.49,8.49,0,0,0,6.138,3.755,8.359,8.359,0,0,0,6.113-2.349,14.233,14.233,0,0,0,3.538-5.657c1.207-3.308,2.591-7.422.668-10.373-.927-1.422-5.772-3.784-9.223-5.332a5.269,5.269,0,0,0-6.095,1.311l-3.374,3.789a5.287,5.287,0,0,0-1.07,5.17Z" transform="translate(-497.163 -247.56)" fill="#fcc"/>
        <path id="Path_29673" data-name="Path 29673" d="M516.408,266.311a2.325,2.325,0,0,0-2.559,1.4,3.809,3.809,0,0,0,.185,3.076,11.255,11.255,0,0,0,1.85,2.568c-1.322,1.916-3.565,4.321-3.292,6.634-1.8-1.14-1.681-2.591-3.091-4.186-2.613-2.958-6.668-14.941,2.66-18.407,10.044-13.117,24.384,6.907,26.641,5.878-.1,2.674-2.462,6.943-8.011,7.582a11.1,11.1,0,0,1-6.937-1.237,17.483,17.483,0,0,0-3.15-1.681c-.837-.282-1.695,3.31-2.4,3.008C517.627,270.657,517.259,266.529,516.408,266.311Z" transform="translate(-499.498 -252.929)" fill="#241d9e"/>
        <g id="Group_23790" data-name="Group 23790" transform="translate(2.911 88.527)">
          <path id="Path_29674" data-name="Path 29674" d="M555.508,333.34l4.292,4.793,15.98,2.478-21.443,5.8-5.853-10.145Z" transform="translate(-449.451 -240.415)" fill="#6364d9"/>
          <path id="Path_29675" data-name="Path 29675" d="M508.2,298.079c-6.53,18.628-4.215,29.9,7.162,33.69,4.524,1.505,57.526,1.923,57.526,1.923l30.739,58.429,10.317-6.178s-25.467-65.219-28.43-67.633-33.729-6.754-42.631-9.137-12.711-17.012-12.711-17.012Z" transform="translate(-504.597 -292.16)" fill="#313030"/>
        </g>
        <path id="Path_29676" data-name="Path 29676" d="M524.922,271.931c-8.518-7.248-18.831-2.338-20.674,20.368-1.807,22.292-.454,51.79-.454,51.79,14.645,3.432,29.888-1.532,42.719-7.338,0,0-11.932-14.979-14.5-29.658C529.929,295.182,531.813,277.793,524.922,271.931Z" transform="translate(-503.307 -232.953)" fill="#6364d9"/>
        <g id="Group_23791" data-name="Group 23791" transform="translate(6.252 39.835)">
          <path id="Path_29677" data-name="Path 29677" d="M512.352,278.137a5.276,5.276,0,0,0-4.3,5.781c.894,7.869,2.834,22.845,5.041,26.824,3.033,5.468,31.621,16.256,34.746,16.477,1.975.138,4.73-.794,6.494-1.5a5.233,5.233,0,0,1,3.579-.115c2.412.79,6.422,1.981,7.313,1.507,1.3-.688-7.043-6.645-10.245-7.275-1.871-.366-4.308.341-6.011.991a5.235,5.235,0,0,1-4.308-.26c-5.409-2.823-18.858-10.116-21.313-14.042-2.144-3.428-3.917-16.274-4.8-23.807a5.28,5.28,0,0,0-6.2-4.581Z" transform="translate(-503.639 -261.198)" fill="#fcc"/>
          <path id="Path_29678" data-name="Path 29678" d="M512.938,270.8c-10.658,2.9-5.716,25.183-5.716,25.183,4.928,1.751,11.021,1.061,17.712-.88C522.91,289.79,522.544,268.181,512.938,270.8Z" transform="translate(-506.078 -270.582)" fill="#fff"/>
        </g>
        <g id="Group_23792" data-name="Group 23792" transform="translate(41.2 64.351)">
          <path id="Path_29679" data-name="Path 29679" d="M565.534,325.024H523.955a2.391,2.391,0,0,1,0-4.782H563.48l5.6-36.766a2.391,2.391,0,0,1,4.728.72l-5.908,38.8A2.39,2.39,0,0,1,565.534,325.024Z" transform="translate(-521.565 -281.446)" fill="#ff9a25"/>
        </g>
      </g>
      <g id="Group_23795" data-name="Group 23795" transform="translate(0 125.578)">
        <path id="Rectangle_2742" data-name="Rectangle 2742" d="M7.962,0H155.587a7.962,7.962,0,0,1,7.962,7.962V247.115a7.961,7.961,0,0,1-7.961,7.961H7.962A7.962,7.962,0,0,1,0,247.115V7.962A7.962,7.962,0,0,1,7.962,0Z" transform="translate(8.712)" fill="#e6f4ff" style="mix-blend-mode: multiply;isolation: isolate"/>
        <path id="Rectangle_2743" data-name="Rectangle 2743" d="M7.962,0H155.587a7.961,7.961,0,0,1,7.961,7.961V247.115a7.961,7.961,0,0,1-7.961,7.961H7.962A7.962,7.962,0,0,1,0,247.115V7.962A7.962,7.962,0,0,1,7.962,0Z" fill="#ffa950"/>
        <rect id="Rectangle_2744" data-name="Rectangle 2744" width="163.549" height="220.663" transform="translate(0 17.206)" fill="#fff"/>
        <g id="Group_23794" data-name="Group 23794" transform="translate(11.803 27.342)" opacity="0.55">
          <path id="Path_29680" data-name="Path 29680" d="M606.695,327.032H473.089a3.168,3.168,0,0,1-3.168-3.168h0a3.168,3.168,0,0,1,3.168-3.168H606.695a3.168,3.168,0,0,1,3.168,3.168h0A3.168,3.168,0,0,1,606.695,327.032Z" transform="translate(-469.92 -320.696)" fill="#c2eeff" opacity="0.69"/>
          <path id="Path_29681" data-name="Path 29681" d="M606.695,333.18H473.089a3.169,3.169,0,0,1-3.168-3.168h0a3.17,3.17,0,0,1,3.168-3.17H606.695a3.17,3.17,0,0,1,3.168,3.17h0A3.169,3.169,0,0,1,606.695,333.18Z" transform="translate(-469.92 -312.975)" fill="#c2eeff" opacity="0.69"/>
          <path id="Path_29682" data-name="Path 29682" d="M606.695,339.326H473.089a3.17,3.17,0,0,1-3.168-3.17h0a3.169,3.169,0,0,1,3.168-3.168H606.695a3.169,3.169,0,0,1,3.168,3.168h0A3.17,3.17,0,0,1,606.695,339.326Z" transform="translate(-469.92 -305.252)" fill="#c2eeff" opacity="0.69"/>
          <path id="Path_29683" data-name="Path 29683" d="M606.695,345.469H473.089a3.168,3.168,0,0,1-3.168-3.168h0a3.168,3.168,0,0,1,3.168-3.168H606.695a3.168,3.168,0,0,1,3.168,3.168h0A3.168,3.168,0,0,1,606.695,345.469Z" transform="translate(-469.92 -297.529)" fill="#c2eeff" opacity="0.69"/>
          <rect id="Rectangle_2745" data-name="Rectangle 2745" width="139.943" height="106.632" rx="4.567" transform="translate(0 55.008)" fill="#c2eeff"/>
        </g>
        <path id="Path_29684" data-name="Path 29684" d="M602.215,424.861H477.568a7.648,7.648,0,0,1-7.648-7.647v-1.261a7.648,7.648,0,0,1,7.648-7.647H602.215a7.648,7.648,0,0,1,7.648,7.647v1.261A7.648,7.648,0,0,1,602.215,424.861Zm4.549-28.963H473.019a3.1,3.1,0,0,0-3.1,3.1h0a3.1,3.1,0,0,0,3.1,3.1H606.765a3.1,3.1,0,0,0,3.1-3.1h0A3.1,3.1,0,0,0,606.765,395.9Z" transform="translate(-458.117 -198.859)" fill="#c2eeff" opacity="0.55"/>
      </g>
    </g>
    <g id="Group_23798" data-name="Group 23798" transform="translate(171.191 227.793)">
      <g id="Group_23797" data-name="Group 23797">
        <path id="Path_29685" data-name="Path 29685" d="M256.5,360.536a89.222,89.222,0,0,0,21.094-41.417l6.826-1.381s-2.672,32.83-13.575,44.181S256.5,360.536,256.5,360.536Z" transform="translate(-213.511 -308.609)" fill="#ffa950"/>
        <path id="Path_29686" data-name="Path 29686" d="M267.9,323.776a6.277,6.277,0,0,1-2.18-6.434c1.047-4.055,3.683-4.588,3.265-2.308s.641,3.166,1,4.082c1.027,2.647.451,4.147.451,4.147Z" transform="translate(-202.189 -313.692)" fill="#fcc"/>
        <path id="Path_29687" data-name="Path 29687" d="M257.877,331.173c.593,1.051-1.189,9.2-1.189,9.2l7.293-1.979-1.643-8.119Z" transform="translate(-213.275 -292.862)" fill="#fcc"/>
        <path id="Path_29688" data-name="Path 29688" d="M265.235,344.775c-1.844.284-5.765-1.119-7.44-1.945l-5.738-4.567-.571-10.224,11.739-8.081S280.149,342.46,265.235,344.775Z" transform="translate(-219.811 -305.82)" fill="#fcc"/>
        <path id="Path_29689" data-name="Path 29689" d="M258.442,337.45a21.118,21.118,0,0,0,11.294-21.523c-1.893,2.214-4.633,3.5-7.322,4.621s-5.483,2.169-7.695,4.066-3.759,4.883-3.073,7.715c-3.146.952-4.177,5.082-3.344,8.261a12.364,12.364,0,0,0,6.4,7.848c3.125,1.539,7.564.688,10.773-.666-3.06-.9-9.071-4.445-4.129-5.718A26.073,26.073,0,0,0,258.442,337.45Z" transform="translate(-224.161 -310.885)" fill="#030478"/>
        <path id="Path_29690" data-name="Path 29690" d="M254.657,338.642a62.645,62.645,0,0,1,2.579-5.946l12.919-.975.736,3.635Z" transform="translate(-215.827 -291.039)" fill="#fff"/>
        <path id="Path_29691" data-name="Path 29691" d="M266.366,416.907l.208,5.71,13.278,6.463-21.032-.236,2.665-13.219Z" transform="translate(-210.596 -185.609)" fill="#030478"/>
        <path id="Path_29692" data-name="Path 29692" d="M250.935,416.9l-.208,5.71-13.278,6.462,21.032-.235-2.665-13.219Z" transform="translate(-237.449 -185.617)" fill="#030478"/>
        <path id="Path_29693" data-name="Path 29693" d="M269.395,364.667c.011-.122.022-.253.032-.354l-4.364.178-4.039-.165c.007.095.018.214.029.327l-18.149.736V487.457l8.223-.641s8.685-55.716,14.1-92.225c5.413,36.509,14.1,92.236,14.1,92.236l8.221.643V365.4Z" transform="translate(-230.596 -250.085)" fill="#6364d9"/>
        <path id="Path_29694" data-name="Path 29694" d="M286.623,329.974s1.18-4.518,3.561-4.759l-.7,2.665s3.57-2.155,4.612-3.994,4.005,5.064,1.072,7.74-5.255,2.688-5.255,2.688Z" transform="translate(-175.66 -301.27)" fill="#fcc"/>
        <path id="Path_29695" data-name="Path 29695" d="M240.745,430.152s15.724-75.727,31.867-85.4c6.269-3.755,24.5-.257,40.983-3.811,21.764-4.694,30.969-15.141,30.969-15.141l6.864,4.337s-13.293,18.411-55.335,30.2c-8.814,23.854-1.149,69.817-1.149,69.817S257.026,427.033,240.745,430.152Z" transform="translate(-233.308 -298.481)" fill="#ffa950"/>
      </g>
    </g>
    <g id="Group_23802" data-name="Group 23802" transform="translate(555.153 229.281)">
      <g id="Group_23801" data-name="Group 23801">
        <path id="Path_29696" data-name="Path 29696" d="M460.5,408.445c-2.773.639-19.329-4.028-26.37-9.852,0,0,9.159-34.017,8.9-42.419s4.265-26.027,10.306-12.828S460.5,408.445,460.5,408.445Z" transform="translate(-374.276 -283.886)" fill="#4041ca"/>
        <path id="Path_29697" data-name="Path 29697" d="M452.4,416.573l.354,5.7-12.578,7.736h21.541l-3.164-15.076Z" transform="translate(-366.676 -187.963)" fill="#030478"/>
        <path id="Path_29698" data-name="Path 29698" d="M466.113,362.935c.212,10.24-6.169,123.708-6.169,123.708l-8.119,1.446L440.176,364.133Z" transform="translate(-366.676 -253.305)" fill="#313030"/>
        <path id="Path_29699" data-name="Path 29699" d="M447.546,416.573l.354,5.7-12.578,7.736,21.385-.742L453.7,414.937Z" transform="translate(-372.775 -187.963)" fill="#030478"/>
        <path id="Path_29700" data-name="Path 29700" d="M459.189,362.935c.212,10.24-6.169,123.708-6.169,123.708L444.9,488.09l-7.932-124.9Z" transform="translate(-370.705 -253.305)" fill="#313030"/>
        <path id="Path_29701" data-name="Path 29701" d="M463.737,403.405c-17.549.528-26.1-4.256-27.024-5.919s.381-2.827.97-5.088c2.34-9,8.148-32.072,7.943-38.785-.259-8.4,4.265-26.027,10.3-12.828S463.737,403.405,463.737,403.405Z" transform="translate(-371.433 -287.105)" fill="#fff"/>
        <g id="Group_23799" data-name="Group 23799" transform="translate(0 64.041)">
          <path id="Path_29702" data-name="Path 29702" d="M407.6,354.692l44.375,37.092,11.158-20.341-38.56-28.71Z" transform="translate(-407.604 -342.732)" fill="#fdb42c"/>
          <path id="Path_29703" data-name="Path 29703" d="M409.055,354.266l41.022,33.184,9.6-16.645-36.734-27.38Z" transform="translate(-405.78 -341.861)" fill="#fff"/>
          <path id="Path_29704" data-name="Path 29704" d="M408.5,350.733l1.812,1.3,10.931-7.711-1.448-1.017Z" transform="translate(-406.477 -342.01)" fill="#6364d9"/>
        </g>
        <g id="Group_23800" data-name="Group 23800" transform="translate(21.151 35.647)">
          <path id="Path_29705" data-name="Path 29705" d="M421.27,342.061l-.767,7.724s29.43,31.217,56.231,1.483L474.775,333.7S457.7,369.279,421.27,342.061Z" transform="translate(-412.546 -325.69)" fill="#4041ca"/>
          <path id="Path_29706" data-name="Path 29706" d="M425.344,338.984c-3.7-1.257-5.2-5.134-7.25-.932-3.768,7.735,6.483,8.656,6.483,8.656Z" transform="translate(-416.62 -322.613)" fill="#fcc"/>
          <path id="Path_29707" data-name="Path 29707" d="M422.961,331.106l-5.984,22.529.138,3.06L419,354.321l5.845-22.511C425.087,330.072,423.65,329.476,422.961,331.106Z" transform="translate(-416.977 -330.149)" fill="#030478"/>
          <path id="Path_29708" data-name="Path 29708" d="M422.13,339.964s-4.407,1.557-4.843.664,3.425-2.611,4.263-3.956,2.5,2.22,2.5,2.22Z" transform="translate(-416.63 -322.334)" fill="#fcc"/>
        </g>
        <path id="Path_29709" data-name="Path 29709" d="M440.909,330.814l4.366,10.15,3.91-3.441.575-11.146Z" transform="translate(-365.754 -299.243)" fill="#fcc"/>
        <path id="Path_29710" data-name="Path 29710" d="M438.7,326.518c-1.875,11.118-3.2,18.567,5.154,19.054,7.573.442,14.07-11.373,14.07-11.373C463.759,321.186,441.949,307.252,438.7,326.518Z" transform="translate(-370.29 -310.993)" fill="#fcc"/>
        <path id="Path_29711" data-name="Path 29711" d="M434.531,318.8c7.65,11.082,18.454,12.758,21.825,11.592,1.57-.544,1.618,1.167.988,4.488,4.247-1.956,2.728,3.426-.357,5.382a24.445,24.445,0,0,0-1.37,4.8s10.5-6.783,10.525-14.038c.029-8.785-6.481-7.808-6.481-7.808s-3.856-11.858-14.494-8.139Z" transform="translate(-373.769 -314.352)" fill="#030478"/>
        <path id="Path_29712" data-name="Path 29712" d="M442.083,334.789l10.418-5.815,2.954,5.292-15.161,8.463Z" transform="translate(-366.527 -295.979)" fill="#fff"/>
        <path id="Path_29713" data-name="Path 29713" d="M419.214,386.993l1.207,9.34c-.28.241,32.445,12.619,46.361-24.012,0,0-3.608,24.508-8.81,42.509a66.618,66.618,0,0,0,37.375,4.032s2.9-64.876-11.443-85.155c-7.6-10.746-18.26,6.837-20.907,17.63C459.635,365.046,451.708,395.692,419.214,386.993Z" transform="translate(-393.015 -294.245)" fill="#6364d9"/>
        <path id="Path_29714" data-name="Path 29714" d="M423.942,355.857s-5.639-1.532-7.763-.14.837,5.96,3.306,8.523a4.99,4.99,0,0,0,5.664.957Z" transform="translate(-397.743 -263.109)" fill="#fcc"/>
      </g>
    </g>
  </g>
</svg>
