<svg xmlns="http://www.w3.org/2000/svg" width="881.227" height="512.073" viewBox="0 0 881.227 512.073">
  <g id="Group_23810" data-name="Group 23810" transform="translate(-128.881 -160.72)">
    <path id="Path_29447" data-name="Path 29447" d="M162.735,670.656c.208-3.727-85.043-115.622,14.234-218.932,44.816-46.636,120.625-21.367,108.633-157.6C275.249,176.491,454.078,107.374,565.219,212.4c71.8,67.853,144.5-22.665,258.414,28.694s38.9,190.954,85.647,204.107c92.08,25.911,137.813,139.934,64.4,224.193Z" transform="translate(0)" fill="#6364d9" opacity="0.05"/>
    <g id="Group_23693" data-name="Group 23693" transform="translate(300.104 264.008)">
      <path id="Path_29448" data-name="Path 29448" d="M882.524,586.41c-.5-1.025-1.045-2.066-1.629-3.092l1.65-.938c.6,1.062,1.172,2.139,1.687,3.2Zm-3.451-6.08c-.628-.964-1.3-1.933-2-2.881l1.53-1.124c.717.976,1.408,1.975,2.056,2.968ZM690.537,601.255c-1.2.129-2.408.23-3.589.3l-.112-1.894c1.15-.067,2.327-.166,3.5-.292Zm3.569-.47-.291-1.876c1.142-.177,2.306-.384,3.46-.615l.373,1.861C696.467,600.392,695.275,600.6,694.106,600.785Zm-10.759.89c-1.208.009-2.42-.014-3.6-.068l.087-1.9c1.151.053,2.329.075,3.5.066Zm17.812-2.3-.45-1.844c1.125-.275,2.269-.579,3.4-.9l.524,1.824C703.477,598.783,702.309,599.094,701.159,599.374Zm-25.015,1.965c-1.2-.123-2.4-.282-3.579-.474l.3-1.873c1.138.185,2.3.34,3.469.459Zm31.921-3.945-.592-1.8c1.1-.362,2.22-.752,3.325-1.16l.657,1.781C710.329,596.628,709.188,597.026,708.065,597.395Zm6.735-2.483-.717-1.757c1.075-.439,2.165-.905,3.24-1.386l.775,1.732C717,593.99,715.894,594.465,714.8,594.912Zm-45.782,5.266c-1.181-.268-2.359-.574-3.5-.911l.538-1.82c1.1.325,2.239.622,3.38.881Zm205.908-25.5c-.735-.9-1.507-1.79-2.294-2.655l1.4-1.277c.808.89,1.6,1.807,2.357,2.729Zm-153.579,17.3-.829-1.707c1.045-.507,2.1-1.041,3.151-1.588l.879,1.682C723.486,590.928,722.409,591.47,721.347,591.985Zm-59.263,6.142c-1.134-.419-2.261-.881-3.35-1.372l.78-1.73c1.049.473,2.135.918,3.228,1.322Zm65.615-9.46-.926-1.656c1.015-.568,2.043-1.162,3.057-1.766l.971,1.631C729.774,587.489,728.73,588.091,727.7,588.667Zm142.507-19.179c-.825-.821-1.682-1.634-2.548-2.415l1.272-1.409c.888.8,1.768,1.637,2.615,2.479ZM655.488,595.149c-1.063-.574-2.113-1.193-3.123-1.839l1.023-1.6c.97.621,1.98,1.216,3,1.768ZM733.855,585l-1.014-1.605c.982-.619,1.978-1.266,2.963-1.923l1.053,1.579C735.859,583.72,734.849,584.376,733.855,585Zm5.956-3.97-1.09-1.554c.953-.668,1.918-1.362,2.87-2.063l1.125,1.529C741.753,579.655,740.775,580.357,739.811,581.034ZM649.388,591.24c-.965-.727-1.91-1.5-2.811-2.293l1.256-1.423c.864.763,1.772,1.5,2.7,2.2ZM865,564.782c-.9-.737-1.831-1.463-2.768-2.16l1.132-1.523c.961.714,1.917,1.459,2.84,2.216ZM745.573,576.793l-1.158-1.5.282-.217q1.28-.991,2.557-1.946l1.137,1.519q-1.263.946-2.535,1.929Zm113.788-16.2c-.967-.649-1.963-1.284-2.961-1.888l.982-1.624c1.024.619,2.046,1.27,3.038,1.936Zm-215.4,25.847c-.839-.866-1.652-1.777-2.416-2.705L643,582.531c.733.89,1.512,1.762,2.316,2.592Zm107.288-13.892-1.108-1.54c.969-.7,1.952-1.39,2.922-2.059l1.078,1.562C753.175,571.176,752.2,571.862,751.243,572.552Zm102.109-15.587c-1.024-.554-2.075-1.092-3.126-1.6l.823-1.71c1.078.519,2.156,1.071,3.207,1.639Zm-96.286,11.571-1.045-1.584c1-.661,2.012-1.313,3.005-1.938l1.012,1.607C759.056,567.237,758.056,567.882,757.066,568.535ZM639.345,580.848c-.689-.987-1.348-2.016-1.958-3.059l1.638-.958c.584,1,1.215,1.985,1.875,2.931Zm123.7-16.079-.975-1.628c1.022-.613,2.062-1.219,3.09-1.8l.937,1.651C765.087,563.565,764.06,564.164,763.05,564.769Zm83.979-10.85c-1.074-.455-2.172-.89-3.263-1.293l.658-1.781c1.119.413,2.246.86,3.346,1.326ZM769.2,561.281l-.9-1.672c1.051-.563,2.119-1.118,3.177-1.65l.853,1.7C771.286,560.179,770.232,560.727,769.2,561.281Zm71.248-9.792c-1.11-.351-2.244-.679-3.371-.978l.486-1.835c1.156.306,2.32.643,3.457,1Zm-64.938,6.621-.808-1.718c1.083-.509,2.181-1.006,3.263-1.479l.758,1.74C777.654,557.118,776.572,557.608,775.505,558.11ZM635.68,574.583c-.523-1.083-1.01-2.2-1.448-3.327l1.768-.689c.42,1.079.887,2.152,1.389,3.19Zm197.979-24.889c-1.135-.244-2.3-.465-3.449-.657l.312-1.872c1.182.2,2.371.423,3.536.673Zm-51.685,5.6-.707-1.761c1.112-.446,2.238-.879,3.347-1.286l.653,1.782C784.175,554.425,783.067,554.851,781.973,555.29Zm44.761-6.75c-1.157-.138-2.333-.251-3.5-.337l.139-1.893c1.191.088,2.4.2,3.581.345Zm-38.14,4.324-.6-1.8c1.139-.377,2.291-.737,3.424-1.07l.536,1.821C790.846,552.141,789.714,552.494,788.595,552.864Zm31.136-4.84c-1.159-.033-2.34-.042-3.513-.024l-.028-1.9c1.2-.018,2.411-.01,3.6.024Zm-24.376,2.853-.472-1.838c1.157-.3,2.333-.577,3.493-.831l.406,1.853C797.644,550.312,796.49,550.586,795.355,550.877Zm17.351-2.75c-1.161.067-2.34.159-3.5.274l-.187-1.889c1.19-.118,2.4-.213,3.582-.28Zm-10.472,1.248-.336-1.868c1.181-.213,2.375-.4,3.548-.567l.263,1.88C804.56,548.98,803.391,549.168,802.234,549.375ZM633.047,567.829c-.348-1.145-.657-2.324-.921-3.507l1.852-.413c.253,1.136.551,2.269.884,3.368Zm-1.578-7.069q-.1-.653-.175-1.311c-.092-.759-.167-1.529-.225-2.29l1.893-.143c.055.733.128,1.475.216,2.206q.077.634.17,1.261Zm1.348-7.233-1.9.015c-.009-1.192.022-2.409.093-3.618l1.894.11C632.839,551.2,632.809,552.377,632.817,553.527Zm.4-6.977-1.884-.228c.141-1.165.321-2.35.534-3.523l1.877.286-.014.074C633.53,544.274,633.356,545.422,633.219,546.55Zm1.228-6.906-1.851-.418c.264-1.167.556-2.342.867-3.489l1.832.5C634.99,537.356,634.7,538.5,634.447,539.644Zm64.929-9.6a26.16,26.16,0,0,1-3.686.095l.089-1.9a24.329,24.329,0,0,0,3.418-.088Zm3.625-.573-.408-1.854a32.005,32.005,0,0,0,3.326-.927l.606,1.8A33.977,33.977,0,0,1,703,529.467Zm-10.992.193a18.873,18.873,0,0,1-3.557-1.146l.763-1.738a17.044,17.044,0,0,0,3.2,1.03Zm17.913-2.514-.782-1.729c1.043-.472,2.081-1,3.086-1.578l.943,1.647C712.112,526.091,711.021,526.649,709.922,527.146Zm6.32-3.614-1.092-1.553c.946-.665,1.868-1.379,2.739-2.123l1.233,1.443C718.206,522.081,717.237,522.832,716.243,523.532Zm-79.953,9.334-1.808-.578c.364-1.141.759-2.285,1.171-3.4l1.78.658C637.031,530.635,636.646,531.752,636.29,532.866Zm48.908-6.235a16.208,16.208,0,0,1-2.742-2.582l1.452-1.221a14.372,14.372,0,0,0,2.421,2.28ZM721.78,518.8l-1.365-1.319a34.541,34.541,0,0,0,2.277-2.6l1.491,1.176C723.438,517,722.63,517.923,721.78,518.8Zm-83.055,7.477-1.749-.738c.465-1.1.961-2.207,1.475-3.282l1.713.818C639.663,524.127,639.179,525.2,638.725,526.28Zm41.646-5.349a20.484,20.484,0,0,1-1.413-3.442l1.812-.564a18.62,18.62,0,0,0,1.281,3.124Zm45.92-7.86-1.606-1.011a30.849,30.849,0,0,0,1.671-3.014l1.709.825A32.793,32.793,0,0,1,726.292,513.07Zm-84.543,6.874-1.674-.9c.563-1.053,1.159-2.107,1.77-3.133l1.631.972C642.879,517.888,642.3,518.917,641.749,519.944Zm36.385-6.052q-.077-.5-.139-1.008c-.1-.848-.172-1.736-.207-2.639l1.9-.074c.033.852.1,1.688.195,2.486.038.319.082.634.13.943Zm51.33-7.409-1.794-.618a28.291,28.291,0,0,0,.92-3.311l1.856.395A29.993,29.993,0,0,1,729.464,506.483Zm-84.12,7.431-1.584-1.046c.656-.994,1.347-1.988,2.052-2.956l1.534,1.118C646.657,511.974,645.983,512.944,645.343,513.914ZM679.7,506.69l-1.9-.074c.047-1.213.136-2.427.266-3.608l1.887.206C679.829,504.352,679.743,505.521,679.7,506.69Zm51.29-7.371-1.891-.163a28.4,28.4,0,0,0,.085-3.434l1.9-.069A30.178,30.178,0,0,1,730.987,499.319ZM649.48,508.24,648,507.053c.746-.93,1.524-1.857,2.314-2.755l1.425,1.254C650.968,506.427,650.208,507.332,649.48,508.24Zm4.639-5.273-1.366-1.317c.829-.861,1.688-1.714,2.554-2.535l1.307,1.377C655.767,501.293,654.928,502.126,654.118,502.967Zm26.338-3.193-1.866-.345c.22-1.19.488-2.378.8-3.533l1.834.489C680.925,497.493,680.668,498.633,680.457,499.774Zm48.3-7.39a14.347,14.347,0,0,0-1.12-3.128l1.7-.846a16.229,16.229,0,0,1,1.269,3.543Zm-69.545,5.746L657.97,496.7c.9-.781,1.831-1.554,2.769-2.3l1.18,1.486C661,496.612,660.093,497.367,659.214,498.13Zm23.034-5.059-1.789-.635c.4-1.137.859-2.269,1.352-3.364l1.731.779C683.071,490.9,682.635,491.981,682.249,493.07Zm43.567-6.586a15.576,15.576,0,0,0-2.422-2.3l1.156-1.5a17.531,17.531,0,0,1,2.717,2.584Zm-61.1,7.277-1.113-1.537c.969-.7,1.964-1.39,2.959-2.047l1.045,1.584C666.639,492.4,665.665,493.076,664.719,493.762Zm5.867-3.872-.976-1.628c1.025-.614,2.076-1.214,3.126-1.783l.9,1.67C672.614,488.7,671.586,489.289,670.586,489.889Zm14.51-3.144-1.661-.917c.512-.929,1.067-1.854,1.652-2.755-.625.219-1.25.446-1.868.681l-.673-1.774c1.122-.426,2.264-.83,3.4-1.2l.59,1.8q-.476.155-.953.319l1.318.871C686.255,484.741,685.65,485.741,685.1,486.745Zm35.438-4.364a23.734,23.734,0,0,0-3.145-1.33l.615-1.8a25.609,25.609,0,0,1,3.4,1.438Zm-43.767,4.16-.83-1.707c1.075-.524,2.176-1.029,3.271-1.5l.753,1.742C678.892,485.537,677.817,486.031,676.767,486.542Zm37.3-6.406c-1.09-.235-2.239-.423-3.417-.559l.218-1.885c1.239.142,2.45.341,3.6.589Zm-24.177,1.436-.376-1.368q-.3.371-.592.745l-1.5-1.165c.731-.939,1.513-1.872,2.327-2.775l1.409,1.271q-.571.634-1.119,1.286c.95-.251,1.9-.483,2.847-.691l.409,1.853C692.172,480.976,691.026,481.26,689.893,481.571Zm17.293-2.246c-1.132-.036-2.306-.031-3.487.017l-.076-1.9c1.227-.049,2.447-.055,3.624-.018Zm-10.444.74-.308-1.873c1.2-.2,2.408-.36,3.58-.483l.2,1.888C699.074,479.716,697.909,479.873,696.742,480.065Zm-3.154-4.293-1.319-1.364c.851-.823,1.751-1.639,2.674-2.424l1.23,1.445C695.28,474.188,694.41,474.977,693.587,475.772Zm5.314-4.528-1.143-1.515c.942-.71,1.929-1.413,2.935-2.09l1.06,1.575C700.774,469.872,699.815,470.554,698.9,471.244Zm5.807-3.911-.979-1.625c1.009-.608,2.061-1.209,3.128-1.787l.9,1.669C706.719,466.154,705.692,466.741,704.708,467.333Zm6.183-3.353-.832-1.706c1.057-.516,2.156-1.025,3.263-1.513l.765,1.737C713,462.977,711.926,463.476,710.891,463.981Zm6.449-2.842-.7-1.764c1.094-.435,2.225-.862,3.362-1.27l.641,1.786C719.525,460.292,718.414,460.711,717.34,461.138Zm6.645-2.385-.583-1.806c1.127-.363,2.282-.717,3.434-1.051l.529,1.823C726.231,458.048,725.094,458.4,723.985,458.753Zm6.79-1.969-.475-1.837c1.148-.3,2.321-.583,3.489-.85l.423,1.85C733.061,456.21,731.9,456.492,730.774,456.784Zm6.9-1.578-.372-1.861c1.181-.236,2.37-.456,3.534-.654l.319,1.871C740.007,454.756,738.836,454.973,737.673,455.206Zm10.465-1.595c-.009,0-1.3.107-3.487.409l-.261-1.88c2.254-.313,3.556-.418,3.6-.421Z" transform="translate(-630.918 -451.719)" fill="#8c9df4"/>
    </g>
    <rect id="Rectangle_2592" data-name="Rectangle 2592" width="75.502" height="193.886" transform="translate(350.973 474.933)" fill="#6364d9"/>
    <rect id="Rectangle_2593" data-name="Rectangle 2593" width="75.502" height="257.259" transform="translate(464.819 411.559)" fill="#6364d9"/>
    <rect id="Rectangle_2594" data-name="Rectangle 2594" width="82.673" height="325.653" transform="translate(568.212 343.165)" fill="#6364d9"/>
    <rect id="Rectangle_2595" data-name="Rectangle 2595" width="75.502" height="370.737" transform="translate(677.013 298.082)" fill="#6364d9"/>
    <g id="Group_23694" data-name="Group 23694" transform="translate(646.631 374.871)">
      <path id="Path_29449" data-name="Path 29449" d="M1639.182,840.88l158.687-76.819L1727.1,914.913l-11.966-68.442Z" transform="translate(-1639.182 -764.061)" fill="#ffa950"/>
    </g>
    <g id="Group_23697" data-name="Group 23697" transform="translate(612.546 363.492)">
      <path id="Path_29450" data-name="Path 29450" d="M1534.782,768.774a29.734,29.734,0,1,1,35.921,21.861A29.734,29.734,0,0,1,1534.782,768.774Z" transform="translate(-1533.932 -732.003)" fill="#ffb93e"/>
      <g id="Group_23695" data-name="Group 23695" transform="translate(2.723 2.981)">
        <path id="Path_29451" data-name="Path 29451" d="M1575.11,793.826a27.091,27.091,0,1,1,16.737-12.239A26.916,26.916,0,0,1,1575.11,793.826Zm-12.428-51.076a25.475,25.475,0,1,0,30.776,18.729A25.5,25.5,0,0,0,1562.682,742.75Z" transform="translate(-1541.603 -740.401)" fill="#ffa412"/>
      </g>
      <g id="Group_23696" data-name="Group 23696" transform="translate(19.062 9.879)">
        <path id="Path_29452" data-name="Path 29452" d="M1603.882,786.8a4.473,4.473,0,0,0-.434-1.513,3.276,3.276,0,0,0-.955-1.112,6.186,6.186,0,0,0-1.57-.826,16.17,16.17,0,0,0-2.276-.634,42.741,42.741,0,0,1-4.193-1.132,13.5,13.5,0,0,1-3.313-1.578,7.931,7.931,0,0,1-2.3-2.346,8.95,8.95,0,0,1-.9-6.749,7.538,7.538,0,0,1,1.488-2.762,9.407,9.407,0,0,1,2.583-2.1,12.535,12.535,0,0,1,3.544-1.308l-.541-4.464,3.593-.435.548,4.526a11.261,11.261,0,0,1,3.627.6,8.5,8.5,0,0,1,4.963,4.384,11.309,11.309,0,0,1,1.051,3.693l-6.49.787a5.507,5.507,0,0,0-1.565-3.61,3.827,3.827,0,0,0-3.126-.88,4.862,4.862,0,0,0-1.706.493,3.3,3.3,0,0,0-1.108.917,3.071,3.071,0,0,0-.556,1.242,4.53,4.53,0,0,0-.05,1.466,4.145,4.145,0,0,0,.394,1.37,3.061,3.061,0,0,0,.915,1.064,6.178,6.178,0,0,0,1.581.824,21.1,21.1,0,0,0,2.375.7q2.276.549,4.166,1.188a13.665,13.665,0,0,1,3.3,1.6,7.664,7.664,0,0,1,3.434,5.776,8.189,8.189,0,0,1-.24,3.373,7.439,7.439,0,0,1-1.5,2.743,9.089,9.089,0,0,1-2.611,2.053,13.544,13.544,0,0,1-3.57,1.279l.5,4.151-3.571.433-.5-4.13a15.169,15.169,0,0,1-3.7-.377,9.626,9.626,0,0,1-3.307-1.43,8.617,8.617,0,0,1-2.516-2.712,10.478,10.478,0,0,1-1.329-4.2l6.49-.786a6.444,6.444,0,0,0,.715,2.421,4.163,4.163,0,0,0,1.3,1.451,4.051,4.051,0,0,0,1.684.642,6.935,6.935,0,0,0,1.836.021,5.8,5.8,0,0,0,1.82-.5,3.857,3.857,0,0,0,1.245-.913,3.08,3.08,0,0,0,.671-1.235A3.76,3.76,0,0,0,1603.882,786.8Z" transform="translate(-1587.637 -759.836)" fill="#ffa412"/>
      </g>
    </g>
    <g id="Group_23700" data-name="Group 23700" transform="translate(752.899 273.889)">
      <circle id="Ellipse_4115" data-name="Ellipse 4115" cx="28.958" cy="28.958" r="28.958" transform="translate(0 40.953) rotate(-45)" fill="#ffb93e"/>
      <g id="Group_23698" data-name="Group 23698" transform="translate(14.582 14.911)">
        <path id="Path_29453" data-name="Path 29453" d="M2011.7,574.315a26.385,26.385,0,1,1,18.338-8.455A26.209,26.209,0,0,1,2011.7,574.315Zm-2.011-51.155a24.81,24.81,0,1,0,25.766,23.816A24.837,24.837,0,0,0,2009.687,523.161Z" transform="translate(-1984.277 -521.567)" fill="#ffa412"/>
      </g>
      <g id="Group_23699" data-name="Group 23699" transform="translate(29.643 21.772)">
        <path id="Path_29454" data-name="Path 29454" d="M2041.963,567.93a4.342,4.342,0,0,0-.122-1.528,3.193,3.193,0,0,0-.7-1.246,6.012,6.012,0,0,0-1.339-1.091,16,16,0,0,0-2.05-1.044,41.571,41.571,0,0,1-3.785-1.89,13.157,13.157,0,0,1-2.858-2.145,7.735,7.735,0,0,1-1.743-2.683,8.719,8.719,0,0,1,.445-6.616,7.332,7.332,0,0,1,1.954-2.35,9.155,9.155,0,0,1,2.87-1.507,12.2,12.2,0,0,1,3.636-.565l.344-4.365,3.514.278-.349,4.426a10.97,10.97,0,0,1,3.346,1.271,8.273,8.273,0,0,1,3.892,5.142,11,11,0,0,1,.292,3.728l-6.347-.5a5.366,5.366,0,0,0-.8-3.747,3.727,3.727,0,0,0-2.814-1.444,4.743,4.743,0,0,0-1.724.141,3.207,3.207,0,0,0-1.234.662,2.986,2.986,0,0,0-.77,1.079,4.384,4.384,0,0,0-.331,1.39,4.033,4.033,0,0,0,.111,1.384,2.97,2.97,0,0,0,.669,1.192,6,6,0,0,0,1.35,1.092,20.491,20.491,0,0,0,2.133,1.123q2.067.964,3.748,1.938a13.311,13.311,0,0,1,2.845,2.164,7.458,7.458,0,0,1,2.163,6.176,7.975,7.975,0,0,1-.88,3.173,7.243,7.243,0,0,1-1.963,2.328,8.822,8.822,0,0,1-2.888,1.456,13.166,13.166,0,0,1-3.655.532l-.321,4.06-3.492-.276.319-4.039a14.816,14.816,0,0,1-3.462-1.074,9.363,9.363,0,0,1-2.88-2,8.381,8.381,0,0,1-1.879-3.073,10.209,10.209,0,0,1-.459-4.265l6.347.5a6.286,6.286,0,0,0,.215,2.449,4.07,4.07,0,0,0,.965,1.637,3.938,3.938,0,0,0,1.484.938,6.776,6.776,0,0,0,1.749.374,5.651,5.651,0,0,0,1.833-.122,3.77,3.77,0,0,0,1.365-.631,3,3,0,0,0,.878-1.05A3.655,3.655,0,0,0,2041.963,567.93Z" transform="translate(-2026.709 -540.898)" fill="#ffa412"/>
      </g>
    </g>
    <g id="Group_23703" data-name="Group 23703" transform="translate(725.869 347.02)">
      <path id="Path_29455" data-name="Path 29455" d="M1861.925,705.924a19.974,19.974,0,1,1,20.324,19.618A19.974,19.974,0,0,1,1861.925,705.924Z" transform="translate(-1861.922 -685.596)" fill="#ffb93e"/>
      <g id="Group_23701" data-name="Group 23701" transform="translate(1.78 2.012)">
        <path id="Path_29456" data-name="Path 29456" d="M1885.456,727.659a18.2,18.2,0,1,1,12.772-5.557A18.077,18.077,0,0,1,1885.456,727.659Zm-.624-35.306a17.113,17.113,0,1,0,17.413,16.808A17.133,17.133,0,0,0,1884.832,692.353Z" transform="translate(-1866.936 -691.265)" fill="#ffa412"/>
      </g>
      <g id="Group_23702" data-name="Group 23702" transform="translate(12.08 6.756)">
        <path id="Path_29457" data-name="Path 29457" d="M1906.452,723.321a2.992,2.992,0,0,0-.062-1.056,2.2,2.2,0,0,0-.462-.87,4.142,4.142,0,0,0-.908-.772,11.012,11.012,0,0,0-1.4-.751,28.6,28.6,0,0,1-2.581-1.359,9.037,9.037,0,0,1-1.939-1.522,5.325,5.325,0,0,1-1.162-1.876,6.013,6.013,0,0,1,.406-4.556,5.056,5.056,0,0,1,1.382-1.591,6.311,6.311,0,0,1,2-1,8.413,8.413,0,0,1,2.515-.335l.3-3.006,2.419.243-.307,3.048a7.559,7.559,0,0,1,2.29.926,5.707,5.707,0,0,1,2.607,3.6,7.593,7.593,0,0,1,.145,2.575l-4.369-.44a3.7,3.7,0,0,0-.495-2.6,2.569,2.569,0,0,0-1.919-1.038,3.282,3.282,0,0,0-1.191.072,2.2,2.2,0,0,0-.861.438,2.063,2.063,0,0,0-.547.733,3.028,3.028,0,0,0-.249.954,2.779,2.779,0,0,0,.056.956,2.055,2.055,0,0,0,.443.832,4.168,4.168,0,0,0,.914.773,14.114,14.114,0,0,0,1.454.806q1.41.7,2.555,1.392a9.2,9.2,0,0,1,1.93,1.535,5.147,5.147,0,0,1,1.4,4.291,5.5,5.5,0,0,1-.655,2.175,5,5,0,0,1-1.388,1.577,6.1,6.1,0,0,1-2.013.961,9.117,9.117,0,0,1-2.529.312l-.281,2.795-2.4-.242.281-2.781a10.164,10.164,0,0,1-2.371-.792,6.472,6.472,0,0,1-1.957-1.424,5.788,5.788,0,0,1-1.249-2.147,7.04,7.04,0,0,1-.253-2.948l4.369.44a4.35,4.35,0,0,0,.112,1.693,2.81,2.81,0,0,0,.641,1.143,2.724,2.724,0,0,0,1.01.669,4.67,4.67,0,0,0,1.2.284,3.893,3.893,0,0,0,1.266-.057,2.6,2.6,0,0,0,.951-.415,2.067,2.067,0,0,0,.621-.71A2.522,2.522,0,0,0,1906.452,723.321Z" transform="translate(-1895.955 -704.63)" fill="#ffa412"/>
      </g>
    </g>
    <g id="Group_23706" data-name="Group 23706" transform="translate(637.51 238.441)">
      <circle id="Ellipse_4116" data-name="Ellipse 4116" cx="48.74" cy="48.74" r="48.74" transform="translate(0 6.61) rotate(-3.888)" fill="#ffb93e"/>
      <g id="Group_23704" data-name="Group 23704" transform="translate(7.684 8.049)">
        <path id="Path_29458" data-name="Path 29458" d="M1689.037,488.953a44.406,44.406,0,1,1,25.721-22.217A44.116,44.116,0,0,1,1689.037,488.953Zm-27.085-81.8a41.758,41.758,0,1,0,52.768,26.516A41.806,41.806,0,0,0,1661.952,407.155Z" transform="translate(-1630.648 -402.367)" fill="#ffa412"/>
      </g>
      <g id="Group_23705" data-name="Group 23705" transform="translate(33.564 19.443)">
        <path id="Path_29459" data-name="Path 29459" d="M1731.966,477.817a7.318,7.318,0,0,0-.911-2.415,5.354,5.354,0,0,0-1.708-1.69,10.108,10.108,0,0,0-2.674-1.141,26.76,26.76,0,0,0-3.8-.734,69.849,69.849,0,0,1-7-1.294,22.132,22.132,0,0,1-5.622-2.137,13,13,0,0,1-4.07-3.527,14.673,14.673,0,0,1-2.362-10.907,12.341,12.341,0,0,1,2.065-4.711,15.4,15.4,0,0,1,3.94-3.776,20.542,20.542,0,0,1,5.617-2.607l-1.477-7.221,5.813-1.188,1.5,7.322a18.435,18.435,0,0,1,6.005.495,13.931,13.931,0,0,1,8.69,6.5,18.551,18.551,0,0,1,2.208,5.894l-10.5,2.146q-.828-4.05-3.037-5.69a6.271,6.271,0,0,0-5.223-1.024,7.973,7.973,0,0,0-2.722,1.032,5.4,5.4,0,0,0-1.689,1.646,5.034,5.034,0,0,0-.743,2.1,7.429,7.429,0,0,0,.112,2.4,6.8,6.8,0,0,0,.826,2.186,5.014,5.014,0,0,0,1.636,1.617,10.14,10.14,0,0,0,2.693,1.137,34.3,34.3,0,0,0,3.971.823q3.792.6,6.964,1.389a22.344,22.344,0,0,1,5.61,2.176,12.549,12.549,0,0,1,6.378,8.979,13.413,13.413,0,0,1,.054,5.543,12.2,12.2,0,0,1-2.089,4.681,14.9,14.9,0,0,1-3.994,3.7,22.221,22.221,0,0,1-5.663,2.564l1.373,6.714-5.776,1.182-1.366-6.682a24.887,24.887,0,0,1-6.1-.123,15.773,15.773,0,0,1-5.592-1.9,14.113,14.113,0,0,1-4.47-4.1,17.177,17.177,0,0,1-2.729-6.684l10.5-2.146a10.576,10.576,0,0,0,1.489,3.861,6.844,6.844,0,0,0,2.322,2.2,6.638,6.638,0,0,0,2.837.827,11.391,11.391,0,0,0,3-.21,9.5,9.5,0,0,0,2.907-1.051,6.341,6.341,0,0,0,1.913-1.657,5.043,5.043,0,0,0,.932-2.107A6.153,6.153,0,0,0,1731.966,477.817Z" transform="translate(-1703.561 -434.467)" fill="#ffa412"/>
      </g>
    </g>
    <g id="Group_23708" data-name="Group 23708" transform="translate(435.049 226.765)">
      <path id="Path_29460" data-name="Path 29460" d="M1140.112,405.56c-4.38,1.094-8.563,2.139-12.475,2.808-12.668,2.167-22.454.38-26.672-16.507s3.579-23.067,15.777-27.112c3.767-1.248,7.95-2.293,12.33-3.387,9.364-2.339,19.727-1.306,27.981,1.4,8.119,2.669,14.194,6.96,15.271,11.272,1.227,4.91-2.116,11.56-8.065,17.582A53.366,53.366,0,0,1,1140.112,405.56Z" transform="translate(-1071.388 -355.352)" fill="#6364d9"/>
      <path id="Path_29461" data-name="Path 29461" d="M1080.084,356.188l-14.389-9.4-22.715,4.84,23.594,16.576Z" transform="translate(-1034.73 -346.792)" fill="#163560"/>
      <path id="Path_29462" data-name="Path 29462" d="M1122.5,488.036l-8.281,15.059-22.323,6.409,13.028-25.722Z" transform="translate(-1066.282 -435.158)" fill="#163560"/>
      <path id="Path_29463" data-name="Path 29463" d="M1127.637,416.885c-12.668,2.167-22.454.38-26.672-16.507s3.579-23.067,15.777-27.112Z" transform="translate(-1071.388 -363.869)" fill="#163560"/>
      <path id="Path_29464" data-name="Path 29464" d="M1019.737,447.377s6.323-14.734,17.392-12.464c11.292,2.314,9.869,14.481,1.4,15.6S1024.68,446.142,1019.737,447.377Z" transform="translate(-1019.737 -403.481)" fill="#ffa950"/>
      <path id="Path_29465" data-name="Path 29465" d="M1194.412,388.825a10.918,10.918,0,1,1-7.947,13.239A10.918,10.918,0,0,1,1194.412,388.825Z" transform="translate(-1127.075 -373.694)" fill="#163560"/>
      <g id="Group_23707" data-name="Group 23707" transform="translate(58.336 14.076)">
        <path id="Path_29466" data-name="Path 29466" d="M1195.738,409.744a11.654,11.654,0,1,1,2.821-.348A11.667,11.667,0,0,1,1195.738,409.744Zm0-21.838a10.191,10.191,0,1,0,9.887,7.722A10.158,10.158,0,0,0,1195.736,387.906Z" transform="translate(-1184.09 -386.45)" fill="#bdd1f9"/>
      </g>
      <path id="Path_29467" data-name="Path 29467" d="M1268.294,396.53l-7.207-28.854c8.119,2.668,14.195,6.96,15.271,11.272C1277.585,383.858,1274.242,390.508,1268.294,396.53Z" transform="translate(-1175.422 -360.263)" fill="#ffa950"/>
    </g>
    <g id="Group_23709" data-name="Group 23709" transform="translate(792.772 375.612)">
      <path id="Path_29468" data-name="Path 29468" d="M2201.231,895.353s22.061,22.873,23.1,31.482-10.567,22.048-10.567,22.048Z" transform="translate(-2150.596 -849.493)" fill="#ed7d2b"/>
      <path id="Path_29469" data-name="Path 29469" d="M2118.927,1556.092s-.779,12.132-3.127,12.3c-.312.022-11.907,0-11.907,0l-14.8-.118s.1-3.566,4.433-4.311,11.577-3.77,14.21-9.482C2110.5,1548.47,2118.927,1556.092,2118.927,1556.092Z" transform="translate(-2078.26 -1273.179)" fill="#2e5a99"/>
      <path id="Path_29470" data-name="Path 29470" d="M2211.807,1556.293s-.778,12.133-3.126,12.3c-.312.022-11.907,0-11.907,0l-14.8-.118s.1-3.566,4.432-4.31,11.577-3.77,14.21-9.483C2203.385,1548.672,2211.807,1556.293,2211.807,1556.293Z" transform="translate(-2138.174 -1273.309)" fill="#18417c"/>
      <path id="Path_29471" data-name="Path 29471" d="M2127.763,1162.149s3.817,24.767,18.163,68.748,16.271,63.018,16.271,63.018l15.493-.4s.236-48.032-6.37-70.147-1.263-79.679-1.263-79.679Z" transform="translate(-2103.205 -1009.684)" fill="#163560"/>
      <path id="Path_29472" data-name="Path 29472" d="M2106.6,1147.2a600.756,600.756,0,0,0,5.726,83.131c6.355,45.823,4.125,65.264,4.125,65.264l15.459.548s9.339-45.806,6.74-68.741,12.823-78.65,12.823-78.65Z" transform="translate(-2089.542 -1011.952)" fill="#1c468a"/>
      <path id="Path_29473" data-name="Path 29473" d="M2154.867,867.879l-8.249,5.383-11.9-2.245c.167-.961.961-4.942,1.685-8.548.043-.213.087-.426.128-.633.62-3.069,1.155-5.7,1.155-5.7l11.13-4.882,4.149-1.82c-.011.064-.329,3.405-.373,3.893A28.347,28.347,0,0,0,2154.867,867.879Z" transform="translate(-2107.692 -819.87)" fill="#ffb27d"/>
      <path id="Path_29474" data-name="Path 29474" d="M2134.669,886.788c.231-.1,14.345-4.228,15.876-3.719s2.432,3.476,2.432,3.476L2129.9,891.71S2131.719,888.022,2134.669,886.788Z" transform="translate(-2104.58 -841.541)" fill="#ed7d2b"/>
      <path id="Path_29475" data-name="Path 29475" d="M2152.607,987.679c-2.415,10.9-42.208,12.108-52.443,2.186-1.165-1.131-1.21-6.381-.755-13.459.891-13.829,3.7-34.628,3.83-45.257A84.125,84.125,0,0,1,2104.97,916a122.977,122.977,0,0,1,5.086-18.123s19.448-6.24,23.083-5.164C2150.647,897.9,2155.021,976.777,2152.607,987.679Z" transform="translate(-2084.742 -847.71)" fill="#f99746"/>
      <path id="Path_29476" data-name="Path 29476" d="M2099.9,1015.251c.891-13.829,3.7-34.628,3.83-45.257a84.1,84.1,0,0,1,1.731-15.147l11.7-2.038S2128.482,999.521,2099.9,1015.251Z" transform="translate(-2085.23 -886.555)" fill="#ed7d2b"/>
      <path id="Path_29477" data-name="Path 29477" d="M2111.771,1071.161a2.752,2.752,0,0,1-.884,3.182c-1.676,1.275-2.766,3.345-2.386,4.859s4.046,3.993,5.318,3.6,3.869-2.385,3.591-3.184,1.757-7.006-1.34-9.4S2111.771,1071.161,2111.771,1071.161Z" transform="translate(-2090.731 -961.731)" fill="#ffb27d"/>
      <path id="Path_29478" data-name="Path 29478" d="M2092.822,899.661s-11.406,2.109-20.521,15.478-15.113,23.31-13.45,28.138,16.882,21.6,19.511,21.6,6.879-1.9,7.126-6.2c0,0-10.705-16.121-8.584-18.527.906-1.028,13.968-11.586,15.82-6.8C2095.788,941.271,2092.822,899.661,2092.822,899.661Z" transform="translate(-2058.575 -852.272)" fill="#f99746"/>
      <path id="Path_29479" data-name="Path 29479" d="M2154.819,856.779c-2.45,4.131-11.557,7.688-15.354,8.995.044-.213.087-.426.128-.633.62-3.069,1.155-5.7,1.155-5.7l11.13-4.882C2154.336,854.526,2155.831,855.08,2154.819,856.779Z" transform="translate(-2110.754 -823.175)" fill="#fca56b"/>
      <path id="Path_29480" data-name="Path 29480" d="M2127.235,812.843s17.9,5.626,21.231-5.574,7.886-18.017-3.4-22.083-14.789-.455-16.811,3.012S2122.665,811.091,2127.235,812.843Z" transform="translate(-2101.43 -777.267)" fill="#ffb27d"/>
      <path id="Path_29481" data-name="Path 29481" d="M2133.1,776s1.114,13.044,3.812,12.484,5.146-.975,4.742,2.956-4.153,8.462,4.157,9.176,20.307-20.7,18.032-24.76C2157.275,764.132,2123.6,761.7,2133.1,776Z" transform="translate(-2105.565 -766.149)" fill="#163560"/>
    </g>
    <g id="Group_23738" data-name="Group 23738" transform="translate(576.167 522.859)">
      <g id="Group_23734" data-name="Group 23734" transform="translate(59.611)">
        <g id="Group_23732" data-name="Group 23732" transform="translate(0 56.253)">
          <g id="Group_23711" data-name="Group 23711" transform="translate(9.513 82.379)">
            <path id="Path_29482" data-name="Path 29482" d="M1722.061,1573.383v4.693a1.6,1.6,0,0,1-.37,1.009,2.138,2.138,0,0,1-1.009.675,2.012,2.012,0,0,1-.395.095,2.43,2.43,0,0,1-.381.028h-88.99a2.083,2.083,0,0,1-2.132-1.537c-.008-.058-.017-.117-.019-.178,0-.031,0-.061,0-.092v-4.693c0-.031,0-.061,0-.092,0-.061.011-.119.019-.178a2.083,2.083,0,0,1,2.132-1.537h88.99a2.445,2.445,0,0,1,.381.028,2.346,2.346,0,0,1,.395.094,2.143,2.143,0,0,1,1.009.675A1.6,1.6,0,0,1,1722.061,1573.383Z" transform="translate(-1628.762 -1571.575)" fill="#ffb93e"/>
            <path id="Path_29483" data-name="Path 29483" d="M1678.363,1579.883h-47.677a1.909,1.909,0,0,1-1.85-1.338,1.512,1.512,0,0,1-.052-.2c-.008-.058-.017-.117-.019-.178,0-.031,0-.061,0-.092v-4.693c0-.031,0-.061,0-.092,0-.061.011-.119.019-.178a1.507,1.507,0,0,1,.052-.2,1.909,1.909,0,0,1,1.85-1.338h41.822A14.551,14.551,0,0,0,1678.363,1579.883Z" transform="translate(-1628.762 -1571.575)" fill="#ffa412"/>
            <g id="Group_23710" data-name="Group 23710" transform="translate(32.698)">
              <rect id="Rectangle_2596" data-name="Rectangle 2596" width="1.011" height="8.308" transform="translate(48.76 0)" fill="#ffa412"/>
              <rect id="Rectangle_2597" data-name="Rectangle 2597" width="1.011" height="8.308" transform="translate(45.337 0)" fill="#ffa412"/>
              <rect id="Rectangle_2598" data-name="Rectangle 2598" width="1.011" height="8.308" transform="translate(41.231 0)" fill="#ffa412"/>
              <rect id="Rectangle_2599" data-name="Rectangle 2599" width="1.011" height="8.308" transform="translate(34.938 0)" fill="#ffa412"/>
              <rect id="Rectangle_2600" data-name="Rectangle 2600" width="1.012" height="8.308" transform="translate(28.283 0)" fill="#ffa412"/>
              <rect id="Rectangle_2601" data-name="Rectangle 2601" width="1.011" height="8.308" transform="translate(18.082 0)" fill="#ffa412"/>
              <rect id="Rectangle_2602" data-name="Rectangle 2602" width="1.011" height="8.308" transform="translate(8.529 0)" fill="#ffa412"/>
              <rect id="Rectangle_2603" data-name="Rectangle 2603" width="1.011" height="8.308" transform="translate(0 0)" fill="#ffa412"/>
              <rect id="Rectangle_2604" data-name="Rectangle 2604" width="1.011" height="8.308" transform="translate(52.019 0)" fill="#ffa412"/>
              <rect id="Rectangle_2605" data-name="Rectangle 2605" width="1.012" height="8.308" transform="translate(54.172 0)" fill="#ffa412"/>
              <rect id="Rectangle_2606" data-name="Rectangle 2606" width="1.011" height="8.308" transform="translate(56.251 0)" fill="#ffa412"/>
              <path id="Path_29484" data-name="Path 29484" d="M1884.783,1571.6v8.25a2.556,2.556,0,0,1-.38.029h-.632v-8.308h.632A2.589,2.589,0,0,1,1884.783,1571.6Z" transform="translate(-1825.955 -1571.574)" fill="#ffa412"/>
              <path id="Path_29485" data-name="Path 29485" d="M1888.74,1572.594v6.71a2.141,2.141,0,0,1-1.011.677v-8.064A2.143,2.143,0,0,1,1888.74,1572.594Z" transform="translate(-1828.509 -1571.796)" fill="#ffa412"/>
            </g>
          </g>
          <g id="Group_23713" data-name="Group 23713" transform="translate(0 74.07)">
            <path id="Path_29486" data-name="Path 29486" d="M1695.255,1549.975v4.69a1.613,1.613,0,0,1-.367,1.012,2.055,2.055,0,0,1-.2.214,2.226,2.226,0,0,1-.809.461,2.2,2.2,0,0,1-.394.092,2.432,2.432,0,0,1-.379.031h-88.993a2.085,2.085,0,0,1-2.13-1.541c-.008-.058-.016-.116-.019-.175,0-.031,0-.062,0-.095v-4.69c0-.031,0-.064,0-.094,0-.059.011-.117.019-.176a2.085,2.085,0,0,1,2.13-1.54H1693.1a1.691,1.691,0,0,1,.17.009.355.355,0,0,1,.061.005.007.007,0,0,1,.011,0,.415.415,0,0,1,.081.008l.056.008a2.383,2.383,0,0,1,.394.091c.075.025.147.053.217.084h0l.139.067.078.045a.567.567,0,0,1,.073.044,1.64,1.64,0,0,1,.262.192c.028.022.05.047.075.07a.566.566,0,0,1,.045.041.154.154,0,0,1,.022.025l.02.019a.858.858,0,0,1,.08.092A1.6,1.6,0,0,1,1695.255,1549.975Z" transform="translate(-1601.959 -1548.165)" fill="#ffb93e"/>
            <path id="Path_29487" data-name="Path 29487" d="M1651.556,1556.474H1603.88a1.907,1.907,0,0,1-1.847-1.342,1.479,1.479,0,0,1-.052-.2c-.008-.058-.016-.116-.019-.175,0-.031,0-.062,0-.095v-4.69c0-.031,0-.064,0-.094,0-.059.011-.117.019-.176a1.487,1.487,0,0,1,.052-.2,1.907,1.907,0,0,1,1.847-1.342H1645.7c.017.07.036.136.059.206A14.533,14.533,0,0,0,1651.556,1556.474Z" transform="translate(-1601.959 -1548.165)" fill="#ffa412"/>
            <g id="Group_23712" data-name="Group 23712" transform="translate(32.696 0.001)">
              <rect id="Rectangle_2607" data-name="Rectangle 2607" width="1.011" height="8.308" transform="translate(48.76 0)" fill="#ffa412"/>
              <rect id="Rectangle_2608" data-name="Rectangle 2608" width="1.011" height="8.308" transform="translate(45.337 0)" fill="#ffa412"/>
              <rect id="Rectangle_2609" data-name="Rectangle 2609" width="1.011" height="8.308" transform="translate(41.231 0)" fill="#ffa412"/>
              <rect id="Rectangle_2610" data-name="Rectangle 2610" width="1.011" height="8.308" transform="translate(34.939 0)" fill="#ffa412"/>
              <rect id="Rectangle_2611" data-name="Rectangle 2611" width="1.011" height="8.308" transform="translate(28.284 0)" fill="#ffa412"/>
              <rect id="Rectangle_2612" data-name="Rectangle 2612" width="1.011" height="8.308" transform="translate(18.082 0)" fill="#ffa412"/>
              <rect id="Rectangle_2613" data-name="Rectangle 2613" width="1.011" height="8.308" transform="translate(8.53 0)" fill="#ffa412"/>
              <rect id="Rectangle_2614" data-name="Rectangle 2614" width="1.011" height="8.308" transform="translate(0 0)" fill="#ffa412"/>
              <rect id="Rectangle_2615" data-name="Rectangle 2615" width="1.011" height="8.308" transform="translate(52.02 0)" fill="#ffa412"/>
              <rect id="Rectangle_2616" data-name="Rectangle 2616" width="1.011" height="8.308" transform="translate(54.173 0)" fill="#ffa412"/>
              <rect id="Rectangle_2617" data-name="Rectangle 2617" width="1.011" height="8.308" transform="translate(56.252 0)" fill="#ffa412"/>
              <path id="Path_29488" data-name="Path 29488" d="M1857.975,1548.2v8.25a2.513,2.513,0,0,1-.38.029h-.632v-8.308h.632A2.5,2.5,0,0,1,1857.975,1548.2Z" transform="translate(-1799.148 -1548.167)" fill="#ffa412"/>
              <path id="Path_29489" data-name="Path 29489" d="M1861.934,1549.188v6.71a2.139,2.139,0,0,1-1.01.677v-8.064A2.146,2.146,0,0,1,1861.934,1549.188Z" transform="translate(-1801.703 -1548.389)" fill="#ffa412"/>
            </g>
          </g>
          <g id="Group_23715" data-name="Group 23715" transform="translate(4.598 65.968)">
            <path id="Path_29490" data-name="Path 29490" d="M1708.21,1527.149v4.693a1.6,1.6,0,0,1-.37,1.009,2.129,2.129,0,0,1-1.009.675,2.539,2.539,0,0,1-.395.095,2.809,2.809,0,0,1-.378.027h-88.993a2.474,2.474,0,0,1-.992-.205,1.879,1.879,0,0,1-1.134-1.312c-.008-.039-.011-.078-.017-.117s-.005-.053-.005-.081,0-.061,0-.092v-4.693c0-.03,0-.061,0-.092a1.263,1.263,0,0,1,.02-.175,2.08,2.08,0,0,1,2.129-1.54h88.993a2.429,2.429,0,0,1,.378.028,2.3,2.3,0,0,1,.395.091,2.161,2.161,0,0,1,1.009.679A1.6,1.6,0,0,1,1708.21,1527.149Z" transform="translate(-1614.914 -1525.341)" fill="#ffb93e"/>
            <path id="Path_29491" data-name="Path 29491" d="M1664.511,1533.648h-47.676a1.991,1.991,0,0,1-.884-.205,1.824,1.824,0,0,1-1.012-1.312c-.008-.039-.011-.078-.017-.117s-.005-.053-.005-.081,0-.061,0-.092v-4.693c0-.03,0-.061,0-.092a1.263,1.263,0,0,1,.02-.175,1.634,1.634,0,0,1,.049-.194,1.9,1.9,0,0,1,1.849-1.346h41.822a14.582,14.582,0,0,0,5.563,8.1C1664.314,1533.513,1664.411,1533.582,1664.511,1533.648Z" transform="translate(-1614.914 -1525.341)" fill="#ffa412"/>
            <g id="Group_23714" data-name="Group 23714" transform="translate(32.696)">
              <rect id="Rectangle_2618" data-name="Rectangle 2618" width="1.011" height="8.308" transform="translate(48.76 0)" fill="#ffa412"/>
              <rect id="Rectangle_2619" data-name="Rectangle 2619" width="1.011" height="8.308" transform="translate(45.337 0)" fill="#ffa412"/>
              <rect id="Rectangle_2620" data-name="Rectangle 2620" width="1.011" height="8.308" transform="translate(41.231 0)" fill="#ffa412"/>
              <rect id="Rectangle_2621" data-name="Rectangle 2621" width="1.012" height="8.308" transform="translate(34.938 0)" fill="#ffa412"/>
              <rect id="Rectangle_2622" data-name="Rectangle 2622" width="1.011" height="8.308" transform="translate(28.283 0)" fill="#ffa412"/>
              <rect id="Rectangle_2623" data-name="Rectangle 2623" width="1.011" height="8.308" transform="translate(18.081 0)" fill="#ffa412"/>
              <rect id="Rectangle_2624" data-name="Rectangle 2624" width="1.011" height="8.308" transform="translate(8.529 0)" fill="#ffa412"/>
              <rect id="Rectangle_2625" data-name="Rectangle 2625" width="1.011" height="8.308" transform="translate(0 0)" fill="#ffa412"/>
              <rect id="Rectangle_2626" data-name="Rectangle 2626" width="1.011" height="8.308" transform="translate(52.019 0)" fill="#ffa412"/>
              <rect id="Rectangle_2627" data-name="Rectangle 2627" width="1.011" height="8.308" transform="translate(54.172 0)" fill="#ffa412"/>
              <rect id="Rectangle_2628" data-name="Rectangle 2628" width="1.011" height="8.308" transform="translate(56.251 0)" fill="#ffa412"/>
              <path id="Path_29492" data-name="Path 29492" d="M1870.93,1525.368v8.25a2.478,2.478,0,0,1-.38.029h-.632v-8.308h.632A2.463,2.463,0,0,1,1870.93,1525.368Z" transform="translate(-1812.103 -1525.339)" fill="#ffa412"/>
              <path id="Path_29493" data-name="Path 29493" d="M1874.889,1526.359v6.711a2.145,2.145,0,0,1-1.011.677v-8.064A2.147,2.147,0,0,1,1874.889,1526.359Z" transform="translate(-1814.657 -1525.56)" fill="#ffa412"/>
            </g>
          </g>
          <g id="Group_23717" data-name="Group 23717" transform="translate(6.731 57.66)">
            <path id="Path_29494" data-name="Path 29494" d="M1714.218,1503.742v4.69a1.594,1.594,0,0,1-.37,1.009c-.03.038-.064.075-.1.111a2.087,2.087,0,0,1-.614.448,2.667,2.667,0,0,1-.3.12,2.321,2.321,0,0,1-.4.092c-.06.008-.122.017-.186.022s-.131.009-.195.009h-88.99a2.085,2.085,0,0,1-2.132-1.54,1.648,1.648,0,0,1-.019-.175v-4.879a1.985,1.985,0,0,1,1.9-1.7c.083-.008.17-.013.256-.013h88.99c.064,0,.13,0,.195.008a1.84,1.84,0,0,1,.186.022,2.355,2.355,0,0,1,.4.091,2.148,2.148,0,0,1,1.009.676A1.6,1.6,0,0,1,1714.218,1503.742Z" transform="translate(-1620.922 -1501.932)" fill="#ffb93e"/>
            <path id="Path_29495" data-name="Path 29495" d="M1670.519,1510.241h-47.677a1.911,1.911,0,0,1-1.85-1.341,1.6,1.6,0,0,1-.052-.2,1.648,1.648,0,0,1-.019-.175v-4.879a1.869,1.869,0,0,1,1.693-1.7,2.123,2.123,0,0,1,.228-.013h41.822c0,.005,0,.008,0,.013A14.574,14.574,0,0,0,1670.519,1510.241Z" transform="translate(-1620.922 -1501.932)" fill="#ffa412"/>
            <g id="Group_23716" data-name="Group 23716" transform="translate(32.695)">
              <rect id="Rectangle_2629" data-name="Rectangle 2629" width="1.011" height="8.308" transform="translate(48.761 0)" fill="#ffa412"/>
              <rect id="Rectangle_2630" data-name="Rectangle 2630" width="1.011" height="8.308" transform="translate(45.337 0)" fill="#ffa412"/>
              <rect id="Rectangle_2631" data-name="Rectangle 2631" width="1.011" height="8.308" transform="translate(41.231 0)" fill="#ffa412"/>
              <rect id="Rectangle_2632" data-name="Rectangle 2632" width="1.011" height="8.308" transform="translate(34.938 0)" fill="#ffa412"/>
              <rect id="Rectangle_2633" data-name="Rectangle 2633" width="1.011" height="8.308" transform="translate(28.284 0)" fill="#ffa412"/>
              <rect id="Rectangle_2634" data-name="Rectangle 2634" width="1.011" height="8.308" transform="translate(18.082 0)" fill="#ffa412"/>
              <rect id="Rectangle_2635" data-name="Rectangle 2635" width="1.012" height="8.308" transform="translate(8.529 0)" fill="#ffa412"/>
              <rect id="Rectangle_2636" data-name="Rectangle 2636" width="1.012" height="8.308" transform="translate(0 0)" fill="#ffa412"/>
              <rect id="Rectangle_2637" data-name="Rectangle 2637" width="1.011" height="8.308" transform="translate(52.019 0)" fill="#ffa412"/>
              <rect id="Rectangle_2638" data-name="Rectangle 2638" width="1.011" height="8.308" transform="translate(54.173 0)" fill="#ffa412"/>
              <rect id="Rectangle_2639" data-name="Rectangle 2639" width="1.011" height="8.308" transform="translate(56.252 0)" fill="#ffa412"/>
              <path id="Path_29496" data-name="Path 29496" d="M1876.935,1501.961v8.25a2.463,2.463,0,0,1-.379.029h-.632v-8.307h.632A2.418,2.418,0,0,1,1876.935,1501.961Z" transform="translate(-1818.108 -1501.932)" fill="#ffa412"/>
              <path id="Path_29497" data-name="Path 29497" d="M1880.9,1502.951v6.71a2.144,2.144,0,0,1-1.01.677v-8.064A2.142,2.142,0,0,1,1880.9,1502.951Z" transform="translate(-1820.663 -1502.153)" fill="#ffa412"/>
            </g>
          </g>
          <g id="Group_23719" data-name="Group 23719" transform="translate(0.186 49.365)">
            <path id="Path_29498" data-name="Path 29498" d="M1695.78,1480.37v4.689a1.592,1.592,0,0,1-.367,1.009,2.125,2.125,0,0,1-1.012.678,2.27,2.27,0,0,1-.392.091.965.965,0,0,1-.125.017h-.017a.559.559,0,0,1-.067.005l-.058.005-.114,0h-88.99a2.034,2.034,0,0,1-2.152-1.715c0-.031,0-.061,0-.095v-4.689c0-.031,0-.064,0-.095s0-.05.005-.075a1.949,1.949,0,0,1,1.615-1.582.457.457,0,0,1,.064-.014,2.576,2.576,0,0,1,.467-.044h88.99c.066,0,.128,0,.192.009l.08.008h.009c.033,0,.066.009.1.014a2.259,2.259,0,0,1,.392.091,2.129,2.129,0,0,1,1.012.678A1.594,1.594,0,0,1,1695.78,1480.37Z" transform="translate(-1602.483 -1478.56)" fill="#ffb93e"/>
            <path id="Path_29499" data-name="Path 29499" d="M1652.081,1486.869h-47.674a1.882,1.882,0,0,1-1.921-1.715c0-.031,0-.061,0-.095v-4.689c0-.031,0-.064,0-.095s0-.05.005-.075a1.855,1.855,0,0,1,1.494-1.593.364.364,0,0,1,.08-.016,1.963,1.963,0,0,1,.342-.031h41.82c.005.022.011.039.016.061a14.56,14.56,0,0,0,5.819,8.235C1652.067,1486.861,1652.075,1486.864,1652.081,1486.869Z" transform="translate(-1602.483 -1478.56)" fill="#ffa412"/>
            <g id="Group_23718" data-name="Group 23718" transform="translate(32.697 0.001)">
              <rect id="Rectangle_2640" data-name="Rectangle 2640" width="1.011" height="8.308" transform="translate(48.76 0)" fill="#ffa412"/>
              <rect id="Rectangle_2641" data-name="Rectangle 2641" width="1.011" height="8.308" transform="translate(45.337 0)" fill="#ffa412"/>
              <rect id="Rectangle_2642" data-name="Rectangle 2642" width="1.011" height="8.308" transform="translate(41.231 0)" fill="#ffa412"/>
              <rect id="Rectangle_2643" data-name="Rectangle 2643" width="1.011" height="8.308" transform="translate(34.938 0)" fill="#ffa412"/>
              <rect id="Rectangle_2644" data-name="Rectangle 2644" width="1.012" height="8.308" transform="translate(28.283 0)" fill="#ffa412"/>
              <rect id="Rectangle_2645" data-name="Rectangle 2645" width="1.011" height="8.308" transform="translate(18.082 0)" fill="#ffa412"/>
              <rect id="Rectangle_2646" data-name="Rectangle 2646" width="1.011" height="8.308" transform="translate(8.529 0)" fill="#ffa412"/>
              <rect id="Rectangle_2647" data-name="Rectangle 2647" width="1.011" height="8.308" transform="translate(0 0)" fill="#ffa412"/>
              <rect id="Rectangle_2648" data-name="Rectangle 2648" width="1.011" height="8.308" transform="translate(52.02 0)" fill="#ffa412"/>
              <rect id="Rectangle_2649" data-name="Rectangle 2649" width="1.012" height="8.308" transform="translate(54.172 0)" fill="#ffa412"/>
              <rect id="Rectangle_2650" data-name="Rectangle 2650" width="1.011" height="8.308" transform="translate(56.251 0)" fill="#ffa412"/>
              <path id="Path_29500" data-name="Path 29500" d="M1858.5,1478.592v8.25a2.519,2.519,0,0,1-.379.029h-.632v-8.308h.632A2.457,2.457,0,0,1,1858.5,1478.592Z" transform="translate(-1799.676 -1478.563)" fill="#ffa412"/>
              <path id="Path_29501" data-name="Path 29501" d="M1862.461,1479.582v6.711a2.143,2.143,0,0,1-1.01.677v-8.064A2.149,2.149,0,0,1,1862.461,1479.582Z" transform="translate(-1802.23 -1478.784)" fill="#ffa412"/>
            </g>
          </g>
          <g id="Group_23721" data-name="Group 23721" transform="translate(0 41.116)">
            <path id="Path_29502" data-name="Path 29502" d="M1695.255,1457.131v4.69a1.607,1.607,0,0,1-.367,1.009,2.388,2.388,0,0,1-.2.217,2.228,2.228,0,0,1-.809.461,2.314,2.314,0,0,1-.306.078h-.008c-.028.005-.053.011-.08.014a2.493,2.493,0,0,1-.379.031h-88.993a2.233,2.233,0,0,1-.278-.017.971.971,0,0,1-.106-.014,2,2,0,0,1-1.749-1.529,1.476,1.476,0,0,1-.017-.156c0-.033,0-.064,0-.094v-4.69c0-.033,0-.064,0-.094,0-.058.011-.117.019-.175a2.085,2.085,0,0,1,2.13-1.54H1693.1c.055,0,.114,0,.17.006l.022,0a.279.279,0,0,0,.05,0c.025,0,.053.006.081.011a.2.2,0,0,1,.056.008,2.288,2.288,0,0,1,.394.091c.075.025.147.053.217.083h0a2.183,2.183,0,0,1,.712.5c.028.031.055.061.08.092A1.613,1.613,0,0,1,1695.255,1457.131Z" transform="translate(-1601.959 -1455.321)" fill="#ffb93e"/>
            <path id="Path_29503" data-name="Path 29503" d="M1651.556,1463.631H1603.88l-.111,0c-.042,0-.083-.009-.122-.011a1.88,1.88,0,0,1-1.668-1.545,1.476,1.476,0,0,1-.017-.156c0-.033,0-.064,0-.094v-4.69c0-.033,0-.064,0-.094,0-.058.011-.117.019-.175a1.477,1.477,0,0,1,.052-.2,1.907,1.907,0,0,1,1.847-1.342H1645.7c.017.07.036.137.059.206a14.536,14.536,0,0,0,5.71,8.043C1651.5,1463.592,1651.529,1463.609,1651.556,1463.631Z" transform="translate(-1601.959 -1455.321)" fill="#ffa412"/>
            <g id="Group_23720" data-name="Group 23720" transform="translate(32.696 0.001)">
              <rect id="Rectangle_2651" data-name="Rectangle 2651" width="1.011" height="8.308" transform="translate(48.76 0)" fill="#ffa412"/>
              <rect id="Rectangle_2652" data-name="Rectangle 2652" width="1.011" height="8.308" transform="translate(45.337 0)" fill="#ffa412"/>
              <rect id="Rectangle_2653" data-name="Rectangle 2653" width="1.011" height="8.308" transform="translate(41.231 0)" fill="#ffa412"/>
              <rect id="Rectangle_2654" data-name="Rectangle 2654" width="1.011" height="8.308" transform="translate(34.939 0)" fill="#ffa412"/>
              <rect id="Rectangle_2655" data-name="Rectangle 2655" width="1.011" height="8.308" transform="translate(28.284 0)" fill="#ffa412"/>
              <rect id="Rectangle_2656" data-name="Rectangle 2656" width="1.011" height="8.308" transform="translate(18.082 0)" fill="#ffa412"/>
              <rect id="Rectangle_2657" data-name="Rectangle 2657" width="1.011" height="8.308" transform="translate(8.53 0)" fill="#ffa412"/>
              <rect id="Rectangle_2658" data-name="Rectangle 2658" width="1.011" height="8.308" transform="translate(0 0)" fill="#ffa412"/>
              <rect id="Rectangle_2659" data-name="Rectangle 2659" width="1.011" height="8.308" transform="translate(52.02 0)" fill="#ffa412"/>
              <rect id="Rectangle_2660" data-name="Rectangle 2660" width="1.011" height="8.308" transform="translate(54.173 0)" fill="#ffa412"/>
              <rect id="Rectangle_2661" data-name="Rectangle 2661" width="1.011" height="8.308" transform="translate(56.252 0)" fill="#ffa412"/>
              <path id="Path_29504" data-name="Path 29504" d="M1857.975,1455.352v8.25a2.482,2.482,0,0,1-.38.029h-.632v-8.308h.632A2.562,2.562,0,0,1,1857.975,1455.352Z" transform="translate(-1799.148 -1455.323)" fill="#ffa412"/>
              <path id="Path_29505" data-name="Path 29505" d="M1861.934,1456.343v6.71a2.144,2.144,0,0,1-1.01.677v-8.064A2.146,2.146,0,0,1,1861.934,1456.343Z" transform="translate(-1801.703 -1455.544)" fill="#ffa412"/>
            </g>
          </g>
          <g id="Group_23723" data-name="Group 23723" transform="translate(4.598 33.012)">
            <path id="Path_29506" data-name="Path 29506" d="M1708.21,1434.3v4.69a1.6,1.6,0,0,1-.37,1.012,2.135,2.135,0,0,1-1.009.676,2.262,2.262,0,0,1-.395.091,2.443,2.443,0,0,1-.378.03h-88.993a2.468,2.468,0,0,1-.992-.205,1.879,1.879,0,0,1-1.134-1.312c-.008-.039-.011-.078-.017-.117s-.005-.053-.005-.08,0-.061,0-.094v-4.69c0-.03,0-.064,0-.094a1.308,1.308,0,0,1,.02-.175,2.084,2.084,0,0,1,2.129-1.54h88.993a2.428,2.428,0,0,1,.378.031,2.263,2.263,0,0,1,.395.092,2.12,2.12,0,0,1,1.009.678A1.593,1.593,0,0,1,1708.21,1434.3Z" transform="translate(-1614.914 -1432.49)" fill="#ffb93e"/>
            <path id="Path_29507" data-name="Path 29507" d="M1664.511,1440.8h-47.676a1.986,1.986,0,0,1-.884-.205,1.824,1.824,0,0,1-1.012-1.312c-.008-.039-.011-.078-.017-.117s-.005-.053-.005-.08,0-.061,0-.094v-4.69c0-.03,0-.064,0-.094a1.308,1.308,0,0,1,.02-.175,1.6,1.6,0,0,1,.049-.193,1.906,1.906,0,0,1,1.849-1.347h41.822a14.577,14.577,0,0,0,5.563,8.1C1664.314,1440.664,1664.411,1440.73,1664.511,1440.8Z" transform="translate(-1614.914 -1432.49)" fill="#ffa412"/>
            <g id="Group_23722" data-name="Group 23722" transform="translate(32.696 0.001)">
              <rect id="Rectangle_2662" data-name="Rectangle 2662" width="1.011" height="8.308" transform="translate(48.76 0)" fill="#ffa412"/>
              <rect id="Rectangle_2663" data-name="Rectangle 2663" width="1.011" height="8.308" transform="translate(45.337 0)" fill="#ffa412"/>
              <rect id="Rectangle_2664" data-name="Rectangle 2664" width="1.011" height="8.308" transform="translate(41.231 0)" fill="#ffa412"/>
              <rect id="Rectangle_2665" data-name="Rectangle 2665" width="1.012" height="8.308" transform="translate(34.938 0)" fill="#ffa412"/>
              <rect id="Rectangle_2666" data-name="Rectangle 2666" width="1.011" height="8.308" transform="translate(28.283 0)" fill="#ffa412"/>
              <rect id="Rectangle_2667" data-name="Rectangle 2667" width="1.011" height="8.308" transform="translate(18.081 0)" fill="#ffa412"/>
              <rect id="Rectangle_2668" data-name="Rectangle 2668" width="1.011" height="8.308" transform="translate(8.529 0)" fill="#ffa412"/>
              <rect id="Rectangle_2669" data-name="Rectangle 2669" width="1.011" height="8.308" transform="translate(0 0)" fill="#ffa412"/>
              <rect id="Rectangle_2670" data-name="Rectangle 2670" width="1.011" height="8.308" transform="translate(52.019 0)" fill="#ffa412"/>
              <rect id="Rectangle_2671" data-name="Rectangle 2671" width="1.011" height="8.308" transform="translate(54.172 0)" fill="#ffa412"/>
              <rect id="Rectangle_2672" data-name="Rectangle 2672" width="1.011" height="8.308" transform="translate(56.251 0)" fill="#ffa412"/>
              <path id="Path_29508" data-name="Path 29508" d="M1870.93,1432.523v8.25a2.51,2.51,0,0,1-.38.029h-.632v-8.308h.632A2.478,2.478,0,0,1,1870.93,1432.523Z" transform="translate(-1812.103 -1432.494)" fill="#ffa412"/>
              <path id="Path_29509" data-name="Path 29509" d="M1874.889,1433.515v6.711a2.146,2.146,0,0,1-1.011.677v-8.064A2.148,2.148,0,0,1,1874.889,1433.515Z" transform="translate(-1814.657 -1432.716)" fill="#ffa412"/>
            </g>
          </g>
          <g id="Group_23725" data-name="Group 23725" transform="translate(11.87 24.706)">
            <path id="Path_29510" data-name="Path 29510" d="M1728.7,1410.9v4.692a1.609,1.609,0,0,1-.367,1.007l0,0c-.031.039-.064.075-.1.112a2.018,2.018,0,0,1-.475.372,2.207,2.207,0,0,1-.283.136,0,0,0,0,0,0,0c-.047.019-.1.038-.15.056a2.242,2.242,0,0,1-.395.091,2.4,2.4,0,0,1-.378.028h-88.993a2.082,2.082,0,0,1-2.13-1.537,1.284,1.284,0,0,1-.02-.178c0-.031,0-.061,0-.092V1410.9c0-.031,0-.061,0-.092a1.983,1.983,0,0,1,1.9-1.7,1.927,1.927,0,0,1,.253-.014h88.993a2.85,2.85,0,0,1,.378.028,2.541,2.541,0,0,1,.395.095,2.182,2.182,0,0,1,.911.564c.034.036.067.073.1.111l0,0A1.606,1.606,0,0,1,1728.7,1410.9Z" transform="translate(-1635.402 -1409.087)" fill="#ffb93e"/>
            <path id="Path_29511" data-name="Path 29511" d="M1685,1417.394h-47.677a1.9,1.9,0,0,1-1.849-1.344,1.677,1.677,0,0,1-.049-.192,1.284,1.284,0,0,1-.02-.178c0-.031,0-.061,0-.092V1410.9c0-.031,0-.061,0-.092a1.866,1.866,0,0,1,1.691-1.7,1.566,1.566,0,0,1,.228-.014h41.822a.115.115,0,0,1,0,.014A14.552,14.552,0,0,0,1685,1417.394Z" transform="translate(-1635.402 -1409.087)" fill="#ffa412"/>
            <g id="Group_23724" data-name="Group 23724" transform="translate(32.697)">
              <rect id="Rectangle_2673" data-name="Rectangle 2673" width="1.011" height="8.308" transform="translate(48.76 0)" fill="#ffa412"/>
              <rect id="Rectangle_2674" data-name="Rectangle 2674" width="1.011" height="8.308" transform="translate(45.337 0)" fill="#ffa412"/>
              <rect id="Rectangle_2675" data-name="Rectangle 2675" width="1.011" height="8.308" transform="translate(41.231 0)" fill="#ffa412"/>
              <rect id="Rectangle_2676" data-name="Rectangle 2676" width="1.011" height="8.308" transform="translate(34.938 0)" fill="#ffa412"/>
              <rect id="Rectangle_2677" data-name="Rectangle 2677" width="1.011" height="8.308" transform="translate(28.283 0)" fill="#ffa412"/>
              <rect id="Rectangle_2678" data-name="Rectangle 2678" width="1.011" height="8.308" transform="translate(18.081 0)" fill="#ffa412"/>
              <rect id="Rectangle_2679" data-name="Rectangle 2679" width="1.011" height="8.308" transform="translate(8.529 0)" fill="#ffa412"/>
              <rect id="Rectangle_2680" data-name="Rectangle 2680" width="1.011" height="8.308" transform="translate(0 0)" fill="#ffa412"/>
              <rect id="Rectangle_2681" data-name="Rectangle 2681" width="1.011" height="8.308" transform="translate(52.019 0)" fill="#ffa412"/>
              <rect id="Rectangle_2682" data-name="Rectangle 2682" width="1.011" height="8.308" transform="translate(54.172 0)" fill="#ffa412"/>
              <rect id="Rectangle_2683" data-name="Rectangle 2683" width="1.011" height="8.308" transform="translate(56.251 0)" fill="#ffa412"/>
              <path id="Path_29512" data-name="Path 29512" d="M1891.42,1409.116v8.25a2.548,2.548,0,0,1-.379.029h-.632v-8.308h.632A2.409,2.409,0,0,1,1891.42,1409.116Z" transform="translate(-1832.593 -1409.087)" fill="#ffa412"/>
              <path id="Path_29513" data-name="Path 29513" d="M1895.378,1410.108v6.71a2.139,2.139,0,0,1-1.01.676v-8.064A2.145,2.145,0,0,1,1895.378,1410.108Z" transform="translate(-1835.147 -1409.309)" fill="#ffa412"/>
            </g>
          </g>
          <g id="Group_23727" data-name="Group 23727" transform="translate(0.186 16.411)">
            <path id="Path_29514" data-name="Path 29514" d="M1695.78,1387.526v4.69a1.592,1.592,0,0,1-.367,1.01,2.124,2.124,0,0,1-1.012.678,2.306,2.306,0,0,1-.392.092l-.125.016h-.017c-.028.005-.056.005-.083.008s-.033,0-.05,0l-.105,0h-88.99a2.261,2.261,0,0,1-1.832-.862,1.6,1.6,0,0,1-.32-.853c0-.034,0-.064,0-.095v-4.69a.936.936,0,0,1,0-.094,1.909,1.909,0,0,1,1.527-1.635,2.418,2.418,0,0,1,.625-.08h88.99l.114,0a.355.355,0,0,1,.056.005,1.831,1.831,0,0,1,.211.022,2.328,2.328,0,0,1,.392.091,1.268,1.268,0,0,1,.184.07h0a2.1,2.1,0,0,1,.622.392.038.038,0,0,1,.009.012c.008.008.017.013.025.022a1.744,1.744,0,0,1,.17.181A1.6,1.6,0,0,1,1695.78,1387.526Z" transform="translate(-1602.483 -1385.717)" fill="#ffb93e"/>
            <path id="Path_29515" data-name="Path 29515" d="M1652.081,1394.026h-47.674a1.955,1.955,0,0,1-1.607-.82,1.7,1.7,0,0,1-.314-.895c0-.034,0-.064,0-.095v-4.69a.936.936,0,0,1,0-.094,1.855,1.855,0,0,1,1.532-1.677,2,2,0,0,1,.389-.039h41.82c.016.064.036.128.055.191a14.528,14.528,0,0,0,5.78,8.1A.072.072,0,0,1,1652.081,1394.026Z" transform="translate(-1602.483 -1385.717)" fill="#ffa412"/>
            <g id="Group_23726" data-name="Group 23726" transform="translate(32.697 0)">
              <rect id="Rectangle_2684" data-name="Rectangle 2684" width="1.011" height="8.308" transform="translate(48.76 0)" fill="#ffa412"/>
              <rect id="Rectangle_2685" data-name="Rectangle 2685" width="1.011" height="8.308" transform="translate(45.337 0)" fill="#ffa412"/>
              <rect id="Rectangle_2686" data-name="Rectangle 2686" width="1.011" height="8.308" transform="translate(41.231 0)" fill="#ffa412"/>
              <rect id="Rectangle_2687" data-name="Rectangle 2687" width="1.011" height="8.308" transform="translate(34.938 0)" fill="#ffa412"/>
              <rect id="Rectangle_2688" data-name="Rectangle 2688" width="1.012" height="8.308" transform="translate(28.283 0)" fill="#ffa412"/>
              <rect id="Rectangle_2689" data-name="Rectangle 2689" width="1.011" height="8.308" transform="translate(18.082 0)" fill="#ffa412"/>
              <rect id="Rectangle_2690" data-name="Rectangle 2690" width="1.011" height="8.308" transform="translate(8.529 0)" fill="#ffa412"/>
              <rect id="Rectangle_2691" data-name="Rectangle 2691" width="1.011" height="8.308" transform="translate(0 0)" fill="#ffa412"/>
              <rect id="Rectangle_2692" data-name="Rectangle 2692" width="1.011" height="8.308" transform="translate(52.02 0)" fill="#ffa412"/>
              <rect id="Rectangle_2693" data-name="Rectangle 2693" width="1.012" height="8.308" transform="translate(54.172 0)" fill="#ffa412"/>
              <rect id="Rectangle_2694" data-name="Rectangle 2694" width="1.011" height="8.308" transform="translate(56.251 0)" fill="#ffa412"/>
              <path id="Path_29516" data-name="Path 29516" d="M1858.5,1385.747V1394a2.488,2.488,0,0,1-.379.029h-.632v-8.308h.632A2.427,2.427,0,0,1,1858.5,1385.747Z" transform="translate(-1799.676 -1385.718)" fill="#ffa412"/>
              <path id="Path_29517" data-name="Path 29517" d="M1862.461,1386.737v6.71a2.143,2.143,0,0,1-1.01.677v-8.064A2.149,2.149,0,0,1,1862.461,1386.737Z" transform="translate(-1802.23 -1385.939)" fill="#ffa412"/>
            </g>
          </g>
          <g id="Group_23729" data-name="Group 23729" transform="translate(6.729 8.295)">
            <path id="Path_29518" data-name="Path 29518" d="M1714.215,1364.661v4.692a1.6,1.6,0,0,1-.369,1.01,2.143,2.143,0,0,1-1.01.676,2.339,2.339,0,0,1-.394.093,2.523,2.523,0,0,1-.38.029h-88.991a2.461,2.461,0,0,1-.962-.192,1.851,1.851,0,0,1-1.183-1.449c0-.024,0-.049-.006-.074s0-.062,0-.093v-4.692c0-.031,0-.062,0-.093a1.984,1.984,0,0,1,1.9-1.7,2.345,2.345,0,0,1,.254-.013h88.991a2.446,2.446,0,0,1,.38.029,2.315,2.315,0,0,1,.394.093,2.138,2.138,0,0,1,1.01.677A1.594,1.594,0,0,1,1714.215,1364.661Z" transform="translate(-1620.918 -1362.853)" fill="#ffb93e"/>
            <path id="Path_29519" data-name="Path 29519" d="M1670.516,1371.161H1622.84a1.99,1.99,0,0,1-.858-.192,1.82,1.82,0,0,1-1.056-1.449c0-.024,0-.049-.006-.074s0-.062,0-.093v-4.692c0-.031,0-.062,0-.093a1.925,1.925,0,0,1,1.92-1.715h41.821l0,.013a14.575,14.575,0,0,0,5.578,8.1C1670.332,1371.034,1670.424,1371.1,1670.516,1371.161Z" transform="translate(-1620.918 -1362.853)" fill="#ffa412"/>
            <g id="Group_23728" data-name="Group 23728" transform="translate(32.697)">
              <rect id="Rectangle_2695" data-name="Rectangle 2695" width="1.011" height="8.308" transform="translate(48.761 0)" fill="#ffa412"/>
              <rect id="Rectangle_2696" data-name="Rectangle 2696" width="1.011" height="8.308" transform="translate(45.337 0)" fill="#ffa412"/>
              <rect id="Rectangle_2697" data-name="Rectangle 2697" width="1.011" height="8.308" transform="translate(41.231 0)" fill="#ffa412"/>
              <rect id="Rectangle_2698" data-name="Rectangle 2698" width="1.011" height="8.308" transform="translate(34.938 0)" fill="#ffa412"/>
              <rect id="Rectangle_2699" data-name="Rectangle 2699" width="1.011" height="8.308" transform="translate(28.284 0)" fill="#ffa412"/>
              <rect id="Rectangle_2700" data-name="Rectangle 2700" width="1.011" height="8.308" transform="translate(18.082 0)" fill="#ffa412"/>
              <rect id="Rectangle_2701" data-name="Rectangle 2701" width="1.012" height="8.308" transform="translate(8.529 0)" fill="#ffa412"/>
              <rect id="Rectangle_2702" data-name="Rectangle 2702" width="1.012" height="8.308" transform="translate(0 0)" fill="#ffa412"/>
              <rect id="Rectangle_2703" data-name="Rectangle 2703" width="1.011" height="8.308" transform="translate(52.019 0)" fill="#ffa412"/>
              <rect id="Rectangle_2704" data-name="Rectangle 2704" width="1.011" height="8.308" transform="translate(54.173 0)" fill="#ffa412"/>
              <rect id="Rectangle_2705" data-name="Rectangle 2705" width="1.011" height="8.308" transform="translate(56.252 0)" fill="#ffa412"/>
              <path id="Path_29520" data-name="Path 29520" d="M1876.935,1362.881v8.25a2.51,2.51,0,0,1-.379.029h-.632v-8.308h.632A2.448,2.448,0,0,1,1876.935,1362.881Z" transform="translate(-1818.108 -1362.852)" fill="#ffa412"/>
              <path id="Path_29521" data-name="Path 29521" d="M1880.9,1363.871v6.711a2.143,2.143,0,0,1-1.01.677v-8.064A2.145,2.145,0,0,1,1880.9,1363.871Z" transform="translate(-1820.663 -1363.073)" fill="#ffa412"/>
            </g>
          </g>
          <g id="Group_23731" data-name="Group 23731" transform="translate(9.515)">
            <path id="Path_29522" data-name="Path 29522" d="M1722.062,1341.29v4.692a1.6,1.6,0,0,1-.369,1.01,2.137,2.137,0,0,1-1.011.677,2.278,2.278,0,0,1-.394.093c-.042.006-.083.012-.125.016l-.07.006-.07,0c-.038,0-.076,0-.114,0h-88.991a2.033,2.033,0,0,1-2.15-1.715c0-.031,0-.062,0-.093v-4.692c0-.031,0-.062,0-.093a2.033,2.033,0,0,1,2.15-1.715h88.991a2.476,2.476,0,0,1,.38.029,2.322,2.322,0,0,1,.394.093,2.144,2.144,0,0,1,1.011.677A1.6,1.6,0,0,1,1722.062,1341.29Z" transform="translate(-1628.765 -1339.482)" fill="#ffb93e"/>
            <path id="Path_29523" data-name="Path 29523" d="M1678.363,1347.79h-47.676a1.882,1.882,0,0,1-1.919-1.715c0-.031,0-.062,0-.093v-4.692c0-.031,0-.062,0-.093a1.882,1.882,0,0,1,1.919-1.715h41.821a14.566,14.566,0,0,0,5.836,8.3Z" transform="translate(-1628.765 -1339.482)" fill="#ffa412"/>
            <g id="Group_23730" data-name="Group 23730" transform="translate(32.697)">
              <rect id="Rectangle_2706" data-name="Rectangle 2706" width="1.011" height="8.308" transform="translate(48.76 0)" fill="#ffa412"/>
              <rect id="Rectangle_2707" data-name="Rectangle 2707" width="1.011" height="8.308" transform="translate(45.337 0)" fill="#ffa412"/>
              <rect id="Rectangle_2708" data-name="Rectangle 2708" width="1.011" height="8.308" transform="translate(41.231 0)" fill="#ffa412"/>
              <rect id="Rectangle_2709" data-name="Rectangle 2709" width="1.011" height="8.308" transform="translate(34.938 0)" fill="#ffa412"/>
              <rect id="Rectangle_2710" data-name="Rectangle 2710" width="1.011" height="8.308" transform="translate(28.283 0)" fill="#ffa412"/>
              <rect id="Rectangle_2711" data-name="Rectangle 2711" width="1.011" height="8.308" transform="translate(18.082 0)" fill="#ffa412"/>
              <rect id="Rectangle_2712" data-name="Rectangle 2712" width="1.011" height="8.308" transform="translate(8.529 0)" fill="#ffa412"/>
              <rect id="Rectangle_2713" data-name="Rectangle 2713" width="1.011" height="8.308" transform="translate(0 0)" fill="#ffa412"/>
              <rect id="Rectangle_2714" data-name="Rectangle 2714" width="1.011" height="8.308" transform="translate(52.019 0)" fill="#ffa412"/>
              <rect id="Rectangle_2715" data-name="Rectangle 2715" width="1.011" height="8.308" transform="translate(54.172 0)" fill="#ffa412"/>
              <rect id="Rectangle_2716" data-name="Rectangle 2716" width="1.011" height="8.308" transform="translate(56.251 0)" fill="#ffa412"/>
              <path id="Path_29524" data-name="Path 29524" d="M1884.783,1339.511v8.25a2.5,2.5,0,0,1-.38.029h-.631v-8.308h.631A2.473,2.473,0,0,1,1884.783,1339.511Z" transform="translate(-1825.957 -1339.482)" fill="#ffa412"/>
              <path id="Path_29525" data-name="Path 29525" d="M1888.741,1340.5v6.711a2.148,2.148,0,0,1-1.011.677v-8.065A2.146,2.146,0,0,1,1888.741,1340.5Z" transform="translate(-1828.509 -1339.703)" fill="#ffa412"/>
            </g>
          </g>
        </g>
        <g id="Group_23733" data-name="Group 23733" transform="translate(13.667)">
          <path id="Path_29526" data-name="Path 29526" d="M1772.239,1189.906s-4.674,6.58-8.96,6.672-10.8-3.05-10.8-3.05-3.934-8.769-1.266-12.2a5.729,5.729,0,0,1,5.475.9,8.41,8.41,0,0,1,1.448,1.388,4.6,4.6,0,0,0,2.249,1.525c3.058.93,6.687-1.258,8.045.854a14.34,14.34,0,0,0,2.364,2.8A10.838,10.838,0,0,0,1772.239,1189.906Z" transform="translate(-1711.302 -1180.997)" fill="#ffeddc"/>
          <path id="Path_29527" data-name="Path 29527" d="M1640.463,1265.689s16.521-40.031,46.259-40.794c0,0,27.45,3.05,28.975,40.794Z" transform="translate(-1640.463 -1209.314)" fill="#ffeddc"/>
          <path id="Path_29528" data-name="Path 29528" d="M1747.732,1218.922s11.92,2.651,15.6,1.093c0,0,.556-4.984-4.464-4.285-3.436.478-5.673-1.173-6.99-1.843C1750.013,1212.939,1747.237,1216.838,1747.732,1218.922Z" transform="translate(-1709.621 -1202.119)" fill="#db6a1d"/>
          <path id="Path_29529" data-name="Path 29529" d="M1771.423,1192.524c-.763.572-3.1-8.06-3.1-8.06a8.4,8.4,0,0,1,1.448,1.388,4.6,4.6,0,0,0,2.249,1.525C1772.026,1187.628,1772.163,1191.967,1771.423,1192.524Z" transform="translate(-1722.938 -1183.233)" fill="#e5c1a1"/>
          <path id="Path_29530" data-name="Path 29530" d="M1796.232,1197.875c-.168.1-5.681,3.4-6.428,3.4s4.064-6.2,4.064-6.2A14.344,14.344,0,0,0,1796.232,1197.875Z" transform="translate(-1736.744 -1190.079)" fill="#e5c1a1"/>
          <path id="Path_29531" data-name="Path 29531" d="M1685.925,1275.978c-.306-.261,11.692-17.665,15-17.792s10.728,3.813,16.1,4.321,10.585-1.017,11.6,2.161,3.813,14.441,2.1,16.244S1692.522,1281.614,1685.925,1275.978Z" transform="translate(-1669.785 -1230.787)" fill="#f9ddbf"/>
        </g>
      </g>
      <path id="Path_29532" data-name="Path 29532" d="M1643.064,1399.639c0,.022,0,.042-.006.061a39.76,39.76,0,0,1-1.334,8.234.127.127,0,0,0,0,.013c-.106.39-.217.779-.336,1.165a40.722,40.722,0,0,1-2.933,7.131,41.312,41.312,0,0,1-5.591,8.1c-.058.07-.12.139-.181.206a42.849,42.849,0,0,1-9.777,8.1q-1.185.721-2.43,1.376c-.561.295-1.126.573-1.693.843-.542.314-1.115.584-1.654.914a23.118,23.118,0,0,1-5.654,2.327v-3.653c0-.03,0-.061,0-.091,0-.061.011-.12.019-.178a1.591,1.591,0,0,1,.052-.2,1.909,1.909,0,0,1,1.85-1.338h-9.516a1.907,1.907,0,0,1-1.847-1.342,1.492,1.492,0,0,1-.052-.2c-.008-.058-.016-.117-.019-.175,0-.031,0-.062,0-.094v-4.69c0-.031,0-.064,0-.095,0-.059.011-.117.019-.175a1.493,1.493,0,0,1,.052-.2,1.907,1.907,0,0,1,1.847-1.342h3.714a1.823,1.823,0,0,1-1.012-1.312c-.008-.039-.011-.078-.017-.117s-.005-.053-.005-.081,0-.061,0-.091v-4.693c0-.031,0-.061,0-.092a1.2,1.2,0,0,1,.02-.175,1.6,1.6,0,0,1,.049-.194,1.9,1.9,0,0,1,1.849-1.346h2.132a1.911,1.911,0,0,1-1.85-1.341,1.663,1.663,0,0,1-.052-.2,1.684,1.684,0,0,1-.019-.175v-4.879a1.87,1.87,0,0,1,1.693-1.7h-6.313a1.882,1.882,0,0,1-1.921-1.715.855.855,0,0,1,0-.095v-4.69a.865.865,0,0,1,0-.094.7.7,0,0,1,.005-.075,1.855,1.855,0,0,1,1.493-1.593,1.88,1.88,0,0,1-1.668-1.545,1.466,1.466,0,0,1-.017-.156c0-.033,0-.064,0-.094v-4.69c0-.033,0-.064,0-.094,0-.058.011-.117.019-.175a1.479,1.479,0,0,1,.052-.2,1.907,1.907,0,0,1,1.847-1.342h3.714a1.823,1.823,0,0,1-1.012-1.312c-.008-.039-.011-.078-.017-.117s-.005-.053-.005-.08,0-.061,0-.094v-4.69c0-.031,0-.064,0-.095a1.231,1.231,0,0,1,.02-.175,1.58,1.58,0,0,1,.049-.193,1.906,1.906,0,0,1,1.849-1.347h7.272a1.9,1.9,0,0,1-1.849-1.344,1.693,1.693,0,0,1-.05-.193,1.379,1.379,0,0,1-.02-.178c0-.031,0-.061,0-.092v-4.692c0-.031,0-.062,0-.092a1.866,1.866,0,0,1,1.691-1.7h-11.454a1.956,1.956,0,0,1-1.607-.82l.006-.042,1.207-7.367.005-.042,1.718-10.511a45.794,45.794,0,0,1,5.9,1.187l.339.092.022.009q1.69.471,3.333,1.07a.152.152,0,0,1,.031.011,44.067,44.067,0,0,1,13.816,8.1c.072.061.144.125.214.192a41.614,41.614,0,0,1,5.794,6.241q.522.684,1.009,1.393c.108.156.217.312.32.47a.016.016,0,0,1,.008.014q.788,1.164,1.5,2.388a40.872,40.872,0,0,1,2.816,5.9,39.507,39.507,0,0,1,2.157,8.1c.014.07.022.137.033.205A39.646,39.646,0,0,1,1643.064,1399.639Z" transform="translate(-1542.348 -1294.022)" fill="#e2810e" opacity="0.5"/>
      <g id="Group_23737" data-name="Group 23737" transform="translate(0 57.55)">
        <path id="Path_29533" data-name="Path 29533" d="M1448.884,1408.047a43.772,43.772,0,1,1,59.465,17.2A43.773,43.773,0,0,1,1448.884,1408.047Z" transform="translate(-1440.093 -1343.135)" fill="#e2810e"/>
        <path id="Path_29534" data-name="Path 29534" d="M1500.571,1429.489q-.808.493-1.644.954-.284.157-.566.306-.647.345-1.3.667a43.773,43.773,0,0,1-40.4-77.641c.561-.309,1.127-.606,1.7-.886.551-.276,1.109-.538,1.668-.786a43.692,43.692,0,0,1,13.138-3.532,43.78,43.78,0,0,1,27.406,80.918Z" transform="translate(-1434.014 -1346.485)" fill="#ffb93e"/>
        <g id="Group_23735" data-name="Group 23735" transform="translate(4.792 6.862)">
          <path id="Path_29535" data-name="Path 29535" d="M1486.81,1440.923a39.383,39.383,0,0,1-10.955-1.563,38.982,38.982,0,1,1,10.955,1.563Zm-.12-77.4a38.158,38.158,0,1,0,33.485,19.733A37.925,37.925,0,0,0,1486.69,1363.527Z" transform="translate(-1447.515 -1362.469)" fill="#ffa412"/>
        </g>
        <g id="Group_23736" data-name="Group 23736" transform="translate(25.651 17.293)">
          <path id="Path_29536" data-name="Path 29536" d="M1543.95,1424.449c-.086-.216-.178-.425-.271-.629a11.482,11.482,0,0,0-2.655-3.793,11.862,11.862,0,0,0-4.18-2.459,19.994,19.994,0,0,0-5.31-1q-2.931-.18-6.378-.083a30.78,30.78,0,0,1-3.642-.074,9.127,9.127,0,0,1-2.563-.561,4.491,4.491,0,0,1-1.712-1.16,6.09,6.09,0,0,1-1.088-1.794,6.639,6.639,0,0,1-.495-2.1,4.53,4.53,0,0,1,.311-1.979,4.841,4.841,0,0,1,1.221-1.729,7.122,7.122,0,0,1,2.233-1.359,5.631,5.631,0,0,1,4.781.045q2.219,1.086,3.615,4.524l8.918-3.62a16.687,16.687,0,0,0-2.919-4.841,12.506,12.506,0,0,0-8.742-4.312,16.509,16.509,0,0,0-5.382.55l-2.526-6.22-4.936,2,2.489,6.133a18.507,18.507,0,0,0-4.532,3.225,13.866,13.866,0,0,0-2.856,3.982,11.1,11.1,0,0,0-1.05,4.5,13.174,13.174,0,0,0,3.879,9.241,11.675,11.675,0,0,0,4.174,2.444,19.773,19.773,0,0,0,5.313.964,62.907,62.907,0,0,0,6.394-.007,23.751,23.751,0,0,1,3.478.023,9.069,9.069,0,0,1,2.549.567,4.808,4.808,0,0,1,1.785,1.212,6.547,6.547,0,0,1,1.2,1.983,5.5,5.5,0,0,1,.427,2.114,4.508,4.508,0,0,1-.476,2.013,5.681,5.681,0,0,1-1.417,1.778,8.547,8.547,0,0,1-2.394,1.406,10.279,10.279,0,0,1-2.617.68,5.988,5.988,0,0,1-2.641-.264,6.139,6.139,0,0,1-2.41-1.559,9.464,9.464,0,0,1-1.95-3.164l-8.916,3.62a15.4,15.4,0,0,0,3.507,5.452,12.655,12.655,0,0,0,4.62,2.881,14.142,14.142,0,0,0,5.249.757,22.271,22.271,0,0,0,5.407-.894l2.3,5.676,4.906-1.992-2.315-5.7a19.913,19.913,0,0,0,4.578-3.2,13.512,13.512,0,0,0,2.764-3.608c.054-.1.106-.208.156-.314a10.958,10.958,0,0,0,1.075-4.476A12.045,12.045,0,0,0,1543.95,1424.449Z" transform="translate(-1506.282 -1391.855)" fill="#ffa412"/>
        </g>
      </g>
    </g>
    <g id="Group_23745" data-name="Group 23745" transform="translate(866.458 553.103)" opacity="0.7">
      <g id="Group_23740" data-name="Group 23740" transform="translate(10.06 48.004)">
        <path id="Path_29537" data-name="Path 29537" d="M2353.787,1421.8s8.412-9.813.519-16.047c0,0-5.765-3.49-10.467-3.207,0,0,6.661,11.171,4.506,12.282s-6.525-12.982-6.525-12.982-13.12-1.273-17.341.756c0,0,11.216,9.179,8.853,9.725s-14.476-8.463-14.476-8.463-12.211,2.078-11.561,9.527,4.859,9.749,6.708,9.551,12.667-4.328,12.9-2.812-6.276,6.468-10.835,6.7c0,0,8.608,9.494,14.331,6.754s6.21-7.083,9.776-8.712,6.612-1.625,5.139.037-7.927,3.276-9.968,6.884-3.87,6.041,2.05,5.15,15.542-5.222,15.965-10.182Z" transform="translate(-2307.271 -1401.45)" fill="#77a4e5"/>
        <g id="Group_23739" data-name="Group 23739" transform="translate(6.025 12.083)">
          <path id="Path_29538" data-name="Path 29538" d="M2324.246,1435.551s33.167-1.278,40.49,8.207a24,24,0,0,0,6.6,9.269l.777,2.117s-5.747-6.059-7.8-6.426C2364.314,1448.719,2367.53,1436.968,2324.246,1435.551Z" transform="translate(-2324.246 -1435.494)" fill="#77a4e5"/>
          <path id="Path_29539" data-name="Path 29539" d="M2453.528,1483.376a20.827,20.827,0,0,1,7.613,14.671l-1.292.116s-2.274-9.726-6.383-13.53S2453.528,1483.376,2453.528,1483.376Z" transform="translate(-2406.432 -1465.842)" fill="#77a4e5"/>
        </g>
      </g>
      <g id="Group_23742" data-name="Group 23742" transform="translate(74.759 29.777)">
        <path id="Path_29540" data-name="Path 29540" d="M2497.307,1380.644s-11.8-6.605-6.29-15.57c0,0,4.4-5.5,9.121-6.92,0,0-2.517,13.369,0,13.683s1.73-15.1,1.73-15.1,12.424-5.977,17.3-5.505c0,0-7.707,13.054-5.19,12.739s11.167-13.526,11.167-13.526,12.739-2.359,14.783,5.19-1.258,11.324-3.145,11.8-14,.314-13.683,1.887,8.492,4.089,13.053,2.674c0,0-5.032,12.425-11.638,11.8s-8.65-4.718-12.74-5.033-7.077.786-5.033,1.887,8.965.361,12.268,3.169,5.976,4.538-.158,5.8-17.142.472-19.344-4.247Z" transform="translate(-2489.553 -1350.099)" fill="#77a4e5"/>
        <g id="Group_23741" data-name="Group 23741" transform="translate(1.525 7.898)">
          <path id="Path_29541" data-name="Path 29541" d="M2542.485,1372.351s-33.028,10.694-36.8,22.647a25.087,25.087,0,0,1-3.146,11.481v2.359s3.46-8.021,5.348-9.122C2507.885,1399.716,2500.493,1389.336,2542.485,1372.351Z" transform="translate(-2499.453 -1372.351)" fill="#77a4e5"/>
          <path id="Path_29542" data-name="Path 29542" d="M2496.932,1465.835a21.784,21.784,0,0,0-2.189,17.15l1.31-.352s-1.271-10.37,1.393-15.586S2496.932,1465.835,2496.932,1465.835Z" transform="translate(-2493.848 -1431.706)" fill="#77a4e5"/>
        </g>
      </g>
      <g id="Group_23744" data-name="Group 23744" transform="translate(0 0)">
        <path id="Path_29543" data-name="Path 29543" d="M2343.626,1311.883s17.638-9.878,9.407-23.283c0,0-6.585-8.231-13.641-10.348,0,0,3.763,19.99,0,20.46s-2.587-22.577-2.587-22.577-18.579-8.937-25.869-8.231c0,0,11.524,19.52,7.761,19.049s-16.7-20.226-16.7-20.226-19.049-3.528-22.106,7.761,1.881,16.933,4.7,17.639,20.931.47,20.461,2.822-12.7,6.114-19.52,4c0,0,7.526,18.579,17.4,17.639s12.935-7.055,19.05-7.526,10.583,1.176,7.526,2.822-13.4.539-18.343,4.738-8.937,6.786.235,8.667,25.635.706,28.927-6.349Z" transform="translate(-2278.928 -1266.207)" fill="#9fc1f4"/>
        <g id="Group_23743" data-name="Group 23743" transform="translate(9.667 11.81)">
          <path id="Path_29544" data-name="Path 29544" d="M2306.162,1299.481s49.388,15.992,55.032,33.866a37.519,37.519,0,0,0,4.7,17.168v3.527s-5.174-11.994-8-13.64C2357.9,1340.4,2368.955,1324.88,2306.162,1299.481Z" transform="translate(-2306.162 -1299.481)" fill="#9fc1f4"/>
          <path id="Path_29545" data-name="Path 29545" d="M2470.169,1439.272s7.617,11.566,3.274,25.644l-1.96-.526s1.9-15.507-2.082-23.307S2470.169,1439.272,2470.169,1439.272Z" transform="translate(-2410.434 -1388.238)" fill="#9fc1f4"/>
        </g>
      </g>
      <path id="Path_29546" data-name="Path 29546" d="M2404.653,1537.294a30.458,30.458,0,0,1-30.458-30.458h60.916A30.457,30.457,0,0,1,2404.653,1537.294Z" transform="translate(-2340.38 -1421.427)" fill="#9fc1f4"/>
      <rect id="Rectangle_2717" data-name="Rectangle 2717" width="62.609" height="0.934" transform="translate(95.731 86.344) rotate(180)" fill="#77a4e5"/>
      <path id="Path_29547" data-name="Path 29547" d="M2444.826,1588.207h-28.517a2.442,2.442,0,0,1,2.442-2.442h23.632a2.443,2.443,0,0,1,2.443,2.442Z" transform="translate(-2367.547 -1472.34)" fill="#77a4e5"/>
    </g>
    <g id="Group_23746" data-name="Group 23746" transform="translate(362.645 431.582)">
      <path id="Path_29548" data-name="Path 29548" d="M1217.855,956.733c-39.19,31.909-86.14,56.437-139.552,72.9-43.383,13.37-91.449,21.565-142.868,24.355-14.022.762-27.679,1.093-40.825,1.093-26.582,0-51.092-1.351-72.454-3.232l8.644-40.891a762.483,762.483,0,0,0,102.636,1.6c48.39-2.621,93.456-10.282,133.938-22.757,48.714-15.02,91.32-37.21,126.627-65.964Z" transform="translate(-822.156 -923.837)" fill="#ffa950"/>
    </g>
    <g id="Group_23748" data-name="Group 23748" transform="translate(387.731 381.337)">
      <path id="Path_29549" data-name="Path 29549" d="M1034.868,783.879a12.417,12.417,0,0,0-9.817-1.05c-16.674-1.958-21.539,17.488-21.312,24.179s.989,13.878-6.458,22.57c-21.51,25.109,23.539,26.216,23.539,26.216.381-20.061,24.429-12.741,23.375-10.709C1075.024,852.484,1047.261,790.309,1034.868,783.879Z" transform="translate(-952.908 -782.277)" fill="#163560"/>
      <path id="Path_29550" data-name="Path 29550" d="M900.478,1012.782s-2.932-4.464-5.3-4.551-6.74-1.313-6.39-.438,3.064.963,3.326,1.488-4.026,1.313-5.251,1.4-4.114,0-4.026.613,5.206,3.151,8.817,2.8a24.5,24.5,0,0,1,8.076,1.05Z" transform="translate(-882.839 -927.545)" fill="#ffb27d"/>
      <path id="Path_29551" data-name="Path 29551" d="M971.708,961.705a44.006,44.006,0,0,1-4.485,6.783c-3.485,4.364-8.857,9.406-15.6,10.4a16.745,16.745,0,0,1-9.269-1.5l-.011,0c-8.193-3.637-14.353-12-14.353-12a6.736,6.736,0,0,1,.919-6.609s16.543,3.72,18.119,2.933,10.766-27.264,12.954-30.592,9.648-5.055,9.648-5.055Z" transform="translate(-911.66 -875.025)" fill="#f99746"/>
      <path id="Path_29552" data-name="Path 29552" d="M994.176,1029.664c-3.485,4.364-8.857,9.406-15.6,10.4a16.744,16.744,0,0,1-9.269-1.5c.32.042,8.5,1.053,11.764-4.782,3.327-5.953,6.924-15.406,11.866-12.255C995.066,1022.884,994.971,1026.263,994.176,1029.664Z" transform="translate(-938.613 -936.2)" fill="#ed7d2b"/>
      <path id="Path_29553" data-name="Path 29553" d="M1192.665,1525.631s5.048,4.607,4.063,7.88-5.54,5.455-6.156,9.456-3.078,6.183-5.294,6.183h-10.566s-1.631-2.815,2.308-3.664,5.425-5.55,5.179-9.914a76.955,76.955,0,0,1,.369-10.184l8.372-1.94Z" transform="translate(-1070.898 -1260.376)" fill="#36599e"/>
      <path id="Path_29554" data-name="Path 29554" d="M1053.256,1535.107s1.816,19.516-.4,20.607l-28.362-.058s0-3.274,4.555-4,12.558-3.394,13.913-9.334S1053.256,1535.107,1053.256,1535.107Z" transform="translate(-974.215 -1267.896)" fill="#2b478b"/>
      <path id="Path_29555" data-name="Path 29555" d="M1075.739,969.053c-5.837-13.089-9.407-16.846-8.725-20.908.507-3.023-1.546-56.375-1.546-56.375-.692-.214-2.08-.407-2.839-.576a7.119,7.119,0,0,1-5.2-4.522,36.289,36.289,0,0,1-1.765-12.038l-.748.147-12.571,2.489s.286,3.956.294,7.683c0,.031,0,.062,0,.093a7.231,7.231,0,0,1-5.218,6.991c-1.588.458-2.969.85-2.969.85a115.283,115.283,0,0,0-5.5,26.717c-.882,13.539,8.394,19.42-.07,46.474C1020.245,993.71,1078.964,976.286,1075.739,969.053Z" transform="translate(-976.487 -841.853)" fill="#ffb27d"/>
      <path id="Path_29556" data-name="Path 29556" d="M1068.387,877.538s.286,3.956.294,7.683c7.035-.2,10.753-6.616,12.276-10.172Z" transform="translate(-1002.528 -842.12)" fill="#e8945b"/>
      <path id="Path_29557" data-name="Path 29557" d="M1051.694,840.966s16.643.274,16.655-10.093,2.167-17.314-8.459-17.928-12.695,3.34-13.54,6.8S1047.365,840.627,1051.694,840.966Z" transform="translate(-988.185 -802.019)" fill="#ffb27d"/>
      <path id="Path_29558" data-name="Path 29558" d="M1063.5,808.516s4.557,12.162,11.55,13.961,10.026-.076,10.026-.076a19.807,19.807,0,0,1-6.477-11.7S1066.942,802.727,1063.5,808.516Z" transform="translate(-999.378 -797.843)" fill="#163560"/>
      <path id="Path_29559" data-name="Path 29559" d="M1051.37,811.523s-3.379,1.263-4.77,3.728a16.763,16.763,0,0,0-2.25,9.517s-3.434-8.267.425-12.943C1048.867,806.866,1051.37,811.523,1051.37,811.523Z" transform="translate(-986.115 -799.863)" fill="#163560"/>
      <path id="Path_29560" data-name="Path 29560" d="M1061.048,872.828a4.182,4.182,0,0,1-3.446,1.4,3.059,3.059,0,0,1-2.564-1.693A11.183,11.183,0,0,1,1061.048,872.828Z" transform="translate(-993.917 -840.313)" fill="#ebf3fa"/>
      <path id="Path_29561" data-name="Path 29561" d="M1073.869,946.509a113.076,113.076,0,0,1,0,13.109c-.282,4.74-5.076,11.088-5.756,12.659-1.706,3.939-3.631,4.579-3.631,4.579l-14.892,3.65-5.235,1.282-16.512-4.932s-7.521-20.991-4.5-32.808a90.83,90.83,0,0,1,7.634-20.023s13.473,13.193,31.017-1.119Z" transform="translate(-973.01 -872.992)" fill="#f99746"/>
      <path id="Path_29562" data-name="Path 29562" d="M1024.442,1083.878s-8.177,25.452-8.7,34.117,15.631,123.1,16.281,127.093c.613,3.764,5.286,6.163,5.286,6.163a7.071,7.071,0,0,0,5.218.4c4.256-1.2,5.6-2.64,5.6-2.64s6.365-81.615,2.426-110.769a461.7,461.7,0,0,1-3.985-54.366Z" transform="translate(-968.56 -976.827)" fill="#233862"/>
      <path id="Path_29563" data-name="Path 29563" d="M1079.817,1081.74s12.473,16.736,13.635,28.049,1.824,51.051,4.3,62.08,11.579,32.252,11.579,66.652a6.861,6.861,0,0,1-3.867,3.022,31.847,31.847,0,0,1-3.4.94,5.345,5.345,0,0,1-5.98-2.839c-6.154-12.39-25.756-52.35-26.761-60.645-.711-5.87-6.9-44.721-20.4-67.518-3.241-5.473,1.989-27.238,1.989-27.238Z" transform="translate(-989.29 -975.448)" fill="#2b478b"/>
      <path id="Path_29564" data-name="Path 29564" d="M1060.384,873.246s-.288,1.221-3.327,1.033c0,0-2.552-.158-2.474-1.5A8.208,8.208,0,0,1,1060.384,873.246Z" transform="translate(-993.623 -840.454)" fill="#fff"/>
      <path id="Path_29565" data-name="Path 29565" d="M1035.757,1072.809s3.283,2.6,9.8,2.728c7.789.157,27.091-1.986,27.091-1.986a15.958,15.958,0,0,1,.823,4.926s-23.573,5.946-37.232.869A8.633,8.633,0,0,1,1035.757,1072.809Z" transform="translate(-981.181 -969.687)" fill="#233862"/>
      <g id="Group_23747" data-name="Group 23747" transform="translate(58.957 104.516)">
        <path id="Path_29566" data-name="Path 29566" d="M1052.5,1084.783a4.054,4.054,0,1,1,3.554-4.023A3.815,3.815,0,0,1,1052.5,1084.783Zm0-6.867a2.891,2.891,0,1,0,2.376,2.844A2.645,2.645,0,0,0,1052.5,1077.917Z" transform="translate(-1048.942 -1076.738)" fill="#fff"/>
      </g>
      <rect id="Rectangle_2718" data-name="Rectangle 2718" width="32.024" height="43.836" transform="matrix(0.754, -0.657, 0.657, 0.754, 63.91, 95.697)" fill="#b5453c"/>
      <path id="Path_29567" data-name="Path 29567" d="M1109.166,1086s-8.849,1.035-8.821,3.135,2.2,6.416,3.3,6.608,7.2-5.835,7.2-5.835Z" transform="translate(-1023.143 -978.194)" fill="#ffb27d"/>
      <path id="Path_29568" data-name="Path 29568" d="M1123.79,922.907s11.815.828,16.344,11.838,13.122,29.493,13.122,32.6-4.8,12.7-30.578,18.206c0,0-2.666-2.8-2.5-5.022,0,0,16.091-13.821,16.047-15.436-.082-3.056-2.638-7.089-16.765-21.221C1115.614,940.031,1123.79,922.907,1123.79,922.907Z" transform="translate(-1034.808 -872.992)" fill="#f99746"/>
    </g>
    <g id="Group_23760" data-name="Group 23760" transform="translate(221.037 429.735)">
      <g id="Group_23756" data-name="Group 23756">
        <g id="Group_23751" data-name="Group 23751" transform="translate(5.253 80.819)">
          <g id="Group_23749" data-name="Group 23749" transform="translate(2.284 77.114)">
            <path id="Path_29569" data-name="Path 29569" d="M411.1,1446h-.117a1.226,1.226,0,0,1-1.225-1.254l1.858-80.524,5.473-.638-4.667,81.168A1.324,1.324,0,0,1,411.1,1446Z" transform="translate(-409.753 -1363.589)" fill="#95c0f4"/>
          </g>
          <g id="Group_23750" data-name="Group 23750" transform="translate(85.638 77.114)">
            <path id="Path_29570" data-name="Path 29570" d="M650.58,1446h.117a1.225,1.225,0,0,0,1.225-1.254l-1.858-80.524-5.473-.638,4.667,81.168A1.324,1.324,0,0,0,650.58,1446Z" transform="translate(-644.591 -1363.589)" fill="#b0d4ff"/>
          </g>
          <path id="Path_29571" data-name="Path 29571" d="M403.318,1219.088V1163.91a17.58,17.58,0,0,1,17.58-17.58h39.755a17.58,17.58,0,0,1,17.58,17.58V1221.2Z" transform="translate(-403.318 -1146.33)" fill="#b0d4ff"/>
          <path id="Rectangle_2719" data-name="Rectangle 2719" d="M0,0H82.038a0,0,0,0,1,0,0V8.711a0,0,0,0,1,0,0H8.711A8.711,8.711,0,0,1,0,0V0A0,0,0,0,1,0,0Z" transform="translate(0 72.759)" fill="#95c0f4"/>
          <path id="Rectangle_2720" data-name="Rectangle 2720" d="M4.355,0H61.522a4.356,4.356,0,0,1,4.356,4.356v0a4.356,4.356,0,0,1-4.356,4.356H4.356A4.356,4.356,0,0,1,0,4.356v0A4.355,4.355,0,0,1,4.355,0Z" transform="translate(29.261 72.759)" fill="#b0d4ff"/>
        </g>
        <g id="Group_23755" data-name="Group 23755">
          <path id="Path_29572" data-name="Path 29572" d="M576.483,1309.631c-5.7,9.912-12.859,13.738-12.859,13.738h-29.8S580.828,1302.069,576.483,1309.631Z" transform="translate(-482.249 -1169.802)" fill="#233862"/>
          <g id="Group_23752" data-name="Group 23752">
            <path id="Path_29573" data-name="Path 29573" d="M588.238,1483.731a2.754,2.754,0,0,0-.491,2.947.023.023,0,0,0,.007.015c.711,1.964,3.059,4.157,5.787,6.348.349.282.659.537.928.774.071.062.142.124.209.187s.108.1.161.145c2.543,2.345,1.586,2.882,6.156,7.64,5.21,5.421,8.8,5.519,9.818,5.025.864-.422-.891-3.3-2.834-6.528-.094-.155-.187-.313-.283-.471-.259-.429-.516-.865-.773-1.3-2.278-3.889-1.693-5.715-1.153-11.5.439-4.7,7.318-26.279,7.318-26.279l-9.985-1.72s-3.007,17.18-6.32,19.825c-1.772,1.41-3.755,1.428-5.457,2.473-.121.073-.239.148-.355.224A13.1,13.1,0,0,0,588.238,1483.731Z" transform="translate(-516.891 -1267.21)" fill="#ffb27d"/>
            <path id="Path_29574" data-name="Path 29574" d="M588.238,1524.255a2.755,2.755,0,0,0-.491,2.947.022.022,0,0,0,.007.015c.87,1.962,3.159,4.145,5.8,6.328.344.286.648.548.919.794.071.062.142.125.209.187s.108.1.161.145c2.543,2.345,1.586,2.882,6.156,7.64,5.21,5.421,8.8,5.518,9.818,5.025.864-.422-.891-3.3-2.834-6.529a22.2,22.2,0,0,1-9.288-6.844c-3.137-4-5.23-9.148-7.366-12.128-.121.073-.239.148-.355.224A13.1,13.1,0,0,0,588.238,1524.255Z" transform="translate(-516.891 -1307.734)" fill="#233862"/>
            <path id="Path_29575" data-name="Path 29575" d="M801.851,1471.973c.616,3.082,5.01,2.568,9.918,1.369s3.742.226,10.727-.547,9.1-3.378,9.315-4.417c.191-.922-3.261-1.246-6.964-1.673-.465-.052-.933-.11-1.4-.167-4.18-.525-7.241-3.222-11.039-5.437-3.6-2.1-8.963-10.648-8.963-10.648l-9.581.758s5.027,7.636,6.972,10.956c1.144,1.953,1.083,4.535.94,6.529A12.293,12.293,0,0,0,801.851,1471.973Z" transform="translate(-649.991 -1261.688)" fill="#ffb27d"/>
            <path id="Path_29576" data-name="Path 29576" d="M826.017,1502.877c4.908-1.2,3.742.226,10.727-.548s9.1-3.378,9.315-4.417c.191-.922-3.261-1.247-6.964-1.673l-.034.071a19.691,19.691,0,0,1-10,3.11c-4.74.115-9.759-1.243-13.032-1.19a12.29,12.29,0,0,0,.074,3.277C816.715,1504.591,821.108,1504.076,826.017,1502.877Z" transform="translate(-664.238 -1291.224)" fill="#233862"/>
            <path id="Path_29577" data-name="Path 29577" d="M653.195,1310.583l-8.956,24.1-11.692,31.467a18.948,18.948,0,0,1-6.211-.568,26.919,26.919,0,0,1-6.008-2.924s3.247-33.786,9.3-53.181c1.552-4.978,3.291-9,5.212-11.272C644.23,1287.109,653.195,1310.583,653.195,1310.583Z" transform="translate(-538.049 -1161.557)" fill="#233862"/>
            <path id="Path_29578" data-name="Path 29578" d="M529.84,1221.917c-5.867-1.892-22.6.538-39.412,3.829l-3.52-5.806L450.6,1217.1s-11.981,26.571-5.422,43.5a6.139,6.139,0,0,0,6.146,4.137s.529,0,.531,0,21.61-.012,28.628-.012c18.057,0,38.216-12.413,40.823-12.934,4.269-.854,5.976,7.683,10.244,16.647s40.122,39.7,40.122,39.7,5.51.054,7.787-.8a7.669,7.669,0,0,0,3.343-2.11S543.071,1226.186,529.84,1221.917Z" transform="translate(-423.799 -1111.165)" fill="#2b478b"/>
            <path id="Path_29579" data-name="Path 29579" d="M450.44,921.682c-4.652-2.442-11.729-2.773-12.879-2.927-13.759-1.849-22.04,18.144-22.527,24.2-.9,11.166-6.8,12.869-15.119,19.862-16.672,14.022-11.783,30.316-2.666,36.37,5.469,3.633,15.11,0,15.11,0,.137.1,26.366-14.663,39.3-21.782C471.039,974.65,462.293,927.906,450.44,921.682Z" transform="translate(-388.761 -918.634)" fill="#b5453c"/>
            <path id="Path_29580" data-name="Path 29580" d="M503.033,1030.194c.057.037-6.361,2.228-10.653.327-4.038-1.785-7.1-8.427-7.036-8.431,1.837-.085,3.853-1.69,5.406-12.227l.782.281,13.15,4.732s-.953,4.22-1.569,8.237C502.594,1026.485,502.315,1029.717,503.033,1030.194Z" transform="translate(-450.976 -977.482)" fill="#ffb27d"/>
            <path id="Path_29581" data-name="Path 29581" d="M515.929,1015.386s-.953,4.22-1.569,8.237c-7.553-1.359-10.518-8.885-11.581-12.969Z" transform="translate(-462.223 -977.992)" fill="#ed975d"/>
            <path id="Path_29582" data-name="Path 29582" d="M515.494,978.268s-17.992-2.415-16.316-13.6.483-19.023,12.041-17.954,13.145,5.669,13.493,9.538S520.217,978.609,515.494,978.268Z" transform="translate(-459.83 -936.687)" fill="#ffb27d"/>
            <path id="Path_29583" data-name="Path 29583" d="M514.675,948.33s-11.518,9.926-19.352,10.726-10.8-1.714-10.8-1.714a30.591,30.591,0,0,0,7.4-10.022,5.509,5.509,0,0,1,4.541-3.247C502.055,943.59,512.66,943.369,514.675,948.33Z" transform="translate(-450.447 -934.89)" fill="#b5453c"/>
            <path id="Path_29584" data-name="Path 29584" d="M549.187,950.083s3.854,3.725,5.067,6.489c1.171,2.667,1.522,9.044.59,11.577,0,0,6-11.673,2.6-17.345C553.844,944.79,549.187,950.083,549.187,950.083Z" transform="translate(-492.159 -937.532)" fill="#b5453c"/>
            <path id="Path_29585" data-name="Path 29585" d="M490.123,1078.149c-.544,36.42-.15,28.81-4.133,32.266-.96.832-3.659,1.328-7.211,1.563-11.167.742-30.8-1.1-31.545-3.162-2.576-7.141-.757-9.359-2.907-20.292-.224-1.163-.5-2.421-.827-3.792-1.792-7.509-3.536-10.063,2.821-22.127,5.765-10.927,11.754-19.8,12.293-19.477,15.21,9.029,16.437,1.44,16.437,1.44S490.389,1060.384,490.123,1078.149Z" transform="translate(-422.915 -998.933)" fill="#8c9df4"/>
            <path id="Path_29586" data-name="Path 29586" d="M644.238,1360.581l-11.692,31.466a18.952,18.952,0,0,1-6.211-.567,26.931,26.931,0,0,1-6.008-2.924s3.247-33.786,9.3-53.181Z" transform="translate(-538.049 -1187.456)" fill="#2b478b"/>
            <path id="Path_29587" data-name="Path 29587" d="M535.407,1047.191s15.651,2.654,17.489,9.392,12.653,46.353,12.653,46.353-7.956,1.43-11.632-2.246-12.79-34.1-12.79-34.1Z" transform="translate(-483.27 -1001.561)" fill="#8c9df4"/>
            <path id="Path_29588" data-name="Path 29588" d="M483.3,1166.928c-11.167.742-30.8-1.1-31.545-3.162-2.576-7.141-.757-9.36-2.907-20.292l5.386-15.168s-.891,16.89,4.091,21.332,20.394,8.576,22.815,12.288A13.583,13.583,0,0,1,483.3,1166.928Z" transform="translate(-427.432 -1053.884)" fill="#6980e2"/>
            <path id="Path_29589" data-name="Path 29589" d="M509.859,1214s11.017-2.453,12.8-1.475,6.122,4.538,6.666,5.778-3.957-.941-5.422-1.333c-.948-.254-3.445.613-4.68,1.025-5.2,1.733-8.386.841-8.386.841Z" transform="translate(-466.79 -1108.065)" fill="#ffb27d"/>
            <path id="Path_29590" data-name="Path 29590" d="M424.209,1043.118s-14.793.911-19.915,8.054c-7.209,10.054-21.51,52.905-13.314,58.621,9.23,6.436,42.008,1.683,42.008,1.683s1.091-5.1-.427-7.564-26.18-6.451-27.318-7.588,14.229-22.2,14.229-25.611S424.209,1043.118,424.209,1043.118Z" transform="translate(-388.519 -998.934)" fill="#8c9df4"/>
            <path id="Path_29591" data-name="Path 29591" d="M547.411,1221.588s2.309,2.978,3.065,3.333a2.256,2.256,0,0,0,1.246.267l-1.556-2.8Z" transform="translate(-491.014 -1114.057)" fill="#ffb27d"/>
            <path id="Path_29592" data-name="Path 29592" d="M545.908,1212.948l6.712,3.259a1.2,1.2,0,0,1-1.112.43,16.041,16.041,0,0,1-2.911-.8Z" transform="translate(-490.044 -1108.484)" fill="#ffb27d"/>
          </g>
          <g id="Group_23754" data-name="Group 23754" transform="translate(39.55 75.71)">
            <g id="Group_23753" data-name="Group 23753">
              <path id="Path_29593" data-name="Path 29593" d="M549.207,1171.652h56.625l17.034-39.716H566.328Z" transform="translate(-531.722 -1131.937)" fill="#ffa950"/>
              <path id="Path_29594" data-name="Path 29594" d="M574.719,1236.58H499.944v2.509h74.111Z" transform="translate(-499.944 -1199.438)" fill="#f77d48"/>
            </g>
            <path id="Path_29595" data-name="Path 29595" d="M658.471,1183.29a1.863,1.863,0,0,0-1.923-2.528,3.831,3.831,0,0,0-3.469,2.528,1.864,1.864,0,0,0,1.923,2.528A3.831,3.831,0,0,0,658.471,1183.29Z" transform="translate(-598.654 -1163.432)" fill="#ebf3fa"/>
          </g>
        </g>
      </g>
      <g id="Group_23759" data-name="Group 23759" transform="translate(32.735 115.426)">
        <g id="Group_23757" data-name="Group 23757" transform="translate(156.732 5.778)">
          <path id="Path_29596" data-name="Path 29596" d="M930.234,1380.361h.155a1.715,1.715,0,0,0,1.62-1.829l-2.457-117.491-7.237-.932,6.172,118.431A1.835,1.835,0,0,0,930.234,1380.361Z" transform="translate(-922.315 -1260.11)" fill="#233862"/>
        </g>
        <g id="Group_23758" data-name="Group 23758" transform="translate(10.318 5.778)">
          <path id="Path_29597" data-name="Path 29597" d="M511.59,1380.361h-.154a1.715,1.715,0,0,1-1.62-1.829l2.457-117.491,7.238-.932-6.172,118.431A1.835,1.835,0,0,1,511.59,1380.361Z" transform="translate(-509.815 -1260.11)" fill="#233862"/>
        </g>
        <path id="Rectangle_2721" data-name="Rectangle 2721" d="M4.2,0H165.935a4.2,4.2,0,0,1,4.2,4.2v0a4.2,4.2,0,0,1-4.2,4.2H4.2A4.2,4.2,0,0,1,0,4.2v0A4.2,4.2,0,0,1,4.2,0Z" fill="#233862"/>
      </g>
    </g>
    <rect id="Rectangle_2722" data-name="Rectangle 2722" width="870.682" height="3.823" rx="1.911" transform="translate(128.991 668.97)" fill="#2e3552"/>
  </g>
</svg>
