<svg id="Accountant_Help_Visma_" data-name="Accountant Help/Visma " xmlns="http://www.w3.org/2000/svg" width="37.371" height="40.25" viewBox="0 0 37.371 40.25">
  <path id="Path_30048" data-name="Path 30048" d="M272,296.625A8.625,8.625,0,1,0,280.625,288,8.625,8.625,0,0,0,272,296.625Zm8.625,5.75a.719.719,0,1,1,.719-.719A.719.719,0,0,1,280.625,302.375Zm0-11.5a3.594,3.594,0,0,1,.719,7.116v.791a.719.719,0,1,1-1.437,0v-1.437a.719.719,0,0,1,.719-.719,2.156,2.156,0,1,0-2.156-2.156.719.719,0,0,1-1.437,0A3.6,3.6,0,0,1,280.625,290.875Z" transform="translate(-251.879 -265)" fill="#fff"/>
  <path id="Path_30049" data-name="Path 30049" d="M68.217,229.078a10.058,10.058,0,0,1,6.4-15.091,13.978,13.978,0,0,0-22.123-1.058,19.594,19.594,0,0,0-4.451,12.6c1.65.832,8.425,4.029,15.09,4.029A28.047,28.047,0,0,0,68.217,229.078Z" transform="translate(-48.042 -192.188)" fill="#fff"/>
  <ellipse id="Ellipse_4160" data-name="Ellipse 4160" cx="7.187" cy="7.187" rx="7.187" ry="7.187" transform="translate(7.902)" fill="#fff"/>
</svg>
