<svg id="Buy_Company_Domain" data-name="Buy Company Domain" xmlns="http://www.w3.org/2000/svg" width="45.427" height="39.766" viewBox="0 0 45.427 39.766">
  <g id="Group_24051" data-name="Group 24051" transform="translate(0 10.567)">
    <g id="Group_24050" data-name="Group 24050">
      <path id="Path_30039" data-name="Path 30039" d="M41.434,151H3.993A4,4,0,0,0,0,154.993V165.64a4,4,0,0,0,3.993,3.993H41.434a4,4,0,0,0,3.993-3.993V154.993A4,4,0,0,0,41.434,151Zm1.191,7.25-2.662,5.323a1.333,1.333,0,0,1-2.381,0l-1.471-2.942-1.471,2.942a1.409,1.409,0,0,1-2.587-.412l-2.344-4.689a1.292,1.292,0,0,1-.269-.677,1.315,1.315,0,0,1-.123.455l-2.662,5.323a1.333,1.333,0,0,1-2.381,0L22.8,160.631l-1.649,2.942a1.386,1.386,0,0,1-2.381,0c-.2-.408-2.731-5.351-2.78-5.761a1.363,1.363,0,0,1-.317.747c-.232.464-2.4,4.955-2.761,5.292a1.267,1.267,0,0,1-2.127-.277l-1.471-2.942-1.471,2.942a1.333,1.333,0,0,1-2.381,0L2.8,158.25a1.331,1.331,0,0,1,2.381-1.191L6.654,160l1.471-2.942a1.348,1.348,0,0,1,2.381,0L11.978,160l1.471-2.942a1.348,1.348,0,0,1,2.54.554,1.32,1.32,0,0,1,2.5-.554L19.963,160l1.471-2.942a1.548,1.548,0,0,1,2.558,0L25.464,160l1.471-2.942a1.319,1.319,0,0,1,2.5.542,1.341,1.341,0,0,1,2.542-.542L33.449,160l1.471-2.942a1.386,1.386,0,0,1,2.381,0L38.773,160l1.471-2.942A1.331,1.331,0,0,1,42.625,158.25Z" transform="translate(0 -151)" fill="#fff"/>
    </g>
  </g>
  <g id="Group_24053" data-name="Group 24053" transform="translate(15.978 2.773)">
    <g id="Group_24052" data-name="Group 24052">
      <path id="Path_30040" data-name="Path 30040" d="M180.082,68.287H185.4V63.155C183.382,63.72,181.514,65.564,180.082,68.287Z" transform="translate(-180.082 -63.155)" fill="#fff"/>
    </g>
  </g>
  <g id="Group_24055" data-name="Group 24055" transform="translate(24.133 0)">
    <g id="Group_24054" data-name="Group 24054">
      <path id="Path_30041" data-name="Path 30041" d="M272,31.905v.075c3.356.6,6.306,3.429,8.265,7.83h6.287A20.013,20.013,0,0,0,272,31.905Z" transform="translate(-272 -31.905)" fill="#fff"/>
    </g>
  </g>
  <g id="Group_24057" data-name="Group 24057" transform="translate(6.741)">
    <g id="Group_24056" data-name="Group 24056">
      <path id="Path_30042" data-name="Path 30042" d="M75.981,39.809h6.287c1.959-4.4,4.909-7.234,8.265-7.83V31.9A20.014,20.014,0,0,0,75.981,39.809Z" transform="translate(-75.981 -31.904)" fill="#fff"/>
    </g>
  </g>
  <g id="Group_24059" data-name="Group 24059" transform="translate(24.133 2.773)">
    <g id="Group_24058" data-name="Group 24058">
      <path id="Path_30043" data-name="Path 30043" d="M272,63.155v5.132h5.316C275.884,65.564,274.016,63.72,272,63.155Z" transform="translate(-272 -63.155)" fill="#fff"/>
    </g>
  </g>
  <g id="Group_24061" data-name="Group 24061" transform="translate(15.978 31.861)">
    <g id="Group_24060" data-name="Group 24060">
      <path id="Path_30044" data-name="Path 30044" d="M180.082,391c1.432,2.723,3.3,4.568,5.316,5.132V391Z" transform="translate(-180.082 -391)" fill="#fff"/>
    </g>
  </g>
  <g id="Group_24063" data-name="Group 24063" transform="translate(24.133 31.861)">
    <g id="Group_24062" data-name="Group 24062">
      <path id="Path_30045" data-name="Path 30045" d="M272,391v5.132c2.016-.565,3.884-2.409,5.316-5.132Z" transform="translate(-272 -391)" fill="#fff"/>
    </g>
  </g>
  <g id="Group_24065" data-name="Group 24065" transform="translate(24.133 31.861)">
    <g id="Group_24064" data-name="Group 24064">
      <path id="Path_30046" data-name="Path 30046" d="M280.265,391c-1.959,4.4-4.909,7.234-8.265,7.83v.075a20.014,20.014,0,0,0,14.552-7.9Z" transform="translate(-272 -391.001)" fill="#fff"/>
    </g>
  </g>
  <g id="Group_24067" data-name="Group 24067" transform="translate(6.741 31.861)">
    <g id="Group_24066" data-name="Group 24066">
      <path id="Path_30047" data-name="Path 30047" d="M82.268,391H75.981a20.013,20.013,0,0,0,14.552,7.9v-.075C87.177,398.234,84.228,395.4,82.268,391Z" transform="translate(-75.981 -391)" fill="#fff"/>
    </g>
  </g>
</svg>
