<svg xmlns="http://www.w3.org/2000/svg" width="40.499" height="40.499" viewBox="0 0 40.499 40.499">
  <path id="How_To_Open_Your_Company_Verksamhet_The_Taxes" data-name="How To Open Your Company/Verksamhet, The Taxes" d="M40.5,38.132H39.157V12.25H40.5V9.883H31.431V14.59H35.19v2.367H31.431v2.367H35.19v2.367H31.431v2.367H35.19v2.367H31.431v2.367H35.19v2.367H31.431v6.974H29.138V5.415L20.249,0,11.361,5.415V38.132H9.067V31.158H5.335V28.792H9.067V26.425H5.335V24.058H9.067V21.691H5.335V19.324H9.067V16.957H5.335V14.59H9.067V9.883H0V12.25H1.368V38.132H0V40.5H40.5ZM23.563,9.541H25.93v2.367H23.563Zm0,4.97H25.93v2.367H23.563Zm0,4.97H25.93v2.367H23.563Zm0,4.97H25.93v2.367H23.563Zm0,4.97H25.93v2.367H23.563Zm-4.5-19.88h2.367v2.367H19.066Zm0,4.97h2.367v2.367H19.066Zm0,4.97h2.367v2.367H19.066Zm0,4.97h2.367v2.367H19.066Zm0,4.97h2.367v2.367H19.066ZM14.49,9.541h2.367v2.367H14.49Zm0,4.97h2.367v2.367H14.49Zm0,4.97h2.367v2.367H14.49Zm0,4.97h2.367v2.367H14.49Zm0,4.97h2.367v2.367H14.49Zm4.576,4.5h2.367v4.214H19.066Zm0,0" transform="translate(0 0)" fill="#fff"/>
</svg>
