<svg id="Create_Logo" data-name="Create Logo" xmlns="http://www.w3.org/2000/svg" width="39.766" height="39.766" viewBox="0 0 39.766 39.766">
  <g id="Group_24069" data-name="Group 24069">
    <g id="Group_24068" data-name="Group 24068">
      <path id="Path_30050" data-name="Path 30050" d="M38.6,0H33.863A1.164,1.164,0,0,0,32.7,1.165V2.33H23.163a3.474,3.474,0,0,0-6.561,0H7.068V1.165A1.164,1.164,0,0,0,5.9,0H1.165A1.164,1.164,0,0,0,0,1.165v4.66A1.164,1.164,0,0,0,1.165,6.99H5.9A1.164,1.164,0,0,0,7.068,5.825V4.644h4.785A15.2,15.2,0,0,0,4.825,16.575a3.485,3.485,0,1,0,2.325.053A12.784,12.784,0,0,1,16.79,5.087a3.466,3.466,0,0,0,6.187,0,12.784,12.784,0,0,1,9.64,11.541,3.5,3.5,0,1,0,2.325-.053A15.17,15.17,0,0,0,27.913,4.66H32.7V5.825A1.164,1.164,0,0,0,33.863,6.99H38.6a1.164,1.164,0,0,0,1.165-1.165V1.165A1.164,1.164,0,0,0,38.6,0Z" fill="#fff"/>
    </g>
  </g>
  <g id="Group_24071" data-name="Group 24071" transform="translate(11.906 35.028)">
    <g id="Group_24070" data-name="Group 24070">
      <path id="Path_30051" data-name="Path 30051" d="M169.2,454.293A4.738,4.738,0,0,0,164.766,451h-6.99a4.738,4.738,0,0,0-4.431,3.293,1.148,1.148,0,0,0,1.133,1.445h13.586A1.148,1.148,0,0,0,169.2,454.293Z" transform="translate(-153.294 -451)" fill="#fff"/>
    </g>
  </g>
  <g id="Group_24073" data-name="Group 24073" transform="translate(9.398 10.21)">
    <g id="Group_24072" data-name="Group 24072">
      <path id="Path_30052" data-name="Path 30052" d="M141.774,145.146l-9.124-13.687v11.052a3.5,3.5,0,1,1-2.33,0V131.459L121.2,145.146a1.165,1.165,0,0,0,.146,1.47,14.711,14.711,0,0,1,4.033,7.849,6.937,6.937,0,0,1,2.615-.518h6.99a6.939,6.939,0,0,1,2.615.518,14.71,14.71,0,0,1,4.033-7.849A1.165,1.165,0,0,0,141.774,145.146Z" transform="translate(-121 -131.459)" fill="#fff"/>
    </g>
  </g>
  <g id="Group_24075" data-name="Group 24075" transform="translate(18.718 23.378)">
    <g id="Group_24074" data-name="Group 24074">
      <path id="Path_30053" data-name="Path 30053" d="M242.165,301a1.165,1.165,0,1,0,1.165,1.165A1.166,1.166,0,0,0,242.165,301Z" transform="translate(-241 -301)" fill="#fff"/>
    </g>
  </g>
</svg>
