<svg id="Register_Company_Name_Skatteverket" data-name="Register Company Name/Skatteverket" xmlns="http://www.w3.org/2000/svg" width="39.516" height="39.516" viewBox="0 0 39.516 39.516">
  <path id="Path_30057" data-name="Path 30057" d="M17.584,3.293H15.773a4.537,4.537,0,0,0-8.726,0H5.235A1.244,1.244,0,0,0,4,4.528V7A2.9,2.9,0,0,0,6.881,9.879h9.056A2.9,2.9,0,0,0,18.819,7V4.528A1.244,1.244,0,0,0,17.584,3.293Z" transform="translate(2.586)" fill="#fff"/>
  <path id="Path_30058" data-name="Path 30058" d="M23.463,3h-.412V5.058a4.525,4.525,0,0,1-4.528,4.528H9.467A4.525,4.525,0,0,1,4.94,5.058V3H4.528A4.525,4.525,0,0,0,0,7.528V28.109a4.525,4.525,0,0,0,4.528,4.528h10.85a14.387,14.387,0,0,1-1.367-5.763H6.174a1.235,1.235,0,1,1,0-2.47h7.969a15.069,15.069,0,0,1,.724-2.881H6.174a1.235,1.235,0,0,1,0-2.47h9.879a14.33,14.33,0,0,1,2.289-2.881H6.174a1.235,1.235,0,1,1,0-2.47H21.717a14.2,14.2,0,0,1,6.273-1.63V7.528A4.525,4.525,0,0,0,23.463,3Z" transform="translate(0 1.94)" fill="#fff"/>
  <path id="Path_30059" data-name="Path 30059" d="M21.614,10.5A11.114,11.114,0,1,0,32.728,21.614,11.126,11.126,0,0,0,21.614,10.5Zm5.354,8.906-5.763,6.586a1.644,1.644,0,0,1-1.184.561h-.054a1.645,1.645,0,0,1-1.164-.482L15.51,22.778a1.646,1.646,0,1,1,2.328-2.328L19.887,22.5l4.6-5.262a1.647,1.647,0,1,1,2.478,2.17Z" transform="translate(6.788 6.788)" fill="#fff"/>
</svg>
