<svg xmlns="http://www.w3.org/2000/svg" width="73.5" height="79" viewBox="0 0 73.373 78.611">
      <g id="schedule" transform="translate(-17.058)">
        <g id="Group_174" data-name="Group 174" transform="translate(17.058)">
          <path
            id="Path_208"
            data-name="Path 208"
            d="M52.245,368.881H22.3a5.241,5.241,0,0,1-5.241-5.241V358.4h40.22Z"
            transform="translate(-17.059 -303.372)"
            fill="#d3dcfb"
          />
          <path
            id="Path_209"
            data-name="Path 209"
            d="M85.194,81.368v36.685H22.3a5.241,5.241,0,0,1-5.241-5.241V81.368l36.688-13.1Z"
            transform="translate(-17.059 -57.785)"
            fill="#ebf5fc"
          />
          <g id="Group_167" data-name="Group 167" transform="translate(5.243 28.824)">
            <path
              id="Path_210"
              data-name="Path 210"
              d="M55.215,192.975H52.431a1.228,1.228,0,0,1-1.228-1.228v-2.784a1.228,1.228,0,0,1,1.228-1.228h2.784a1.228,1.228,0,0,1,1.228,1.228v2.784A1.228,1.228,0,0,1,55.215,192.975Z"
              transform="translate(-51.203 -187.734)"
              fill="#3c58a0"
            />
            <path
              id="Path_211"
              data-name="Path 211"
              d="M123.482,192.975H120.7a1.228,1.228,0,0,1-1.228-1.228v-2.784a1.228,1.228,0,0,1,1.228-1.228h2.784a1.228,1.228,0,0,1,1.228,1.228v2.784A1.228,1.228,0,0,1,123.482,192.975Z"
              transform="translate(-108.988 -187.734)"
              fill="#3c58a0"
            />
            <path
              id="Path_212"
              data-name="Path 212"
              d="M191.748,192.975h-2.784a1.228,1.228,0,0,1-1.228-1.228v-2.784a1.228,1.228,0,0,1,1.228-1.228h2.784a1.228,1.228,0,0,1,1.228,1.228v2.784A1.228,1.228,0,0,1,191.748,192.975Z"
              transform="translate(-166.773 -187.734)"
              fill="#3c58a0"
            />
            <path
              id="Path_213"
              data-name="Path 213"
              d="M260.015,192.975h-2.784A1.228,1.228,0,0,1,256,191.746v-2.784a1.228,1.228,0,0,1,1.228-1.228h2.784a1.228,1.228,0,0,1,1.228,1.228v2.784A1.228,1.228,0,0,1,260.015,192.975Z"
              transform="translate(-224.558 -187.734)"
              fill="#3c58a0"
            />
            <path
              id="Path_214"
              data-name="Path 214"
              d="M328.27,192.975h-2.784a1.228,1.228,0,0,1-1.228-1.228v-2.784a1.228,1.228,0,0,1,1.228-1.228h2.784a1.228,1.228,0,0,1,1.228,1.228v2.784A1.228,1.228,0,0,1,328.27,192.975Z"
              transform="translate(-282.334 -187.734)"
              fill="#3c58a0"
            />
            <path
              id="Path_215"
              data-name="Path 215"
              d="M396.537,192.975h-2.784a1.228,1.228,0,0,1-1.228-1.228v-2.784a1.228,1.228,0,0,1,1.228-1.228h2.784a1.228,1.228,0,0,1,1.228,1.228v2.784A1.228,1.228,0,0,1,396.537,192.975Z"
              transform="translate(-340.119 -187.734)"
              fill="#3c58a0"
            />
            <path
              id="Path_216"
              data-name="Path 216"
              d="M55.215,261.241H52.431a1.228,1.228,0,0,1-1.228-1.228v-2.784A1.228,1.228,0,0,1,52.431,256h2.784a1.228,1.228,0,0,1,1.228,1.228v2.784A1.228,1.228,0,0,1,55.215,261.241Z"
              transform="translate(-51.203 -245.519)"
              fill="#3c58a0"
            />
            <path
              id="Path_217"
              data-name="Path 217"
              d="M123.482,261.241H120.7a1.228,1.228,0,0,1-1.228-1.228v-2.784A1.228,1.228,0,0,1,120.7,256h2.784a1.228,1.228,0,0,1,1.228,1.228v2.784A1.228,1.228,0,0,1,123.482,261.241Z"
              transform="translate(-108.988 -245.519)"
              fill="#3c58a0"
            />
            <path
              id="Path_218"
              data-name="Path 218"
              d="M191.748,261.241h-2.784a1.228,1.228,0,0,1-1.228-1.228v-2.784A1.228,1.228,0,0,1,188.964,256h2.784a1.228,1.228,0,0,1,1.228,1.228v2.784A1.228,1.228,0,0,1,191.748,261.241Z"
              transform="translate(-166.773 -245.519)"
              fill="#3c58a0"
            />
            <path
              id="Path_219"
              data-name="Path 219"
              d="M261.244,261.241V257.31a1.31,1.31,0,0,0-1.31-1.31h-2.62a1.31,1.31,0,0,0-1.31,1.31v2.62a1.31,1.31,0,0,0,1.31,1.31Z"
              transform="translate(-224.559 -245.519)"
              fill="#3c58a0"
            />
            <path
              id="Path_220"
              data-name="Path 220"
              d="M55.215,329.508H52.431a1.228,1.228,0,0,1-1.228-1.228V325.5a1.228,1.228,0,0,1,1.228-1.228h2.784a1.228,1.228,0,0,1,1.228,1.228v2.784A1.228,1.228,0,0,1,55.215,329.508Z"
              transform="translate(-51.203 -303.304)"
              fill="#3c58a0"
            />
            <path
              id="Path_221"
              data-name="Path 221"
              d="M123.482,329.508H120.7a1.228,1.228,0,0,1-1.228-1.228V325.5a1.228,1.228,0,0,1,1.228-1.228h2.784a1.228,1.228,0,0,1,1.228,1.228v2.784A1.228,1.228,0,0,1,123.482,329.508Z"
              transform="translate(-108.988 -303.304)"
              fill="#3c58a0"
            />
            <path
              id="Path_222"
              data-name="Path 222"
              d="M191.748,329.508h-2.784a1.228,1.228,0,0,1-1.228-1.228V325.5a1.228,1.228,0,0,1,1.228-1.228h2.784a1.228,1.228,0,0,1,1.228,1.228v2.784A1.228,1.228,0,0,1,191.748,329.508Z"
              transform="translate(-166.773 -303.304)"
              fill="#3c58a0"
            />
          </g>
          <path
            id="Path_223"
            data-name="Path 223"
            d="M400.919,187.733h-2.71a1.262,1.262,0,0,0-.464.089,1.265,1.265,0,0,1,.8,1.176v2.71a1.265,1.265,0,0,1-.8,1.176,1.26,1.26,0,0,0,.464.089h2.71a1.265,1.265,0,0,0,1.265-1.265V189A1.266,1.266,0,0,0,400.919,187.733Z"
            transform="translate(-339.295 -158.909)"
            fill="#2a428c"
          />
          <path
            id="Path_224"
            data-name="Path 224"
            d="M332.652,187.733h-2.71a1.262,1.262,0,0,0-.464.089,1.265,1.265,0,0,1,.8,1.176v2.71a1.265,1.265,0,0,1-.8,1.176,1.26,1.26,0,0,0,.464.089h2.71a1.265,1.265,0,0,0,1.265-1.265V189A1.265,1.265,0,0,0,332.652,187.733Z"
            transform="translate(-281.51 -158.909)"
            fill="#2a428c"
          />
          <path
            id="Path_225"
            data-name="Path 225"
            d="M264.4,187.733h-2.71a1.262,1.262,0,0,0-.464.089,1.265,1.265,0,0,1,.8,1.176v2.71a1.265,1.265,0,0,1-.8,1.176,1.26,1.26,0,0,0,.464.089h2.71a1.265,1.265,0,0,0,1.265-1.265V189A1.266,1.266,0,0,0,264.4,187.733Z"
            transform="translate(-223.734 -158.909)"
            fill="#2a428c"
          />
          <path
            id="Path_226"
            data-name="Path 226"
            d="M196.13,187.733h-2.71a1.262,1.262,0,0,0-.464.089,1.265,1.265,0,0,1,.8,1.176v2.71a1.265,1.265,0,0,1-.8,1.176,1.26,1.26,0,0,0,.464.089h2.71a1.265,1.265,0,0,0,1.265-1.265V189A1.266,1.266,0,0,0,196.13,187.733Z"
            transform="translate(-165.949 -158.909)"
            fill="#2a428c"
          />
          <path
            id="Path_227"
            data-name="Path 227"
            d="M127.863,187.733h-2.71a1.263,1.263,0,0,0-.464.089,1.265,1.265,0,0,1,.8,1.176v2.71a1.265,1.265,0,0,1-.8,1.176,1.26,1.26,0,0,0,.464.089h2.71a1.265,1.265,0,0,0,1.265-1.265V189A1.265,1.265,0,0,0,127.863,187.733Z"
            transform="translate(-108.164 -158.909)"
            fill="#2a428c"
          />
          <path
            id="Path_228"
            data-name="Path 228"
            d="M59.6,187.733h-2.71a1.262,1.262,0,0,0-.464.089,1.265,1.265,0,0,1,.8,1.176v2.71a1.265,1.265,0,0,1-.8,1.176,1.26,1.26,0,0,0,.464.089H59.6a1.265,1.265,0,0,0,1.265-1.265V189A1.266,1.266,0,0,0,59.6,187.733Z"
            transform="translate(-50.379 -158.909)"
            fill="#2a428c"
          />
          <path
            id="Path_229"
            data-name="Path 229"
            d="M59.6,256h-2.71a1.263,1.263,0,0,0-.464.089,1.265,1.265,0,0,1,.8,1.176v2.71a1.265,1.265,0,0,1-.8,1.176,1.26,1.26,0,0,0,.464.089H59.6a1.265,1.265,0,0,0,1.265-1.265v-2.71A1.266,1.266,0,0,0,59.6,256Z"
            transform="translate(-50.379 -216.694)"
            fill="#2a428c"
          />
          <path
            id="Path_230"
            data-name="Path 230"
            d="M59.6,324.267h-2.71a1.262,1.262,0,0,0-.464.089,1.265,1.265,0,0,1,.8,1.176v2.71a1.265,1.265,0,0,1-.8,1.176,1.26,1.26,0,0,0,.464.089H59.6a1.265,1.265,0,0,0,1.265-1.265v-2.71A1.266,1.266,0,0,0,59.6,324.267Z"
            transform="translate(-50.379 -274.48)"
            fill="#2a428c"
          />
          <path
            id="Path_231"
            data-name="Path 231"
            d="M127.863,256h-2.71a1.263,1.263,0,0,0-.464.089,1.265,1.265,0,0,1,.8,1.176v2.71a1.265,1.265,0,0,1-.8,1.176,1.26,1.26,0,0,0,.464.089h2.71a1.265,1.265,0,0,0,1.265-1.265v-2.71A1.265,1.265,0,0,0,127.863,256Z"
            transform="translate(-108.164 -216.694)"
            fill="#2a428c"
          />
          <path
            id="Path_232"
            data-name="Path 232"
            d="M127.863,324.267h-2.71a1.263,1.263,0,0,0-.464.089,1.265,1.265,0,0,1,.8,1.176v2.71a1.265,1.265,0,0,1-.8,1.176,1.26,1.26,0,0,0,.464.089h2.71a1.265,1.265,0,0,0,1.265-1.265v-2.71A1.265,1.265,0,0,0,127.863,324.267Z"
            transform="translate(-108.164 -274.48)"
            fill="#2a428c"
          />
          <path
            id="Path_233"
            data-name="Path 233"
            d="M196.13,256h-2.71a1.263,1.263,0,0,0-.464.089,1.265,1.265,0,0,1,.8,1.176v2.71a1.265,1.265,0,0,1-.8,1.176,1.26,1.26,0,0,0,.464.089h2.71a1.265,1.265,0,0,0,1.265-1.265v-2.71A1.266,1.266,0,0,0,196.13,256Z"
            transform="translate(-165.949 -216.694)"
            fill="#2a428c"
          />
          <path
            id="Path_234"
            data-name="Path 234"
            d="M265.661,261.241v-3.975A1.265,1.265,0,0,0,264.4,256h-2.71a1.262,1.262,0,0,0-.464.089,1.265,1.265,0,0,1,.8,1.176v2.71a1.265,1.265,0,0,1-.8,1.176,1.259,1.259,0,0,0,.464.089h3.975Z"
            transform="translate(-223.734 -216.694)"
            fill="#2a428c"
          />
          <path
            id="Path_235"
            data-name="Path 235"
            d="M196.13,324.267h-2.71a1.262,1.262,0,0,0-.464.089,1.265,1.265,0,0,1,.8,1.176v2.71a1.265,1.265,0,0,1-.8,1.176,1.26,1.26,0,0,0,.464.089h2.71a1.265,1.265,0,0,0,1.265-1.265v-2.71A1.265,1.265,0,0,0,196.13,324.267Z"
            transform="translate(-165.949 -274.48)"
            fill="#2a428c"
          />
          <path
            id="Path_236"
            data-name="Path 236"
            d="M437.114,143.721v38.2h3.641V145.238Z"
            transform="translate(-372.62 -121.654)"
            fill="#d3dcfb"
          />
          <path
            id="Path_237"
            data-name="Path 237"
            d="M85.194,52.477v-13.1a5.241,5.241,0,0,0-5.241-5.241H22.3a5.24,5.24,0,0,0-5.241,5.241v13.1Z"
            transform="translate(-17.059 -28.893)"
            fill="#ff4155"
          />
          <g id="Group_173" data-name="Group 173" transform="translate(11.916 9.295)">
            <g id="Group_172" data-name="Group 172">
              <g id="Group_168" data-name="Group 168">
                <path
                  id="Path_238"
                  data-name="Path 238"
                  d="M99.263,62.913H95.852a1.186,1.186,0,1,1,0-2.372h3.411a1.186,1.186,0,1,1,0,2.372Z"
                  transform="translate(-94.666 -60.541)"
                  fill="#e80054"
                />
              </g>
              <g id="Group_169" data-name="Group 169" transform="translate(8.38)">
                <path
                  id="Path_239"
                  data-name="Path 239"
                  d="M153.845,62.913h-3.411a1.186,1.186,0,1,1,0-2.372h3.411a1.186,1.186,0,0,1,0,2.372Z"
                  transform="translate(-149.248 -60.541)"
                  fill="#e80054"
                />
              </g>
              <g id="Group_170" data-name="Group 170" transform="translate(30.136)">
                <path
                  id="Path_240"
                  data-name="Path 240"
                  d="M295.541,62.913h-3.411a1.186,1.186,0,1,1,0-2.372h3.411a1.186,1.186,0,0,1,0,2.372Z"
                  transform="translate(-290.943 -60.541)"
                  fill="#e80054"
                />
              </g>
              <g id="Group_171" data-name="Group 171" transform="translate(38.516)">
                <path
                  id="Path_241"
                  data-name="Path 241"
                  d="M350.124,62.913h-3.411a1.186,1.186,0,1,1,0-2.372h3.411a1.186,1.186,0,1,1,0,2.372Z"
                  transform="translate(-345.526 -60.541)"
                  fill="#e80054"
                />
              </g>
            </g>
          </g>
          <path
            id="Path_242"
            data-name="Path 242"
            d="M126.01,9.826a3.275,3.275,0,0,1-6.551,0V3.275a3.275,3.275,0,1,1,6.551,0V9.826Z"
            transform="translate(-103.737)"
            fill="#ebf5fc"
          />
          <path
            id="Path_243"
            data-name="Path 243"
            d="M322.287,9.826a3.275,3.275,0,0,1-6.551,0V3.275a3.275,3.275,0,0,1,6.551,0V9.826Z"
            transform="translate(-269.878)"
            fill="#ebf5fc"
          />
          <path
            id="Path_244"
            data-name="Path 244"
            d="M327.05,0a3.259,3.259,0,0,0-1.817.551,3.272,3.272,0,0,1,1.458,2.725V9.826a3.272,3.272,0,0,1-1.458,2.725,3.275,3.275,0,0,0,5.093-2.725V3.275A3.275,3.275,0,0,0,327.05,0Z"
            transform="translate(-277.917)"
            fill="#d3dcfb"
          />
          <path
            id="Path_245"
            data-name="Path 245"
            d="M130.772,0a3.259,3.259,0,0,0-1.817.551,3.272,3.272,0,0,1,1.458,2.725V9.826a3.272,3.272,0,0,1-1.458,2.725,3.275,3.275,0,0,0,5.093-2.725V3.275A3.275,3.275,0,0,0,130.772,0Z"
            transform="translate(-111.775)"
            fill="#d3dcfb"
          />
          <path
            id="Path_246"
            data-name="Path 246"
            d="M406.629,34.133H402.99a5.24,5.24,0,0,1,5.241,5.241v13.1h3.639v-13.1A5.24,5.24,0,0,0,406.629,34.133Z"
            transform="translate(-343.735 -28.892)"
            fill="#e80054"
          />
          <path
            id="Path_247"
            data-name="Path 247"
            d="M17.058,111.74H85.193v2.373H17.058Z"
            transform="translate(-17.058 -94.584)"
            fill="#e80054"
          />
        </g>
        <circle
          id="Ellipse_30"
          data-name="Ellipse 30"
          cx="19.653"
          cy="19.653"
          r="19.653"
          transform="translate(51.126 39.306)"
          fill="#4fabf7"
        />
        <circle
          id="Ellipse_31"
          data-name="Ellipse 31"
          cx="14.412"
          cy="14.412"
          r="14.412"
          transform="translate(56.366 44.546)"
          fill="#ebf5fc"
        />
        <g id="Group_176" data-name="Group 176" transform="translate(69.592 48.601)">
          <g id="Group_175" data-name="Group 175">
            <path
              id="Path_248"
              data-name="Path 248"
              d="M360.4,325.463a1.186,1.186,0,0,1-1.186-1.186v-6.551a1.186,1.186,0,0,1,2.372,0v6.551A1.186,1.186,0,0,1,360.4,325.463Z"
              transform="translate(-359.216 -316.54)"
              fill="#3c58a0"
            />
          </g>
        </g>
        <g id="Group_178" data-name="Group 178" transform="translate(72.212 57.772)">
          <g id="Group_177" data-name="Group 177">
            <path
              id="Path_249"
              data-name="Path 249"
              d="M381.4,378.646h-3.931a1.186,1.186,0,1,1,0-2.372H381.4a1.186,1.186,0,0,1,0,2.372Z"
              transform="translate(-376.282 -376.274)"
              fill="#3c58a0"
            />
          </g>
        </g>
        <path
          id="Path_250"
          data-name="Path 250"
          d="M356.913,256c-.613,0-1.22.03-1.819.085a19.653,19.653,0,0,1,0,39.136c.6.055,1.206.085,1.819.085a19.653,19.653,0,0,0,0-39.306Z"
          transform="translate(-286.135 -216.694)"
          fill="#1886ea"
        />
        <path
          id="Path_251"
          data-name="Path 251"
          d="M356.921,290.133a14.549,14.549,0,0,0-1.818.114,14.414,14.414,0,0,1,0,28.6,14.413,14.413,0,1,0,1.818-28.71Z"
          transform="translate(-286.142 -245.587)"
          fill="#d3dcfb"
        />
        <circle
          id="Ellipse_32"
          data-name="Ellipse 32"
          cx="2.62"
          cy="2.62"
          r="2.62"
          transform="translate(68.158 56.338)"
          fill="#ffdd40"
        />
      </g>
    </svg>