 <svg
      id="customer-service"
      xmlns="http://www.w3.org/2000/svg"
      width="82"
      height="82"
      viewBox="0 0 82.711 82.711">
      <g id="Group_158" data-name="Group 158" transform="translate(0.615 0)">
        <g id="Group_157" data-name="Group 157">
          <path
            id="Path_171"
            data-name="Path 171"
            d="M3.806,13.03A13.029,13.029,0,1,1,25.4,22.849a.566.566,0,0,0,.083.914l2.455,1.453a.453.453,0,0,1-.231.843l-11.117,0A13.029,13.029,0,0,1,3.806,13.03Z"
            transform="translate(-3.806 0)"
            fill="#7acaa6"
          />
        </g>
      </g>
      <path
        id="Path_172"
        data-name="Path 172"
        d="M82.715,25.215l-2.455-1.453a.565.565,0,0,1-.087-.91A13.029,13.029,0,0,0,72,.006a13.13,13.13,0,0,0-2.864.229,13.026,13.026,0,0,1,7.846,20.787,2.813,2.813,0,0,0,.76,4.163l.051.03a.453.453,0,0,1-.216.842h4.9A.453.453,0,0,0,82.715,25.215Z"
        transform="translate(-57.969 0)"
        fill="#57be92"
      />
      <g id="Group_163" data-name="Group 163" transform="translate(19.006 0)">
        <g id="Group_160" data-name="Group 160" transform="translate(0 0)">
          <path
            id="Path_173"
            data-name="Path 173"
            d="M198.056,47.293H168.5a8.717,8.717,0,0,1-6.707-14.284l.262-.316a13.942,13.942,0,0,0,3.214-8.9v-5.7a18.089,18.089,0,0,1,36.178,0v5.892a13.942,13.942,0,0,0,3.278,8.981A8.717,8.717,0,0,1,198.056,47.293Z"
            transform="translate(-152.962 0)"
            fill="#c59191"
          />
          <path
            id="Path_174"
            data-name="Path 174"
            d="M178.281,263.313v19.541H117.65V263.46a10.911,10.911,0,0,1,6.677-10.056l9.788-4.255,3.3-1.433a6.848,6.848,0,0,0,4.118-6.281V240.17H154.4v1.2a6.849,6.849,0,0,0,4.152,6.294l13.239,5.675a10.908,10.908,0,0,1,6.489,9.974Z"
            transform="translate(-117.65 -201.372)"
            fill="#fff"
          />
          <path
            id="Path_175"
            data-name="Path 175"
            d="M216.247,253.809a46.886,46.886,0,0,0,27.7-.26l1.6-3.8-4.86-2.083a6.848,6.848,0,0,1-4.15-6.294v-1.2H223.662v1.265a6.848,6.848,0,0,1-4.118,6.28l-3.937,1.712Z"
            transform="translate(-199.783 -201.373)"
            fill="#ffcebf"
          />
          <g id="Group_159" data-name="Group 159" transform="translate(0 47.692)">
            <path
              id="Path_176"
              data-name="Path 176"
              d="M401.027,299.5l-9.972-4.274h0v33.789h16.464v-19.54a10.91,10.91,0,0,0-6.49-9.975Z"
              transform="translate(-346.886 -295.226)"
              fill="#8795de"
            />
            <path
              id="Path_177"
              data-name="Path 177"
              d="M134.115,295.75v33.7H117.65V310.061a10.911,10.911,0,0,1,6.677-10.056Z"
              transform="translate(-117.65 -295.665)"
              fill="#8795de"
            />
          </g>
        </g>
        <g id="Group_162" data-name="Group 162" transform="translate(12.306)">
          <path
            id="Path_178"
            data-name="Path 178"
            d="M273.251,247.239a10.827,10.827,0,0,0,4.179-.834,6.847,6.847,0,0,1-2.2-5.032v-1.2H262.352v1.264a6.836,6.836,0,0,1-.6,2.8,10.823,10.823,0,0,0,7.492,3h4.007Z"
            transform="translate(-250.779 -201.374)"
            fill="#ffb09e"
          />
          <path
            id="Path_179"
            data-name="Path 179"
            d="M251.4,83.612v10.65a10.863,10.863,0,0,1-10.863,10.863h-4.006a10.863,10.863,0,0,1-10.863-10.863V83.612a7.067,7.067,0,0,1,7.067-7.067h11.6A7.067,7.067,0,0,1,251.4,83.612Z"
            transform="translate(-220.519 -64.179)"
            fill="#ffcebf"
          />
          <path
            id="Path_180"
            data-name="Path 180"
            d="M339.393,154.593c0,.015-.011.029-.015.044a11.463,11.463,0,0,1-3.914,5.839,10.947,10.947,0,0,1-3.932,1.921,1.23,1.23,0,1,0,.624,2.379,13.4,13.4,0,0,0,4.809-2.352,13.169,13.169,0,0,0,2.42-2.435c0-.1.007-.19.007-.286v-5.109Z"
            transform="translate(-308.517 -129.619)"
            fill="#7a6d79"
          />
          <path
            id="Path_181"
            data-name="Path 181"
            d="M300.667,199.287h-2.881a2.375,2.375,0,0,1,0-4.75h2.881a2.375,2.375,0,1,1,0,4.75Z"
            transform="translate(-279.001 -163.11)"
            fill="#685e68"
          />
          <g id="Group_161" data-name="Group 161">
            <path
              id="Path_182"
              data-name="Path 182"
              d="M321.105,22.843c.276-3.48,3.607-5.789,6.8-6.985a18.079,18.079,0,0,1,8.805,15.527v1.244c-.292.061-.582.115-.869.158a14.645,14.645,0,0,1-4.274,0C324.978,31.909,320.772,27.046,321.105,22.843Z"
              transform="translate(-300.529 -13.296)"
              fill="#b98080"
            />
            <path
              id="Path_183"
              data-name="Path 183"
              d="M211.917,0A18.008,18.008,0,0,1,222.8,3.639a32.265,32.265,0,0,1-11.484,11.673A32.011,32.011,0,0,1,199.13,19.49h-5.3v-1.4A18.089,18.089,0,0,1,211.917,0Z"
              transform="translate(-193.828)"
              fill="#c59191"
            />
          </g>
        </g>
      </g>
      <path
        id="Path_184"
        data-name="Path 184"
        d="M215.338,383.983H175.977l-2.171-20.48a2.459,2.459,0,0,1,2.445-2.718h38.812a2.459,2.459,0,0,1,2.445,2.718Z"
        transform="translate(-145.716 -302.502)"
        fill="#efedef"
      />
      <path
        id="Path_185"
        data-name="Path 185"
        d="M403.744,360.785h-4.918a2.459,2.459,0,0,1,2.445,2.718l-2.171,20.48h4.918l2.171-20.48A2.459,2.459,0,0,0,403.744,360.785Z"
        transform="translate(-334.397 -302.502)"
        fill="#e5e1e5"
      />
      <g id="Group_164" data-name="Group 164" transform="translate(0 80.288)">
        <path
          id="Path_186"
          data-name="Path 186"
          d="M81.5,499.423H1.212a1.212,1.212,0,0,1,0-2.423H81.5a1.212,1.212,0,1,1,0,2.423Z"
          transform="translate(0 -497)"
          fill="#c9bfc8"
        />
      </g>
      <circle
        id="Ellipse_26"
        data-name="Ellipse 26"
        cx="3.443"
        cy="3.443"
        r="3.443"
        transform="translate(46.498 66.44)"
        fill="#c9bfc8"
      />
      <g id="Group_165" data-name="Group 165" transform="translate(7.496 11.8)">
        <circle id="Ellipse_27" data-name="Ellipse 27" cx="1.23" cy="1.23" r="1.23" fill="#fff" />
        <circle
          id="Ellipse_28"
          data-name="Ellipse 28"
          cx="1.23"
          cy="1.23"
          r="1.23"
          transform="translate(4.918)"
          fill="#fff"
        />
        <circle
          id="Ellipse_29"
          data-name="Ellipse 29"
          cx="1.23"
          cy="1.23"
          r="1.23"
          transform="translate(9.837)"
          fill="#fff"
        />
      </g>
    </svg>