 <svg xmlns="http://www.w3.org/2000/svg" width="200" height="183" viewBox="0 0 96.234 82.711">
      <g id="female" transform="translate(0 -35.973)">
        <path
          id="Path_187"
          data-name="Path 187"
          d="M377.591,238.555a1.355,1.355,0,0,1-1.355-1.355v-5.544a1.355,1.355,0,1,1,2.711,0V237.2A1.355,1.355,0,0,1,377.591,238.555Z"
          transform="translate(-305.52 -157.802)"
          fill="#80b6fc"
        />
        <path
          id="Path_188"
          data-name="Path 188"
          d="M60.728,98.72C65.4,87.634,68.405,62.33,68.405,54.412c0-13.562-8.821-18.439-19.7-18.439S29,40.85,29,54.412c0,7.918,3.008,33.222,7.677,44.308Z"
          transform="translate(-23.548 0)"
          fill="#407194"
        />
        <path
          id="Path_189"
          data-name="Path 189"
          d="M123.311,35.973q-1.236,0-2.434.086c9.467.7,16.8,5.818,16.8,18.353,0,7.918-2.925,33.222-7.466,44.308h5.13c4.669-11.086,7.677-36.39,7.677-44.308,0-13.562-8.821-18.439-19.7-18.439Z"
          transform="translate(-98.157)"
          fill="#365f7e"
        />
        <path
          id="Path_190"
          data-name="Path 190"
          d="M105.368,196.043h10.7V214.55h-10.7Z"
          transform="translate(-85.563 -129.984)"
          fill="#ffcdbe"
        />
        <path
          id="Path_191"
          data-name="Path 191"
          d="M116.064,196.043h-10.7V208.7a10.978,10.978,0,0,0,4.707,1.055h1.282a10.983,10.983,0,0,0,4.708-1.055Z"
          transform="translate(-85.562 -129.984)"
          fill="#ebae9d"
        />
        <path
          id="Path_192"
          data-name="Path 192"
          d="M185.211,153.07a3.749,3.749,0,0,1-3.749,3.749h-6.63v-7.5h6.63A3.748,3.748,0,0,1,185.211,153.07Z"
          transform="translate(-141.972 -92.043)"
          fill="#ffcdbe"
        />
        <path
          id="Path_193"
          data-name="Path 193"
          d="M95.093,109.535V119.64a11.025,11.025,0,0,1-11.025,11.025H82.785a11.024,11.024,0,0,1-11.023-11.023v-1.367a40.158,40.158,0,0,0,17.6-14.859A6.133,6.133,0,0,1,95.093,109.535Z"
          transform="translate(-58.274 -54.767)"
          fill="#ffcdbe"
        />
        <path
          id="Path_194"
          data-name="Path 194"
          d="M115.33,208.348h-.455a5.265,5.265,0,0,1-3.676-1.5,1.41,1.41,0,0,1,1.961-2.026,2.459,2.459,0,0,0,1.716.7h.455a2.459,2.459,0,0,0,1.716-.7,1.41,1.41,0,1,1,1.961,2.026A5.263,5.263,0,0,1,115.33,208.348Z"
          transform="translate(-89.949 -136.794)"
          fill="#e09380"
        />
        <path
          id="Path_195"
          data-name="Path 195"
          d="M50.307,295.017v25.3a.94.94,0,0,1-.94.94H8.921V307.578H0V295.017a7.149,7.149,0,0,1,7.149-7.149h6.9l5.666,3.007,5.8-3.007,5.8,2.068,5.471-2.068h6.359A7.149,7.149,0,0,1,50.307,295.017Z"
          transform="translate(0 -204.549)"
          fill="#9ec8fc"
        />
        <path
          id="Path_196"
          data-name="Path 196"
          d="M221.99,287.869a1.786,1.786,0,0,0-1.805,1.78v31.606h7.982a.94.94,0,0,0,.94-.94v-25.3A7.149,7.149,0,0,0,221.99,287.869Z"
          transform="translate(-178.8 -204.55)"
          fill="#80b6fc"
        />
        <path
          id="Path_197"
          data-name="Path 197"
          d="M268.17,68.191V99.823a.968.968,0,0,0,.968.968h40.99a.968.968,0,0,0,.968-.968V68.191Z"
          transform="translate(-217.765 -26.162)"
          fill="#d8e2f3"
        />
        <path
          id="Path_198"
          data-name="Path 198"
          d="M310.128,211.683h-40.99a.968.968,0,0,1-.968-.968v4.843a.968.968,0,0,0,.968.968h40.99a.968.968,0,0,0,.968-.968v-4.843A.968.968,0,0,1,310.128,211.683Z"
          transform="translate(-217.765 -141.898)"
          fill="#bed9fd"
        />
        <path
          id="Path_199"
          data-name="Path 199"
          d="M252.721,45.511V42.422a.968.968,0,0,1,.968-.968h46.8a.968.968,0,0,1,.968.968v3.089a.968.968,0,0,1-.968.968h-46.8A.968.968,0,0,1,252.721,45.511Z"
          transform="translate(-205.22 -4.451)"
          fill="#e27c48"
        />
        <path
          id="Path_200"
          data-name="Path 200"
          d="M28.4,301.188,8.923,312.434V289.64a1.772,1.772,0,0,0-1.772-1.772A7.151,7.151,0,0,0,0,295.011v22.455a5.768,5.768,0,0,0,5.768,5.768h.746a5.768,5.768,0,0,0,2.884-.773l23.464-13.547Z"
          transform="translate(-0.001 -204.549)"
          fill="#80b6fc"
        />
        <path
          id="Path_201"
          data-name="Path 201"
          d="M35.154,389.416,11.69,402.963a5.767,5.767,0,0,1-2.884.773H8.06a5.738,5.738,0,0,1-3.139-.93,5.761,5.761,0,0,0,4.843,2.637h.746a5.768,5.768,0,0,0,2.884-.773l23.464-13.547L35.693,389.1Z"
          transform="translate(-3.996 -286.758)"
          fill="#62a4fb"
        />
        <path
          id="Path_202"
          data-name="Path 202"
          d="M197.1,232.738a1.452,1.452,0,0,1-1.159-2.326l21.227-28.181a1.452,1.452,0,0,1,2.32,1.748L198.26,232.16A1.45,1.45,0,0,1,197.1,232.738Z"
          transform="translate(-158.874 -134.539)"
          fill="#407194"
        />
        <path
          id="Path_203"
          data-name="Path 203"
          d="M151.1,339.919l6.507-3.757a4.461,4.461,0,0,1,4.461,7.726l-6.507,3.757Z"
          transform="translate(-122.701 -243.28)"
          fill="#ffcdbe"
        />
        <path
          id="Path_204"
          data-name="Path 204"
          d="M177.941,340.271a4.438,4.438,0,0,0-1.677-1.658,4.46,4.46,0,0,1-1.659,6.045l-5.968,3.446,1.165,2.018,6.507-3.757A4.461,4.461,0,0,0,177.941,340.271Z"
          transform="translate(-136.94 -245.757)"
          fill="#ebae9d"
        />
        <path
          id="Path_205"
          data-name="Path 205"
          d="M363.762,268.394a4.556,4.556,0,1,1,4.556-4.556A4.561,4.561,0,0,1,363.762,268.394Zm0-6.209a1.652,1.652,0,1,0,1.652,1.652A1.654,1.654,0,0,0,363.762,262.185Z"
          transform="translate(-291.691 -181.336)"
          fill="#4980ac"
        />
        <g id="Group_166" data-name="Group 166" transform="translate(14.069 83.319)">
          <path
            id="Path_206"
            data-name="Path 206"
            d="M134.862,287.868c2.238,8.616,7.555,6.944,11.47,0Z"
            transform="translate(-123.583 -287.868)"
            fill="#d8e2f3"
          />
          <path
            id="Path_207"
            data-name="Path 207"
            d="M86.324,287.868c-2.238,8.616-7.555,6.944-11.47,0Z"
            transform="translate(-74.854 -287.868)"
            fill="#d8e2f3"
          />
        </g>
      </g>
    </svg>